# SSTK version 0.8.0
# 13
mtllib original-13.mtl
o mesh93/mesh93-geometry#mesh93-geometry
v 0.640996 0.131776 -0.257990
v 0.643538 0.111124 -0.256809
v 0.643538 0.131752 -0.258323
v 0.640996 0.111149 -0.256475
v 0.645907 0.111053 -0.257787
v 0.638454 0.131752 -0.258323
v 0.638454 0.111124 -0.256809
v 0.645907 0.131680 -0.259302
v 0.636085 0.111053 -0.257787
v 0.647941 0.110938 -0.259344
v 0.634050 0.110938 -0.259344
v 0.636085 0.131680 -0.259302
v 0.647941 0.131565 -0.260859
v 0.634050 0.131565 -0.260859
v 0.649502 0.131416 -0.262888
v 0.632489 0.110789 -0.261373
v 0.649502 0.110789 -0.261373
v 0.642596 0.131494 -0.261830
v 0.632489 0.131416 -0.262888
v 0.640996 0.131510 -0.261620
v 0.650484 0.131243 -0.265250
v 0.644087 0.131449 -0.262446
v 0.631508 0.110616 -0.263736
v 0.639396 0.131494 -0.261830
v 0.650484 0.110616 -0.263736
v 0.645368 0.131377 -0.263426
v 0.640996 0.137171 -0.262035
v 0.642596 0.103751 -0.259792
v 0.642596 0.137156 -0.262246
v 0.644087 0.103706 -0.260408
v 0.637905 0.131449 -0.262446
v 0.631508 0.131243 -0.265250
v 0.639396 0.137156 -0.262246
v 0.640996 0.103766 -0.259582
v 0.650818 0.131057 -0.267786
v 0.646350 0.131283 -0.264703
v 0.644087 0.137110 -0.262862
v 0.645368 0.103634 -0.261388
v 0.631173 0.110430 -0.266271
v 0.637905 0.137110 -0.262862
v 0.639396 0.103751 -0.259792
v 0.636624 0.131377 -0.263426
v 0.650818 0.110430 -0.266271
v 0.646968 0.131174 -0.266190
v 0.646350 0.136945 -0.265118
v 0.637905 0.103706 -0.260408
v 0.645368 0.137039 -0.263841
v 0.636624 0.103634 -0.261388
v 0.636624 0.137039 -0.263841
v 0.635641 0.131283 -0.264703
v 0.631173 0.131057 -0.267786
v 0.650484 0.130870 -0.270321
v 0.647179 0.131057 -0.267786
v 0.646968 0.136836 -0.266606
v 0.646350 0.103540 -0.262665
v 0.635641 0.103540 -0.262665
v 0.631508 0.110243 -0.268806
v 0.635024 0.131174 -0.266190
v 0.650484 0.110243 -0.268806
v 0.647179 0.136718 -0.268201
v 0.646968 0.103431 -0.264152
v 0.635641 0.136945 -0.265118
v 0.635024 0.136836 -0.266606
v 0.635024 0.103431 -0.264152
v 0.634813 0.131057 -0.267786
v 0.631508 0.130870 -0.270321
v 0.649502 0.130697 -0.272684
v 0.646968 0.130940 -0.269382
v 0.646968 0.136601 -0.269797
v 0.647179 0.103313 -0.265748
v 0.634813 0.136718 -0.268201
v 0.632489 0.110070 -0.271169
v 0.634813 0.103313 -0.265748
v 0.635024 0.130940 -0.269382
v 0.649502 0.110070 -0.271169
v 0.646350 0.130830 -0.270869
v 0.635024 0.136601 -0.269797
v 0.635024 0.103196 -0.267344
v 0.635641 0.130830 -0.270869
v 0.632489 0.130697 -0.272684
v 0.647941 0.130548 -0.274713
v 0.645368 0.130736 -0.272146
v 0.646350 0.136492 -0.271284
v 0.646968 0.103196 -0.267344
v 0.635641 0.136492 -0.271284
v 0.634050 0.109921 -0.273198
v 0.635641 0.103087 -0.268831
v 0.647941 0.109921 -0.273198
v 0.644087 0.130665 -0.273126
v 0.645368 0.136398 -0.272562
v 0.646350 0.103087 -0.268831
v 0.636624 0.102993 -0.270109
v 0.636624 0.130736 -0.272146
v 0.634050 0.130548 -0.274713
v 0.645907 0.109806 -0.274755
v 0.642596 0.130619 -0.273742
v 0.644087 0.102921 -0.271088
v 0.645368 0.102993 -0.270109
v 0.636624 0.136398 -0.272562
v 0.636085 0.109806 -0.274755
v 0.637905 0.130665 -0.273126
v 0.636085 0.130434 -0.276269
v 0.645907 0.130434 -0.276269
v 0.640996 0.130604 -0.273952
v 0.644087 0.136326 -0.273541
v 0.642596 0.102876 -0.271704
v 0.637905 0.136326 -0.273541
v 0.639396 0.130619 -0.273742
v 0.643538 0.109735 -0.275733
v 0.638454 0.109735 -0.275733
v 0.642596 0.136281 -0.274157
v 0.640996 0.102861 -0.271914
v 0.637905 0.102921 -0.271088
v 0.639396 0.102876 -0.271704
v 0.638454 0.130362 -0.277248
v 0.639396 0.136281 -0.274157
v 0.643538 0.130362 -0.277248
v 0.640996 0.136265 -0.274367
v 0.640996 0.109710 -0.276067
v 0.640996 0.130337 -0.277582
vn 0 0.07323803591447663 0.997314489063199
vn 0.2588189496553193 0.07074298623928768 0.9633318126156041
vn -0.2588189496553193 -0.07074298623928768 -0.9633318126156041
vn 0 -0.07323803591447663 -0.997314489063199
vn 0.4999998631310562 0.06342598263790054 0.8636997635725865
vn -0.4999998631310562 -0.06342598263790054 -0.8636997635725865
vn 0 0.997314489063199 -0.07323803591447663
vn 0 -0.997314489063199 0.07323803591447663
vn -0.2588189496553193 0.07074298623928768 0.9633318126156041
vn 0.2588189496553193 -0.07074298623928768 -0.9633318126156041
vn 0.707106814001941 0.05178698637790095 0.7052078145014555
vn -0.707106814001941 -0.05178698637790095 -0.7052078145014555
vn -0.4999998631310562 0.06342598263790054 0.8636997635725865
vn 0.4999998631310562 -0.06342598263790054 -0.8636997635725865
vn -0.707106814001941 0.05178698637790095 0.7052078145014555
vn 0.707106814001941 -0.05178698637790095 -0.7052078145014555
vn 0.8660254090087419 0.036619017294525005 0.49865723550714147
vn -0.8660254090087419 -0.036619017294525005 -0.49865723550714147
vn -0.8660254090087419 0.036619017294525005 0.49865723550714147
vn 0.8660254090087419 -0.036619017294525005 -0.49865723550714147
vn 0.9659258411646168 0.018954996883068946 0.25812395755448714
vn -0.9659258411646168 -0.018954996883068946 -0.25812395755448714
vn -0.9659258411646168 0.018954996883068946 0.25812395755448714
vn 0.9659258411646168 -0.018954996883068946 -0.25812395755448714
vn 1 0 0
vn -1 0 0
usemtl material_0_0
f 1//1 2//2 3//2
f 2//2 1//1 4//1
f 3//3 2//3 1//4
f 4//4 1//4 2//3
f 5//5 3//2 2//2
f 2//3 3//3 5//6
f 3//7 6//7 1//7
f 1//8 6//8 3//8
f 6//9 4//1 1//1
f 1//4 4//4 6//10
f 7//8 2//8 4//8
f 4//7 2//7 7//7
f 3//2 5//5 8//5
f 8//6 5//6 3//3
f 2//8 9//8 5//8
f 5//7 9//7 2//7
f 6//7 3//7 8//7
f 8//8 3//8 6//8
f 4//1 6//9 7//9
f 7//10 6//10 4//4
f 2//8 7//8 9//8
f 9//7 7//7 2//7
f 10//11 8//5 5//5
f 5//6 8//6 10//12
f 5//8 9//8 11//8
f 11//7 9//7 5//7
f 6//7 8//7 12//7
f 12//8 8//8 6//8
f 12//13 7//9 6//9
f 6//10 7//10 12//14
f 7//9 12//13 9//13
f 9//14 12//14 7//10
f 8//5 10//11 13//11
f 13//12 10//12 8//6
f 5//8 11//8 10//8
f 10//7 11//7 5//7
f 9//13 14//15 11//15
f 11//16 14//16 9//14
f 12//7 8//7 13//7
f 13//8 8//8 12//8
f 14//15 9//13 12//13
f 12//14 9//14 14//16
f 10//11 15//17 13//11
f 13//12 15//18 10//12
f 10//8 11//8 16//8
f 16//7 11//7 10//7
f 14//15 16//19 11//15
f 11//16 16//20 14//16
f 12//7 13//7 14//7
f 14//8 13//8 12//8
f 15//17 10//11 17//17
f 17//18 10//12 15//18
f 18//7 13//7 15//7
f 15//8 13//8 18//8
f 10//8 16//8 17//8
f 17//7 16//7 10//7
f 16//19 14//15 19//19
f 19//20 14//16 16//20
f 14//7 13//7 20//7
f 20//8 13//8 14//8
f 17//17 21//21 15//17
f 15//18 21//22 17//18
f 20//7 13//7 18//7
f 18//8 13//8 20//8
f 18//7 15//7 22//7
f 22//8 15//8 18//8
f 17//8 16//8 23//8
f 23//7 16//7 17//7
f 14//7 24//7 19//7
f 19//8 24//8 14//8
f 19//19 23//23 16//19
f 16//20 23//24 19//20
f 24//7 14//7 20//7
f 20//8 14//8 24//8
f 21//21 17//17 25//21
f 25//22 17//18 21//22
f 26//7 15//7 21//7
f 21//8 15//8 26//8
f 18//2 27//1 20//1
f 20//4 27//4 18//3
f 20//1 28//2 18//2
f 18//3 28//3 20//4
f 22//7 15//7 26//7
f 26//8 15//8 22//8
f 22//5 29//2 18//2
f 18//3 29//3 22//6
f 18//2 30//5 22//5
f 22//6 30//6 18//3
f 17//8 23//8 25//8
f 25//7 23//7 17//7
f 19//7 24//7 31//7
f 31//8 24//8 19//8
f 23//23 19//19 32//23
f 32//24 19//20 23//24
f 20//1 33//9 24//9
f 24//10 33//10 20//4
f 24//9 34//1 20//1
f 20//4 34//4 24//10
f 25//21 35//25 21//21
f 21//22 35//26 25//22
f 26//7 21//7 36//7
f 36//8 21//8 26//8
f 27//1 18//2 29//2
f 29//3 18//3 27//4
f 33//9 20//1 27//1
f 27//4 20//4 33//10
f 28//2 20//1 34//1
f 34//4 20//4 28//3
f 30//5 18//2 28//2
f 28//3 18//3 30//6
f 26//11 37//5 22//5
f 22//6 37//6 26//12
f 22//5 38//11 26//11
f 26//12 38//12 22//6
f 29//2 22//5 37//5
f 37//6 22//6 29//3
f 38//11 22//5 30//5
f 30//6 22//6 38//12
f 25//8 23//8 39//8
f 39//7 23//7 25//7
f 24//9 40//13 31//13
f 31//14 40//14 24//10
f 31//13 41//9 24//9
f 24//10 41//10 31//14
f 19//7 31//7 42//7
f 42//8 31//8 19//8
f 19//7 42//7 32//7
f 32//8 42//8 19//8
f 32//23 39//26 23//23
f 23//24 39//25 32//24
f 40//13 24//9 33//9
f 33//10 24//10 40//14
f 34//1 24//9 41//9
f 41//10 24//10 34//4
f 35//25 25//21 43//25
f 43//26 25//22 35//26
f 44//7 21//7 35//7
f 35//8 21//8 44//8
f 36//7 21//7 44//7
f 44//8 21//8 36//8
f 45//17 26//11 36//17
f 36//18 26//12 45//18
f 38//11 36//17 26//11
f 26//12 36//18 38//12
f 33//8 29//8 27//8
f 27//7 29//7 33//7
f 41//8 28//8 34//8
f 34//7 28//7 41//7
f 28//8 46//8 30//8
f 30//7 46//7 28//7
f 37//5 26//11 47//11
f 47//12 26//12 37//6
f 29//8 40//8 37//8
f 37//7 40//7 29//7
f 30//8 48//8 38//8
f 38//7 48//7 30//7
f 25//8 39//8 43//8
f 43//7 39//7 25//7
f 49//15 31//13 40//13
f 40//14 31//14 49//16
f 41//9 31//13 46//13
f 46//14 31//14 41//10
f 31//13 49//15 42//15
f 42//16 49//16 31//14
f 42//15 46//13 31//13
f 31//14 46//14 42//16
f 32//7 42//7 50//7
f 50//8 42//8 32//8
f 39//26 32//23 51//26
f 51//25 32//24 39//25
f 29//8 33//8 40//8
f 40//7 33//7 29//7
f 43//25 52//24 35//25
f 35//26 52//23 43//26
f 44//7 35//7 53//7
f 53//8 35//8 44//8
f 54//21 36//17 44//21
f 44//22 36//18 54//22
f 55//17 44//21 36//17
f 36//18 44//22 55//18
f 26//11 45//17 47//11
f 47//12 45//18 26//12
f 36//17 54//21 45//17
f 45//18 54//22 36//18
f 36//17 38//11 55//17
f 55//18 38//12 36//18
f 28//8 41//8 46//8
f 46//7 41//7 28//7
f 30//8 46//8 48//8
f 48//7 46//7 30//7
f 37//8 49//8 47//8
f 47//7 49//7 37//7
f 37//8 40//8 49//8
f 49//7 40//7 37//7
f 38//8 48//8 56//8
f 56//7 48//7 38//7
f 43//8 39//8 57//8
f 57//7 39//7 43//7
f 49//15 50//19 42//15
f 42//16 50//20 49//16
f 46//13 42//15 48//15
f 48//16 42//16 46//14
f 56//19 42//15 50//19
f 50//20 42//16 56//20
f 32//7 50//7 58//7
f 58//8 50//8 32//8
f 32//7 58//7 51//7
f 51//8 58//8 32//8
f 51//26 57//22 39//26
f 39//25 57//21 51//25
f 52//24 43//25 59//24
f 59//23 43//26 52//23
f 53//7 35//7 52//7
f 52//8 35//8 53//8
f 60//25 44//21 53//25
f 53//26 44//22 60//26
f 61//21 53//25 44//21
f 44//22 53//26 61//22
f 44//21 60//25 54//21
f 54//22 60//26 44//22
f 44//21 55//17 61//21
f 61//22 55//18 44//22
f 47//8 62//8 45//8
f 45//7 62//7 47//7
f 45//8 63//8 54//8
f 54//7 63//7 45//7
f 38//8 56//8 55//8
f 55//7 56//7 38//7
f 47//8 49//8 62//8
f 62//7 49//7 47//7
f 42//15 56//19 48//15
f 48//16 56//20 42//16
f 43//8 57//8 59//8
f 59//7 57//7 43//7
f 50//19 49//15 62//19
f 62//20 49//16 50//20
f 50//19 64//23 56//19
f 56//20 64//24 50//20
f 62//19 58//23 50//19
f 50//20 58//24 62//20
f 64//23 50//19 58//23
f 58//24 50//20 64//24
f 51//7 58//7 65//7
f 65//8 58//8 51//8
f 57//22 51//26 66//22
f 66//21 51//25 57//21
f 59//24 67//20 52//24
f 52//23 67//19 59//23
f 53//7 52//7 68//7
f 68//8 52//8 53//8
f 53//25 69//24 60//25
f 60//26 69//23 53//26
f 53//25 61//21 70//25
f 70//26 61//22 53//26
f 54//8 71//8 60//8
f 60//7 71//7 54//7
f 55//8 64//8 61//8
f 61//7 64//7 55//7
f 45//8 62//8 63//8
f 63//7 62//7 45//7
f 54//8 63//8 71//8
f 71//7 63//7 54//7
f 55//8 56//8 64//8
f 64//7 56//7 55//7
f 59//8 57//8 72//8
f 72//7 57//7 59//7
f 58//23 62//19 63//23
f 63//24 62//20 58//24
f 58//23 73//26 64//23
f 64//24 73//25 58//24
f 63//23 65//26 58//23
f 58//24 65//25 63//24
f 73//26 58//23 65//26
f 65//25 58//24 73//25
f 51//7 65//7 74//7
f 74//8 65//8 51//8
f 51//7 74//7 66//7
f 66//8 74//8 51//8
f 66//22 72//18 57//22
f 57//21 72//17 66//21
f 67//20 59//24 75//20
f 75//19 59//23 67//19
f 76//7 52//7 67//7
f 67//8 52//8 76//8
f 68//7 52//7 76//7
f 76//8 52//8 68//8
f 69//24 53//25 68//24
f 68//23 53//26 69//23
f 70//25 68//24 53//25
f 53//26 68//23 70//26
f 60//8 77//8 69//8
f 69//7 77//7 60//7
f 61//8 73//8 70//8
f 70//7 73//7 61//7
f 60//8 71//8 77//8
f 77//7 71//7 60//7
f 61//8 64//8 73//8
f 73//7 64//7 61//7
f 65//26 63//23 71//26
f 71//25 63//24 65//25
f 59//8 72//8 75//8
f 75//7 72//7 59//7
f 65//26 78//22 73//26
f 73//25 78//21 65//25
f 71//26 74//22 65//26
f 65//25 74//21 71//25
f 78//22 65//26 74//22
f 74//21 65//25 78//21
f 66//7 74//7 79//7
f 79//8 74//8 66//8
f 72//18 66//22 80//18
f 80//17 66//21 72//17
f 75//20 81//16 67//20
f 67//19 81//15 75//19
f 76//7 67//7 82//7
f 82//8 67//8 76//8
f 83//20 68//24 76//20
f 76//19 68//23 83//19
f 84//24 76//20 68//24
f 68//23 76//19 84//23
f 68//24 83//20 69//24
f 69//23 83//19 68//23
f 68//24 70//25 84//24
f 84//23 70//26 68//23
f 69//8 77//8 85//8
f 85//7 77//7 69//7
f 70//8 73//8 78//8
f 78//7 73//7 70//7
f 74//22 71//26 77//22
f 77//21 71//25 74//21
f 75//8 72//8 86//8
f 86//7 72//7 75//7
f 74//22 87//18 78//22
f 78//21 87//17 74//21
f 77//22 79//18 74//22
f 74//21 79//17 77//21
f 87//18 74//22 79//18
f 79//17 74//21 87//17
f 66//7 79//7 80//7
f 80//8 79//8 66//8
f 80//18 86//12 72//18
f 72//17 86//11 80//17
f 81//16 75//20 88//16
f 88//15 75//19 81//15
f 89//7 67//7 81//7
f 81//8 67//8 89//8
f 82//7 67//7 89//7
f 89//8 67//8 82//8
f 90//16 76//20 82//16
f 82//15 76//19 90//15
f 91//20 82//16 76//20
f 76//19 82//15 91//19
f 76//20 90//16 83//20
f 83//19 90//15 76//19
f 76//20 84//24 91//20
f 91//19 84//23 76//19
f 69//8 85//8 83//8
f 83//7 85//7 69//7
f 70//8 78//8 84//8
f 84//7 78//7 70//7
f 79//18 77//22 85//18
f 85//17 77//21 79//17
f 75//8 86//8 88//8
f 88//7 86//7 75//7
f 84//8 78//8 87//8
f 87//7 78//7 84//7
f 79//18 92//12 87//18
f 87//17 92//11 79//17
f 80//7 79//7 93//7
f 93//8 79//8 80//8
f 86//12 80//18 94//12
f 94//11 80//17 86//11
f 95//14 81//16 88//16
f 88//15 81//15 95//13
f 89//7 81//7 96//7
f 96//8 81//8 89//8
f 89//14 90//16 82//16
f 82//15 90//15 89//13
f 82//16 97//14 89//14
f 89//13 97//13 82//15
f 82//16 91//20 98//16
f 98//15 91//19 82//15
f 83//8 99//8 90//8
f 90//7 99//7 83//7
f 84//8 87//8 91//8
f 91//7 87//7 84//7
f 83//8 85//8 99//8
f 99//7 85//7 83//7
f 85//18 93//12 79//18
f 79//17 93//11 85//17
f 88//8 86//8 100//8
f 100//7 86//7 88//7
f 92//12 79//18 93//12
f 93//11 79//17 92//11
f 91//8 87//8 92//8
f 92//7 87//7 91//7
f 80//7 93//7 101//7
f 101//8 93//8 80//8
f 80//7 101//7 94//7
f 94//8 101//8 80//8
f 102//6 86//12 94//12
f 94//11 86//11 102//5
f 81//16 95//14 103//14
f 103//13 95//13 81//15
f 88//8 100//8 95//8
f 95//7 100//7 88//7
f 96//7 81//7 104//7
f 104//8 81//8 96//8
f 96//10 105//14 89//14
f 89//13 105//13 96//9
f 89//14 106//10 96//10
f 96//9 106//9 89//13
f 90//16 89//14 105//14
f 105//13 89//13 90//15
f 97//14 82//16 98//16
f 98//15 82//15 97//13
f 106//10 89//14 97//14
f 97//13 89//13 106//9
f 91//8 92//8 98//8
f 98//7 92//7 91//7
f 90//8 99//8 107//8
f 107//7 99//7 90//7
f 93//12 85//18 99//12
f 99//11 85//17 93//11
f 86//12 102//6 100//6
f 100//5 102//5 86//11
f 101//6 92//12 93//12
f 93//11 92//11 101//5
f 93//12 107//6 101//6
f 101//5 107//5 93//11
f 94//7 101//7 108//7
f 108//8 101//8 94//8
f 94//7 103//7 102//7
f 102//8 103//8 94//8
f 109//10 103//14 95//14
f 95//13 103//13 109//9
f 94//7 81//7 103//7
f 103//8 81//8 94//8
f 95//8 100//8 110//8
f 110//7 100//7 95//7
f 94//7 104//7 81//7
f 81//8 104//8 94//8
f 104//4 111//10 96//10
f 96//9 111//9 104//1
f 96//10 112//4 104//4
f 104//1 112//1 96//9
f 105//14 96//10 111//10
f 111//9 96//9 105//13
f 112//4 96//10 106//10
f 106//9 96//9 112//1
f 90//8 107//8 105//8
f 105//7 107//7 90//7
f 98//8 113//8 97//8
f 97//7 113//7 98//7
f 97//8 114//8 106//8
f 106//7 114//7 97//7
f 98//8 92//8 113//8
f 113//7 92//7 98//7
f 107//6 93//12 99//12
f 99//11 93//11 107//5
f 115//3 100//6 102//6
f 102//5 100//5 115//2
f 92//12 101//6 113//6
f 113//5 101//5 92//11
f 116//3 101//6 107//6
f 107//5 101//5 116//2
f 101//6 116//3 108//3
f 108//2 116//2 101//5
f 108//3 113//6 101//6
f 101//5 113//5 108//2
f 94//7 108//7 104//7
f 104//8 108//8 94//8
f 102//7 103//7 115//7
f 115//8 103//8 102//8
f 103//14 109//10 117//10
f 117//9 109//9 103//13
f 95//8 110//8 109//8
f 109//7 110//7 95//7
f 100//6 115//3 110//3
f 110//2 115//2 100//5
f 111//10 104//4 118//4
f 118//1 104//1 111//9
f 114//3 104//4 112//4
f 112//1 104//1 114//2
f 105//8 116//8 111//8
f 111//7 116//7 105//7
f 106//8 114//8 112//8
f 112//7 114//7 106//7
f 105//8 107//8 116//8
f 116//7 107//7 105//7
f 97//8 113//8 114//8
f 114//7 113//7 97//7
f 118//4 108//3 116//3
f 116//2 108//2 118//1
f 113//6 108//3 114//3
f 114//2 108//2 113//5
f 108//3 118//4 104//4
f 104//1 118//1 108//2
f 104//4 114//3 108//3
f 108//2 114//2 104//1
f 115//7 103//7 117//7
f 117//8 103//8 115//8
f 119//4 117//10 109//10
f 109//9 117//9 119//1
f 109//8 110//8 119//8
f 119//7 110//7 109//7
f 120//4 110//3 115//3
f 115//2 110//2 120//1
f 111//8 116//8 118//8
f 118//7 116//7 111//7
f 115//7 117//7 120//7
f 120//8 117//8 115//8
f 117//10 119//4 120//4
f 120//1 119//1 117//9
f 110//3 120//4 119//4
f 119//1 120//1 110//2
