# SSTK version 0.8.0
# 8
mtllib original-8.mtl
o mesh50/mesh50-geometry#mesh50-geometry
v -0.647907 0.131752 -0.258323
v -0.647907 0.111124 -0.256809
v -0.645365 0.131776 -0.257990
v -0.650276 0.111053 -0.257787
v -0.645365 0.111149 -0.256475
v -0.642823 0.131752 -0.258323
v -0.650276 0.131680 -0.259302
v -0.640454 0.111053 -0.257787
v -0.642823 0.111124 -0.256809
v -0.652311 0.110938 -0.259344
v -0.638420 0.110938 -0.259344
v -0.640454 0.131680 -0.259302
v -0.652311 0.131565 -0.260859
v -0.638420 0.131565 -0.260859
v -0.653872 0.131416 -0.262888
v -0.636859 0.110789 -0.261373
v -0.646965 0.131494 -0.261830
v -0.653872 0.110789 -0.261373
v -0.636859 0.131416 -0.262888
v -0.645365 0.131510 -0.261620
v -0.648456 0.131449 -0.262446
v -0.654853 0.131243 -0.265250
v -0.635877 0.110616 -0.263736
v -0.643765 0.131494 -0.261830
v -0.645365 0.137171 -0.262035
v -0.646965 0.103751 -0.259792
v -0.649737 0.131377 -0.263426
v -0.646965 0.137156 -0.262246
v -0.648456 0.103706 -0.260408
v -0.654853 0.110616 -0.263736
v -0.642274 0.131449 -0.262446
v -0.635877 0.131243 -0.265250
v -0.643765 0.137156 -0.262246
v -0.645365 0.103766 -0.259582
v -0.648456 0.137110 -0.262862
v -0.649737 0.103634 -0.261388
v -0.650719 0.131283 -0.264703
v -0.655188 0.131057 -0.267786
v -0.635543 0.110430 -0.266271
v -0.642274 0.137110 -0.262862
v -0.643765 0.103751 -0.259792
v -0.640993 0.131377 -0.263426
v -0.642274 0.103706 -0.260408
v -0.649737 0.137039 -0.263841
v -0.640993 0.103634 -0.261388
v -0.651337 0.131174 -0.266190
v -0.650719 0.136945 -0.265118
v -0.655188 0.110430 -0.266271
v -0.640993 0.137039 -0.263841
v -0.640011 0.131283 -0.264703
v -0.635543 0.131057 -0.267786
v -0.650719 0.103540 -0.262665
v -0.640011 0.103540 -0.262665
v -0.651337 0.136836 -0.266606
v -0.651548 0.131057 -0.267786
v -0.654853 0.130870 -0.270321
v -0.635877 0.110243 -0.268806
v -0.639393 0.131174 -0.266190
v -0.640011 0.136945 -0.265118
v -0.651548 0.136718 -0.268201
v -0.651337 0.103431 -0.264152
v -0.639393 0.136836 -0.266606
v -0.654853 0.110243 -0.268806
v -0.639393 0.103431 -0.264152
v -0.639182 0.131057 -0.267786
v -0.635877 0.130870 -0.270321
v -0.639182 0.136718 -0.268201
v -0.651337 0.130940 -0.269382
v -0.651337 0.136601 -0.269797
v -0.651548 0.103313 -0.265748
v -0.653872 0.130697 -0.272684
v -0.636859 0.110070 -0.271169
v -0.639182 0.103313 -0.265748
v -0.639393 0.130940 -0.269382
v -0.639393 0.136601 -0.269797
v -0.650719 0.130830 -0.270869
v -0.653872 0.110070 -0.271169
v -0.639393 0.103196 -0.267344
v -0.640011 0.130830 -0.270869
v -0.636859 0.130697 -0.272684
v -0.650719 0.136492 -0.271284
v -0.651337 0.103196 -0.267344
v -0.640011 0.136492 -0.271284
v -0.649737 0.130736 -0.272146
v -0.652311 0.130548 -0.274713
v -0.638420 0.109921 -0.273198
v -0.640011 0.103087 -0.268831
v -0.649737 0.136398 -0.272562
v -0.650719 0.103087 -0.268831
v -0.648456 0.130665 -0.273126
v -0.652311 0.109921 -0.273198
v -0.640993 0.102993 -0.270109
v -0.640993 0.130736 -0.272146
v -0.638420 0.130548 -0.274713
v -0.640993 0.136398 -0.272562
v -0.648456 0.102921 -0.271088
v -0.649737 0.102993 -0.270109
v -0.646965 0.130619 -0.273742
v -0.650276 0.109806 -0.274755
v -0.640454 0.109806 -0.274755
v -0.642274 0.130665 -0.273126
v -0.640454 0.130434 -0.276269
v -0.642274 0.136326 -0.273541
v -0.648456 0.136326 -0.273541
v -0.646965 0.102876 -0.271704
v -0.645365 0.130604 -0.273952
v -0.650276 0.130434 -0.276269
v -0.643765 0.130619 -0.273742
v -0.643765 0.102876 -0.271704
v -0.642274 0.102921 -0.271088
v -0.646965 0.136281 -0.274157
v -0.645365 0.102861 -0.271914
v -0.647907 0.109735 -0.275733
v -0.642823 0.109735 -0.275733
v -0.642823 0.130362 -0.277248
v -0.643765 0.136281 -0.274157
v -0.645365 0.136265 -0.274367
v -0.647907 0.130362 -0.277248
v -0.645365 0.109710 -0.276067
v -0.645365 0.130337 -0.277582
vn -0.2588189496553193 0.07074298623928768 0.9633318126156041
vn 0 0.07323803591447663 0.997314489063199
vn 0 -0.07323803591447663 -0.997314489063199
vn 0.2588189496553193 -0.07074298623928768 -0.9633318126156041
vn -0.4999998631310562 0.06342598263790054 0.8636997635725865
vn 0.4999998631310562 -0.06342598263790054 -0.8636997635725865
vn 0 0.997314489063199 -0.07323803591447663
vn 0 -0.997314489063199 0.07323803591447663
vn 0.2588189496553193 0.07074298623928768 0.9633318126156041
vn -0.2588189496553193 -0.07074298623928768 -0.9633318126156041
vn -0.707106814001941 0.05178698637790095 0.7052078145014555
vn 0.707106814001941 -0.05178698637790095 -0.7052078145014555
vn 0.707106814001941 0.05178698637790095 0.7052078145014555
vn 0.4999998631310562 0.06342598263790054 0.8636997635725865
vn -0.4999998631310562 -0.06342598263790054 -0.8636997635725865
vn -0.707106814001941 -0.05178698637790095 -0.7052078145014555
vn -0.8660254090087419 0.036619017294525005 0.49865723550714147
vn 0.8660254090087419 -0.036619017294525005 -0.49865723550714147
vn 0.8660254090087419 0.036619017294525005 0.49865723550714147
vn -0.8660254090087419 -0.036619017294525005 -0.49865723550714147
vn -0.9659258411646168 0.018954996883068946 0.25812395755448714
vn 0.9659258411646168 -0.018954996883068946 -0.25812395755448714
vn 0.9659258411646168 0.018954996883068946 0.25812395755448714
vn -0.9659258411646168 -0.018954996883068946 -0.25812395755448714
vn -1 0 0
vn 1 0 0
usemtl material_0_0
f 1//1 2//1 3//2
f 3//3 2//4 1//4
f 2//1 1//1 4//5
f 4//6 1//4 2//4
f 5//2 3//2 2//1
f 2//4 3//3 5//3
f 3//7 6//7 1//7
f 1//8 6//8 3//8
f 7//5 4//5 1//1
f 1//4 4//6 7//6
f 4//8 8//8 2//8
f 2//7 8//7 4//7
f 3//2 5//2 6//9
f 6//10 5//3 3//3
f 5//8 2//8 9//8
f 9//7 2//7 5//7
f 7//7 1//7 6//7
f 6//8 1//8 7//8
f 4//5 7//5 10//11
f 10//12 7//6 4//6
f 11//8 8//8 4//8
f 4//7 8//7 11//7
f 8//8 9//8 2//8
f 2//7 9//7 8//7
f 9//9 6//9 5//2
f 5//3 6//10 9//10
f 12//7 7//7 6//7
f 6//8 7//8 12//8
f 13//11 10//11 7//5
f 7//6 10//12 13//12
f 10//8 11//8 4//8
f 4//7 11//7 10//7
f 11//13 14//13 8//14
f 8//15 14//16 11//16
f 8//14 12//14 9//9
f 9//10 12//15 8//15
f 6//9 9//9 12//14
f 12//15 9//10 6//10
f 13//7 7//7 12//7
f 12//8 7//8 13//8
f 13//11 15//17 10//11
f 10//12 15//18 13//12
f 16//8 11//8 10//8
f 10//7 11//7 16//7
f 11//13 16//19 14//13
f 14//16 16//20 11//16
f 12//14 8//14 14//13
f 14//16 8//15 12//15
f 14//7 13//7 12//7
f 12//8 13//8 14//8
f 15//7 13//7 17//7
f 17//8 13//8 15//8
f 18//17 10//11 15//17
f 15//18 10//12 18//18
f 18//8 16//8 10//8
f 10//7 16//7 18//7
f 19//19 14//13 16//19
f 16//20 14//16 19//20
f 20//7 13//7 14//7
f 14//8 13//8 20//8
f 17//7 13//7 20//7
f 20//8 13//8 17//8
f 21//7 15//7 17//7
f 17//8 15//8 21//8
f 15//17 22//21 18//17
f 18//18 22//22 15//18
f 23//8 16//8 18//8
f 18//7 16//7 23//7
f 19//7 24//7 14//7
f 14//8 24//8 19//8
f 16//19 23//23 19//19
f 19//20 23//24 16//20
f 20//7 14//7 24//7
f 24//8 14//8 20//8
f 20//2 25//2 17//1
f 17//4 25//3 20//3
f 17//1 26//1 20//2
f 20//3 26//4 17//4
f 27//7 15//7 21//7
f 21//8 15//8 27//8
f 17//1 28//1 21//5
f 21//6 28//4 17//4
f 21//5 29//5 17//1
f 17//4 29//6 21//6
f 22//7 15//7 27//7
f 27//8 15//8 22//8
f 30//21 18//17 22//21
f 22//22 18//18 30//22
f 30//8 23//8 18//8
f 18//7 23//7 30//7
f 31//7 24//7 19//7
f 19//8 24//8 31//8
f 32//23 19//19 23//23
f 23//24 19//20 32//24
f 24//9 33//9 20//2
f 20//3 33//10 24//10
f 20//2 34//2 24//9
f 24//10 34//3 20//3
f 25//2 20//2 33//9
f 33//10 20//3 25//3
f 28//1 17//1 25//2
f 25//3 17//4 28//4
f 26//1 17//1 29//5
f 29//6 17//4 26//4
f 34//2 20//2 26//1
f 26//4 20//3 34//3
f 21//5 35//5 27//11
f 27//12 35//6 21//6
f 27//11 36//11 21//5
f 21//6 36//12 27//12
f 35//5 21//5 28//1
f 28//4 21//6 35//6
f 29//5 21//5 36//11
f 36//12 21//6 29//6
f 37//7 22//7 27//7
f 27//8 22//8 37//8
f 22//21 38//25 30//21
f 30//22 38//26 22//22
f 39//8 23//8 30//8
f 30//7 23//7 39//7
f 31//14 40//14 24//9
f 24//10 40//15 31//15
f 24//9 41//9 31//14
f 31//15 41//10 24//10
f 42//7 31//7 19//7
f 19//8 31//8 42//8
f 32//7 42//7 19//7
f 19//8 42//8 32//8
f 23//23 39//26 32//23
f 32//24 39//25 23//24
f 33//9 24//9 40//14
f 40//15 24//10 33//10
f 41//9 24//9 34//2
f 34//3 24//10 41//10
f 25//8 28//8 33//8
f 33//7 28//7 25//7
f 29//8 43//8 26//8
f 26//7 43//7 29//7
f 34//8 26//8 41//8
f 41//7 26//7 34//7
f 44//11 27//11 35//5
f 35//6 27//12 44//12
f 27//11 37//17 36//11
f 36//12 37//18 27//12
f 35//8 40//8 28//8
f 28//7 40//7 35//7
f 36//8 45//8 29//8
f 29//7 45//7 36//7
f 46//7 22//7 37//7
f 37//8 22//8 46//8
f 37//17 27//11 47//17
f 47//18 27//12 37//18
f 38//7 22//7 46//7
f 46//8 22//8 38//8
f 48//25 30//21 38//25
f 38//26 30//22 48//26
f 48//8 39//8 30//8
f 30//7 39//7 48//7
f 40//14 31//14 49//13
f 49//16 31//15 40//15
f 43//14 31//14 41//9
f 41//10 31//15 43//15
f 42//13 49//13 31//14
f 31//15 49//16 42//16
f 31//14 43//14 42//13
f 42//16 43//15 31//15
f 50//7 42//7 32//7
f 32//8 42//8 50//8
f 51//26 32//23 39//26
f 39//25 32//24 51//25
f 40//8 33//8 28//8
f 28//7 33//7 40//7
f 45//8 43//8 29//8
f 29//7 43//7 45//7
f 43//8 41//8 26//8
f 26//7 41//7 43//7
f 44//11 47//17 27//11
f 27//12 47//18 44//12
f 44//8 49//8 35//8
f 35//7 49//7 44//7
f 52//17 36//11 37//17
f 37//18 36//12 52//18
f 49//8 40//8 35//8
f 35//7 40//7 49//7
f 53//8 45//8 36//8
f 36//7 45//7 53//7
f 46//21 37//17 54//21
f 54//22 37//18 46//22
f 37//17 46//21 52//17
f 52//18 46//22 37//18
f 47//17 54//21 37//17
f 37//18 54//22 47//18
f 55//7 38//7 46//7
f 46//8 38//8 55//8
f 38//25 56//24 48//25
f 48//26 56//23 38//26
f 57//8 39//8 48//8
f 48//7 39//7 57//7
f 42//13 50//19 49//13
f 49//16 50//20 42//16
f 45//13 42//13 43//14
f 43//15 42//16 45//16
f 50//19 42//13 53//19
f 53//20 42//16 50//20
f 58//7 50//7 32//7
f 32//8 50//8 58//8
f 51//7 58//7 32//7
f 32//8 58//8 51//8
f 39//26 57//22 51//26
f 51//25 57//21 39//25
f 47//8 59//8 44//8
f 44//7 59//7 47//7
f 59//8 49//8 44//8
f 44//7 49//7 59//7
f 52//8 53//8 36//8
f 36//7 53//7 52//7
f 45//13 53//19 42//13
f 42//16 53//20 45//16
f 54//21 60//25 46//21
f 46//22 60//26 54//22
f 61//21 52//17 46//21
f 46//22 52//18 61//22
f 54//8 62//8 47//8
f 47//7 62//7 54//7
f 56//7 38//7 55//7
f 55//8 38//8 56//8
f 55//25 46//21 60//25
f 60//26 46//22 55//26
f 46//21 55//25 61//21
f 61//22 55//26 46//22
f 63//24 48//25 56//24
f 56//23 48//26 63//23
f 63//8 57//8 48//8
f 48//7 57//7 63//7
f 59//19 49//13 50//19
f 50//20 49//16 59//20
f 53//19 64//23 50//19
f 50//20 64//24 53//20
f 50//19 58//23 59//19
f 59//20 58//24 50//20
f 58//23 50//19 64//23
f 64//24 50//20 58//24
f 65//7 58//7 51//7
f 51//8 58//8 65//8
f 66//22 51//26 57//22
f 57//21 51//25 66//21
f 62//8 59//8 47//8
f 47//7 59//7 62//7
f 64//8 53//8 52//8
f 52//7 53//7 64//7
f 60//8 67//8 54//8
f 54//7 67//7 60//7
f 61//8 64//8 52//8
f 52//7 64//7 61//7
f 67//8 62//8 54//8
f 54//7 62//7 67//7
f 68//7 56//7 55//7
f 55//8 56//8 68//8
f 60//25 69//24 55//25
f 55//26 69//23 60//26
f 70//25 61//21 55//25
f 55//26 61//22 70//26
f 56//24 71//20 63//24
f 63//23 71//19 56//23
f 72//8 57//8 63//8
f 63//7 57//7 72//7
f 62//23 59//19 58//23
f 58//24 59//20 62//24
f 64//23 73//26 58//23
f 58//24 73//25 64//24
f 58//23 65//26 62//23
f 62//24 65//25 58//24
f 65//26 58//23 73//26
f 73//25 58//24 65//25
f 74//7 65//7 51//7
f 51//8 65//8 74//8
f 66//7 74//7 51//7
f 51//8 74//8 66//8
f 57//22 72//18 66//22
f 66//21 72//17 57//21
f 75//8 67//8 60//8
f 60//7 67//7 75//7
f 73//8 64//8 61//8
f 61//7 64//7 73//7
f 67//26 62//23 65//26
f 65//25 62//24 67//25
f 76//7 56//7 68//7
f 68//8 56//8 76//8
f 68//24 55//25 69//24
f 69//23 55//26 68//23
f 55//25 68//24 70//25
f 70//26 68//23 55//26
f 69//8 75//8 60//8
f 60//7 75//7 69//7
f 70//8 73//8 61//8
f 61//7 73//7 70//7
f 71//7 56//7 76//7
f 76//8 56//8 71//8
f 77//20 63//24 71//20
f 71//19 63//23 77//19
f 77//8 72//8 63//8
f 63//7 72//7 77//7
f 73//26 78//22 65//26
f 65//25 78//21 73//25
f 65//26 74//22 67//26
f 67//25 74//21 65//25
f 74//22 65//26 78//22
f 78//21 65//25 74//21
f 79//7 74//7 66//7
f 66//8 74//8 79//8
f 80//18 66//22 72//18
f 72//17 66//21 80//17
f 75//22 67//26 74//22
f 74//21 67//25 75//21
f 76//20 68//24 81//20
f 81//19 68//23 76//19
f 68//24 76//20 82//24
f 82//23 76//19 68//23
f 69//24 81//20 68//24
f 68//23 81//19 69//23
f 82//24 70//25 68//24
f 68//23 70//26 82//23
f 83//8 75//8 69//8
f 69//7 75//7 83//7
f 78//8 73//8 70//8
f 70//7 73//7 78//7
f 84//7 71//7 76//7
f 76//8 71//8 84//8
f 71//20 85//16 77//20
f 77//19 85//13 71//19
f 86//8 72//8 77//8
f 77//7 72//7 86//7
f 78//22 87//18 74//22
f 74//21 87//17 78//21
f 74//22 79//18 75//22
f 75//21 79//17 74//21
f 79//18 74//22 87//18
f 87//17 74//21 79//17
f 80//7 79//7 66//7
f 66//8 79//8 80//8
f 72//18 86//12 80//18
f 80//17 86//11 72//17
f 81//20 88//16 76//20
f 76//19 88//13 81//19
f 89//20 82//24 76//20
f 76//19 82//23 89//19
f 81//8 83//8 69//8
f 69//7 83//7 81//7
f 82//8 78//8 70//8
f 70//7 78//7 82//7
f 83//18 75//22 79//18
f 79//17 75//21 83//17
f 90//7 71//7 84//7
f 84//8 71//8 90//8
f 84//16 76//20 88//16
f 88//13 76//19 84//13
f 76//20 84//16 89//20
f 89//19 84//13 76//19
f 85//7 71//7 90//7
f 90//8 71//8 85//8
f 91//16 77//20 85//16
f 85//13 77//19 91//13
f 91//8 86//8 77//8
f 77//7 86//7 91//7
f 87//8 78//8 82//8
f 82//7 78//7 87//7
f 87//18 92//12 79//18
f 79//17 92//11 87//17
f 93//7 79//7 80//7
f 80//8 79//8 93//8
f 94//12 80//18 86//12
f 86//11 80//17 94//11
f 88//8 95//8 81//8
f 81//7 95//7 88//7
f 89//8 87//8 82//8
f 82//7 87//7 89//7
f 95//8 83//8 81//8
f 81//7 83//7 95//7
f 79//18 93//12 83//18
f 83//17 93//11 79//17
f 84//16 88//16 90//15
f 90//14 88//13 84//13
f 90//15 96//15 84//16
f 84//13 96//14 90//14
f 97//16 89//20 84//16
f 84//13 89//19 97//13
f 98//7 85//7 90//7
f 90//8 85//8 98//8
f 91//16 85//16 99//15
f 99//14 85//13 91//13
f 100//8 86//8 91//8
f 91//7 86//7 100//7
f 92//8 87//8 89//8
f 89//7 87//7 92//7
f 93//12 79//18 92//12
f 92//11 79//17 93//11
f 101//7 93//7 80//7
f 80//8 93//8 101//8
f 94//7 101//7 80//7
f 80//8 101//8 94//8
f 94//12 86//12 102//6
f 102//5 86//11 94//11
f 103//8 95//8 88//8
f 88//7 95//7 103//7
f 95//12 83//18 93//12
f 93//11 83//17 95//11
f 104//15 90//15 88//16
f 88//13 90//14 104//14
f 96//15 90//15 105//10
f 105//9 90//14 96//14
f 97//16 84//16 96//15
f 96//14 84//13 97//13
f 97//8 92//8 89//8
f 89//7 92//7 97//7
f 106//7 85//7 98//7
f 98//8 85//8 106//8
f 90//15 104//15 98//10
f 98//9 104//14 90//14
f 98//10 105//10 90//15
f 90//14 105//9 98//9
f 107//15 99//15 85//16
f 85//13 99//14 107//14
f 99//8 100//8 91//8
f 91//7 100//7 99//7
f 100//6 102//6 86//12
f 86//11 102//5 100//5
f 93//12 92//12 101//6
f 101//5 92//11 93//11
f 101//6 103//6 93//12
f 93//11 103//5 101//5
f 108//7 101//7 94//7
f 94//8 101//8 108//8
f 102//7 107//7 94//7
f 94//8 107//8 102//8
f 95//12 93//12 103//6
f 103//5 93//11 95//11
f 104//8 103//8 88//8
f 88//7 103//7 104//7
f 105//8 109//8 96//8
f 96//7 109//7 105//7
f 96//8 110//8 97//8
f 97//7 110//7 96//7
f 110//8 92//8 97//8
f 97//7 92//7 110//7
f 85//7 106//7 94//7
f 94//8 106//8 85//8
f 98//10 111//10 106//3
f 106//2 111//9 98//9
f 106//3 112//3 98//10
f 98//9 112//2 106//2
f 111//10 98//10 104//15
f 104//14 98//9 111//9
f 105//10 98//10 112//3
f 112//2 98//9 105//9
f 99//15 107//15 113//10
f 113//9 107//14 99//14
f 107//7 85//7 94//7
f 94//8 85//8 107//8
f 114//8 100//8 99//8
f 99//7 100//7 114//7
f 102//6 100//6 115//4
f 115//1 100//5 102//5
f 110//6 101//6 92//12
f 92//11 101//5 110//5
f 103//6 101//6 116//4
f 116//1 101//5 103//5
f 108//4 116//4 101//6
f 101//5 116//1 108//1
f 101//6 110//6 108//4
f 108//1 110//5 101//5
f 106//7 108//7 94//7
f 94//8 108//8 106//8
f 115//7 107//7 102//7
f 102//8 107//8 115//8
f 116//8 103//8 104//8
f 104//7 103//7 116//7
f 112//8 109//8 105//8
f 105//7 109//7 112//7
f 109//8 110//8 96//8
f 96//7 110//7 109//7
f 117//3 106//3 111//10
f 111//9 106//2 117//2
f 112//3 106//3 109//4
f 109//1 106//2 112//2
f 111//8 116//8 104//8
f 104//7 116//7 111//7
f 118//10 113//10 107//15
f 107//14 113//9 118//9
f 113//8 114//8 99//8
f 99//7 114//7 113//7
f 114//4 115//4 100//6
f 100//5 115//1 114//1
f 116//4 108//4 117//3
f 117//2 108//1 116//1
f 109//4 108//4 110//6
f 110//5 108//1 109//1
f 106//3 117//3 108//4
f 108//1 117//2 106//2
f 108//4 109//4 106//3
f 106//2 109//1 108//1
f 118//7 107//7 115//7
f 115//8 107//8 118//8
f 117//8 116//8 111//8
f 111//7 116//7 117//7
f 113//10 118//10 119//3
f 119//2 118//9 113//9
f 119//8 114//8 113//8
f 113//7 114//7 119//7
f 115//4 114//4 120//3
f 120//2 114//1 115//1
f 120//7 118//7 115//7
f 115//8 118//8 120//8
f 120//3 119//3 118//10
f 118//9 119//2 120//2
f 119//3 120//3 114//4
f 114//1 120//2 119//2
