# SSTK version 0.8.0
# 19
mtllib original-19.mtl
o mesh111/mesh111-geometry#mesh111-geometry
v 0.045331 -0.062880 0.057126
v 0.045657 -0.063406 0.057143
v 0.046995 -0.065366 0.127446
v 0.046479 -0.064276 0.128418
vn -0.8500591594957652 -0.5266850988214077 0.0014940002803176884
vn 0.8500591594957652 0.5266850988214077 -0.0014940002803176884
vn -0.9025070550772998 -0.43063602628042563 0.0057990003538955105
vn 0.9025070550772998 0.43063602628042563 -0.0057990003538955105
vn -0.8904819164153641 -0.45498595729297264 0.0054529994881568535
vn 0.8904819164153641 0.45498595729297264 -0.0054529994881568535
vn -0.9017554161579662 -0.4322041994612036 0.0060580027957536945
vn 0.9017554161579662 0.4322041994612036 -0.0060580027957536945
usemtl material_0_0
f 1//1 2//1 3//1
f 3//2 2//2 1//2
f 1//3 2//3 3//3
f 3//4 2//4 1//4
f 1//5 3//5 4//5
f 4//6 3//6 1//6
f 1//7 3//7 4//7
f 4//8 3//8 1//8
