# SSTK version 0.8.0
# 16
mtllib original-16.mtl
o Group12/mesh103/mesh103-geometry#mesh103-geometry
v 0.039547 -0.052293 0.057459
v 0.046479 -0.064276 0.128418
v 0.040930 -0.054120 0.128738
v 0.045331 -0.062880 0.057126
v 0.032339 -0.043634 0.057871
v 0.066311 -0.054219 0.056954
v 0.034124 -0.045944 0.129127
v 0.058294 -0.039545 0.057412
v 0.068557 -0.059647 0.057470
v 0.025874 -0.039241 0.129598
v 0.048277 -0.027511 0.057984
v 0.067459 -0.055615 0.128247
v 0.070797 -0.065060 0.058142
v 0.045657 -0.063406 0.057143
v 0.023600 -0.036534 0.058369
v 0.059678 -0.041372 0.128691
v 0.093510 -0.118746 0.126760
v 0.073030 -0.070454 0.058970
v 0.050096 -0.074059 0.058057
v 0.045923 -0.063963 0.057095
v 0.016489 -0.034265 0.130134
v 0.036128 -0.017642 0.058678
v 0.050063 -0.029821 0.129240
v 0.092578 -0.117527 0.073294
v 0.075256 -0.075825 0.059953
v 0.052418 -0.079674 0.058749
v 0.047769 -0.068429 0.057526
v 0.046349 -0.064992 0.057302
v 0.045867 -0.063994 0.057385
v 0.013658 -0.031263 0.058937
v 0.038402 -0.020348 0.129906
v 0.139893 -0.179425 0.124112
v 0.090474 -0.112472 0.071105
v 0.077471 -0.081170 0.061090
v 0.054734 -0.085268 0.059603
v 0.046995 -0.065366 0.127446
v 0.006323 -0.031202 0.130714
v 0.022303 -0.010311 0.059467
v 0.025134 -0.013313 0.130664
v 0.139614 -0.179060 0.110867
v 0.072830 -0.128848 0.072156
v 0.088349 -0.107365 0.069061
v 0.079676 -0.086485 0.062381
v 0.057041 -0.090840 0.060619
v 0.002889 -0.028019 0.059552
v 0.121966 -0.193128 0.124112
v 0.135873 -0.174165 0.107171
v 0.096657 -0.122863 0.075845
v 0.070625 -0.123552 0.070041
v 0.087302 -0.104848 0.068136
v 0.081867 -0.091766 0.063824
v 0.059339 -0.096383 0.061794
v 0.047071 -0.065359 0.128388
v -0.002185 -0.030370 0.131200
v 0.007324 -0.005798 0.060322
v 0.010758 -0.008982 0.131484
v 0.121687 -0.192763 0.110867
v 0.117946 -0.187869 0.107171
v 0.132095 -0.169223 0.103574
v 0.074651 -0.131230 0.073294
v 0.100711 -0.128166 0.078504
v 0.068400 -0.118204 0.068079
v 0.086205 -0.102209 0.067166
v 0.084044 -0.097008 0.065420
v 0.061625 -0.101895 0.063129
v 0.072654 -0.127357 0.126927
v -0.002185 -0.027522 0.059842
v 0.114168 -0.182927 0.103574
v 0.128283 -0.164237 0.100079
v 0.078730 -0.136567 0.075845
v 0.082784 -0.141870 0.078504
v 0.104737 -0.133434 0.081271
v 0.067305 -0.115570 0.067197
v 0.063899 -0.107372 0.064622
v 0.073784 -0.130096 0.126862
v -0.002185 -0.004868 0.060865
v -0.002185 -0.007674 0.131200
v 0.110356 -0.177940 0.100079
v 0.124437 -0.159205 0.096685
v 0.086811 -0.147138 0.081271
v 0.108737 -0.138666 0.084143
v 0.066157 -0.112810 0.066272
v -0.002185 -0.007715 0.132223
v 0.106510 -0.172909 0.096685
v 0.120559 -0.154131 0.093393
v 0.090810 -0.152370 0.084143
v 0.112708 -0.143860 0.087122
v 0.102632 -0.167835 0.093393
v 0.116649 -0.149016 0.090206
v 0.094781 -0.157564 0.087122
v 0.098722 -0.162720 0.090206
vn -0.8269391176060494 -0.5622890799679153 0.0016390002330960466
vn -0.877484860081979 -0.4795809235291493 0.004738999244349938
vn 0.8269391176060494 0.5622890799679153 -0.0016390002330960466
vn 0.877484860081979 0.4795809235291493 -0.004738999244349938
vn -0.7030271946970812 -0.7111421969444585 -0.005435001505175117
vn 0.7030271946970812 0.7111421969444585 0.005435001505175117
vn -0.019738997775671684 0.02542299713515911 -0.999481887371391
vn -0.01726200464095962 0.021848005873924783 -0.999612268749793
vn 0.01726200464095962 -0.021848005873924783 0.999612268749793
vn 0.019738997775671684 -0.02542299713515911 0.999481887371391
vn -0.025338997326203806 0.03208499661435948 -0.9991638945672323
vn 0.025338997326203806 -0.03208499661435948 0.9991638945672323
vn 0.026423005264070903 -0.08370501667596598 -0.9961401984540587
vn 0.02808298830620398 -0.06258297394036098 -0.997644584579385
vn 0.022112997930732087 -0.05250299508692723 -0.9983759065749821
vn -0.022112997930732087 0.05250299508692723 0.9983759065749821
vn -0.02808298830620398 0.06258297394036098 0.997644584579385
vn -0.026423005264070903 0.08370501667596598 0.9961401984540587
vn -0.6308150078842414 -0.7758770096972989 -0.00934300011677366
vn 0.6308150078842414 0.7758770096972989 0.00934300011677366
vn 0.9243064309829301 0.3815791779216358 -0.0074130034565137335
vn -0.9243064309829301 -0.3815791779216358 0.0074130034565137335
vn 0.009007997779474773 0.03217199206941212 -0.9994417536316414
vn -0.009007997779474773 -0.03217199206941212 0.9994417536316414
vn -0.0284619981035629 0.035170997656539145 -0.9989759334377363
vn 0.0284619981035629 -0.035170997656539145 0.9989759334377363
vn 0.05461699735670124 -0.11000799467594298 -0.9924289519694172
vn 0.043029994614775 -0.09547998805063228 -0.9945008755377259
vn -0.043029994614775 0.09547998805063228 0.9945008755377259
vn -0.05461699735670124 0.11000799467594298 0.9924289519694172
vn 0.025370997141576764 -0.04624499478980773 -0.9986078874918486
vn -0.025370997141576764 0.04624499478980773 0.9986078874918486
vn -0.4692061959440674 -0.8828933687029694 -0.018570007754976327
vn 0.4692061959440674 0.8828933687029694 0.018570007754976327
vn 0.0720230093288169 -0.13133601701136416 -0.9887181280642182
vn 0.06030902240598201 -0.11693804344477128 -0.9913063682897146
vn -0.06030902240598201 0.11693804344477128 0.9913063682897146
vn -0.0720230093288169 0.13133601701136416 0.9887181280642182
vn 0.02629801037081967 -0.06855902703677161 -0.9973003932929675
vn -0.02629801037081967 0.06855902703677161 0.9973003932929675
vn 0.03565100864176989 -0.11692002834130116 -0.9925012405813374
vn -0.03565100864176989 0.11692002834130116 0.9925012405813374
vn -0.9118909218267862 -0.3997559657303217 -0.09300599202692225
vn -0.8893481388130258 -0.41392206460661657 -0.19423803031745118
vn 0.8893481388130258 0.41392206460661657 0.19423803031745118
vn 0.9118909218267862 0.3997559657303217 0.09300599202692225
vn -0.9172256978769115 -0.39378787029102236 -0.060233980159653096
vn -0.925228781846808 -0.37934491055692954 0.007009998347161672
vn 0.925228781846808 0.37934491055692954 -0.007009998347161672
vn 0.9172256978769115 0.39378787029102236 0.060233980159653096
vn -0.03578798889155312 0.0400219875773373 -0.9985576900517353
vn 0.03578798889155312 -0.0400219875773373 0.9985576900517353
vn 0.7944710440752686 0.6073020336915995 0
vn -0.7944710440752686 -0.6073020336915995 0
vn 0.08960400979188192 -0.1524550166602087 -0.9842401075572726
vn 0.07777399382505625 -0.1381999890274739 -0.9873459216086865
vn -0.07777399382505625 0.1381999890274739 0.9873459216086865
vn -0.08960400979188192 0.1524550166602087 0.9842401075572726
vn -0.9244422100846005 -0.38121008663209865 0.009245002100977728
vn 0.9244422100846005 0.38121008663209865 -0.009245002100977728
vn -0.9245890252759529 -0.3808980104127995 0.007200000196829923
vn 0.9245890252759529 0.3808980104127995 -0.007200000196829923
vn -0.2898628492025152 -0.9566345023229875 -0.02880898501248977
vn 0.2898628492025152 0.9566345023229875 0.02880898501248977
vn 0.21610102539122364 -0.2927060343920827 -0.9314631094441274
vn 0.22840594046028923 -0.30542492038336905 -0.9244167590276928
vn 0.219109088464655 -0.2957531194094586 -0.929796375402573
vn -0.219109088464655 0.2957531194094586 0.929796375402573
vn -0.22840594046028923 0.30542492038336905 0.9244167590276928
vn -0.21610102539122364 0.2927060343920827 0.9314631094441274
vn 0.10734298600730596 -0.17334497740361673 -0.9789938723832622
vn 0.09540897050842391 -0.15924695077566017 -0.9826176962660387
vn -0.09540897050842391 0.15924695077566017 0.9826176962660387
vn -0.10734298600730596 0.17334497740361673 0.9789938723832622
vn -0.9169988972108483 -0.3944289557872775 -0.05948799333181282
vn 0.9169988972108483 0.3944289557872775 0.05948799333181282
vn -0.043917979209562946 0.04336497947134904 -0.9980935275101217
vn 0.043917979209562946 -0.04336497947134904 0.9980935275101217
vn 0.6069370953480044 -0.7939941247341049 -0.03465100544356961
vn 0.5232006873241138 -0.6844505909577332 -0.5077286965705055
vn -0.6069370953480044 0.7939941247341049 0.03465100544356961
vn -0.5232006873241138 0.6844505909577332 0.5077286965705055
vn 0.22019107646995204 -0.2880541000380375 -0.9319553236578887
vn 0.2156199591748442 -0.28207394659254686 -0.9348488229971429
vn -0.2156199591748442 0.28207394659254686 0.9348488229971429
vn -0.22019107646995204 0.2880541000380375 0.9319553236578887
vn 0.203789022859933 -0.2798370313905806 -0.9381691052386563
vn -0.203789022859933 0.2798370313905806 0.9381691052386563
vn 0.19779198877639279 -0.27362798447311704 -0.9412789465875984
vn -0.19779198877639279 0.27362798447311704 0.9412789465875984
vn 0.12522403976853164 -0.19398506160559142 -0.972979308997845
vn 0.113194941469288 -0.18005690689637852 -0.9771214947511254
vn -0.113194941469288 0.18005690689637852 0.9771214947511254
vn -0.12522403976853164 0.19398506160559142 0.972979308997845
vn -0.898853288842506 -0.4316741387165643 0.07563202430401449
vn 0.898853288842506 0.4316741387165643 -0.07563202430401449
vn -0.09957498423354717 -0.9942388425747196 -0.03967299371827807
vn 0.09957498423354717 0.9942388425747196 0.03967299371827807
vn 0.308214965462974 -0.4032059548187591 -0.86164290344861
vn -0.308214965462974 0.4032059548187591 0.86164290344861
vn 0.18661605052583596 -0.26003207040304227 -0.947395256504932
vn -0.18661605052583596 0.26003207040304227 0.947395256504932
vn 0.1856259504589464 -0.2607089304203151 -0.9474037471507637
vn -0.1856259504589464 0.2607089304203151 0.9474037471507637
vn 0.14322698667638178 -0.2143539800598289 -0.9661979101199267
vn 0.1311170423352086 -0.2006100647731886 -0.9708573134714309
vn -0.1311170423352086 0.2006100647731886 0.9708573134714309
vn -0.14322698667638178 0.2143539800598289 0.9661979101199267
vn -0.874260303429139 -0.4797851665188267 0.07399402568107384
vn 0.874260303429139 0.4797851665188267 -0.07399402568107384
vn -0.052544001785524035 0.04507000153154651 -0.9976010338999801
vn 0.052544001785524035 -0.04507000153154651 0.9976010338999801
vn 0.29973599638128734 -0.3921149952659955 -0.8697149894999311
vn -0.29973599638128734 0.3921149952659955 0.8697149894999311
vn 0.22928999654712198 -0.2999569954829474 -0.9259869860555623
vn -0.22928999654712198 0.2999569954829474 0.9259869860555623
vn 0.17944504685588925 -0.25400006632336275 -0.9504122481674019
vn -0.17944504685588925 0.25400006632336275 0.9504122481674019
vn 0.17843705956140823 -0.25467908501061914 -0.9504203172456028
vn -0.17843705956140823 0.25467908501061914 0.9504203172456028
vn 0.16133495699697964 -0.2344309375136139 -0.9586517444762049
vn 0.14915598646484066 -0.2208849799557932 -0.9638269125375309
vn -0.14915598646484066 0.2208849799557932 0.9638269125375309
vn -0.16133495699697964 0.2344309375136139 0.9586517444762049
vn 0.2911800131959873 -0.38092101726295974 -0.8775610397701897
vn -0.2911800131959873 0.38092101726295974 0.8775610397701897
vn 0.23832903890888713 -0.311781050900443 -0.9197781501602339
vn -0.23832903890888713 0.311781050900443 0.9197781501602339
vn 0.1672929541632425 -0.24086193400600667 -0.95603273805567
vn -0.1672929541632425 0.24086193400600667 0.95603273805567
vn 0.2825470667328217 -0.3696280872998806 -0.8851792090643058
vn -0.2825470667328217 0.3696280872998806 0.8851792090643058
vn 0.24730595398118868 -0.3235249397983228 -0.9133298300471444
vn -0.24730595398118868 0.3235249397983228 0.9133298300471444
vn 0.27384101042088294 -0.3582390136326066 -0.892567033966193
vn -0.27384101042088294 0.3582390136326066 0.892567033966193
vn 0.25621808709930377 -0.33518411394317715 -0.9066443082065319
vn -0.25621808709930377 0.33518411394317715 0.9066443082065319
vn 0.2650638916055896 -0.3467568581983194 -0.8997226320702014
vn -0.2650638916055896 0.3467568581983194 0.8997226320702014
usemtl material_0_0
f 1//1 2//2 3//1
f 2//2 1//1 4//2
f 3//3 2//4 1//3
f 4//4 1//3 2//4
f 3//1 5//5 1//1
f 1//3 5//6 3//3
f 1//7 6//8 4//8
f 4//9 6//9 1//10
f 5//5 3//1 7//5
f 7//6 3//3 5//6
f 5//11 8//7 1//7
f 1//10 8//10 5//12
f 6//8 1//7 8//7
f 8//10 1//10 6//9
f 6//13 9//14 4//15
f 4//16 9//17 6//18
f 10//19 5//5 7//5
f 7//6 5//6 10//20
f 8//7 5//11 11//11
f 11//12 5//12 8//10
f 8//3 12//4 6//4
f 6//2 12//2 8//1
f 6//21 13//21 9//21
f 9//22 13//22 6//22
f 9//14 14//23 4//15
f 4//16 14//24 9//17
f 5//5 10//19 15//19
f 15//20 10//20 5//6
f 15//25 11//11 5//11
f 5//12 11//12 15//26
f 11//6 16//3 8//3
f 8//1 16//1 11//5
f 12//4 8//3 16//3
f 16//1 8//1 12//2
f 17//21 6//21 12//21
f 12//22 6//22 17//22
f 6//21 18//21 13//21
f 13//22 18//22 6//22
f 9//14 13//27 19//28
f 19//29 13//30 9//17
f 9//14 20//31 14//23
f 14//24 20//32 9//17
f 21//33 15//33 10//33
f 10//34 15//34 21//34
f 11//11 15//25 22//25
f 22//26 15//26 11//12
f 16//3 11//6 23//6
f 23//5 11//5 16//1
f 6//21 17//21 24//21
f 24//22 17//22 6//22
f 6//21 25//21 18//21
f 18//22 25//22 6//22
f 13//27 18//35 26//36
f 26//37 18//38 13//30
f 13//27 26//36 19//28
f 19//29 26//37 13//30
f 9//14 19//28 27//39
f 27//40 19//29 9//17
f 9//14 28//41 20//31
f 20//32 28//42 9//17
f 28//43 14//44 20//44
f 20//45 14//45 28//46
f 29//47 14//48 20//48
f 20//49 14//49 29//50
f 15//33 21//33 30//33
f 30//34 21//34 15//34
f 30//51 22//51 15//51
f 15//52 22//52 30//52
f 31//20 11//6 22//20
f 22//19 11//5 31//19
f 11//6 31//20 23//6
f 23//5 31//19 11//5
f 32//53 24//53 17//53
f 17//54 24//54 32//54
f 6//21 24//21 33//21
f 33//22 24//22 6//22
f 6//21 34//21 25//21
f 25//22 34//22 6//22
f 18//35 25//55 35//56
f 35//57 25//58 18//38
f 18//35 35//56 26//36
f 26//37 35//57 18//38
f 26//59 28//43 19//59
f 19//60 28//46 26//60
f 19//59 28//43 27//59
f 27//60 28//46 19//60
f 9//14 27//39 28//41
f 28//42 27//40 9//17
f 28//43 29//47 14//44
f 14//45 29//50 28//46
f 14//48 29//47 36//61
f 36//62 29//50 14//49
f 37//63 30//63 21//63
f 21//64 30//64 37//64
f 22//51 30//51 38//51
f 38//52 30//52 22//52
f 22//34 39//34 31//34
f 31//33 39//33 22//33
f 24//53 32//53 40//53
f 40//54 32//54 24//54
f 33//65 24//66 41//67
f 41//68 24//69 33//70
f 6//21 33//21 42//21
f 42//22 33//22 6//22
f 6//21 43//21 34//21
f 34//22 43//22 6//22
f 25//55 34//71 44//72
f 44//73 34//74 25//58
f 25//55 44//72 35//56
f 35//57 44//73 25//58
f 35//59 28//43 26//59
f 26//60 28//46 35//60
f 29//47 28//43 41//75
f 41//76 28//46 29//50
f 29//47 41//75 36//61
f 36//62 41//76 29//50
f 30//63 37//63 45//63
f 45//64 37//64 30//64
f 45//77 38//77 30//77
f 30//78 38//78 45//78
f 39//34 22//34 38//34
f 38//33 22//33 39//33
f 46//79 40//80 32//79
f 32//81 40//82 46//81
f 24//53 40//53 47//53
f 47//54 40//54 24//54
f 48//83 41//84 24//84
f 24//85 41//85 48//86
f 33//65 41//67 49//87
f 49//88 41//68 33//70
f 42//89 33//65 49//87
f 49//88 33//70 42//90
f 6//21 42//21 50//21
f 50//22 42//22 6//22
f 6//21 51//21 43//21
f 43//22 51//22 6//22
f 34//71 43//91 52//92
f 52//93 43//94 34//74
f 34//71 52//92 44//72
f 44//73 52//93 34//74
f 44//59 28//43 35//59
f 35//60 28//46 44//60
f 28//43 49//59 41//75
f 41//76 49//60 28//46
f 41//95 53//95 36//95
f 36//96 53//96 41//96
f 54//97 45//97 37//97
f 37//98 45//98 54//98
f 38//77 45//77 55//77
f 55//78 45//78 38//78
f 38//64 56//64 39//64
f 39//63 56//63 38//63
f 40//80 46//79 57//80
f 57//82 46//81 40//82
f 40//80 58//99 47//99
f 47//100 58//100 40//82
f 24//53 47//53 59//53
f 59//54 47//54 24//54
f 48//83 60//84 41//84
f 41//85 60//85 48//86
f 24//53 61//53 48//53
f 48//54 61//54 24//54
f 42//89 49//87 62//101
f 62//102 49//88 42//90
f 50//103 42//89 62//101
f 62//102 42//90 50//104
f 6//21 50//21 63//21
f 63//22 50//22 6//22
f 6//21 64//21 51//21
f 51//22 64//22 6//22
f 43//91 51//105 65//106
f 65//107 51//108 43//94
f 43//91 65//106 52//92
f 52//93 65//107 43//94
f 52//59 28//43 44//59
f 44//60 28//46 52//60
f 49//59 28//43 62//59
f 62//60 28//46 49//60
f 41//22 66//22 53//22
f 53//21 66//21 41//21
f 36//109 53//109 2//109
f 2//110 53//110 36//110
f 45//97 54//97 67//97
f 67//98 54//98 45//98
f 67//111 55//111 45//111
f 45//112 55//112 67//112
f 56//64 38//64 55//64
f 55//63 38//63 56//63
f 46//54 41//54 57//54
f 57//53 41//53 46//53
f 58//99 40//80 57//80
f 57//82 40//82 58//100
f 68//113 47//99 58//99
f 58//100 47//100 68//114
f 47//99 68//113 59//113
f 59//114 68//114 47//100
f 24//53 59//53 69//53
f 69//54 59//54 24//54
f 60//84 48//83 70//83
f 70//86 48//86 60//85
f 71//54 41//54 60//54
f 60//53 41//53 71//53
f 24//53 72//53 61//53
f 61//54 72//54 24//54
f 61//115 70//83 48//83
f 48//86 70//86 61//116
f 50//103 62//101 73//117
f 73//118 62//102 50//104
f 63//119 50//103 73//117
f 73//118 50//104 63//120
f 6//21 63//21 64//21
f 64//22 63//22 6//22
f 51//105 64//121 74//122
f 74//123 64//124 51//108
f 51//105 74//122 65//106
f 65//107 74//123 51//108
f 65//59 28//43 52//59
f 52//60 28//46 65//60
f 62//59 28//43 73//59
f 73//60 28//46 62//60
f 41//22 75//22 66//22
f 66//21 75//21 41//21
f 55//111 67//111 76//111
f 76//112 67//112 55//112
f 77//98 56//98 55//98
f 55//97 56//97 77//97
f 41//54 46//54 75//54
f 75//53 46//53 41//53
f 57//54 41//54 58//54
f 58//53 41//53 57//53
f 58//54 41//54 68//54
f 68//53 41//53 58//53
f 78//125 59//113 68//113
f 68//114 59//114 78//126
f 59//113 78//125 69//125
f 69//126 78//126 59//114
f 24//53 69//53 79//53
f 79//54 69//54 24//54
f 71//54 60//54 70//54
f 70//53 60//53 71//53
f 80//54 41//54 71//54
f 71//53 41//53 80//53
f 24//53 81//53 72//53
f 72//54 81//54 24//54
f 72//127 71//115 61//115
f 61//116 71//116 72//128
f 70//83 61//115 71//115
f 71//116 61//116 70//86
f 63//119 73//117 82//129
f 82//130 73//118 63//120
f 64//121 63//119 82//129
f 82//130 63//120 64//124
f 64//121 82//129 74//122
f 74//123 82//130 64//124
f 74//59 28//43 65//59
f 65//60 28//46 74//60
f 73//59 28//43 82//59
f 82//60 28//46 73//60
f 55//98 76//98 77//98
f 77//97 76//97 55//97
f 56//98 77//98 83//98
f 83//97 77//97 56//97
f 68//54 41//54 78//54
f 78//53 41//53 68//53
f 84//131 69//125 78//125
f 78//126 69//126 84//132
f 69//125 84//131 79//131
f 79//132 84//132 69//126
f 24//53 79//53 85//53
f 85//54 79//54 24//54
f 86//54 41//54 80//54
f 80//53 41//53 86//53
f 71//115 72//127 80//127
f 80//128 72//128 71//116
f 24//53 87//53 81//53
f 81//54 87//54 24//54
f 81//133 80//127 72//127
f 72//128 80//128 81//134
f 82//59 28//43 74//59
f 74//60 28//46 82//60
f 78//54 41//54 84//54
f 84//53 41//53 78//53
f 88//135 79//131 84//131
f 84//132 79//132 88//136
f 79//131 88//135 85//135
f 85//136 88//136 79//132
f 24//53 85//53 89//53
f 89//54 85//54 24//54
f 90//54 41//54 86//54
f 86//53 41//53 90//53
f 80//127 81//133 86//133
f 86//134 81//134 80//128
f 24//53 89//53 87//53
f 87//54 89//54 24//54
f 87//137 86//133 81//133
f 81//134 86//134 87//138
f 84//54 41//54 88//54
f 88//53 41//53 84//53
f 91//139 85//135 88//135
f 88//136 85//136 91//140
f 85//135 91//139 89//139
f 89//140 91//140 85//136
f 91//54 41//54 90//54
f 90//53 41//53 91//53
f 86//133 87//137 90//137
f 90//138 87//138 86//134
f 89//139 90//137 87//137
f 87//138 90//138 89//140
f 88//54 41//54 91//54
f 91//53 41//53 88//53
f 90//137 89//139 91//139
f 91//140 89//140 90//138
