# SSTK version 0.8.0
# 16
mtllib original-16.mtl
o Group17/mesh15/mesh15-geometry#mesh15-geometry
v -0.099247 0.183510 -0.102059
v -0.103923 0.183510 -0.106856
v -0.101753 0.183510 -0.104293
v -0.096452 0.183510 -0.100198
v -0.105713 0.183510 -0.109697
v -0.093425 0.183510 -0.098745
v -0.107087 0.183510 -0.112761
v -0.091233 0.183510 -0.100368
v -0.108020 0.183510 -0.115986
v -0.108492 0.183510 -0.119311
v -0.088915 0.183510 -0.101802
v -0.108494 0.183510 -0.122668
v -0.086485 0.183510 -0.103039
v -0.108027 0.183510 -0.125994
v -0.083960 0.183510 -0.104070
v -0.107099 0.183510 -0.129221
v -0.081359 0.183510 -0.104887
v -0.105729 0.183510 -0.132286
v -0.078699 0.183510 -0.105486
v -0.103219 0.183510 -0.132054
v -0.075998 0.183510 -0.105861
v -0.100699 0.183510 -0.132050
v -0.073275 0.183510 -0.106011
v -0.098188 0.183510 -0.132272
v -0.070550 0.183510 -0.105934
v -0.095708 0.183510 -0.132721
v -0.067840 0.183510 -0.105631
v -0.093278 0.183510 -0.133391
v -0.065165 0.183510 -0.105103
v -0.063127 0.183510 -0.104656
v -0.090918 0.183510 -0.134277
v -0.061073 0.183510 -0.104289
v -0.059007 0.183510 -0.104005
v -0.088648 0.183510 -0.135373
v -0.056930 0.183510 -0.103804
v -0.086487 0.183510 -0.136669
v -0.054848 0.183510 -0.103685
v -0.052762 0.183510 -0.103649
v -0.084451 0.183510 -0.138155
v -0.050676 0.183510 -0.103697
v -0.048594 0.183510 -0.103827
v -0.082557 0.183510 -0.139818
v -0.046519 0.183510 -0.104040
v -0.080821 0.183510 -0.141646
v -0.044454 0.183510 -0.104336
v -0.042402 0.183510 -0.104713
v -0.079256 0.183510 -0.143622
v -0.050177 0.183510 -0.114845
v -0.040367 0.183510 -0.105172
v -0.076679 0.183510 -0.147065
v -0.048383 0.183510 -0.113409
v -0.051538 0.183510 -0.116695
v -0.029971 0.183510 -0.104893
v -0.052373 0.183510 -0.118835
v -0.046280 0.183510 -0.112487
v -0.052626 0.183510 -0.121118
v -0.044009 0.183510 -0.112140
v -0.052280 0.183510 -0.123389
v -0.033612 0.183510 -0.111928
v -0.073976 0.183510 -0.150411
v -0.028274 0.183510 -0.106590
v -0.051357 0.183510 -0.125493
v -0.049922 0.183510 -0.127286
v -0.071151 0.183510 -0.153654
v -0.048071 0.183510 -0.128647
v -0.045932 0.183510 -0.129482
v -0.068210 0.183510 -0.156792
v -0.043648 0.183510 -0.129735
v -0.042111 0.183510 -0.138907
v -0.027747 0.183510 -0.131499
v -0.065154 0.183510 -0.159819
v -0.029328 0.183510 -0.139548
v -0.061990 0.183510 -0.162732
v -0.015388 0.183510 -0.119356
v -0.056620 0.183510 -0.156511
v -0.024353 0.183510 -0.128105
v -0.014979 0.183510 -0.120085
v -0.040943 0.183510 -0.140246
v -0.048701 0.183510 -0.164430
v -0.015971 0.183510 -0.118759
v -0.014772 0.183510 -0.120894
v -0.039642 0.183510 -0.141458
v -0.058720 0.183510 -0.165526
v -0.016690 0.183510 -0.118333
v -0.014782 0.183510 -0.121729
v -0.047765 0.183510 -0.148900
v -0.055350 0.183510 -0.168198
v -0.017494 0.183510 -0.118107
v -0.015007 0.183510 -0.122534
v -0.044518 0.183510 -0.150449
v -0.053746 0.183510 -0.158401
v -0.051883 0.183510 -0.170744
v -0.018329 0.183510 -0.118097
v -0.017660 0.183510 -0.127880
v -0.038224 0.183510 -0.142529
v -0.045801 0.183510 -0.150444
v -0.047570 0.183510 -0.165561
v -0.019139 0.183510 -0.118304
v -0.017821 0.183510 -0.129379
v -0.036703 0.183510 -0.143449
v -0.043734 0.183510 -0.151848
v -0.037954 0.183510 -0.175177
v -0.020891 0.183510 -0.120015
v -0.027829 0.183510 -0.139387
v -0.041136 0.183510 -0.151676
v -0.050709 0.183510 -0.160016
v -0.048325 0.183510 -0.173161
v -0.019867 0.183510 -0.118713
v -0.018165 0.183510 -0.130847
v -0.035096 0.183510 -0.144207
v -0.041575 0.183510 -0.153105
v -0.044681 0.183510 -0.175445
v -0.020465 0.183510 -0.119297
v -0.026360 0.183510 -0.139042
v -0.033419 0.183510 -0.144795
v -0.047535 0.183510 -0.161344
v -0.040955 0.183510 -0.177594
v -0.018688 0.183510 -0.132262
v -0.037652 0.183510 -0.152571
v -0.039333 0.183510 -0.154208
v -0.040543 0.183510 -0.177766
v -0.024946 0.183510 -0.138520
v -0.031690 0.183510 -0.145207
v -0.044252 0.183510 -0.162371
v -0.037873 0.183510 -0.175616
v -0.019381 0.183510 -0.133602
v -0.029928 0.183510 -0.145439
v -0.037020 0.183510 -0.155152
v -0.040104 0.183510 -0.177847
v -0.023606 0.183510 -0.137827
v -0.034097 0.183510 -0.153125
v -0.040888 0.183510 -0.163090
v -0.037888 0.183510 -0.176063
v -0.020233 0.183510 -0.134846
v -0.028151 0.183510 -0.145488
v -0.034647 0.183510 -0.155932
v -0.039658 0.183510 -0.177832
v -0.022361 0.183510 -0.136975
v -0.026379 0.183510 -0.145353
v -0.032225 0.183510 -0.156545
v -0.037998 0.183510 -0.176496
v -0.021231 0.183510 -0.135976
v -0.024630 0.183510 -0.145037
v -0.037471 0.183510 -0.163494
v -0.039225 0.183510 -0.177723
v -0.030506 0.183510 -0.153333
v -0.029766 0.183510 -0.156988
v -0.038197 0.183510 -0.176895
v -0.022923 0.183510 -0.144542
v -0.034032 0.183510 -0.163580
v -0.038825 0.183510 -0.177523
v -0.021633 0.183510 -0.144141
v -0.027283 0.183510 -0.157259
v -0.038477 0.183510 -0.177243
v -0.020320 0.183510 -0.143822
v -0.030600 0.183510 -0.163347
v -0.026911 0.183510 -0.153192
v -0.024786 0.183510 -0.157355
v -0.018989 0.183510 -0.143589
v -0.022289 0.183510 -0.157278
v -0.017647 0.183510 -0.143441
v -0.027204 0.183510 -0.162798
v -0.016297 0.183510 -0.143379
v -0.019804 0.183510 -0.157027
v -0.023347 0.183510 -0.152704
v -0.023874 0.183510 -0.161936
v -0.015507 0.183510 -0.143359
v -0.019494 0.183510 -0.157008
v -0.014717 0.183510 -0.143374
v -0.019184 0.183510 -0.157038
v -0.013928 0.183510 -0.143421
v -0.018883 0.183510 -0.157114
v -0.019847 0.183510 -0.151875
v -0.020637 0.183510 -0.160769
v -0.013143 0.183510 -0.143503
v -0.018597 0.183510 -0.157235
v -0.012361 0.183510 -0.143618
v -0.018334 0.183510 -0.157399
v -0.011585 0.183510 -0.143766
v -0.018098 0.183510 -0.157601
v -0.016443 0.183510 -0.150710
v -0.017896 0.183510 -0.157837
v -0.010816 0.183510 -0.143947
v -0.017732 0.183510 -0.158101
v -0.010055 0.183510 -0.144161
v -0.017523 0.183510 -0.159307
v -0.009304 0.183510 -0.144407
v -0.017611 0.183510 -0.158387
v -0.013168 0.183510 -0.149222
v -0.017534 0.183510 -0.158688
v -0.008564 0.183510 -0.144685
v -0.017505 0.183510 -0.158997
v -0.010052 0.183510 -0.147425
v -0.007837 0.183510 -0.144994
v -0.007124 0.183510 -0.145334
vn 0 1 0
vn 0 -1 0
usemtl material_0_0
f 1//1 2//1 3//1
f 2//1 1//1 4//1
f 3//2 2//2 1//2
f 4//2 1//2 2//2
f 2//1 4//1 5//1
f 5//2 4//2 2//2
f 5//1 4//1 6//1
f 6//2 4//2 5//2
f 5//1 6//1 7//1
f 7//2 6//2 5//2
f 7//1 6//1 8//1
f 8//2 6//2 7//2
f 7//1 8//1 9//1
f 9//2 8//2 7//2
f 9//1 8//1 10//1
f 10//2 8//2 9//2
f 10//1 8//1 11//1
f 11//2 8//2 10//2
f 10//1 11//1 12//1
f 12//2 11//2 10//2
f 12//1 11//1 13//1
f 13//2 11//2 12//2
f 12//1 13//1 14//1
f 14//2 13//2 12//2
f 14//1 13//1 15//1
f 15//2 13//2 14//2
f 14//1 15//1 16//1
f 16//2 15//2 14//2
f 16//1 15//1 17//1
f 17//2 15//2 16//2
f 16//1 17//1 18//1
f 18//2 17//2 16//2
f 18//1 17//1 19//1
f 19//2 17//2 18//2
f 18//1 19//1 20//1
f 20//2 19//2 18//2
f 20//1 19//1 21//1
f 21//2 19//2 20//2
f 20//1 21//1 22//1
f 22//2 21//2 20//2
f 22//1 21//1 23//1
f 23//2 21//2 22//2
f 22//1 23//1 24//1
f 24//2 23//2 22//2
f 24//1 23//1 25//1
f 25//2 23//2 24//2
f 24//1 25//1 26//1
f 26//2 25//2 24//2
f 26//1 25//1 27//1
f 27//2 25//2 26//2
f 26//1 27//1 28//1
f 28//2 27//2 26//2
f 28//1 27//1 29//1
f 29//2 27//2 28//2
f 28//1 29//1 30//1
f 30//2 29//2 28//2
f 28//1 30//1 31//1
f 31//2 30//2 28//2
f 31//1 30//1 32//1
f 32//2 30//2 31//2
f 31//1 32//1 33//1
f 33//2 32//2 31//2
f 31//1 33//1 34//1
f 34//2 33//2 31//2
f 34//1 33//1 35//1
f 35//2 33//2 34//2
f 34//1 35//1 36//1
f 36//2 35//2 34//2
f 36//1 35//1 37//1
f 37//2 35//2 36//2
f 36//1 37//1 38//1
f 38//2 37//2 36//2
f 36//1 38//1 39//1
f 39//2 38//2 36//2
f 39//1 38//1 40//1
f 40//2 38//2 39//2
f 39//1 40//1 41//1
f 41//2 40//2 39//2
f 39//1 41//1 42//1
f 42//2 41//2 39//2
f 42//1 41//1 43//1
f 43//2 41//2 42//2
f 42//1 43//1 44//1
f 44//2 43//2 42//2
f 44//1 43//1 45//1
f 45//2 43//2 44//2
f 44//1 45//1 46//1
f 46//2 45//2 44//2
f 44//1 46//1 47//1
f 47//2 46//2 44//2
f 47//1 46//1 48//1
f 48//2 46//2 47//2
f 48//1 46//1 49//1
f 49//2 46//2 48//2
f 48//1 50//1 47//1
f 47//2 50//2 48//2
f 48//1 49//1 51//1
f 51//2 49//2 48//2
f 50//1 48//1 52//1
f 52//2 48//2 50//2
f 51//1 49//1 53//1
f 53//2 49//2 51//2
f 50//1 52//1 54//1
f 54//2 52//2 50//2
f 51//1 53//1 55//1
f 55//2 53//2 51//2
f 50//1 54//1 56//1
f 56//2 54//2 50//2
f 55//1 53//1 57//1
f 57//2 53//2 55//2
f 50//1 56//1 58//1
f 58//2 56//2 50//2
f 57//1 53//1 59//1
f 59//2 53//2 57//2
f 50//1 58//1 60//1
f 60//2 58//2 50//2
f 59//1 53//1 61//1
f 61//2 53//2 59//2
f 60//1 58//1 62//1
f 62//2 58//2 60//2
f 60//1 62//1 63//1
f 63//2 62//2 60//2
f 60//1 63//1 64//1
f 64//2 63//2 60//2
f 64//1 63//1 65//1
f 65//2 63//2 64//2
f 64//1 65//1 66//1
f 66//2 65//2 64//2
f 64//1 66//1 67//1
f 67//2 66//2 64//2
f 67//1 66//1 68//1
f 68//2 66//2 67//2
f 67//1 68//1 69//1
f 69//2 68//2 67//2
f 69//1 68//1 70//1
f 70//2 68//2 69//2
f 67//1 69//1 71//1
f 71//2 69//2 67//2
f 69//1 70//1 72//1
f 72//2 70//2 69//2
f 69//1 73//1 71//1
f 71//2 73//2 69//2
f 72//1 70//1 74//1
f 74//2 70//2 72//2
f 73//1 69//1 75//1
f 75//2 69//2 73//2
f 76//1 74//1 70//1
f 70//2 74//2 76//2
f 72//1 74//1 77//1
f 77//2 74//2 72//2
f 75//1 69//1 78//1
f 78//2 69//2 75//2
f 73//1 75//1 79//1
f 79//2 75//2 73//2
f 76//1 80//1 74//1
f 74//2 80//2 76//2
f 72//1 77//1 81//1
f 81//2 77//2 72//2
f 82//1 75//1 78//1
f 78//2 75//2 82//2
f 73//1 79//1 83//1
f 83//2 79//2 73//2
f 76//1 84//1 80//1
f 80//2 84//2 76//2
f 72//1 81//1 85//1
f 85//2 81//2 72//2
f 75//1 82//1 86//1
f 86//2 82//2 75//2
f 83//1 79//1 87//1
f 87//2 79//2 83//2
f 76//1 88//1 84//1
f 84//2 88//2 76//2
f 72//1 85//1 89//1
f 89//2 85//2 72//2
f 86//1 82//1 90//1
f 90//2 82//2 86//2
f 86//1 91//1 75//1
f 75//2 91//2 86//2
f 87//1 79//1 92//1
f 92//2 79//2 87//2
f 76//1 93//1 88//1
f 88//2 93//2 76//2
f 72//1 89//1 94//1
f 94//2 89//2 72//2
f 90//1 82//1 95//1
f 95//2 82//2 90//2
f 91//1 86//1 96//1
f 96//2 86//2 91//2
f 92//1 79//1 97//1
f 97//2 79//2 92//2
f 76//1 98//1 93//1
f 93//2 98//2 76//2
f 72//1 94//1 99//1
f 99//2 94//2 72//2
f 90//1 95//1 100//1
f 100//2 95//2 90//2
f 91//1 96//1 101//1
f 101//2 96//2 91//2
f 92//1 97//1 102//1
f 102//2 97//2 92//2
f 103//1 98//1 76//1
f 76//2 98//2 103//2
f 72//1 99//1 104//1
f 104//2 99//2 72//2
f 90//1 100//1 105//1
f 105//2 100//2 90//2
f 91//1 101//1 106//1
f 106//2 101//2 91//2
f 92//1 102//1 107//1
f 107//2 102//2 92//2
f 103//1 108//1 98//1
f 98//2 108//2 103//2
f 104//1 99//1 109//1
f 109//2 99//2 104//2
f 105//1 100//1 110//1
f 110//2 100//2 105//2
f 106//1 101//1 111//1
f 111//2 101//2 106//2
f 107//1 102//1 112//1
f 112//2 102//2 107//2
f 108//1 103//1 113//1
f 113//2 103//2 108//2
f 104//1 109//1 114//1
f 114//2 109//2 104//2
f 105//1 110//1 115//1
f 115//2 110//2 105//2
f 106//1 111//1 116//1
f 116//2 111//2 106//2
f 112//1 102//1 117//1
f 117//2 102//2 112//2
f 114//1 109//1 118//1
f 118//2 109//2 114//2
f 105//1 115//1 119//1
f 119//2 115//2 105//2
f 116//1 111//1 120//1
f 120//2 111//2 116//2
f 117//1 102//1 121//1
f 121//2 102//2 117//2
f 114//1 118//1 122//1
f 122//2 118//2 114//2
f 119//1 115//1 123//1
f 123//2 115//2 119//2
f 116//1 120//1 124//1
f 124//2 120//2 116//2
f 121//1 102//1 125//1
f 125//2 102//2 121//2
f 122//1 118//1 126//1
f 126//2 118//2 122//2
f 119//1 123//1 127//1
f 127//2 123//2 119//2
f 124//1 120//1 128//1
f 128//2 120//2 124//2
f 121//1 125//1 129//1
f 129//2 125//2 121//2
f 122//1 126//1 130//1
f 130//2 126//2 122//2
f 119//1 127//1 131//1
f 131//2 127//2 119//2
f 124//1 128//1 132//1
f 132//2 128//2 124//2
f 129//1 125//1 133//1
f 133//2 125//2 129//2
f 130//1 126//1 134//1
f 134//2 126//2 130//2
f 131//1 127//1 135//1
f 135//2 127//2 131//2
f 132//1 128//1 136//1
f 136//2 128//2 132//2
f 129//1 133//1 137//1
f 137//2 133//2 129//2
f 130//1 134//1 138//1
f 138//2 134//2 130//2
f 131//1 135//1 139//1
f 139//2 135//2 131//2
f 132//1 136//1 140//1
f 140//2 136//2 132//2
f 137//1 133//1 141//1
f 141//2 133//2 137//2
f 138//1 134//1 142//1
f 142//2 134//2 138//2
f 131//1 139//1 143//1
f 143//2 139//2 131//2
f 132//1 140//1 144//1
f 144//2 140//2 132//2
f 137//1 141//1 145//1
f 145//2 141//2 137//2
f 131//1 143//1 146//1
f 146//2 143//2 131//2
f 144//1 140//1 147//1
f 147//2 140//2 144//2
f 145//1 141//1 148//1
f 148//2 141//2 145//2
f 146//1 143//1 149//1
f 149//2 143//2 146//2
f 144//1 147//1 150//1
f 150//2 147//2 144//2
f 145//1 148//1 151//1
f 151//2 148//2 145//2
f 146//1 149//1 152//1
f 152//2 149//2 146//2
f 150//1 147//1 153//1
f 153//2 147//2 150//2
f 151//1 148//1 154//1
f 154//2 148//2 151//2
f 146//1 152//1 155//1
f 155//2 152//2 146//2
f 150//1 153//1 156//1
f 156//2 153//2 150//2
f 146//1 155//1 157//1
f 157//2 155//2 146//2
f 156//1 153//1 158//1
f 158//2 153//2 156//2
f 157//1 155//1 159//1
f 159//2 155//2 157//2
f 156//1 158//1 160//1
f 160//2 158//2 156//2
f 157//1 159//1 161//1
f 161//2 159//2 157//2
f 156//1 160//1 162//1
f 162//2 160//2 156//2
f 157//1 161//1 163//1
f 163//2 161//2 157//2
f 162//1 160//1 164//1
f 164//2 160//2 162//2
f 157//1 163//1 165//1
f 165//2 163//2 157//2
f 162//1 164//1 166//1
f 166//2 164//2 162//2
f 165//1 163//1 167//1
f 167//2 163//2 165//2
f 166//1 164//1 168//1
f 168//2 164//2 166//2
f 165//1 167//1 169//1
f 169//2 167//2 165//2
f 166//1 168//1 170//1
f 170//2 168//2 166//2
f 165//1 169//1 171//1
f 171//2 169//2 165//2
f 166//1 170//1 172//1
f 172//2 170//2 166//2
f 165//1 171//1 173//1
f 173//2 171//2 165//2
f 166//1 172//1 174//1
f 174//2 172//2 166//2
f 173//1 171//1 175//1
f 175//2 171//2 173//2
f 174//1 172//1 176//1
f 176//2 172//2 174//2
f 173//1 175//1 177//1
f 177//2 175//2 173//2
f 174//1 176//1 178//1
f 178//2 176//2 174//2
f 173//1 177//1 179//1
f 179//2 177//2 173//2
f 174//1 178//1 180//1
f 180//2 178//2 174//2
f 173//1 179//1 181//1
f 181//2 179//2 173//2
f 174//1 180//1 182//1
f 182//2 180//2 174//2
f 181//1 179//1 183//1
f 183//2 179//2 181//2
f 174//1 182//1 184//1
f 184//2 182//2 174//2
f 181//1 183//1 185//1
f 185//2 183//2 181//2
f 174//1 184//1 186//1
f 186//2 184//2 174//2
f 181//1 185//1 187//1
f 187//2 185//2 181//2
f 186//1 184//1 188//1
f 188//2 184//2 186//2
f 181//1 187//1 189//1
f 189//2 187//2 181//2
f 186//1 188//1 190//1
f 190//2 188//2 186//2
f 189//1 187//1 191//1
f 191//2 187//2 189//2
f 186//1 190//1 192//1
f 192//2 190//2 186//2
f 189//1 191//1 193//1
f 193//2 191//2 189//2
f 193//1 191//1 194//1
f 194//2 191//2 193//2
f 193//1 194//1 195//1
f 195//2 194//2 193//2
