# SSTK version 0.8.0
# 27
mtllib original-27.mtl
o Group28/mesh26/mesh26-geometry#mesh26-geometry
v -0.253459 0.122488 -0.654105
v -0.241240 0.122488 -0.664952
v -0.253459 0.122488 -0.694627
v -0.219795 0.122488 -0.654105
v -0.247131 0.122488 -0.697308
v -0.219795 0.122488 -0.664952
v -0.241240 0.122488 -0.688954
v -0.239744 0.122488 -0.699864
v -0.232512 0.122488 -0.691198
v -0.231515 0.122488 -0.701921
v -0.222101 0.122488 -0.691946
v -0.222600 0.122488 -0.702607
v -0.213171 0.122488 -0.701859
v -0.215407 0.122488 -0.691315
v -0.209415 0.122488 -0.689421
v -0.204583 0.122488 -0.699614
v -0.204186 0.122488 -0.686328
v -0.196993 0.122488 -0.695843
v -0.199783 0.122488 -0.682096
v -0.196152 0.122488 -0.676704
v -0.190556 0.122488 -0.690512
v -0.193486 0.122488 -0.670251
v -0.191850 0.122488 -0.662677
v -0.191304 0.122488 -0.653918
v -0.190619 0.122488 -0.619006
v -0.191821 0.122488 -0.645950
v -0.185437 0.122488 -0.625950
v -0.193370 0.122488 -0.638816
v -0.185382 0.122488 -0.683608
v -0.195951 0.122488 -0.632515
v -0.181610 0.122488 -0.634187
v -0.196946 0.122488 -0.613598
v -0.181579 0.122488 -0.675239
v -0.199565 0.122488 -0.627049
v -0.179249 0.122488 -0.643655
v -0.204016 0.122488 -0.622630
v -0.179241 0.122488 -0.665451
v -0.204583 0.122488 -0.609593
v -0.178462 0.122488 -0.654292
v -0.209111 0.122488 -0.619474
v -0.213264 0.122488 -0.607115
v -0.214848 0.122488 -0.617580
v -0.221228 0.122488 -0.616949
v -0.222725 0.122488 -0.606289
v -0.231702 0.122488 -0.618196
v -0.231702 0.122488 -0.606974
v -0.239931 0.122488 -0.608845
v -0.240305 0.122488 -0.621313
v -0.246882 0.122488 -0.611432
v -0.247256 0.122488 -0.625272
v -0.252025 0.122488 -0.629168
v -0.253085 0.122488 -0.629168
v -0.253085 0.122488 -0.614268
vn 0 1 0
vn 0 -1 0
usemtl material_0_0
f 1//1 2//1 3//1
f 2//1 1//1 4//1
f 3//2 2//2 1//2
f 4//2 1//2 2//2
f 3//1 2//1 5//1
f 5//2 2//2 3//2
f 2//1 4//1 6//1
f 6//2 4//2 2//2
f 7//1 5//1 2//1
f 2//2 5//2 7//2
f 5//1 7//1 8//1
f 8//2 7//2 5//2
f 8//1 7//1 9//1
f 9//2 7//2 8//2
f 8//1 9//1 10//1
f 10//2 9//2 8//2
f 10//1 9//1 11//1
f 11//2 9//2 10//2
f 10//1 11//1 12//1
f 12//2 11//2 10//2
f 12//1 11//1 13//1
f 13//2 11//2 12//2
f 13//1 11//1 14//1
f 14//2 11//2 13//2
f 13//1 14//1 15//1
f 15//2 14//2 13//2
f 13//1 15//1 16//1
f 16//2 15//2 13//2
f 16//1 15//1 17//1
f 17//2 15//2 16//2
f 16//1 17//1 18//1
f 18//2 17//2 16//2
f 18//1 17//1 19//1
f 19//2 17//2 18//2
f 18//1 19//1 20//1
f 20//2 19//2 18//2
f 18//1 20//1 21//1
f 21//2 20//2 18//2
f 21//1 20//1 22//1
f 22//2 20//2 21//2
f 21//1 22//1 23//1
f 23//2 22//2 21//2
f 21//1 23//1 24//1
f 24//2 23//2 21//2
f 21//1 24//1 25//1
f 25//2 24//2 21//2
f 26//1 25//1 24//1
f 24//2 25//2 26//2
f 21//1 25//1 27//1
f 27//2 25//2 21//2
f 28//1 25//1 26//1
f 26//2 25//2 28//2
f 21//1 27//1 29//1
f 29//2 27//2 21//2
f 30//1 25//1 28//1
f 28//2 25//2 30//2
f 29//1 27//1 31//1
f 31//2 27//2 29//2
f 30//1 32//1 25//1
f 25//2 32//2 30//2
f 29//1 31//1 33//1
f 33//2 31//2 29//2
f 34//1 32//1 30//1
f 30//2 32//2 34//2
f 33//1 31//1 35//1
f 35//2 31//2 33//2
f 36//1 32//1 34//1
f 34//2 32//2 36//2
f 33//1 35//1 37//1
f 37//2 35//2 33//2
f 36//1 38//1 32//1
f 32//2 38//2 36//2
f 37//1 35//1 39//1
f 39//2 35//2 37//2
f 40//1 38//1 36//1
f 36//2 38//2 40//2
f 40//1 41//1 38//1
f 38//2 41//2 40//2
f 42//1 41//1 40//1
f 40//2 41//2 42//2
f 43//1 41//1 42//1
f 42//2 41//2 43//2
f 43//1 44//1 41//1
f 41//2 44//2 43//2
f 45//1 44//1 43//1
f 43//2 44//2 45//2
f 45//1 46//1 44//1
f 44//2 46//2 45//2
f 45//1 47//1 46//1
f 46//2 47//2 45//2
f 48//1 47//1 45//1
f 45//2 47//2 48//2
f 48//1 49//1 47//1
f 47//2 49//2 48//2
f 50//1 49//1 48//1
f 48//2 49//2 50//2
f 51//1 49//1 50//1
f 50//2 49//2 51//2
f 52//1 49//1 51//1
f 51//2 49//2 52//2
f 49//1 52//1 53//1
f 53//2 52//2 49//2
