# SSTK version 0.8.0
# 31
mtllib original-31.mtl
o mesh30/mesh30-geometry#mesh30-geometry
v -0.313619 0.122488 -0.624835
v -0.313557 0.122488 -0.637896
v -0.314741 0.122488 -0.630664
v -0.312154 0.122488 -0.622630
v -0.311967 0.122488 -0.640545
v -0.310003 0.122488 -0.620939
v -0.309567 0.122488 -0.642634
v -0.303333 0.122488 -0.618882
v -0.303894 0.122488 -0.645096
v -0.295353 0.122488 -0.645689
v -0.293171 0.122488 -0.618508
v -0.281326 0.122488 -0.645689
v -0.281326 0.122488 -0.618508
v -0.281326 0.122488 -0.632098
vn 0 1 0
vn 0 -1 0
usemtl material_0_0
f 1//1 2//1 3//1
f 2//1 1//1 4//1
f 2//1 4//1 5//1
f 5//1 4//1 6//1
f 5//1 6//1 7//1
f 7//1 6//1 8//1
f 7//1 8//1 9//1
f 9//1 8//1 10//1
f 10//1 8//1 11//1
f 10//1 11//1 12//1
f 12//1 11//1 13//1
f 12//1 13//1 14//1
usemtl material_1_0
f 3//2 2//2 1//2
f 4//2 1//2 2//2
f 5//2 4//2 2//2
f 6//2 4//2 5//2
f 7//2 6//2 5//2
f 8//2 6//2 7//2
f 9//2 8//2 7//2
f 10//2 8//2 9//2
f 11//2 8//2 10//2
f 12//2 11//2 10//2
f 13//2 11//2 12//2
f 14//2 13//2 12//2
