# SSTK version 0.8.0
# 4
mtllib original-4.mtl
o Group5/mesh3/mesh3-geometry#mesh3-geometry
v 0.054993 0.183510 -0.045046
v 0.045377 0.183510 -0.043349
v 0.049337 0.183510 -0.039390
v 0.051034 0.183510 -0.049005
v 0.039721 0.183510 -0.049005
v 0.055559 0.183510 -0.033167
v 0.039155 0.183510 -0.048440
v 0.036327 0.183510 -0.045612
v 0.041983 0.183510 -0.039955
v 0.045943 0.183510 -0.035996
v 0.052165 0.183510 -0.029774
v 0.035196 0.183510 -0.033167
v 0.039155 0.183510 -0.029208
vn 0 1 0
vn 0 -1 0
usemtl material_0_0
f 1//1 2//1 3//1
f 2//1 1//1 4//1
f 3//2 2//2 1//2
f 4//2 1//2 2//2
f 5//1 3//1 2//1
f 2//2 3//2 5//2
f 5//1 6//1 3//1
f 3//2 6//2 5//2
f 7//1 6//1 5//1
f 5//2 6//2 7//2
f 8//1 6//1 7//1
f 7//2 6//2 8//2
f 9//1 6//1 8//1
f 8//2 6//2 9//2
f 10//1 6//1 9//1
f 9//2 6//2 10//2
f 6//1 10//1 11//1
f 11//2 10//2 6//2
f 12//1 10//1 9//1
f 9//2 10//2 12//2
f 10//1 12//1 13//1
f 13//2 12//2 10//2
