# SSTK version 0.8.0
# 8
mtllib original-8.mtl
o Group9/mesh7/mesh7-geometry#mesh7-geometry
v 0.126323 0.183510 0.125207
v 0.163992 0.183510 0.050712
v 0.107911 0.183510 0.106794
v 0.175467 0.183510 0.076063
v 0.188359 0.183510 0.063925
v 0.176033 0.183510 0.038181
v 0.198125 0.183510 0.056419
v 0.182282 0.183510 0.030457
v 0.205997 0.183510 0.052511
v 0.184811 0.183510 0.025422
v 0.213206 0.183510 0.051167
v 0.185691 0.183510 0.020954
v 0.219329 0.183510 0.052088
v 0.184848 0.183510 0.016932
v 0.223948 0.183510 0.054972
v 0.182208 0.183510 0.013232
v 0.171177 0.183510 -0.006664
v 0.177319 0.183510 0.010029
v 0.252921 0.183510 0.078549
v 0.171169 0.183510 0.008938
v 0.227122 0.183510 0.061036
v 0.212523 0.183510 0.034682
v 0.168178 0.183510 -0.037608
v 0.226029 0.183510 0.068616
v 0.257422 0.183510 0.067463
v 0.183073 0.183510 -0.009018
v 0.164126 0.183510 0.010134
v 0.185149 0.183510 -0.020637
v 0.245771 0.183510 0.088550
v 0.224445 0.183510 0.032294
v 0.216091 0.183510 0.023940
v 0.156555 0.183510 0.013789
v 0.220324 0.183510 0.077172
v 0.258435 0.183510 0.057178
v 0.193367 0.183510 -0.008902
v 0.146994 0.183510 0.021139
v 0.233622 0.183510 0.101649
v 0.234655 0.183510 0.032338
v 0.216702 0.183510 0.014385
v 0.133978 0.183510 0.033418
v 0.208272 0.183510 0.090174
v 0.255971 0.183510 0.047848
v 0.202060 0.183510 -0.006316
v 0.084256 0.183510 0.083140
v 0.168194 0.183510 0.167077
v 0.243178 0.183510 0.034791
v 0.214380 0.183510 0.005993
v 0.065844 0.183510 0.064727
v 0.149781 0.183510 0.148665
v 0.250038 0.183510 0.039627
v 0.209151 0.183510 -0.001260
vn 0 1 0
vn 0 -1 0
usemtl material_0_0
f 1//1 2//1 3//1
f 2//1 1//1 4//1
f 3//2 2//2 1//2
f 4//2 1//2 2//2
f 2//1 4//1 5//1
f 5//2 4//2 2//2
f 2//1 5//1 6//1
f 6//2 5//2 2//2
f 6//1 5//1 7//1
f 7//2 5//2 6//2
f 6//1 7//1 8//1
f 8//2 7//2 6//2
f 8//1 7//1 9//1
f 9//2 7//2 8//2
f 8//1 9//1 10//1
f 10//2 9//2 8//2
f 10//1 9//1 11//1
f 11//2 9//2 10//2
f 10//1 11//1 12//1
f 12//2 11//2 10//2
f 12//1 11//1 13//1
f 13//2 11//2 12//2
f 12//1 13//1 14//1
f 14//2 13//2 12//2
f 14//1 13//1 15//1
f 15//2 13//2 14//2
f 14//1 15//1 16//1
f 16//2 15//2 14//2
f 17//1 16//1 15//1
f 15//2 16//2 17//2
f 17//1 18//1 16//1
f 16//2 18//2 17//2
f 17//1 15//1 19//1
f 19//2 15//2 17//2
f 17//1 20//1 18//1
f 18//2 20//2 17//2
f 21//1 19//1 15//1
f 15//2 19//2 21//2
f 19//1 22//1 17//1
f 17//2 22//2 19//2
f 23//1 20//1 17//1
f 17//2 20//2 23//2
f 24//1 19//1 21//1
f 21//2 19//2 24//2
f 22//1 19//1 25//1
f 25//2 19//2 22//2
f 22//1 26//1 17//1
f 17//2 26//2 22//2
f 23//1 27//1 20//1
f 20//2 27//2 23//2
f 23//1 17//1 28//1
f 28//2 17//2 23//2
f 24//1 29//1 19//1
f 19//2 29//2 24//2
f 22//1 25//1 30//1
f 30//2 25//2 22//2
f 26//1 22//1 31//1
f 31//2 22//2 26//2
f 23//1 32//1 27//1
f 27//2 32//2 23//2
f 33//1 29//1 24//1
f 24//2 29//2 33//2
f 30//1 25//1 34//1
f 34//2 25//2 30//2
f 26//1 31//1 35//1
f 35//2 31//2 26//2
f 23//1 36//1 32//1
f 32//2 36//2 23//2
f 33//1 37//1 29//1
f 29//2 37//2 33//2
f 30//1 34//1 38//1
f 38//2 34//2 30//2
f 35//1 31//1 39//1
f 39//2 31//2 35//2
f 23//1 40//1 36//1
f 36//2 40//2 23//2
f 41//1 37//1 33//1
f 33//2 37//2 41//2
f 38//1 34//1 42//1
f 42//2 34//2 38//2
f 35//1 39//1 43//1
f 43//2 39//2 35//2
f 23//1 44//1 40//1
f 40//2 44//2 23//2
f 41//1 45//1 37//1
f 37//2 45//2 41//2
f 38//1 42//1 46//1
f 46//2 42//2 38//2
f 43//1 39//1 47//1
f 47//2 39//2 43//2
f 44//1 23//1 48//1
f 48//2 23//2 44//2
f 45//1 41//1 49//1
f 49//2 41//2 45//2
f 46//1 42//1 50//1
f 50//2 42//2 46//2
f 43//1 47//1 51//1
f 51//2 47//2 43//2
