# SSTK version 0.8.0
# 3
mtllib original-3.mtl
o Group4/mesh2/mesh2-geometry#mesh2-geometry
v 0.026976 0.183510 -0.068186
v 0.023170 0.183510 -0.071993
v 0.024823 0.183510 -0.069839
v 0.029485 0.183510 -0.067148
v 0.022131 0.183510 -0.074501
v 0.032176 0.183510 -0.066793
v 0.021777 0.183510 -0.077192
v 0.034868 0.183510 -0.067148
v 0.022131 0.183510 -0.079884
v 0.037376 0.183510 -0.068186
v 0.023170 0.183510 -0.082392
v 0.039529 0.183510 -0.069839
v 0.024823 0.183510 -0.084546
v 0.041182 0.183510 -0.071993
v 0.026976 0.183510 -0.086198
v 0.042221 0.183510 -0.074501
v 0.029485 0.183510 -0.087237
v 0.042575 0.183510 -0.077192
v 0.032176 0.183510 -0.087592
v 0.042221 0.183510 -0.079884
v 0.034868 0.183510 -0.087237
v 0.041182 0.183510 -0.082392
v 0.037376 0.183510 -0.086198
v 0.039529 0.183510 -0.084546
vn 0 1 0
vn 0 -1 0
usemtl material_0_0
f 1//1 2//1 3//1
f 2//1 1//1 4//1
f 3//2 2//2 1//2
f 4//2 1//2 2//2
f 2//1 4//1 5//1
f 5//2 4//2 2//2
f 5//1 4//1 6//1
f 6//2 4//2 5//2
f 5//1 6//1 7//1
f 7//2 6//2 5//2
f 7//1 6//1 8//1
f 8//2 6//2 7//2
f 7//1 8//1 9//1
f 9//2 8//2 7//2
f 9//1 8//1 10//1
f 10//2 8//2 9//2
f 9//1 10//1 11//1
f 11//2 10//2 9//2
f 11//1 10//1 12//1
f 12//2 10//2 11//2
f 11//1 12//1 13//1
f 13//2 12//2 11//2
f 13//1 12//1 14//1
f 14//2 12//2 13//2
f 13//1 14//1 15//1
f 15//2 14//2 13//2
f 15//1 14//1 16//1
f 16//2 14//2 15//2
f 15//1 16//1 17//1
f 17//2 16//2 15//2
f 17//1 16//1 18//1
f 18//2 16//2 17//2
f 17//1 18//1 19//1
f 19//2 18//2 17//2
f 19//1 18//1 20//1
f 20//2 18//2 19//2
f 19//1 20//1 21//1
f 21//2 20//2 19//2
f 21//1 20//1 22//1
f 22//2 20//2 21//2
f 21//1 22//1 23//1
f 23//2 22//2 21//2
f 23//1 22//1 24//1
f 24//2 22//2 23//2
