# SSTK version 0.8.0
# 37
mtllib original-37.mtl
o Group35/mesh36/mesh36-geometry#mesh36-geometry
v -0.369805 -0.009093 0.626689
v -0.370851 -0.005712 0.628052
v -0.370851 -0.009093 0.628052
v -0.369805 -0.005712 0.626689
v -0.372213 -0.009093 0.629097
v -0.370056 -0.009093 0.632835
v -0.369148 -0.009093 0.625102
v -0.368886 -0.005712 0.216789
v -0.372213 -0.005712 0.629097
v -0.367799 -0.009093 0.631103
v -0.369148 -0.005712 0.625102
v -0.373800 -0.009093 0.629755
v -0.372684 -0.009093 0.633923
v -0.370056 -0.013226 0.632835
v -0.368886 -0.009093 0.623118
v -0.373800 -0.005712 0.629755
v -0.368886 -0.005712 0.623118
v -0.372684 -0.013226 0.633923
v -0.367799 -0.013226 0.631103
v -0.368886 -0.009093 0.216789
v -0.375504 -0.005712 0.629979
v -0.375504 -0.009093 0.629979
v -0.375504 -0.013226 0.634295
v -0.364608 -0.013226 0.216789
v -0.366068 -0.013226 0.628847
v -0.364608 -0.009093 0.216789
v -0.377207 -0.005712 0.629755
v -0.382121 -0.005712 0.216789
v -0.375504 -0.009093 0.634295
v -0.366068 -0.009093 0.628847
v -0.382121 -0.009093 0.216789
v -0.378794 -0.005712 0.629097
v -0.377207 -0.009093 0.629755
v -0.381860 -0.005712 0.625102
v -0.378324 -0.013226 0.633923
v -0.364979 -0.013226 0.626219
v -0.364979 -0.009093 0.626219
v -0.386399 -0.009093 0.216789
v -0.380157 -0.005712 0.628052
v -0.378794 -0.009093 0.629097
v -0.382121 -0.009093 0.623118
v -0.382121 -0.005712 0.623118
v -0.381202 -0.005712 0.626689
v -0.378324 -0.009093 0.633923
v -0.380951 -0.013226 0.632835
v -0.364608 -0.013226 0.623399
v -0.364608 -0.009093 0.623399
v -0.386028 -0.009093 0.626219
v -0.380157 -0.009093 0.628052
v -0.383208 -0.009093 0.631103
v -0.381860 -0.009093 0.625102
v -0.381202 -0.009093 0.626689
v -0.383208 -0.013226 0.631103
v -0.386399 -0.013226 0.216789
v -0.386399 -0.009093 0.623399
v -0.384940 -0.009093 0.628847
v -0.380951 -0.009093 0.632835
v -0.384940 -0.013226 0.628847
v -0.386399 -0.013226 0.623399
v -0.386028 -0.013226 0.626219
vn 0.8660253028382762 0 0.5000001748438417
vn 0.7071067811865476 0 0.7071067811865476
vn 0.5000001748438417 0 0.8660253028382762
vn 0 1 0
vn 0.965925849201117 0 0.2588189595935754
vn 0.2588189595935754 0 0.965925849201117
vn 0.9978589320009053 0 0.06540299554311302
vn 1 0 0
vn 0 0 1
vn 0 -1 0
vn 0 0 -1
vn -0.2588189595935754 0 0.965925849201117
vn -0.5000001748438417 0 0.8660253028382762
vn -0.9978589320009053 0 0.06540299554311302
vn -1 0 0
vn -0.7071067811865476 0 0.7071067811865476
vn -0.965925849201117 0 0.2588189595935754
vn -0.8660253028382762 0 0.5000001748438417
vn -0.7071067811865476 0 -0.7071067811865476
vn -0.8660253028382762 0 -0.5000001748438417
vn -0.5000001748438417 0 -0.8660253028382762
vn -0.965925849201117 0 -0.2588189595935754
vn -0.2588189595935754 0 -0.965925849201117
vn -0.9978589320009053 0 -0.06540299554311302
vn 0.2588189595935754 0 -0.965925849201117
vn 0.5000001748438417 0 -0.8660253028382762
vn 0.9978589320009053 0 -0.06540299554311302
vn 0.7071067811865476 0 -0.7071067811865476
vn 0.965925849201117 0 -0.2588189595935754
vn 0.8660253028382762 0 -0.5000001748438417
usemtl material_0_0
f 1//1 2//2 3//2
f 2//2 1//1 4//1
f 2//2 5//3 3//2
f 3//4 6//4 1//4
f 7//5 4//1 1//1
f 8//4 2//4 4//4
f 5//3 2//2 9//3
f 5//4 6//4 3//4
f 1//4 6//4 10//4
f 4//1 7//5 11//5
f 1//4 10//4 7//4
f 8//4 9//4 2//4
f 8//4 4//4 11//4
f 9//3 12//6 5//3
f 5//4 13//4 6//4
f 14//3 10//2 6//3
f 15//7 11//5 7//5
f 7//4 10//4 15//4
f 8//4 16//4 9//4
f 8//4 11//4 17//4
f 12//6 9//3 16//6
f 12//4 13//4 5//4
f 18//6 6//3 13//6
f 10//2 14//3 19//2
f 6//3 18//6 14//3
f 11//5 15//7 17//7
f 15//4 10//4 20//4
f 8//4 21//4 16//4
f 17//7 20//8 8//8
f 16//6 22//9 12//6
f 22//4 13//4 12//4
f 13//6 23//9 18//6
f 14//10 24//10 19//10
f 25//1 10//2 19//2
f 18//10 24//10 14//10
f 20//8 17//7 15//7
f 20//4 10//4 26//4
f 8//4 27//4 21//4
f 22//9 16//6 21//9
f 20//11 28//11 8//11
f 22//4 29//4 13//4
f 23//9 13//6 29//9
f 23//10 24//10 18//10
f 19//10 24//10 25//10
f 10//2 25//1 30//1
f 26//4 10//4 30//4
f 26//11 31//11 20//11
f 8//4 32//4 27//4
f 33//12 21//9 27//12
f 21//9 33//12 22//9
f 28//11 20//11 31//11
f 28//4 34//4 8//4
f 33//4 29//4 22//4
f 29//9 35//12 23//9
f 35//10 24//10 23//10
f 25//10 24//10 36//10
f 36//5 30//1 25//1
f 26//4 30//4 37//4
f 26//11 38//11 31//11
f 8//4 39//4 32//4
f 40//13 27//12 32//13
f 27//12 40//13 33//12
f 41//14 28//15 31//15
f 34//4 28//4 42//4
f 8//4 34//4 43//4
f 33//4 44//4 29//4
f 35//12 29//9 44//12
f 45//10 24//10 35//10
f 36//10 24//10 46//10
f 30//1 36//5 37//5
f 26//4 37//4 47//4
f 24//11 38//11 26//11
f 38//4 48//4 31//4
f 8//4 43//4 39//4
f 49//16 32//13 39//16
f 32//13 49//16 40//13
f 40//4 44//4 33//4
f 28//15 41//14 42//14
f 31//4 50//4 41//4
f 42//14 51//17 34//17
f 34//17 52//18 43//18
f 44//12 45//13 35//12
f 53//10 24//10 45//10
f 24//8 47//7 46//7
f 46//7 37//5 36//5
f 37//5 46//7 47//7
f 47//7 24//8 26//8
f 38//11 24//11 54//11
f 48//4 38//4 55//4
f 31//4 48//4 56//4
f 43//18 49//16 39//16
f 49//4 44//4 40//4
f 51//17 42//14 41//14
f 31//4 56//4 50//4
f 57//4 41//4 50//4
f 52//18 34//17 51//17
f 49//16 43//18 52//18
f 45//13 44//12 57//13
f 58//10 24//10 53//10
f 57//13 53//16 45//13
f 24//10 59//10 54//10
f 59//14 38//15 54//15
f 38//15 59//14 55//14
f 55//14 60//17 48//17
f 48//17 58//18 56//18
f 49//4 57//4 44//4
f 41//4 57//4 51//4
f 56//18 53//16 50//16
f 53//16 57//13 50//16
f 51//4 57//4 52//4
f 52//4 57//4 49//4
f 60//10 24//10 58//10
f 53//16 56//18 58//18
f 59//10 24//10 60//10
f 60//17 55//14 59//14
f 58//18 48//17 60//17
usemtl material_1_0
f 3//19 2//19 1//20
f 4//20 1//20 2//19
f 3//19 5//21 2//19
f 1//10 6//10 3//10
f 1//20 4//20 7//22
f 4//10 2//10 8//10
f 9//21 2//19 5//21
f 3//10 6//10 5//10
f 10//10 6//10 1//10
f 11//22 7//22 4//20
f 7//10 10//10 1//10
f 2//10 9//10 8//10
f 11//10 4//10 8//10
f 5//21 12//23 9//21
f 6//10 13//10 5//10
f 6//21 10//19 14//21
f 7//22 11//22 15//24
f 15//10 10//10 7//10
f 9//10 16//10 8//10
f 17//10 11//10 8//10
f 16//23 9//21 12//23
f 5//10 13//10 12//10
f 13//23 6//21 18//23
f 19//19 14//21 10//19
f 14//21 18//23 6//21
f 17//24 15//24 11//22
f 20//10 10//10 15//10
f 16//10 21//10 8//10
f 8//15 20//15 17//24
f 12//23 22//11 16//23
f 12//10 13//10 22//10
f 18//23 23//11 13//23
f 19//4 24//4 14//4
f 19//19 10//19 25//20
f 14//4 24//4 18//4
f 15//24 17//24 20//15
f 26//10 10//10 20//10
f 21//10 27//10 8//10
f 21//11 16//23 22//11
f 8//9 28//9 20//9
f 13//10 29//10 22//10
f 29//11 13//23 23//11
f 18//4 24//4 23//4
f 25//4 24//4 19//4
f 30//20 25//20 10//19
f 30//10 10//10 26//10
f 20//9 31//9 26//9
f 27//10 32//10 8//10
f 27//25 21//11 33//25
f 22//11 33//25 21//11
f 31//9 20//9 28//9
f 8//10 34//10 28//10
f 22//10 29//10 33//10
f 23//11 35//25 29//11
f 23//4 24//4 35//4
f 36//4 24//4 25//4
f 25//20 30//20 36//22
f 37//10 30//10 26//10
f 31//9 38//9 26//9
f 32//10 39//10 8//10
f 32//26 27//25 40//26
f 33//25 40//26 27//25
f 31//8 28//8 41//27
f 42//10 28//10 34//10
f 43//10 34//10 8//10
f 29//10 44//10 33//10
f 44//25 29//11 35//25
f 35//4 24//4 45//4
f 46//4 24//4 36//4
f 37//22 36//22 30//20
f 47//10 37//10 26//10
f 26//9 38//9 24//9
f 31//10 48//10 38//10
f 39//10 43//10 8//10
f 39//28 32//26 49//28
f 40//26 49//28 32//26
f 33//10 44//10 40//10
f 42//27 41//27 28//8
f 41//10 50//10 31//10
f 34//29 51//29 42//27
f 43//30 52//30 34//29
f 35//25 45//26 44//25
f 45//4 24//4 53//4
f 46//24 47//24 24//15
f 36//22 37//22 46//24
f 47//24 46//24 37//22
f 26//15 24//15 47//24
f 54//9 24//9 38//9
f 55//10 38//10 48//10
f 56//10 48//10 31//10
f 39//28 49//28 43//30
f 40//10 44//10 49//10
f 41//27 42//27 51//29
f 50//10 56//10 31//10
f 50//10 41//10 57//10
f 51//29 34//29 52//30
f 52//30 43//30 49//28
f 57//26 44//25 45//26
f 53//4 24//4 58//4
f 45//26 53//28 57//26
f 54//4 59//4 24//4
f 54//8 38//8 59//27
f 55//27 59//27 38//8
f 48//29 60//29 55//27
f 56//30 58//30 48//29
f 44//10 57//10 49//10
f 51//10 57//10 41//10
f 50//28 53//28 56//30
f 50//28 57//26 53//28
f 52//10 57//10 51//10
f 49//10 57//10 52//10
f 58//4 24//4 60//4
f 58//30 56//30 53//28
f 60//4 24//4 59//4
f 59//27 55//27 60//29
f 60//29 48//29 58//30
