# SSTK version 0.8.0
# 25
mtllib original-25.mtl
o Group26/mesh24/mesh24-geometry#mesh24-geometry
v -0.272070 0.122488 -0.883180
v -0.188749 0.094685 -0.916374
v -0.272070 0.094685 -0.916374
v -0.188749 0.122488 -0.883180
v -0.188749 0.021129 -0.916374
v -0.270651 0.122488 -0.768324
v -0.271980 0.019745 -0.916374
v -0.272070 0.122488 -0.779107
v -0.266489 0.122488 -0.758276
v -0.189110 0.018384 -0.916374
v -0.259868 0.122488 -0.749648
v -0.271709 0.018384 -0.916374
v -0.251240 0.122488 -0.743027
v -0.189556 0.017071 -0.916374
v -0.241192 0.122488 -0.738865
v -0.271263 0.017071 -0.916374
v -0.230410 0.122488 -0.737446
v -0.190170 0.015827 -0.916374
v -0.219627 0.122488 -0.738865
v -0.270650 0.015827 -0.916374
v -0.209579 0.122488 -0.743027
v -0.190940 0.014674 -0.916374
v -0.200951 0.122488 -0.749648
v -0.269879 0.014674 -0.916374
v -0.194330 0.122488 -0.758276
v -0.191855 0.013631 -0.916374
v -0.190168 0.122488 -0.768324
v -0.268964 0.013631 -0.916374
v -0.188749 0.122488 -0.779107
v -0.192898 0.012716 -0.916374
v -0.267922 0.012716 -0.916374
v -0.194051 0.011945 -0.916374
v -0.266768 0.011945 -0.916374
v -0.195295 0.011332 -0.916374
v -0.265524 0.011332 -0.916374
v -0.196609 0.010886 -0.916374
v -0.264211 0.010886 -0.916374
v -0.262850 0.010615 -0.916374
v -0.199353 0.010525 -0.916374
vn 0 0.9398429026802124 -0.341606964626942
vn 0 0.42301608140099256 -0.9061221743651066
vn 0 -0.42301608140099256 0.9061221743651066
vn 0 -0.9398429026802124 0.341606964626942
vn 0 0 -1
vn 0 0 1
vn 0 1 0
vn 0 -1 0
usemtl material_0_0
f 1//1 2//2 3//2
f 2//2 1//1 4//1
f 3//3 2//3 1//4
f 4//4 1//4 2//3
f 5//5 3//2 2//2
f 2//3 3//3 5//6
f 1//1 6//7 4//1
f 4//4 6//8 1//4
f 5//5 7//5 3//2
f 3//3 7//6 5//6
f 6//7 1//1 8//7
f 8//8 1//4 6//8
f 4//1 6//7 9//7
f 9//8 6//8 4//4
f 10//5 7//5 5//5
f 5//6 7//6 10//6
f 4//1 9//7 11//7
f 11//8 9//8 4//4
f 10//5 12//5 7//5
f 7//6 12//6 10//6
f 4//1 11//7 13//7
f 13//8 11//8 4//4
f 14//5 12//5 10//5
f 10//6 12//6 14//6
f 4//1 13//7 15//7
f 15//8 13//8 4//4
f 14//5 16//5 12//5
f 12//6 16//6 14//6
f 4//1 15//7 17//7
f 17//8 15//8 4//4
f 18//5 16//5 14//5
f 14//6 16//6 18//6
f 4//1 17//7 19//7
f 19//8 17//8 4//4
f 18//5 20//5 16//5
f 16//6 20//6 18//6
f 4//1 19//7 21//7
f 21//8 19//8 4//4
f 22//5 20//5 18//5
f 18//6 20//6 22//6
f 4//1 21//7 23//7
f 23//8 21//8 4//4
f 22//5 24//5 20//5
f 20//6 24//6 22//6
f 4//1 23//7 25//7
f 25//8 23//8 4//4
f 26//5 24//5 22//5
f 22//6 24//6 26//6
f 4//1 25//7 27//7
f 27//8 25//8 4//4
f 26//5 28//5 24//5
f 24//6 28//6 26//6
f 4//1 27//7 29//7
f 29//8 27//8 4//4
f 30//5 28//5 26//5
f 26//6 28//6 30//6
f 30//5 31//5 28//5
f 28//6 31//6 30//6
f 32//5 31//5 30//5
f 30//6 31//6 32//6
f 32//5 33//5 31//5
f 31//6 33//6 32//6
f 34//5 33//5 32//5
f 32//6 33//6 34//6
f 34//5 35//5 33//5
f 33//6 35//6 34//6
f 36//5 35//5 34//5
f 34//6 35//6 36//6
f 36//5 37//5 35//5
f 35//6 37//6 36//6
f 36//5 38//5 37//5
f 37//6 38//6 36//6
f 38//5 36//5 39//5
f 39//6 36//6 38//6
