# SSTK version 0.8.0
# 5
mtllib original-5.mtl
o mesh17/mesh17-geometry#mesh17-geometry
v 0.066961 0.140913 -0.860175
v 0.066961 0.140913 0.801236
v 0.066961 0.140913 0.55553
v 0.066961 0.15758 0.797824
v -0.080367 0.140913 0.55553
v 0.066961 0.090936 -0.860175
v 0.066961 0.301471 -0.592106
v 0.066961 0.131069 0.803251
v 0.066961 0.142889 0.806743
v -0.080367 0.140913 0.801236
v -0.080367 0.090936 -0.860175
v -0.080367 0.301471 -0.592106
v 0.066961 0.211923 0.82859
v 0.078752 0.15758 0.797824
v -0.080367 0.131069 0.803251
v 0.066961 0.140913 0.809741
v 0.066961 0.211491 0.851967
v -0.080367 0.211714 0.856414
v -0.080367 0.140913 -0.860175
v -0.080367 0.301471 0.427706
v 0.066961 0.281896 0.427706
v 0.078752 0.211923 0.82859
v 0.078752 0.131069 0.803251
v -0.080367 0.140913 0.809741
v 0.066961 0.211714 0.856414
v -0.080367 0.211491 0.851967
v -0.092159 0.131069 0.803251
v -0.006703 0.301471 0.427706
v -0.080367 0.301471 0.783405
v 0.066961 0.301471 0.427706
v 0.066961 0.281896 0.772374
v 0.078752 0.281896 0.772374
v 0.066961 0.299205 0.780619
v 0.078752 0.211714 0.856414
v -0.092159 0.211714 0.856414
v -0.080367 0.142889 0.806743
v -0.080367 0.299205 0.780619
v -0.080367 0.15758 0.797824
v -0.006703 0.310618 0.427706
v 0.078752 0.310618 0.427706
v 0.078752 0.310618 0.775964
v 0.066961 0.301471 0.783405
v -0.092159 0.15758 0.797824
v -0.092159 0.310618 0.775964
v -0.092159 0.310618 0.427706
v 0.078752 0.281896 0.427706
v -0.080367 0.211923 0.82859
v -0.092159 0.211923 0.82859
v -0.084978 0.281896 0.427706
v -0.092159 0.281896 0.772374
v -0.092159 0.281896 0.427706
v -0.080367 0.281896 0.772374
vn 1.0 0.0 0.0
vn 0.0 0.0 -1.0
vn 0.0 0.8578938708162059 -0.5138269226266633
vn -1.0 0.0 0.0
vn 0.0 1.0 0.0
vn 0.0 -1.0 0.0
vn 0.0 -0.20055796665844416 -0.9796818371337863
vn 0.0 0.20055796665844416 0.9796818371337863
vn 0.0 -0.9993774664450504 0.035280016466439974
vn 0.0 0.9993774664450504 -0.035280016466439974
vn 0.0 0.0 1.0
vn 0.0 -0.8578938708162059 0.5138269226266633
vn 0.0 0.4926669654115779 -0.8702179389050465
vn 0.0 -0.4926669654115779 0.8702179389050465
vn 0.0 0.550394023595117 -0.8349050357919621
vn 0.0 -0.8349050357919621 -0.550394023595117
vn 0.0 -0.6263106585990925 -0.7795735750557294
vn 0.0 0.6263106585990925 0.7795735750557294
vn 0.0 -0.6310197858669425 -0.7757667367478691
vn 0.0 0.7757667367478691 -0.6310197858669425
vn 0.0 -0.550394023595117 0.8349050357919621
vn 0.0 0.8349050357919621 0.550394023595117
vn 0.0 0.6310197858669425 0.7757667367478691
vn 0.0 -0.7757667367478691 0.6310197858669425
usemtl material_0_0
f 1//1 2//1 3//1
f 2//1 1//1 4//1
f 1//1 3//1 6//1
f 4//1 1//1 7//1
f 11//2 1//2 6//2
f 1//3 12//3 7//3
f 4//1 7//1 13//1
f 10//4 18//4 5//4
f 19//4 11//4 5//4
f 1//2 11//2 19//2
f 12//3 1//3 19//3
f 20//5 7//5 12//5
f 13//1 7//1 21//1
f 18//4 10//4 24//4
f 5//4 18//4 19//4
f 19//4 18//4 12//4
f 28//5 7//5 20//5
f 12//4 29//4 20//4
f 21//1 7//1 30//1
f 31//1 13//1 21//1
f 12//4 18//4 29//4
f 7//5 28//5 30//5
usemtl material_1_0
f 3//4 2//4 1//4
f 4//4 1//4 2//4
f 7//4 1//4 4//4
f 4//4 2//4 9//4
f 13//4 7//4 4//4
f 16//4 9//4 2//4
f 17//4 4//4 9//4
f 21//4 7//4 13//4
f 13//4 4//4 17//4
f 30//4 7//4 21//4
f 21//4 13//4 31//4
f 33//4 13//4 17//4
f 21//4 31//4 30//4
f 31//4 13//4 33//4
f 33//4 30//4 31//4
f 42//4 30//4 33//4
usemtl material_2_0
f 2//6 5//6 3//6
f 3//5 5//5 2//5
f 6//4 3//4 1//4
f 4//7 8//7 2//7
f 2//8 8//8 4//8
f 9//1 2//1 4//1
f 5//6 2//6 10//6
f 10//5 2//5 5//5
f 11//9 3//9 5//9
f 5//10 3//10 11//10
f 3//9 11//9 6//9
f 6//10 11//10 3//10
f 6//11 1//11 11//11
f 7//12 12//12 1//12
f 14//7 8//7 4//7
f 4//8 8//8 14//8
f 15//7 2//7 8//7
f 8//8 2//8 15//8
f 2//1 9//1 16//1
f 9//1 4//1 17//1
f 2//7 15//7 10//7
f 10//8 15//8 2//8
f 16//6 10//6 2//6
f 2//5 10//5 16//5
f 19//11 11//11 1//11
f 19//12 1//12 12//12
f 12//6 7//6 20//6
f 22//13 4//13 13//13
f 13//14 4//14 22//14
f 17//1 4//1 13//1
f 8//7 14//7 23//7
f 23//8 14//8 8//8
f 4//13 22//13 14//13
f 14//14 22//14 4//14
f 15//15 24//15 8//15
f 16//16 24//16 9//16
f 9//1 25//1 16//1
f 25//1 9//1 17//1
f 17//15 9//15 26//15
f 27//7 10//7 15//7
f 15//8 10//8 27//8
f 10//6 16//6 24//6
f 24//5 16//5 10//5
f 20//6 7//6 28//6
f 13//17 32//17 22//17
f 22//18 32//18 13//18
f 17//1 13//1 33//1
f 23//4 34//4 14//4
f 8//15 25//15 23//15
f 22//4 14//4 34//4
f 24//15 16//15 8//15
f 15//15 35//15 24//15
f 36//16 9//16 24//16
f 16//15 25//15 8//15
f 25//1 17//1 33//1
f 36//15 26//15 9//15
f 26//19 37//19 17//19
f 10//7 27//7 38//7
f 38//8 27//8 10//8
f 27//15 35//15 15//15
f 18//15 24//15 35//15
f 30//6 28//6 7//6
f 20//2 39//2 28//2
f 28//11 39//11 20//11
f 20//5 30//5 28//5
f 28//6 30//6 20//6
f 29//5 30//5 20//5
f 20//6 30//6 29//6
f 30//1 31//1 21//1
f 40//2 21//2 30//2
f 30//11 21//11 40//11
f 32//17 13//17 31//17
f 31//18 13//18 32//18
f 33//1 13//1 31//1
f 21//6 32//6 31//6
f 31//5 32//5 21//5
f 32//4 22//4 41//4
f 33//19 17//19 37//19
f 34//15 23//15 25//15
f 41//4 22//4 34//4
f 25//1 33//1 42//1
f 38//7 27//7 43//7
f 43//8 27//8 38//8
f 27//1 43//1 35//1
f 35//19 44//19 18//19
f 18//19 44//19 29//19
f 39//2 30//2 28//2
f 28//11 30//11 39//11
f 39//2 20//2 45//2
f 45//11 20//11 39//11
f 30//5 29//5 42//5
f 42//6 29//6 30//6
f 31//1 30//1 33//1
f 21//2 40//2 46//2
f 46//11 40//11 21//11
f 40//2 30//2 39//2
f 39//11 30//11 40//11
f 32//6 21//6 46//6
f 46//5 21//5 32//5
f 40//4 32//4 41//4
f 33//20 37//20 42//20
f 42//19 34//19 25//19
f 34//19 42//19 41//19
f 33//1 30//1 42//1
f 43//13 47//13 38//13
f 38//14 47//14 43//14
f 48//1 35//1 43//1
f 44//1 35//1 48//1
f 29//19 44//19 42//19
f 45//2 20//2 49//2
f 49//11 20//11 45//11
f 39//6 40//6 45//6
f 29//20 42//20 37//20
f 46//4 32//4 40//4
f 41//6 44//6 40//6
f 44//19 41//19 42//19
f 47//13 43//13 48//13
f 48//14 43//14 47//14
f 50//1 44//1 48//1
f 45//2 49//2 51//2
f 51//11 49//11 45//11
f 45//6 40//6 44//6
f 48//17 52//17 47//17
f 47//18 52//18 48//18
f 51//1 44//1 50//1
f 52//17 48//17 50//17
f 50//18 48//18 52//18
f 52//6 51//6 49//6
f 49//5 51//5 52//5
f 45//1 44//1 51//1
f 51//6 52//6 50//6
f 50//5 52//5 51//5
usemtl material_3_0
f 5//1 18//1 10//1
f 5//1 11//1 19//1
f 8//21 24//21 15//21
f 9//22 24//22 16//22
f 16//4 25//4 9//4
f 17//4 9//4 25//4
f 26//21 9//21 17//21
f 24//1 10//1 18//1
f 19//1 18//1 5//1
f 12//1 18//1 19//1
f 20//1 29//1 12//1
f 14//1 34//1 23//1
f 23//21 25//21 8//21
f 34//1 14//1 22//1
f 8//21 16//21 24//21
f 24//21 35//21 15//21
f 24//22 9//22 36//22
f 8//21 25//21 16//21
f 33//4 17//4 25//4
f 9//21 26//21 36//21
f 17//23 37//23 26//23
f 15//21 35//21 27//21
f 35//21 24//21 18//21
f 29//1 18//1 12//1
f 41//1 22//1 32//1
f 37//23 17//23 33//23
f 25//21 23//21 34//21
f 34//1 22//1 41//1
f 42//4 33//4 25//4
f 35//4 43//4 27//4
f 18//23 44//23 35//23
f 29//23 44//23 18//23
f 41//1 32//1 40//1
f 42//24 37//24 33//24
f 25//23 34//23 42//23
f 41//23 42//23 34//23
f 43//4 35//4 48//4
f 48//4 35//4 44//4
f 42//23 44//23 29//23
f 45//5 40//5 39//5
f 37//24 42//24 29//24
f 40//1 32//1 46//1
f 40//5 44//5 41//5
f 42//23 41//23 44//23
f 48//4 44//4 50//4
f 44//5 40//5 45//5
f 50//4 44//4 51//4
f 51//4 44//4 45//4
