mtllib new-6.mtl
v 0.138251 -0.000150 0.093106
v 0.111849 0.015479 0.054359
v 0.138251 0.015479 0.093106
v 0.111849 -0.000150 0.054359
v -0.583538 0.015479 -0.198410
v 0.175529 -0.000150 0.121546
v -0.583538 -0.000150 -0.198410
v 0.113413 -0.000150 -0.011900
v 0.175529 0.015479 0.121546
v 0.113413 0.015479 -0.011900
v 0.446386 0.015479 0.304830
v 0.446386 -0.000150 0.304830
v -0.914051 0.015479 -0.279162
v -0.915972 -0.000150 -0.271981
v -0.915972 0.015479 -0.271981
v -0.914051 -0.000150 -0.279162
vn 0.647481 -0.451852 -0.613676
vn 0.849057 0.464952 -0.250841
vn 0.647481 0.451852 -0.613676
vn 0.849057 -0.464952 -0.250841
vn -0.647481 -0.451852 0.613676
vn -0.849057 -0.464952 0.250841
vn -0.647481 0.451852 0.613676
vn -0.849057 0.464952 0.250841
vn 0.221763 0.447235 -0.866488
vn -0.221763 -0.447235 0.866488
vn 0.481640 -0.448437 -0.752946
vn -0.481640 0.448437 0.752946
vn 0.221763 -0.447235 -0.866488
vn -0.221763 0.447235 0.866488
vn 0.675328 -0.536727 -0.505823
vn -0.675328 0.536727 0.505823
vn 0.481640 0.448437 -0.752946
vn -0.481640 -0.448437 0.752946
vn 0.675328 0.536727 -0.505823
vn -0.675328 -0.536727 0.505823
vn -0.742259 0.541185 0.395183
vn 0.742259 -0.541185 -0.395183
vn -0.742259 -0.541185 0.395183
vn 0.742259 0.541185 -0.395183
vn -0.417664 0.573191 -0.704989
vn 0.417664 -0.573191 0.704989
vn -0.748991 -0.552397 0.365881
vn 0.748991 0.552397 -0.365881
vn -0.748991 0.552397 0.365881
vn 0.748991 -0.552397 -0.365881
vn -0.417664 -0.573191 -0.704989
vn 0.417664 0.573191 0.704989
vt 0.627272 0.218966
vt 0.612999 0.112847
vt 0.607248 0.142449
vt 13.268423 -6.455162
vt 13.248956 -6.367557
vt 13.272402 -6.420500
vt -3.807251 2.005287
vt -3.373713 2.241755
vt -3.393645 2.165588
vt 0.651715 0.263559
vt 0.191746 -0.018586
vt 14.187021 -8.710582
vt 14.575309 -9.362548
vt 14.161610 -8.740820
vt 0.598444 -0.018586
vt 0.615810 0.133241
vt -3.402168 2.174754
vt -3.410932 2.014454
vt -3.349381 2.286145
vt -3.402409 2.005287
vt 14.135345 -8.733958
vt 14.210606 -8.583050
vt 0.607006 -0.027794
vt -3.175974 2.552522
vt 0.191746 -0.057661
vt 0.598444 -0.057661
vt -3.402409 2.044184
vt 0.825917 0.531158
vt 13.953058 -8.640041
vt -3.807251 2.044184
vt -3.998122 2.023789
vt 0.000000 0.018586
vt 14.743633 -9.763391
vt -0.000192 -0.039065
vt 0.191553 -0.057651
vt 14.571330 -9.397211
vt 14.741465 -9.781387
vt -3.998122 2.042290
vt 0.000000 0.000000
vt 14.745444 -9.746724
vt 0.824696 0.569855
vt -3.174759 2.514001
vt -3.996907 2.003769
vt 9.644010 -22.471479
vt 9.648182 -22.432585
vt 9.648182 -22.471479
vt -3.989352 2.042290
vt -0.001221 0.057284
vt 9.644010 -22.432585
vt -3.989352 2.023789
usemtl material-0
f 2/2/2 1/1/1 4/3/4
f 4/6/8 1/5/7 2/4/6
f 5/7/9 3/8/3 2/9/2
f 2/9/6 3/8/5 5/7/10
f 1/1/1 7/11/13 4/3/4
f 4/12/8 7/13/14 1/14/7
f 8/15/15 2/16/2 4/3/4
f 4/17/8 2/9/6 8/18/16
f 5/7/9 9/19/17 3/8/3
f 3/8/5 9/19/18 5/7/10
f 5/7/9 2/9/2 10/20/19
f 10/20/20 2/9/6 5/7/10
f 6/10/11 7/11/13 1/1/1
f 1/14/7 7/13/14 6/21/12
f 4/3/4 7/11/13 8/15/15
f 8/22/16 7/13/14 4/12/8
f 2/16/2 8/15/15 10/23/19
f 10/20/20 8/18/16 2/9/6
f 5/7/9 11/24/21 9/19/17
f 9/19/18 11/24/22 5/7/10
f 8/15/15 5/25/9 10/26/19
f 10/20/20 5/7/10 8/27/16
f 12/28/23 7/11/13 6/10/11
f 6/21/12 7/13/14 12/29/24
f 5/25/9 8/15/15 7/11/13
f 7/30/14 8/27/16 5/7/10
f 13/31/25 11/24/21 5/7/9
f 5/7/10 11/24/22 13/31/26
f 14/32/27 7/11/13 12/28/23
f 12/29/24 7/13/14 14/33/28
f 7/11/13 13/34/25 5/35/9
f 5/36/10 13/37/26 7/13/14
f 11/24/21 13/31/25 15/38/29
f 15/38/30 13/31/26 11/24/22
f 7/11/13 14/32/27 16/39/31
f 16/40/32 14/33/28 7/13/14
f 11/41/21 14/32/27 12/28/23
f 12/42/24 14/43/28 11/24/22
f 13/34/25 7/11/13 16/39/31
f 16/40/32 7/13/14 13/37/26
f 13/44/25 14/45/27 15/46/29
f 15/38/30 14/47/28 13/31/26
f 14/32/27 11/41/21 15/48/29
f 15/38/30 11/24/22 14/43/28
f 14/45/27 13/44/25 16/49/31
f 16/50/32 13/31/26 14/47/28