mtllib new-1.mtl
v 0.446386 0.015479 0.304830
v 0.465666 0.015479 0.274981
v 0.446386 -0.000150 0.304830
v 0.465666 -0.000150 0.274981
v 0.438570 0.015479 0.345072
v 0.520367 -0.000150 0.244713
v 0.438570 -0.000150 0.345072
v 0.447871 0.015479 0.406892
v 0.520367 0.015479 0.244713
v 0.483404 -0.000150 0.293698
v 0.447871 -0.000150 0.406892
v 0.483404 0.015479 0.293698
v 0.582637 0.015479 0.239181
v 0.507325 -0.000150 0.273577
v 0.490948 0.015479 0.472092
v 0.459162 0.015479 0.384285
v 0.507325 0.015479 0.273577
v 0.582637 -0.000150 0.239181
v 0.568737 0.015479 0.261880
v 0.459162 -0.000150 0.384285
v 0.568737 -0.000150 0.261880
v 0.490948 -0.000150 0.472092
v 0.643029 -0.000150 0.255342
v 0.629128 0.015479 0.278041
v 0.560716 0.015479 0.507294
v 0.505575 0.015479 0.447154
v 0.643029 0.015479 0.255342
v 0.629128 -0.000150 0.278041
v 0.505575 -0.000150 0.447154
v 0.560716 -0.000150 0.507294
v 0.697967 0.015479 0.310916
v 0.687142 -0.000150 0.330397
v 0.687142 0.015479 0.330397
v 0.623070 0.015479 0.511794
v 0.574123 0.015479 0.484674
v 0.697967 -0.000150 0.310916
v 0.574123 -0.000150 0.484674
v 0.623070 -0.000150 0.511794
v 0.724685 0.015479 0.367436
v 0.712139 0.015479 0.387698
v 0.712139 -0.000150 0.387698
v 0.681731 0.015479 0.490181
v 0.636638 0.015479 0.484254
v 0.636638 -0.000150 0.484254
v 0.724685 -0.000150 0.367436
v 0.681731 -0.000150 0.490181
v 0.728646 0.015479 0.414137
v 0.716665 0.015479 0.458907
v 0.695977 -0.000150 0.448089
v 0.716665 -0.000150 0.458907
v 0.695977 0.015479 0.448089
v 0.728646 -0.000150 0.414137
vn -0.742259 0.541185 0.395183
vn 0.742259 -0.541185 -0.395183
vn -0.008237 0.494209 -0.869304
vn 0.008237 -0.494209 0.869304
vn -0.742259 -0.541185 0.395183
vn 0.742259 0.541185 -0.395183
vn -0.008237 -0.494209 -0.869304
vn 0.008237 0.494209 0.869304
vn -0.891584 0.452459 -0.018947
vn 0.891584 -0.452459 0.018947
vn -0.260599 -0.455073 -0.851468
vn 0.260599 0.455073 0.851468
vn -0.891584 -0.452459 -0.018947
vn 0.891584 0.452459 0.018947
vn -0.830957 0.455765 0.319043
vn 0.830957 -0.455765 -0.319043
vn -0.260599 0.455073 -0.851468
vn 0.260599 -0.455073 0.851468
vn 0.747341 -0.464274 0.475322
vn -0.747341 0.464274 -0.475322
vn -0.830957 -0.455765 0.319043
vn 0.830957 0.455765 -0.319043
vn 0.747341 0.464274 0.475322
vn -0.747341 -0.464274 -0.475322
vn 0.076973 0.452740 -0.888314
vn -0.076973 -0.452740 0.888314
vn 0.381423 -0.459101 0.802336
vn -0.381423 0.459101 -0.802336
vn -0.590381 0.459510 0.663552
vn 0.590381 -0.459510 -0.663552
vn 0.859106 0.485228 -0.162757
vn -0.859106 -0.485228 0.162757
vn 0.381423 0.459101 0.802336
vn -0.381423 -0.459101 -0.802336
vn 0.076973 -0.452740 -0.888314
vn -0.076973 0.452740 0.888314
vn -0.032585 0.456381 0.889188
vn 0.032585 -0.456381 -0.889188
vn 0.859106 -0.485228 -0.162757
vn -0.859106 0.485228 0.162757
vn -0.032585 -0.456381 0.889188
vn 0.032585 0.456381 -0.889188
vn -0.590381 -0.459510 0.663552
vn 0.590381 0.459510 -0.663552
vn 0.446050 -0.459998 -0.767751
vn -0.446050 0.459998 0.767751
vn -0.424651 0.457356 0.781343
vn 0.424651 -0.457356 -0.781343
vn -0.237334 0.454273 0.858667
vn 0.237334 -0.454273 -0.858667
vn 0.585474 0.455745 -0.670460
vn -0.585474 -0.455745 0.670460
vn 0.446050 0.459998 -0.767751
vn -0.446050 -0.459998 0.767751
vn -0.424651 -0.457356 0.781343
vn 0.424651 0.457356 -0.781343
vn 0.585474 -0.455745 -0.670460
vn -0.585474 0.455745 0.670460
vn -0.237334 -0.454273 0.858667
vn 0.237334 0.454273 -0.858667
vn 0.730675 0.452363 -0.511353
vn -0.730675 -0.452363 0.511353
vn -0.722520 -0.455400 0.520170
vn 0.722520 0.455400 -0.520170
vn -0.722520 0.455400 0.520170
vn 0.722520 -0.455400 -0.520170
vn 0.124655 0.455391 0.881521
vn -0.124655 -0.455391 -0.881521
vn 0.217268 0.458933 -0.861496
vn -0.217268 -0.458933 0.861496
vn 0.730675 -0.452363 -0.511353
vn -0.730675 0.452363 0.511353
vn 0.217268 -0.458933 -0.861496
vn -0.217268 0.458933 0.861496
vn 0.124655 -0.455391 0.881521
vn -0.124655 0.455391 -0.881521
vn 0.860850 0.452961 -0.231869
vn -0.860850 -0.452961 0.231869
vn -0.881206 0.468081 0.066155
vn 0.881206 -0.468081 -0.066155
vn -0.881206 -0.468081 0.066155
vn 0.881206 0.468081 -0.066155
vn 0.459402 0.453636 0.763652
vn -0.459402 -0.453636 -0.763652
vn -0.242773 0.460543 -0.853792
vn 0.242773 -0.460543 0.853792
vn -0.242773 -0.460543 -0.853792
vn 0.242773 0.460543 0.853792
vn 0.860850 -0.452961 -0.231869
vn -0.860850 0.452961 0.231869
vn 0.459402 -0.453636 0.763652
vn -0.459402 0.453636 -0.763652
vn 0.888222 0.452614 0.078753
vn -0.888222 -0.452614 -0.078753
vn 0.755352 0.462554 0.464206
vn -0.755352 -0.462554 -0.464206
vn -0.704878 -0.474207 -0.527517
vn 0.704878 0.474207 0.527517
vn 0.755352 -0.462554 0.464206
vn -0.755352 0.462554 -0.464206
vn -0.704878 0.474207 -0.527517
vn 0.704878 -0.474207 0.527517
vn 0.888222 -0.452614 0.078753
vn -0.888222 0.452614 -0.078753
vt -3.175974 2.552522
vt -3.169853 2.468358
vt 0.825917 0.531158
vt 13.953058 -8.640041
vt 0.832066 0.446607
vt 13.955781 -8.552435
vt -3.174373 2.654297
vt 0.825953 0.418471
vt 0.857442 0.338153
vt -3.163767 2.496366
vt -3.138507 2.388407
vt 0.827525 0.633399
vt 13.941653 -8.728642
vt 0.817128 0.533877
vt 0.818737 0.636119
vt -3.165624 2.651590
vt -3.160364 2.796938
vt 0.851329 0.310016
vt -3.144593 2.360398
vt 0.844453 0.480348
vt 13.943593 -8.406543
vt 13.941387 -8.558952
vt -3.167225 2.549815
vt 0.841599 0.776694
vt 13.915071 -8.830167
vt 0.819448 0.649003
vt -3.166333 2.638764
vt -3.152324 2.781405
vt 0.833522 0.792298
vt -3.157523 2.501945
vt 0.887524 0.247840
vt 0.854421 0.301448
vt -3.141585 2.396935
vt -3.111641 2.307035
vt 0.854547 0.416293
vt 13.938576 -8.482164
vt 0.868712 0.935555
vt 0.835753 0.805929
vt -3.127556 2.925972
vt -3.154545 2.767836
vt -3.157523 2.735323
vt -3.147475 2.438182
vt 0.890545 0.284545
vt -3.108633 2.343572
vt -3.115883 2.370549
vt 0.844453 0.714796
vt 13.918543 -8.769191
vt 0.886284 0.348350
vt 13.916736 -8.360408
vt 0.851674 0.502733
vt -3.164711 2.479662
vt -3.154663 2.415899
vt 0.874557 0.906320
vt -3.121737 2.896870
vt 0.853263 0.714796
vt 0.853263 0.480348
vt -3.166293 2.501945
vt 0.861768 0.438678
vt 0.890545 0.245470
vt 0.925786 0.284545
vt -3.111641 2.345931
vt -3.076561 2.345931
vt 13.919132 -8.295023
vt -3.080803 2.370549
vt -3.166293 2.735323
vt 13.872886 -8.883237
vt 0.858377 0.451483
vt -3.151287 2.403153
vt -3.119695 2.335520
vt 0.915878 0.984495
vt 0.872757 0.944570
vt -3.084631 2.965715
vt -3.125764 2.887897
vt -3.123245 2.856607
vt 0.890113 0.383540
vt 0.925786 0.245470
vt -3.076561 2.307035
vt 0.921524 0.348350
vt 13.887530 -8.227479
vt 13.885135 -8.292864
vt 0.921524 0.387425
vt 0.886284 0.387425
vt -3.115883 2.331653
vt 0.884382 0.806091
vt 0.849947 0.684251
vt -3.162992 2.765729
vt 0.878888 0.836637
vt 13.875792 -8.812449
vt 0.917679 0.946245
vt -3.082839 2.927640
vt 0.968252 0.349537
vt 0.930237 0.250824
vt -3.080992 2.340601
vt -3.038720 2.405297
vt 0.960745 0.437302
vt 13.841297 -8.297459
vt -3.080803 2.331653
vt -3.041762 2.459095
vt -3.128714 2.887013
vt 13.830327 -8.836392
vt 0.953948 0.955189
vt 0.919338 0.984621
vt -3.050179 2.936418
vt -3.086283 2.927515
vt -3.080645 2.902710
vt 0.963801 0.383258
vt -3.043151 2.438864
vt 13.843823 -8.243138
vt 0.956734 0.472092
vt -3.037769 2.424464
vt -3.076810 2.335918
vt 0.917513 0.383140
vt 0.880977 0.798676
vt 0.921683 0.882951
vt -3.125324 2.894395
vt -3.082724 2.940497
vt 13.832903 -8.771957
vt 0.952289 0.916813
vt -3.051830 2.898217
vt 0.923772 0.844990
vt 0.993307 0.477227
vt 0.970522 0.357993
vt -3.045410 2.430446
vt -3.016038 2.523987
vt -3.019900 2.580772
vt 0.982707 0.559537
vt 13.809693 -8.364979
vt 0.953855 0.461653
vt -3.034903 2.434855
vt -3.013041 2.556532
vt 13.802158 -8.743664
vt 0.986162 0.858628
vt 0.957368 0.948740
vt -3.021516 2.846717
vt -3.055235 2.904637
vt -3.046819 2.861480
vt 0.919349 0.845273
vt 0.955664 0.841532
vt -3.078321 2.940216
vt -3.044495 2.898986
vt 0.986586 0.502492
vt -3.022729 2.549136
vt 0.975817 0.583889
vt 13.811772 -8.306389
vt 13.806466 -8.669686
vt 0.981083 0.826702
vt -3.026572 2.814936
vt 0.953329 0.803854
vt 1.003836 0.599467
vt 0.994874 0.489236
vt -3.024288 2.537182
vt -3.007117 2.633714
vt -3.007117 2.749057
vt 0.982707 0.715836
vt 0.973897 0.559537
vt -3.011130 2.580772
vt -3.011130 2.736358
vt 0.995549 0.728593
vt 13.781705 -8.491965
vt 13.785117 -8.607668
vt 0.988456 0.848088
vt -3.028856 2.825429
vt -3.014457 2.727768
vt -3.019900 2.736358
vt 0.976333 0.688861
vt 0.949290 0.814557
vt 10.399739 0.022512
vt 10.403718 0.057175
vt 10.364990 0.100978
vt 0.995549 0.612722
vt -3.015367 2.646909
vt 0.973897 0.715836
vt 13.794464 -8.505139
vt 13.792995 -8.388059
vt 1.002922 0.749979
vt 10.368969 0.135641
vt 1.004359 0.728593
vt 1.004359 0.612722
vt -3.015887 2.633714
vt -3.015887 2.749057
usemtl material-0
f 2/2/3 1/1/1 5/7/9
f 5/7/10 1/1/2 2/2/4
f 2/8/3 6/9/11 4/5/7
f 4/10/8 6/11/12 2/2/4
f 3/3/5 4/5/7 7/12/13
f 7/13/14 4/6/8 3/4/6
f 1/14/1 7/12/13 5/15/9
f 5/7/10 7/16/14 1/1/2
f 2/2/3 5/7/9 8/17/15
f 8/17/16 5/7/10 2/2/4
f 6/9/11 2/8/3 9/18/17
f 9/19/18 2/2/4 6/11/12
f 10/20/19 4/5/7 6/9/11
f 6/21/12 4/6/8 10/22/20
f 7/12/13 1/14/1 3/3/5
f 3/23/6 1/1/2 7/16/14
f 7/12/13 4/5/7 11/24/21
f 11/25/22 4/6/8 7/13/14
f 11/24/21 5/26/9 7/12/13
f 7/27/14 5/7/10 11/28/22
f 5/26/9 11/24/21 8/29/15
f 8/17/16 11/28/22 5/7/10
f 2/2/3 8/17/15 12/30/23
f 12/30/24 8/17/16 2/2/4
f 2/2/3 12/30/23 9/19/17
f 9/19/18 12/30/24 2/2/4
f 13/31/25 6/9/11 9/32/17
f 9/19/18 6/33/12 13/34/26
f 11/24/21 4/5/7 10/20/19
f 10/22/20 4/6/8 11/25/22
f 10/20/19 6/9/11 14/35/27
f 14/36/28 6/21/12 10/22/20
f 11/24/21 15/37/29 8/38/15
f 8/17/16 15/39/30 11/40/22
f 12/30/23 8/17/15 16/41/31
f 16/41/32 8/17/16 12/30/24
f 9/19/17 12/30/23 17/42/33
f 17/42/34 12/30/24 9/19/18
f 6/9/11 13/31/25 18/43/35
f 18/44/36 13/34/26 6/33/12
f 9/19/17 19/45/37 13/34/25
f 13/34/26 19/45/38 9/19/18
f 11/24/21 10/20/19 20/46/39
f 20/47/40 10/22/20 11/25/22
f 14/35/27 6/9/11 21/48/41
f 21/49/42 6/21/12 14/36/28
f 14/35/27 12/50/23 10/20/19
f 10/51/20 12/30/24 14/52/28
f 15/37/29 11/24/21 22/53/43
f 22/54/44 11/40/22 15/39/30
f 15/39/29 16/41/31 8/17/15
f 8/17/16 16/41/32 15/39/30
f 16/55/31 10/20/19 12/56/23
f 12/30/24 10/57/20 16/41/32
f 12/50/23 14/35/27 17/58/33
f 17/42/34 14/52/28 12/30/24
f 9/19/17 17/42/33 19/45/37
f 19/45/38 17/42/34 9/19/18
f 13/59/25 23/60/45 18/43/35
f 18/61/36 23/62/46 13/34/26
f 21/48/41 6/9/11 18/43/35
f 18/63/36 6/21/12 21/49/42
f 13/34/25 19/45/37 24/64/47
f 24/64/48 19/45/38 13/34/26
f 10/20/19 16/55/31 20/46/39
f 20/65/40 16/41/32 10/57/20
f 20/46/39 22/53/43 11/24/21
f 11/25/22 22/66/44 20/47/40
f 21/48/41 17/67/33 14/35/27
f 14/68/28 17/42/34 21/69/42
f 22/53/43 25/70/49 15/71/29
f 15/39/30 25/72/50 22/73/44
f 16/41/31 15/39/29 26/74/51
f 26/74/52 15/39/30 16/41/32
f 17/67/33 21/48/41 19/75/37
f 19/45/38 21/69/42 17/42/34
f 23/60/45 13/59/25 27/76/53
f 27/77/54 13/34/26 23/62/46
f 28/78/55 18/43/35 23/60/45
f 23/79/46 18/63/36 28/80/56
f 21/48/41 18/43/35 28/78/55
f 28/80/56 18/63/36 21/49/42
f 21/48/41 24/81/47 19/82/37
f 19/45/38 24/64/48 21/83/42
f 13/34/25 24/64/47 27/77/53
f 27/77/54 24/64/48 13/34/26
f 26/84/51 20/46/39 16/85/31
f 16/41/32 20/86/40 26/74/52
f 22/53/43 20/46/39 29/87/57
f 29/88/58 20/47/40 22/66/44
f 25/70/49 22/53/43 30/89/59
f 30/90/60 22/73/44 25/72/50
f 26/74/51 15/39/29 25/72/49
f 25/72/50 15/39/30 26/74/52
f 31/91/61 23/60/45 27/92/53
f 27/77/54 23/93/46 31/94/62
f 28/78/55 23/60/45 32/95/63
f 32/96/64 23/79/46 28/80/56
f 24/81/47 21/48/41 28/78/55
f 28/97/56 21/83/42 24/64/48
f 27/77/53 24/64/47 33/98/65
f 33/98/66 24/64/48 27/77/54
f 20/46/39 26/84/51 29/87/57
f 29/99/58 26/74/52 20/86/40
f 22/53/43 29/87/57 30/89/59
f 30/100/60 29/88/58 22/66/44
f 30/89/59 34/101/67 25/102/49
f 25/72/50 34/103/68 30/104/60
f 26/74/51 25/72/49 35/105/69
f 35/105/70 25/72/50 26/74/52
f 23/60/45 31/91/61 36/106/71
f 36/107/72 31/94/62 23/93/46
f 27/77/53 33/98/65 31/94/61
f 31/94/62 33/98/66 27/77/54
f 32/95/63 23/60/45 36/106/71
f 36/108/72 23/79/46 32/96/64
f 33/109/65 28/78/55 32/95/63
f 32/110/64 28/111/56 33/98/66
f 28/78/55 33/109/65 24/112/47
f 24/64/48 33/98/66 28/111/56
f 26/113/51 37/114/73 29/87/57
f 29/115/58 37/116/74 26/74/52
f 30/89/59 29/87/57 37/114/73
f 37/117/74 29/88/58 30/100/60
f 34/101/67 30/89/59 38/118/75
f 38/119/76 30/104/60 34/103/68
f 35/105/69 25/72/49 34/103/67
f 34/103/68 25/72/50 35/105/70
f 37/114/73 26/113/51 35/120/69
f 35/105/70 26/74/52 37/116/74
f 39/121/77 36/106/71 31/122/61
f 31/94/62 36/123/72 39/124/78
f 31/94/61 33/98/65 40/125/79
f 40/125/80 33/98/66 31/94/62
f 32/95/63 36/106/71 41/126/81
f 41/127/82 36/108/72 32/96/64
f 41/126/81 33/128/65 32/95/63
f 32/129/64 33/98/66 41/130/82
f 30/89/59 37/114/73 38/118/75
f 38/131/76 37/117/74 30/100/60
f 38/118/75 42/132/83 34/133/67
f 34/103/68 42/134/84 38/135/76
f 35/105/69 34/103/67 43/136/85
f 43/136/86 34/103/68 35/105/70
f 35/137/69 44/138/87 37/114/73
f 37/139/74 44/140/88 35/105/70
f 36/106/71 39/121/77 45/141/89
f 45/142/90 39/124/78 36/123/72
f 31/94/61 40/125/79 39/124/77
f 39/124/78 40/125/80 31/94/62
f 33/128/65 41/126/81 40/143/79
f 40/125/80 41/130/82 33/98/66
f 41/126/81 36/106/71 45/141/89
f 45/144/90 36/108/72 41/127/82
f 38/118/75 37/114/73 44/138/87
f 44/145/88 37/117/74 38/131/76
f 42/132/83 38/118/75 46/146/91
f 46/147/92 38/135/76 42/134/84
f 43/136/85 34/103/67 42/134/83
f 42/134/84 34/103/68 43/136/86
f 44/138/87 35/137/69 43/148/85
f 43/136/86 35/105/70 44/140/88
f 47/149/93 45/141/89 39/150/77
f 39/124/78 45/151/90 47/152/94
f 40/125/79 48/153/95 39/124/77
f 39/124/78 48/153/96 40/125/80
f 49/154/97 40/155/79 41/126/81
f 41/156/82 40/125/80 49/157/98
f 50/158/99 41/126/81 45/141/89
f 45/144/90 41/127/82 50/159/100
f 38/118/75 44/138/87 46/146/91
f 46/160/92 44/145/88 38/131/76
f 50/158/99 42/161/83 46/146/91
f 46/162/92 42/134/84 50/163/100
f 43/136/85 42/134/83 51/164/101
f 51/164/102 42/134/84 43/136/86
f 51/165/101 44/138/87 43/166/85
f 43/167/86 44/168/88 51/169/102
f 45/141/89 47/149/93 52/170/103
f 52/171/104 47/152/94 45/151/90
f 39/124/77 48/153/95 47/152/93
f 47/152/94 48/153/96 39/124/78
f 51/164/101 48/153/95 40/125/79
f 40/125/80 48/153/96 51/164/102
f 40/155/79 49/154/97 51/172/101
f 51/164/102 49/157/98 40/125/80
f 50/158/99 49/154/97 41/126/81
f 41/127/82 49/173/98 50/159/100
f 50/158/99 45/141/89 52/170/103
f 52/174/104 45/144/90 50/159/100
f 46/146/91 44/138/87 49/154/97
f 49/173/98 44/145/88 46/160/92
f 42/161/83 50/158/99 48/175/95
f 48/153/96 50/163/100 42/134/84
f 46/146/91 49/154/97 50/158/99
f 50/159/100 49/173/98 46/160/92
f 51/164/101 42/134/83 48/153/95
f 48/153/96 42/134/84 51/164/102
f 44/138/87 51/165/101 49/154/97
f 49/176/98 51/169/102 44/168/88
f 48/177/95 52/170/103 47/178/93
f 47/152/94 52/179/104 48/153/96
f 52/170/103 48/177/95 50/158/99
f 50/180/100 48/153/96 52/179/104