mtllib new-4.mtl
v 0.517089 -0.015779 -0.280873
v 0.534923 -0.015779 -0.240238
v 0.517089 -0.000150 -0.280873
v 0.267602 -0.015779 -0.127324
v -0.001217 -0.000150 -0.061943
v 0.534923 -0.000150 -0.240238
v -0.001217 -0.015779 -0.061943
v 0.267602 -0.000150 -0.127324
v 0.123104 -0.015779 -0.034175
v 0.123104 -0.000150 -0.034175
vn -0.743891 -0.544077 -0.388080
vn -0.165948 -0.516790 0.839875
vn -0.743891 0.544077 -0.388080
vn 0.417569 -0.448554 0.790212
vn -0.321492 0.447396 -0.834554
vn -0.165948 0.516790 0.839875
vn -0.321492 -0.447396 -0.834554
vn 0.417569 0.448554 0.790212
vn 0.719702 -0.474787 0.506563
vn 0.719702 0.474787 0.506563
vn 0.743891 0.544077 0.388080
vn 0.165948 0.516790 -0.839875
vn 0.743891 -0.544077 0.388080
vn -0.417569 0.448554 -0.790212
vn 0.321492 -0.447396 0.834554
vn 0.165948 -0.516790 -0.839875
vn 0.321492 0.447396 0.834554
vn -0.417569 -0.448554 -0.790212
vn -0.719702 0.474787 -0.506563
vn -0.719702 -0.474787 -0.506563
vt 12.850517 -26.035269
vt 12.848807 -26.146236
vt 0.781209 0.612970
vt 12.992376 -26.192722
vt 0.779744 0.651464
vt 0.507306 0.346137
vt 0.785669 0.503976
vt 13.128882 -26.125401
vt 0.645866 0.327861
vt 0.787134 0.465482
vt 0.505841 0.384631
vt 0.644401 0.366355
vt 13.075226 -26.293901
vt 0.564730 0.213176
vt 0.567482 0.176531
vt 0.647153 0.329711
vt 9.672271 -28.018547
vt 9.678836 -27.912016
vt 9.835297 -28.112085
vt 9.674701 -27.981173
vt 9.978062 -28.369087
vt -3.207049 1.185148
vt -3.222610 1.098931
vt 9.975633 -28.406462
vt -3.212434 1.154448
vt -3.340957 1.597893
vt -3.335573 1.628593
vt -3.471804 1.958724
vt 9.931207 -28.158104
vt -3.400387 1.945500
vt -3.342068 1.602460
vt -3.406882 1.919367
usemtl material-0
f 4/4/4 1/1/1 2/2/2
f 1/5/1 5/6/5 3/3/3
f 4/4/4 7/8/7 1/1/1
f 6/7/6 4/9/4 2/10/2
f 5/6/5 1/5/1 7/11/7
f 5/6/5 8/12/8 3/3/3
f 3/3/3 8/12/8 6/7/6
f 9/13/9 7/8/7 4/4/4
f 4/9/4 6/7/6 8/12/8
f 5/6/5 10/14/10 8/12/8
f 8/12/8 9/15/9 4/16/4
f 9/15/9 8/12/8 10/14/10
usemtl material-1
f 2/18/12 1/17/11 4/19/14
f 3/20/13 5/21/15 1/17/11
f 1/17/11 7/24/17 4/19/14
f 2/25/12 4/26/14 6/22/16
f 7/24/17 1/17/11 5/21/15
f 3/23/13 8/27/18 5/28/15
f 6/22/16 8/27/18 3/23/13
f 4/19/14 7/24/17 9/29/19
f 8/27/18 6/22/16 4/26/14
f 8/27/18 10/30/20 5/28/15
f 4/31/14 9/32/19 8/27/18
f 10/30/20 8/27/18 9/32/19