mtllib new-5.mtl
v -0.001217 -0.000150 -0.061943
v -0.001217 -0.015779 -0.061943
v 0.123104 -0.015779 -0.034175
v -0.975138 -0.000150 0.277920
v 0.123104 -0.000150 -0.034175
v 0.101855 -0.015779 0.057232
v -0.975138 -0.015779 0.277920
v 0.101855 -0.000150 0.057232
v -0.973464 -0.015779 0.285798
v -0.973464 -0.000150 0.285798
vn -0.321492 0.447396 -0.834554
vn -0.321492 -0.447396 -0.834554
vn 0.719702 -0.474787 0.506563
vn -0.725123 0.554534 -0.408276
vn 0.719702 0.474787 0.506563
vn 0.602529 -0.509780 0.614071
vn -0.725123 -0.554534 -0.408276
vn 0.602529 0.509780 0.614071
vn -0.444696 -0.577350 0.684772
vn -0.444696 0.577350 0.684772
vn 0.321492 -0.447396 0.834554
vn 0.321492 0.447396 0.834554
vn -0.719702 0.474787 -0.506563
vn 0.725123 -0.554534 0.408276
vn -0.719702 -0.474787 -0.506563
vn -0.602529 0.509780 -0.614071
vn 0.725123 0.554534 0.408276
vn -0.602529 -0.509780 -0.614071
vn 0.444696 0.577350 -0.684772
vn 0.444696 -0.577350 -0.684772
vt 0.507306 0.346137
vt 13.128882 -26.125401
vt 13.075226 -26.293901
vt 0.506330 0.385026
vt 0.000000 0.020202
vt 0.564730 0.213176
vt 13.100103 -26.492807
vt -0.000976 0.059091
vt 0.545004 0.000000
vt 13.640765 -26.145441
vt 0.571747 0.196555
vt 0.552021 -0.016621
vt 13.640262 -26.125401
vt -0.007748 0.000000
vt -0.007748 0.020202
vt 0.000000 0.000000
vt 0.000000 -0.039201
vt 0.545004 -0.039201
vt 9.975633 -28.406462
vt -3.471804 1.958724
vt 9.931207 -28.158104
vt 9.978596 -28.369850
vt 10.523383 -29.237114
vt -3.400387 1.945500
vt 9.972741 -28.014536
vt 10.520420 -29.273724
vt -3.398645 2.178923
vt -3.950425 3.402384
vt 10.522470 -29.255859
vt -3.407411 2.180209
vt -3.409152 1.946786
vt -3.942610 3.384736
vt -3.940559 3.402599
vt -3.948375 3.420247
vt 9.968762 -28.049198
vt 10.518491 -29.290524
usemtl material-0
f 2/4/2 4/5/4 1/1/1
f 6/7/6 2/2/2 3/3/3
f 4/5/4 2/4/2 7/8/7
f 4/5/4 8/9/8 1/1/1
f 1/1/1 8/9/8 5/6/5
f 9/10/9 2/2/2 6/7/6
f 3/11/3 8/9/8 6/12/6
f 2/2/2 9/10/9 7/13/7
f 9/14/9 4/5/4 7/15/7
f 8/9/8 4/5/4 10/16/10
f 8/9/8 3/11/3 5/6/5
f 8/9/8 9/17/9 6/18/6
f 4/5/4 9/14/9 10/16/10
f 9/17/9 8/9/8 10/16/10
usemtl material-1
f 1/22/11 4/23/14 2/19/12
f 3/21/13 2/19/12 6/25/16
f 7/26/17 2/19/12 4/23/14
f 1/20/11 8/27/18 4/28/14
f 5/24/15 8/27/18 1/20/11
f 6/25/16 2/19/12 9/29/19
f 6/30/16 8/27/18 3/31/13
f 7/26/17 9/29/19 2/19/12
f 7/32/17 4/28/14 9/33/19
f 10/34/20 4/28/14 8/27/18
f 5/24/15 3/31/13 8/27/18
f 6/25/16 9/29/19 8/35/18
f 10/34/20 9/33/19 4/28/14
f 10/36/20 8/35/18 9/29/19