# SSTK version 0.8.0
# 3
mtllib original-3.mtl
o 3dw.9b9a4bb5550f00ea586350d6e78ecc7/Model/mesh1/mesh1-geometry/material_2/component_0#mesh1-geometry
v 0.059561 0.471499 0.113715
v 0.089214 0.289217 0.092799
v 0.059561 0.289217 0.113715
v 0.059561 0.289217 0.113715
v 0.089214 0.289217 0.092799
v 0.059561 0.471499 0.113715
v 0.089214 0.289217 0.092799
v 0.112443 0.471499 0.064920
v 0.112443 0.289217 0.064920
v 0.112443 0.289217 0.064920
v 0.112443 0.471499 0.064920
v 0.089214 0.289217 0.092799
v 0.112443 0.289217 0.064920
v 0.127665 0.471499 0.031980
v 0.127665 0.289217 0.031980
v 0.127665 0.289217 0.031980
v 0.127665 0.471499 0.031980
v 0.112443 0.289217 0.064920
v 0.127665 0.289217 0.031980
v 0.133843 0.471499 -0.003778
v 0.133843 0.289217 -0.003778
v 0.133843 0.289217 -0.003778
v 0.133843 0.471499 -0.003778
v 0.127665 0.289217 0.031980
v 0.089214 0.289217 0.092799
v 0.059561 0.471499 0.113715
v 0.089214 0.471499 0.092799
v 0.089214 0.471499 0.092799
v 0.059561 0.471499 0.113715
v 0.089214 0.289217 0.092799
v 0.059561 0.289217 0.113715
v 0.025505 0.471499 0.126244
v 0.059561 0.471499 0.113715
v 0.059561 0.471499 0.113715
v 0.025505 0.471499 0.126244
v 0.059561 0.289217 0.113715
v 0.112443 0.471499 0.064920
v 0.089214 0.289217 0.092799
v 0.089214 0.471499 0.092799
v 0.089214 0.471499 0.092799
v 0.089214 0.289217 0.092799
v 0.112443 0.471499 0.064920
v 0.127665 0.471499 0.031980
v 0.112443 0.289217 0.064920
v 0.112443 0.471499 0.064920
v 0.112443 0.471499 0.064920
v 0.112443 0.289217 0.064920
v 0.127665 0.471499 0.031980
v 0.133843 0.471499 -0.003778
v 0.127665 0.289217 0.031980
v 0.127665 0.471499 0.031980
v 0.127665 0.471499 0.031980
v 0.127665 0.289217 0.031980
v 0.133843 0.471499 -0.003778
v 0.133843 0.289217 -0.003778
v 0.130556 0.471499 -0.039917
v 0.130556 0.289217 -0.039917
v 0.130556 0.289217 -0.039917
v 0.130556 0.471499 -0.039917
v 0.133843 0.289217 -0.003778
v 0.130556 0.471499 -0.039917
v 0.133843 0.289217 -0.003778
v 0.133843 0.471499 -0.003778
v 0.133843 0.471499 -0.003778
v 0.133843 0.289217 -0.003778
v 0.130556 0.471499 -0.039917
v 0.130556 0.289217 -0.039917
v 0.118027 0.471499 -0.073973
v 0.118027 0.289217 -0.073973
v 0.118027 0.289217 -0.073973
v 0.118027 0.471499 -0.073973
v 0.130556 0.289217 -0.039917
v 0.025505 0.471499 0.126244
v 0.059561 0.289217 0.113715
v 0.025505 0.289217 0.126244
v 0.025505 0.289217 0.126244
v 0.059561 0.289217 0.113715
v 0.025505 0.471499 0.126244
v 0.118027 0.471499 -0.073973
v 0.130556 0.289217 -0.039917
v 0.130556 0.471499 -0.039917
v 0.130556 0.471499 -0.039917
v 0.130556 0.289217 -0.039917
v 0.118027 0.471499 -0.073973
v 0.097111 0.471499 -0.103626
v 0.118027 0.289217 -0.073973
v 0.118027 0.471499 -0.073973
v 0.118027 0.471499 -0.073973
v 0.118027 0.289217 -0.073973
v 0.097111 0.471499 -0.103626
v 0.118027 0.289217 -0.073973
v 0.097111 0.471499 -0.103626
v 0.097111 0.289217 -0.103626
v 0.097111 0.289217 -0.103626
v 0.097111 0.471499 -0.103626
v 0.118027 0.289217 -0.073973
v 0.097111 0.471499 -0.103626
v 0.069232 0.289217 -0.126855
v 0.097111 0.289217 -0.103626
v 0.097111 0.289217 -0.103626
v 0.069232 0.289217 -0.126855
v 0.097111 0.471499 -0.103626
v 0.069232 0.471499 -0.126855
v 0.036292 0.289217 -0.142077
v 0.069232 0.289217 -0.126855
v 0.069232 0.289217 -0.126855
v 0.036292 0.289217 -0.142077
v 0.069232 0.471499 -0.126855
v 0.036292 0.471499 -0.142077
v 0.000534 0.289217 -0.148254
v 0.036292 0.289217 -0.142077
v 0.036292 0.289217 -0.142077
v 0.000534 0.289217 -0.148254
v 0.036292 0.471499 -0.142077
v 0.000534 0.471499 -0.148254
v -0.035605 0.289217 -0.144967
v 0.000534 0.289217 -0.148254
v 0.000534 0.289217 -0.148254
v -0.035605 0.289217 -0.144967
v 0.000534 0.471499 -0.148254
v -0.035605 0.471499 -0.144967
v -0.069661 0.289217 -0.132438
v -0.035605 0.289217 -0.144967
v -0.035605 0.289217 -0.144967
v -0.069661 0.289217 -0.132438
v -0.035605 0.471499 -0.144967
v -0.069661 0.471499 -0.132438
v -0.099314 0.289217 -0.111522
v -0.069661 0.289217 -0.132438
v -0.069661 0.289217 -0.132438
v -0.099314 0.289217 -0.111522
v -0.069661 0.471499 -0.132438
v -0.099314 0.289217 -0.111522
v -0.122543 0.471499 -0.083643
v -0.122543 0.289217 -0.083643
v -0.122543 0.289217 -0.083643
v -0.122543 0.471499 -0.083643
v -0.099314 0.289217 -0.111522
v -0.122543 0.289217 -0.083643
v -0.137765 0.471499 -0.050703
v -0.137765 0.289217 -0.050703
v -0.137765 0.289217 -0.050703
v -0.137765 0.471499 -0.050703
v -0.122543 0.289217 -0.083643
v -0.137765 0.289217 -0.050703
v -0.143943 0.471499 -0.014945
v -0.143943 0.289217 -0.014945
v -0.143943 0.289217 -0.014945
v -0.143943 0.471499 -0.014945
v -0.137765 0.289217 -0.050703
v 0.025505 0.289217 0.126244
v -0.010633 0.471499 0.129531
v 0.025505 0.471499 0.126244
v 0.025505 0.471499 0.126244
v -0.010633 0.471499 0.129531
v 0.025505 0.289217 0.126244
v 0.069232 0.289217 -0.126855
v 0.097111 0.471499 -0.103626
v 0.069232 0.471499 -0.126855
v 0.069232 0.471499 -0.126855
v 0.097111 0.471499 -0.103626
v 0.069232 0.289217 -0.126855
v 0.036292 0.289217 -0.142077
v 0.069232 0.471499 -0.126855
v 0.036292 0.471499 -0.142077
v 0.036292 0.471499 -0.142077
v 0.069232 0.471499 -0.126855
v 0.036292 0.289217 -0.142077
v 0.000534 0.289217 -0.148254
v 0.036292 0.471499 -0.142077
v 0.000534 0.471499 -0.148254
v 0.000534 0.471499 -0.148254
v 0.036292 0.471499 -0.142077
v 0.000534 0.289217 -0.148254
v -0.035605 0.289217 -0.144967
v 0.000534 0.471499 -0.148254
v -0.035605 0.471499 -0.144967
v -0.035605 0.471499 -0.144967
v 0.000534 0.471499 -0.148254
v -0.035605 0.289217 -0.144967
v -0.069661 0.289217 -0.132438
v -0.035605 0.471499 -0.144967
v -0.069661 0.471499 -0.132438
v -0.069661 0.471499 -0.132438
v -0.035605 0.471499 -0.144967
v -0.069661 0.289217 -0.132438
v -0.099314 0.289217 -0.111522
v -0.069661 0.471499 -0.132438
v -0.099314 0.471499 -0.111522
v -0.099314 0.471499 -0.111522
v -0.069661 0.471499 -0.132438
v -0.099314 0.289217 -0.111522
v -0.122543 0.471499 -0.083643
v -0.099314 0.289217 -0.111522
v -0.099314 0.471499 -0.111522
v -0.099314 0.471499 -0.111522
v -0.099314 0.289217 -0.111522
v -0.122543 0.471499 -0.083643
v -0.137765 0.471499 -0.050703
v -0.122543 0.289217 -0.083643
v -0.122543 0.471499 -0.083643
v -0.122543 0.471499 -0.083643
v -0.122543 0.289217 -0.083643
v -0.137765 0.471499 -0.050703
v -0.143943 0.471499 -0.014945
v -0.137765 0.289217 -0.050703
v -0.137765 0.471499 -0.050703
v -0.137765 0.471499 -0.050703
v -0.137765 0.289217 -0.050703
v -0.143943 0.471499 -0.014945
v -0.143943 0.289217 -0.014945
v -0.140655 0.471499 0.021193
v -0.140655 0.289217 0.021193
v -0.140655 0.289217 0.021193
v -0.140655 0.471499 0.021193
v -0.143943 0.289217 -0.014945
v -0.140655 0.471499 0.021193
v -0.143943 0.289217 -0.014945
v -0.143943 0.471499 -0.014945
v -0.143943 0.471499 -0.014945
v -0.143943 0.289217 -0.014945
v -0.140655 0.471499 0.021193
v -0.010633 0.471499 0.129531
v 0.025505 0.289217 0.126244
v -0.010633 0.289217 0.129531
v -0.010633 0.289217 0.129531
v 0.025505 0.289217 0.126244
v -0.010633 0.471499 0.129531
v -0.128126 0.471499 0.055249
v -0.140655 0.289217 0.021193
v -0.140655 0.471499 0.021193
v -0.140655 0.471499 0.021193
v -0.140655 0.289217 0.021193
v -0.128126 0.471499 0.055249
v -0.010633 0.289217 0.129531
v -0.046391 0.471499 0.123354
v -0.010633 0.471499 0.129531
v -0.010633 0.471499 0.129531
v -0.046391 0.471499 0.123354
v -0.010633 0.289217 0.129531
v -0.046391 0.471499 0.123354
v -0.010633 0.289217 0.129531
v -0.046391 0.289217 0.123354
v -0.046391 0.289217 0.123354
v -0.010633 0.289217 0.129531
v -0.046391 0.471499 0.123354
v -0.079331 0.471499 0.108131
v -0.046391 0.289217 0.123354
v -0.079331 0.289217 0.108131
v -0.079331 0.289217 0.108131
v -0.046391 0.289217 0.123354
v -0.079331 0.471499 0.108131
v -0.107210 0.471499 0.084902
v -0.079331 0.289217 0.108131
v -0.107210 0.289217 0.084902
v -0.107210 0.289217 0.084902
v -0.079331 0.289217 0.108131
v -0.107210 0.471499 0.084902
v -0.128126 0.289217 0.055249
v -0.107210 0.471499 0.084902
v -0.107210 0.289217 0.084902
v -0.107210 0.289217 0.084902
v -0.107210 0.471499 0.084902
v -0.128126 0.289217 0.055249
v -0.140655 0.289217 0.021193
v -0.128126 0.471499 0.055249
v -0.128126 0.289217 0.055249
v -0.128126 0.289217 0.055249
v -0.128126 0.471499 0.055249
v -0.140655 0.289217 0.021193
v -0.046391 0.289217 0.123354
v -0.079331 0.471499 0.108131
v -0.046391 0.471499 0.123354
v -0.046391 0.471499 0.123354
v -0.079331 0.471499 0.108131
v -0.046391 0.289217 0.123354
v -0.079331 0.289217 0.108131
v -0.107210 0.471499 0.084902
v -0.079331 0.471499 0.108131
v -0.079331 0.471499 0.108131
v -0.107210 0.471499 0.084902
v -0.079331 0.289217 0.108131
v -0.107210 0.471499 0.084902
v -0.128126 0.289217 0.055249
v -0.128126 0.471499 0.055249
v -0.128126 0.471499 0.055249
v -0.128126 0.289217 0.055249
v -0.107210 0.471499 0.084902
vn -0.576403915490395 0 -0.8171649320714525
vn 0.576403915490395 0 0.8171649320714525
vn -0.7682608663533516 0 -0.6401368925706421
vn 0.7682608663533516 0 0.6401368925706421
vn -0.90776278216944 0 -0.4194838868276086
vn 0.90776278216944 0 0.4194838868276086
vn -0.9854019410742161 0 -0.1702439852892527
vn 0.9854019410742161 0 0.1702439852892527
vn -0.34526507968227865 0 -0.9385052076317905
vn 0.34526507968227865 0 0.9385052076317905
vn -0.9958875485590671 0 0.09059796148375489
vn 0.9958875485590671 0 -0.09059796148375489
vn -0.9385052076317905 0 0.34526507968227865
vn 0.9385052076317905 0 -0.34526507968227865
vn -0.8171649320714525 0 0.576403915490395
vn 0.8171649320714525 0 -0.576403915490395
vn -0.6401368925706421 0 0.7682608663533516
vn 0.6401368925706421 0 -0.7682608663533516
vn -0.4194838868276086 0 0.90776278216944
vn 0.4194838868276086 0 -0.90776278216944
vn -0.1702439852892527 0 0.9854019410742161
vn 0.1702439852892527 0 -0.9854019410742161
vn 0.09059796148375489 0 0.9958875485590671
vn -0.09059796148375489 0 -0.9958875485590671
usemtl material_0_0
f 1//1 2//1 3//1
f 4//2 5//2 6//2
f 7//3 8//3 9//3
f 10//4 11//4 12//4
f 13//5 14//5 15//5
f 16//6 17//6 18//6
f 19//7 20//7 21//7
f 22//8 23//8 24//8
f 25//1 26//1 27//1
f 28//2 29//2 30//2
f 31//9 32//9 33//9
f 34//10 35//10 36//10
f 37//3 38//3 39//3
f 40//4 41//4 42//4
f 43//5 44//5 45//5
f 46//6 47//6 48//6
f 49//7 50//7 51//7
f 52//8 53//8 54//8
f 55//11 56//11 57//11
f 58//12 59//12 60//12
f 61//11 62//11 63//11
f 64//12 65//12 66//12
f 67//13 68//13 69//13
f 70//14 71//14 72//14
f 73//9 74//9 75//9
f 76//10 77//10 78//10
f 79//13 80//13 81//13
f 82//14 83//14 84//14
f 85//15 86//15 87//15
f 88//16 89//16 90//16
f 91//15 92//15 93//15
f 94//16 95//16 96//16
f 97//17 98//17 99//17
f 100//18 101//18 102//18
f 103//19 104//19 105//19
f 106//20 107//20 108//20
f 109//21 110//21 111//21
f 112//22 113//22 114//22
f 115//23 116//23 117//23
f 118//24 119//24 120//24
f 121//10 122//10 123//10
f 124//9 125//9 126//9
f 127//2 128//2 129//2
f 130//1 131//1 132//1
f 133//4 134//4 135//4
f 136//3 137//3 138//3
f 139//6 140//6 141//6
f 142//5 143//5 144//5
f 145//8 146//8 147//8
f 148//7 149//7 150//7
f 151//24 152//24 153//24
f 154//23 155//23 156//23
f 157//17 158//17 159//17
f 160//18 161//18 162//18
f 163//19 164//19 165//19
f 166//20 167//20 168//20
f 169//21 170//21 171//21
f 172//22 173//22 174//22
f 175//23 176//23 177//23
f 178//24 179//24 180//24
f 181//10 182//10 183//10
f 184//9 185//9 186//9
f 187//2 188//2 189//2
f 190//1 191//1 192//1
f 193//4 194//4 195//4
f 196//3 197//3 198//3
f 199//6 200//6 201//6
f 202//5 203//5 204//5
f 205//8 206//8 207//8
f 208//7 209//7 210//7
f 211//12 212//12 213//12
f 214//11 215//11 216//11
f 217//12 218//12 219//12
f 220//11 221//11 222//11
f 223//24 224//24 225//24
f 226//23 227//23 228//23
f 229//14 230//14 231//14
f 232//13 233//13 234//13
f 235//22 236//22 237//22
f 238//21 239//21 240//21
f 241//22 242//22 243//22
f 244//21 245//21 246//21
f 247//20 248//20 249//20
f 250//19 251//19 252//19
f 253//18 254//18 255//18
f 256//17 257//17 258//17
f 259//16 260//16 261//16
f 262//15 263//15 264//15
f 265//14 266//14 267//14
f 268//13 269//13 270//13
f 271//20 272//20 273//20
f 274//19 275//19 276//19
f 277//18 278//18 279//18
f 280//17 281//17 282//17
f 283//16 284//16 285//16
f 286//15 287//15 288//15
