# SSTK version 0.8.0
# 11
mtllib original-11.mtl
o 3dw.9b9a4bb5550f00ea586350d6e78ecc7/Model/mesh1/mesh1-geometry/material_6#mesh1-geometry
v -0.001616 0.856137 0.488834
v -0.000499 0.858166 0.488834
v -0.001616 0.856137 0.468181
v -0.000499 0.858166 0.488834
v 0.001104 0.859836 0.488834
v -0.000499 0.858166 0.468181
v 0.009873 0.861173 0.488834
v 0.009873 0.861173 0.468181
v 0.007624 0.861727 0.488834
v 0.007624 0.861727 0.488834
v 0.007624 0.861727 0.468181
v 0.005309 0.861679 0.488834
v 0.013572 0.858453 0.488834
v 0.013572 0.858453 0.468181
v 0.011901 0.860057 0.488834
v 0.011901 0.860057 0.488834
v 0.011901 0.860057 0.468181
v 0.009873 0.861173 0.488834
v -0.000279 0.847369 0.488834
v -0.000279 0.847369 0.468181
v 0.001392 0.845765 0.488834
v -0.000279 0.847369 0.488834
v -0.001477 0.849350 0.488834
v -0.000279 0.847369 0.468181
v -0.002169 0.853889 0.488834
v -0.001616 0.856137 0.488834
v -0.002169 0.853889 0.468181
v -0.000499 0.858166 0.468181
v -0.001616 0.856137 0.468181
v -0.000499 0.858166 0.488834
v -0.001616 0.856137 0.468181
v -0.002169 0.853889 0.468181
v -0.001616 0.856137 0.488834
v 0.001104 0.859836 0.468181
v -0.000499 0.858166 0.468181
v 0.001104 0.859836 0.488834
v 0.003086 0.861035 0.488834
v 0.003086 0.861035 0.468181
v 0.001104 0.859836 0.488834
v 0.007624 0.861727 0.468181
v 0.007624 0.861727 0.488834
v 0.009873 0.861173 0.468181
v 0.009873 0.861173 0.468181
v 0.009873 0.861173 0.488834
v 0.011901 0.860057 0.468181
v 0.005309 0.861679 0.488834
v 0.005309 0.861679 0.468181
v 0.003086 0.861035 0.488834
v 0.005309 0.861679 0.468181
v 0.005309 0.861679 0.488834
v 0.007624 0.861727 0.468181
v 0.014908 0.849685 0.488834
v 0.013792 0.847656 0.488834
v 0.014908 0.849685 0.468181
v 0.015462 0.851933 0.488834
v 0.014908 0.849685 0.488834
v 0.015462 0.851933 0.468181
v 0.013572 0.858453 0.488834
v 0.014770 0.856472 0.488834
v 0.013572 0.858453 0.468181
v 0.011901 0.860057 0.468181
v 0.011901 0.860057 0.488834
v 0.013572 0.858453 0.468181
v 0.005668 0.844095 0.488834
v 0.005668 0.844095 0.468181
v 0.007983 0.844143 0.488834
v 0.007983 0.844143 0.488834
v 0.007983 0.844143 0.468181
v 0.010207 0.844787 0.488834
v 0.001392 0.845765 0.488834
v 0.001392 0.845765 0.468181
v 0.003420 0.844649 0.488834
v 0.001392 0.845765 0.468181
v 0.001392 0.845765 0.488834
v -0.000279 0.847369 0.468181
v -0.001477 0.849350 0.468181
v -0.000279 0.847369 0.468181
v -0.001477 0.849350 0.488834
v -0.001477 0.849350 0.488834
v -0.002122 0.851574 0.488834
v -0.001477 0.849350 0.468181
v -0.002122 0.851574 0.488834
v -0.002169 0.853889 0.488834
v -0.002122 0.851574 0.468181
v -0.002169 0.853889 0.468181
v -0.002122 0.851574 0.468181
v -0.002169 0.853889 0.488834
v -0.000499 0.858166 0.468181
v 0.014770 0.856472 0.468181
v -0.001616 0.856137 0.468181
v -0.001616 0.856137 0.468181
v 0.015415 0.854248 0.468181
v -0.002169 0.853889 0.468181
v 0.001104 0.859836 0.468181
v 0.013572 0.858453 0.468181
v -0.000499 0.858166 0.468181
v 0.001104 0.859836 0.468181
v 0.001104 0.859836 0.488834
v 0.003086 0.861035 0.468181
v 0.003086 0.861035 0.468181
v 0.003086 0.861035 0.488834
v 0.005309 0.861679 0.468181
v 0.007624 0.861727 0.468181
v 0.009873 0.861173 0.468181
v 0.005309 0.861679 0.468181
v 0.009873 0.861173 0.468181
v 0.011901 0.860057 0.468181
v 0.003086 0.861035 0.468181
v 0.013792 0.847656 0.488834
v 0.012188 0.845986 0.488834
v 0.013792 0.847656 0.468181
v 0.013792 0.847656 0.468181
v 0.014908 0.849685 0.468181
v 0.013792 0.847656 0.488834
v 0.014908 0.849685 0.468181
v 0.015462 0.851933 0.468181
v 0.014908 0.849685 0.488834
v 0.015415 0.854248 0.488834
v 0.015462 0.851933 0.488834
v 0.015415 0.854248 0.468181
v 0.015462 0.851933 0.468181
v 0.015415 0.854248 0.468181
v 0.015462 0.851933 0.488834
v 0.014770 0.856472 0.488834
v 0.015415 0.854248 0.488834
v 0.014770 0.856472 0.468181
v 0.014770 0.856472 0.468181
v 0.013572 0.858453 0.468181
v 0.014770 0.856472 0.488834
v 0.011901 0.860057 0.468181
v 0.013572 0.858453 0.468181
v 0.001104 0.859836 0.468181
v 0.007983 0.844143 0.468181
v 0.007983 0.844143 0.488834
v 0.005668 0.844095 0.468181
v 0.005668 0.844095 0.468181
v 0.005668 0.844095 0.488834
v 0.003420 0.844649 0.468181
v 0.010207 0.844787 0.488834
v 0.010207 0.844787 0.468181
v 0.012188 0.845986 0.488834
v 0.010207 0.844787 0.468181
v 0.010207 0.844787 0.488834
v 0.007983 0.844143 0.468181
v 0.003420 0.844649 0.488834
v 0.003420 0.844649 0.468181
v 0.005668 0.844095 0.488834
v 0.003420 0.844649 0.468181
v 0.003420 0.844649 0.488834
v 0.001392 0.845765 0.468181
v -0.000279 0.847369 0.468181
v 0.012188 0.845986 0.468181
v 0.001392 0.845765 0.468181
v -0.001477 0.849350 0.468181
v 0.013792 0.847656 0.468181
v -0.000279 0.847369 0.468181
v -0.002122 0.851574 0.468181
v -0.001477 0.849350 0.468181
v -0.002122 0.851574 0.488834
v -0.002169 0.853889 0.468181
v 0.015462 0.851933 0.468181
v -0.002122 0.851574 0.468181
v 0.014770 0.856472 0.468181
v 0.015415 0.854248 0.468181
v -0.001616 0.856137 0.468181
v 0.013572 0.858453 0.468181
v 0.014770 0.856472 0.468181
v -0.000499 0.858166 0.468181
v 0.015415 0.854248 0.468181
v 0.015462 0.851933 0.468181
v -0.002169 0.853889 0.468181
v 0.003086 0.861035 0.468181
v 0.011901 0.860057 0.468181
v 0.001104 0.859836 0.468181
v 0.005309 0.861679 0.468181
v 0.009873 0.861173 0.468181
v 0.003086 0.861035 0.468181
v 0.012188 0.845986 0.468181
v 0.013792 0.847656 0.468181
v 0.012188 0.845986 0.488834
v 0.014908 0.849685 0.468181
v 0.013792 0.847656 0.468181
v -0.001477 0.849350 0.468181
v 0.015462 0.851933 0.468181
v 0.014908 0.849685 0.468181
v -0.002122 0.851574 0.468181
v 0.015415 0.854248 0.468181
v 0.014770 0.856472 0.468181
v 0.015415 0.854248 0.488834
v 0.005668 0.844095 0.468181
v 0.003420 0.844649 0.468181
v 0.007983 0.844143 0.468181
v 0.012188 0.845986 0.468181
v 0.012188 0.845986 0.488834
v 0.010207 0.844787 0.468181
v 0.010207 0.844787 0.468181
v 0.007983 0.844143 0.468181
v 0.003420 0.844649 0.468181
v 0.001392 0.845765 0.468181
v 0.010207 0.844787 0.468181
v 0.003420 0.844649 0.468181
v 0.012188 0.845986 0.468181
v 0.010207 0.844787 0.468181
v 0.001392 0.845765 0.468181
v 0.013792 0.847656 0.468181
v 0.012188 0.845986 0.468181
v -0.000279 0.847369 0.468181
v -0.002122 0.851574 0.468181
v 0.014908 0.849685 0.468181
v -0.001477 0.849350 0.468181
v -0.001616 0.856137 0.468181
v -0.000499 0.858166 0.488834
v -0.001616 0.856137 0.488834
v -0.000499 0.858166 0.468181
v 0.001104 0.859836 0.488834
v -0.000499 0.858166 0.488834
v 0.007624 0.861727 0.488834
v 0.009873 0.861173 0.468181
v 0.009873 0.861173 0.488834
v 0.005309 0.861679 0.488834
v 0.007624 0.861727 0.468181
v 0.007624 0.861727 0.488834
v 0.011901 0.860057 0.488834
v 0.013572 0.858453 0.468181
v 0.013572 0.858453 0.488834
v 0.009873 0.861173 0.488834
v 0.011901 0.860057 0.468181
v 0.011901 0.860057 0.488834
v 0.001392 0.845765 0.488834
v -0.000279 0.847369 0.468181
v -0.000279 0.847369 0.488834
v -0.000279 0.847369 0.468181
v -0.001477 0.849350 0.488834
v -0.000279 0.847369 0.488834
v -0.002169 0.853889 0.468181
v -0.001616 0.856137 0.488834
v -0.002169 0.853889 0.488834
v -0.000499 0.858166 0.488834
v -0.001616 0.856137 0.468181
v -0.000499 0.858166 0.468181
v -0.001616 0.856137 0.488834
v -0.002169 0.853889 0.468181
v -0.001616 0.856137 0.468181
v 0.001104 0.859836 0.488834
v -0.000499 0.858166 0.468181
v 0.001104 0.859836 0.468181
v 0.001104 0.859836 0.488834
v 0.003086 0.861035 0.468181
v 0.003086 0.861035 0.488834
v 0.009873 0.861173 0.468181
v 0.007624 0.861727 0.488834
v 0.007624 0.861727 0.468181
v 0.011901 0.860057 0.468181
v 0.009873 0.861173 0.488834
v 0.009873 0.861173 0.468181
v 0.003086 0.861035 0.488834
v 0.005309 0.861679 0.468181
v 0.005309 0.861679 0.488834
v 0.007624 0.861727 0.468181
v 0.005309 0.861679 0.488834
v 0.005309 0.861679 0.468181
v 0.014908 0.849685 0.468181
v 0.013792 0.847656 0.488834
v 0.014908 0.849685 0.488834
v 0.015462 0.851933 0.468181
v 0.014908 0.849685 0.488834
v 0.015462 0.851933 0.488834
v 0.013572 0.858453 0.468181
v 0.014770 0.856472 0.488834
v 0.013572 0.858453 0.488834
v 0.013572 0.858453 0.468181
v 0.011901 0.860057 0.488834
v 0.011901 0.860057 0.468181
v 0.007983 0.844143 0.488834
v 0.005668 0.844095 0.468181
v 0.005668 0.844095 0.488834
v 0.010207 0.844787 0.488834
v 0.007983 0.844143 0.468181
v 0.007983 0.844143 0.488834
v 0.003420 0.844649 0.488834
v 0.001392 0.845765 0.468181
v 0.001392 0.845765 0.488834
v -0.000279 0.847369 0.468181
v 0.001392 0.845765 0.488834
v 0.001392 0.845765 0.468181
v -0.001477 0.849350 0.488834
v -0.000279 0.847369 0.468181
v -0.001477 0.849350 0.468181
v -0.001477 0.849350 0.468181
v -0.002122 0.851574 0.488834
v -0.001477 0.849350 0.488834
v -0.002122 0.851574 0.468181
v -0.002169 0.853889 0.488834
v -0.002122 0.851574 0.488834
v -0.002169 0.853889 0.488834
v -0.002122 0.851574 0.468181
v -0.002169 0.853889 0.468181
v -0.001616 0.856137 0.468181
v 0.014770 0.856472 0.468181
v -0.000499 0.858166 0.468181
v -0.002169 0.853889 0.468181
v 0.015415 0.854248 0.468181
v -0.001616 0.856137 0.468181
v -0.000499 0.858166 0.468181
v 0.013572 0.858453 0.468181
v 0.001104 0.859836 0.468181
v 0.003086 0.861035 0.468181
v 0.001104 0.859836 0.488834
v 0.001104 0.859836 0.468181
v 0.005309 0.861679 0.468181
v 0.003086 0.861035 0.488834
v 0.003086 0.861035 0.468181
v 0.005309 0.861679 0.468181
v 0.009873 0.861173 0.468181
v 0.007624 0.861727 0.468181
v 0.003086 0.861035 0.468181
v 0.011901 0.860057 0.468181
v 0.009873 0.861173 0.468181
v 0.013792 0.847656 0.468181
v 0.012188 0.845986 0.488834
v 0.013792 0.847656 0.488834
v 0.013792 0.847656 0.488834
v 0.014908 0.849685 0.468181
v 0.013792 0.847656 0.468181
v 0.014908 0.849685 0.488834
v 0.015462 0.851933 0.468181
v 0.014908 0.849685 0.468181
v 0.015415 0.854248 0.468181
v 0.015462 0.851933 0.488834
v 0.015415 0.854248 0.488834
v 0.015462 0.851933 0.488834
v 0.015415 0.854248 0.468181
v 0.015462 0.851933 0.468181
v 0.014770 0.856472 0.468181
v 0.015415 0.854248 0.488834
v 0.014770 0.856472 0.488834
v 0.014770 0.856472 0.488834
v 0.013572 0.858453 0.468181
v 0.014770 0.856472 0.468181
v 0.001104 0.859836 0.468181
v 0.013572 0.858453 0.468181
v 0.011901 0.860057 0.468181
v 0.005668 0.844095 0.468181
v 0.007983 0.844143 0.488834
v 0.007983 0.844143 0.468181
v 0.003420 0.844649 0.468181
v 0.005668 0.844095 0.488834
v 0.005668 0.844095 0.468181
v 0.012188 0.845986 0.488834
v 0.010207 0.844787 0.468181
v 0.010207 0.844787 0.488834
v 0.007983 0.844143 0.468181
v 0.010207 0.844787 0.488834
v 0.010207 0.844787 0.468181
v 0.005668 0.844095 0.488834
v 0.003420 0.844649 0.468181
v 0.003420 0.844649 0.488834
v 0.001392 0.845765 0.468181
v 0.003420 0.844649 0.488834
v 0.003420 0.844649 0.468181
v 0.001392 0.845765 0.468181
v 0.012188 0.845986 0.468181
v -0.000279 0.847369 0.468181
v -0.000279 0.847369 0.468181
v 0.013792 0.847656 0.468181
v -0.001477 0.849350 0.468181
v -0.002122 0.851574 0.488834
v -0.001477 0.849350 0.468181
v -0.002122 0.851574 0.468181
v -0.002122 0.851574 0.468181
v 0.015462 0.851933 0.468181
v -0.002169 0.853889 0.468181
v -0.001616 0.856137 0.468181
v 0.015415 0.854248 0.468181
v 0.014770 0.856472 0.468181
v -0.000499 0.858166 0.468181
v 0.014770 0.856472 0.468181
v 0.013572 0.858453 0.468181
v -0.002169 0.853889 0.468181
v 0.015462 0.851933 0.468181
v 0.015415 0.854248 0.468181
v 0.001104 0.859836 0.468181
v 0.011901 0.860057 0.468181
v 0.003086 0.861035 0.468181
v 0.003086 0.861035 0.468181
v 0.009873 0.861173 0.468181
v 0.005309 0.861679 0.468181
v 0.012188 0.845986 0.488834
v 0.013792 0.847656 0.468181
v 0.012188 0.845986 0.468181
v -0.001477 0.849350 0.468181
v 0.013792 0.847656 0.468181
v 0.014908 0.849685 0.468181
v -0.002122 0.851574 0.468181
v 0.014908 0.849685 0.468181
v 0.015462 0.851933 0.468181
v 0.015415 0.854248 0.488834
v 0.014770 0.856472 0.468181
v 0.015415 0.854248 0.468181
v 0.007983 0.844143 0.468181
v 0.003420 0.844649 0.468181
v 0.005668 0.844095 0.468181
v 0.010207 0.844787 0.468181
v 0.012188 0.845986 0.488834
v 0.012188 0.845986 0.468181
v 0.003420 0.844649 0.468181
v 0.007983 0.844143 0.468181
v 0.010207 0.844787 0.468181
v 0.003420 0.844649 0.468181
v 0.010207 0.844787 0.468181
v 0.001392 0.845765 0.468181
v 0.001392 0.845765 0.468181
v 0.010207 0.844787 0.468181
v 0.012188 0.845986 0.468181
v -0.000279 0.847369 0.468181
v 0.012188 0.845986 0.468181
v 0.013792 0.847656 0.468181
v -0.001477 0.849350 0.468181
v 0.014908 0.849685 0.468181
v -0.002122 0.851574 0.468181
vn -0.9314961970366854 0.3637510617251759 0
vn -0.8056109324591092 0.5924449556729845 0
vn -0.6248243011819965 0.7807653889949463 0
vn 0.3637510617251759 0.9314961970366854 0
vn 0.11026699557528062 0.9939020020539253 0
vn -0.15073097260587692 0.9885748195747687 0
vn 0.7807653889949463 0.6248243011819965 0
vn 0.5924449556729845 0.8056109324591092 0
vn -0.7807653889949463 -0.6248243011819965 0
vn -0.5924449556729845 -0.8056109324591092 0
vn -0.915877888320314 -0.4014569636784524 0
vn -0.9939020020539253 0.11026699557528062 0
vn -0.4014569636784524 0.915877888320314 0
vn 0.9314961970366854 -0.3637510617251759 0
vn 0.8056109324591092 -0.5924449556729845 0
vn 0.9939020020539253 -0.11026699557528062 0
vn 0.915877888320314 0.4014569636784524 0
vn -0.11026699557528062 -0.9939020020539253 0
vn 0.15073097260587692 -0.9885748195747687 0
vn 0.4014569636784524 -0.915877888320314 0
vn -0.3637510617251759 -0.9314961970366854 0
vn -0.9885748195747687 -0.15073097260587692 0
vn 0 0 -1
vn 0.6248243011819965 -0.7807653889949463 0
vn 0.9885748195747687 0.15073097260587692 0
vn 0 0 1
usemtl material_0_0
f 1//1 2//2 3//1
f 4//2 5//3 6//2
f 7//4 8//4 9//5
f 10//5 11//5 12//6
f 13//7 14//7 15//8
f 16//8 17//8 18//4
f 19//9 20//9 21//10
f 22//9 23//11 24//9
f 25//12 26//1 27//12
f 28//2 29//1 30//2
f 31//1 32//12 33//1
f 34//3 35//2 36//3
f 37//13 38//13 39//3
f 40//5 41//5 42//4
f 43//4 44//4 45//8
f 46//6 47//6 48//13
f 49//6 50//6 51//5
f 52//14 53//15 54//14
f 55//16 56//14 57//16
f 58//7 59//17 60//7
f 61//8 62//8 63//7
f 64//18 65//18 66//19
f 67//19 68//19 69//20
f 70//10 71//10 72//21
f 73//10 74//10 75//9
f 76//11 77//9 78//11
f 79//11 80//22 81//11
f 82//22 83//12 84//22
f 85//12 86//22 87//12
f 88//23 89//23 90//23
f 91//23 92//23 93//23
f 94//23 95//23 96//23
f 97//3 98//3 99//13
f 100//13 101//13 102//6
f 103//23 104//23 105//23
f 106//23 107//23 108//23
f 109//15 110//24 111//15
f 112//15 113//14 114//15
f 115//14 116//16 117//14
f 118//25 119//16 120//25
f 121//16 122//25 123//16
f 124//17 125//25 126//17
f 127//17 128//7 129//17
f 130//23 131//23 132//23
f 133//19 134//19 135//18
f 136//18 137//18 138//21
f 139//20 140//20 141//24
f 142//20 143//20 144//19
f 145//21 146//21 147//18
f 148//21 149//21 150//10
f 151//23 152//23 153//23
f 154//23 155//23 156//23
f 157//22 158//11 159//22
f 160//23 161//23 162//23
f 163//23 164//23 165//23
f 166//23 167//23 168//23
f 169//23 170//23 171//23
f 172//23 173//23 174//23
f 175//23 176//23 177//23
f 178//24 179//15 180//24
f 181//23 182//23 183//23
f 184//23 185//23 186//23
f 187//25 188//17 189//25
f 190//23 191//23 192//23
f 193//24 194//24 195//20
f 196//23 197//23 198//23
f 199//23 200//23 201//23
f 202//23 203//23 204//23
f 205//23 206//23 207//23
f 208//23 209//23 210//23
usemtl material_1_0
f 211//14 212//15 213//14
f 214//15 215//24 216//15
f 217//18 218//21 219//21
f 220//19 221//18 222//18
f 223//10 224//9 225//9
f 226//21 227//10 228//10
f 229//8 230//7 231//7
f 232//7 233//17 234//7
f 235//16 236//14 237//16
f 238//15 239//14 240//15
f 241//14 242//16 243//14
f 244//24 245//15 246//24
f 247//24 248//20 249//20
f 250//21 251//18 252//18
f 253//10 254//21 255//21
f 256//20 257//19 258//19
f 259//18 260//19 261//19
f 262//1 263//2 264//1
f 265//12 266//1 267//12
f 268//9 269//11 270//9
f 271//9 272//10 273//10
f 274//6 275//5 276//5
f 277//13 278//6 279//6
f 280//4 281//8 282//8
f 283//7 284//8 285//8
f 286//17 287//7 288//17
f 289//17 290//25 291//17
f 292//25 293//16 294//25
f 295//16 296//25 297//16
f 298//26 299//26 300//26
f 301//26 302//26 303//26
f 304//26 305//26 306//26
f 307//20 308//24 309//24
f 310//19 311//20 312//20
f 313//26 314//26 315//26
f 316//26 317//26 318//26
f 319//2 320//3 321//2
f 322//2 323//1 324//2
f 325//1 326//12 327//1
f 328//22 329//12 330//22
f 331//12 332//22 333//12
f 334//11 335//22 336//11
f 337//11 338//9 339//11
f 340//26 341//26 342//26
f 343//5 344//6 345//6
f 346//4 347//5 348//5
f 349//3 350//13 351//13
f 352//6 353//13 354//13
f 355//5 356//4 357//4
f 358//8 359//4 360//4
f 361//26 362//26 363//26
f 364//26 365//26 366//26
f 367//25 368//17 369//25
f 370//26 371//26 372//26
f 373//26 374//26 375//26
f 376//26 377//26 378//26
f 379//26 380//26 381//26
f 382//26 383//26 384//26
f 385//26 386//26 387//26
f 388//3 389//2 390//3
f 391//26 392//26 393//26
f 394//26 395//26 396//26
f 397//22 398//11 399//22
f 400//26 401//26 402//26
f 403//13 404//3 405//3
f 406//26 407//26 408//26
f 409//26 410//26 411//26
f 412//26 413//26 414//26
f 415//26 416//26 417//26
f 418//26 419//26 420//26
