# SSTK version 0.8.0
# 10
mtllib original-10.mtl
o 3dw.9b9a4bb5550f00ea586350d6e78ecc7/Model/mesh1/mesh1-geometry/material_5#mesh1-geometry
v 0.010805 0.890395 0.449623
v 0.010805 0.890395 0.488834
v 0.000962 0.890194 0.449623
v 0.020365 0.888041 0.449623
v 0.020365 0.888041 0.488834
v 0.010805 0.890395 0.449623
v 0.000962 0.890194 0.449623
v 0.000962 0.890194 0.488834
v -0.008494 0.887452 0.449623
v 0.000962 0.890194 0.488834
v 0.000962 0.890194 0.449623
v 0.010805 0.890395 0.488834
v 0.010805 0.890395 0.488834
v 0.010805 0.890395 0.449623
v 0.020365 0.888041 0.488834
v 0.028990 0.883293 0.449623
v 0.028990 0.883293 0.488834
v 0.020365 0.888041 0.449623
v 0.020365 0.888041 0.488834
v 0.020365 0.888041 0.449623
v 0.028990 0.883293 0.488834
v -0.008494 0.887452 0.449623
v -0.008494 0.887452 0.488834
v -0.016918 0.882356 0.449623
v -0.008494 0.887452 0.488834
v -0.008494 0.887452 0.449623
v 0.000962 0.890194 0.488834
v 0.010805 0.890395 0.488834
v 0.020365 0.888041 0.488834
v 0.000962 0.890194 0.488834
v 0.036092 0.876475 0.449623
v 0.036092 0.876475 0.488834
v 0.028990 0.883293 0.449623
v 0.028990 0.883293 0.488834
v 0.028990 0.883293 0.449623
v 0.036092 0.876475 0.488834
v 0.020365 0.888041 0.488834
v 0.028990 0.883293 0.488834
v -0.008494 0.887452 0.488834
v -0.023736 0.875254 0.449623
v -0.016918 0.882356 0.449623
v -0.023736 0.875254 0.488834
v -0.016918 0.882356 0.488834
v -0.016918 0.882356 0.449623
v -0.008494 0.887452 0.488834
v 0.000962 0.890194 0.488834
v 0.020365 0.888041 0.488834
v -0.008494 0.887452 0.488834
v 0.036092 0.876475 0.449623
v 0.041187 0.868051 0.449623
v 0.036092 0.876475 0.488834
v 0.028990 0.883293 0.488834
v 0.036092 0.876475 0.488834
v -0.016918 0.882356 0.488834
v -0.008494 0.887452 0.488834
v 0.028990 0.883293 0.488834
v -0.016918 0.882356 0.488834
v -0.028484 0.866629 0.449623
v -0.023736 0.875254 0.449623
v -0.028484 0.866629 0.488834
v -0.016918 0.882356 0.488834
v -0.023736 0.875254 0.488834
v -0.016918 0.882356 0.449623
v -0.023736 0.875254 0.488834
v -0.028484 0.866629 0.488834
v -0.023736 0.875254 0.449623
v 0.041187 0.868051 0.449623
v 0.043929 0.858596 0.449623
v 0.041187 0.868051 0.488834
v 0.041187 0.868051 0.488834
v 0.036092 0.876475 0.488834
v 0.041187 0.868051 0.449623
v -0.016918 0.882356 0.488834
v 0.036092 0.876475 0.488834
v -0.023736 0.875254 0.488834
v -0.030837 0.857070 0.449623
v -0.028484 0.866629 0.449623
v -0.030837 0.857070 0.488834
v -0.028484 0.866629 0.488834
v -0.030837 0.857070 0.488834
v -0.028484 0.866629 0.449623
v -0.023736 0.875254 0.488834
v 0.041187 0.868051 0.488834
v -0.028484 0.866629 0.488834
v 0.043929 0.858596 0.449623
v 0.044130 0.848752 0.449623
v 0.043929 0.858596 0.488834
v 0.043929 0.858596 0.488834
v 0.041187 0.868051 0.488834
v 0.043929 0.858596 0.449623
v 0.036092 0.876475 0.488834
v 0.041187 0.868051 0.488834
v -0.023736 0.875254 0.488834
v 0.041776 0.839193 0.449623
v 0.037029 0.830568 0.449623
v 0.041776 0.839193 0.488834
v 0.044130 0.848752 0.449623
v 0.041776 0.839193 0.449623
v 0.044130 0.848752 0.488834
v -0.030636 0.847226 0.449623
v -0.030837 0.857070 0.449623
v -0.030636 0.847226 0.488834
v -0.030837 0.857070 0.488834
v -0.030636 0.847226 0.488834
v -0.030837 0.857070 0.449623
v -0.028484 0.866629 0.488834
v -0.000499 0.858166 0.488834
v -0.030837 0.857070 0.488834
v -0.028484 0.866629 0.488834
v 0.041187 0.868051 0.488834
v 0.007624 0.861727 0.488834
v 0.044130 0.848752 0.488834
v 0.043929 0.858596 0.488834
v 0.044130 0.848752 0.449623
v 0.041187 0.868051 0.488834
v 0.043929 0.858596 0.488834
v 0.011901 0.860057 0.488834
v 0.037029 0.830568 0.449623
v 0.030211 0.823466 0.449623
v 0.037029 0.830568 0.488834
v 0.037029 0.830568 0.488834
v 0.041776 0.839193 0.488834
v 0.037029 0.830568 0.449623
v 0.041776 0.839193 0.488834
v 0.044130 0.848752 0.488834
v 0.041776 0.839193 0.449623
v 0.012331 0.815628 0.449623
v 0.012331 0.815628 0.488834
v 0.021787 0.818370 0.449623
v 0.002488 0.815427 0.449623
v 0.002488 0.815427 0.488834
v 0.012331 0.815628 0.449623
v -0.027895 0.837771 0.449623
v -0.030636 0.847226 0.449623
v -0.027895 0.837771 0.488834
v -0.030636 0.847226 0.488834
v -0.027895 0.837771 0.488834
v -0.030636 0.847226 0.449623
v -0.030837 0.857070 0.488834
v -0.000279 0.847369 0.488834
v -0.030636 0.847226 0.488834
v -0.000499 0.858166 0.488834
v -0.001616 0.856137 0.488834
v -0.030837 0.857070 0.488834
v 0.001104 0.859836 0.488834
v -0.000499 0.858166 0.488834
v -0.028484 0.866629 0.488834
v 0.007624 0.861727 0.488834
v 0.041187 0.868051 0.488834
v 0.009873 0.861173 0.488834
v 0.007624 0.861727 0.488834
v 0.005309 0.861679 0.488834
v -0.028484 0.866629 0.488834
v 0.043929 0.858596 0.488834
v 0.044130 0.848752 0.488834
v 0.014908 0.849685 0.488834
v 0.011901 0.860057 0.488834
v 0.043929 0.858596 0.488834
v 0.013572 0.858453 0.488834
v 0.009873 0.861173 0.488834
v 0.041187 0.868051 0.488834
v 0.011901 0.860057 0.488834
v 0.021787 0.818370 0.449623
v 0.021787 0.818370 0.488834
v 0.030211 0.823466 0.449623
v 0.030211 0.823466 0.488834
v 0.037029 0.830568 0.488834
v 0.030211 0.823466 0.449623
v 0.041776 0.839193 0.488834
v 0.037029 0.830568 0.488834
v -0.027895 0.837771 0.488834
v 0.044130 0.848752 0.488834
v 0.041776 0.839193 0.488834
v 0.007983 0.844143 0.488834
v 0.021787 0.818370 0.488834
v 0.021787 0.818370 0.449623
v 0.012331 0.815628 0.488834
v 0.012331 0.815628 0.488834
v 0.012331 0.815628 0.449623
v 0.002488 0.815427 0.488834
v 0.002488 0.815427 0.488834
v 0.002488 0.815427 0.449623
v -0.007072 0.817781 0.488834
v -0.007072 0.817781 0.449623
v -0.007072 0.817781 0.488834
v 0.002488 0.815427 0.449623
v -0.022799 0.829347 0.449623
v -0.022799 0.829347 0.488834
v -0.015697 0.822529 0.449623
v -0.022799 0.829347 0.449623
v -0.027895 0.837771 0.449623
v -0.022799 0.829347 0.488834
v -0.027895 0.837771 0.488834
v -0.022799 0.829347 0.488834
v -0.027895 0.837771 0.449623
v -0.030636 0.847226 0.488834
v 0.041776 0.839193 0.488834
v -0.027895 0.837771 0.488834
v -0.000279 0.847369 0.488834
v 0.001392 0.845765 0.488834
v -0.030636 0.847226 0.488834
v -0.001477 0.849350 0.488834
v -0.000279 0.847369 0.488834
v -0.030837 0.857070 0.488834
v -0.001616 0.856137 0.488834
v -0.002169 0.853889 0.488834
v -0.030837 0.857070 0.488834
v 0.003086 0.861035 0.488834
v 0.001104 0.859836 0.488834
v -0.028484 0.866629 0.488834
v 0.005309 0.861679 0.488834
v 0.003086 0.861035 0.488834
v -0.028484 0.866629 0.488834
v 0.014908 0.849685 0.488834
v 0.044130 0.848752 0.488834
v 0.013792 0.847656 0.488834
v 0.015462 0.851933 0.488834
v 0.043929 0.858596 0.488834
v 0.014908 0.849685 0.488834
v 0.013572 0.858453 0.488834
v 0.043929 0.858596 0.488834
v 0.014770 0.856472 0.488834
v 0.030211 0.823466 0.488834
v 0.030211 0.823466 0.449623
v 0.021787 0.818370 0.488834
v 0.037029 0.830568 0.488834
v 0.030211 0.823466 0.488834
v -0.022799 0.829347 0.488834
v -0.027895 0.837771 0.488834
v 0.037029 0.830568 0.488834
v -0.022799 0.829347 0.488834
v 0.005668 0.844095 0.488834
v 0.007983 0.844143 0.488834
v 0.041776 0.839193 0.488834
v 0.010207 0.844787 0.488834
v 0.044130 0.848752 0.488834
v 0.007983 0.844143 0.488834
v 0.021787 0.818370 0.488834
v 0.012331 0.815628 0.488834
v -0.007072 0.817781 0.488834
v 0.002488 0.815427 0.488834
v -0.007072 0.817781 0.488834
v 0.012331 0.815628 0.488834
v -0.015697 0.822529 0.449623
v -0.015697 0.822529 0.488834
v -0.007072 0.817781 0.449623
v -0.007072 0.817781 0.488834
v -0.007072 0.817781 0.449623
v -0.015697 0.822529 0.488834
v -0.015697 0.822529 0.488834
v -0.015697 0.822529 0.449623
v -0.022799 0.829347 0.488834
v 0.005668 0.844095 0.488834
v 0.041776 0.839193 0.488834
v -0.030636 0.847226 0.488834
v 0.001392 0.845765 0.488834
v 0.003420 0.844649 0.488834
v -0.030636 0.847226 0.488834
v -0.002122 0.851574 0.488834
v -0.001477 0.849350 0.488834
v -0.030837 0.857070 0.488834
v -0.002169 0.853889 0.488834
v -0.002122 0.851574 0.488834
v -0.030837 0.857070 0.488834
v 0.013792 0.847656 0.488834
v 0.044130 0.848752 0.488834
v 0.012188 0.845986 0.488834
v 0.015415 0.854248 0.488834
v 0.043929 0.858596 0.488834
v 0.015462 0.851933 0.488834
v 0.014770 0.856472 0.488834
v 0.043929 0.858596 0.488834
v 0.015415 0.854248 0.488834
v 0.030211 0.823466 0.488834
v 0.021787 0.818370 0.488834
v -0.015697 0.822529 0.488834
v -0.022799 0.829347 0.488834
v 0.030211 0.823466 0.488834
v -0.015697 0.822529 0.488834
v 0.012188 0.845986 0.488834
v 0.044130 0.848752 0.488834
v 0.010207 0.844787 0.488834
v -0.015697 0.822529 0.488834
v 0.021787 0.818370 0.488834
v -0.007072 0.817781 0.488834
v 0.003420 0.844649 0.488834
v 0.005668 0.844095 0.488834
v -0.030636 0.847226 0.488834
v 0.000962 0.890194 0.449623
v 0.010805 0.890395 0.488834
v 0.010805 0.890395 0.449623
v 0.010805 0.890395 0.449623
v 0.020365 0.888041 0.488834
v 0.020365 0.888041 0.449623
v -0.008494 0.887452 0.449623
v 0.000962 0.890194 0.488834
v 0.000962 0.890194 0.449623
v 0.010805 0.890395 0.488834
v 0.000962 0.890194 0.449623
v 0.000962 0.890194 0.488834
v 0.020365 0.888041 0.488834
v 0.010805 0.890395 0.449623
v 0.010805 0.890395 0.488834
v 0.020365 0.888041 0.449623
v 0.028990 0.883293 0.488834
v 0.028990 0.883293 0.449623
v 0.028990 0.883293 0.488834
v 0.020365 0.888041 0.449623
v 0.020365 0.888041 0.488834
v -0.016918 0.882356 0.449623
v -0.008494 0.887452 0.488834
v -0.008494 0.887452 0.449623
v 0.000962 0.890194 0.488834
v -0.008494 0.887452 0.449623
v -0.008494 0.887452 0.488834
v 0.000962 0.890194 0.488834
v 0.020365 0.888041 0.488834
v 0.010805 0.890395 0.488834
v 0.028990 0.883293 0.449623
v 0.036092 0.876475 0.488834
v 0.036092 0.876475 0.449623
v 0.036092 0.876475 0.488834
v 0.028990 0.883293 0.449623
v 0.028990 0.883293 0.488834
v -0.008494 0.887452 0.488834
v 0.028990 0.883293 0.488834
v 0.020365 0.888041 0.488834
v -0.023736 0.875254 0.488834
v -0.016918 0.882356 0.449623
v -0.023736 0.875254 0.449623
v -0.008494 0.887452 0.488834
v -0.016918 0.882356 0.449623
v -0.016918 0.882356 0.488834
v -0.008494 0.887452 0.488834
v 0.020365 0.888041 0.488834
v 0.000962 0.890194 0.488834
v 0.036092 0.876475 0.488834
v 0.041187 0.868051 0.449623
v 0.036092 0.876475 0.449623
v -0.016918 0.882356 0.488834
v 0.036092 0.876475 0.488834
v 0.028990 0.883293 0.488834
v -0.016918 0.882356 0.488834
v 0.028990 0.883293 0.488834
v -0.008494 0.887452 0.488834
v -0.028484 0.866629 0.488834
v -0.023736 0.875254 0.449623
v -0.028484 0.866629 0.449623
v -0.016918 0.882356 0.449623
v -0.023736 0.875254 0.488834
v -0.016918 0.882356 0.488834
v -0.023736 0.875254 0.449623
v -0.028484 0.866629 0.488834
v -0.023736 0.875254 0.488834
v 0.041187 0.868051 0.488834
v 0.043929 0.858596 0.449623
v 0.041187 0.868051 0.449623
v 0.041187 0.868051 0.449623
v 0.036092 0.876475 0.488834
v 0.041187 0.868051 0.488834
v -0.023736 0.875254 0.488834
v 0.036092 0.876475 0.488834
v -0.016918 0.882356 0.488834
v -0.030837 0.857070 0.488834
v -0.028484 0.866629 0.449623
v -0.030837 0.857070 0.449623
v -0.028484 0.866629 0.449623
v -0.030837 0.857070 0.488834
v -0.028484 0.866629 0.488834
v -0.028484 0.866629 0.488834
v 0.041187 0.868051 0.488834
v -0.023736 0.875254 0.488834
v 0.043929 0.858596 0.488834
v 0.044130 0.848752 0.449623
v 0.043929 0.858596 0.449623
v 0.043929 0.858596 0.449623
v 0.041187 0.868051 0.488834
v 0.043929 0.858596 0.488834
v -0.023736 0.875254 0.488834
v 0.041187 0.868051 0.488834
v 0.036092 0.876475 0.488834
v 0.041776 0.839193 0.488834
v 0.037029 0.830568 0.449623
v 0.041776 0.839193 0.449623
v 0.044130 0.848752 0.488834
v 0.041776 0.839193 0.449623
v 0.044130 0.848752 0.449623
v -0.030636 0.847226 0.488834
v -0.030837 0.857070 0.449623
v -0.030636 0.847226 0.449623
v -0.030837 0.857070 0.449623
v -0.030636 0.847226 0.488834
v -0.030837 0.857070 0.488834
v -0.030837 0.857070 0.488834
v -0.000499 0.858166 0.488834
v -0.028484 0.866629 0.488834
v 0.007624 0.861727 0.488834
v 0.041187 0.868051 0.488834
v -0.028484 0.866629 0.488834
v 0.044130 0.848752 0.449623
v 0.043929 0.858596 0.488834
v 0.044130 0.848752 0.488834
v 0.011901 0.860057 0.488834
v 0.043929 0.858596 0.488834
v 0.041187 0.868051 0.488834
v 0.037029 0.830568 0.488834
v 0.030211 0.823466 0.449623
v 0.037029 0.830568 0.449623
v 0.037029 0.830568 0.449623
v 0.041776 0.839193 0.488834
v 0.037029 0.830568 0.488834
v 0.041776 0.839193 0.449623
v 0.044130 0.848752 0.488834
v 0.041776 0.839193 0.488834
v 0.021787 0.818370 0.449623
v 0.012331 0.815628 0.488834
v 0.012331 0.815628 0.449623
v 0.012331 0.815628 0.449623
v 0.002488 0.815427 0.488834
v 0.002488 0.815427 0.449623
v -0.027895 0.837771 0.488834
v -0.030636 0.847226 0.449623
v -0.027895 0.837771 0.449623
v -0.030636 0.847226 0.449623
v -0.027895 0.837771 0.488834
v -0.030636 0.847226 0.488834
v -0.030636 0.847226 0.488834
v -0.000279 0.847369 0.488834
v -0.030837 0.857070 0.488834
v -0.030837 0.857070 0.488834
v -0.001616 0.856137 0.488834
v -0.000499 0.858166 0.488834
v -0.028484 0.866629 0.488834
v -0.000499 0.858166 0.488834
v 0.001104 0.859836 0.488834
v 0.009873 0.861173 0.488834
v 0.041187 0.868051 0.488834
v 0.007624 0.861727 0.488834
v -0.028484 0.866629 0.488834
v 0.005309 0.861679 0.488834
v 0.007624 0.861727 0.488834
v 0.014908 0.849685 0.488834
v 0.044130 0.848752 0.488834
v 0.043929 0.858596 0.488834
v 0.013572 0.858453 0.488834
v 0.043929 0.858596 0.488834
v 0.011901 0.860057 0.488834
v 0.011901 0.860057 0.488834
v 0.041187 0.868051 0.488834
v 0.009873 0.861173 0.488834
v 0.030211 0.823466 0.449623
v 0.021787 0.818370 0.488834
v 0.021787 0.818370 0.449623
v 0.030211 0.823466 0.449623
v 0.037029 0.830568 0.488834
v 0.030211 0.823466 0.488834
v -0.027895 0.837771 0.488834
v 0.037029 0.830568 0.488834
v 0.041776 0.839193 0.488834
v 0.007983 0.844143 0.488834
v 0.041776 0.839193 0.488834
v 0.044130 0.848752 0.488834
v 0.012331 0.815628 0.488834
v 0.021787 0.818370 0.449623
v 0.021787 0.818370 0.488834
v 0.002488 0.815427 0.488834
v 0.012331 0.815628 0.449623
v 0.012331 0.815628 0.488834
v -0.007072 0.817781 0.488834
v 0.002488 0.815427 0.449623
v 0.002488 0.815427 0.488834
v 0.002488 0.815427 0.449623
v -0.007072 0.817781 0.488834
v -0.007072 0.817781 0.449623
v -0.015697 0.822529 0.449623
v -0.022799 0.829347 0.488834
v -0.022799 0.829347 0.449623
v -0.022799 0.829347 0.488834
v -0.027895 0.837771 0.449623
v -0.022799 0.829347 0.449623
v -0.027895 0.837771 0.449623
v -0.022799 0.829347 0.488834
v -0.027895 0.837771 0.488834
v -0.027895 0.837771 0.488834
v 0.041776 0.839193 0.488834
v -0.030636 0.847226 0.488834
v -0.030636 0.847226 0.488834
v 0.001392 0.845765 0.488834
v -0.000279 0.847369 0.488834
v -0.030837 0.857070 0.488834
v -0.000279 0.847369 0.488834
v -0.001477 0.849350 0.488834
v -0.030837 0.857070 0.488834
v -0.002169 0.853889 0.488834
v -0.001616 0.856137 0.488834
v -0.028484 0.866629 0.488834
v 0.001104 0.859836 0.488834
v 0.003086 0.861035 0.488834
v -0.028484 0.866629 0.488834
v 0.003086 0.861035 0.488834
v 0.005309 0.861679 0.488834
v 0.013792 0.847656 0.488834
v 0.044130 0.848752 0.488834
v 0.014908 0.849685 0.488834
v 0.014908 0.849685 0.488834
v 0.043929 0.858596 0.488834
v 0.015462 0.851933 0.488834
v 0.014770 0.856472 0.488834
v 0.043929 0.858596 0.488834
v 0.013572 0.858453 0.488834
v 0.021787 0.818370 0.488834
v 0.030211 0.823466 0.449623
v 0.030211 0.823466 0.488834
v -0.022799 0.829347 0.488834
v 0.030211 0.823466 0.488834
v 0.037029 0.830568 0.488834
v -0.022799 0.829347 0.488834
v 0.037029 0.830568 0.488834
v -0.027895 0.837771 0.488834
v 0.041776 0.839193 0.488834
v 0.007983 0.844143 0.488834
v 0.005668 0.844095 0.488834
v 0.007983 0.844143 0.488834
v 0.044130 0.848752 0.488834
v 0.010207 0.844787 0.488834
v -0.007072 0.817781 0.488834
v 0.012331 0.815628 0.488834
v 0.021787 0.818370 0.488834
v 0.012331 0.815628 0.488834
v -0.007072 0.817781 0.488834
v 0.002488 0.815427 0.488834
v -0.007072 0.817781 0.449623
v -0.015697 0.822529 0.488834
v -0.015697 0.822529 0.449623
v -0.015697 0.822529 0.488834
v -0.007072 0.817781 0.449623
v -0.007072 0.817781 0.488834
v -0.022799 0.829347 0.488834
v -0.015697 0.822529 0.449623
v -0.015697 0.822529 0.488834
v -0.030636 0.847226 0.488834
v 0.041776 0.839193 0.488834
v 0.005668 0.844095 0.488834
v -0.030636 0.847226 0.488834
v 0.003420 0.844649 0.488834
v 0.001392 0.845765 0.488834
v -0.030837 0.857070 0.488834
v -0.001477 0.849350 0.488834
v -0.002122 0.851574 0.488834
v -0.030837 0.857070 0.488834
v -0.002122 0.851574 0.488834
v -0.002169 0.853889 0.488834
v 0.012188 0.845986 0.488834
v 0.044130 0.848752 0.488834
v 0.013792 0.847656 0.488834
v 0.015462 0.851933 0.488834
v 0.043929 0.858596 0.488834
v 0.015415 0.854248 0.488834
v 0.015415 0.854248 0.488834
v 0.043929 0.858596 0.488834
v 0.014770 0.856472 0.488834
v -0.015697 0.822529 0.488834
v 0.021787 0.818370 0.488834
v 0.030211 0.823466 0.488834
v -0.015697 0.822529 0.488834
v 0.030211 0.823466 0.488834
v -0.022799 0.829347 0.488834
v 0.010207 0.844787 0.488834
v 0.044130 0.848752 0.488834
v 0.012188 0.845986 0.488834
v -0.007072 0.817781 0.488834
v 0.021787 0.818370 0.488834
v -0.015697 0.822529 0.488834
v -0.030636 0.847226 0.488834
v 0.005668 0.844095 0.488834
v 0.003420 0.844649 0.488834
vn -0.11026699557528062 -0.9939020020539253 0
vn 0.15073097260587692 -0.9885748195747687 0
vn -0.3637510617251759 -0.9314961970366854 0
vn 0.4014569636784524 -0.915877888320314 0
vn -0.5924449556729845 -0.8056109324591092 0
vn 0.6248243011819965 -0.7807653889949463 0
vn 0 0 -1
vn -0.7807653889949463 -0.6248243011819965 0
vn 0.8056109324591092 -0.5924449556729845 0
vn -0.915877888320314 -0.4014569636784524 0
vn 0.9314961970366854 -0.3637510617251759 0
vn -0.9885748195747687 -0.15073097260587692 0
vn 0.9939020020539253 -0.11026699557528062 0
vn -0.9939020020539253 0.11026699557528062 0
vn -0.9314961970366854 0.3637510617251759 0
vn -0.8056109324591092 0.5924449556729845 0
vn 0.9885748195747687 0.15073097260587692 0
vn -0.6248243011819965 0.7807653889949463 0
vn -0.15073097260587692 0.9885748195747687 0
vn -0.4014569636784524 0.915877888320314 0
vn 0.11026699557528062 0.9939020020539253 0
vn 0.915877888320314 0.4014569636784524 0
vn 0.3637510617251759 0.9314961970366854 0
vn 0.7807653889949463 0.6248243011819965 0
vn 0.5924449556729845 0.8056109324591092 0
vn 0 0 1
usemtl material_0_0
f 1//1 2//1 3//2
f 4//3 5//3 6//1
f 7//2 8//2 9//4
f 10//2 11//2 12//1
f 13//1 14//1 15//3
f 16//5 17//5 18//3
f 19//3 20//3 21//5
f 22//4 23//4 24//6
f 25//4 26//4 27//2
f 28//7 29//7 30//7
f 31//8 32//8 33//5
f 34//5 35//5 36//8
f 37//7 38//7 39//7
f 40//9 41//6 42//9
f 43//6 44//6 45//4
f 46//7 47//7 48//7
f 49//8 50//10 51//8
f 52//7 53//7 54//7
f 55//7 56//7 57//7
f 58//11 59//9 60//11
f 61//6 62//9 63//6
f 64//9 65//11 66//9
f 67//10 68//12 69//10
f 70//10 71//8 72//10
f 73//7 74//7 75//7
f 76//13 77//11 78//13
f 79//11 80//13 81//11
f 82//7 83//7 84//7
f 85//12 86//14 87//12
f 88//12 89//10 90//12
f 91//7 92//7 93//7
f 94//15 95//16 96//15
f 97//14 98//15 99//14
f 100//17 101//13 102//17
f 103//13 104//17 105//13
f 106//7 107//7 108//7
f 109//7 110//7 111//7
f 112//14 113//12 114//14
f 115//7 116//7 117//7
f 118//16 119//18 120//16
f 121//16 122//15 123//16
f 124//15 125//14 126//15
f 127//19 128//19 129//20
f 130//21 131//21 132//19
f 133//22 134//17 135//22
f 136//17 137//22 138//17
f 139//7 140//7 141//7
f 142//7 143//7 144//7
f 145//7 146//7 147//7
f 148//7 149//7 150//7
f 151//7 152//7 153//7
f 154//7 155//7 156//7
f 157//7 158//7 159//7
f 160//7 161//7 162//7
f 163//20 164//20 165//18
f 166//18 167//16 168//18
f 169//7 170//7 171//7
f 172//7 173//7 174//7
f 175//20 176//20 177//19
f 178//19 179//19 180//21
f 181//21 182//21 183//23
f 184//23 185//23 186//21
f 187//24 188//24 189//25
f 190//24 191//22 192//24
f 193//22 194//24 195//22
f 196//7 197//7 198//7
f 199//7 200//7 201//7
f 202//7 203//7 204//7
f 205//7 206//7 207//7
f 208//7 209//7 210//7
f 211//7 212//7 213//7
f 214//7 215//7 216//7
f 217//7 218//7 219//7
f 220//7 221//7 222//7
f 223//18 224//18 225//20
f 226//7 227//7 228//7
f 229//7 230//7 231//7
f 232//7 233//7 234//7
f 235//7 236//7 237//7
f 238//7 239//7 240//7
f 241//7 242//7 243//7
f 244//25 245//25 246//23
f 247//23 248//23 249//25
f 250//25 251//25 252//24
f 253//7 254//7 255//7
f 256//7 257//7 258//7
f 259//7 260//7 261//7
f 262//7 263//7 264//7
f 265//7 266//7 267//7
f 268//7 269//7 270//7
f 271//7 272//7 273//7
f 274//7 275//7 276//7
f 277//7 278//7 279//7
f 280//7 281//7 282//7
f 283//7 284//7 285//7
f 286//7 287//7 288//7
usemtl material_1_0
f 289//19 290//21 291//21
f 292//21 293//23 294//23
f 295//20 296//19 297//19
f 298//21 299//19 300//19
f 301//23 302//21 303//21
f 304//23 305//25 306//25
f 307//25 308//23 309//23
f 310//18 311//20 312//20
f 313//19 314//20 315//20
f 316//26 317//26 318//26
f 319//25 320//24 321//24
f 322//24 323//25 324//25
f 325//26 326//26 327//26
f 328//16 329//18 330//16
f 331//20 332//18 333//18
f 334//26 335//26 336//26
f 337//24 338//22 339//24
f 340//26 341//26 342//26
f 343//26 344//26 345//26
f 346//15 347//16 348//15
f 349//18 350//16 351//18
f 352//16 353//15 354//16
f 355//22 356//17 357//22
f 358//22 359//24 360//22
f 361//26 362//26 363//26
f 364//14 365//15 366//14
f 367//15 368//14 369//15
f 370//26 371//26 372//26
f 373//17 374//13 375//17
f 376//17 377//22 378//17
f 379//26 380//26 381//26
f 382//11 383//9 384//11
f 385//13 386//11 387//13
f 388//12 389//14 390//12
f 391//14 392//12 393//14
f 394//26 395//26 396//26
f 397//26 398//26 399//26
f 400//13 401//17 402//13
f 403//26 404//26 405//26
f 406//9 407//6 408//9
f 409//9 410//11 411//9
f 412//11 413//13 414//11
f 415//4 416//2 417//2
f 418//2 419//1 420//1
f 421//10 422//12 423//10
f 424//12 425//10 426//12
f 427//26 428//26 429//26
f 430//26 431//26 432//26
f 433//26 434//26 435//26
f 436//26 437//26 438//26
f 439//26 440//26 441//26
f 442//26 443//26 444//26
f 445//26 446//26 447//26
f 448//26 449//26 450//26
f 451//6 452//4 453//4
f 454//6 455//9 456//6
f 457//26 458//26 459//26
f 460//26 461//26 462//26
f 463//2 464//4 465//4
f 466//1 467//2 468//2
f 469//3 470//1 471//1
f 472//1 473//3 474//3
f 475//5 476//8 477//8
f 478//8 479//10 480//8
f 481//10 482//8 483//10
f 484//26 485//26 486//26
f 487//26 488//26 489//26
f 490//26 491//26 492//26
f 493//26 494//26 495//26
f 496//26 497//26 498//26
f 499//26 500//26 501//26
f 502//26 503//26 504//26
f 505//26 506//26 507//26
f 508//26 509//26 510//26
f 511//4 512//6 513//6
f 514//26 515//26 516//26
f 517//26 518//26 519//26
f 520//26 521//26 522//26
f 523//26 524//26 525//26
f 526//26 527//26 528//26
f 529//26 530//26 531//26
f 532//3 533//5 534//5
f 535//5 536//3 537//3
f 538//8 539//5 540//5
f 541//26 542//26 543//26
f 544//26 545//26 546//26
f 547//26 548//26 549//26
f 550//26 551//26 552//26
f 553//26 554//26 555//26
f 556//26 557//26 558//26
f 559//26 560//26 561//26
f 562//26 563//26 564//26
f 565//26 566//26 567//26
f 568//26 569//26 570//26
f 571//26 572//26 573//26
f 574//26 575//26 576//26
