# SSTK version 0.8.0
# 3
mtllib original-3.mtl
o mesh3/mesh3-geometry#mesh3-geometry
v 0.055301 0.965278 -0.009294
v 0.050965 0.999977 -0.008937
v 0.055410 0.982914 -0.009303
v 0.050647 0.948271 -0.008911
v 0.064386 0.982914 0.099881
v 0.064278 0.965278 0.099890
v 0.059624 0.948271 0.100273
v 0.042271 1.015304 -0.008222
v 0.059942 0.999977 0.100247
v 0.050741 0.933053 0.101003
v 0.041765 0.933053 -0.008181
v 0.051248 1.015304 0.100962
v 0.029920 1.027851 -0.007207
v 0.029260 0.920660 -0.007153
v 0.038896 1.027851 0.101977
v 0.038236 0.920660 0.102031
v 0.014752 1.036763 -0.005960
v 0.013984 0.911936 -0.005897
v 0.023729 1.036763 0.103224
v 0.022960 0.911936 0.103287
v -0.002197 1.041433 -0.004566
v -0.003022 0.907477 -0.004499
v 0.006780 1.041433 0.104617
v 0.005955 0.907477 0.104685
v 0.012659 0.976407 0.104134
v -0.019773 1.041542 -0.003121
v 0.012634 0.972426 0.104136
v -0.020598 0.907586 -0.003054
v 0.011656 0.980258 0.104217
v 0.011584 0.968587 0.104222
v -0.011622 0.907586 0.106130
v -0.010797 1.041542 0.106062
v 0.009693 0.983718 0.104378
v 0.004767 0.976407 0.008143
v 0.004742 0.972426 0.008145
v -0.036779 1.037083 -0.001723
v 0.003692 0.968587 0.008232
v 0.009579 0.965152 0.104387
v 0.003308 0.960386 0.104903
v -0.037547 0.912256 -0.001660
v 0.003482 0.988562 0.104889
v 0.006905 0.986550 0.104607
v 0.003764 0.980258 0.008226
v 0.001687 0.965152 0.008396
v 0.006756 0.962355 0.104619
v -0.000530 0.959379 0.105218
v -0.028571 0.912256 0.107524
v -0.027802 1.037083 0.107461
v -0.000344 0.989616 0.105203
v 0.001801 0.983718 0.008387
v -0.052055 1.028359 -0.000467
v -0.001136 0.962355 0.008629
v -0.004584 0.960386 0.008912
v -0.008422 0.959379 0.009228
v -0.004498 0.959404 0.105545
v -0.011747 0.962469 0.106141
v -0.052715 0.921168 -0.000413
v -0.011598 0.986665 0.106128
v -0.004410 0.988562 0.008898
v -0.004311 0.989640 0.105529
v -0.008236 0.989616 0.009212
v -0.000987 0.986550 0.008616
v -0.012390 0.959404 0.009554
v -0.008323 0.960458 0.105859
v -0.014535 0.965301 0.106370
v -0.043738 0.921168 0.108771
v -0.043078 1.028359 0.108717
v -0.008150 0.988634 0.105845
v -0.014421 0.983867 0.106360
v -0.012203 0.989640 0.009538
v -0.064560 1.015966 0.000561
v -0.016215 0.960458 0.009868
v -0.019639 0.962469 0.010150
v -0.022427 0.965301 0.010379
v -0.016498 0.968761 0.106531
v -0.056090 0.933715 0.109786
v -0.019490 0.986665 0.010138
v -0.016426 0.980432 0.106525
v -0.022313 0.983867 0.010370
v -0.016042 0.988634 0.009854
v -0.065066 0.933715 0.000602
v -0.024389 0.968761 0.010540
v -0.017501 0.972613 0.106614
v -0.055583 1.015966 0.109745
v -0.017476 0.976593 0.106612
v -0.073442 1.000748 0.001291
v -0.024318 0.980432 0.010534
v -0.025393 0.972613 0.010623
v -0.064784 0.949043 0.110501
v -0.064465 1.000748 0.110475
v -0.073760 0.949043 0.001317
v -0.025368 0.976593 0.010621
v -0.078096 0.983741 0.001674
v -0.069228 0.966106 0.110866
v -0.069119 0.983741 0.110857
v -0.078205 0.966106 0.001682
vn -0.0819390282898641 0 -0.9966373440940857
vn 0.0819390282898641 0 0.9966373440940857
vn 0.9231117522349928 0.3769678988210756 -0.07589397962990682
vn 0.9888959127675175 0.12439798902660507 -0.08130199282818892
vn -0.9888959127675175 -0.12439798902660507 0.08130199282818892
vn -0.9231117522349928 -0.3769678988210756 0.07589397962990682
vn 0.9872884378403053 -0.13664906060079718 -0.08117003599709262
vn -0.9872884378403053 0.13664906060079718 0.08117003599709262
vn 0.9183989950897798 -0.388383997923505 -0.07550599959630719
vn -0.9183989950897798 0.388383997923505 0.07550599959630719
vn 0.7869217194636375 -0.6136517812340996 -0.0646969769356289
vn -0.7869217194636375 0.6136517812340996 0.0646969769356289
vn 0.79441910222824 0.6038480777049873 -0.0653130084046744
vn -0.79441910222824 -0.6038480777049873 0.0653130084046744
vn 0.6018180621651009 -0.7970990823367526 -0.049478005110855545
vn -0.6018180621651009 0.7970990823367526 0.049478005110855545
vn 0.6115879999397587 0.7895769999222267 -0.05028199999504723
vn -0.6115879999397587 -0.7895769999222267 0.05028199999504723
vn 0.375700157489782 -0.9262263882649211 -0.03088801294794886
vn -0.375700157489782 0.9262263882649211 0.03088801294794886
vn 0.38707821946005844 0.9214975224574516 -0.031824018043125415
vn -0.38707821946005844 -0.9214975224574516 0.031824018043125415
vn 0.12398004466549287 -0.9922323574651662 -0.01019300367216784
vn -0.12398004466549287 0.9922323574651662 0.01019300367216784
vn 0.13619006182553545 0.9906194497066606 -0.011197005083049567
vn -0.13619006182553545 -0.9906194497066606 0.011197005083049567
usemtl material_0_0
f 1//1 2//1 3//1
f 2//1 1//1 4//1
f 3//2 2//2 1//2
f 4//2 1//2 2//2
f 2//3 5//4 3//4
f 3//5 5//5 2//6
f 3//4 6//7 1//7
f 1//8 6//8 3//5
f 1//7 7//9 4//9
f 4//10 7//10 1//8
f 2//1 4//1 8//1
f 8//2 4//2 2//2
f 5//4 2//3 9//3
f 9//6 2//6 5//5
f 6//7 3//4 5//4
f 5//5 3//5 6//8
f 7//9 1//7 6//7
f 6//8 1//8 7//10
f 10//11 4//9 7//9
f 7//10 4//10 10//12
f 8//1 4//1 11//1
f 11//2 4//2 8//2
f 8//13 9//3 2//3
f 2//6 9//6 8//14
f 9//2 6//2 5//2
f 5//1 6//1 9//1
f 6//2 9//2 7//2
f 7//1 9//1 6//1
f 4//9 10//11 11//11
f 11//12 10//12 4//10
f 7//2 12//2 10//2
f 10//1 12//1 7//1
f 8//1 11//1 13//1
f 13//2 11//2 8//2
f 9//3 8//13 12//13
f 12//14 8//14 9//6
f 7//2 9//2 12//2
f 12//1 9//1 7//1
f 10//11 14//15 11//11
f 11//12 14//16 10//12
f 10//2 12//2 15//2
f 15//1 12//1 10//1
f 13//1 11//1 14//1
f 14//2 11//2 13//2
f 13//17 12//13 8//13
f 8//14 12//14 13//18
f 14//15 10//11 16//15
f 16//16 10//12 14//16
f 12//13 13//17 15//17
f 15//18 13//18 12//14
f 10//2 15//2 16//2
f 16//1 15//1 10//1
f 13//1 14//1 17//1
f 17//2 14//2 13//2
f 16//15 18//19 14//15
f 14//16 18//20 16//16
f 17//21 15//17 13//17
f 13//18 15//18 17//22
f 16//2 15//2 19//2
f 19//1 15//1 16//1
f 17//1 14//1 18//1
f 18//2 14//2 17//2
f 18//19 16//15 20//19
f 20//20 16//16 18//20
f 15//17 17//21 19//21
f 19//22 17//22 15//18
f 16//2 19//2 20//2
f 20//1 19//1 16//1
f 17//1 18//1 21//1
f 21//2 18//2 17//2
f 20//19 22//23 18//19
f 18//20 22//24 20//20
f 21//25 19//21 17//21
f 17//22 19//22 21//26
f 20//2 19//2 23//2
f 23//1 19//1 20//1
f 21//1 18//1 22//1
f 22//2 18//2 21//2
f 22//23 20//19 24//23
f 24//24 20//20 22//24
f 19//21 21//25 23//25
f 23//26 21//26 19//22
f 20//2 23//2 25//2
f 25//1 23//1 20//1
f 21//1 22//1 26//1
f 26//2 22//2 21//2
f 20//2 27//2 24//2
f 24//1 27//1 20//1
f 24//23 28//26 22//23
f 22//24 28//25 24//24
f 26//24 23//25 21//25
f 21//26 23//26 26//23
f 25//2 23//2 29//2
f 29//1 23//1 25//1
f 27//2 20//2 25//2
f 25//1 20//1 27//1
f 26//1 22//1 28//1
f 28//2 22//2 26//2
f 24//2 27//2 30//2
f 30//1 27//1 24//1
f 28//26 24//23 31//26
f 31//25 24//24 28//25
f 23//25 26//24 32//24
f 32//23 26//23 23//26
f 29//2 23//2 33//2
f 33//1 23//1 29//1
f 29//6 34//5 25//5
f 25//4 34//4 29//3
f 25//5 35//8 27//8
f 27//7 35//7 25//4
f 26//1 28//1 36//1
f 36//2 28//2 26//2
f 27//8 37//10 30//10
f 30//9 37//9 27//7
f 24//2 30//2 38//2
f 38//1 30//1 24//1
f 24//2 39//2 31//2
f 31//1 39//1 24//1
f 31//26 40//22 28//26
f 28//25 40//21 31//25
f 36//20 32//24 26//24
f 26//23 32//23 36//19
f 41//2 23//2 32//2
f 32//1 23//1 41//1
f 33//2 23//2 42//2
f 42//1 23//1 33//1
f 33//14 43//6 29//6
f 29//3 43//3 33//13
f 34//5 29//6 43//6
f 43//3 29//3 34//4
f 35//8 25//5 34//5
f 34//4 25//4 35//7
f 37//10 27//8 35//8
f 35//7 27//7 37//9
f 36//1 28//1 40//1
f 40//2 28//2 36//2
f 44//12 30//10 37//10
f 37//9 30//9 44//11
f 30//10 44//12 38//12
f 38//11 44//11 30//9
f 24//2 38//2 45//2
f 45//1 38//1 24//1
f 24//2 45//2 39//2
f 39//1 45//1 24//1
f 31//2 39//2 46//2
f 46//1 39//1 31//1
f 40//22 31//26 47//22
f 47//21 31//25 40//21
f 32//24 36//20 48//20
f 48//19 36//19 32//23
f 42//2 23//2 41//2
f 41//1 23//1 42//1
f 41//2 32//2 49//2
f 49//1 32//1 41//1
f 42//18 50//14 33//14
f 33//13 50//13 42//17
f 43//6 33//14 50//14
f 50//13 33//13 43//3
f 43//2 35//2 34//2
f 34//1 35//1 43//1
f 35//2 43//2 37//2
f 37//1 43//1 35//1
f 36//1 40//1 51//1
f 51//2 40//2 36//2
f 37//2 50//2 44//2
f 44//1 50//1 37//1
f 52//16 38//12 44//12
f 44//11 38//11 52//15
f 38//12 52//16 45//16
f 45//15 52//15 38//11
f 45//16 53//20 39//20
f 39//19 53//19 45//15
f 39//20 54//24 46//24
f 46//23 54//23 39//19
f 31//2 46//2 55//2
f 55//1 46//1 31//1
f 31//2 56//2 47//2
f 47//1 56//1 31//1
f 47//22 57//18 40//22
f 40//21 57//17 47//21
f 51//16 48//20 36//20
f 36//19 48//19 51//15
f 58//2 32//2 48//2
f 48//1 32//1 58//1
f 59//22 42//18 41//22
f 41//21 42//17 59//21
f 49//2 32//2 60//2
f 60//1 32//1 49//1
f 61//26 41//22 49//26
f 49//25 41//21 61//25
f 50//14 42//18 62//18
f 62//17 42//17 50//13
f 37//2 43//2 50//2
f 50//1 43//1 37//1
f 51//1 40//1 57//1
f 57//2 40//2 51//2
f 44//2 50//2 62//2
f 62//1 50//1 44//1
f 44//2 62//2 52//2
f 52//1 62//1 44//1
f 53//20 45//16 52//16
f 52//15 45//15 53//19
f 54//24 39//20 53//20
f 53//19 39//19 54//23
f 63//25 46//24 54//24
f 54//23 46//23 63//26
f 46//24 63//25 55//25
f 55//26 63//26 46//23
f 31//2 55//2 64//2
f 64//1 55//1 31//1
f 31//2 64//2 56//2
f 56//1 64//1 31//1
f 47//2 56//2 65//2
f 65//1 56//1 47//1
f 57//18 47//22 66//18
f 66//17 47//21 57//17
f 48//20 51//16 67//16
f 67//15 51//15 48//19
f 68//2 32//2 58//2
f 58//1 32//1 68//1
f 58//2 48//2 69//2
f 69//1 48//1 58//1
f 42//18 59//22 62//18
f 62//17 59//21 42//17
f 41//22 61//26 59//22
f 59//21 61//25 41//21
f 60//2 32//2 68//2
f 68//1 32//1 60//1
f 70//23 49//26 60//23
f 60//24 49//25 70//24
f 49//26 70//23 61//26
f 61//25 70//24 49//25
f 51//1 57//1 71//1
f 71//2 57//2 51//2
f 52//2 62//2 59//2
f 59//1 62//1 52//1
f 52//2 59//2 53//2
f 53//1 59//1 52//1
f 53//2 61//2 54//2
f 54//1 61//1 53//1
f 54//2 70//2 63//2
f 63//1 70//1 54//1
f 72//21 55//25 63//25
f 63//26 55//26 72//22
f 55//25 72//21 64//21
f 64//22 72//22 55//26
f 64//21 73//17 56//17
f 56//18 73//18 64//22
f 56//17 74//13 65//13
f 65//14 74//14 56//18
f 47//2 65//2 75//2
f 75//1 65//1 47//1
f 47//2 67//2 66//2
f 66//1 67//1 47//1
f 76//14 57//18 66//18
f 66//17 57//17 76//13
f 71//12 67//16 51//16
f 51//15 67//15 71//11
f 47//2 48//2 67//2
f 67//1 48//1 47//1
f 77//15 68//19 58//15
f 58//16 68//20 77//16
f 69//2 48//2 78//2
f 78//1 48//1 69//1
f 79//11 58//15 69//11
f 69//12 58//16 79//12
f 53//2 59//2 61//2
f 61//1 59//1 53//1
f 80//19 60//23 68//19
f 68//20 60//24 80//20
f 60//23 80//19 70//23
f 70//24 80//20 60//24
f 54//2 61//2 70//2
f 70//1 61//1 54//1
f 71//1 57//1 81//1
f 81//2 57//2 71//2
f 63//2 70//2 80//2
f 80//1 70//1 63//1
f 63//2 80//2 72//2
f 72//1 80//1 63//1
f 73//17 64//21 72//21
f 72//22 64//22 73//18
f 74//13 56//17 73//17
f 73//18 56//18 74//14
f 82//3 65//13 74//13
f 74//14 65//14 82//6
f 65//13 82//3 75//3
f 75//6 82//6 65//14
f 47//2 75//2 83//2
f 83//1 75//1 47//1
f 66//2 67//2 84//2
f 84//1 67//1 66//1
f 57//18 76//14 81//14
f 81//13 76//13 57//17
f 66//2 84//2 76//2
f 76//1 84//1 66//1
f 67//16 71//12 84//12
f 84//11 71//11 67//15
f 47//2 83//2 48//2
f 48//1 83//1 47//1
f 68//19 77//15 80//19
f 80//20 77//16 68//20
f 58//15 79//11 77//15
f 77//16 79//12 58//16
f 78//2 48//2 85//2
f 85//1 48//1 78//1
f 78//9 79//11 69//11
f 69//12 79//12 78//10
f 71//1 81//1 86//1
f 86//2 81//2 71//2
f 72//2 80//2 77//2
f 77//1 80//1 72//1
f 72//2 77//2 73//2
f 73//1 77//1 72//1
f 73//2 79//2 74//2
f 74//1 79//1 73//1
f 74//2 87//2 82//2
f 82//1 87//1 74//1
f 88//4 75//3 82//3
f 82//6 75//6 88//5
f 75//3 88//4 83//4
f 83//5 88//5 75//6
f 89//6 81//14 76//14
f 76//13 81//13 89//3
f 76//2 84//2 90//2
f 90//1 84//1 76//1
f 86//10 84//12 71//12
f 71//11 84//11 86//9
f 85//2 48//2 83//2
f 83//1 48//1 85//1
f 73//2 77//2 79//2
f 79//1 77//1 73//1
f 85//7 87//9 78//9
f 78//10 87//10 85//8
f 79//11 78//9 87//9
f 87//10 78//10 79//12
f 86//1 81//1 91//1
f 91//2 81//2 86//2
f 74//2 79//2 87//2
f 87//1 79//1 74//1
f 82//2 87//2 92//2
f 92//1 87//1 82//1
f 82//2 92//2 88//2
f 88//1 92//1 82//1
f 92//7 83//4 88//4
f 88//5 83//5 92//8
f 81//14 89//6 91//6
f 91//3 89//3 81//13
f 76//2 90//2 89//2
f 89//1 90//1 76//1
f 84//12 86//10 90//10
f 90//9 86//9 84//11
f 83//4 92//7 85//7
f 85//8 92//8 83//5
f 87//9 85//7 92//7
f 92//8 85//8 87//10
f 86//1 91//1 93//1
f 93//2 91//2 86//2
f 94//5 91//6 89//6
f 89//3 91//3 94//4
f 89//2 90//2 95//2
f 95//1 90//1 89//1
f 93//8 90//10 86//10
f 86//9 90//9 93//7
f 93//1 91//1 96//1
f 96//2 91//2 93//2
f 91//6 94//5 96//5
f 96//4 94//4 91//3
f 89//2 95//2 94//2
f 94//1 95//1 89//1
f 90//10 93//8 95//8
f 95//7 93//7 90//9
f 96//5 95//8 93//8
f 93//7 95//7 96//4
f 95//8 96//5 94//5
f 94//4 96//4 95//7
