# SSTK version 0.8.0
# 24
mtllib original-24.mtl
o mesh9/mesh9-geometry#mesh9-geometry
v -0.038912 0.719172 0.131587
v 0.041440 0.719172 0.131587
v 0.001264 0.719172 0.154783
v 0.041440 0.719172 0.085196
v 0.001264 0.751977 0.154783
v -0.012673 0.751977 0.146736
v -0.038912 0.719172 0.085196
v 0.041440 0.751977 0.085196
v 0.041440 0.751977 0.131587
v -0.018824 0.751977 0.143185
v -0.038912 0.751977 0.131587
v 0.001264 0.719172 0.062000
v -0.024975 0.751977 0.139634
v -0.038912 0.751977 0.085196
v 0.001264 0.751977 0.062000
v 0.029174 0.751977 0.116230
v 0.027503 0.751977 0.077149
v -0.018452 0.751977 0.128336
v -0.006150 0.751977 0.135438
v 0.015202 0.751977 0.070047
v 0.022008 0.751977 0.128643
v 0.010998 0.751977 0.105736
v 0.021352 0.751977 0.073598
v 0.008679 0.751977 0.081345
v -0.027089 0.751977 0.100297
v 0.029174 0.743955 0.116230
v 0.020980 0.751977 0.088447
v -0.018452 0.743955 0.128336
v -0.008470 0.751977 0.111047
v -0.026577 0.751977 0.099410
v -0.019479 0.751977 0.088140
v 0.022008 0.743955 0.128643
v 0.003832 0.751977 0.118149
v 0.020980 0.743955 0.088447
v 0.010998 0.743955 0.105736
v -0.006150 0.743955 0.135438
v -0.027089 0.743955 0.100297
v -0.019991 0.751977 0.089027
v -0.001303 0.751977 0.098634
v 0.003832 0.743955 0.118149
v -0.008470 0.743955 0.111047
v 0.008679 0.743955 0.081345
v -0.026577 0.743955 0.099410
v -0.001303 0.743955 0.098634
v -0.019991 0.743955 0.089027
v -0.019479 0.743955 0.088140
vt 0.00064 0.001108
vt 0.00064 -0.001108
vt 0.001279 0
vt -0.00064 -0.001108
vt 0.00064 0.000262
vt -0.00064 0.001167
vt -0.00064 0.000262
vt 0.000196 0.001167
vt -0.00064 0.001108
vt 0.00064 0.001167
vt 0 0.001167
vt -0.001279 0
vt -0.001057 0.000384
vt -0.000959 0.000554
vt -0.000196 0.001167
vt -0.000216 -0.00077
vt -0.000861 0.000723
vt -0.00055 0.000544
vt -0.000746 0.000204
vt -0.000558 -0.000572
vt 0.000073 -0.000268
vt 0.000746 -0.000204
vt 0.000861 -0.000723
vt 0.000223 0.000782
vt 0.001057 -0.000384
vt -0.000198 0.000946
vt 0.000198 0.001167
vt -0.000198 0.001167
vt 0.00055 -0.000544
vt 0.000775 0.000946
vt 0.000775 0.001167
vt 0.000959 -0.000554
vt 0.000196 0.000946
vt -0.000073 0.000268
vt 0.000248 0.000768
vt 0.000558 0.000572
vt 0.000198 0.000946
vt -0.000269 -0.000071
vt -0.000748 0.000946
vt -0.000748 0.001167
vt -0.000196 0.000946
vt 0.000789 0.000946
vt 0.000789 0.001167
vt -0.000169 0.001167
vt 0.000534 0.000586
vt 0.000269 0.000071
vt -0.000775 0.001167
vt -0.000775 0.000946
vt 0.000748 0.001167
vt 0.000748 0.000946
vt -0.000169 0.000946
vt -0.000202 0.000946
vt 0.000137 0.001167
vt -0.000202 0.001167
vt 0.000169 0.000946
vt 0.000169 0.001167
vt 0.000137 0.000946
vt 0.005685 0
vt 0.002843 -0.004924
vt 0.002843 0.004924
vt -0.002843 -0.004924
vt -0.002843 0.001167
vt -0.002843 0.005187
vt 0.002843 0.001167
vt 0.00087 0.005187
vt -0.002843 0.004924
vt 0.002843 0.005187
vt 0 0.005187
vt -0.005685 0
vt -0.004699 0.001708
vt -0.004264 0.002462
vt -0.00087 0.005187
vt -0.000961 -0.00342
vt -0.003829 0.003216
vt -0.002444 0.002416
vt -0.003315 0.000909
vt -0.002482 -0.002542
vt 0.000325 -0.001193
vt 0.003829 -0.003216
vt 0.003315 -0.000909
vt 0.000992 0.003475
vt 0.004699 -0.001708
vt -0.000878 0.005187
vt 0.000878 0.005187
vt -0.000878 0.004204
vt 0.002444 -0.002416
vt 0.003442 0.005187
vt 0.003442 0.004204
vt 0.004264 -0.002462
vt 0.00087 0.004204
vt -0.000325 0.001193
vt 0.001101 0.003412
vt 0.002482 0.002542
vt 0.000878 0.004204
vt -0.001196 -0.000315
vt -0.003325 0.005187
vt -0.003325 0.004204
vt -0.00087 0.004204
vt 0.003505 0.005187
vt 0.003505 0.004204
vt -0.000753 0.005187
vt 0.002373 0.002605
vt 0.001196 0.000315
vt -0.003442 0.004204
vt -0.003442 0.005187
vt 0.003325 0.005187
vt 0.003325 0.004204
vt -0.000753 0.004204
vt -0.000898 0.005187
vt 0.000609 0.005187
vt -0.000898 0.004204
vt 0.000753 0.005187
vt 0.000753 0.004204
vt 0.000609 0.004204
vn 0 -1 0
vn 0.5000001748438416 0 0.8660253028382761
vn -0.5000001748438416 0 0.8660253028382761
vn 1 0 0
vn -1 0 0
vn 0.5000001748438416 0 -0.8660253028382761
vn 0 1 0
vn -0.5000001748438416 0 -0.8660253028382761
vn -0.8660253028382761 0 -0.5000001748438416
vn 0.8660253028382761 0 0.5000001748438416
vn 0.8444590899006972 0 0.5356200570218463
vn -0.8444590899006972 0 -0.5356200570218463
usemtl material_0_0
f 1/1/1 2/2/1 3/3/1
f 2/2/1 1/1/1 4/4/1
f 2/5/2 5/6/2 3/7/2
f 3/5/3 6/8/3 1/7/3
f 4/4/1 1/1/1 7/9/1
f 8/10/4 2/7/4 4/5/4
f 5/6/2 2/5/2 9/10/2
f 6/8/3 3/5/3 5/10/3
f 1/7/3 6/8/3 10/11/3
f 11/10/5 7/7/5 1/5/5
f 4/4/1 7/9/1 12/12/1
f 2/7/4 8/10/4 9/6/4
f 12/5/6 8/6/6 4/7/6
f 9/4/7 6/13/7 5/12/7
f 6/13/7 9/4/7 10/14/7
f 1/7/3 10/11/3 13/15/3
f 7/7/5 11/10/5 14/6/5
f 1/7/3 13/15/3 11/6/3
f 7/5/8 15/6/8 12/7/8
f 16/16/7 9/4/7 8/2/7
f 8/6/6 12/5/6 17/15/6
f 10/14/7 9/4/7 13/17/7
f 11/9/7 18/18/7 14/1/7
f 15/6/8 7/5/8 14/10/8
f 19/19/7 11/9/7 13/17/7
f 20/8/6 12/5/6 15/10/6
f 9/4/7 16/16/7 21/20/7
f 16/16/7 8/2/7 22/21/7
f 17/15/6 12/5/6 23/11/6
f 24/22/7 8/2/7 17/23/7
f 13/17/7 9/4/7 19/19/7
f 11/9/7 19/19/7 18/18/7
f 14/1/7 18/18/7 25/24/7
f 14/1/7 24/22/7 15/3/7
f 23/11/6 12/5/6 20/8/6
f 15/3/7 24/22/7 20/25/7
f 26/26/9 21/27/9 16/28/9
f 19/19/7 9/4/7 21/20/7
f 22/21/7 8/2/7 27/29/7
f 22/8/3 26/30/3 16/31/3
f 20/25/7 17/23/7 23/32/7
f 27/29/7 8/2/7 24/22/7
f 20/25/7 24/22/7 17/23/7
f 19/15/6 28/33/6 18/8/6
f 25/24/7 18/18/7 29/34/7
f 14/1/7 25/24/7 30/35/7
f 31/36/7 24/22/7 14/1/7
f 21/27/9 26/26/9 32/37/9
f 19/19/7 21/20/7 33/38/7
f 34/39/9 22/28/9 27/40/9
f 26/30/3 22/8/3 35/33/3
f 24/15/3 34/33/3 27/8/3
f 28/33/6 19/15/6 36/41/6
f 28/39/10 29/28/10 18/40/10
f 29/8/6 37/42/6 25/43/6
f 37/26/10 30/44/10 25/28/10
f 14/1/7 30/35/7 38/45/7
f 24/22/7 31/36/7 39/46/7
f 14/1/7 38/45/7 31/36/7
f 26/16/7 40/38/7 32/20/7
f 40/41/6 21/47/6 32/48/6
f 21/47/6 40/41/6 33/15/6
f 40/37/9 19/49/9 33/27/9
f 22/28/9 34/39/9 35/26/9
f 41/34/7 26/16/7 35/21/7
f 34/33/3 24/15/3 42/41/3
f 19/49/9 40/37/9 36/50/9
f 40/38/7 28/18/7 36/19/7
f 29/28/10 28/39/10 41/26/10
f 37/42/6 29/8/6 41/33/6
f 30/44/10 37/26/10 43/51/10
f 43/52/11 38/53/11 30/54/11
f 31/47/3 44/41/3 39/15/3
f 44/37/10 24/49/10 39/27/10
f 45/55/10 31/27/10 38/56/10
f 41/34/7 40/38/7 26/16/7
f 44/46/7 35/21/7 34/29/7
f 41/34/7 35/21/7 37/24/7
f 24/49/10 44/37/10 42/50/10
f 44/46/7 34/29/7 42/22/7
f 28/18/7 40/38/7 41/34/7
f 37/24/7 44/46/7 43/35/7
f 38/53/11 43/52/11 45/57/11
f 44/41/3 31/47/3 46/48/3
f 31/27/10 45/55/10 46/37/10
f 37/24/7 35/21/7 44/46/7
f 44/46/7 45/45/7 43/35/7
f 45/45/7 44/46/7 46/36/7
usemtl material_1_0
f 3/58/7 2/59/7 1/60/7
f 4/61/7 1/60/7 2/59/7
f 3/62/8 5/63/8 2/64/8
f 1/62/6 6/65/6 3/64/6
f 7/66/7 1/60/7 4/61/7
f 4/64/5 2/62/5 8/67/5
f 9/67/8 2/64/8 5/63/8
f 5/67/6 3/64/6 6/65/6
f 10/68/6 6/65/6 1/62/6
f 1/64/4 7/62/4 11/67/4
f 12/69/7 7/66/7 4/61/7
f 9/63/5 8/67/5 2/62/5
f 4/62/3 8/63/3 12/64/3
f 5/69/1 6/70/1 9/61/1
f 10/71/1 9/61/1 6/70/1
f 13/72/6 10/68/6 1/62/6
f 14/63/4 11/67/4 7/62/4
f 11/63/6 13/72/6 1/62/6
f 12/62/2 15/63/2 7/64/2
f 8/59/1 9/61/1 16/73/1
f 17/72/3 12/64/3 8/63/3
f 13/74/1 9/61/1 10/71/1
f 14/60/1 18/75/1 11/66/1
f 14/67/2 7/64/2 15/63/2
f 13/74/1 11/66/1 19/76/1
f 15/67/3 12/64/3 20/65/3
f 21/77/1 16/73/1 9/61/1
f 22/78/1 8/59/1 16/73/1
f 23/68/3 12/64/3 17/72/3
f 17/79/1 8/59/1 24/80/1
f 19/76/1 9/61/1 13/74/1
f 18/75/1 19/76/1 11/66/1
f 25/81/1 18/75/1 14/60/1
f 15/58/1 24/80/1 14/60/1
f 20/65/3 12/64/3 23/68/3
f 20/82/1 24/80/1 15/58/1
f 16/83/10 21/84/10 26/85/10
f 21/77/1 9/61/1 19/76/1
f 27/86/1 8/59/1 22/78/1
f 16/87/6 26/88/6 22/65/6
f 23/89/1 17/79/1 20/82/1
f 24/80/1 8/59/1 27/86/1
f 17/79/1 24/80/1 20/82/1
f 18/65/3 28/90/3 19/72/3
f 29/91/1 18/75/1 25/81/1
f 30/92/1 25/81/1 14/60/1
f 14/60/1 24/80/1 31/93/1
f 32/94/10 26/85/10 21/84/10
f 33/95/1 21/77/1 19/76/1
f 27/96/10 22/83/10 34/97/10
f 35/90/6 22/65/6 26/88/6
f 27/65/6 34/90/6 24/72/6
f 36/98/3 19/72/3 28/90/3
f 18/96/9 29/83/9 28/97/9
f 25/99/3 37/100/3 29/65/3
f 25/83/9 30/101/9 37/85/9
f 38/102/1 30/92/1 14/60/1
f 39/103/1 31/93/1 24/80/1
f 31/93/1 38/102/1 14/60/1
f 32/77/1 40/95/1 26/73/1
f 32/104/3 21/105/3 40/98/3
f 33/72/3 40/98/3 21/105/3
f 33/84/10 19/106/10 40/94/10
f 35/85/10 34/97/10 22/83/10
f 35/78/1 26/73/1 41/91/1
f 42/98/6 24/72/6 34/90/6
f 36/107/10 40/94/10 19/106/10
f 36/76/1 28/75/1 40/95/1
f 41/85/9 28/97/9 29/83/9
f 41/90/3 29/65/3 37/100/3
f 43/108/9 37/85/9 30/101/9
f 30/109/12 38/110/12 43/111/12
f 39/72/6 44/98/6 31/105/6
f 39/84/9 24/106/9 44/94/9
f 38/112/9 31/84/9 45/113/9
f 26/73/1 40/95/1 41/91/1
f 34/86/1 35/78/1 44/103/1
f 37/81/1 35/78/1 41/91/1
f 42/107/9 44/94/9 24/106/9
f 42/80/1 34/86/1 44/103/1
f 41/91/1 40/95/1 28/75/1
f 43/92/1 44/103/1 37/81/1
f 45/114/12 43/111/12 38/110/12
f 46/104/6 31/105/6 44/98/6
f 46/94/9 45/113/9 31/84/9
f 44/103/1 35/78/1 37/81/1
f 43/92/1 45/102/1 44/103/1
f 46/93/1 44/103/1 45/102/1
