# SSTK version 0.8.0
# 12
mtllib original-12.mtl
o mesh3/mesh3-geometry#mesh3-geometry
v 0.152406 -0.526384 0.628379
v 0.196746 -0.532157 0.620231
v 0.152406 -0.533519 0.628478
v 0.196746 -0.527962 0.620172
vt 0.033989 0.005331
vt 0.033468 0.00585
vt 0.033332 0.005331
vt 0.033854 0.00585
vn -0.1824382039232725 -0.013727844719882148 -0.9831214818264308
vn 0.1824382039232725 0.013727844719882148 0.9831214818264308
usemtl material_0_0
f 1/1/1 2/2/1 3/3/1
f 2/2/1 1/1/1 4/4/1
f 3/3/2 2/2/2 1/1/2
f 4/4/2 1/1/2 2/2/2
