# SSTK version 0.8.0
# 19
mtllib original-19.mtl
o cone1/cone/mesh5/mesh5-geometry#mesh5-geometry
v -0.551320 0.593736 0.111045
v 0.556978 0.480232 0.064030
v 0.556978 0.470880 0.111045
v 0.556978 0.506864 0.024173
v 0.556978 0.480232 0.158060
v 0.556978 0.546721 -0.002458
v 0.556978 0.506864 0.197917
v 0.556978 0.593736 -0.011810
v 0.556978 0.546721 0.224549
v 0.556978 0.640750 -0.002458
v 0.556978 0.593736 0.233900
v 0.556978 0.680608 0.024173
v 0.556978 0.640750 0.224549
v 0.556978 0.707239 0.064030
v 0.556978 0.680608 0.197917
v 0.556978 0.716591 0.111045
v 0.556978 0.707239 0.158060
vn -1 0 0
vn -0.11017566708661873 -0.9182552618305397 -0.38035325225709027
vn -0.11017567136151604 -0.9939121296372428 0
vn 0.11017567136151604 0.9939121296372428 0
vn 0.11017566708661873 0.9182552618305397 0.38035325225709027
vn 1 0 0
vn -0.11017556758819153 -0.7028020149041334 -0.7028020149041334
vn 0.11017556758819153 0.7028020149041334 0.7028020149041334
vn -0.11017566708661873 -0.9182552618305397 0.38035325225709027
vn 0.11017566708661873 0.9182552618305397 -0.38035325225709027
vn -0.1101756670866186 -0.38035325225709027 -0.9182552618305397
vn 0.1101756670866186 0.38035325225709027 0.9182552618305397
vn -0.11017556758819153 -0.7028020149041334 0.7028020149041334
vn 0.11017556758819153 0.7028020149041334 -0.7028020149041334
vn -0.11017567136151582 0 -0.9939121296372428
vn 0.11017567136151582 0 0.9939121296372428
vn -0.1101756670866186 -0.38035325225709027 0.9182552618305397
vn 0.1101756670866186 0.38035325225709027 -0.9182552618305397
vn -0.11017566708661845 0.38035325225709027 -0.9182552618305397
vn 0.11017566708661845 -0.38035325225709027 0.9182552618305397
vn -0.11017567136151582 0 0.9939121296372428
vn 0.11017567136151582 0 -0.9939121296372428
vn -0.11017556758819125 0.7028020149041336 -0.7028020149041336
vn 0.11017556758819125 -0.7028020149041336 0.7028020149041336
vn -0.11017566708661845 0.38035325225709027 0.9182552618305397
vn 0.11017566708661845 -0.38035325225709027 -0.9182552618305397
vn -0.11017566708661833 0.9182552618305397 -0.38035325225709027
vn 0.11017566708661833 -0.9182552618305397 0.38035325225709027
vn -0.11017556758819125 0.7028020149041336 0.7028020149041336
vn 0.11017556758819125 -0.7028020149041336 -0.7028020149041336
vn -0.11017567136151561 0.9939121296372428 0
vn 0.11017567136151561 -0.9939121296372428 0
vn -0.11017566708661833 0.9182552618305397 0.38035325225709027
vn 0.11017566708661833 -0.9182552618305397 -0.38035325225709027
usemtl material_0_0
f 1//1 2//2 3//3
f 3//4 2//5 1//6
f 1//1 4//7 2//2
f 2//5 4//8 1//6
f 1//1 3//3 5//9
f 5//10 3//4 1//6
f 4//7 1//1 6//11
f 6//12 1//6 4//8
f 1//1 5//9 7//13
f 7//14 5//10 1//6
f 6//11 1//1 8//15
f 8//16 1//6 6//12
f 7//13 9//17 1//1
f 1//6 9//18 7//14
f 1//1 10//19 8//15
f 8//16 10//20 1//6
f 9//17 11//21 1//1
f 1//6 11//22 9//18
f 1//1 12//23 10//19
f 10//20 12//24 1//6
f 11//21 13//25 1//1
f 1//6 13//26 11//22
f 1//1 14//27 12//23
f 12//24 14//28 1//6
f 1//1 13//25 15//29
f 15//30 13//26 1//6
f 1//1 16//31 14//27
f 14//28 16//32 1//6
f 1//1 15//29 17//33
f 17//34 15//30 1//6
f 1//1 17//33 16//31
f 16//32 17//34 1//6
