# SSTK version 0.8.0
# 11
mtllib original-11.mtl
o #ID70
v 0.114985 0.324217 -0.126035
v 0.006359 0.324217 -0.142969
v 0.092437 0.324217 -0.154281
v 0.028913 0.324217 -0.137388
v 0.049253 0.324217 -0.126159
v 0.065995 0.324217 -0.110049
v 0.129455 0.324217 -0.092916
v 0.077996 0.324217 -0.090155
v 0.134859 0.324217 -0.057181
v 0.084439 0.324217 -0.067832
v 0.084885 0.324217 -0.044602
v 0.130830 0.324217 -0.021264
v 0.079303 0.324217 -0.022049
v 0.068075 0.324217 -0.001708
v 0.117643 0.324217 0.012385
v 0.051964 0.324217 0.015033
v 0.096196 0.324217 0.041476
v 0.032070 0.324217 0.027034
v 0.009747 0.324217 0.033477
v -0.099560 0.324217 0.045234
v -0.070470 0.324217 0.066681
v 0.067950 0.324217 0.064024
v -0.036820 0.324217 0.079869
v 0.034832 0.324217 0.078493
v -0.000904 0.324217 0.083897
v 0.029697 0.324217 -0.188915
v -0.041955 0.324217 -0.187539
v -0.006219 0.324217 -0.192944
v -0.075074 0.324217 -0.173070
v 0.063347 0.324217 -0.175728
v -0.103319 0.324217 -0.150522
v -0.016870 0.324217 -0.142523
v -0.124766 0.324217 -0.121432
v -0.039193 0.324217 -0.136080
v -0.059088 0.324217 -0.124079
v -0.075198 0.324217 -0.107338
v -0.137953 0.324217 -0.087782
v -0.086427 0.324217 -0.086997
v -0.141982 0.324217 -0.051865
v -0.092008 0.324217 -0.064444
v -0.091562 0.324217 -0.041214
v -0.136578 0.324217 -0.016130
v -0.085119 0.324217 -0.018892
v -0.073118 0.324217 0.001003
v -0.122108 0.324217 0.016989
v -0.056376 0.324217 0.017113
v -0.036036 0.324217 0.028342
v -0.013482 0.324217 0.033923
v 0.009747 0.324217 0.033477
v -0.013482 0.324217 0.033923
v -0.099560 0.324217 0.045234
v -0.036036 0.324217 0.028342
v -0.056376 0.324217 0.017113
v -0.122108 0.324217 0.016989
v -0.073118 0.324217 0.001003
v -0.136578 0.324217 -0.016130
v -0.085119 0.324217 -0.018892
v -0.091562 0.324217 -0.041214
v -0.141982 0.324217 -0.051865
v -0.092008 0.324217 -0.064444
v -0.086427 0.324217 -0.086997
v -0.137953 0.324217 -0.087782
v -0.075198 0.324217 -0.107338
v -0.124766 0.324217 -0.121432
v -0.059088 0.324217 -0.124079
v -0.039193 0.324217 -0.136080
v -0.016870 0.324217 -0.142523
v 0.006359 0.324217 -0.142969
v 0.092437 0.324217 -0.154281
v -0.103319 0.324217 -0.150522
v 0.063347 0.324217 -0.175728
v -0.075074 0.324217 -0.173070
v 0.029697 0.324217 -0.188915
v -0.041955 0.324217 -0.187539
v -0.006219 0.324217 -0.192944
v -0.000904 0.324217 0.083897
v 0.034832 0.324217 0.078493
v -0.036820 0.324217 0.079869
v 0.067950 0.324217 0.064024
v -0.070470 0.324217 0.066681
v 0.096196 0.324217 0.041476
v 0.032070 0.324217 0.027034
v 0.051964 0.324217 0.015033
v 0.117643 0.324217 0.012385
v 0.068075 0.324217 -0.001708
v 0.130830 0.324217 -0.021264
v 0.079303 0.324217 -0.022049
v 0.084885 0.324217 -0.044602
v 0.134859 0.324217 -0.057181
v 0.084439 0.324217 -0.067832
v 0.077996 0.324217 -0.090155
v 0.129455 0.324217 -0.092916
v 0.065995 0.324217 -0.110049
v 0.114985 0.324217 -0.126035
v 0.049253 0.324217 -0.126159
v 0.028913 0.324217 -0.137388
vn 0 -1 0
vn 0 1 0
usemtl material_0_0
f 1//1 2//1 3//1
f 2//1 1//1 4//1
f 4//1 1//1 5//1
f 5//1 1//1 6//1
f 6//1 1//1 7//1
f 6//1 7//1 8//1
f 8//1 7//1 9//1
f 8//1 9//1 10//1
f 10//1 9//1 11//1
f 11//1 9//1 12//1
f 11//1 12//1 13//1
f 13//1 12//1 14//1
f 14//1 12//1 15//1
f 14//1 15//1 16//1
f 16//1 15//1 17//1
f 16//1 17//1 18//1
f 18//1 17//1 19//1
f 19//1 17//1 20//1
f 20//1 17//1 21//1
f 21//1 17//1 22//1
f 21//1 22//1 23//1
f 23//1 22//1 24//1
f 23//1 24//1 25//1
f 26//1 27//1 28//1
f 27//1 26//1 29//1
f 29//1 26//1 30//1
f 29//1 30//1 31//1
f 31//1 30//1 3//1
f 31//1 3//1 32//1
f 31//1 32//1 33//1
f 32//1 3//1 2//1
f 33//1 32//1 34//1
f 33//1 34//1 35//1
f 33//1 35//1 36//1
f 33//1 36//1 37//1
f 37//1 36//1 38//1
f 37//1 38//1 39//1
f 39//1 38//1 40//1
f 39//1 40//1 41//1
f 39//1 41//1 42//1
f 42//1 41//1 43//1
f 42//1 43//1 44//1
f 42//1 44//1 45//1
f 45//1 44//1 46//1
f 45//1 46//1 20//1
f 20//1 46//1 47//1
f 20//1 47//1 48//1
f 20//1 48//1 19//1
f 49//2 50//2 51//2
f 50//2 52//2 51//2
f 52//2 53//2 51//2
f 51//2 53//2 54//2
f 53//2 55//2 54//2
f 54//2 55//2 56//2
f 55//2 57//2 56//2
f 57//2 58//2 56//2
f 56//2 58//2 59//2
f 58//2 60//2 59//2
f 60//2 61//2 59//2
f 59//2 61//2 62//2
f 61//2 63//2 62//2
f 62//2 63//2 64//2
f 63//2 65//2 64//2
f 65//2 66//2 64//2
f 66//2 67//2 64//2
f 68//2 69//2 67//2
f 64//2 67//2 70//2
f 67//2 69//2 70//2
f 69//2 71//2 70//2
f 70//2 71//2 72//2
f 71//2 73//2 72//2
f 72//2 73//2 74//2
f 75//2 74//2 73//2
f 76//2 77//2 78//2
f 77//2 79//2 78//2
f 78//2 79//2 80//2
f 79//2 81//2 80//2
f 80//2 81//2 51//2
f 51//2 81//2 49//2
f 49//2 81//2 82//2
f 82//2 81//2 83//2
f 81//2 84//2 83//2
f 83//2 84//2 85//2
f 84//2 86//2 85//2
f 85//2 86//2 87//2
f 87//2 86//2 88//2
f 86//2 89//2 88//2
f 88//2 89//2 90//2
f 90//2 89//2 91//2
f 89//2 92//2 91//2
f 91//2 92//2 93//2
f 92//2 94//2 93//2
f 93//2 94//2 95//2
f 95//2 94//2 96//2
f 96//2 94//2 68//2
f 69//2 68//2 94//2
