# SSTK version 0.8.0
# 15
mtllib original-15.mtl
o #ID94
v -0.013550 0.477322 0.420428
v -0.013550 0.487560 0.420428
v -0.014223 0.482441 0.420441
v -0.011574 0.472552 0.420390
v -0.011574 0.492330 0.420390
v -0.008432 0.496427 0.420330
v -0.008432 0.468456 0.420330
v -0.004336 0.465313 0.420251
v -0.004336 0.482441 0.420251
v -0.003999 0.479882 0.420245
v 0.000433 0.463337 0.420160
v -0.003012 0.477497 0.420226
v -0.001440 0.475449 0.420196
v 0.000607 0.473877 0.420156
v 0.005551 0.462663 0.420062
v 0.002992 0.472889 0.420111
v 0.005551 0.472552 0.420062
v 0.010669 0.463337 0.419963
v 0.008110 0.472889 0.420012
v 0.010494 0.473877 0.419967
v 0.012542 0.475449 0.419927
v 0.015438 0.465313 0.419872
v 0.014113 0.477497 0.419897
v 0.015101 0.479882 0.419878
v 0.015438 0.482441 0.419872
v 0.019533 0.468456 0.419793
v 0.019533 0.496427 0.419793
v 0.022676 0.492330 0.419733
v 0.022676 0.472552 0.419733
v 0.024651 0.487560 0.419695
v 0.024651 0.477322 0.419695
v 0.025325 0.482441 0.419682
v -0.004336 0.499570 0.420251
v -0.003999 0.485001 0.420245
v 0.000433 0.501546 0.420160
v -0.003012 0.487386 0.420226
v -0.001440 0.489434 0.420196
v 0.000607 0.491005 0.420156
v 0.005551 0.502219 0.420062
v 0.002992 0.491993 0.420111
v 0.005551 0.492330 0.420062
v 0.008110 0.491993 0.420012
v 0.010669 0.501546 0.419963
v 0.010494 0.491005 0.419967
v 0.012542 0.489434 0.419927
v 0.015438 0.499570 0.419872
v 0.014113 0.487386 0.419897
v 0.015101 0.485001 0.419878
v 0.019533 0.496427 0.419793
v 0.015438 0.482441 0.419872
v 0.015438 0.499570 0.419872
v 0.015101 0.485001 0.419878
v 0.014113 0.487386 0.419897
v 0.012542 0.489434 0.419927
v 0.010669 0.501546 0.419963
v 0.010494 0.491005 0.419967
v 0.008110 0.491993 0.420012
v 0.005551 0.502219 0.420062
v 0.005551 0.492330 0.420062
v 0.002992 0.491993 0.420111
v 0.000607 0.491005 0.420156
v 0.000433 0.501546 0.420160
v -0.001440 0.489434 0.420196
v -0.003012 0.487386 0.420226
v -0.003999 0.485001 0.420245
v -0.004336 0.499570 0.420251
v -0.004336 0.482441 0.420251
v -0.008432 0.496427 0.420330
v 0.025325 0.482441 0.419682
v 0.024651 0.477322 0.419695
v 0.024651 0.487560 0.419695
v 0.022676 0.472552 0.419733
v 0.022676 0.492330 0.419733
v 0.019533 0.468456 0.419793
v 0.015438 0.465313 0.419872
v 0.015101 0.479882 0.419878
v 0.014113 0.477497 0.419897
v 0.012542 0.475449 0.419927
v 0.010669 0.463337 0.419963
v 0.010494 0.473877 0.419967
v 0.008110 0.472889 0.420012
v 0.005551 0.472552 0.420062
v 0.005551 0.462663 0.420062
v 0.002992 0.472889 0.420111
v 0.000607 0.473877 0.420156
v 0.000433 0.463337 0.420160
v -0.001440 0.475449 0.420196
v -0.003012 0.477497 0.420226
v -0.003999 0.479882 0.420245
v -0.004336 0.465313 0.420251
v -0.008432 0.468456 0.420330
v -0.011574 0.472552 0.420390
v -0.011574 0.492330 0.420390
v -0.013550 0.487560 0.420428
v -0.013550 0.477322 0.420428
v -0.014223 0.482441 0.420441
vn 0.01919744023354597 0 0.9998157121632363
vn -0.01919744023354597 0 -0.9998157121632363
usemtl material_0_0
f 1//1 2//1 3//1
f 2//1 1//1 4//1
f 2//1 4//1 5//1
f 5//1 4//1 6//1
f 6//1 4//1 7//1
f 6//1 7//1 8//1
f 6//1 8//1 9//1
f 9//1 8//1 10//1
f 10//1 8//1 11//1
f 10//1 11//1 12//1
f 12//1 11//1 13//1
f 13//1 11//1 14//1
f 14//1 11//1 15//1
f 14//1 15//1 16//1
f 16//1 15//1 17//1
f 17//1 15//1 18//1
f 17//1 18//1 19//1
f 19//1 18//1 20//1
f 20//1 18//1 21//1
f 21//1 18//1 22//1
f 21//1 22//1 23//1
f 23//1 22//1 24//1
f 24//1 22//1 25//1
f 25//1 22//1 26//1
f 25//1 26//1 27//1
f 27//1 26//1 28//1
f 28//1 26//1 29//1
f 28//1 29//1 30//1
f 30//1 29//1 31//1
f 30//1 31//1 32//1
f 9//1 33//1 6//1
f 33//1 9//1 34//1
f 33//1 34//1 35//1
f 35//1 34//1 36//1
f 35//1 36//1 37//1
f 35//1 37//1 38//1
f 35//1 38//1 39//1
f 39//1 38//1 40//1
f 39//1 40//1 41//1
f 39//1 41//1 42//1
f 39//1 42//1 43//1
f 43//1 42//1 44//1
f 43//1 44//1 45//1
f 43//1 45//1 46//1
f 46//1 45//1 47//1
f 46//1 47//1 48//1
f 46//1 48//1 25//1
f 46//1 25//1 27//1
f 49//2 50//2 51//2
f 50//2 52//2 51//2
f 52//2 53//2 51//2
f 53//2 54//2 51//2
f 51//2 54//2 55//2
f 54//2 56//2 55//2
f 56//2 57//2 55//2
f 55//2 57//2 58//2
f 57//2 59//2 58//2
f 59//2 60//2 58//2
f 60//2 61//2 58//2
f 58//2 61//2 62//2
f 61//2 63//2 62//2
f 63//2 64//2 62//2
f 64//2 65//2 62//2
f 62//2 65//2 66//2
f 65//2 67//2 66//2
f 68//2 66//2 67//2
f 69//2 70//2 71//2
f 70//2 72//2 71//2
f 71//2 72//2 73//2
f 72//2 74//2 73//2
f 73//2 74//2 49//2
f 49//2 74//2 50//2
f 74//2 75//2 50//2
f 50//2 75//2 76//2
f 76//2 75//2 77//2
f 77//2 75//2 78//2
f 75//2 79//2 78//2
f 78//2 79//2 80//2
f 80//2 79//2 81//2
f 81//2 79//2 82//2
f 79//2 83//2 82//2
f 82//2 83//2 84//2
f 84//2 83//2 85//2
f 83//2 86//2 85//2
f 85//2 86//2 87//2
f 87//2 86//2 88//2
f 88//2 86//2 89//2
f 86//2 90//2 89//2
f 89//2 90//2 67//2
f 67//2 90//2 68//2
f 90//2 91//2 68//2
f 91//2 92//2 68//2
f 68//2 92//2 93//2
f 93//2 92//2 94//2
f 92//2 95//2 94//2
f 96//2 94//2 95//2
