# SSTK version 0.8.0
# 8
mtllib original-8.mtl
o #ID52
v 0.029697 0.146215 -0.188915
v -0.041955 0.146215 -0.187539
v -0.006219 0.146215 -0.192944
v -0.075074 0.146215 -0.173070
v 0.063347 0.146215 -0.175728
v -0.103319 0.146215 -0.150522
v 0.092437 0.146215 -0.154281
v -0.124766 0.146215 -0.121432
v 0.114985 0.146215 -0.126035
v -0.137953 0.146215 -0.087782
v 0.129455 0.146215 -0.092916
v -0.141982 0.146215 -0.051865
v 0.134859 0.146215 -0.057181
v 0.130830 0.146215 -0.021264
v -0.136578 0.146215 -0.016130
v -0.122108 0.146215 0.016989
v 0.117643 0.146215 0.012385
v -0.099560 0.146215 0.045234
v 0.096196 0.146215 0.041476
v -0.070470 0.146215 0.066681
v 0.067950 0.146215 0.064024
v -0.036820 0.146215 0.079869
v 0.034832 0.146215 0.078493
v -0.000904 0.146215 0.083897
v -0.000904 0.146215 0.083897
v 0.034832 0.146215 0.078493
v -0.036820 0.146215 0.079869
v 0.067950 0.146215 0.064024
v -0.070470 0.146215 0.066681
v 0.096196 0.146215 0.041476
v -0.099560 0.146215 0.045234
v 0.117643 0.146215 0.012385
v -0.122108 0.146215 0.016989
v 0.130830 0.146215 -0.021264
v -0.136578 0.146215 -0.016130
v -0.141982 0.146215 -0.051865
v 0.134859 0.146215 -0.057181
v 0.129455 0.146215 -0.092916
v -0.137953 0.146215 -0.087782
v 0.114985 0.146215 -0.126035
v -0.124766 0.146215 -0.121432
v 0.092437 0.146215 -0.154281
v -0.103319 0.146215 -0.150522
v 0.063347 0.146215 -0.175728
v -0.075074 0.146215 -0.173070
v 0.029697 0.146215 -0.188915
v -0.041955 0.146215 -0.187539
v -0.006219 0.146215 -0.192944
vn 0 -1 0
vn 0 1 0
usemtl material_0_0
f 1//1 2//1 3//1
f 2//1 1//1 4//1
f 4//1 1//1 5//1
f 4//1 5//1 6//1
f 6//1 5//1 7//1
f 6//1 7//1 8//1
f 8//1 7//1 9//1
f 8//1 9//1 10//1
f 10//1 9//1 11//1
f 10//1 11//1 12//1
f 12//1 11//1 13//1
f 12//1 13//1 14//1
f 12//1 14//1 15//1
f 15//1 14//1 16//1
f 16//1 14//1 17//1
f 16//1 17//1 18//1
f 18//1 17//1 19//1
f 18//1 19//1 20//1
f 20//1 19//1 21//1
f 20//1 21//1 22//1
f 22//1 21//1 23//1
f 22//1 23//1 24//1
f 25//2 26//2 27//2
f 26//2 28//2 27//2
f 27//2 28//2 29//2
f 28//2 30//2 29//2
f 29//2 30//2 31//2
f 30//2 32//2 31//2
f 31//2 32//2 33//2
f 32//2 34//2 33//2
f 33//2 34//2 35//2
f 35//2 34//2 36//2
f 34//2 37//2 36//2
f 37//2 38//2 36//2
f 36//2 38//2 39//2
f 38//2 40//2 39//2
f 39//2 40//2 41//2
f 40//2 42//2 41//2
f 41//2 42//2 43//2
f 42//2 44//2 43//2
f 43//2 44//2 45//2
f 44//2 46//2 45//2
f 45//2 46//2 47//2
f 48//2 47//2 46//2
