# SSTK version 0.8.0
# 14
mtllib original-14.mtl
o #ID88
v -0.003999 0.479882 0.420245
v -0.003999 0.485001 0.420245
v -0.004336 0.482441 0.420251
v -0.003012 0.477497 0.420226
v -0.003012 0.487386 0.420226
v -0.001440 0.475449 0.420196
v -0.001440 0.489434 0.420196
v 0.000607 0.473877 0.420156
v 0.000607 0.491005 0.420156
v 0.002992 0.472889 0.420111
v 0.002992 0.491993 0.420111
v 0.005551 0.492330 0.420062
v 0.005551 0.472552 0.420062
v 0.008110 0.472889 0.420012
v 0.008110 0.491993 0.420012
v 0.010494 0.473877 0.419967
v 0.010494 0.491005 0.419967
v 0.012542 0.475449 0.419927
v 0.012542 0.489434 0.419927
v 0.014113 0.477497 0.419897
v 0.014113 0.487386 0.419897
v 0.015101 0.479882 0.419878
v 0.015101 0.485001 0.419878
v 0.015438 0.482441 0.419872
v 0.015438 0.482441 0.419872
v 0.015101 0.479882 0.419878
v 0.015101 0.485001 0.419878
v 0.014113 0.487386 0.419897
v 0.014113 0.477497 0.419897
v 0.012542 0.489434 0.419927
v 0.012542 0.475449 0.419927
v 0.010494 0.491005 0.419967
v 0.010494 0.473877 0.419967
v 0.008110 0.491993 0.420012
v 0.008110 0.472889 0.420012
v 0.005551 0.492330 0.420062
v 0.005551 0.472552 0.420062
v 0.002992 0.472889 0.420111
v 0.002992 0.491993 0.420111
v 0.000607 0.491005 0.420156
v 0.000607 0.473877 0.420156
v -0.001440 0.489434 0.420196
v -0.001440 0.475449 0.420196
v -0.003012 0.487386 0.420226
v -0.003012 0.477497 0.420226
v -0.003999 0.485001 0.420245
v -0.003999 0.479882 0.420245
v -0.004336 0.482441 0.420251
vn 0.01919744023354597 0 0.9998157121632363
vn -0.01919744023354597 0 -0.9998157121632363
usemtl material_0_0
f 1//1 2//1 3//1
f 2//1 1//1 4//1
f 2//1 4//1 5//1
f 5//1 4//1 6//1
f 5//1 6//1 7//1
f 7//1 6//1 8//1
f 7//1 8//1 9//1
f 9//1 8//1 10//1
f 9//1 10//1 11//1
f 11//1 10//1 12//1
f 12//1 10//1 13//1
f 12//1 13//1 14//1
f 12//1 14//1 15//1
f 15//1 14//1 16//1
f 15//1 16//1 17//1
f 17//1 16//1 18//1
f 17//1 18//1 19//1
f 19//1 18//1 20//1
f 19//1 20//1 21//1
f 21//1 20//1 22//1
f 21//1 22//1 23//1
f 23//1 22//1 24//1
f 25//2 26//2 27//2
f 27//2 26//2 28//2
f 26//2 29//2 28//2
f 28//2 29//2 30//2
f 29//2 31//2 30//2
f 30//2 31//2 32//2
f 31//2 33//2 32//2
f 32//2 33//2 34//2
f 33//2 35//2 34//2
f 34//2 35//2 36//2
f 35//2 37//2 36//2
f 37//2 38//2 36//2
f 36//2 38//2 39//2
f 39//2 38//2 40//2
f 38//2 41//2 40//2
f 40//2 41//2 42//2
f 41//2 43//2 42//2
f 42//2 43//2 44//2
f 43//2 45//2 44//2
f 44//2 45//2 46//2
f 45//2 47//2 46//2
f 48//2 46//2 47//2
