# SSTK version 0.8.0
# 12
mtllib original-12.mtl
o #ID76
v 0.039352 0.559519 -0.137588
v 0.028913 0.401039 -0.137388
v 0.028913 0.563844 -0.137388
v 0.039352 0.405364 -0.137588
v 0.057781 0.419508 -0.137942
v 0.057781 0.545375 -0.137942
v 0.071923 0.437941 -0.138214
v 0.071923 0.526942 -0.138214
v 0.080812 0.459406 -0.138385
v 0.080812 0.505476 -0.138385
v 0.083844 0.482441 -0.138443
v -0.028171 0.568410 -0.136292
v -0.039193 0.401039 -0.136080
v -0.039193 0.563844 -0.136080
v -0.028171 0.396473 -0.136292
v -0.005140 0.571443 -0.136734
v -0.005140 0.393440 -0.136734
v 0.017891 0.568410 -0.137176
v 0.017891 0.396473 -0.137176
vn -0.01919744023354597 0 -0.9998157121632363
vn -0.21740861413877602 0 -0.976080680322204
usemtl material_0_0
f 1//1 2//1 3//1
f 2//1 1//1 4//1
f 4//1 1//1 5//1
f 5//1 1//1 6//1
f 5//1 6//1 7//1
f 7//1 6//1 8//1
f 7//1 8//1 9//1
f 9//1 8//1 10//1
f 9//1 10//1 11//1
f 12//1 13//2 14//2
f 13//2 12//1 15//1
f 15//1 12//1 16//1
f 15//1 16//1 17//1
f 17//1 16//1 18//1
f 17//1 18//1 19//1
f 19//1 18//1 2//1
f 2//1 18//1 3//1
