# SSTK version 0.8.0
# 4
mtllib original-4.mtl
o #ID24
v -0.020284 0.558081 0.282086
v -0.000871 0.561503 0.232259
v -0.021234 0.558081 0.232650
v 0.000079 0.561503 0.281695
v 0.000079 0.561503 0.281695
v -0.020284 0.558081 0.282086
v -0.000871 0.561503 0.232259
v -0.021234 0.558081 0.232650
v -0.039068 0.549504 0.282447
v -0.040017 0.549504 0.233011
v -0.039068 0.549504 0.282447
v -0.040017 0.549504 0.233011
v -0.034193 0.412564 0.282353
v -0.025758 0.474763 0.282191
v -0.026768 0.482441 0.282211
v -0.014847 0.405345 0.281982
v -0.022795 0.467608 0.282134
v -0.018081 0.461464 0.282044
v -0.011938 0.456749 0.281926
v 0.005708 0.403380 0.281587
v -0.004784 0.453785 0.281788
v 0.002893 0.452775 0.281641
v 0.010570 0.453785 0.281494
v 0.026071 0.406802 0.281196
v 0.017724 0.456749 0.281356
v 0.023867 0.461464 0.281238
v 0.028581 0.467608 0.281148
v 0.044854 0.415379 0.280835
v 0.031544 0.474763 0.281091
v 0.032555 0.482441 0.281071
v 0.039979 0.552319 0.280929
v 0.056798 0.540337 0.280606
v 0.060778 0.428527 0.280530
v 0.069943 0.524410 0.280354
v 0.072757 0.445348 0.280300
v 0.078519 0.505623 0.280189
v 0.079975 0.464698 0.280161
v 0.081941 0.485256 0.280123
v -0.072732 0.459260 0.283093
v -0.074189 0.500185 0.283121
v -0.076154 0.479626 0.283159
v -0.066971 0.519535 0.282982
v -0.064157 0.440473 0.282928
v -0.054992 0.536356 0.282752
v -0.051012 0.424546 0.282676
v -0.039068 0.549504 0.282447
v -0.020284 0.558081 0.282086
v -0.025758 0.490120 0.282191
v -0.022795 0.497275 0.282134
v -0.018081 0.503419 0.282044
v 0.000079 0.561503 0.281695
v -0.011938 0.508134 0.281926
v -0.004784 0.511098 0.281788
v 0.002893 0.512108 0.281641
v 0.020634 0.559538 0.281300
v 0.010570 0.511098 0.281494
v 0.017724 0.508134 0.281356
v 0.023867 0.503419 0.281238
v 0.028581 0.497275 0.281148
v 0.031544 0.490120 0.281091
v 0.032555 0.482441 0.281071
v 0.031544 0.490120 0.281091
v 0.039979 0.552319 0.280929
v 0.028581 0.497275 0.281148
v 0.023867 0.503419 0.281238
v 0.020634 0.559538 0.281300
v 0.017724 0.508134 0.281356
v 0.010570 0.511098 0.281494
v 0.002893 0.512108 0.281641
v 0.000079 0.561503 0.281695
v -0.004784 0.511098 0.281788
v -0.011938 0.508134 0.281926
v -0.018081 0.503419 0.282044
v -0.020284 0.558081 0.282086
v -0.022795 0.497275 0.282134
v -0.025758 0.490120 0.282191
v -0.026768 0.482441 0.282211
v -0.034193 0.412564 0.282353
v -0.039068 0.549504 0.282447
v -0.051012 0.424546 0.282676
v -0.054992 0.536356 0.282752
v -0.064157 0.440473 0.282928
v -0.066971 0.519535 0.282982
v -0.072732 0.459260 0.283093
v -0.074189 0.500185 0.283121
v -0.076154 0.479626 0.283159
v 0.081941 0.485256 0.280123
v 0.079975 0.464698 0.280161
v 0.078519 0.505623 0.280189
v 0.072757 0.445348 0.280300
v 0.069943 0.524410 0.280354
v 0.060778 0.428527 0.280530
v 0.056798 0.540337 0.280606
v 0.044854 0.415379 0.280835
v 0.031544 0.474763 0.281091
v 0.028581 0.467608 0.281148
v 0.026071 0.406802 0.281196
v 0.023867 0.461464 0.281238
v 0.017724 0.456749 0.281356
v 0.010570 0.453785 0.281494
v 0.005708 0.403380 0.281587
v 0.002893 0.452775 0.281641
v -0.004784 0.453785 0.281788
v -0.011938 0.456749 0.281926
v -0.014847 0.405345 0.281982
v -0.018081 0.461464 0.282044
v -0.022795 0.467608 0.282134
v -0.025758 0.474763 0.282191
v 0.019684 0.559538 0.231865
v 0.020634 0.559538 0.281300
v 0.020634 0.559538 0.281300
v 0.019684 0.559538 0.231865
v -0.054992 0.536356 0.282752
v -0.055941 0.536356 0.233317
v -0.054992 0.536356 0.282752
v -0.055941 0.536356 0.233317
v 0.080991 0.485256 0.230687
v 0.079975 0.464698 0.280161
v 0.079026 0.464698 0.230725
v 0.081941 0.485256 0.280123
v 0.081941 0.485256 0.280123
v 0.080991 0.485256 0.230687
v 0.079975 0.464698 0.280161
v 0.079026 0.464698 0.230725
v 0.077569 0.505623 0.230753
v 0.078519 0.505623 0.280189
v 0.078519 0.505623 0.280189
v 0.077569 0.505623 0.230753
v 0.068994 0.524410 0.230918
v 0.069943 0.524410 0.280354
v 0.069943 0.524410 0.280354
v 0.068994 0.524410 0.230918
v 0.055849 0.540337 0.231170
v 0.056798 0.540337 0.280606
v 0.056798 0.540337 0.280606
v 0.055849 0.540337 0.231170
v 0.039979 0.552319 0.280929
v 0.039030 0.552319 0.231493
v 0.039979 0.552319 0.280929
v 0.039030 0.552319 0.231493
v -0.067920 0.519535 0.233547
v -0.066971 0.519535 0.282982
v -0.067920 0.519535 0.233547
v -0.066971 0.519535 0.282982
v -0.075138 0.500185 0.233685
v -0.074189 0.500185 0.283121
v -0.075138 0.500185 0.233685
v -0.074189 0.500185 0.283121
v -0.077103 0.479626 0.233723
v -0.076154 0.479626 0.283159
v -0.077103 0.479626 0.233723
v -0.076154 0.479626 0.283159
v -0.073682 0.459260 0.233657
v -0.072732 0.459260 0.283093
v -0.073682 0.459260 0.233657
v -0.072732 0.459260 0.283093
v -0.065106 0.440473 0.233493
v -0.064157 0.440473 0.282928
v -0.065106 0.440473 0.233493
v -0.064157 0.440473 0.282928
v -0.051961 0.424546 0.233240
v -0.051012 0.424546 0.282676
v -0.051961 0.424546 0.233240
v -0.051012 0.424546 0.282676
v -0.034193 0.412564 0.282353
v -0.035142 0.412564 0.232917
v -0.034193 0.412564 0.282353
v -0.035142 0.412564 0.232917
v -0.014847 0.405345 0.281982
v -0.015797 0.405345 0.232546
v -0.014847 0.405345 0.281982
v -0.015797 0.405345 0.232546
v 0.005708 0.403380 0.281587
v 0.004758 0.403380 0.232151
v 0.005708 0.403380 0.281587
v 0.004758 0.403380 0.232151
v 0.026071 0.406802 0.281196
v 0.025121 0.406802 0.231760
v 0.026071 0.406802 0.281196
v 0.025121 0.406802 0.231760
v 0.043905 0.415379 0.231400
v 0.044854 0.415379 0.280835
v 0.044854 0.415379 0.280835
v 0.043905 0.415379 0.231400
v 0.060778 0.428527 0.280530
v 0.059829 0.428527 0.231094
v 0.060778 0.428527 0.280530
v 0.059829 0.428527 0.231094
v 0.071808 0.445348 0.230864
v 0.072757 0.445348 0.280300
v 0.072757 0.445348 0.280300
v 0.071808 0.445348 0.230864
vn -0.2929706943698536 0.956104872892878 0.005625324074150361
vn -0.0355754416853558 0.999366760176712 0.0006830832994803287
vn 0.0355754416853558 -0.999366760176712 -0.0006830832994803287
vn 0.2929706943698536 -0.956104872892878 -0.005625324074150361
vn -0.5304005400141381 0.8476859967167794 0.010184209492698193
vn 0.5304005400141381 -0.8476859967167794 -0.010184209492698193
vn 0.019197440233545193 0 0.9998157121632363
vn -0.019197440233545193 0 -0.9998157121632363
vn 0.22424426024170419 0.9745234592436975 -0.004305709273553284
vn -0.22424426024170419 -0.9745234592436975 0.004305709273553284
vn -0.7316844511938199 0.6814987071608972 0.014049057592039978
vn 0.7316844511938199 -0.6814987071608972 -0.014049057592039978
vn 0.9991825890691252 0.035581998150334034 -0.019185283650475112
vn 0.9743438676160615 -0.2242855881659499 -0.01870835588791663
vn -0.9991825890691252 -0.035581998150334034 0.019185283650475112
vn -0.9743438676160615 0.2242855881659499 0.01870835588791663
vn 0.9559286763912027 0.29302468873965953 -0.018354766192707987
vn -0.9559286763912027 -0.29302468873965953 0.018354766192707987
vn 0.8475297843015848 0.5304982951240778 -0.01627340137021435
vn -0.8475297843015848 -0.5304982951240778 0.01627340137021435
vn 0.6813731241171491 0.7318193083228123 -0.013083030870440257
vn -0.6813731241171491 -0.7318193083228123 0.013083030870440257
vn 0.46878209062866244 0.8832679843374016 -0.009001074956032178
vn -0.46878209062866244 -0.8832679843374016 0.009001074956032178
vn -0.8831052135148921 0.4688684884896663 0.01695648443021914
vn 0.8831052135148921 -0.4688684884896663 -0.01695648443021914
usemtl material_0_0
f 1//1 2//2 3//1
f 2//2 1//1 4//2
f 5//3 6//4 7//3
f 8//4 7//3 6//4
f 9//5 3//1 10//5
f 3//1 9//5 1//1
f 6//4 11//6 8//4
f 12//6 8//4 11//6
f 13//7 14//7 15//7
f 14//7 13//7 16//7
f 14//7 16//7 17//7
f 17//7 16//7 18//7
f 18//7 16//7 19//7
f 19//7 16//7 20//7
f 19//7 20//7 21//7
f 21//7 20//7 22//7
f 22//7 20//7 23//7
f 23//7 20//7 24//7
f 23//7 24//7 25//7
f 25//7 24//7 26//7
f 26//7 24//7 27//7
f 27//7 24//7 28//7
f 27//7 28//7 29//7
f 29//7 28//7 30//7
f 30//7 28//7 31//7
f 31//7 28//7 32//7
f 32//7 28//7 33//7
f 32//7 33//7 34//7
f 34//7 33//7 35//7
f 34//7 35//7 36//7
f 36//7 35//7 37//7
f 36//7 37//7 38//7
f 39//7 40//7 41//7
f 40//7 39//7 42//7
f 42//7 39//7 43//7
f 42//7 43//7 44//7
f 44//7 43//7 45//7
f 44//7 45//7 46//7
f 46//7 45//7 13//7
f 46//7 13//7 47//7
f 47//7 13//7 15//7
f 47//7 15//7 48//7
f 47//7 48//7 49//7
f 47//7 49//7 50//7
f 47//7 50//7 51//7
f 51//7 50//7 52//7
f 51//7 52//7 53//7
f 51//7 53//7 54//7
f 51//7 54//7 55//7
f 55//7 54//7 56//7
f 55//7 56//7 57//7
f 55//7 57//7 58//7
f 55//7 58//7 31//7
f 31//7 58//7 59//7
f 31//7 59//7 60//7
f 31//7 60//7 30//7
f 61//8 62//8 63//8
f 62//8 64//8 63//8
f 64//8 65//8 63//8
f 63//8 65//8 66//8
f 65//8 67//8 66//8
f 67//8 68//8 66//8
f 68//8 69//8 66//8
f 66//8 69//8 70//8
f 69//8 71//8 70//8
f 71//8 72//8 70//8
f 72//8 73//8 70//8
f 70//8 73//8 74//8
f 73//8 75//8 74//8
f 75//8 76//8 74//8
f 76//8 77//8 74//8
f 77//8 78//8 74//8
f 74//8 78//8 79//8
f 78//8 80//8 79//8
f 79//8 80//8 81//8
f 80//8 82//8 81//8
f 81//8 82//8 83//8
f 82//8 84//8 83//8
f 83//8 84//8 85//8
f 86//8 85//8 84//8
f 87//8 88//8 89//8
f 88//8 90//8 89//8
f 89//8 90//8 91//8
f 90//8 92//8 91//8
f 91//8 92//8 93//8
f 92//8 94//8 93//8
f 93//8 94//8 63//8
f 63//8 94//8 61//8
f 61//8 94//8 95//8
f 95//8 94//8 96//8
f 94//8 97//8 96//8
f 96//8 97//8 98//8
f 98//8 97//8 99//8
f 99//8 97//8 100//8
f 97//8 101//8 100//8
f 100//8 101//8 102//8
f 102//8 101//8 103//8
f 103//8 101//8 104//8
f 101//8 105//8 104//8
f 104//8 105//8 106//8
f 106//8 105//8 107//8
f 107//8 105//8 108//8
f 105//8 78//8 108//8
f 77//8 108//8 78//8
f 4//2 109//9 2//2
f 109//9 4//2 110//9
f 111//10 5//3 112//10
f 7//3 112//10 5//3
f 113//11 10//5 114//11
f 10//5 113//11 9//5
f 11//6 115//12 12//6
f 116//12 12//6 115//12
f 117//13 118//14 119//14
f 118//14 117//13 120//13
f 121//15 122//15 123//16
f 124//16 123//16 122//15
f 125//17 120//13 117//13
f 120//13 125//17 126//17
f 127//18 128//18 121//15
f 122//15 121//15 128//18
f 129//19 126//17 125//17
f 126//17 129//19 130//19
f 131//20 132//20 127//18
f 128//18 127//18 132//20
f 133//21 130//19 129//19
f 130//19 133//21 134//21
f 135//22 136//22 131//20
f 132//20 131//20 136//22
f 137//23 133//21 138//23
f 133//21 137//23 134//21
f 135//22 139//24 136//22
f 140//24 136//22 139//24
f 110//9 138//23 109//9
f 138//23 110//9 137//23
f 139//24 111//10 140//24
f 112//10 140//24 111//10
f 113//11 141//25 142//25
f 141//25 113//11 114//11
f 116//12 115//12 143//26
f 144//26 143//26 115//12
f 142//25 145//16 146//16
f 145//16 142//25 141//25
f 143//26 144//26 147//14
f 148//14 147//14 144//26
f 146//16 149//15 150//15
f 149//15 146//16 145//16
f 147//14 148//14 151//13
f 152//13 151//13 148//14
f 150//15 153//18 154//18
f 153//18 150//15 149//15
f 151//13 152//13 155//17
f 156//17 155//17 152//13
f 154//18 157//20 158//20
f 157//20 154//18 153//18
f 155//17 156//17 159//19
f 160//19 159//19 156//17
f 158//20 161//22 162//22
f 161//22 158//20 157//20
f 159//19 160//19 163//21
f 164//21 163//21 160//19
f 165//24 161//22 166//24
f 161//22 165//24 162//22
f 164//21 167//23 163//21
f 168//23 163//21 167//23
f 169//10 166//24 170//10
f 166//24 169//10 165//24
f 167//23 171//9 168//23
f 172//9 168//23 171//9
f 173//3 170//10 174//3
f 170//10 173//3 169//10
f 171//9 175//2 172//9
f 176//2 172//9 175//2
f 177//4 174//3 178//4
f 174//3 177//4 173//3
f 175//2 179//1 176//2
f 180//1 176//2 179//1
f 181//6 177//4 178//4
f 177//4 181//6 182//6
f 183//5 184//5 179//1
f 180//1 179//1 184//5
f 185//12 181//6 186//12
f 181//6 185//12 182//6
f 183//5 187//11 184//5
f 188//11 184//5 187//11
f 189//26 185//12 186//12
f 185//12 189//26 190//26
f 191//25 192//25 187//11
f 188//11 187//11 192//25
f 119//14 190//26 189//26
f 190//26 119//14 118//14
f 123//16 124//16 191//25
f 192//25 191//25 124//16
