# SSTK version 0.8.0
# 1
mtllib original-1.mtl
o #ID4
v -0.086279 0.494058 0.233899
v -0.086849 0.470824 0.204237
v -0.086279 0.470824 0.233899
v -0.086849 0.494058 0.204237
v -0.086849 0.494058 0.204237
v -0.086279 0.494058 0.233899
v -0.086849 0.470824 0.204237
v -0.086279 0.470824 0.233899
v -0.080837 0.448382 0.204122
v -0.080267 0.448382 0.233784
v -0.080837 0.448382 0.204122
v -0.080267 0.448382 0.233784
v -0.080267 0.448382 0.233784
v -0.086279 0.494058 0.233899
v -0.086279 0.470824 0.233899
v -0.080267 0.516501 0.233784
v -0.077103 0.479626 0.233723
v -0.068652 0.428261 0.233561
v -0.073682 0.459260 0.233657
v -0.065106 0.440473 0.233493
v -0.052227 0.411832 0.233245
v -0.051961 0.424546 0.233240
v -0.032109 0.400215 0.232859
v -0.035142 0.412564 0.232917
v -0.015797 0.405345 0.232546
v -0.009671 0.394202 0.232428
v 0.004758 0.403380 0.232151
v 0.013559 0.394202 0.231982
v 0.025121 0.406802 0.231760
v 0.035997 0.400215 0.231551
v 0.043905 0.415379 0.231400
v 0.056114 0.411832 0.231165
v 0.059829 0.428527 0.231094
v 0.072540 0.428261 0.230850
v 0.071808 0.445348 0.230864
v 0.079026 0.464698 0.230725
v 0.084155 0.448382 0.230627
v 0.080991 0.485256 0.230687
v -0.075138 0.500185 0.233685
v -0.068652 0.536622 0.233561
v -0.067920 0.519535 0.233547
v -0.052227 0.553051 0.233245
v -0.055941 0.536356 0.233317
v -0.040017 0.549504 0.233011
v -0.032109 0.564668 0.232859
v -0.021234 0.558081 0.232650
v -0.009671 0.570681 0.232428
v -0.000871 0.561503 0.232259
v 0.013559 0.570681 0.231982
v 0.019684 0.559538 0.231865
v 0.035997 0.564668 0.231551
v 0.039030 0.552319 0.231493
v 0.056114 0.553051 0.231165
v 0.055849 0.540337 0.231170
v 0.068994 0.524410 0.230918
v 0.072540 0.536622 0.230850
v 0.077569 0.505623 0.230753
v 0.084155 0.516501 0.230627
v 0.090167 0.470824 0.230511
v 0.090167 0.494058 0.230511
v 0.090167 0.494058 0.230511
v 0.090167 0.470824 0.230511
v 0.084155 0.516501 0.230627
v 0.084155 0.448382 0.230627
v 0.080991 0.485256 0.230687
v 0.077569 0.505623 0.230753
v 0.072540 0.536622 0.230850
v 0.068994 0.524410 0.230918
v 0.056114 0.553051 0.231165
v 0.055849 0.540337 0.231170
v 0.039030 0.552319 0.231493
v 0.035997 0.564668 0.231551
v 0.019684 0.559538 0.231865
v 0.013559 0.570681 0.231982
v -0.000871 0.561503 0.232259
v -0.009671 0.570681 0.232428
v -0.021234 0.558081 0.232650
v -0.032109 0.564668 0.232859
v -0.040017 0.549504 0.233011
v -0.052227 0.553051 0.233245
v -0.055941 0.536356 0.233317
v -0.067920 0.519535 0.233547
v -0.068652 0.536622 0.233561
v -0.075138 0.500185 0.233685
v -0.077103 0.479626 0.233723
v -0.080267 0.516501 0.233784
v 0.079026 0.464698 0.230725
v 0.072540 0.428261 0.230850
v 0.071808 0.445348 0.230864
v 0.059829 0.428527 0.231094
v 0.056114 0.411832 0.231165
v 0.043905 0.415379 0.231400
v 0.035997 0.400215 0.231551
v 0.025121 0.406802 0.231760
v 0.013559 0.394202 0.231982
v 0.004758 0.403380 0.232151
v -0.009671 0.394202 0.232428
v -0.015797 0.405345 0.232546
v -0.032109 0.400215 0.232859
v -0.035142 0.412564 0.232917
v -0.051961 0.424546 0.233240
v -0.052227 0.411832 0.233245
v -0.065106 0.440473 0.233493
v -0.068652 0.428261 0.233561
v -0.073682 0.459260 0.233657
v -0.080267 0.448382 0.233784
v -0.086279 0.494058 0.233899
v -0.086279 0.470824 0.233899
v -0.080267 0.516501 0.233784
v -0.080837 0.516501 0.204122
v -0.080837 0.516501 0.204122
v -0.080267 0.516501 0.233784
v -0.069222 0.428261 0.203899
v -0.068652 0.428261 0.233561
v -0.069222 0.428261 0.203899
v -0.068652 0.428261 0.233561
v 0.089598 0.470824 0.200850
v 0.084155 0.448382 0.230627
v 0.083585 0.448382 0.200965
v 0.090167 0.470824 0.230511
v 0.090167 0.470824 0.230511
v 0.089598 0.470824 0.200850
v 0.084155 0.448382 0.230627
v 0.083585 0.448382 0.200965
v 0.089598 0.494058 0.200850
v 0.090167 0.494058 0.230511
v 0.090167 0.494058 0.230511
v 0.089598 0.494058 0.200850
v 0.083585 0.516501 0.200965
v 0.084155 0.516501 0.230627
v 0.084155 0.516501 0.230627
v 0.083585 0.516501 0.200965
v 0.071971 0.536622 0.201188
v 0.072540 0.536622 0.230850
v 0.072540 0.536622 0.230850
v 0.071971 0.536622 0.201188
v 0.055545 0.553051 0.201503
v 0.056114 0.553051 0.231165
v 0.056114 0.553051 0.231165
v 0.055545 0.553051 0.201503
v 0.035997 0.564668 0.231551
v 0.035427 0.564668 0.201890
v 0.035997 0.564668 0.231551
v 0.035427 0.564668 0.201890
v 0.013559 0.570681 0.231982
v 0.012989 0.570681 0.202320
v 0.013559 0.570681 0.231982
v 0.012989 0.570681 0.202320
v -0.009671 0.570681 0.232428
v -0.010240 0.570681 0.202767
v -0.009671 0.570681 0.232428
v -0.010240 0.570681 0.202767
v -0.032109 0.564668 0.232859
v -0.032679 0.564668 0.203197
v -0.032109 0.564668 0.232859
v -0.032679 0.564668 0.203197
v -0.052227 0.553051 0.233245
v -0.052796 0.553051 0.203584
v -0.052227 0.553051 0.233245
v -0.052796 0.553051 0.203584
v -0.068652 0.536622 0.233561
v -0.069222 0.536622 0.203899
v -0.068652 0.536622 0.233561
v -0.069222 0.536622 0.203899
v -0.052796 0.411832 0.203584
v -0.052227 0.411832 0.233245
v -0.052796 0.411832 0.203584
v -0.052227 0.411832 0.233245
v -0.032109 0.400215 0.232859
v -0.032679 0.400215 0.203197
v -0.032109 0.400215 0.232859
v -0.032679 0.400215 0.203197
v -0.009671 0.394202 0.232428
v -0.010240 0.394202 0.202767
v -0.009671 0.394202 0.232428
v -0.010240 0.394202 0.202767
v 0.013559 0.394202 0.231982
v 0.012989 0.394202 0.202320
v 0.013559 0.394202 0.231982
v 0.012989 0.394202 0.202320
v 0.035997 0.400215 0.231551
v 0.035427 0.400215 0.201890
v 0.035997 0.400215 0.231551
v 0.035427 0.400215 0.201890
v 0.056114 0.411832 0.231165
v 0.055545 0.411832 0.201503
v 0.056114 0.411832 0.231165
v 0.055545 0.411832 0.201503
v 0.072540 0.428261 0.230850
v 0.071971 0.428261 0.201188
v 0.072540 0.428261 0.230850
v 0.071971 0.428261 0.201188
vn -0.9912621500018333 0.13052619330799534 0.01903320346832968
vn -0.9912621500018333 -0.13052619330799534 0.019033203468329624
vn 0.9912621500018333 -0.13052619330799534 -0.01903320346832968
vn 0.9912621500018333 0.13052619330799534 -0.019033203468329624
vn -0.9237092810768722 -0.38268341226049185 0.017736122268249638
vn 0.9237092810768722 0.38268341226049185 -0.017736122268249638
vn 0.019197440233545277 0 0.9998157121632363
vn -0.019197440233545277 0 -0.9998157121632363
vn -0.9237092810768722 0.38268341226049185 0.017736122268249804
vn 0.9237092810768722 -0.38268341226049185 -0.017736122268249804
vn -0.7932071375752249 -0.6087614255482003 0.015230353385300294
vn 0.7932071375752249 0.6087614255482003 -0.015230353385300294
vn 0.6086492475429182 0.7933533357930609 -0.01168666126242034
vn -0.6086492475429182 -0.7933533357930609 0.01168666126242034
vn 0.3826128963082979 0.9238795375469292 -0.0073465420878110555
vn -0.3826128963082979 -0.9238795375469292 0.0073465420878110555
vn 0.13050214203933466 0.9914448608195976 -0.002505768854871237
vn -0.13050214203933466 -0.9914448608195976 0.002505768854871237
vn -0.13050214203933466 0.9914448608195976 0.0025057688548716776
vn 0.13050214203933466 -0.9914448608195976 -0.0025057688548716776
vn -0.3826128963082979 0.9238795375469292 0.007346542087811467
vn 0.3826128963082979 -0.9238795375469292 -0.007346542087811467
vn -0.6086492475429182 0.7933533357930609 0.011686661262420694
vn 0.6086492475429182 -0.7933533357930609 -0.011686661262420694
vn -0.7932071375752249 0.6087614255482003 0.015230353385300564
vn 0.7932071375752249 -0.6087614255482003 -0.015230353385300564
usemtl material_0_0
f 1//1 2//2 3//2
f 2//2 1//1 4//1
f 5//3 6//3 7//4
f 8//4 7//4 6//3
f 3//2 9//5 10//5
f 9//5 3//2 2//2
f 7//4 8//4 11//6
f 12//6 11//6 8//4
f 13//7 14//7 15//7
f 14//7 13//7 16//7
f 16//7 13//7 17//7
f 17//7 13//7 18//7
f 17//7 18//7 19//7
f 19//7 18//7 20//7
f 20//7 18//7 21//7
f 20//7 21//7 22//7
f 22//7 21//7 23//7
f 22//7 23//7 24//7
f 24//7 23//7 25//7
f 25//7 23//7 26//7
f 25//7 26//7 27//7
f 27//7 26//7 28//7
f 27//7 28//7 29//7
f 29//7 28//7 30//7
f 29//7 30//7 31//7
f 31//7 30//7 32//7
f 31//7 32//7 33//7
f 33//7 32//7 34//7
f 33//7 34//7 35//7
f 35//7 34//7 36//7
f 36//7 34//7 37//7
f 36//7 37//7 38//7
f 16//7 39//7 40//7
f 39//7 16//7 17//7
f 40//7 39//7 41//7
f 40//7 41//7 42//7
f 42//7 41//7 43//7
f 42//7 43//7 44//7
f 42//7 44//7 45//7
f 45//7 44//7 46//7
f 45//7 46//7 47//7
f 47//7 46//7 48//7
f 47//7 48//7 49//7
f 49//7 48//7 50//7
f 49//7 50//7 51//7
f 51//7 50//7 52//7
f 51//7 52//7 53//7
f 53//7 52//7 54//7
f 53//7 54//7 55//7
f 53//7 55//7 56//7
f 56//7 55//7 57//7
f 56//7 57//7 58//7
f 58//7 57//7 38//7
f 58//7 38//7 37//7
f 58//7 37//7 59//7
f 58//7 59//7 60//7
f 61//8 62//8 63//8
f 62//8 64//8 63//8
f 64//8 65//8 63//8
f 65//8 66//8 63//8
f 63//8 66//8 67//8
f 66//8 68//8 67//8
f 67//8 68//8 69//8
f 68//8 70//8 69//8
f 70//8 71//8 69//8
f 69//8 71//8 72//8
f 71//8 73//8 72//8
f 72//8 73//8 74//8
f 73//8 75//8 74//8
f 74//8 75//8 76//8
f 75//8 77//8 76//8
f 76//8 77//8 78//8
f 77//8 79//8 78//8
f 78//8 79//8 80//8
f 79//8 81//8 80//8
f 81//8 82//8 80//8
f 80//8 82//8 83//8
f 82//8 84//8 83//8
f 85//8 86//8 84//8
f 83//8 84//8 86//8
f 65//8 64//8 87//8
f 64//8 88//8 87//8
f 87//8 88//8 89//8
f 89//8 88//8 90//8
f 88//8 91//8 90//8
f 90//8 91//8 92//8
f 91//8 93//8 92//8
f 92//8 93//8 94//8
f 93//8 95//8 94//8
f 94//8 95//8 96//8
f 95//8 97//8 96//8
f 96//8 97//8 98//8
f 97//8 99//8 98//8
f 98//8 99//8 100//8
f 100//8 99//8 101//8
f 99//8 102//8 101//8
f 101//8 102//8 103//8
f 102//8 104//8 103//8
f 103//8 104//8 105//8
f 105//8 104//8 85//8
f 104//8 106//8 85//8
f 85//8 106//8 86//8
f 86//8 106//8 107//8
f 108//8 107//8 106//8
f 109//9 4//1 1//1
f 4//1 109//9 110//9
f 111//10 112//10 5//3
f 6//3 5//3 112//10
f 10//5 113//11 114//11
f 113//11 10//5 9//5
f 11//6 12//6 115//12
f 116//12 115//12 12//6
f 117//3 118//10 119//10
f 118//10 117//3 120//3
f 121//1 122//1 123//9
f 124//9 123//9 122//1
f 125//4 120//3 117//3
f 120//3 125//4 126//4
f 127//2 128//2 121//1
f 122//1 121//1 128//2
f 129//6 126//4 125//4
f 126//4 129//6 130//6
f 131//5 132//5 127//2
f 128//2 127//2 132//5
f 133//12 130//6 129//6
f 130//6 133//12 134//12
f 135//11 136//11 131//5
f 132//5 131//5 136//11
f 137//13 134//12 133//12
f 134//12 137//13 138//13
f 139//14 140//14 135//11
f 136//11 135//11 140//14
f 141//15 137//13 142//15
f 137//13 141//15 138//13
f 139//14 143//16 140//14
f 144//16 140//14 143//16
f 145//17 142//15 146//17
f 142//15 145//17 141//15
f 143//16 147//18 144//16
f 148//18 144//16 147//18
f 149//19 146//17 150//19
f 146//17 149//19 145//17
f 147//18 151//20 148//18
f 152//20 148//18 151//20
f 153//21 150//19 154//21
f 150//19 153//21 149//19
f 151//20 155//22 152//20
f 156//22 152//20 155//22
f 157//23 154//21 158//23
f 154//21 157//23 153//21
f 155//22 159//24 156//22
f 160//24 156//22 159//24
f 161//25 158//23 162//25
f 158//23 161//25 157//23
f 159//24 163//26 160//24
f 164//26 160//24 163//26
f 161//25 110//9 109//9
f 110//9 161//25 162//25
f 164//26 163//26 111//10
f 112//10 111//10 163//26
f 114//11 165//14 166//14
f 165//14 114//11 113//11
f 115//12 116//12 167//13
f 168//13 167//13 116//12
f 169//16 165//14 170//16
f 165//14 169//16 166//14
f 168//13 171//15 167//13
f 172//15 167//13 171//15
f 173//18 170//16 174//18
f 170//16 173//18 169//16
f 171//15 175//17 172//15
f 176//17 172//15 175//17
f 177//20 174//18 178//20
f 174//18 177//20 173//18
f 175//17 179//19 176//17
f 180//19 176//17 179//19
f 181//22 178//20 182//22
f 178//20 181//22 177//20
f 179//19 183//21 180//19
f 184//21 180//19 183//21
f 185//24 182//22 186//24
f 182//22 185//24 181//22
f 183//21 187//23 184//21
f 188//23 184//21 187//23
f 189//26 186//24 190//26
f 186//24 189//26 185//24
f 187//23 191//25 188//23
f 192//25 188//23 191//25
f 119//10 189//26 190//26
f 189//26 119//10 118//10
f 123//9 124//9 191//25
f 192//25 191//25 124//9
