# SSTK version 0.8.0
# 51
mtllib original-51.mtl
o mesh45/mesh45-geometry#mesh45-geometry
v 0.079561 0.682093 0.003362
v 0.086681 0.564728 0.003752
v 0.086681 0.682093 0.003752
v 0.079561 0.564728 0.003362
v 0.087054 0.682093 -0.003041
v 0.079934 0.564728 -0.003432
v 0.087054 0.564728 -0.003041
v 0.079934 0.682093 -0.003432
vn -0.054814974148332425 0 0.9984965290921733
vn 0.054814974148332425 0 -0.9984965290921733
vn 0.9984965290921733 0 0.054814974148332425
vn -0.9984965290921733 0 -0.054814974148332425
vn 0 1 0
vn 0 -1 0
usemtl material_0_0
f 1//1 2//1 3//1
f 2//1 1//1 4//1
f 3//2 2//2 1//2
f 4//2 1//2 2//2
f 2//3 5//3 3//3
f 3//4 5//4 2//4
f 5//5 1//5 3//5
f 3//6 1//6 5//6
f 1//4 6//4 4//4
f 4//3 6//3 1//3
f 4//6 7//6 2//6
f 2//5 7//5 4//5
f 5//3 2//3 7//3
f 7//4 2//4 5//4
f 1//5 5//5 8//5
f 8//6 5//6 1//6
f 6//4 1//4 8//4
f 8//3 1//3 6//3
f 7//6 4//6 6//6
f 6//5 4//5 7//5
f 7//2 8//2 5//2
f 5//1 8//1 7//1
f 8//2 7//2 6//2
f 6//1 7//1 8//1
