# SSTK version 0.8.0
# 53
mtllib original-53.mtl
o mesh47/mesh47-geometry#mesh47-geometry
v 0.077336 0.682093 -0.024492
v 0.084148 0.564728 -0.026601
v 0.084148 0.682093 -0.026601
v 0.077336 0.564728 -0.024492
v 0.082135 0.682093 -0.033100
v 0.075323 0.682093 -0.030991
v 0.075323 0.564728 -0.030991
v 0.082135 0.564728 -0.033100
vn 0.29582293545469657 0 0.9552427915765532
vn -0.29582293545469657 0 -0.9552427915765532
vn 0.9552427915765532 0 -0.29582293545469657
vn -0.9552427915765532 0 0.29582293545469657
vn 0 1 0
vn 0 -1 0
usemtl material_0_0
f 1//1 2//1 3//1
f 2//1 1//1 4//1
f 3//2 2//2 1//2
f 4//2 1//2 2//2
f 2//3 5//3 3//3
f 3//4 5//4 2//4
f 3//5 6//5 1//5
f 1//6 6//6 3//6
f 1//4 7//4 4//4
f 4//3 7//3 1//3
f 7//6 2//6 4//6
f 4//5 2//5 7//5
f 5//3 2//3 8//3
f 8//4 2//4 5//4
f 6//5 3//5 5//5
f 5//6 3//6 6//6
f 7//4 1//4 6//4
f 6//3 1//3 7//3
f 2//6 7//6 8//6
f 8//5 7//5 2//5
f 8//2 6//2 5//2
f 5//1 6//1 8//1
f 6//2 8//2 7//2
f 7//1 8//1 6//1
