# SSTK version 0.8.0
# 42
mtllib original-42.mtl
o mesh36/mesh36-geometry#mesh36-geometry
v -0.059878 0.564728 -0.065563
v -0.050044 0.564728 -0.064905
v -0.055058 0.564728 -0.060306
v -0.054863 0.564728 -0.070161
v -0.055058 0.682093 -0.060306
v -0.059878 0.682093 -0.065563
v -0.054863 0.682093 -0.070161
v -0.050044 0.682093 -0.064905
vn 0 -1 0
vn 0 1 0
vn 0.6758308101557731 0 0.7370567929570907
vn -0.6758308101557731 0 -0.7370567929570907
vn -0.7370567929570907 0 0.6758308101557731
vn 0.7370567929570907 0 -0.6758308101557731
usemtl material_0_0
f 1//1 2//1 3//1
f 2//1 1//1 4//1
f 3//2 2//2 1//2
f 4//2 1//2 2//2
f 2//3 5//3 3//3
f 3//4 5//4 2//4
f 5//5 1//5 3//5
f 3//6 1//6 5//6
f 6//4 4//4 1//4
f 1//3 4//3 6//3
f 7//6 2//6 4//6
f 4//5 2//5 7//5
f 5//3 2//3 8//3
f 8//4 2//4 5//4
f 1//5 5//5 6//5
f 6//6 5//6 1//6
f 4//4 6//4 7//4
f 7//3 6//3 4//3
f 2//6 7//6 8//6
f 8//5 7//5 2//5
f 8//2 6//2 5//2
f 5//1 6//1 8//1
f 6//2 8//2 7//2
f 7//1 8//1 6//1
