# SSTK version 0.8.0
# 41
mtllib original-41.mtl
o mesh35/mesh35-geometry#mesh35-geometry
v -0.077181 0.682093 0.008522
v -0.085080 0.682093 0.002626
v -0.084261 0.682093 0.009381
v -0.078000 0.682093 0.001768
v -0.085080 0.564728 0.002626
v -0.077181 0.564728 0.008522
v -0.084261 0.564728 0.009381
v -0.078000 0.564728 0.001768
vn 0 1 0
vn 0 -1 0
vn -0.992728365641779 0 0.1203760443369128
vn 0.992728365641779 0 -0.1203760443369128
vn 0.1203760443369128 0 0.992728365641779
vn -0.1203760443369128 0 -0.992728365641779
usemtl material_0_0
f 1//1 2//1 3//1
f 2//1 1//1 4//1
f 3//2 2//2 1//2
f 4//2 1//2 2//2
f 5//3 3//3 2//3
f 2//4 3//4 5//4
f 3//5 6//5 1//5
f 1//6 6//6 3//6
f 6//4 4//4 1//4
f 1//3 4//3 6//3
f 4//6 5//6 2//6
f 2//5 5//5 4//5
f 3//3 5//3 7//3
f 7//4 5//4 3//4
f 6//5 3//5 7//5
f 7//6 3//6 6//6
f 4//4 6//4 8//4
f 8//3 6//3 4//3
f 5//6 4//6 8//6
f 8//5 4//5 5//5
f 5//2 6//2 7//2
f 7//1 6//1 5//1
f 6//2 5//2 8//2
f 8//1 5//1 6//1
