# SSTK version 0.8.0
# 15
mtllib original-15.mtl
o mesh9/mesh9-geometry#mesh9-geometry
v 0.075552 0.682093 0.021609
v 0.082382 0.564728 0.023659
v 0.082382 0.682093 0.023659
v 0.075552 0.564728 0.021609
v 0.084338 0.682093 0.017142
v 0.077508 0.564728 0.015092
v 0.084338 0.564728 0.017142
v 0.077508 0.682093 0.015092
vn -0.28749990024315814 0 0.9577806676688427
vn 0.28749990024315814 0 -0.9577806676688427
vn 0.9577806676688427 0 0.28749990024315814
vn -0.9577806676688427 0 -0.28749990024315814
vn 0 1 0
vn 0 -1 0
usemtl material_0_0
f 1//1 2//1 3//1
f 2//1 1//1 4//1
f 3//2 2//2 1//2
f 4//2 1//2 2//2
f 2//3 5//3 3//3
f 3//4 5//4 2//4
f 5//5 1//5 3//5
f 3//6 1//6 5//6
f 1//4 6//4 4//4
f 4//3 6//3 1//3
f 4//6 7//6 2//6
f 2//5 7//5 4//5
f 5//3 2//3 7//3
f 7//4 2//4 5//4
f 1//5 5//5 8//5
f 8//6 5//6 1//6
f 6//4 1//4 8//4
f 8//3 1//3 6//3
f 7//6 4//6 6//6
f 6//5 4//5 7//5
f 7//2 8//2 5//2
f 5//1 8//1 7//1
f 8//2 7//2 6//2
f 6//1 7//1 8//1
