# SSTK version 0.8.0
# 27
mtllib original-27.mtl
o mesh21/mesh21-geometry#mesh21-geometry
v -0.037875 0.682093 -0.081394
v -0.034423 0.564728 -0.075154
v -0.037875 0.564728 -0.081394
v -0.034423 0.682093 -0.075154
v -0.043829 0.564728 -0.078100
v -0.043829 0.682093 -0.078100
v -0.040377 0.682093 -0.071860
v -0.040377 0.564728 -0.071860
vn 0.8750205599360832 0 -0.48408575654437863
vn -0.8750205599360832 0 0.48408575654437863
vn 0 -1 0
vn 0 1 0
vn -0.48408575654437863 0 -0.8750205599360832
vn 0.48408575654437863 0 0.8750205599360832
usemtl material_0_0
f 1//1 2//1 3//1
f 2//1 1//1 4//1
f 3//2 2//2 1//2
f 4//2 1//2 2//2
f 2//3 5//3 3//3
f 3//4 5//4 2//4
f 3//5 6//5 1//5
f 1//6 6//6 3//6
f 6//4 4//4 1//4
f 1//3 4//3 6//3
f 7//6 2//6 4//6
f 4//5 2//5 7//5
f 5//3 2//3 8//3
f 8//4 2//4 5//4
f 6//5 3//5 5//5
f 5//6 3//6 6//6
f 4//4 6//4 7//4
f 7//3 6//3 4//3
f 2//6 7//6 8//6
f 8//5 7//5 2//5
f 7//2 5//2 8//2
f 8//1 5//1 7//1
f 5//2 7//2 6//2
f 6//1 7//1 5//1
