# SSTK version 0.8.0
# 35
mtllib original-35.mtl
o mesh29/mesh29-geometry#mesh29-geometry
v -0.071981 0.682093 0.026466
v -0.081042 0.682093 0.022588
v -0.078661 0.682093 0.028961
v -0.074361 0.682093 0.020093
v -0.081042 0.564728 0.022588
v -0.071981 0.564728 0.026466
v -0.078661 0.564728 0.028961
v -0.074361 0.564728 0.020093
vn 0 1 0
vn 0 -1 0
vn -0.9367949125661243 0 0.34987896734474777
vn 0.9367949125661243 0 -0.34987896734474777
vn 0.34987896734474777 0 0.9367949125661243
vn -0.34987896734474777 0 -0.9367949125661243
usemtl material_0_0
f 1//1 2//1 3//1
f 2//1 1//1 4//1
f 3//2 2//2 1//2
f 4//2 1//2 2//2
f 5//3 3//3 2//3
f 2//4 3//4 5//4
f 3//5 6//5 1//5
f 1//6 6//6 3//6
f 6//4 4//4 1//4
f 1//3 4//3 6//3
f 4//6 5//6 2//6
f 2//5 5//5 4//5
f 3//3 5//3 7//3
f 7//4 5//4 3//4
f 6//5 3//5 7//5
f 7//6 3//6 6//6
f 4//4 6//4 8//4
f 8//3 6//3 4//3
f 5//6 4//6 8//6
f 8//5 4//5 5//5
f 5//2 6//2 7//2
f 7//1 6//1 5//1
f 6//2 5//2 8//2
f 8//1 5//1 6//1
