# SSTK version 0.8.0
# 59
mtllib original-59.mtl
o mesh53/mesh53-geometry#mesh53-geometry
v 0.048349 0.564728 0.058870
v 0.058133 0.564728 0.060066
v 0.052873 0.564728 0.064383
v 0.053609 0.564728 0.054554
v 0.052873 0.682093 0.064383
v 0.048349 0.682093 0.058870
v 0.053609 0.682093 0.054554
v 0.058133 0.682093 0.060066
vn 0 -1 0
vn 0 1 0
vn 0.6344131336692752 0 0.7729941628679546
vn -0.6344131336692752 0 -0.7729941628679546
vn -0.7729941628679546 0 0.6344131336692752
vn 0.7729941628679546 0 -0.6344131336692752
usemtl material_0_0
f 1//1 2//1 3//1
f 2//1 1//1 4//1
f 3//2 2//2 1//2
f 4//2 1//2 2//2
f 2//3 5//3 3//3
f 3//4 5//4 2//4
f 5//5 1//5 3//5
f 3//6 1//6 5//6
f 6//4 4//4 1//4
f 1//3 4//3 6//3
f 7//6 2//6 4//6
f 4//5 2//5 7//5
f 5//3 2//3 8//3
f 8//4 2//4 5//4
f 1//5 5//5 6//5
f 6//6 5//6 1//6
f 4//4 6//4 7//4
f 7//3 6//3 4//3
f 2//6 7//6 8//6
f 8//5 7//5 2//5
f 8//2 6//2 5//2
f 5//1 6//1 8//1
f 6//2 8//2 7//2
f 7//1 8//1 6//1
