# SSTK version 0.8.0
# 34
mtllib original-34.mtl
o mesh28/mesh28-geometry#mesh28-geometry
v -0.032117 0.682093 -0.076257
v -0.034807 0.564728 -0.082861
v -0.032117 0.564728 -0.076257
v -0.034807 0.682093 -0.082861
v -0.025816 0.564728 -0.078824
v -0.025816 0.682093 -0.078824
v -0.028507 0.564728 -0.085428
v -0.028507 0.682093 -0.085428
vn -0.9260711088865213 0 0.3773490443683259
vn 0.9260711088865213 0 -0.3773490443683259
vn 0 -1 0
vn 0 1 0
vn 0.3773490443683259 0 0.9260711088865213
vn -0.3773490443683259 0 -0.9260711088865213
usemtl material_0_0
f 1//1 2//1 3//1
f 2//1 1//1 4//1
f 3//2 2//2 1//2
f 4//2 1//2 2//2
f 2//3 5//3 3//3
f 3//4 5//4 2//4
f 5//5 1//5 3//5
f 3//6 1//6 5//6
f 6//4 4//4 1//4
f 1//3 4//3 6//3
f 4//6 7//6 2//6
f 2//5 7//5 4//5
f 5//3 2//3 7//3
f 7//4 2//4 5//4
f 1//5 5//5 6//5
f 6//6 5//6 1//6
f 4//4 6//4 8//4
f 8//3 6//3 4//3
f 7//6 4//6 8//6
f 8//5 4//5 7//5
f 8//2 5//2 7//2
f 7//1 5//1 8//1
f 5//2 8//2 6//2
f 6//1 8//1 5//1
