# SSTK version 0.8.0
# 32
mtllib original-32.mtl
o mesh26/mesh26-geometry#mesh26-geometry
v 0.031558 0.564728 -0.077251
v 0.040757 0.564728 -0.080788
v 0.037708 0.564728 -0.074342
v 0.034607 0.564728 -0.083697
v 0.040757 0.682093 -0.080788
v 0.031558 0.682093 -0.077251
v 0.034607 0.682093 -0.083697
v 0.037708 0.682093 -0.074342
vn 0 -1 0
vn 0 1 0
vn 0.9039946239559427 0 0.4275438221501441
vn -0.9039946239559427 0 -0.4275438221501441
vn -0.4275438221501441 0 0.9039946239559427
vn 0.4275438221501441 0 -0.9039946239559427
usemtl material_0_0
f 1//1 2//1 3//1
f 2//1 1//1 4//1
f 3//2 2//2 1//2
f 4//2 1//2 2//2
f 5//3 3//3 2//3
f 2//4 3//4 5//4
f 3//5 6//5 1//5
f 1//6 6//6 3//6
f 6//4 4//4 1//4
f 1//3 4//3 6//3
f 7//6 2//6 4//6
f 4//5 2//5 7//5
f 3//3 5//3 8//3
f 8//4 5//4 3//4
f 2//6 7//6 5//6
f 5//5 7//5 2//5
f 6//5 3//5 8//5
f 8//6 3//6 6//6
f 4//4 6//4 7//4
f 7//3 6//3 4//3
f 5//2 6//2 8//2
f 8//1 6//1 5//1
f 6//2 5//2 7//2
f 7//1 5//1 6//1
