# SSTK version 0.8.0
# 66
mtllib original-66.mtl
o mesh60/mesh60-geometry#mesh60-geometry
v -0.014663 0.564728 0.080440
v -0.006922 0.564728 0.074340
v -0.007927 0.564728 0.081400
v -0.013658 0.564728 0.073380
v -0.006922 0.682093 0.074340
v -0.014663 0.682093 0.080440
v -0.013658 0.682093 0.073380
v -0.007927 0.682093 0.081400
vn 0 -1 0
vn 0 1 0
vn 0.9900115978870708 0 0.14098594273575124
vn -0.9900115978870708 0 -0.14098594273575124
vn -0.14098594273575124 0 0.9900115978870708
vn 0.14098594273575124 0 -0.9900115978870708
usemtl material_0_0
f 1//1 2//1 3//1
f 2//1 1//1 4//1
f 3//2 2//2 1//2
f 4//2 1//2 2//2
f 5//3 3//3 2//3
f 2//4 3//4 5//4
f 3//5 6//5 1//5
f 1//6 6//6 3//6
f 6//4 4//4 1//4
f 1//3 4//3 6//3
f 7//6 2//6 4//6
f 4//5 2//5 7//5
f 3//3 5//3 8//3
f 8//4 5//4 3//4
f 2//6 7//6 5//6
f 5//5 7//5 2//5
f 6//5 3//5 8//5
f 8//6 3//6 6//6
f 4//4 6//4 7//4
f 7//3 6//3 4//3
f 5//2 6//2 8//2
f 8//1 6//1 5//1
f 6//2 5//2 7//2
f 7//1 5//1 6//1
