# SSTK version 0.8.0
# 51
mtllib original-51.mtl
o #ID269
v 0.094415 0.047155 -0.516589
v 0.098371 0.070398 -0.517461
v 0.098371 0.047155 -0.517461
v 0.094415 0.070398 -0.516589
v 0.094415 0.070398 -0.516589
v 0.094415 0.047155 -0.516589
v 0.098371 0.070398 -0.517461
v 0.098371 0.047155 -0.517461
v 0.102117 0.070398 -0.519006
v 0.102117 0.047155 -0.519006
v 0.102117 0.070398 -0.519006
v 0.102117 0.047155 -0.519006
v 0.090367 0.047155 -0.516418
v 0.090367 0.070398 -0.516418
v 0.090367 0.070398 -0.516418
v 0.090367 0.047155 -0.516418
v 0.105537 0.070398 -0.521178
v 0.105537 0.047155 -0.521178
v 0.105537 0.070398 -0.521178
v 0.105537 0.047155 -0.521178
v 0.086351 0.047155 -0.516952
v 0.086351 0.070398 -0.516952
v 0.086351 0.070398 -0.516952
v 0.086351 0.047155 -0.516952
v 0.108527 0.047155 -0.523912
v 0.108527 0.070398 -0.523912
v 0.108527 0.070398 -0.523912
v 0.108527 0.047155 -0.523912
v 0.082488 0.047155 -0.518175
v 0.082488 0.070398 -0.518175
v 0.082488 0.070398 -0.518175
v 0.082488 0.047155 -0.518175
v 0.110998 0.070398 -0.527122
v 0.110998 0.047155 -0.527122
v 0.110998 0.070398 -0.527122
v 0.110998 0.047155 -0.527122
v 0.078897 0.047155 -0.520051
v 0.078897 0.070398 -0.520051
v 0.078897 0.070398 -0.520051
v 0.078897 0.047155 -0.520051
v 0.112874 0.070398 -0.530714
v 0.112874 0.047155 -0.530714
v 0.112874 0.070398 -0.530714
v 0.112874 0.047155 -0.530714
v 0.075686 0.047155 -0.522522
v 0.075686 0.070398 -0.522522
v 0.075686 0.070398 -0.522522
v 0.075686 0.047155 -0.522522
v 0.114097 0.047155 -0.534576
v 0.114097 0.070398 -0.534576
v 0.114097 0.070398 -0.534576
v 0.114097 0.047155 -0.534576
v 0.072953 0.070398 -0.525513
v 0.072953 0.047155 -0.525513
v 0.072953 0.070398 -0.525513
v 0.072953 0.047155 -0.525513
v 0.114631 0.047155 -0.538592
v 0.114631 0.070398 -0.538592
v 0.114631 0.070398 -0.538592
v 0.114631 0.047155 -0.538592
v 0.070780 0.047155 -0.528932
v 0.070780 0.070398 -0.528932
v 0.070780 0.070398 -0.528932
v 0.070780 0.047155 -0.528932
v 0.114460 0.047155 -0.542640
v 0.114460 0.070398 -0.542640
v 0.114460 0.070398 -0.542640
v 0.114460 0.047155 -0.542640
v 0.069235 0.070398 -0.532678
v 0.069235 0.047155 -0.532678
v 0.069235 0.070398 -0.532678
v 0.069235 0.047155 -0.532678
v 0.113588 0.070398 -0.546597
v 0.113588 0.047155 -0.546597
v 0.113588 0.070398 -0.546597
v 0.113588 0.047155 -0.546597
v 0.068363 0.070398 -0.536634
v 0.068363 0.047155 -0.536634
v 0.068363 0.070398 -0.536634
v 0.068363 0.047155 -0.536634
v 0.112043 0.047155 -0.550342
v 0.112043 0.070398 -0.550342
v 0.112043 0.070398 -0.550342
v 0.112043 0.047155 -0.550342
v 0.068192 0.070398 -0.540682
v 0.068192 0.047155 -0.540682
v 0.068192 0.070398 -0.540682
v 0.068192 0.047155 -0.540682
v 0.109871 0.047155 -0.553762
v 0.109871 0.070398 -0.553762
v 0.109871 0.070398 -0.553762
v 0.109871 0.047155 -0.553762
v 0.068726 0.070398 -0.544699
v 0.068726 0.047155 -0.544699
v 0.068726 0.070398 -0.544699
v 0.068726 0.047155 -0.544699
v 0.107138 0.047155 -0.556753
v 0.107138 0.070398 -0.556753
v 0.107138 0.070398 -0.556753
v 0.107138 0.047155 -0.556753
v 0.069950 0.070398 -0.548561
v 0.069950 0.047155 -0.548561
v 0.069950 0.070398 -0.548561
v 0.069950 0.047155 -0.548561
v 0.103927 0.047155 -0.559224
v 0.103927 0.070398 -0.559224
v 0.103927 0.070398 -0.559224
v 0.103927 0.047155 -0.559224
v 0.071825 0.070398 -0.552152
v 0.071825 0.047155 -0.552152
v 0.071825 0.070398 -0.552152
v 0.071825 0.047155 -0.552152
v 0.100335 0.047155 -0.561099
v 0.100335 0.070398 -0.561099
v 0.100335 0.070398 -0.561099
v 0.100335 0.047155 -0.561099
v 0.074296 0.070398 -0.555363
v 0.074296 0.047155 -0.555363
v 0.074296 0.070398 -0.555363
v 0.074296 0.047155 -0.555363
v 0.096473 0.047155 -0.562323
v 0.096473 0.070398 -0.562323
v 0.096473 0.070398 -0.562323
v 0.096473 0.047155 -0.562323
v 0.077287 0.070398 -0.558096
v 0.077287 0.047155 -0.558096
v 0.077287 0.070398 -0.558096
v 0.077287 0.047155 -0.558096
v 0.092457 0.047155 -0.562857
v 0.092457 0.070398 -0.562857
v 0.092457 0.070398 -0.562857
v 0.092457 0.047155 -0.562857
v 0.080707 0.070398 -0.560269
v 0.080707 0.047155 -0.560269
v 0.080707 0.070398 -0.560269
v 0.080707 0.047155 -0.560269
v 0.088409 0.047155 -0.562686
v 0.088409 0.070398 -0.562686
v 0.088409 0.070398 -0.562686
v 0.088409 0.047155 -0.562686
v 0.084452 0.070398 -0.561814
v 0.084452 0.047155 -0.561814
v 0.084452 0.070398 -0.561814
v 0.084452 0.047155 -0.561814
vn -0.12919649214435175 0 -0.9916190127350294
vn -0.29942649636549673 0 -0.9541193705581514
vn 0.12919649214435175 0 0.9916190127350294
vn 0.29942649636549673 0 0.9541193705581514
vn -0.46055865655930467 0 -0.8876292716378209
vn 0.46055865655930467 0 0.8876292716378209
vn 0.04495914119602369 0 -0.9989888265756108
vn 0.04495914119602552 0 -0.9989888265756109
vn -0.04495914119602552 0 0.9989888265756109
vn -0.04495914119602369 0 0.9989888265756108
vn -0.6076969557759554 0 -0.7941690059053154
vn 0.6076969557759554 0 0.7941690059053154
vn 0.21774871356557282 0 -0.9760048656336392
vn -0.21774871356557282 0 0.9760048656336392
vn -0.7363706467013902 0 -0.6765783551641128
vn 0.7363706467013902 0 0.6765783551641128
vn 0.38392204383649237 0 -0.9233655095661796
vn -0.38392204383649237 0 0.9233655095661796
vn -0.8426701302944448 0 -0.5384301732904121
vn 0.8426701302944448 0 0.5384301732904121
vn 0.5384301732904121 0 -0.8426701302944448
vn -0.5384301732904121 0 0.8426701302944448
vn -0.9233655095661796 0 -0.38392204383649237
vn 0.9233655095661796 0 0.38392204383649237
vn 0.6765783551641128 0 -0.7363706467013902
vn -0.6765783551641128 0 0.7363706467013902
vn -0.9760048656336392 0 -0.21774871356557282
vn 0.9760048656336392 0 0.21774871356557282
vn 0.7941690059053154 0 -0.6076969557759554
vn -0.7941690059053154 0 0.6076969557759554
vn -0.9989888265756108 0 -0.04495914119602381
vn -0.9989888265756108 0 -0.044959141196023816
vn 0.9989888265756108 0 0.044959141196023816
vn 0.9989888265756108 0 0.04495914119602381
vn 0.8876292716378209 0 -0.46055865655930467
vn -0.8876292716378209 0 0.46055865655930467
vn -0.9916190127350294 0 0.12919649214435175
vn 0.9916190127350294 0 -0.12919649214435175
vn 0.9541193705581514 0 -0.29942649636549673
vn -0.9541193705581514 0 0.29942649636549673
vn 0.9989888265756108 0 0.04495914119602449
vn -0.9989888265756108 0 -0.04495914119602449
vn -0.04495914119602541 0 0.9989888265756109
vn -0.04495914119602358 0 0.9989888265756108
vn 0.04495914119602358 0 -0.9989888265756108
vn 0.04495914119602541 0 -0.9989888265756109
usemtl material_0_0
f 1//1 2//2 3//2
f 2//2 1//1 4//1
f 5//3 6//3 7//4
f 8//4 7//4 6//3
f 3//2 9//5 10//5
f 9//5 3//2 2//2
f 7//4 8//4 11//6
f 12//6 11//6 8//4
f 13//7 4//1 1//1
f 4//1 13//7 14//8
f 15//9 16//10 5//3
f 6//3 5//3 16//10
f 10//5 17//11 18//11
f 17//11 10//5 9//5
f 11//6 12//6 19//12
f 20//12 19//12 12//6
f 21//13 14//8 13//7
f 14//8 21//13 22//13
f 23//14 24//14 15//9
f 16//10 15//9 24//14
f 17//11 25//15 18//11
f 25//15 17//11 26//15
f 27//16 19//12 28//16
f 20//12 28//16 19//12
f 29//17 22//13 21//13
f 22//13 29//17 30//17
f 31//18 32//18 23//14
f 24//14 23//14 32//18
f 25//15 33//19 34//19
f 33//19 25//15 26//15
f 27//16 28//16 35//20
f 36//20 35//20 28//16
f 37//21 30//17 29//17
f 30//17 37//21 38//21
f 39//22 40//22 31//18
f 32//18 31//18 40//22
f 34//19 41//23 42//23
f 41//23 34//19 33//19
f 35//20 36//20 43//24
f 44//24 43//24 36//20
f 45//25 38//21 37//21
f 38//21 45//25 46//25
f 47//26 48//26 39//22
f 40//22 39//22 48//26
f 41//23 49//27 42//23
f 49//27 41//23 50//27
f 51//28 43//24 52//28
f 44//24 52//28 43//24
f 53//29 45//25 54//29
f 45//25 53//29 46//25
f 47//26 55//30 48//26
f 56//30 48//26 55//30
f 50//27 57//31 49//27
f 57//31 50//27 58//32
f 59//33 51//28 60//34
f 52//28 60//34 51//28
f 61//35 53//29 54//29
f 53//29 61//35 62//35
f 63//36 64//36 55//30
f 56//30 55//30 64//36
f 58//32 65//37 57//31
f 65//37 58//32 66//37
f 67//38 59//33 68//38
f 60//34 68//38 59//33
f 69//39 61//35 70//39
f 61//35 69//39 62//35
f 63//36 71//40 64//36
f 72//40 64//36 71//40
f 65//37 73//40 74//40
f 73//40 65//37 66//37
f 67//38 68//38 75//39
f 76//39 75//39 68//38
f 77//38 70//39 78//38
f 70//39 77//38 69//39
f 71//40 79//37 72//40
f 80//37 72//40 79//37
f 73//40 81//36 74//40
f 81//36 73//40 82//36
f 83//35 75//39 84//35
f 76//39 84//35 75//39
f 85//41 78//38 86//41
f 78//38 85//41 77//38
f 79//37 87//42 80//37
f 88//42 80//37 87//42
f 82//36 89//30 81//36
f 89//30 82//36 90//30
f 91//29 83//35 92//29
f 84//35 92//29 83//35
f 93//28 86//41 94//28
f 86//41 93//28 85//41
f 87//42 95//27 88//42
f 96//27 88//42 95//27
f 90//30 97//26 89//30
f 97//26 90//30 98//26
f 99//25 91//29 100//25
f 92//29 100//25 91//29
f 101//24 94//28 102//24
f 94//28 101//24 93//28
f 95//27 103//23 96//27
f 104//23 96//27 103//23
f 98//26 105//22 97//26
f 105//22 98//26 106//22
f 107//21 99//25 108//21
f 100//25 108//21 99//25
f 109//20 102//24 110//20
f 102//24 109//20 101//24
f 103//23 111//19 104//23
f 112//19 104//23 111//19
f 106//22 113//18 105//22
f 113//18 106//22 114//18
f 115//17 107//21 116//17
f 108//21 116//17 107//21
f 117//16 110//20 118//16
f 110//20 117//16 109//20
f 111//19 119//15 112//19
f 120//15 112//19 119//15
f 114//18 121//14 113//18
f 121//14 114//18 122//14
f 123//13 115//17 124//13
f 116//17 124//13 115//17
f 125//12 118//16 126//12
f 118//16 125//12 117//16
f 119//15 127//11 120//15
f 128//11 120//15 127//11
f 122//14 129//43 121//14
f 129//43 122//14 130//44
f 131//45 123//13 132//46
f 124//13 132//46 123//13
f 133//6 126//12 134//6
f 126//12 133//6 125//12
f 127//11 135//5 128//11
f 136//5 128//11 135//5
f 130//44 137//3 129//43
f 137//3 130//44 138//3
f 139//1 131//45 140//1
f 132//46 140//1 131//45
f 141//4 134//6 142//4
f 134//6 141//4 133//6
f 135//5 143//2 136//5
f 144//2 136//5 143//2
f 138//3 142//4 137//3
f 142//4 138//3 141//4
f 143//2 139//1 144//2
f 140//1 144//2 139//1
