# SSTK version 0.8.0
# 82
mtllib original-82.mtl
o #ID427
v 0.135755 0.102164 -0.314303
v 0.129388 0.102164 -0.317618
v 0.127542 0.102164 -0.314673
v 0.130765 0.102164 -0.321008
v 0.132109 0.102164 -0.329123
v 0.134759 0.102164 -0.343990
v 0.136623 0.102164 -0.340494
v 0.137894 0.102164 -0.336647
v 0.137715 0.102164 -0.319716
v 0.138572 0.102164 -0.332451
v 0.138656 0.102164 -0.327904
v 0.078196 0.102164 -0.317581
v 0.078623 0.102164 -0.335711
v 0.075841 0.102164 -0.320344
v 0.078985 0.102164 -0.329514
v 0.081077 0.102164 -0.315554
v 0.080706 0.102164 -0.325022
v 0.082075 0.102164 -0.323415
v 0.084484 0.102164 -0.314261
v 0.083785 0.102164 -0.322234
v 0.088223 0.102164 -0.321152
v 0.088416 0.102164 -0.313705
v 0.091006 0.102164 -0.321395
v 0.093495 0.102164 -0.314356
v 0.093472 0.102164 -0.322390
v 0.095623 0.102164 -0.323993
v 0.098281 0.102164 -0.316782
v 0.097466 0.102164 -0.326061
v 0.103357 0.102164 -0.335699
v 0.103136 0.102164 -0.321735
v 0.108177 0.102164 -0.343167
v 0.108425 0.102164 -0.329969
v 0.112510 0.102164 -0.347896
v 0.112575 0.102164 -0.336973
v 0.117061 0.102164 -0.350349
v 0.115812 0.102164 -0.341058
v 0.118952 0.102164 -0.342979
v 0.122530 0.102164 -0.350988
v 0.122809 0.102164 -0.343494
v 0.126259 0.102164 -0.350417
v 0.126916 0.102164 -0.342335
v 0.129541 0.102164 -0.349061
v 0.129925 0.102164 -0.339278
v 0.132374 0.102164 -0.346918
v 0.131702 0.102164 -0.334737
v 0.072188 0.102164 -0.332244
v 0.073596 0.102164 -0.345774
v 0.072138 0.102164 -0.337324
v 0.072822 0.102164 -0.327720
v 0.074998 0.102164 -0.350151
v 0.074040 0.102164 -0.323754
v 0.076591 0.102164 -0.353144
v 0.079219 0.102164 -0.340146
v 0.080622 0.102164 -0.344930
v 0.082659 0.102164 -0.349366
v 0.085156 0.102164 -0.352758
v 0.078623 0.102164 -0.335711
v 0.075841 0.102164 -0.320344
v 0.079219 0.102164 -0.340146
v 0.085156 0.102164 -0.352758
v 0.082659 0.102164 -0.349366
v 0.076591 0.102164 -0.353144
v 0.080622 0.102164 -0.344930
v 0.074040 0.102164 -0.323754
v 0.074998 0.102164 -0.350151
v 0.072822 0.102164 -0.327720
v 0.073596 0.102164 -0.345774
v 0.072188 0.102164 -0.332244
v 0.072138 0.102164 -0.337324
v 0.134759 0.102164 -0.343990
v 0.132109 0.102164 -0.329123
v 0.132374 0.102164 -0.346918
v 0.131702 0.102164 -0.334737
v 0.129925 0.102164 -0.339278
v 0.129541 0.102164 -0.349061
v 0.126916 0.102164 -0.342335
v 0.126259 0.102164 -0.350417
v 0.122809 0.102164 -0.343494
v 0.122530 0.102164 -0.350988
v 0.118952 0.102164 -0.342979
v 0.117061 0.102164 -0.350349
v 0.115812 0.102164 -0.341058
v 0.112575 0.102164 -0.336973
v 0.112510 0.102164 -0.347896
v 0.108425 0.102164 -0.329969
v 0.108177 0.102164 -0.343167
v 0.103136 0.102164 -0.321735
v 0.103357 0.102164 -0.335699
v 0.098281 0.102164 -0.316782
v 0.097466 0.102164 -0.326061
v 0.095623 0.102164 -0.323993
v 0.093495 0.102164 -0.314356
v 0.093472 0.102164 -0.322390
v 0.091006 0.102164 -0.321395
v 0.088416 0.102164 -0.313705
v 0.088223 0.102164 -0.321152
v 0.084484 0.102164 -0.314261
v 0.083785 0.102164 -0.322234
v 0.082075 0.102164 -0.323415
v 0.081077 0.102164 -0.315554
v 0.080706 0.102164 -0.325022
v 0.078985 0.102164 -0.329514
v 0.078196 0.102164 -0.317581
v 0.138656 0.102164 -0.327904
v 0.137715 0.102164 -0.319716
v 0.138572 0.102164 -0.332451
v 0.137894 0.102164 -0.336647
v 0.135755 0.102164 -0.314303
v 0.136623 0.102164 -0.340494
v 0.130765 0.102164 -0.321008
v 0.129388 0.102164 -0.317618
v 0.127542 0.102164 -0.314673
vn 0 1 0
vn 0 -1 0
usemtl material_0_0
f 57//2 58//2 59//2
f 60//2 61//2 62//2
f 61//2 63//2 62//2
f 63//2 59//2 62//2
f 59//2 58//2 62//2
f 58//2 64//2 62//2
f 62//2 64//2 65//2
f 64//2 66//2 65//2
f 65//2 66//2 67//2
f 66//2 68//2 67//2
f 69//2 67//2 68//2
f 70//2 71//2 72//2
f 71//2 73//2 72//2
f 73//2 74//2 72//2
f 72//2 74//2 75//2
f 74//2 76//2 75//2
f 75//2 76//2 77//2
f 76//2 78//2 77//2
f 77//2 78//2 79//2
f 78//2 80//2 79//2
f 79//2 80//2 81//2
f 80//2 82//2 81//2
f 82//2 83//2 81//2
f 81//2 83//2 84//2
f 83//2 85//2 84//2
f 84//2 85//2 86//2
f 85//2 87//2 86//2
f 86//2 87//2 88//2
f 87//2 89//2 88//2
f 88//2 89//2 90//2
f 90//2 89//2 91//2
f 89//2 92//2 91//2
f 91//2 92//2 93//2
f 93//2 92//2 94//2
f 92//2 95//2 94//2
f 94//2 95//2 96//2
f 95//2 97//2 96//2
f 96//2 97//2 98//2
f 98//2 97//2 99//2
f 97//2 100//2 99//2
f 99//2 100//2 101//2
f 101//2 100//2 102//2
f 100//2 103//2 102//2
f 102//2 103//2 57//2
f 58//2 57//2 103//2
f 104//2 105//2 106//2
f 106//2 105//2 107//2
f 105//2 108//2 107//2
f 107//2 108//2 109//2
f 109//2 108//2 70//2
f 70//2 108//2 71//2
f 71//2 108//2 110//2
f 110//2 108//2 111//2
f 112//2 111//2 108//2
usemtl material_1_0
f 1//1 2//1 3//1
f 2//1 1//1 4//1
f 4//1 1//1 5//1
f 5//1 1//1 6//1
f 6//1 1//1 7//1
f 7//1 1//1 8//1
f 8//1 1//1 9//1
f 8//1 9//1 10//1
f 10//1 9//1 11//1
f 12//1 13//1 14//1
f 13//1 12//1 15//1
f 15//1 12//1 16//1
f 15//1 16//1 17//1
f 17//1 16//1 18//1
f 18//1 16//1 19//1
f 18//1 19//1 20//1
f 20//1 19//1 21//1
f 21//1 19//1 22//1
f 21//1 22//1 23//1
f 23//1 22//1 24//1
f 23//1 24//1 25//1
f 25//1 24//1 26//1
f 26//1 24//1 27//1
f 26//1 27//1 28//1
f 28//1 27//1 29//1
f 29//1 27//1 30//1
f 29//1 30//1 31//1
f 31//1 30//1 32//1
f 31//1 32//1 33//1
f 33//1 32//1 34//1
f 33//1 34//1 35//1
f 35//1 34//1 36//1
f 35//1 36//1 37//1
f 35//1 37//1 38//1
f 38//1 37//1 39//1
f 38//1 39//1 40//1
f 40//1 39//1 41//1
f 40//1 41//1 42//1
f 42//1 41//1 43//1
f 42//1 43//1 44//1
f 44//1 43//1 45//1
f 44//1 45//1 5//1
f 44//1 5//1 6//1
f 46//1 47//1 48//1
f 47//1 46//1 49//1
f 47//1 49//1 50//1
f 50//1 49//1 51//1
f 50//1 51//1 52//1
f 52//1 51//1 14//1
f 52//1 14//1 53//1
f 52//1 53//1 54//1
f 52//1 54//1 55//1
f 52//1 55//1 56//1
f 53//1 14//1 13//1
