# SSTK version 0.8.0
# 39
mtllib original-39.mtl
o group_12/ID172#ID172
v -0.008725 0.032434 0.510730
v 0.000799 0.032434 0.512496
v -0.003886 0.032434 0.511196
v -0.013572 0.032434 0.511112
v 0.005187 0.032434 0.514589
v -0.018279 0.032434 0.512329
v 0.009145 0.032434 0.517412
v -0.022703 0.032434 0.514345
v 0.012553 0.032434 0.520880
v -0.026710 0.032434 0.517099
v 0.015307 0.032434 0.524886
v -0.030178 0.032434 0.520507
v 0.017323 0.032434 0.529310
v -0.033001 0.032434 0.524465
v 0.018540 0.032434 0.534017
v -0.035094 0.032434 0.528853
v 0.018922 0.032434 0.538864
v -0.036393 0.032434 0.533538
v 0.018456 0.032434 0.543704
v -0.036859 0.032434 0.538378
v 0.017157 0.032434 0.548389
v -0.036478 0.032434 0.543224
v 0.015064 0.032434 0.552777
v -0.035261 0.032434 0.547931
v 0.012240 0.032434 0.556735
v -0.033245 0.032434 0.552355
v 0.008773 0.032434 0.560143
v -0.030491 0.032434 0.556362
v 0.004766 0.032434 0.562897
v -0.027083 0.032434 0.559830
v 0.000342 0.032434 0.564913
v -0.023125 0.032434 0.562653
v -0.004365 0.032434 0.566130
v -0.018737 0.032434 0.564746
v -0.009212 0.032434 0.566512
v -0.014052 0.032434 0.566046
v -0.014052 0.032434 0.566046
v -0.018737 0.032434 0.564746
v -0.009212 0.032434 0.566512
v -0.004365 0.032434 0.566130
v -0.023125 0.032434 0.562653
v 0.000342 0.032434 0.564913
v -0.027083 0.032434 0.559830
v 0.004766 0.032434 0.562897
v -0.030491 0.032434 0.556362
v 0.008773 0.032434 0.560143
v -0.033245 0.032434 0.552355
v 0.012240 0.032434 0.556735
v -0.035261 0.032434 0.547931
v 0.015064 0.032434 0.552777
v -0.036478 0.032434 0.543224
v 0.017157 0.032434 0.548389
v -0.036859 0.032434 0.538378
v 0.018456 0.032434 0.543704
v -0.036393 0.032434 0.533538
v 0.018922 0.032434 0.538864
v -0.035094 0.032434 0.528853
v 0.018540 0.032434 0.534017
v -0.033001 0.032434 0.524465
v 0.017323 0.032434 0.529310
v -0.030178 0.032434 0.520507
v 0.015307 0.032434 0.524886
v -0.026710 0.032434 0.517099
v 0.012553 0.032434 0.520880
v -0.022703 0.032434 0.514345
v 0.009145 0.032434 0.517412
v -0.018279 0.032434 0.512329
v 0.005187 0.032434 0.514589
v -0.013572 0.032434 0.511112
v 0.000799 0.032434 0.512496
v -0.008725 0.032434 0.510730
v -0.003886 0.032434 0.511196
v 0.009145 0.032434 0.517412
v 0.005187 -0.045043 0.514589
v 0.005187 0.032434 0.514589
v 0.009145 -0.045043 0.517412
v 0.009145 -0.045043 0.517412
v 0.009145 0.032434 0.517412
v 0.005187 -0.045043 0.514589
v 0.005187 0.032434 0.514589
v 0.000799 -0.045043 0.512496
v 0.000799 0.032434 0.512496
v 0.000799 -0.045043 0.512496
v 0.000799 0.032434 0.512496
v -0.003886 -0.045043 0.511196
v -0.003886 0.032434 0.511196
v -0.003886 -0.045043 0.511196
v -0.003886 0.032434 0.511196
v -0.008725 -0.045043 0.510730
v -0.008725 0.032434 0.510730
v -0.008725 -0.045043 0.510730
v -0.008725 0.032434 0.510730
v -0.013572 -0.045043 0.511112
v -0.013572 0.032434 0.511112
v -0.013572 -0.045043 0.511112
v -0.013572 0.032434 0.511112
v -0.018279 -0.045043 0.512329
v -0.018279 0.032434 0.512329
v -0.018279 -0.045043 0.512329
v -0.018279 0.032434 0.512329
v -0.022703 -0.045043 0.514345
v -0.022703 0.032434 0.514345
v -0.022703 -0.045043 0.514345
v -0.022703 0.032434 0.514345
v -0.026710 0.032434 0.517099
v -0.026710 -0.045043 0.517099
v -0.026710 0.032434 0.517099
v -0.026710 -0.045043 0.517099
v -0.030178 0.032434 0.520507
v -0.030178 -0.045043 0.520507
v -0.030178 0.032434 0.520507
v -0.030178 -0.045043 0.520507
v -0.033001 0.032434 0.524465
v -0.033001 -0.045043 0.524465
v -0.033001 0.032434 0.524465
v -0.033001 -0.045043 0.524465
v -0.035094 0.032434 0.528853
v -0.035094 -0.045043 0.528853
v -0.035094 0.032434 0.528853
v -0.035094 -0.045043 0.528853
v -0.036393 0.032434 0.533538
v -0.036393 -0.045043 0.533538
v -0.036393 0.032434 0.533538
v -0.036393 -0.045043 0.533538
v -0.036859 0.032434 0.538378
v -0.036859 -0.045043 0.538378
v -0.036859 0.032434 0.538378
v -0.036859 -0.045043 0.538378
v -0.036478 -0.045043 0.543224
v -0.036478 0.032434 0.543224
v -0.036478 0.032434 0.543224
v -0.036478 -0.045043 0.543224
v -0.035261 0.032434 0.547931
v -0.035261 -0.045043 0.547931
v -0.035261 0.032434 0.547931
v -0.035261 -0.045043 0.547931
v -0.033245 0.032434 0.552355
v -0.033245 -0.045043 0.552355
v -0.033245 0.032434 0.552355
v -0.033245 -0.045043 0.552355
v -0.030491 0.032434 0.556362
v -0.030491 -0.045043 0.556362
v -0.030491 0.032434 0.556362
v -0.030491 -0.045043 0.556362
v -0.027083 -0.045043 0.559830
v -0.027083 0.032434 0.559830
v -0.027083 0.032434 0.559830
v -0.027083 -0.045043 0.559830
v -0.023125 -0.045043 0.562653
v -0.023125 0.032434 0.562653
v -0.023125 0.032434 0.562653
v -0.023125 -0.045043 0.562653
v -0.018737 -0.045043 0.564746
v -0.018737 0.032434 0.564746
v -0.018737 0.032434 0.564746
v -0.018737 -0.045043 0.564746
v -0.014052 -0.045043 0.566046
v -0.014052 0.032434 0.566046
v -0.014052 0.032434 0.566046
v -0.014052 -0.045043 0.566046
v -0.009212 -0.045043 0.566512
v -0.009212 0.032434 0.566512
v -0.009212 0.032434 0.566512
v -0.009212 -0.045043 0.566512
v -0.004365 -0.045043 0.566130
v -0.004365 0.032434 0.566130
v -0.004365 0.032434 0.566130
v -0.004365 -0.045043 0.566130
v 0.000342 -0.045043 0.564913
v 0.000342 0.032434 0.564913
v 0.000342 0.032434 0.564913
v 0.000342 -0.045043 0.564913
v 0.004766 -0.045043 0.562897
v 0.004766 0.032434 0.562897
v 0.004766 0.032434 0.562897
v 0.004766 -0.045043 0.562897
v 0.008773 0.032434 0.560143
v 0.008773 -0.045043 0.560143
v 0.008773 0.032434 0.560143
v 0.008773 -0.045043 0.560143
v 0.012240 0.032434 0.556735
v 0.012240 -0.045043 0.556735
v 0.012240 0.032434 0.556735
v 0.012240 -0.045043 0.556735
v 0.015064 0.032434 0.552777
v 0.015064 -0.045043 0.552777
v 0.015064 0.032434 0.552777
v 0.015064 -0.045043 0.552777
v 0.017157 0.032434 0.548389
v 0.017157 -0.045043 0.548389
v 0.017157 0.032434 0.548389
v 0.017157 -0.045043 0.548389
v 0.018456 0.032434 0.543704
v 0.018456 -0.045043 0.543704
v 0.018456 0.032434 0.543704
v 0.018456 -0.045043 0.543704
v 0.018922 0.032434 0.538864
v 0.018922 -0.045043 0.538864
v 0.018922 0.032434 0.538864
v 0.018922 -0.045043 0.538864
v 0.018540 0.032434 0.534017
v 0.018540 -0.045043 0.534017
v 0.018540 0.032434 0.534017
v 0.018540 -0.045043 0.534017
v 0.017323 0.032434 0.529310
v 0.017323 -0.045043 0.529310
v 0.017323 0.032434 0.529310
v 0.017323 -0.045043 0.529310
v 0.015307 0.032434 0.524886
v 0.015307 -0.045043 0.524886
v 0.015307 0.032434 0.524886
v 0.015307 -0.045043 0.524886
v 0.012553 0.032434 0.520880
v 0.012553 -0.045043 0.520880
v 0.012553 0.032434 0.520880
v 0.012553 -0.045043 0.520880
v 0.000799 -0.045043 0.512496
v -0.008725 -0.045043 0.510730
v -0.003886 -0.045043 0.511196
v 0.005187 -0.045043 0.514589
v -0.013572 -0.045043 0.511112
v 0.009145 -0.045043 0.517412
v -0.018279 -0.045043 0.512329
v 0.012553 -0.045043 0.520880
v -0.022703 -0.045043 0.514345
v 0.015307 -0.045043 0.524886
v -0.026710 -0.045043 0.517099
v 0.017323 -0.045043 0.529310
v -0.030178 -0.045043 0.520507
v 0.018540 -0.045043 0.534017
v -0.033001 -0.045043 0.524465
v 0.018922 -0.045043 0.538864
v -0.035094 -0.045043 0.528853
v 0.018456 -0.045043 0.543704
v -0.036393 -0.045043 0.533538
v 0.017157 -0.045043 0.548389
v -0.036859 -0.045043 0.538378
v 0.015064 -0.045043 0.552777
v -0.036478 -0.045043 0.543224
v 0.012240 -0.045043 0.556735
v -0.035261 -0.045043 0.547931
v 0.008773 -0.045043 0.560143
v -0.033245 -0.045043 0.552355
v 0.004766 -0.045043 0.562897
v -0.030491 -0.045043 0.556362
v 0.000342 -0.045043 0.564913
v -0.027083 -0.045043 0.559830
v -0.004365 -0.045043 0.566130
v -0.023125 -0.045043 0.562653
v -0.009212 -0.045043 0.566512
v -0.018737 -0.045043 0.564746
v -0.014052 -0.045043 0.566046
v -0.014052 -0.045043 0.566046
v -0.009212 -0.045043 0.566512
v -0.018737 -0.045043 0.564746
v -0.023125 -0.045043 0.562653
v -0.004365 -0.045043 0.566130
v -0.027083 -0.045043 0.559830
v 0.000342 -0.045043 0.564913
v -0.030491 -0.045043 0.556362
v 0.004766 -0.045043 0.562897
v -0.033245 -0.045043 0.552355
v 0.008773 -0.045043 0.560143
v -0.035261 -0.045043 0.547931
v 0.012240 -0.045043 0.556735
v -0.036478 -0.045043 0.543224
v 0.015064 -0.045043 0.552777
v -0.036859 -0.045043 0.538378
v 0.017157 -0.045043 0.548389
v -0.036393 -0.045043 0.533538
v 0.018456 -0.045043 0.543704
v -0.035094 -0.045043 0.528853
v 0.018922 -0.045043 0.538864
v -0.033001 -0.045043 0.524465
v 0.018540 -0.045043 0.534017
v -0.030178 -0.045043 0.520507
v 0.017323 -0.045043 0.529310
v -0.026710 -0.045043 0.517099
v 0.015307 -0.045043 0.524886
v -0.022703 -0.045043 0.514345
v 0.012553 -0.045043 0.520880
v -0.018279 -0.045043 0.512329
v 0.009145 -0.045043 0.517412
v -0.013572 -0.045043 0.511112
v 0.005187 -0.045043 0.514589
v -0.008725 -0.045043 0.510730
v 0.000799 -0.045043 0.512496
v -0.003886 -0.045043 0.511196
vn 0 1 0
vn 0 -1 0
vn 0.6494480317574102 0 -0.7604059797545165
vn 0.5075383135975629 0 -0.8616291895186362
vn -0.6494480317574102 0 0.7604059797545165
vn -0.5075383135975629 0 0.8616291895186362
vn 0.3502073720309767 0 -0.936672192698789
vn -0.3502073720309767 0 0.936672192698789
vn 0.18223550220192786 0 -0.9832549118805413
vn -0.18223550220192786 0 0.9832549118805413
vn 0.008726497978509449 0 -0.9999619233916015
vn -0.008726497978509449 0 0.9999619233916015
vn -0.1650475960799251 0 -0.9862856031739681
vn 0.1650475960799251 0 0.9862856031739681
vn -0.3338068833456706 0 -0.9426414825537065
vn 0.3338068833456706 0 0.9426414825537065
vn -0.4924235983842204 0 -0.8703556742816904
vn 0.4924235983842204 0 0.8703556742816904
vn -0.6360782228942132 0 -0.7716245812308855
vn 0.6360782228942132 0 0.7716245812308855
vn -0.7604059797545165 0 -0.6494480317574102
vn 0.7604059797545165 0 0.6494480317574102
vn -0.8616291895186362 0 -0.5075383135975629
vn 0.8616291895186362 0 0.5075383135975629
vn -0.936672192698789 0 -0.3502073720309767
vn 0.936672192698789 0 0.3502073720309767
vn -0.9832549118805413 0 -0.18223550220192786
vn 0.9832549118805413 0 0.18223550220192786
vn -0.9999619233916015 0 -0.008726497978509449
vn 0.9999619233916015 0 0.008726497978509449
vn -0.9862856031739681 0 0.1650475960799251
vn 0.9862856031739681 0 -0.1650475960799251
vn -0.9426414825537065 0 0.3338068833456706
vn 0.9426414825537065 0 -0.3338068833456706
vn -0.8703556742816904 0 0.4924235983842204
vn 0.8703556742816904 0 -0.4924235983842204
vn -0.7716245812308855 0 0.6360782228942132
vn 0.7716245812308855 0 -0.6360782228942132
usemtl material_0_0
f 1//1 2//1 3//1
f 2//1 1//1 4//1
f 2//1 4//1 5//1
f 5//1 4//1 6//1
f 5//1 6//1 7//1
f 7//1 6//1 8//1
f 7//1 8//1 9//1
f 9//1 8//1 10//1
f 9//1 10//1 11//1
f 11//1 10//1 12//1
f 11//1 12//1 13//1
f 13//1 12//1 14//1
f 13//1 14//1 15//1
f 15//1 14//1 16//1
f 15//1 16//1 17//1
f 17//1 16//1 18//1
f 17//1 18//1 19//1
f 19//1 18//1 20//1
f 19//1 20//1 21//1
f 21//1 20//1 22//1
f 21//1 22//1 23//1
f 23//1 22//1 24//1
f 23//1 24//1 25//1
f 25//1 24//1 26//1
f 25//1 26//1 27//1
f 27//1 26//1 28//1
f 27//1 28//1 29//1
f 29//1 28//1 30//1
f 29//1 30//1 31//1
f 31//1 30//1 32//1
f 31//1 32//1 33//1
f 33//1 32//1 34//1
f 33//1 34//1 35//1
f 35//1 34//1 36//1
f 37//2 38//2 39//2
f 39//2 38//2 40//2
f 38//2 41//2 40//2
f 40//2 41//2 42//2
f 41//2 43//2 42//2
f 42//2 43//2 44//2
f 43//2 45//2 44//2
f 44//2 45//2 46//2
f 45//2 47//2 46//2
f 46//2 47//2 48//2
f 47//2 49//2 48//2
f 48//2 49//2 50//2
f 49//2 51//2 50//2
f 50//2 51//2 52//2
f 51//2 53//2 52//2
f 52//2 53//2 54//2
f 53//2 55//2 54//2
f 54//2 55//2 56//2
f 55//2 57//2 56//2
f 56//2 57//2 58//2
f 57//2 59//2 58//2
f 58//2 59//2 60//2
f 59//2 61//2 60//2
f 60//2 61//2 62//2
f 61//2 63//2 62//2
f 62//2 63//2 64//2
f 63//2 65//2 64//2
f 64//2 65//2 66//2
f 65//2 67//2 66//2
f 66//2 67//2 68//2
f 67//2 69//2 68//2
f 68//2 69//2 70//2
f 69//2 71//2 70//2
f 72//2 70//2 71//2
f 73//3 74//4 75//4
f 74//4 73//3 76//3
f 77//5 78//5 79//6
f 80//6 79//6 78//5
f 75//4 81//7 82//7
f 81//7 75//4 74//4
f 79//6 80//6 83//8
f 84//8 83//8 80//6
f 82//7 85//9 86//9
f 85//9 82//7 81//7
f 83//8 84//8 87//10
f 88//10 87//10 84//8
f 86//9 89//11 90//11
f 89//11 86//9 85//9
f 87//10 88//10 91//12
f 92//12 91//12 88//10
f 90//11 93//13 94//13
f 93//13 90//11 89//11
f 91//12 92//12 95//14
f 96//14 95//14 92//12
f 94//13 97//15 98//15
f 97//15 94//13 93//13
f 95//14 96//14 99//16
f 100//16 99//16 96//14
f 98//15 101//17 102//17
f 101//17 98//15 97//15
f 99//16 100//16 103//18
f 104//18 103//18 100//16
f 105//19 101//17 106//19
f 101//17 105//19 102//17
f 104//18 107//20 103//18
f 108//20 103//18 107//20
f 109//21 106//19 110//21
f 106//19 109//21 105//19
f 107//20 111//22 108//20
f 112//22 108//20 111//22
f 113//23 110//21 114//23
f 110//21 113//23 109//21
f 111//22 115//24 112//22
f 116//24 112//22 115//24
f 117//25 114//23 118//25
f 114//23 117//25 113//23
f 115//24 119//26 116//24
f 120//26 116//24 119//26
f 121//27 118//25 122//27
f 118//25 121//27 117//25
f 119//26 123//28 120//26
f 124//28 120//26 123//28
f 125//29 122//27 126//29
f 122//27 125//29 121//27
f 123//28 127//30 124//28
f 128//30 124//28 127//30
f 129//31 125//29 126//29
f 125//29 129//31 130//31
f 131//32 132//32 127//30
f 128//30 127//30 132//32
f 133//33 129//31 134//33
f 129//31 133//33 130//31
f 131//32 135//34 132//32
f 136//34 132//32 135//34
f 137//35 134//33 138//35
f 134//33 137//35 133//33
f 135//34 139//36 136//34
f 140//36 136//34 139//36
f 141//37 138//35 142//37
f 138//35 141//37 137//35
f 139//36 143//38 140//36
f 144//38 140//36 143//38
f 145//5 141//37 142//37
f 141//37 145//5 146//5
f 147//3 148//3 143//38
f 144//38 143//38 148//3
f 149//6 146//5 145//5
f 146//5 149//6 150//6
f 151//4 152//4 147//3
f 148//3 147//3 152//4
f 153//8 150//6 149//6
f 150//6 153//8 154//8
f 155//7 156//7 151//4
f 152//4 151//4 156//7
f 157//10 154//8 153//8
f 154//8 157//10 158//10
f 159//9 160//9 155//7
f 156//7 155//7 160//9
f 161//12 158//10 157//10
f 158//10 161//12 162//12
f 163//11 164//11 159//9
f 160//9 159//9 164//11
f 165//14 162//12 161//12
f 162//12 165//14 166//14
f 167//13 168//13 163//11
f 164//11 163//11 168//13
f 169//16 166//14 165//14
f 166//14 169//16 170//16
f 171//15 172//15 167//13
f 168//13 167//13 172//15
f 173//18 170//16 169//16
f 170//16 173//18 174//18
f 175//17 176//17 171//15
f 172//15 171//15 176//17
f 177//20 173//18 178//20
f 173//18 177//20 174//18
f 175//17 179//19 176//17
f 180//19 176//17 179//19
f 181//22 178//20 182//22
f 178//20 181//22 177//20
f 179//19 183//21 180//19
f 184//21 180//19 183//21
f 185//24 182//22 186//24
f 182//22 185//24 181//22
f 183//21 187//23 184//21
f 188//23 184//21 187//23
f 189//26 186//24 190//26
f 186//24 189//26 185//24
f 187//23 191//25 188//23
f 192//25 188//23 191//25
f 193//28 190//26 194//28
f 190//26 193//28 189//26
f 191//25 195//27 192//25
f 196//27 192//25 195//27
f 197//30 194//28 198//30
f 194//28 197//30 193//28
f 195//27 199//29 196//27
f 200//29 196//27 199//29
f 201//32 198//30 202//32
f 198//30 201//32 197//30
f 199//29 203//31 200//29
f 204//31 200//29 203//31
f 205//34 202//32 206//34
f 202//32 205//34 201//32
f 203//31 207//33 204//31
f 208//33 204//31 207//33
f 209//36 206//34 210//36
f 206//34 209//36 205//34
f 207//33 211//35 208//33
f 212//35 208//33 211//35
f 213//38 210//36 214//38
f 210//36 213//38 209//36
f 211//35 215//37 212//35
f 216//37 212//35 215//37
f 213//38 76//3 73//3
f 76//3 213//38 214//38
f 216//37 215//37 77//5
f 78//5 77//5 215//37
f 217//2 218//2 219//2
f 218//2 217//2 220//2
f 218//2 220//2 221//2
f 221//2 220//2 222//2
f 221//2 222//2 223//2
f 223//2 222//2 224//2
f 223//2 224//2 225//2
f 225//2 224//2 226//2
f 225//2 226//2 227//2
f 227//2 226//2 228//2
f 227//2 228//2 229//2
f 229//2 228//2 230//2
f 229//2 230//2 231//2
f 231//2 230//2 232//2
f 231//2 232//2 233//2
f 233//2 232//2 234//2
f 233//2 234//2 235//2
f 235//2 234//2 236//2
f 235//2 236//2 237//2
f 237//2 236//2 238//2
f 237//2 238//2 239//2
f 239//2 238//2 240//2
f 239//2 240//2 241//2
f 241//2 240//2 242//2
f 241//2 242//2 243//2
f 243//2 242//2 244//2
f 243//2 244//2 245//2
f 245//2 244//2 246//2
f 245//2 246//2 247//2
f 247//2 246//2 248//2
f 247//2 248//2 249//2
f 249//2 248//2 250//2
f 249//2 250//2 251//2
f 251//2 250//2 252//2
f 253//1 254//1 255//1
f 255//1 254//1 256//1
f 254//1 257//1 256//1
f 256//1 257//1 258//1
f 257//1 259//1 258//1
f 258//1 259//1 260//1
f 259//1 261//1 260//1
f 260//1 261//1 262//1
f 261//1 263//1 262//1
f 262//1 263//1 264//1
f 263//1 265//1 264//1
f 264//1 265//1 266//1
f 265//1 267//1 266//1
f 266//1 267//1 268//1
f 267//1 269//1 268//1
f 268//1 269//1 270//1
f 269//1 271//1 270//1
f 270//1 271//1 272//1
f 271//1 273//1 272//1
f 272//1 273//1 274//1
f 273//1 275//1 274//1
f 274//1 275//1 276//1
f 275//1 277//1 276//1
f 276//1 277//1 278//1
f 277//1 279//1 278//1
f 278//1 279//1 280//1
f 279//1 281//1 280//1
f 280//1 281//1 282//1
f 281//1 283//1 282//1
f 282//1 283//1 284//1
f 283//1 285//1 284//1
f 284//1 285//1 286//1
f 285//1 287//1 286//1
f 288//1 286//1 287//1
