# SSTK version 0.8.0
# 5
mtllib original-5.mtl
o #ID19
v -0.096861 0.102164 -0.520374
v -0.093651 0.090542 -0.522846
v -0.096861 0.090542 -0.520374
v -0.093651 0.102164 -0.522846
v -0.093651 0.102164 -0.522846
v -0.096861 0.102164 -0.520374
v -0.093651 0.090542 -0.522846
v -0.096861 0.090542 -0.520374
v -0.100451 0.102164 -0.518497
v -0.100451 0.090542 -0.518497
v -0.100451 0.102164 -0.518497
v -0.100451 0.090542 -0.518497
v -0.090919 0.090542 -0.525838
v -0.090919 0.102164 -0.525838
v -0.090919 0.102164 -0.525838
v -0.090919 0.090542 -0.525838
v -0.104313 0.102164 -0.517271
v -0.104313 0.090542 -0.517271
v -0.104313 0.102164 -0.517271
v -0.104313 0.090542 -0.517271
v -0.088749 0.102164 -0.529259
v -0.088749 0.090542 -0.529259
v -0.088749 0.102164 -0.529259
v -0.088749 0.090542 -0.529259
v -0.108329 0.090542 -0.516735
v -0.108329 0.102164 -0.516735
v -0.108329 0.102164 -0.516735
v -0.108329 0.090542 -0.516735
v -0.087205 0.102164 -0.533005
v -0.087205 0.090542 -0.533005
v -0.087205 0.102164 -0.533005
v -0.087205 0.090542 -0.533005
v -0.112377 0.102164 -0.516905
v -0.112377 0.090542 -0.516905
v -0.112377 0.102164 -0.516905
v -0.112377 0.090542 -0.516905
v -0.086335 0.102164 -0.536962
v -0.086335 0.090542 -0.536962
v -0.086335 0.102164 -0.536962
v -0.086335 0.090542 -0.536962
v -0.116334 0.102164 -0.517775
v -0.116334 0.090542 -0.517775
v -0.116334 0.102164 -0.517775
v -0.116334 0.090542 -0.517775
v -0.086166 0.102164 -0.541010
v -0.086166 0.090542 -0.541010
v -0.086166 0.102164 -0.541010
v -0.086166 0.090542 -0.541010
v -0.120080 0.090542 -0.519318
v -0.120080 0.102164 -0.519318
v -0.120080 0.102164 -0.519318
v -0.120080 0.090542 -0.519318
v -0.086702 0.102164 -0.545026
v -0.086702 0.090542 -0.545026
v -0.086702 0.102164 -0.545026
v -0.086702 0.090542 -0.545026
v -0.123501 0.102164 -0.521489
v -0.123501 0.090542 -0.521489
v -0.123501 0.102164 -0.521489
v -0.123501 0.090542 -0.521489
v -0.087927 0.102164 -0.548888
v -0.087927 0.090542 -0.548888
v -0.087927 0.102164 -0.548888
v -0.087927 0.090542 -0.548888
v -0.126493 0.102164 -0.524221
v -0.126493 0.090542 -0.524221
v -0.126493 0.102164 -0.524221
v -0.126493 0.090542 -0.524221
v -0.089804 0.102164 -0.552478
v -0.089804 0.090542 -0.552478
v -0.089804 0.102164 -0.552478
v -0.089804 0.090542 -0.552478
v -0.128965 0.090542 -0.527431
v -0.128965 0.102164 -0.527431
v -0.128965 0.090542 -0.527431
v -0.128965 0.102164 -0.527431
v -0.092276 0.102164 -0.555688
v -0.092276 0.090542 -0.555688
v -0.092276 0.102164 -0.555688
v -0.092276 0.090542 -0.555688
v -0.130842 0.090542 -0.531021
v -0.130842 0.102164 -0.531021
v -0.130842 0.090542 -0.531021
v -0.130842 0.102164 -0.531021
v -0.095268 0.090542 -0.558420
v -0.095268 0.102164 -0.558420
v -0.095268 0.102164 -0.558420
v -0.095268 0.090542 -0.558420
v -0.132068 0.090542 -0.534883
v -0.132068 0.102164 -0.534883
v -0.132068 0.090542 -0.534883
v -0.132068 0.102164 -0.534883
v -0.098689 0.090542 -0.560591
v -0.098689 0.102164 -0.560591
v -0.098689 0.102164 -0.560591
v -0.098689 0.090542 -0.560591
v -0.132604 0.090542 -0.538899
v -0.132604 0.102164 -0.538899
v -0.132604 0.090542 -0.538899
v -0.132604 0.102164 -0.538899
v -0.102435 0.090542 -0.562134
v -0.102435 0.102164 -0.562134
v -0.102435 0.102164 -0.562134
v -0.102435 0.090542 -0.562134
v -0.132434 0.090542 -0.542947
v -0.132434 0.102164 -0.542947
v -0.132434 0.090542 -0.542947
v -0.132434 0.102164 -0.542947
v -0.106392 0.090542 -0.563004
v -0.106392 0.102164 -0.563004
v -0.106392 0.102164 -0.563004
v -0.106392 0.090542 -0.563004
v -0.131565 0.090542 -0.546904
v -0.131565 0.102164 -0.546904
v -0.131565 0.090542 -0.546904
v -0.131565 0.102164 -0.546904
v -0.110440 0.090542 -0.563174
v -0.110440 0.102164 -0.563174
v -0.110440 0.102164 -0.563174
v -0.110440 0.090542 -0.563174
v -0.130021 0.090542 -0.550650
v -0.130021 0.102164 -0.550650
v -0.130021 0.090542 -0.550650
v -0.130021 0.102164 -0.550650
v -0.114456 0.090542 -0.562638
v -0.114456 0.102164 -0.562638
v -0.114456 0.102164 -0.562638
v -0.114456 0.090542 -0.562638
v -0.127850 0.090542 -0.554071
v -0.127850 0.102164 -0.554071
v -0.127850 0.090542 -0.554071
v -0.127850 0.102164 -0.554071
v -0.118318 0.090542 -0.561412
v -0.118318 0.102164 -0.561412
v -0.118318 0.102164 -0.561412
v -0.118318 0.090542 -0.561412
v -0.125118 0.102164 -0.557063
v -0.125118 0.090542 -0.557063
v -0.125118 0.102164 -0.557063
v -0.125118 0.090542 -0.557063
v -0.121908 0.090542 -0.559535
v -0.121908 0.102164 -0.559535
v -0.121908 0.102164 -0.559535
v -0.121908 0.090542 -0.559535
vn -0.5388118893135347 0 -0.8424261082934094
vn -0.6769118980816999 0 -0.7360640476449251
vn 0.6769118980816999 0 0.7360640476449251
vn 0.5388118893135347 0 0.8424261082934094
vn -0.38434033471748036 0 -0.9231914791143034
vn 0.38434033471748036 0 0.9231914791143034
vn -0.7944442412036952 0 -0.6073370955394419
vn 0.7944442412036952 0 0.6073370955394419
vn -0.21819086973432628 0 -0.9759061145236145
vn 0.21819086973432628 0 0.9759061145236145
vn -0.8878378364118809 0 -0.4601564692965536
vn 0.8878378364118809 0 0.4601564692965536
vn -0.04541172796962682 0 -0.9989683553360501
vn 0.04541172796962682 0 0.9989683553360501
vn -0.9542549276640488 0 -0.29899420233322405
vn 0.9542549276640488 0 0.29899420233322405
vn 0.1287472263881516 0 -0.9916774433742849
vn -0.1287472263881516 0 0.9916774433742849
vn -0.9916774433742848 0 -0.12874722638815164
vn 0.9916774433742848 0 0.12874722638815164
vn 0.29899420233322405 0 -0.954254927664049
vn -0.29899420233322405 0 0.954254927664049
vn -0.9989683553360498 0 0.04541172796963465
vn 0.9989683553360498 0 -0.04541172796963465
vn 0.46015646929655357 0 -0.8878378364118809
vn -0.46015646929655357 0 0.8878378364118809
vn -0.9759061145236146 0 0.21819086973432633
vn 0.9759061145236146 0 -0.21819086973432633
vn 0.6073370955394417 0 -0.7944442412036952
vn -0.6073370955394417 0 0.7944442412036952
vn -0.9231914791143033 0 0.38434033471748036
vn 0.9231914791143033 0 -0.38434033471748036
vn 0.736064047644925 0 -0.6769118980817
vn -0.736064047644925 0 0.6769118980817
vn -0.8424261082934094 0 0.5388118893135347
vn 0.8424261082934094 0 -0.5388118893135347
vn 0.9989683553360496 0 -0.04541172796963694
vn -0.9989683553360496 0 0.04541172796963694
vn 0.04541172796963828 0 0.9989683553360496
vn -0.04541172796963828 0 -0.9989683553360496
usemtl material_0_0
f 1//1 2//2 3//1
f 2//2 1//1 4//2
f 5//3 6//4 7//3
f 8//4 7//3 6//4
f 9//5 3//1 10//5
f 3//1 9//5 1//1
f 6//4 11//6 8//4
f 12//6 8//4 11//6
f 4//2 13//7 2//2
f 13//7 4//2 14//7
f 15//8 5//3 16//8
f 7//3 16//8 5//3
f 17//9 10//5 18//9
f 10//5 17//9 9//5
f 11//6 19//10 12//6
f 20//10 12//6 19//10
f 13//7 21//11 22//11
f 21//11 13//7 14//7
f 15//8 16//8 23//12
f 24//12 23//12 16//8
f 25//13 17//9 18//9
f 17//9 25//13 26//13
f 27//14 28//14 19//10
f 20//10 19//10 28//14
f 22//11 29//15 30//15
f 29//15 22//11 21//11
f 23//12 24//12 31//16
f 32//16 31//16 24//12
f 33//17 25//13 34//17
f 25//13 33//17 26//13
f 27//14 35//18 28//14
f 36//18 28//14 35//18
f 30//15 37//19 38//19
f 37//19 30//15 29//15
f 31//16 32//16 39//20
f 40//20 39//20 32//16
f 41//21 34//17 42//21
f 34//17 41//21 33//17
f 35//18 43//22 36//18
f 44//22 36//18 43//22
f 38//19 45//23 46//23
f 45//23 38//19 37//19
f 39//20 40//20 47//24
f 48//24 47//24 40//20
f 49//25 41//21 42//21
f 41//21 49//25 50//25
f 51//26 52//26 43//22
f 44//22 43//22 52//26
f 46//23 53//27 54//27
f 53//27 46//23 45//23
f 47//24 48//24 55//28
f 56//28 55//28 48//24
f 57//29 49//25 58//29
f 49//25 57//29 50//25
f 51//26 59//30 52//26
f 60//30 52//26 59//30
f 54//27 61//31 62//31
f 61//31 54//27 53//27
f 55//28 56//28 63//32
f 64//32 63//32 56//28
f 65//33 58//29 66//33
f 58//29 65//33 57//29
f 59//30 67//34 60//30
f 68//34 60//30 67//34
f 62//31 69//35 70//35
f 69//35 62//31 61//31
f 63//32 64//32 71//36
f 72//36 71//36 64//32
f 65//33 73//36 74//36
f 73//36 65//33 66//33
f 68//34 67//34 75//35
f 76//35 75//35 67//34
f 70//35 77//34 78//34
f 77//34 70//35 69//35
f 71//36 72//36 79//33
f 80//33 79//33 72//36
f 74//36 81//32 82//32
f 81//32 74//36 73//36
f 75//35 76//35 83//31
f 84//31 83//31 76//35
f 77//34 85//30 78//34
f 85//30 77//34 86//30
f 87//29 79//33 88//29
f 80//33 88//29 79//33
f 82//32 89//28 90//28
f 89//28 82//32 81//32
f 83//31 84//31 91//27
f 92//27 91//27 84//31
f 86//30 93//26 85//30
f 93//26 86//30 94//26
f 95//25 87//29 96//25
f 88//29 96//25 87//29
f 90//28 97//37 98//37
f 97//37 90//28 89//28
f 91//27 92//27 99//38
f 100//38 99//38 92//27
f 94//26 101//22 93//26
f 101//22 94//26 102//22
f 103//21 95//25 104//21
f 96//25 104//21 95//25
f 98//37 105//20 106//20
f 105//20 98//37 97//37
f 99//38 100//38 107//19
f 108//19 107//19 100//38
f 102//22 109//18 101//22
f 109//18 102//22 110//18
f 111//17 103//21 112//17
f 104//21 112//17 103//21
f 106//20 113//16 114//16
f 113//16 106//20 105//20
f 107//19 108//19 115//15
f 116//15 115//15 108//19
f 110//18 117//39 109//18
f 117//39 110//18 118//39
f 119//40 111//17 120//40
f 112//17 120//40 111//17
f 114//16 121//12 122//12
f 121//12 114//16 113//16
f 115//15 116//15 123//11
f 124//11 123//11 116//15
f 118//39 125//10 117//39
f 125//10 118//39 126//10
f 127//9 119//40 128//9
f 120//40 128//9 119//40
f 122//12 129//8 130//8
f 129//8 122//12 121//12
f 123//11 124//11 131//7
f 132//7 131//7 124//11
f 126//10 133//6 125//10
f 133//6 126//10 134//6
f 135//5 127//9 136//5
f 128//9 136//5 127//9
f 137//3 129//8 138//3
f 129//8 137//3 130//8
f 132//7 139//2 131//7
f 140//2 131//7 139//2
f 134//6 141//4 133//6
f 141//4 134//6 142//4
f 143//1 135//5 144//1
f 136//5 144//1 135//5
f 142//4 138//3 141//4
f 138//3 142//4 137//3
f 139//2 143//1 140//2
f 144//1 140//2 143//1
