# SSTK version 0.8.0
# 118
mtllib original-118.mtl
o #ID538
v 0.101914 0.102164 0.409509
v 0.098153 -0.114772 0.411017
v 0.101914 -0.114772 0.409509
v 0.098153 0.102164 0.411017
v 0.098153 0.102164 0.411017
v 0.101914 0.102164 0.409509
v 0.098153 -0.114772 0.411017
v 0.101914 -0.114772 0.409509
v 0.105355 0.102164 0.407370
v 0.105355 -0.114772 0.407370
v 0.105355 0.102164 0.407370
v 0.105355 -0.114772 0.407370
v 0.094188 -0.114772 0.411850
v 0.094188 0.102164 0.411850
v 0.094188 0.102164 0.411850
v 0.094188 -0.114772 0.411850
v 0.108372 -0.114772 0.404666
v 0.108372 0.102164 0.404666
v 0.108372 0.102164 0.404666
v 0.108372 -0.114772 0.404666
v 0.090139 -0.114772 0.411981
v 0.090139 0.102164 0.411981
v 0.090139 0.102164 0.411981
v 0.090139 -0.114772 0.411981
v 0.110874 0.102164 0.401480
v 0.110874 -0.114772 0.401480
v 0.110874 0.102164 0.401480
v 0.110874 -0.114772 0.401480
v 0.086128 -0.114772 0.411408
v 0.086128 0.102164 0.411408
v 0.086128 0.102164 0.411408
v 0.086128 -0.114772 0.411408
v 0.112785 0.102164 0.397907
v 0.112785 -0.114772 0.397907
v 0.112785 0.102164 0.397907
v 0.112785 -0.114772 0.397907
v 0.082278 0.102164 0.410146
v 0.082278 -0.114772 0.410146
v 0.082278 0.102164 0.410146
v 0.082278 -0.114772 0.410146
v 0.114046 -0.114772 0.394057
v 0.114046 0.102164 0.394057
v 0.114046 0.102164 0.394057
v 0.114046 -0.114772 0.394057
v 0.078705 -0.114772 0.408236
v 0.078705 0.102164 0.408236
v 0.078705 0.102164 0.408236
v 0.078705 -0.114772 0.408236
v 0.114620 -0.114772 0.390046
v 0.114620 0.102164 0.390046
v 0.114620 0.102164 0.390046
v 0.114620 -0.114772 0.390046
v 0.075519 0.102164 0.405733
v 0.075519 -0.114772 0.405733
v 0.075519 -0.114772 0.405733
v 0.075519 0.102164 0.405733
v 0.114488 -0.114772 0.385997
v 0.114488 0.102164 0.385997
v 0.114488 0.102164 0.385997
v 0.114488 -0.114772 0.385997
v 0.072815 0.102164 0.402716
v 0.072815 -0.114772 0.402716
v 0.072815 -0.114772 0.402716
v 0.072815 0.102164 0.402716
v 0.113656 -0.114772 0.382032
v 0.113656 0.102164 0.382032
v 0.113656 0.102164 0.382032
v 0.113656 -0.114772 0.382032
v 0.070676 -0.114772 0.399275
v 0.070676 0.102164 0.399275
v 0.070676 0.102164 0.399275
v 0.070676 -0.114772 0.399275
v 0.112147 -0.114772 0.378271
v 0.112147 0.102164 0.378271
v 0.112147 0.102164 0.378271
v 0.112147 -0.114772 0.378271
v 0.069168 0.102164 0.395515
v 0.069168 -0.114772 0.395515
v 0.069168 -0.114772 0.395515
v 0.069168 0.102164 0.395515
v 0.110009 -0.114772 0.374830
v 0.110009 0.102164 0.374830
v 0.110009 0.102164 0.374830
v 0.110009 -0.114772 0.374830
v 0.068335 0.102164 0.391550
v 0.068335 -0.114772 0.391550
v 0.068335 -0.114772 0.391550
v 0.068335 0.102164 0.391550
v 0.107305 -0.114772 0.371813
v 0.107305 0.102164 0.371813
v 0.107305 0.102164 0.371813
v 0.107305 -0.114772 0.371813
v 0.068204 0.102164 0.387500
v 0.068204 -0.114772 0.387500
v 0.068204 -0.114772 0.387500
v 0.068204 0.102164 0.387500
v 0.104118 -0.114772 0.369311
v 0.104118 0.102164 0.369311
v 0.104118 0.102164 0.369311
v 0.104118 -0.114772 0.369311
v 0.068777 -0.114772 0.383489
v 0.068777 0.102164 0.383489
v 0.068777 0.102164 0.383489
v 0.068777 -0.114772 0.383489
v 0.100546 0.102164 0.367400
v 0.100546 -0.114772 0.367400
v 0.100546 0.102164 0.367400
v 0.100546 -0.114772 0.367400
v 0.070039 0.102164 0.379639
v 0.070039 -0.114772 0.379639
v 0.070039 -0.114772 0.379639
v 0.070039 0.102164 0.379639
v 0.096695 0.102164 0.366139
v 0.096695 -0.114772 0.366139
v 0.096695 0.102164 0.366139
v 0.096695 -0.114772 0.366139
v 0.071949 0.102164 0.376067
v 0.071949 -0.114772 0.376067
v 0.071949 0.102164 0.376067
v 0.071949 -0.114772 0.376067
v 0.092685 -0.114772 0.365565
v 0.092685 0.102164 0.365565
v 0.092685 0.102164 0.365565
v 0.092685 -0.114772 0.365565
v 0.074451 -0.114772 0.372880
v 0.074451 0.102164 0.372880
v 0.074451 0.102164 0.372880
v 0.074451 -0.114772 0.372880
v 0.088635 0.102164 0.365696
v 0.088635 -0.114772 0.365696
v 0.088635 0.102164 0.365696
v 0.088635 -0.114772 0.365696
v 0.077469 -0.114772 0.370176
v 0.077469 0.102164 0.370176
v 0.077469 0.102164 0.370176
v 0.077469 -0.114772 0.370176
v 0.084670 0.102164 0.366529
v 0.084670 -0.114772 0.366529
v 0.084670 0.102164 0.366529
v 0.084670 -0.114772 0.366529
v 0.080910 -0.114772 0.368038
v 0.080910 0.102164 0.368038
v 0.080910 0.102164 0.368038
v 0.080910 -0.114772 0.368038
vn 0.45182064869779126 0 0.892108794604283
vn 0.29004339810516044 0 0.9570134937479259
vn 0.2900433981051603 0 0.9570134937479259
vn -0.2900433981051603 0 -0.9570134937479259
vn -0.45182064869779126 0 -0.892108794604283
vn -0.29004339810516044 0 -0.9570134937479259
vn 0.5998695063171863 0 0.8000978536346511
vn -0.5998695063171863 0 -0.8000978536346511
vn 0.11945332423661448 0 0.9928398175581105
vn -0.11945332423661448 0 -0.9928398175581105
vn 0.7296916991268593 0 0.6837762969168769
vn -0.7296916991268593 0 -0.6837762969168769
vn -0.054766217835981304 0 0.9984992044984021
vn 0.054766217835981304 0 -0.9984992044984021
vn 0.8373425605612064 0 0.5466785493073621
vn -0.8373425605612064 0 -0.5466785493073621
vn -0.22732179775759787 0 0.9738196959726445
vn 0.22732179775759787 0 -0.9738196959726445
vn 0.9195511634731249 0 0.39297030136541133
vn -0.9195511634731249 0 -0.39297030136541133
vn -0.39297030136541133 0 0.9195511634731249
vn 0.39297030136541133 0 -0.9195511634731249
vn 0.9738196959726445 0 0.22732179775759787
vn -0.9738196959726445 0 -0.22732179775759787
vn -0.5466785493073621 0 0.8373425605612064
vn 0.5466785493073621 0 -0.8373425605612064
vn 0.9984992044984021 0 0.054766217835981304
vn -0.9984992044984021 0 -0.054766217835981304
vn -0.6837762969168769 0 0.7296916991268593
vn 0.6837762969168769 0 -0.7296916991268593
vn 0.9928398175581105 0 -0.11945332423661448
vn -0.9928398175581105 0 0.11945332423661448
vn -0.8000978536346511 0 0.5998695063171863
vn 0.8000978536346511 0 -0.5998695063171863
vn 0.9570134937479209 0 -0.29004339810517676
vn 0.9570134937479208 0 -0.29004339810517704
vn -0.9570134937479208 0 0.29004339810517704
vn -0.9570134937479209 0 0.29004339810517676
vn -0.892108794604283 0 0.45182064869779126
vn 0.892108794604283 0 -0.45182064869779126
vn -0.9570134937479202 0 0.29004339810517893
vn -0.9570134937479202 0 0.2900433981051792
vn 0.9570134937479202 0 -0.2900433981051792
vn 0.9570134937479202 0 -0.29004339810517893
vn -0.2900433981051525 0 -0.9570134937479282
vn 0.2900433981051525 0 0.9570134937479282
usemtl material_0_0
f 1//1 2//2 3//1
f 2//2 1//1 4//3
f 5//4 6//5 7//6
f 8//5 7//6 6//5
f 9//7 3//1 10//7
f 3//1 9//7 1//1
f 6//5 11//8 8//5
f 12//8 8//5 11//8
f 4//3 13//9 2//2
f 13//9 4//3 14//9
f 15//10 5//4 16//10
f 7//6 16//10 5//4
f 17//11 9//7 10//7
f 9//7 17//11 18//11
f 19//12 20//12 11//8
f 12//8 11//8 20//12
f 14//9 21//13 13//9
f 21//13 14//9 22//13
f 23//14 15//10 24//14
f 16//10 24//14 15//10
f 25//15 17//11 26//15
f 17//11 25//15 18//11
f 19//12 27//16 20//12
f 28//16 20//12 27//16
f 22//13 29//17 21//13
f 29//17 22//13 30//17
f 31//18 23//14 32//18
f 24//14 32//18 23//14
f 33//19 26//15 34//19
f 26//15 33//19 25//15
f 27//16 35//20 28//16
f 36//20 28//16 35//20
f 29//17 37//21 38//21
f 37//21 29//17 30//17
f 31//18 32//18 39//22
f 40//22 39//22 32//18
f 41//23 33//19 34//19
f 33//19 41//23 42//23
f 43//24 44//24 35//20
f 36//20 35//20 44//24
f 37//21 45//25 38//21
f 45//25 37//21 46//25
f 47//26 39//22 48//26
f 40//22 48//26 39//22
f 49//27 42//23 41//23
f 42//23 49//27 50//27
f 51//28 52//28 43//24
f 44//24 43//24 52//28
f 53//29 45//25 46//25
f 45//25 53//29 54//29
f 55//30 56//30 48//26
f 47//26 48//26 56//30
f 57//31 50//27 49//27
f 50//27 57//31 58//31
f 59//32 60//32 51//28
f 52//28 51//28 60//32
f 61//33 54//29 53//29
f 54//29 61//33 62//33
f 63//34 64//34 55//30
f 56//30 55//30 64//34
f 65//35 58//31 57//31
f 58//31 65//35 66//36
f 67//37 68//38 59//32
f 60//32 59//32 68//38
f 61//33 69//39 62//33
f 69//39 61//33 70//39
f 71//40 64//34 72//40
f 63//34 72//40 64//34
f 73//40 66//36 65//35
f 66//36 73//40 74//40
f 75//39 76//39 67//37
f 68//38 67//37 76//39
f 77//41 69//39 70//39
f 69//39 77//41 78//42
f 79//43 80//44 72//40
f 71//40 72//40 80//44
f 81//34 74//40 73//40
f 74//40 81//34 82//34
f 83//33 84//33 75//39
f 76//39 75//39 84//33
f 85//32 78//42 77//41
f 78//42 85//32 86//32
f 87//31 88//31 79//43
f 80//44 79//43 88//31
f 89//30 82//34 81//34
f 82//34 89//30 90//30
f 91//29 92//29 83//33
f 84//33 83//33 92//29
f 93//28 86//32 85//32
f 86//32 93//28 94//28
f 95//27 96//27 87//31
f 88//31 87//31 96//27
f 97//26 90//30 89//30
f 90//30 97//26 98//26
f 99//25 100//25 91//29
f 92//29 91//29 100//25
f 93//28 101//24 94//28
f 101//24 93//28 102//24
f 103//23 96//27 104//23
f 95//27 104//23 96//27
f 105//22 97//26 106//22
f 97//26 105//22 98//26
f 99//25 107//21 100//25
f 108//21 100//25 107//21
f 109//20 101//24 102//24
f 101//24 109//20 110//20
f 111//19 112//19 104//23
f 103//23 104//23 112//19
f 113//18 106//22 114//18
f 106//22 113//18 105//22
f 107//21 115//17 108//21
f 116//17 108//21 115//17
f 110//20 117//16 118//16
f 117//16 110//20 109//20
f 112//19 111//19 119//15
f 120//15 119//15 111//19
f 121//14 113//18 114//18
f 113//18 121//14 122//14
f 123//13 124//13 115//17
f 116//17 115//17 124//13
f 117//16 125//12 118//16
f 125//12 117//16 126//12
f 127//11 119//15 128//11
f 120//15 128//11 119//15
f 129//10 121//14 130//10
f 121//14 129//10 122//14
f 123//13 131//9 124//13
f 132//9 124//13 131//9
f 126//12 133//8 125//12
f 133//8 126//12 134//8
f 135//7 127//11 136//7
f 128//11 136//7 127//11
f 137//45 130//10 138//45
f 130//10 137//45 129//10
f 131//9 139//46 132//9
f 140//46 132//9 139//46
f 134//8 141//5 133//8
f 141//5 134//8 142//5
f 143//1 135//7 144//1
f 136//7 144//1 135//7
f 141//5 137//45 138//45
f 137//45 141//5 142//5
f 143//1 144//1 139//46
f 140//46 139//46 144//1
