# SSTK version 0.8.0
# 72
mtllib original-72.mtl
o #ID365
v 0.119364 -0.114772 0.382366
v 0.119898 -0.103150 0.378350
v 0.119898 -0.114772 0.378350
v 0.119364 -0.103150 0.382366
v 0.119364 -0.103150 0.382366
v 0.119364 -0.114772 0.382366
v 0.119898 -0.103150 0.378350
v 0.119898 -0.114772 0.378350
v 0.119732 -0.103150 0.374436
v 0.119727 -0.114772 0.374303
v 0.119732 -0.103150 0.374436
v 0.119727 -0.114772 0.374303
v 0.118140 -0.114772 0.386229
v 0.118140 -0.103150 0.386229
v 0.118140 -0.103150 0.386229
v 0.118140 -0.114772 0.386229
v 0.118855 -0.103150 0.370346
v 0.118855 -0.114772 0.370346
v 0.118855 -0.103150 0.370346
v 0.118855 -0.114772 0.370346
v 0.116265 -0.114772 0.389820
v 0.116265 -0.103150 0.389820
v 0.116265 -0.103150 0.389820
v 0.116265 -0.114772 0.389820
v 0.117310 -0.103150 0.366601
v 0.117310 -0.114772 0.366601
v 0.117310 -0.103150 0.366601
v 0.117310 -0.114772 0.366601
v 0.113794 -0.114772 0.393031
v 0.113794 -0.103150 0.393031
v 0.113794 -0.103150 0.393031
v 0.113794 -0.114772 0.393031
v 0.115137 -0.103150 0.363180
v 0.115137 -0.114772 0.363180
v 0.115137 -0.103150 0.363180
v 0.115137 -0.114772 0.363180
v 0.110803 -0.114772 0.395764
v 0.110803 -0.103150 0.395764
v 0.110803 -0.103150 0.395764
v 0.110803 -0.114772 0.395764
v 0.112404 -0.103150 0.360190
v 0.112404 -0.114772 0.360190
v 0.112404 -0.103150 0.360190
v 0.112404 -0.114772 0.360190
v 0.107383 -0.103150 0.397937
v 0.107383 -0.114772 0.397937
v 0.107383 -0.114772 0.397937
v 0.107383 -0.103150 0.397937
v 0.109193 -0.114772 0.357719
v 0.109193 -0.103150 0.357719
v 0.109193 -0.114772 0.357719
v 0.109193 -0.103150 0.357719
v 0.103638 -0.103150 0.399482
v 0.103638 -0.114772 0.399482
v 0.103638 -0.114772 0.399482
v 0.103638 -0.103150 0.399482
v 0.105602 -0.103150 0.355844
v 0.105602 -0.114772 0.355844
v 0.105602 -0.114772 0.355844
v 0.105602 -0.103150 0.355844
v 0.099681 -0.103150 0.400354
v 0.099681 -0.114772 0.400354
v 0.099681 -0.114772 0.400354
v 0.099681 -0.103150 0.400354
v 0.101740 -0.114772 0.354620
v 0.101740 -0.103150 0.354620
v 0.101740 -0.114772 0.354620
v 0.101740 -0.103150 0.354620
v 0.095633 -0.114772 0.400525
v 0.095633 -0.103150 0.400525
v 0.095633 -0.114772 0.400525
v 0.095633 -0.103150 0.400525
v 0.097723 -0.114772 0.354086
v 0.097723 -0.103150 0.354086
v 0.097723 -0.114772 0.354086
v 0.097723 -0.103150 0.354086
v 0.091617 -0.103150 0.399991
v 0.091617 -0.114772 0.399991
v 0.091617 -0.114772 0.399991
v 0.091617 -0.103150 0.399991
v 0.093675 -0.114772 0.354257
v 0.093675 -0.103150 0.354257
v 0.093675 -0.114772 0.354257
v 0.093675 -0.103150 0.354257
v 0.087755 -0.103150 0.398767
v 0.087755 -0.114772 0.398767
v 0.087755 -0.114772 0.398767
v 0.087755 -0.103150 0.398767
v 0.089719 -0.114772 0.355129
v 0.089719 -0.103150 0.355129
v 0.089719 -0.114772 0.355129
v 0.089719 -0.103150 0.355129
v 0.084164 -0.103150 0.396892
v 0.084164 -0.114772 0.396892
v 0.084164 -0.114772 0.396892
v 0.084164 -0.103150 0.396892
v 0.085974 -0.114772 0.356674
v 0.085974 -0.103150 0.356674
v 0.085974 -0.114772 0.356674
v 0.085974 -0.103150 0.356674
v 0.080953 -0.103150 0.394421
v 0.080953 -0.114772 0.394421
v 0.080953 -0.114772 0.394421
v 0.080953 -0.103150 0.394421
v 0.082554 -0.114772 0.358846
v 0.082554 -0.103150 0.358846
v 0.082554 -0.114772 0.358846
v 0.082554 -0.103150 0.358846
v 0.078945 -0.103150 0.392224
v 0.078219 -0.114772 0.391430
v 0.078219 -0.103150 0.391430
v 0.078945 -0.103150 0.392224
v 0.078219 -0.114772 0.391430
v 0.078219 -0.103150 0.391430
v 0.079563 -0.103150 0.361579
v 0.079563 -0.114772 0.361579
v 0.079563 -0.114772 0.361579
v 0.079563 -0.103150 0.361579
v 0.076047 -0.114772 0.388010
v 0.076047 -0.103150 0.388010
v 0.076047 -0.114772 0.388010
v 0.076047 -0.103150 0.388010
v 0.077092 -0.103150 0.364791
v 0.077092 -0.114772 0.364791
v 0.077092 -0.114772 0.364791
v 0.077092 -0.103150 0.364791
v 0.074502 -0.114772 0.384265
v 0.074502 -0.103150 0.384265
v 0.074502 -0.114772 0.384265
v 0.074502 -0.103150 0.384265
v 0.075216 -0.103150 0.368382
v 0.075216 -0.114772 0.368382
v 0.075216 -0.114772 0.368382
v 0.075216 -0.103150 0.368382
v 0.073630 -0.114772 0.380308
v 0.073630 -0.103150 0.380308
v 0.073630 -0.114772 0.380308
v 0.073630 -0.103150 0.380308
v 0.073993 -0.103150 0.372244
v 0.073993 -0.114772 0.372244
v 0.073993 -0.114772 0.372244
v 0.073993 -0.103150 0.372244
v 0.073459 -0.114772 0.376260
v 0.073459 -0.103150 0.376260
v 0.073459 -0.114772 0.376260
v 0.073459 -0.103150 0.376260
vn -0.9760048656336392 0 -0.21774871356557282
vn -0.9989888265756104 0 -0.044959141196033774
vn -0.991882935163915 -0.0004898956666015724 0.12715346213474715
vn -0.9917229555045234 -0.0004970760932358148 0.12839521969579185
vn -0.9233655095661796 0 -0.3839220438364924
vn -0.9545476498254991 -0.0004936103906638534 0.29805794832783494
vn -0.954547649825452 -0.0004936104906638271 0.29805794832782023
vn -0.8426701302944448 0 -0.5384301732904121
vn -0.8876292716378209 0 0.4605586565593046
vn -0.7363706467013903 0 -0.6765783551641129
vn -0.7941690059053153 0 0.6076969557759554
vn -0.6076969557759554 0 -0.7941690059053153
vn -0.6765783551641129 0 0.7363706467013903
vn -0.4605586565593046 0 -0.8876292716378209
vn -0.5384301732904121 0 0.8426701302944448
vn -0.2994264963654967 0 -0.9541193705581514
vn -0.3839220438364924 0 0.9233655095661796
vn -0.12919649214435172 0 -0.9916190127350294
vn -0.21774871356557282 0 0.9760048656336392
vn 0.04495914119602573 0 -0.9989888265756107
vn 0.04495914119602632 0 -0.9989888265756107
vn -0.04495914119602633 0 0.9989888265756107
vn -0.04495914119602574 0 0.9989888265756107
vn 0.21774871356557282 0 -0.9760048656336392
vn 0.12919649214435172 0 0.9916190127350294
vn 0.3839220438364924 0 -0.9233655095661796
vn 0.2994264963654967 0 0.9541193705581514
vn 0.5384301732904121 0 -0.8426701302944448
vn 0.4605586565593046 0 0.8876292716378209
vn 0.6765783551641129 0 -0.7363706467013903
vn 0.6076969557759554 0 0.7941690059053153
vn 0.7381826872172397 0 -0.6746008599851728
vn 0.7941690059053153 0 -0.6076969557759554
vn 0.7363706467013903 0 0.6765783551641129
vn 0.8876292716378209 0 -0.4605586565593046
vn 0.8426701302944448 0 0.5384301732904121
vn 0.9541193705581514 0 -0.2994264963654967
vn 0.9233655095661796 0 0.3839220438364924
vn 0.9916190127350294 0 -0.12919649214435172
vn 0.9760048656336392 0 0.21774871356557282
vn 0.9989888265756107 0 0.04495914119602602
vn 0.9989888265756104 0 0.044959141196033774
vn 0.991882935163915 0.0004898956666015724 -0.12715346213474715
vn 0.9917229555045234 0.0004970760932358148 -0.12839521969579185
vn 0.9545476498254991 0.0004936103906638534 -0.29805794832783494
vn 0.954547649825452 0.0004936104906638271 -0.29805794832782023
vn -0.04495914119602573 0 0.9989888265756107
vn -0.04495914119602632 0 0.9989888265756107
vn 0.04495914119602633 0 -0.9989888265756107
vn 0.04495914119602574 0 -0.9989888265756107
vn -0.7381826872172397 0 0.6746008599851728
vn -0.9541193705581514 0 0.2994264963654967
vn -0.9916190127350294 0 0.12919649214435172
vn -0.9989888265756107 0 -0.04495914119602602
usemtl material_0_0
f 1//1 2//2 3//2
f 2//2 1//1 4//1
f 3//2 9//3 10//4
f 9//3 3//2 2//2
f 13//5 4//1 1//1
f 4//1 13//5 14//5
f 10//4 17//6 18//7
f 17//6 10//4 9//3
f 21//8 14//5 13//5
f 14//5 21//8 22//8
f 18//7 25//9 26//9
f 25//9 18//7 17//6
f 29//10 22//8 21//8
f 22//8 29//10 30//10
f 26//9 33//11 34//11
f 33//11 26//9 25//9
f 37//12 30//10 29//10
f 30//10 37//12 38//12
f 34//11 41//13 42//13
f 41//13 34//11 33//11
f 37//12 45//14 38//12
f 45//14 37//12 46//14
f 49//15 41//13 50//15
f 41//13 49//15 42//13
f 46//14 53//16 45//14
f 53//16 46//14 54//16
f 57//17 49//15 50//15
f 49//15 57//17 58//17
f 54//16 61//18 53//16
f 61//18 54//16 62//18
f 65//19 57//17 66//19
f 57//17 65//19 58//17
f 61//18 69//20 70//21
f 69//20 61//18 62//18
f 73//22 66//19 74//23
f 66//19 73//22 65//19
f 69//20 77//24 70//21
f 77//24 69//20 78//24
f 81//25 74//23 82//25
f 74//23 81//25 73//22
f 78//24 85//26 77//24
f 85//26 78//24 86//26
f 89//27 82//25 90//27
f 82//25 89//27 81//25
f 86//26 93//28 85//26
f 93//28 86//26 94//28
f 97//29 90//27 98//29
f 90//27 97//29 89//27
f 94//28 101//30 93//28
f 101//30 94//28 102//30
f 105//31 98//29 106//31
f 98//29 105//31 97//29
f 109//32 110//33 111//33
f 110//33 109//32 102//30
f 102//30 109//32 101//30
f 115//34 105//31 106//31
f 105//31 115//34 116//34
f 111//33 119//35 120//35
f 119//35 111//33 110//33
f 123//36 116//34 115//34
f 116//34 123//36 124//36
f 120//35 127//37 128//37
f 127//37 120//35 119//35
f 131//38 124//36 123//36
f 124//36 131//38 132//38
f 128//37 135//39 136//39
f 135//39 128//37 127//37
f 139//40 132//38 131//38
f 132//38 139//40 140//40
f 136//39 143//41 144//41
f 143//41 136//39 135//39
f 144//41 140//40 139//40
f 140//40 144//41 143//41
usemtl material_1_0
f 5//40 6//40 7//42
f 8//42 7//42 6//40
f 7//42 8//42 11//43
f 12//44 11//43 8//42
f 15//38 16//38 5//40
f 6//40 5//40 16//38
f 11//43 12//44 19//45
f 20//46 19//45 12//44
f 23//36 24//36 15//38
f 16//38 15//38 24//36
f 19//45 20//46 27//35
f 28//35 27//35 20//46
f 31//34 32//34 23//36
f 24//36 23//36 32//34
f 27//35 28//35 35//33
f 36//33 35//33 28//35
f 39//31 40//31 31//34
f 32//34 31//34 40//31
f 35//33 36//33 43//30
f 44//30 43//30 36//33
f 47//29 40//31 48//29
f 39//31 48//29 40//31
f 44//30 51//28 43//30
f 52//28 43//30 51//28
f 55//27 47//29 56//27
f 48//29 56//27 47//29
f 59//26 60//26 51//28
f 52//28 51//28 60//26
f 63//25 55//27 64//25
f 56//27 64//25 55//27
f 59//26 67//24 60//26
f 68//24 60//26 67//24
f 63//25 64//25 71//47
f 72//48 71//47 64//25
f 67//24 75//49 68//24
f 76//50 68//24 75//49
f 79//19 71//47 80//19
f 72//48 80//19 71//47
f 75//49 83//18 76//50
f 84//18 76//50 83//18
f 87//17 79//19 88//17
f 80//19 88//17 79//19
f 83//18 91//16 84//18
f 92//16 84//18 91//16
f 95//15 87//17 96//15
f 88//17 96//15 87//17
f 91//16 99//14 92//16
f 100//14 92//16 99//14
f 103//13 95//15 104//13
f 96//15 104//13 95//15
f 99//14 107//12 100//14
f 108//12 100//14 107//12
f 104//13 112//51 103//13
f 103//13 112//51 113//11
f 114//11 113//11 112//51
f 117//10 118//10 107//12
f 108//12 107//12 118//10
f 113//11 114//11 121//9
f 122//9 121//9 114//11
f 125//8 126//8 117//10
f 118//10 117//10 126//8
f 121//9 122//9 129//52
f 130//52 129//52 122//9
f 133//5 134//5 125//8
f 126//8 125//8 134//5
f 129//52 130//52 137//53
f 138//53 137//53 130//52
f 141//1 142//1 133//5
f 134//5 133//5 142//1
f 137//53 138//53 145//54
f 146//54 145//54 138//53
f 145//54 146//54 141//1
f 142//1 141//1 146//54
