# SSTK version 0.8.0
# 69
mtllib original-69.mtl
o #ID347
v 0.074296 0.090542 -0.555363
v 0.077287 0.102164 -0.558096
v 0.074296 0.102164 -0.555363
v 0.077287 0.090542 -0.558096
v 0.077287 0.090542 -0.558096
v 0.074296 0.090542 -0.555363
v 0.077287 0.102164 -0.558096
v 0.074296 0.102164 -0.555363
v 0.080707 0.102164 -0.560268
v 0.080707 0.090542 -0.560268
v 0.080707 0.090542 -0.560268
v 0.080707 0.102164 -0.560268
v 0.071825 0.102164 -0.552152
v 0.071825 0.090542 -0.552152
v 0.071825 0.090542 -0.552152
v 0.071825 0.102164 -0.552152
v 0.084452 0.090542 -0.561814
v 0.084452 0.102164 -0.561814
v 0.084452 0.090542 -0.561814
v 0.084452 0.102164 -0.561814
v 0.069950 0.102164 -0.548561
v 0.069950 0.090542 -0.548561
v 0.069950 0.090542 -0.548561
v 0.069950 0.102164 -0.548561
v 0.088409 0.102164 -0.562686
v 0.088409 0.090542 -0.562686
v 0.088409 0.090542 -0.562686
v 0.088409 0.102164 -0.562686
v 0.068726 0.102164 -0.544698
v 0.068726 0.090542 -0.544698
v 0.068726 0.090542 -0.544698
v 0.068726 0.102164 -0.544698
v 0.092457 0.102164 -0.562857
v 0.092457 0.090542 -0.562857
v 0.092457 0.090542 -0.562857
v 0.092457 0.102164 -0.562857
v 0.068192 0.102164 -0.540682
v 0.068192 0.090542 -0.540682
v 0.068192 0.090542 -0.540682
v 0.068192 0.102164 -0.540682
v 0.096473 0.102164 -0.562323
v 0.096473 0.090542 -0.562323
v 0.096473 0.090542 -0.562323
v 0.096473 0.102164 -0.562323
v 0.068363 0.102164 -0.536634
v 0.068363 0.090542 -0.536634
v 0.068363 0.090542 -0.536634
v 0.068363 0.102164 -0.536634
v 0.100335 0.102164 -0.561099
v 0.100335 0.090542 -0.561099
v 0.100335 0.090542 -0.561099
v 0.100335 0.102164 -0.561099
v 0.069235 0.102164 -0.532678
v 0.069235 0.090542 -0.532678
v 0.069235 0.090542 -0.532678
v 0.069235 0.102164 -0.532678
v 0.103927 0.102164 -0.559223
v 0.103927 0.090542 -0.559223
v 0.103927 0.090542 -0.559223
v 0.103927 0.102164 -0.559223
v 0.070780 0.102164 -0.528932
v 0.070780 0.090542 -0.528932
v 0.070780 0.090542 -0.528932
v 0.070780 0.102164 -0.528932
v 0.107138 0.102164 -0.556753
v 0.107138 0.090542 -0.556753
v 0.107138 0.090542 -0.556753
v 0.107138 0.102164 -0.556753
v 0.072953 0.102164 -0.525512
v 0.072953 0.090542 -0.525512
v 0.072953 0.090542 -0.525512
v 0.072953 0.102164 -0.525512
v 0.109871 0.090542 -0.553762
v 0.109871 0.102164 -0.553762
v 0.109871 0.102164 -0.553762
v 0.109871 0.090542 -0.553762
v 0.075686 0.102164 -0.522522
v 0.075686 0.090542 -0.522522
v 0.075686 0.090542 -0.522522
v 0.075686 0.102164 -0.522522
v 0.112043 0.090542 -0.550342
v 0.112043 0.102164 -0.550342
v 0.112043 0.102164 -0.550342
v 0.112043 0.090542 -0.550342
v 0.078897 0.090542 -0.520051
v 0.078897 0.102164 -0.520051
v 0.078897 0.090542 -0.520051
v 0.078897 0.102164 -0.520051
v 0.113588 0.090542 -0.546597
v 0.113588 0.102164 -0.546597
v 0.113588 0.102164 -0.546597
v 0.113588 0.090542 -0.546597
v 0.082488 0.090542 -0.518175
v 0.082488 0.102164 -0.518175
v 0.082488 0.090542 -0.518175
v 0.082488 0.102164 -0.518175
v 0.114460 0.090542 -0.542640
v 0.114460 0.102164 -0.542640
v 0.114460 0.102164 -0.542640
v 0.114460 0.090542 -0.542640
v 0.086351 0.090542 -0.516952
v 0.086351 0.102164 -0.516952
v 0.086351 0.090542 -0.516952
v 0.086351 0.102164 -0.516952
v 0.114631 0.090542 -0.538592
v 0.114631 0.102164 -0.538592
v 0.114631 0.102164 -0.538592
v 0.114631 0.090542 -0.538592
v 0.090367 0.090542 -0.516418
v 0.090367 0.102164 -0.516418
v 0.090367 0.090542 -0.516418
v 0.090367 0.102164 -0.516418
v 0.114097 0.090542 -0.534576
v 0.114097 0.102164 -0.534576
v 0.114097 0.102164 -0.534576
v 0.114097 0.090542 -0.534576
v 0.094415 0.090542 -0.516589
v 0.094415 0.102164 -0.516589
v 0.094415 0.090542 -0.516589
v 0.094415 0.102164 -0.516589
v 0.112874 0.090542 -0.530714
v 0.112874 0.102164 -0.530714
v 0.112874 0.102164 -0.530714
v 0.112874 0.090542 -0.530714
v 0.098371 0.090542 -0.517460
v 0.098371 0.102164 -0.517460
v 0.098371 0.090542 -0.517460
v 0.098371 0.102164 -0.517460
v 0.110998 0.090542 -0.527122
v 0.110998 0.102164 -0.527122
v 0.110998 0.102164 -0.527122
v 0.110998 0.090542 -0.527122
v 0.102117 0.102164 -0.519006
v 0.102117 0.090542 -0.519006
v 0.102117 0.090542 -0.519006
v 0.102117 0.102164 -0.519006
v 0.108527 0.090542 -0.523911
v 0.108527 0.102164 -0.523911
v 0.108527 0.102164 -0.523911
v 0.108527 0.090542 -0.523911
v 0.105537 0.090542 -0.521178
v 0.105537 0.102164 -0.521178
v 0.105537 0.090542 -0.521178
v 0.105537 0.102164 -0.521178
vn 0.7363706467013903 0 0.6765783551641129
vn 0.6076969557759554 0 0.7941690059053153
vn 0.4605586565593046 0 0.8876292716378209
vn 0.8426701302944448 0 0.5384301732904121
vn 0.2994264963654967 0 0.9541193705581514
vn 0.9233655095661796 0 0.3839220438364924
vn 0.12919649214435172 0 0.9916190127350294
vn 0.9760048656336392 0 0.21774871356557282
vn -0.044959141196026384 0 0.9989888265756107
vn 0.998988826575611 0 0.044959141196022484
vn -0.21774871356557282 0 0.9760048656336392
vn 0.9916190127350294 0 -0.12919649214435172
vn -0.3839220438364924 0 0.9233655095661796
vn 0.9541193705581514 0 -0.2994264963654967
vn -0.5384301732904121 0 0.8426701302944448
vn 0.8876292716378209 0 -0.4605586565593046
vn -0.6765783551641129 0 0.7363706467013903
vn 0.7941690059053153 0 -0.6076969557759554
vn -0.7941690059053153 0 0.6076969557759554
vn 0.6765783551641129 0 -0.7363706467013903
vn -0.8876292716378209 0 0.4605586565593046
vn 0.5384301732904121 0 -0.8426701302944448
vn -0.9541193705581514 0 0.2994264963654967
vn 0.3839220438364924 0 -0.9233655095661796
vn -0.9916190127350294 0 0.12919649214435172
vn 0.21774871356557282 0 -0.9760048656336392
vn -0.9989888265756108 0 -0.04495914119602474
vn -0.9989888265756108 0 -0.044959141196024725
vn 0.04495914119601435 0 -0.9989888265756113
vn -0.9760048656336392 0 -0.21774871356557282
vn -0.12919649214435172 0 -0.9916190127350294
vn -0.9233655095661796 0 -0.3839220438364924
vn -0.2994264963654967 0 -0.9541193705581514
vn -0.8426701302944448 0 -0.5384301732904121
vn -0.4605586565593046 0 -0.8876292716378209
vn -0.7363706467013903 0 -0.6765783551641129
vn -0.6076969557759554 0 -0.7941690059053153
vn 0.044959141196026384 0 -0.9989888265756107
vn -0.998988826575611 0 -0.044959141196022484
vn 0.9989888265756108 0 0.044959141196024725
vn 0.9989888265756108 0 0.04495914119602474
vn -0.04495914119601435 0 0.9989888265756113
usemtl material_0_0
f 1//1 2//2 3//1
f 2//2 1//1 4//2
f 4//2 9//3 2//2
f 9//3 4//2 10//3
f 13//4 1//1 3//1
f 1//1 13//4 14//4
f 9//3 17//5 18//5
f 17//5 9//3 10//3
f 21//6 14//4 13//4
f 14//4 21//6 22//6
f 17//5 25//7 18//5
f 25//7 17//5 26//7
f 29//8 22//6 21//6
f 22//6 29//8 30//8
f 26//7 33//9 25//7
f 33//9 26//7 34//9
f 37//10 30//8 29//8
f 30//8 37//10 38//10
f 34//9 41//11 33//9
f 41//11 34//9 42//11
f 45//12 38//10 37//10
f 38//10 45//12 46//12
f 42//11 49//13 41//11
f 49//13 42//11 50//13
f 53//14 46//12 45//12
f 46//12 53//14 54//14
f 50//13 57//15 49//13
f 57//15 50//13 58//15
f 61//16 54//14 53//14
f 54//14 61//16 62//16
f 58//15 65//17 57//15
f 65//17 58//15 66//17
f 69//18 62//16 61//16
f 62//16 69//18 70//18
f 73//19 65//17 66//17
f 65//17 73//19 74//19
f 77//20 70//18 69//18
f 70//18 77//20 78//20
f 81//21 74//19 73//19
f 74//19 81//21 82//21
f 85//22 77//20 86//22
f 77//20 85//22 78//20
f 89//23 82//21 81//21
f 82//21 89//23 90//23
f 93//24 86//22 94//24
f 86//22 93//24 85//22
f 97//25 90//23 89//23
f 90//23 97//25 98//25
f 101//26 94//24 102//26
f 94//24 101//26 93//24
f 105//27 98//25 97//25
f 98//25 105//27 106//28
f 109//29 102//26 110//29
f 102//26 109//29 101//26
f 113//30 106//28 105//27
f 106//28 113//30 114//30
f 117//31 110//29 118//31
f 110//29 117//31 109//29
f 121//32 114//30 113//30
f 114//30 121//32 122//32
f 125//33 118//31 126//33
f 118//31 125//33 117//31
f 129//34 122//32 121//32
f 122//32 129//34 130//34
f 133//35 125//33 126//33
f 125//33 133//35 134//35
f 137//36 130//34 129//34
f 130//34 137//36 138//36
f 141//37 133//35 142//37
f 133//35 141//37 134//35
f 137//36 142//37 138//36
f 142//37 137//36 141//37
usemtl material_1_0
f 5//37 6//36 7//37
f 8//36 7//37 6//36
f 11//35 5//37 12//35
f 7//37 12//35 5//37
f 15//34 16//34 6//36
f 8//36 6//36 16//34
f 11//35 12//35 19//33
f 20//33 19//33 12//35
f 23//32 24//32 15//34
f 16//34 15//34 24//32
f 27//31 19//33 28//31
f 20//33 28//31 19//33
f 31//30 32//30 23//32
f 24//32 23//32 32//30
f 35//38 27//31 36//38
f 28//31 36//38 27//31
f 39//39 40//39 31//30
f 32//30 31//30 40//39
f 43//26 35//38 44//26
f 36//38 44//26 35//38
f 47//25 48//25 39//39
f 40//39 39//39 48//25
f 51//24 43//26 52//24
f 44//26 52//24 43//26
f 55//23 56//23 47//25
f 48//25 47//25 56//23
f 59//22 51//24 60//22
f 52//24 60//22 51//24
f 63//21 64//21 55//23
f 56//23 55//23 64//21
f 67//20 59//22 68//20
f 60//22 68//20 59//22
f 71//19 72//19 63//21
f 64//21 63//21 72//19
f 75//18 76//18 68//20
f 67//20 68//20 76//18
f 79//17 80//17 71//19
f 72//19 71//19 80//17
f 83//16 84//16 75//18
f 76//18 75//18 84//16
f 79//17 87//15 80//17
f 88//15 80//17 87//15
f 91//14 92//14 83//16
f 84//16 83//16 92//14
f 87//15 95//13 88//15
f 96//13 88//15 95//13
f 99//12 100//12 91//14
f 92//14 91//14 100//12
f 95//13 103//11 96//13
f 104//11 96//13 103//11
f 107//40 108//41 99//12
f 100//12 99//12 108//41
f 103//11 111//42 104//11
f 112//42 104//11 111//42
f 115//8 116//8 107//40
f 108//41 107//40 116//8
f 111//42 119//7 112//42
f 120//7 112//42 119//7
f 123//6 124//6 115//8
f 116//8 115//8 124//6
f 119//7 127//5 120//7
f 128//5 120//7 127//5
f 131//4 132//4 123//6
f 124//6 123//6 132//4
f 135//3 136//3 127//5
f 128//5 127//5 136//3
f 139//1 140//1 131//4
f 132//4 131//4 140//1
f 135//3 143//2 136//3
f 144//2 136//3 143//2
f 143//2 140//1 144//2
f 139//1 144//2 140//1
