# SSTK version 0.8.0
# 78
mtllib original-78.mtl
o #ID403
v 0.071305 0.102164 0.137880
v 0.051731 0.102164 0.140565
v 0.051347 0.102164 0.149086
v 0.070403 0.102164 0.130534
v 0.075361 0.102164 0.127456
v 0.078846 0.102164 0.133137
v 0.078327 0.102164 0.124641
v 0.079848 0.102164 0.121650
v 0.080700 0.102164 0.131201
v 0.080472 0.102164 0.118047
v 0.080760 0.102164 0.111635
v 0.088229 0.102164 0.139809
v 0.086872 0.102164 0.122517
v 0.084669 0.102164 0.135164
v 0.087503 0.102164 0.127953
v 0.089930 0.102164 0.132315
v 0.093044 0.102164 0.142715
v 0.093831 0.102164 0.135247
v 0.099114 0.102164 0.143885
v 0.098879 0.102164 0.136393
v 0.103607 0.102164 0.135753
v 0.102915 0.102164 0.143728
v 0.106322 0.102164 0.142895
v 0.107246 0.102164 0.133358
v 0.109336 0.102164 0.141387
v 0.109640 0.102164 0.129301
v 0.110631 0.102164 0.123674
v 0.111957 0.102164 0.139204
v 0.111111 0.102164 0.113001
v 0.053089 0.102164 0.110390
v 0.118062 0.102164 0.106227
v 0.053407 0.102164 0.103318
v 0.087349 0.102164 0.111931
v 0.082190 0.102164 0.128776
v 0.114103 0.102164 0.136441
v 0.115693 0.102164 0.133194
v 0.116727 0.102164 0.129462
v 0.117206 0.102164 0.125246
v 0.117206 0.102164 0.125246
v 0.116727 0.102164 0.129462
v 0.118062 0.102164 0.106227
v 0.115693 0.102164 0.133194
v 0.114103 0.102164 0.136441
v 0.111957 0.102164 0.139204
v 0.111111 0.102164 0.113001
v 0.087349 0.102164 0.111931
v 0.086872 0.102164 0.122517
v 0.084669 0.102164 0.135164
v 0.082190 0.102164 0.128776
v 0.080700 0.102164 0.131201
v 0.080760 0.102164 0.111635
v 0.053089 0.102164 0.110390
v 0.053407 0.102164 0.103318
v 0.110631 0.102164 0.123674
v 0.109336 0.102164 0.141387
v 0.109640 0.102164 0.129301
v 0.107246 0.102164 0.133358
v 0.106322 0.102164 0.142895
v 0.103607 0.102164 0.135753
v 0.102915 0.102164 0.143728
v 0.099114 0.102164 0.143885
v 0.098879 0.102164 0.136393
v 0.093831 0.102164 0.135247
v 0.093044 0.102164 0.142715
v 0.089930 0.102164 0.132315
v 0.088229 0.102164 0.139809
v 0.087503 0.102164 0.127953
v 0.080472 0.102164 0.118047
v 0.079848 0.102164 0.121650
v 0.078846 0.102164 0.133137
v 0.078327 0.102164 0.124641
v 0.075361 0.102164 0.127456
v 0.071305 0.102164 0.137880
v 0.070403 0.102164 0.130534
v 0.051731 0.102164 0.140565
v 0.051347 0.102164 0.149086
vn 0 1 0
vn 0 -1 0
usemtl material_0_0
f 39//2 40//2 41//2
f 40//2 42//2 41//2
f 42//2 43//2 41//2
f 43//2 44//2 41//2
f 44//2 45//2 41//2
f 45//2 46//2 41//2
f 47//2 48//2 46//2
f 48//2 49//2 46//2
f 49//2 50//2 46//2
f 50//2 51//2 46//2
f 46//2 51//2 41//2
f 51//2 52//2 41//2
f 53//2 41//2 52//2
f 45//2 44//2 54//2
f 44//2 55//2 54//2
f 54//2 55//2 56//2
f 56//2 55//2 57//2
f 55//2 58//2 57//2
f 57//2 58//2 59//2
f 58//2 60//2 59//2
f 60//2 61//2 59//2
f 59//2 61//2 62//2
f 62//2 61//2 63//2
f 61//2 64//2 63//2
f 63//2 64//2 65//2
f 64//2 66//2 65//2
f 65//2 66//2 67//2
f 67//2 66//2 47//2
f 48//2 47//2 66//2
f 51//2 50//2 68//2
f 68//2 50//2 69//2
f 50//2 70//2 69//2
f 69//2 70//2 71//2
f 71//2 70//2 72//2
f 70//2 73//2 72//2
f 72//2 73//2 74//2
f 74//2 73//2 75//2
f 76//2 75//2 73//2
usemtl material_1_0
f 1//1 2//1 3//1
f 2//1 1//1 4//1
f 4//1 1//1 5//1
f 5//1 1//1 6//1
f 5//1 6//1 7//1
f 7//1 6//1 8//1
f 8//1 6//1 9//1
f 8//1 9//1 10//1
f 10//1 9//1 11//1
f 12//1 13//1 14//1
f 13//1 12//1 15//1
f 15//1 12//1 16//1
f 16//1 12//1 17//1
f 16//1 17//1 18//1
f 18//1 17//1 19//1
f 18//1 19//1 20//1
f 20//1 19//1 21//1
f 21//1 19//1 22//1
f 21//1 22//1 23//1
f 21//1 23//1 24//1
f 24//1 23//1 25//1
f 24//1 25//1 26//1
f 26//1 25//1 27//1
f 27//1 25//1 28//1
f 27//1 28//1 29//1
f 30//1 31//1 32//1
f 31//1 30//1 11//1
f 31//1 11//1 33//1
f 33//1 11//1 9//1
f 33//1 9//1 34//1
f 33//1 34//1 14//1
f 33//1 14//1 13//1
f 31//1 33//1 29//1
f 31//1 29//1 28//1
f 31//1 28//1 35//1
f 31//1 35//1 36//1
f 31//1 36//1 37//1
f 31//1 37//1 38//1
