# SSTK version 0.8.0
# 81
mtllib original-81.mtl
o #ID421
v 0.069021 0.102164 -0.243630
v 0.077475 0.102164 -0.247607
v 0.069399 0.102164 -0.252020
v 0.132852 0.102164 -0.222405
v 0.083605 0.102164 -0.245923
v 0.133204 0.102164 -0.230223
v 0.117618 0.102164 -0.263361
v 0.083542 0.102164 -0.248434
v 0.134548 0.102164 -0.260091
v 0.124210 0.102164 -0.264121
v 0.134850 0.102164 -0.266811
v 0.070723 0.102164 -0.281448
v 0.079077 0.102164 -0.285165
v 0.071093 0.102164 -0.289662
v 0.117813 0.102164 -0.265729
v 0.085472 0.102164 -0.283513
v 0.136606 0.102164 -0.305815
v 0.085595 0.102164 -0.286236
v 0.136254 0.102164 -0.297996
v 0.136254 0.102164 -0.297996
v 0.085595 0.102164 -0.286236
v 0.136606 0.102164 -0.305815
v 0.079077 0.102164 -0.285165
v 0.071093 0.102164 -0.289662
v 0.124210 0.102164 -0.264121
v 0.117813 0.102164 -0.265729
v 0.134850 0.102164 -0.266811
v 0.085472 0.102164 -0.283513
v 0.070723 0.102164 -0.281448
v 0.134548 0.102164 -0.260091
v 0.117618 0.102164 -0.263361
v 0.083542 0.102164 -0.248434
v 0.077475 0.102164 -0.247607
v 0.069399 0.102164 -0.252020
v 0.133204 0.102164 -0.230223
v 0.132852 0.102164 -0.222405
v 0.083605 0.102164 -0.245923
v 0.069021 0.102164 -0.243630
vn 0 1 0
vn 0 -1 0
usemtl material_0_0
f 20//2 21//2 22//2
f 21//2 23//2 22//2
f 24//2 22//2 23//2
f 25//2 26//2 27//2
f 27//2 26//2 28//2
f 28//2 26//2 23//2
f 26//2 29//2 23//2
f 24//2 23//2 29//2
f 27//2 30//2 25//2
f 25//2 30//2 31//2
f 30//2 32//2 31//2
f 32//2 33//2 31//2
f 34//2 31//2 33//2
f 35//2 36//2 37//2
f 37//2 36//2 33//2
f 36//2 38//2 33//2
f 34//2 33//2 38//2
usemtl material_1_0
f 1//1 2//1 3//1
f 2//1 1//1 4//1
f 2//1 4//1 5//1
f 5//1 4//1 6//1
f 2//1 7//1 3//1
f 7//1 2//1 8//1
f 7//1 8//1 9//1
f 7//1 9//1 10//1
f 10//1 9//1 11//1
f 12//1 13//1 14//1
f 13//1 12//1 15//1
f 13//1 15//1 16//1
f 16//1 15//1 11//1
f 11//1 15//1 10//1
f 13//1 17//1 14//1
f 17//1 13//1 18//1
f 17//1 18//1 19//1
