# SSTK version 0.8.0
# 21
mtllib original-21.mtl
o #ID92
v -0.087927 -0.103150 -0.548888
v -0.086702 -0.083006 -0.545026
v -0.087927 -0.083006 -0.548888
v -0.086702 -0.103150 -0.545026
v -0.086702 -0.103150 -0.545026
v -0.087927 -0.103150 -0.548888
v -0.086702 -0.083006 -0.545026
v -0.087927 -0.083006 -0.548888
v -0.089804 -0.103150 -0.552478
v -0.089804 -0.083006 -0.552478
v -0.089804 -0.103150 -0.552478
v -0.089804 -0.083006 -0.552478
v -0.086166 -0.083006 -0.541010
v -0.086166 -0.103150 -0.541010
v -0.086166 -0.103150 -0.541010
v -0.086166 -0.083006 -0.541010
v -0.092276 -0.103150 -0.555688
v -0.092276 -0.083006 -0.555688
v -0.092276 -0.103150 -0.555688
v -0.092276 -0.083006 -0.555688
v -0.086335 -0.083006 -0.536962
v -0.086335 -0.103150 -0.536962
v -0.086335 -0.103150 -0.536962
v -0.086335 -0.083006 -0.536962
v -0.095268 -0.083006 -0.558420
v -0.095268 -0.103150 -0.558420
v -0.095268 -0.103150 -0.558420
v -0.095268 -0.083006 -0.558420
v -0.087205 -0.083006 -0.533005
v -0.087205 -0.103150 -0.533005
v -0.087205 -0.103150 -0.533005
v -0.087205 -0.083006 -0.533005
v -0.098689 -0.083006 -0.560591
v -0.098689 -0.103150 -0.560591
v -0.098689 -0.103150 -0.560591
v -0.098689 -0.083006 -0.560591
v -0.088749 -0.083006 -0.529259
v -0.088749 -0.103150 -0.529259
v -0.088749 -0.103150 -0.529259
v -0.088749 -0.083006 -0.529259
v -0.102435 -0.083006 -0.562134
v -0.102435 -0.103150 -0.562134
v -0.102435 -0.103150 -0.562134
v -0.102435 -0.083006 -0.562134
v -0.090919 -0.083006 -0.525838
v -0.090919 -0.103150 -0.525838
v -0.090919 -0.103150 -0.525838
v -0.090919 -0.083006 -0.525838
v -0.106392 -0.083006 -0.563004
v -0.106392 -0.103150 -0.563004
v -0.106392 -0.103150 -0.563004
v -0.106392 -0.083006 -0.563004
v -0.093651 -0.103150 -0.522846
v -0.093651 -0.083006 -0.522846
v -0.093651 -0.083006 -0.522846
v -0.093651 -0.103150 -0.522846
v -0.110440 -0.083006 -0.563174
v -0.110440 -0.103150 -0.563174
v -0.110440 -0.103150 -0.563174
v -0.110440 -0.083006 -0.563174
v -0.096861 -0.103150 -0.520374
v -0.096861 -0.083006 -0.520374
v -0.096861 -0.083006 -0.520374
v -0.096861 -0.103150 -0.520374
v -0.114456 -0.083006 -0.562638
v -0.114456 -0.103150 -0.562638
v -0.114456 -0.103150 -0.562638
v -0.114456 -0.083006 -0.562638
v -0.100451 -0.103150 -0.518497
v -0.100451 -0.083006 -0.518497
v -0.100451 -0.083006 -0.518497
v -0.100451 -0.103150 -0.518497
v -0.118318 -0.083006 -0.561412
v -0.118318 -0.103150 -0.561412
v -0.118318 -0.103150 -0.561412
v -0.118318 -0.083006 -0.561412
v -0.104313 -0.103150 -0.517271
v -0.104313 -0.083006 -0.517271
v -0.104313 -0.083006 -0.517271
v -0.104313 -0.103150 -0.517271
v -0.121908 -0.083006 -0.559535
v -0.121908 -0.103150 -0.559535
v -0.121908 -0.103150 -0.559535
v -0.121908 -0.083006 -0.559535
v -0.108329 -0.103150 -0.516735
v -0.108329 -0.083006 -0.516735
v -0.108329 -0.083006 -0.516735
v -0.108329 -0.103150 -0.516735
v -0.125118 -0.083006 -0.557063
v -0.125118 -0.103150 -0.557063
v -0.125118 -0.103150 -0.557063
v -0.125118 -0.083006 -0.557063
v -0.112377 -0.103150 -0.516905
v -0.112377 -0.083006 -0.516905
v -0.112377 -0.083006 -0.516905
v -0.112377 -0.103150 -0.516905
v -0.127850 -0.083006 -0.554071
v -0.127850 -0.103150 -0.554071
v -0.127850 -0.103150 -0.554071
v -0.127850 -0.083006 -0.554071
v -0.116334 -0.103150 -0.517775
v -0.116334 -0.083006 -0.517775
v -0.116334 -0.083006 -0.517775
v -0.116334 -0.103150 -0.517775
v -0.130021 -0.103150 -0.550650
v -0.130021 -0.083006 -0.550650
v -0.130021 -0.103150 -0.550650
v -0.130021 -0.083006 -0.550650
v -0.120080 -0.103150 -0.519318
v -0.120080 -0.083006 -0.519318
v -0.120080 -0.083006 -0.519318
v -0.120080 -0.103150 -0.519318
v -0.131564 -0.103150 -0.546904
v -0.131564 -0.083006 -0.546904
v -0.131564 -0.103150 -0.546904
v -0.131564 -0.083006 -0.546904
v -0.123501 -0.103150 -0.521489
v -0.123501 -0.083006 -0.521489
v -0.123501 -0.083006 -0.521489
v -0.123501 -0.103150 -0.521489
v -0.132434 -0.103150 -0.542947
v -0.132434 -0.083006 -0.542947
v -0.132434 -0.103150 -0.542947
v -0.132434 -0.083006 -0.542947
v -0.126493 -0.103150 -0.524221
v -0.126493 -0.083006 -0.524221
v -0.126493 -0.083006 -0.524221
v -0.126493 -0.103150 -0.524221
v -0.132604 -0.103150 -0.538899
v -0.132604 -0.083006 -0.538899
v -0.132604 -0.103150 -0.538899
v -0.132604 -0.083006 -0.538899
v -0.128965 -0.083006 -0.527431
v -0.128965 -0.103150 -0.527431
v -0.128965 -0.103150 -0.527431
v -0.128965 -0.083006 -0.527431
v -0.132068 -0.103150 -0.534883
v -0.132068 -0.083006 -0.534883
v -0.132068 -0.103150 -0.534883
v -0.132068 -0.083006 -0.534883
v -0.130842 -0.083006 -0.531021
v -0.130842 -0.103150 -0.531021
v -0.130842 -0.103150 -0.531021
v -0.130842 -0.083006 -0.531021
vn -0.9231914791143031 0 0.3843403347174811
vn -0.9759061145236144 0 0.21819086973432705
vn 0.9759061145236144 0 -0.21819086973432705
vn 0.9231914791143031 0 -0.3843403347174811
vn -0.8424261082934089 0 0.5388118893135353
vn 0.8424261082934089 0 -0.5388118893135353
vn -0.9989683553360496 0 0.04541172796963898
vn 0.9989683553360496 0 -0.04541172796963898
vn -0.7360640476449243 0 0.6769118980817005
vn 0.7360640476449243 0 -0.6769118980817005
vn -0.991677443374285 0 -0.1287472263881509
vn 0.991677443374285 0 0.1287472263881509
vn -0.607337095539441 0 0.7944442412036956
vn 0.607337095539441 0 -0.7944442412036956
vn -0.9542549276640492 0 -0.2989942023332233
vn 0.9542549276640492 0 0.2989942023332233
vn -0.46015646929655296 0 0.8878378364118813
vn 0.46015646929655296 0 -0.8878378364118813
vn -0.8878378364118813 0 -0.46015646929655296
vn 0.8878378364118813 0 0.46015646929655296
vn -0.2989942023332233 0 0.9542549276640492
vn 0.2989942023332233 0 -0.9542549276640492
vn -0.7944442412036956 0 -0.607337095539441
vn 0.7944442412036956 0 0.607337095539441
vn -0.1287472263881509 0 0.991677443374285
vn 0.1287472263881509 0 -0.991677443374285
vn -0.6769118980817005 0 -0.7360640476449243
vn 0.6769118980817005 0 0.7360640476449243
vn 0.04541172796963898 0 0.9989683553360496
vn -0.04541172796963898 0 -0.9989683553360496
vn -0.5388118893135353 0 -0.8424261082934089
vn 0.5388118893135353 0 0.8424261082934089
vn 0.21819086973432705 0 0.9759061145236144
vn -0.21819086973432705 0 -0.9759061145236144
vn -0.3843403347174811 0 -0.9231914791143031
vn 0.3843403347174811 0 0.9231914791143031
usemtl material_0_0
f 1//1 2//2 3//1
f 2//2 1//1 4//2
f 5//3 6//4 7//3
f 8//4 7//3 6//4
f 9//5 3//1 10//5
f 3//1 9//5 1//1
f 6//4 11//6 8//4
f 12//6 8//4 11//6
f 4//2 13//7 2//2
f 13//7 4//2 14//7
f 15//8 5//3 16//8
f 7//3 16//8 5//3
f 17//9 10//5 18//9
f 10//5 17//9 9//5
f 11//6 19//10 12//6
f 20//10 12//6 19//10
f 14//7 21//11 13//7
f 21//11 14//7 22//11
f 23//12 15//8 24//12
f 16//8 24//12 15//8
f 25//13 17//9 18//9
f 17//9 25//13 26//13
f 27//14 28//14 19//10
f 20//10 19//10 28//14
f 22//11 29//15 21//11
f 29//15 22//11 30//15
f 31//16 23//12 32//16
f 24//12 32//16 23//12
f 33//17 26//13 25//13
f 26//13 33//17 34//17
f 35//18 36//18 27//14
f 28//14 27//14 36//18
f 30//15 37//19 29//15
f 37//19 30//15 38//19
f 39//20 31//16 40//20
f 32//16 40//20 31//16
f 41//21 34//17 33//17
f 34//17 41//21 42//21
f 43//22 44//22 35//18
f 36//18 35//18 44//22
f 38//19 45//23 37//19
f 45//23 38//19 46//23
f 47//24 39//20 48//24
f 40//20 48//24 39//20
f 49//25 42//21 41//21
f 42//21 49//25 50//25
f 51//26 52//26 43//22
f 44//22 43//22 52//26
f 53//27 45//23 46//23
f 45//23 53//27 54//27
f 55//28 56//28 48//24
f 47//24 48//24 56//28
f 57//29 50//25 49//25
f 50//25 57//29 58//29
f 59//30 60//30 51//26
f 52//26 51//26 60//30
f 61//31 54//27 53//27
f 54//27 61//31 62//31
f 63//32 64//32 55//28
f 56//28 55//28 64//32
f 65//33 58//29 57//29
f 58//29 65//33 66//33
f 67//34 68//34 59//30
f 60//30 59//30 68//34
f 69//35 62//31 61//31
f 62//31 69//35 70//35
f 71//36 72//36 63//32
f 64//32 63//32 72//36
f 73//36 66//33 65//33
f 66//33 73//36 74//36
f 75//35 76//35 67//34
f 68//34 67//34 76//35
f 77//34 70//35 69//35
f 70//35 77//34 78//34
f 79//33 80//33 71//36
f 72//36 71//36 80//33
f 81//32 74//36 73//36
f 74//36 81//32 82//32
f 83//31 84//31 75//35
f 76//35 75//35 84//31
f 85//30 78//34 77//34
f 78//34 85//30 86//30
f 87//29 88//29 79//33
f 80//33 79//33 88//29
f 89//28 82//32 81//32
f 82//32 89//28 90//28
f 91//27 92//27 83//31
f 84//31 83//31 92//27
f 93//26 86//30 85//30
f 86//30 93//26 94//26
f 95//25 96//25 87//29
f 88//29 87//29 96//25
f 97//24 90//28 89//28
f 90//28 97//24 98//24
f 99//23 100//23 91//27
f 92//27 91//27 100//23
f 101//22 94//26 93//26
f 94//26 101//22 102//22
f 103//21 104//21 95//25
f 96//25 95//25 104//21
f 105//20 97//24 106//20
f 97//24 105//20 98//24
f 99//23 107//19 100//23
f 108//19 100//23 107//19
f 109//18 102//22 101//22
f 102//22 109//18 110//18
f 111//17 112//17 103//21
f 104//21 103//21 112//17
f 113//16 106//20 114//16
f 106//20 113//16 105//20
f 107//19 115//15 108//19
f 116//15 108//19 115//15
f 117//14 110//18 109//18
f 110//18 117//14 118//14
f 119//13 120//13 111//17
f 112//17 111//17 120//13
f 121//12 114//16 122//12
f 114//16 121//12 113//16
f 115//15 123//11 116//15
f 124//11 116//15 123//11
f 125//10 118//14 117//14
f 118//14 125//10 126//10
f 127//9 128//9 119//13
f 120//13 119//13 128//9
f 129//8 122//12 130//8
f 122//12 129//8 121//12
f 123//11 131//7 124//11
f 132//7 124//11 131//7
f 125//10 133//6 126//10
f 133//6 125//10 134//6
f 135//5 128//9 136//5
f 127//9 136//5 128//9
f 137//3 130//8 138//3
f 130//8 137//3 129//8
f 131//7 139//2 132//7
f 140//2 132//7 139//2
f 134//6 141//4 133//6
f 141//4 134//6 142//4
f 143//1 135//5 144//1
f 136//5 144//1 135//5
f 142//4 138//3 141//4
f 138//3 142//4 137//3
f 139//2 143//1 140//2
f 144//1 140//2 143//1
