# SSTK version 0.8.0
# 58
mtllib original-58.mtl
o #ID301
v 0.020614 0.027011 -0.321876
v 0.017231 0.015389 -0.339793
v 0.020614 0.015389 -0.321876
v 0.017231 0.027011 -0.339793
v 0.017231 0.027011 -0.339793
v 0.020614 0.027011 -0.321876
v 0.017231 0.015389 -0.339793
v 0.020614 0.015389 -0.321876
v 0.017231 0.027011 -0.339793
v 0.012419 0.015389 -0.122911
v 0.017231 0.015389 -0.339793
v 0.012419 0.027011 -0.122911
v 0.012419 0.027011 -0.122911
v 0.017231 0.027011 -0.339793
v 0.012419 0.015389 -0.122911
v 0.017231 0.015389 -0.339793
v 0.016593 0.015389 -0.140661
v 0.017231 0.015389 -0.339793
v 0.012419 0.015389 -0.122911
v 0.020091 0.015389 -0.158556
v 0.022907 0.015389 -0.176572
v 0.025037 0.015389 -0.194681
v 0.026478 0.015389 -0.212858
v 0.027229 0.015389 -0.231077
v 0.027287 0.015389 -0.249311
v 0.026653 0.015389 -0.267534
v 0.025329 0.015389 -0.285720
v 0.023314 0.015389 -0.303842
v 0.020614 0.015389 -0.321876
v 0.020614 0.015389 -0.321876
v 0.023314 0.015389 -0.303842
v 0.017231 0.015389 -0.339793
v 0.025329 0.015389 -0.285720
v 0.026653 0.015389 -0.267534
v 0.027287 0.015389 -0.249311
v 0.027229 0.015389 -0.231077
v 0.026478 0.015389 -0.212858
v 0.025037 0.015389 -0.194681
v 0.022907 0.015389 -0.176572
v 0.020091 0.015389 -0.158556
v 0.016593 0.015389 -0.140661
v 0.012419 0.015389 -0.122911
v 0.023314 0.027011 -0.303842
v 0.023314 0.015389 -0.303842
v 0.023314 0.027011 -0.303842
v 0.023314 0.015389 -0.303842
v 0.012419 0.027011 -0.122911
v 0.016593 0.015389 -0.140661
v 0.012419 0.015389 -0.122911
v 0.016593 0.027011 -0.140661
v 0.016593 0.027011 -0.140661
v 0.012419 0.027011 -0.122911
v 0.016593 0.015389 -0.140661
v 0.012419 0.015389 -0.122911
v 0.020091 0.027011 -0.158556
v 0.020091 0.015389 -0.158556
v 0.020091 0.027011 -0.158556
v 0.020091 0.015389 -0.158556
v 0.022907 0.015389 -0.176572
v 0.022907 0.027011 -0.176572
v 0.022907 0.027011 -0.176572
v 0.022907 0.015389 -0.176572
v 0.025037 0.015389 -0.194681
v 0.025037 0.027011 -0.194681
v 0.025037 0.027011 -0.194681
v 0.025037 0.015389 -0.194681
v 0.026478 0.015389 -0.212858
v 0.026478 0.027011 -0.212858
v 0.026478 0.027011 -0.212858
v 0.026478 0.015389 -0.212858
v 0.027229 0.027011 -0.231077
v 0.027229 0.015389 -0.231077
v 0.027229 0.027011 -0.231077
v 0.027229 0.015389 -0.231077
v 0.027287 0.015389 -0.249311
v 0.027287 0.027011 -0.249311
v 0.027287 0.027011 -0.249311
v 0.027287 0.015389 -0.249311
v 0.026653 0.015389 -0.267534
v 0.026653 0.027011 -0.267534
v 0.026653 0.027011 -0.267534
v 0.026653 0.015389 -0.267534
v 0.025329 0.015389 -0.285720
v 0.025329 0.027011 -0.285720
v 0.025329 0.027011 -0.285720
v 0.025329 0.015389 -0.285720
vn -0.985983828443275 0 0.1668409123936402
vn -0.9826396227512596 0 0.18552458543077818
vn 0.9826396227512596 0 -0.18552458543077818
vn 0.985983828443275 0 -0.1668409123936402
vn 0.9997539413814498 0 0.022182350918162133
vn -0.9997539413814498 0 -0.022182350918162133
vn 0 1 0
vn 0 -1 0
vn -0.9916055256935187 0 0.1292999667984499
vn 0.9916055256935187 0 -0.1292999667984499
vn -0.9734438762756441 0 -0.22892579527315984
vn -0.9776134825166751 0 -0.21040883727072493
vn 0.9776134825166751 0 0.21040883727072493
vn 0.9734438762756441 0 0.22892579527315984
vn -0.9848947304285238 0 -0.17315417977665262
vn 0.9848947304285238 0 0.17315417977665262
vn -0.9907568084184469 0 -0.1356500887301321
vn 0.9907568084184469 0 0.1356500887301321
vn -0.9951912915527293 0 -0.09795046308012273
vn 0.9951912915527293 0 0.09795046308012273
vn -0.9981917764131516 0 -0.06010971220324527
vn 0.9981917764131516 0 0.06010971220324527
vn -0.9997539413814498 0 -0.022182350918162834
vn 0.9997539413814498 0 0.022182350918162834
vn -0.9998755358083488 0 0.01577697347298715
vn 0.9998755358083488 0 -0.01577697347298715
vn -0.9985563843135118 0 0.053713567622399074
vn 0.9985563843135118 0 -0.053713567622399074
vn -0.9957983863236656 0 0.09157277868004107
vn 0.9957983863236656 0 -0.09157277868004107
usemtl material_0_0
f 1//1 2//2 3//1
f 2//2 1//1 4//2
f 5//3 6//4 7//3
f 8//4 7//3 6//4
f 9//5 10//5 11//5
f 10//5 9//5 12//5
f 13//6 14//6 15//6
f 16//6 15//6 14//6
f 17//7 18//7 19//7
f 18//7 17//7 20//7
f 18//7 20//7 21//7
f 18//7 21//7 22//7
f 18//7 22//7 23//7
f 18//7 23//7 24//7
f 18//7 24//7 25//7
f 18//7 25//7 26//7
f 18//7 26//7 27//7
f 18//7 27//7 28//7
f 18//7 28//7 29//7
f 30//8 31//8 32//8
f 31//8 33//8 32//8
f 33//8 34//8 32//8
f 34//8 35//8 32//8
f 35//8 36//8 32//8
f 36//8 37//8 32//8
f 37//8 38//8 32//8
f 38//8 39//8 32//8
f 39//8 40//8 32//8
f 40//8 41//8 32//8
f 42//8 32//8 41//8
f 43//9 3//1 44//9
f 3//1 43//9 1//1
f 6//4 45//10 8//4
f 46//10 8//4 45//10
f 47//11 48//12 49//11
f 48//12 47//11 50//12
f 51//13 52//14 53//13
f 54//14 53//13 52//14
f 48//12 55//15 56//15
f 55//15 48//12 50//12
f 51//13 53//13 57//16
f 58//16 57//16 53//13
f 55//15 59//17 56//15
f 59//17 55//15 60//17
f 61//18 57//16 62//18
f 58//16 62//18 57//16
f 60//17 63//19 59//17
f 63//19 60//17 64//19
f 65//20 61//18 66//20
f 62//18 66//20 61//18
f 64//19 67//21 63//19
f 67//21 64//19 68//21
f 69//22 65//20 70//22
f 66//20 70//22 65//20
f 67//21 71//23 72//23
f 71//23 67//21 68//21
f 69//22 70//22 73//24
f 74//24 73//24 70//22
f 71//23 75//25 72//23
f 75//25 71//23 76//25
f 77//26 73//24 78//26
f 74//24 78//26 73//24
f 76//25 79//27 75//25
f 79//27 76//25 80//27
f 81//28 77//26 82//28
f 78//26 82//28 77//26
f 80//27 83//29 79//27
f 83//29 80//27 84//29
f 85//30 81//28 86//30
f 82//28 86//30 81//28
f 84//29 44//9 83//29
f 44//9 84//29 43//9
f 45//10 85//30 46//10
f 86//30 46//10 85//30
