# SSTK version 0.8.0
# 87
mtllib original-87.mtl
o #ID452
v 0.089549 -0.087655 0.412274
v 0.093600 -0.103150 0.412319
v 0.089549 -0.103150 0.412274
v 0.093600 -0.087655 0.412319
v 0.093600 -0.087655 0.412319
v 0.089549 -0.087655 0.412274
v 0.093600 -0.103150 0.412319
v 0.089549 -0.103150 0.412274
v 0.085567 -0.087655 0.411526
v 0.085567 -0.103150 0.411526
v 0.085567 -0.087655 0.411526
v 0.085567 -0.103150 0.411526
v 0.097597 -0.103150 0.411660
v 0.097597 -0.087655 0.411660
v 0.097597 -0.087655 0.411660
v 0.097597 -0.103150 0.411660
v 0.081775 -0.087655 0.410097
v 0.081775 -0.103150 0.410097
v 0.081775 -0.087655 0.410097
v 0.081775 -0.103150 0.410097
v 0.101420 -0.103150 0.410317
v 0.101420 -0.087655 0.410317
v 0.101420 -0.087655 0.410317
v 0.101420 -0.103150 0.410317
v 0.078289 -0.087655 0.408033
v 0.078289 -0.103150 0.408033
v 0.078289 -0.087655 0.408033
v 0.078289 -0.103150 0.408033
v 0.104951 -0.103150 0.408330
v 0.104951 -0.087655 0.408330
v 0.104951 -0.087655 0.408330
v 0.104951 -0.103150 0.408330
v 0.075215 -0.087655 0.405394
v 0.075215 -0.103150 0.405394
v 0.075215 -0.087655 0.405394
v 0.075215 -0.103150 0.405394
v 0.108083 -0.103150 0.405761
v 0.108083 -0.087655 0.405761
v 0.108083 -0.087655 0.405761
v 0.108083 -0.103150 0.405761
v 0.072645 -0.103150 0.402261
v 0.072645 -0.087655 0.402261
v 0.072645 -0.103150 0.402261
v 0.072645 -0.087655 0.402261
v 0.110722 -0.103150 0.402686
v 0.110722 -0.087655 0.402686
v 0.110722 -0.087655 0.402686
v 0.110722 -0.103150 0.402686
v 0.070659 -0.103150 0.398730
v 0.070659 -0.087655 0.398730
v 0.070659 -0.103150 0.398730
v 0.070659 -0.087655 0.398730
v 0.112787 -0.087655 0.399200
v 0.112787 -0.103150 0.399200
v 0.112787 -0.087655 0.399200
v 0.112787 -0.103150 0.399200
v 0.069316 -0.103150 0.394908
v 0.069316 -0.087655 0.394908
v 0.069316 -0.103150 0.394908
v 0.069316 -0.087655 0.394908
v 0.114215 -0.087655 0.395409
v 0.114215 -0.103150 0.395409
v 0.114215 -0.087655 0.395409
v 0.114215 -0.103150 0.395409
v 0.068657 -0.103150 0.390910
v 0.068657 -0.087655 0.390910
v 0.068657 -0.103150 0.390910
v 0.068657 -0.087655 0.390910
v 0.114963 -0.087655 0.391427
v 0.114963 -0.103150 0.391427
v 0.114963 -0.087655 0.391427
v 0.114963 -0.103150 0.391427
v 0.068702 -0.103150 0.386859
v 0.068702 -0.087655 0.386859
v 0.068702 -0.103150 0.386859
v 0.068702 -0.087655 0.386859
v 0.115008 -0.087655 0.387376
v 0.115008 -0.103150 0.387376
v 0.115008 -0.087655 0.387376
v 0.115008 -0.103150 0.387376
v 0.069450 -0.103150 0.382877
v 0.069450 -0.087655 0.382877
v 0.069450 -0.103150 0.382877
v 0.069450 -0.087655 0.382877
v 0.114349 -0.087655 0.383378
v 0.114349 -0.103150 0.383378
v 0.114349 -0.087655 0.383378
v 0.114349 -0.103150 0.383378
v 0.070878 -0.103150 0.379086
v 0.070878 -0.087655 0.379086
v 0.070878 -0.103150 0.379086
v 0.070878 -0.087655 0.379086
v 0.113006 -0.087655 0.379556
v 0.113006 -0.103150 0.379556
v 0.113006 -0.087655 0.379556
v 0.113006 -0.103150 0.379556
v 0.072943 -0.103150 0.375600
v 0.072943 -0.087655 0.375600
v 0.072943 -0.103150 0.375600
v 0.072943 -0.087655 0.375600
v 0.111020 -0.087655 0.376025
v 0.111020 -0.103150 0.376025
v 0.111020 -0.087655 0.376025
v 0.111020 -0.103150 0.376025
v 0.075582 -0.103150 0.372525
v 0.075582 -0.087655 0.372525
v 0.075582 -0.103150 0.372525
v 0.075582 -0.087655 0.372525
v 0.108450 -0.087655 0.372892
v 0.108450 -0.103150 0.372892
v 0.108450 -0.087655 0.372892
v 0.108450 -0.103150 0.372892
v 0.078714 -0.087655 0.369956
v 0.078714 -0.103150 0.369956
v 0.078714 -0.087655 0.369956
v 0.078714 -0.103150 0.369956
v 0.105376 -0.087655 0.370253
v 0.105376 -0.103150 0.370253
v 0.105376 -0.087655 0.370253
v 0.105376 -0.103150 0.370253
v 0.082245 -0.087655 0.367969
v 0.082245 -0.103150 0.367969
v 0.082245 -0.087655 0.367969
v 0.082245 -0.103150 0.367969
v 0.101890 -0.103150 0.368188
v 0.101890 -0.087655 0.368188
v 0.101890 -0.087655 0.368188
v 0.101890 -0.103150 0.368188
v 0.086068 -0.087655 0.366626
v 0.086068 -0.103150 0.366626
v 0.086068 -0.087655 0.366626
v 0.086068 -0.103150 0.366626
v 0.098098 -0.103150 0.366760
v 0.098098 -0.087655 0.366760
v 0.098098 -0.087655 0.366760
v 0.098098 -0.103150 0.366760
v 0.090065 -0.087655 0.365967
v 0.090065 -0.103150 0.365967
v 0.090065 -0.087655 0.365967
v 0.090065 -0.103150 0.365967
v 0.094117 -0.103150 0.366012
v 0.094117 -0.087655 0.366012
v 0.094117 -0.087655 0.366012
v 0.094117 -0.103150 0.366012
vn 0.09826808095065777 0 -0.995159979232623
vn -0.07603256268135514 0 -0.997105335163796
vn 0.07603256268135514 0 0.997105335163796
vn -0.09826808095065777 0 0.995159979232623
vn 0.26958283919288584 0 -0.9629772026443318
vn -0.26958283919288584 0 0.9629772026443318
vn -0.24802299500531846 0 -0.9687541452549207
vn 0.24802299500531846 0 0.9687541452549207
vn 0.4327065384909133 0 -0.9015348310227462
vn -0.4327065384909133 0 0.9015348310227462
vn -0.41247731712281027 0 -0.9109678714747127
vn 0.41247731712281027 0 0.9109678714747127
vn 0.5826826493520604 0 -0.8126997786046603
vn -0.5826826493520604 0 0.8126997786046603
vn -0.5643987999408154 0 -0.8255022680922005
vn 0.5643987999408154 0 0.8255022680922005
vn 0.7149541977918231 0 -0.6991712916445089
vn -0.7149541977918231 0 0.6991712916445089
vn -0.6991712916445086 0 -0.7149541977918233
vn 0.6991712916445086 0 0.7149541977918233
vn 0.8255022680922005 0 -0.5643987999408157
vn -0.8255022680922005 0 0.5643987999408157
vn -0.8126997786046601 0 -0.5826826493520607
vn 0.8126997786046601 0 0.5826826493520607
vn 0.9109678714747127 0 -0.41247731712281044
vn -0.9109678714747127 0 0.41247731712281044
vn -0.9015348310227462 0 -0.4327065384909135
vn 0.9015348310227462 0 0.4327065384909135
vn 0.9687541452549204 0 -0.24802299500531846
vn -0.9687541452549204 0 0.24802299500531846
vn -0.9629772026443318 0 -0.26958283919288595
vn 0.9629772026443318 0 0.26958283919288595
vn 0.997105335163796 0 -0.07603256268135515
vn -0.997105335163796 0 0.07603256268135515
vn -0.995159979232623 0 -0.09826808095065781
vn 0.995159979232623 0 0.09826808095065781
vn -0.997105335163796 0 0.07603256268135543
vn 0.997105335163796 0 -0.07603256268135543
vn 0.07603256268135525 0 0.997105335163796
vn -0.07603256268135525 0 -0.997105335163796
usemtl material_0_0
f 1//1 2//2 3//1
f 2//2 1//1 4//2
f 5//3 6//4 7//3
f 8//4 7//3 6//4
f 9//5 3//1 10//5
f 3//1 9//5 1//1
f 6//4 11//6 8//4
f 12//6 8//4 11//6
f 4//2 13//7 2//2
f 13//7 4//2 14//7
f 15//8 5//3 16//8
f 7//3 16//8 5//3
f 17//9 10//5 18//9
f 10//5 17//9 9//5
f 11//6 19//10 12//6
f 20//10 12//6 19//10
f 14//7 21//11 13//7
f 21//11 14//7 22//11
f 23//12 15//8 24//12
f 16//8 24//12 15//8
f 25//13 18//9 26//13
f 18//9 25//13 17//9
f 19//10 27//14 20//10
f 28//14 20//10 27//14
f 22//11 29//15 21//11
f 29//15 22//11 30//15
f 31//16 23//12 32//16
f 24//12 32//16 23//12
f 33//17 26//13 34//17
f 26//13 33//17 25//13
f 27//14 35//18 28//14
f 36//18 28//14 35//18
f 30//15 37//19 29//15
f 37//19 30//15 38//19
f 39//20 31//16 40//20
f 32//16 40//20 31//16
f 33//17 41//21 42//21
f 41//21 33//17 34//17
f 36//18 35//18 43//22
f 44//22 43//22 35//18
f 38//19 45//23 37//19
f 45//23 38//19 46//23
f 47//24 39//20 48//24
f 40//20 48//24 39//20
f 42//21 49//25 50//25
f 49//25 42//21 41//21
f 43//22 44//22 51//26
f 52//26 51//26 44//22
f 45//23 53//27 54//27
f 53//27 45//23 46//23
f 47//24 48//24 55//28
f 56//28 55//28 48//24
f 50//25 57//29 58//29
f 57//29 50//25 49//25
f 51//26 52//26 59//30
f 60//30 59//30 52//26
f 54//27 61//31 62//31
f 61//31 54//27 53//27
f 55//28 56//28 63//32
f 64//32 63//32 56//28
f 58//29 65//33 66//33
f 65//33 58//29 57//29
f 59//30 60//30 67//34
f 68//34 67//34 60//30
f 62//31 69//35 70//35
f 69//35 62//31 61//31
f 63//32 64//32 71//36
f 72//36 71//36 64//32
f 66//33 73//36 74//36
f 73//36 66//33 65//33
f 67//34 68//34 75//35
f 76//35 75//35 68//34
f 70//35 77//37 78//37
f 77//37 70//35 69//35
f 71//36 72//36 79//38
f 80//38 79//38 72//36
f 74//36 81//32 82//32
f 81//32 74//36 73//36
f 75//35 76//35 83//31
f 84//31 83//31 76//35
f 78//37 85//30 86//30
f 85//30 78//37 77//37
f 79//38 80//38 87//29
f 88//29 87//29 80//38
f 82//32 89//28 90//28
f 89//28 82//32 81//32
f 83//31 84//31 91//27
f 92//27 91//27 84//31
f 86//30 93//26 94//26
f 93//26 86//30 85//30
f 87//29 88//29 95//25
f 96//25 95//25 88//29
f 90//28 97//24 98//24
f 97//24 90//28 89//28
f 91//27 92//27 99//23
f 100//23 99//23 92//27
f 94//26 101//22 102//22
f 101//22 94//26 93//26
f 95//25 96//25 103//21
f 104//21 103//21 96//25
f 98//24 105//20 106//20
f 105//20 98//24 97//24
f 99//23 100//23 107//19
f 108//19 107//19 100//23
f 102//22 109//18 110//18
f 109//18 102//22 101//22
f 103//21 104//21 111//17
f 112//17 111//17 104//21
f 113//16 105//20 114//16
f 105//20 113//16 106//20
f 108//19 115//15 107//19
f 116//15 107//19 115//15
f 110//18 117//14 118//14
f 117//14 110//18 109//18
f 111//17 112//17 119//13
f 120//13 119//13 112//17
f 121//12 114//16 122//12
f 114//16 121//12 113//16
f 115//15 123//11 116//15
f 124//11 116//15 123//11
f 117//14 125//10 118//14
f 125//10 117//14 126//10
f 127//9 119//13 128//9
f 120//13 128//9 119//13
f 129//8 122//12 130//8
f 122//12 129//8 121//12
f 123//11 131//7 124//11
f 132//7 124//11 131//7
f 126//10 133//6 125//10
f 133//6 126//10 134//6
f 135//5 127//9 136//5
f 128//9 136//5 127//9
f 137//39 130//8 138//39
f 130//8 137//39 129//8
f 131//7 139//40 132//7
f 140//40 132//7 139//40
f 134//6 141//4 133//6
f 141//4 134//6 142//4
f 143//1 135//5 144//1
f 136//5 144//1 135//5
f 142//4 138//39 141//4
f 138//39 142//4 137//39
f 139//40 143//1 140//40
f 144//1 140//40 143//1
