# SSTK version 0.8.0
# 101
mtllib original-101.mtl
o #ID511
v 0.069950 -0.039619 -0.548561
v 0.068726 -0.059763 -0.544698
v 0.069950 -0.059763 -0.548561
v 0.068726 -0.039619 -0.544698
v 0.068726 -0.039619 -0.544698
v 0.069950 -0.039619 -0.548561
v 0.068726 -0.059763 -0.544698
v 0.069950 -0.059763 -0.548561
v 0.071825 -0.039619 -0.552152
v 0.071825 -0.059763 -0.552152
v 0.071825 -0.039619 -0.552152
v 0.071825 -0.059763 -0.552152
v 0.068192 -0.059763 -0.540682
v 0.068192 -0.039619 -0.540682
v 0.068192 -0.039619 -0.540682
v 0.068192 -0.059763 -0.540682
v 0.074296 -0.039619 -0.555363
v 0.074296 -0.059763 -0.555363
v 0.074296 -0.039619 -0.555363
v 0.074296 -0.059763 -0.555363
v 0.068363 -0.059763 -0.536634
v 0.068363 -0.039619 -0.536634
v 0.068363 -0.039619 -0.536634
v 0.068363 -0.059763 -0.536634
v 0.077287 -0.059763 -0.558096
v 0.077287 -0.039619 -0.558096
v 0.077287 -0.039619 -0.558096
v 0.077287 -0.059763 -0.558096
v 0.069235 -0.059763 -0.532678
v 0.069235 -0.039619 -0.532678
v 0.069235 -0.039619 -0.532678
v 0.069235 -0.059763 -0.532678
v 0.080707 -0.059763 -0.560268
v 0.080707 -0.039619 -0.560268
v 0.080707 -0.039619 -0.560268
v 0.080707 -0.059763 -0.560268
v 0.070780 -0.059763 -0.528932
v 0.070780 -0.039619 -0.528932
v 0.070780 -0.039619 -0.528932
v 0.070780 -0.059763 -0.528932
v 0.084452 -0.059763 -0.561814
v 0.084452 -0.039619 -0.561814
v 0.084452 -0.039619 -0.561814
v 0.084452 -0.059763 -0.561814
v 0.072953 -0.059763 -0.525512
v 0.072953 -0.039619 -0.525512
v 0.072953 -0.039619 -0.525512
v 0.072953 -0.059763 -0.525512
v 0.088409 -0.059763 -0.562685
v 0.088409 -0.039619 -0.562685
v 0.088409 -0.039619 -0.562685
v 0.088409 -0.059763 -0.562685
v 0.075686 -0.039619 -0.522522
v 0.075686 -0.059763 -0.522522
v 0.075686 -0.059763 -0.522522
v 0.075686 -0.039619 -0.522522
v 0.092457 -0.059763 -0.562857
v 0.092457 -0.039619 -0.562857
v 0.092457 -0.039619 -0.562857
v 0.092457 -0.059763 -0.562857
v 0.078897 -0.039619 -0.520051
v 0.078897 -0.059763 -0.520051
v 0.078897 -0.059763 -0.520051
v 0.078897 -0.039619 -0.520051
v 0.096473 -0.059763 -0.562323
v 0.096473 -0.039619 -0.562323
v 0.096473 -0.039619 -0.562323
v 0.096473 -0.059763 -0.562323
v 0.082488 -0.039619 -0.518175
v 0.082488 -0.059763 -0.518175
v 0.082488 -0.059763 -0.518175
v 0.082488 -0.039619 -0.518175
v 0.100335 -0.059763 -0.561099
v 0.100335 -0.039619 -0.561099
v 0.100335 -0.039619 -0.561099
v 0.100335 -0.059763 -0.561099
v 0.086351 -0.039619 -0.516952
v 0.086351 -0.059763 -0.516952
v 0.086351 -0.059763 -0.516952
v 0.086351 -0.039619 -0.516952
v 0.103927 -0.059763 -0.559223
v 0.103927 -0.039619 -0.559223
v 0.103927 -0.039619 -0.559223
v 0.103927 -0.059763 -0.559223
v 0.090367 -0.039619 -0.516418
v 0.090367 -0.059763 -0.516418
v 0.090367 -0.059763 -0.516418
v 0.090367 -0.039619 -0.516418
v 0.107138 -0.059763 -0.556753
v 0.107138 -0.039619 -0.556753
v 0.107138 -0.039619 -0.556753
v 0.107138 -0.059763 -0.556753
v 0.094415 -0.039619 -0.516589
v 0.094415 -0.059763 -0.516589
v 0.094415 -0.059763 -0.516589
v 0.094415 -0.039619 -0.516589
v 0.109871 -0.059763 -0.553762
v 0.109871 -0.039619 -0.553762
v 0.109871 -0.039619 -0.553762
v 0.109871 -0.059763 -0.553762
v 0.098371 -0.039619 -0.517460
v 0.098371 -0.059763 -0.517460
v 0.098371 -0.059763 -0.517460
v 0.098371 -0.039619 -0.517460
v 0.112043 -0.039619 -0.550342
v 0.112043 -0.059763 -0.550342
v 0.112043 -0.039619 -0.550342
v 0.112043 -0.059763 -0.550342
v 0.102117 -0.039619 -0.519006
v 0.102117 -0.059763 -0.519006
v 0.102117 -0.059763 -0.519006
v 0.102117 -0.039619 -0.519006
v 0.113588 -0.039619 -0.546597
v 0.113588 -0.059763 -0.546597
v 0.113588 -0.039619 -0.546597
v 0.113588 -0.059763 -0.546597
v 0.105537 -0.039619 -0.521178
v 0.105537 -0.059763 -0.521178
v 0.105537 -0.059763 -0.521178
v 0.105537 -0.039619 -0.521178
v 0.114460 -0.039619 -0.542640
v 0.114460 -0.059763 -0.542640
v 0.114460 -0.039619 -0.542640
v 0.114460 -0.059763 -0.542640
v 0.108527 -0.039619 -0.523911
v 0.108527 -0.059763 -0.523911
v 0.108527 -0.059763 -0.523911
v 0.108527 -0.039619 -0.523911
v 0.114631 -0.039619 -0.538592
v 0.114631 -0.059763 -0.538592
v 0.114631 -0.039619 -0.538592
v 0.114631 -0.059763 -0.538592
v 0.110998 -0.059763 -0.527122
v 0.110998 -0.039619 -0.527122
v 0.110998 -0.039619 -0.527122
v 0.110998 -0.059763 -0.527122
v 0.114097 -0.039619 -0.534576
v 0.114097 -0.059763 -0.534576
v 0.114097 -0.039619 -0.534576
v 0.114097 -0.059763 -0.534576
v 0.112874 -0.059763 -0.530714
v 0.112874 -0.039619 -0.530714
v 0.112874 -0.039619 -0.530714
v 0.112874 -0.059763 -0.530714
vn 0.9233655095661796 0 0.3839220438364924
vn 0.9760048656336392 0 0.21774871356557282
vn -0.9760048656336392 0 -0.21774871356557282
vn -0.9233655095661796 0 -0.3839220438364924
vn 0.8426701302944448 0 0.5384301732904121
vn -0.8426701302944448 0 -0.5384301732904121
vn 0.9989888265756107 0 0.04495914119602604
vn -0.9989888265756107 0 -0.04495914119602604
vn 0.7363706467013903 0 0.6765783551641129
vn -0.7363706467013903 0 -0.6765783551641129
vn 0.9916190127350294 0 -0.12919649214435172
vn -0.9916190127350294 0 0.12919649214435172
vn 0.6076969557759554 0 0.7941690059053153
vn -0.6076969557759554 0 -0.7941690059053153
vn 0.9541193705581514 0 -0.2994264963654967
vn -0.9541193705581514 0 0.2994264963654967
vn 0.4605586565593046 0 0.8876292716378209
vn -0.4605586565593046 0 -0.8876292716378209
vn 0.8876292716378209 0 -0.4605586565593046
vn -0.8876292716378209 0 0.4605586565593046
vn 0.2994264963654967 0 0.9541193705581514
vn -0.2994264963654967 0 -0.9541193705581514
vn 0.7941690059053153 0 -0.6076969557759554
vn -0.7941690059053153 0 0.6076969557759554
vn 0.12919649214435172 0 0.9916190127350294
vn -0.12919649214435172 0 -0.9916190127350294
vn 0.6765783551641129 0 -0.7363706467013903
vn -0.6765783551641129 0 0.7363706467013903
vn -0.04495914119602604 0 0.9989888265756107
vn 0.04495914119602604 0 -0.9989888265756107
vn 0.5384301732904121 0 -0.8426701302944448
vn -0.5384301732904121 0 0.8426701302944448
vn -0.21774871356557282 0 0.9760048656336392
vn 0.21774871356557282 0 -0.9760048656336392
vn 0.3839220438364924 0 -0.9233655095661796
vn -0.3839220438364924 0 0.9233655095661796
usemtl material_0_0
f 1//1 2//2 3//1
f 2//2 1//1 4//2
f 5//3 6//4 7//3
f 8//4 7//3 6//4
f 9//5 3//1 10//5
f 3//1 9//5 1//1
f 6//4 11//6 8//4
f 12//6 8//4 11//6
f 4//2 13//7 2//2
f 13//7 4//2 14//7
f 15//8 5//3 16//8
f 7//3 16//8 5//3
f 17//9 10//5 18//9
f 10//5 17//9 9//5
f 11//6 19//10 12//6
f 20//10 12//6 19//10
f 14//7 21//11 13//7
f 21//11 14//7 22//11
f 23//12 15//8 24//12
f 16//8 24//12 15//8
f 25//13 17//9 18//9
f 17//9 25//13 26//13
f 27//14 28//14 19//10
f 20//10 19//10 28//14
f 22//11 29//15 21//11
f 29//15 22//11 30//15
f 31//16 23//12 32//16
f 24//12 32//16 23//12
f 33//17 26//13 25//13
f 26//13 33//17 34//17
f 35//18 36//18 27//14
f 28//14 27//14 36//18
f 30//15 37//19 29//15
f 37//19 30//15 38//19
f 39//20 31//16 40//20
f 32//16 40//20 31//16
f 41//21 34//17 33//17
f 34//17 41//21 42//21
f 43//22 44//22 35//18
f 36//18 35//18 44//22
f 38//19 45//23 37//19
f 45//23 38//19 46//23
f 47//24 39//20 48//24
f 40//20 48//24 39//20
f 49//25 42//21 41//21
f 42//21 49//25 50//25
f 51//26 52//26 43//22
f 44//22 43//22 52//26
f 53//27 45//23 46//23
f 45//23 53//27 54//27
f 55//28 56//28 48//24
f 47//24 48//24 56//28
f 57//29 50//25 49//25
f 50//25 57//29 58//29
f 59//30 60//30 51//26
f 52//26 51//26 60//30
f 61//31 54//27 53//27
f 54//27 61//31 62//31
f 63//32 64//32 55//28
f 56//28 55//28 64//32
f 65//33 58//29 57//29
f 58//29 65//33 66//33
f 67//34 68//34 59//30
f 60//30 59//30 68//34
f 69//35 62//31 61//31
f 62//31 69//35 70//35
f 71//36 72//36 63//32
f 64//32 63//32 72//36
f 73//36 66//33 65//33
f 66//33 73//36 74//36
f 75//35 76//35 67//34
f 68//34 67//34 76//35
f 77//34 70//35 69//35
f 70//35 77//34 78//34
f 79//33 80//33 71//36
f 72//36 71//36 80//33
f 81//32 74//36 73//36
f 74//36 81//32 82//32
f 83//31 84//31 75//35
f 76//35 75//35 84//31
f 85//30 78//34 77//34
f 78//34 85//30 86//30
f 87//29 88//29 79//33
f 80//33 79//33 88//29
f 89//28 82//32 81//32
f 82//32 89//28 90//28
f 91//27 92//27 83//31
f 84//31 83//31 92//27
f 93//26 86//30 85//30
f 86//30 93//26 94//26
f 95//25 96//25 87//29
f 88//29 87//29 96//25
f 97//24 90//28 89//28
f 90//28 97//24 98//24
f 99//23 100//23 91//27
f 92//27 91//27 100//23
f 101//22 94//26 93//26
f 94//26 101//22 102//22
f 103//21 104//21 95//25
f 96//25 95//25 104//21
f 105//20 97//24 106//20
f 97//24 105//20 98//24
f 99//23 107//19 100//23
f 108//19 100//23 107//19
f 109//18 102//22 101//22
f 102//22 109//18 110//18
f 111//17 112//17 103//21
f 104//21 103//21 112//17
f 113//16 106//20 114//16
f 106//20 113//16 105//20
f 107//19 115//15 108//19
f 116//15 108//19 115//15
f 117//14 110//18 109//18
f 110//18 117//14 118//14
f 119//13 120//13 111//17
f 112//17 111//17 120//13
f 121//12 114//16 122//12
f 114//16 121//12 113//16
f 115//15 123//11 116//15
f 124//11 116//15 123//11
f 125//10 118//14 117//14
f 118//14 125//10 126//10
f 127//9 128//9 119//13
f 120//13 119//13 128//9
f 129//8 122//12 130//8
f 122//12 129//8 121//12
f 123//11 131//7 124//11
f 132//7 124//11 131//7
f 125//10 133//6 126//10
f 133//6 125//10 134//6
f 135//5 128//9 136//5
f 127//9 136//5 128//9
f 137//3 130//8 138//3
f 130//8 137//3 129//8
f 131//7 139//2 132//7
f 140//2 132//7 139//2
f 134//6 141//4 133//6
f 141//4 134//6 142//4
f 143//1 135//5 144//1
f 136//5 144//1 135//5
f 142//4 138//3 141//4
f 138//3 142//4 137//3
f 139//2 143//1 140//2
f 144//1 140//2 143//1
