# SSTK version 0.8.0
# 103
mtllib original-103.mtl
o #ID518
v 0.132674 0.027011 -0.561047
v 0.096473 0.027011 -0.562323
v 0.092457 0.027011 -0.562857
v 0.135765 0.027011 -0.553556
v 0.100335 0.027011 -0.561099
v 0.103927 0.027011 -0.559223
v 0.107138 0.027011 -0.556753
v 0.109871 0.027011 -0.553762
v 0.137508 0.027011 -0.545643
v 0.112043 0.027011 -0.550342
v 0.113588 0.027011 -0.546597
v 0.137851 0.027011 -0.537547
v 0.114460 0.027011 -0.542640
v 0.114631 0.027011 -0.538592
v 0.136783 0.027011 -0.529515
v 0.114097 0.027011 -0.534576
v 0.112874 0.027011 -0.530714
v 0.110998 0.027011 -0.527122
v 0.134336 0.027011 -0.521790
v 0.108527 0.027011 -0.523911
v 0.105537 0.027011 -0.521178
v 0.130584 0.027011 -0.514608
v 0.102117 0.027011 -0.519006
v 0.098371 0.027011 -0.517460
v 0.094415 0.027011 -0.516589
v 0.090367 0.027011 -0.516418
v 0.125643 0.027011 -0.508186
v 0.050149 0.027011 -0.518228
v 0.054494 0.027011 -0.511388
v 0.119661 0.027011 -0.502719
v 0.059960 0.027011 -0.505406
v 0.112821 0.027011 -0.498375
v 0.066382 0.027011 -0.500465
v 0.105331 0.027011 -0.495284
v 0.073565 0.027011 -0.496713
v 0.097418 0.027011 -0.493541
v 0.081289 0.027011 -0.494266
v 0.089322 0.027011 -0.493198
v 0.101534 0.027011 -0.585008
v 0.085406 0.027011 -0.585734
v 0.093502 0.027011 -0.586076
v 0.109259 0.027011 -0.582561
v 0.077493 0.027011 -0.583991
v 0.116441 0.027011 -0.578810
v 0.070002 0.027011 -0.580900
v 0.122863 0.027011 -0.573868
v 0.063162 0.027011 -0.576555
v 0.128330 0.027011 -0.567887
v 0.057181 0.027011 -0.571089
v 0.052239 0.027011 -0.564667
v 0.088409 0.027011 -0.562685
v 0.048488 0.027011 -0.557484
v 0.084452 0.027011 -0.561814
v 0.080707 0.027011 -0.560268
v 0.077287 0.027011 -0.558096
v 0.074296 0.027011 -0.555363
v 0.046041 0.027011 -0.549759
v 0.071825 0.027011 -0.552152
v 0.069950 0.027011 -0.548561
v 0.044973 0.027011 -0.541727
v 0.068726 0.027011 -0.544698
v 0.068192 0.027011 -0.540682
v 0.068363 0.027011 -0.536634
v 0.045315 0.027011 -0.533631
v 0.069235 0.027011 -0.532678
v 0.070780 0.027011 -0.528932
v 0.047058 0.027011 -0.525718
v 0.072953 0.027011 -0.525512
v 0.075686 0.027011 -0.522522
v 0.078897 0.027011 -0.520051
v 0.082488 0.027011 -0.518175
v 0.086351 0.027011 -0.516952
v 0.090367 0.027011 -0.516418
v 0.086351 0.027011 -0.516952
v 0.050149 0.027011 -0.518228
v 0.082488 0.027011 -0.518175
v 0.078897 0.027011 -0.520051
v 0.075686 0.027011 -0.522522
v 0.047058 0.027011 -0.525718
v 0.072953 0.027011 -0.525512
v 0.070780 0.027011 -0.528932
v 0.045315 0.027011 -0.533631
v 0.069235 0.027011 -0.532678
v 0.068363 0.027011 -0.536634
v 0.044973 0.027011 -0.541727
v 0.068192 0.027011 -0.540682
v 0.068726 0.027011 -0.544698
v 0.069950 0.027011 -0.548561
v 0.046041 0.027011 -0.549759
v 0.071825 0.027011 -0.552152
v 0.074296 0.027011 -0.555363
v 0.048488 0.027011 -0.557484
v 0.077287 0.027011 -0.558096
v 0.080707 0.027011 -0.560268
v 0.084452 0.027011 -0.561814
v 0.088409 0.027011 -0.562685
v 0.052239 0.027011 -0.564667
v 0.092457 0.027011 -0.562857
v 0.132674 0.027011 -0.561047
v 0.057181 0.027011 -0.571089
v 0.128330 0.027011 -0.567887
v 0.063162 0.027011 -0.576555
v 0.122863 0.027011 -0.573868
v 0.070002 0.027011 -0.580900
v 0.116441 0.027011 -0.578810
v 0.077493 0.027011 -0.583991
v 0.109259 0.027011 -0.582561
v 0.085406 0.027011 -0.585734
v 0.101534 0.027011 -0.585008
v 0.093502 0.027011 -0.586076
v 0.089322 0.027011 -0.493198
v 0.097418 0.027011 -0.493541
v 0.081289 0.027011 -0.494266
v 0.073565 0.027011 -0.496713
v 0.105331 0.027011 -0.495284
v 0.066382 0.027011 -0.500465
v 0.112821 0.027011 -0.498375
v 0.059960 0.027011 -0.505406
v 0.119661 0.027011 -0.502719
v 0.054494 0.027011 -0.511388
v 0.125643 0.027011 -0.508186
v 0.130584 0.027011 -0.514608
v 0.094415 0.027011 -0.516589
v 0.098371 0.027011 -0.517460
v 0.102117 0.027011 -0.519006
v 0.105537 0.027011 -0.521178
v 0.134336 0.027011 -0.521790
v 0.108527 0.027011 -0.523911
v 0.110998 0.027011 -0.527122
v 0.136783 0.027011 -0.529515
v 0.112874 0.027011 -0.530714
v 0.114097 0.027011 -0.534576
v 0.114631 0.027011 -0.538592
v 0.137851 0.027011 -0.537547
v 0.114460 0.027011 -0.542640
v 0.113588 0.027011 -0.546597
v 0.137508 0.027011 -0.545643
v 0.112043 0.027011 -0.550342
v 0.109871 0.027011 -0.553762
v 0.135765 0.027011 -0.553556
v 0.107138 0.027011 -0.556753
v 0.103927 0.027011 -0.559223
v 0.100335 0.027011 -0.561099
v 0.096473 0.027011 -0.562323
v 0.112821 0.027011 -0.498375
v 0.105331 0.047155 -0.495284
v 0.105331 0.027011 -0.495284
v 0.112821 0.047155 -0.498375
v 0.112821 0.047155 -0.498375
v 0.112821 0.027011 -0.498375
v 0.105331 0.047155 -0.495284
v 0.105331 0.027011 -0.495284
v 0.097418 0.047155 -0.493541
v 0.097418 0.027011 -0.493541
v 0.097418 0.047155 -0.493541
v 0.097418 0.027011 -0.493541
v 0.089322 0.047155 -0.493198
v 0.089322 0.027011 -0.493198
v 0.089322 0.047155 -0.493198
v 0.089322 0.027011 -0.493198
v 0.081289 0.047155 -0.494266
v 0.081289 0.027011 -0.494266
v 0.081289 0.047155 -0.494266
v 0.081289 0.027011 -0.494266
v 0.073565 0.047155 -0.496713
v 0.073565 0.027011 -0.496713
v 0.073565 0.047155 -0.496713
v 0.073565 0.027011 -0.496713
v 0.066382 0.047155 -0.500465
v 0.066382 0.027011 -0.500465
v 0.066382 0.047155 -0.500465
v 0.066382 0.027011 -0.500465
v 0.059960 0.047155 -0.505406
v 0.059960 0.027011 -0.505406
v 0.059960 0.047155 -0.505406
v 0.059960 0.027011 -0.505406
v 0.054494 0.047155 -0.511388
v 0.054494 0.027011 -0.511388
v 0.054494 0.047155 -0.511388
v 0.054494 0.027011 -0.511388
v 0.050149 0.027011 -0.518228
v 0.050149 0.047155 -0.518228
v 0.050149 0.047155 -0.518228
v 0.050149 0.027011 -0.518228
v 0.047058 0.027011 -0.525718
v 0.047058 0.047155 -0.525718
v 0.047058 0.047155 -0.525718
v 0.047058 0.027011 -0.525718
v 0.045315 0.027011 -0.533631
v 0.045315 0.047155 -0.533631
v 0.045315 0.047155 -0.533631
v 0.045315 0.027011 -0.533631
v 0.044973 0.027011 -0.541727
v 0.044973 0.047155 -0.541727
v 0.044973 0.047155 -0.541727
v 0.044973 0.027011 -0.541727
v 0.046041 0.027011 -0.549759
v 0.046041 0.047155 -0.549759
v 0.046041 0.047155 -0.549759
v 0.046041 0.027011 -0.549759
v 0.048488 0.027011 -0.557484
v 0.048488 0.047155 -0.557484
v 0.048488 0.047155 -0.557484
v 0.048488 0.027011 -0.557484
v 0.052239 0.027011 -0.564667
v 0.052239 0.047155 -0.564667
v 0.052239 0.047155 -0.564667
v 0.052239 0.027011 -0.564667
v 0.057181 0.027011 -0.571089
v 0.057181 0.047155 -0.571089
v 0.057181 0.047155 -0.571089
v 0.057181 0.027011 -0.571089
v 0.063162 0.047155 -0.576555
v 0.063162 0.027011 -0.576555
v 0.063162 0.027011 -0.576555
v 0.063162 0.047155 -0.576555
v 0.070002 0.047155 -0.580900
v 0.070002 0.027011 -0.580900
v 0.070002 0.027011 -0.580900
v 0.070002 0.047155 -0.580900
v 0.077493 0.047155 -0.583991
v 0.077493 0.027011 -0.583991
v 0.077493 0.027011 -0.583991
v 0.077493 0.047155 -0.583991
v 0.085406 0.047155 -0.585734
v 0.085406 0.027011 -0.585734
v 0.085406 0.027011 -0.585734
v 0.085406 0.047155 -0.585734
v 0.093502 0.047155 -0.586076
v 0.093502 0.027011 -0.586076
v 0.093502 0.027011 -0.586076
v 0.093502 0.047155 -0.586076
v 0.101534 0.047155 -0.585008
v 0.101534 0.027011 -0.585008
v 0.101534 0.027011 -0.585008
v 0.101534 0.047155 -0.585008
v 0.109259 0.047155 -0.582561
v 0.109259 0.027011 -0.582561
v 0.109259 0.027011 -0.582561
v 0.109259 0.047155 -0.582561
v 0.116441 0.047155 -0.578810
v 0.116441 0.027011 -0.578810
v 0.116441 0.027011 -0.578810
v 0.116441 0.047155 -0.578810
v 0.122863 0.047155 -0.573868
v 0.122863 0.027011 -0.573868
v 0.122863 0.027011 -0.573868
v 0.122863 0.047155 -0.573868
v 0.128330 0.047155 -0.567887
v 0.128330 0.027011 -0.567887
v 0.128330 0.027011 -0.567887
v 0.128330 0.047155 -0.567887
v 0.132674 0.027011 -0.561047
v 0.132674 0.047155 -0.561047
v 0.132674 0.047155 -0.561047
v 0.132674 0.027011 -0.561047
v 0.135765 0.027011 -0.553556
v 0.135765 0.047155 -0.553556
v 0.135765 0.047155 -0.553556
v 0.135765 0.027011 -0.553556
v 0.137508 0.027011 -0.545643
v 0.137508 0.047155 -0.545643
v 0.137508 0.047155 -0.545643
v 0.137508 0.027011 -0.545643
v 0.137851 0.027011 -0.537547
v 0.137851 0.047155 -0.537547
v 0.137851 0.047155 -0.537547
v 0.137851 0.027011 -0.537547
v 0.136783 0.027011 -0.529515
v 0.136783 0.047155 -0.529515
v 0.136783 0.047155 -0.529515
v 0.136783 0.027011 -0.529515
v 0.134336 0.027011 -0.521790
v 0.134336 0.047155 -0.521790
v 0.134336 0.047155 -0.521790
v 0.134336 0.027011 -0.521790
v 0.130584 0.027011 -0.514608
v 0.130584 0.047155 -0.514608
v 0.130584 0.047155 -0.514608
v 0.130584 0.027011 -0.514608
v 0.125643 0.027011 -0.508186
v 0.125643 0.047155 -0.508186
v 0.125643 0.047155 -0.508186
v 0.125643 0.027011 -0.508186
v 0.119661 0.047155 -0.502719
v 0.119661 0.027011 -0.502719
v 0.119661 0.047155 -0.502719
v 0.119661 0.027011 -0.502719
v 0.052239 0.047155 -0.564667
v 0.088409 0.047155 -0.562685
v 0.092457 0.047155 -0.562857
v 0.048488 0.047155 -0.557484
v 0.084452 0.047155 -0.561814
v 0.080707 0.047155 -0.560268
v 0.077287 0.047155 -0.558096
v 0.074296 0.047155 -0.555363
v 0.046041 0.047155 -0.549759
v 0.071825 0.047155 -0.552152
v 0.069950 0.047155 -0.548561
v 0.044973 0.047155 -0.541727
v 0.068726 0.047155 -0.544698
v 0.068192 0.047155 -0.540682
v 0.045315 0.047155 -0.533631
v 0.068363 0.047155 -0.536634
v 0.069235 0.047155 -0.532678
v 0.070780 0.047155 -0.528932
v 0.047058 0.047155 -0.525718
v 0.072953 0.047155 -0.525512
v 0.075686 0.047155 -0.522522
v 0.050149 0.047155 -0.518228
v 0.078897 0.047155 -0.520051
v 0.082488 0.047155 -0.518175
v 0.086351 0.047155 -0.516952
v 0.090367 0.047155 -0.516418
v 0.054494 0.047155 -0.511388
v 0.130584 0.047155 -0.514608
v 0.125643 0.047155 -0.508186
v 0.059960 0.047155 -0.505406
v 0.119661 0.047155 -0.502719
v 0.066382 0.047155 -0.500465
v 0.112821 0.047155 -0.498375
v 0.073565 0.047155 -0.496713
v 0.105331 0.047155 -0.495284
v 0.081289 0.047155 -0.494266
v 0.097418 0.047155 -0.493541
v 0.089322 0.047155 -0.493198
v 0.085406 0.047155 -0.585734
v 0.101534 0.047155 -0.585008
v 0.093502 0.047155 -0.586076
v 0.077493 0.047155 -0.583991
v 0.109259 0.047155 -0.582561
v 0.070002 0.047155 -0.580900
v 0.116441 0.047155 -0.578810
v 0.063162 0.047155 -0.576555
v 0.122863 0.047155 -0.573868
v 0.057181 0.047155 -0.571089
v 0.128330 0.047155 -0.567887
v 0.132674 0.047155 -0.561047
v 0.096473 0.047155 -0.562323
v 0.135765 0.047155 -0.553556
v 0.100335 0.047155 -0.561099
v 0.103927 0.047155 -0.559223
v 0.107138 0.047155 -0.556753
v 0.109871 0.047155 -0.553762
v 0.137508 0.047155 -0.545643
v 0.112043 0.047155 -0.550342
v 0.113588 0.047155 -0.546597
v 0.137851 0.047155 -0.537547
v 0.114460 0.047155 -0.542640
v 0.114631 0.047155 -0.538592
v 0.114097 0.047155 -0.534576
v 0.136783 0.047155 -0.529515
v 0.112874 0.047155 -0.530714
v 0.110998 0.047155 -0.527122
v 0.134336 0.047155 -0.521790
v 0.108527 0.047155 -0.523911
v 0.105537 0.047155 -0.521178
v 0.102117 0.047155 -0.519006
v 0.098371 0.047155 -0.517460
v 0.094415 0.047155 -0.516589
v 0.090367 0.047155 -0.516418
v 0.094415 0.047155 -0.516589
v 0.130584 0.047155 -0.514608
v 0.098371 0.047155 -0.517460
v 0.102117 0.047155 -0.519006
v 0.105537 0.047155 -0.521178
v 0.134336 0.047155 -0.521790
v 0.108527 0.047155 -0.523911
v 0.110998 0.047155 -0.527122
v 0.136783 0.047155 -0.529515
v 0.112874 0.047155 -0.530714
v 0.114097 0.047155 -0.534576
v 0.137851 0.047155 -0.537547
v 0.114631 0.047155 -0.538592
v 0.114460 0.047155 -0.542640
v 0.113588 0.047155 -0.546597
v 0.137508 0.047155 -0.545643
v 0.112043 0.047155 -0.550342
v 0.109871 0.047155 -0.553762
v 0.135765 0.047155 -0.553556
v 0.107138 0.047155 -0.556753
v 0.103927 0.047155 -0.559223
v 0.100335 0.047155 -0.561099
v 0.096473 0.047155 -0.562323
v 0.132674 0.047155 -0.561047
v 0.092457 0.047155 -0.562857
v 0.052239 0.047155 -0.564667
v 0.128330 0.047155 -0.567887
v 0.057181 0.047155 -0.571089
v 0.122863 0.047155 -0.573868
v 0.063162 0.047155 -0.576555
v 0.116441 0.047155 -0.578810
v 0.070002 0.047155 -0.580900
v 0.109259 0.047155 -0.582561
v 0.077493 0.047155 -0.583991
v 0.101534 0.047155 -0.585008
v 0.085406 0.047155 -0.585734
v 0.093502 0.047155 -0.586076
v 0.089322 0.047155 -0.493198
v 0.081289 0.047155 -0.494266
v 0.097418 0.047155 -0.493541
v 0.105331 0.047155 -0.495284
v 0.073565 0.047155 -0.496713
v 0.112821 0.047155 -0.498375
v 0.066382 0.047155 -0.500465
v 0.119661 0.047155 -0.502719
v 0.059960 0.047155 -0.505406
v 0.125643 0.047155 -0.508186
v 0.054494 0.047155 -0.511388
v 0.050149 0.047155 -0.518228
v 0.086351 0.047155 -0.516952
v 0.082488 0.047155 -0.518175
v 0.078897 0.047155 -0.520051
v 0.075686 0.047155 -0.522522
v 0.047058 0.047155 -0.525718
v 0.072953 0.047155 -0.525512
v 0.070780 0.047155 -0.528932
v 0.045315 0.047155 -0.533631
v 0.069235 0.047155 -0.532678
v 0.068363 0.047155 -0.536634
v 0.068192 0.047155 -0.540682
v 0.044973 0.047155 -0.541727
v 0.068726 0.047155 -0.544698
v 0.069950 0.047155 -0.548561
v 0.046041 0.047155 -0.549759
v 0.071825 0.047155 -0.552152
v 0.074296 0.047155 -0.555363
v 0.048488 0.047155 -0.557484
v 0.077287 0.047155 -0.558096
v 0.080707 0.047155 -0.560268
v 0.084452 0.047155 -0.561814
v 0.088409 0.047155 -0.562685
vn 0 -1 0
vn 0 1 0
vn 0.4605586565593046 0 0.8876292716378209
vn 0.2994264963654967 0 0.9541193705581514
vn -0.4605586565593046 0 -0.8876292716378209
vn -0.2994264963654967 0 -0.9541193705581514
vn 0.12919649214435172 0 0.9916190127350294
vn -0.12919649214435172 0 -0.9916190127350294
vn -0.04495914119602604 0 0.9989888265756107
vn 0.04495914119602604 0 -0.9989888265756107
vn -0.21774871356557282 0 0.9760048656336392
vn 0.21774871356557282 0 -0.9760048656336392
vn -0.3839220438364924 0 0.9233655095661796
vn 0.3839220438364924 0 -0.9233655095661796
vn -0.5384301732904121 0 0.8426701302944448
vn 0.5384301732904121 0 -0.8426701302944448
vn -0.6765783551641129 0 0.7363706467013903
vn 0.6765783551641129 0 -0.7363706467013903
vn -0.7941690059053153 0 0.6076969557759554
vn 0.7941690059053153 0 -0.6076969557759554
vn -0.8876292716378209 0 0.4605586565593046
vn 0.8876292716378209 0 -0.4605586565593046
vn -0.9541193705581514 0 0.2994264963654967
vn 0.9541193705581514 0 -0.2994264963654967
vn -0.9916190127350294 0 0.12919649214435172
vn 0.9916190127350294 0 -0.12919649214435172
vn -0.9989888265756107 0 -0.04495914119602604
vn 0.9989888265756107 0 0.04495914119602604
vn -0.9760048656336392 0 -0.21774871356557282
vn 0.9760048656336392 0 0.21774871356557282
vn -0.9233655095661796 0 -0.3839220438364924
vn 0.9233655095661796 0 0.3839220438364924
vn -0.8426701302944448 0 -0.5384301732904121
vn 0.8426701302944448 0 0.5384301732904121
vn -0.7363706467013903 0 -0.6765783551641129
vn 0.7363706467013903 0 0.6765783551641129
vn -0.6076969557759554 0 -0.7941690059053153
vn 0.6076969557759554 0 0.7941690059053153
usemtl material_0_0
f 1//1 2//1 3//1
f 2//1 1//1 4//1
f 2//1 4//1 5//1
f 5//1 4//1 6//1
f 6//1 4//1 7//1
f 7//1 4//1 8//1
f 8//1 4//1 9//1
f 8//1 9//1 10//1
f 10//1 9//1 11//1
f 11//1 9//1 12//1
f 11//1 12//1 13//1
f 13//1 12//1 14//1
f 14//1 12//1 15//1
f 14//1 15//1 16//1
f 16//1 15//1 17//1
f 17//1 15//1 18//1
f 18//1 15//1 19//1
f 18//1 19//1 20//1
f 20//1 19//1 21//1
f 21//1 19//1 22//1
f 21//1 22//1 23//1
f 23//1 22//1 24//1
f 24//1 22//1 25//1
f 25//1 22//1 26//1
f 26//1 22//1 27//1
f 26//1 27//1 28//1
f 28//1 27//1 29//1
f 29//1 27//1 30//1
f 29//1 30//1 31//1
f 31//1 30//1 32//1
f 31//1 32//1 33//1
f 33//1 32//1 34//1
f 33//1 34//1 35//1
f 35//1 34//1 36//1
f 35//1 36//1 37//1
f 37//1 36//1 38//1
f 39//1 40//1 41//1
f 40//1 39//1 42//1
f 40//1 42//1 43//1
f 43//1 42//1 44//1
f 43//1 44//1 45//1
f 45//1 44//1 46//1
f 45//1 46//1 47//1
f 47//1 46//1 48//1
f 47//1 48//1 49//1
f 49//1 48//1 1//1
f 49//1 1//1 50//1
f 50//1 1//1 3//1
f 50//1 3//1 51//1
f 50//1 51//1 52//1
f 52//1 51//1 53//1
f 52//1 53//1 54//1
f 52//1 54//1 55//1
f 52//1 55//1 56//1
f 52//1 56//1 57//1
f 57//1 56//1 58//1
f 57//1 58//1 59//1
f 57//1 59//1 60//1
f 60//1 59//1 61//1
f 60//1 61//1 62//1
f 60//1 62//1 63//1
f 60//1 63//1 64//1
f 64//1 63//1 65//1
f 64//1 65//1 66//1
f 64//1 66//1 67//1
f 67//1 66//1 68//1
f 67//1 68//1 69//1
f 67//1 69//1 28//1
f 28//1 69//1 70//1
f 28//1 70//1 71//1
f 28//1 71//1 72//1
f 28//1 72//1 26//1
f 73//2 74//2 75//2
f 74//2 76//2 75//2
f 76//2 77//2 75//2
f 77//2 78//2 75//2
f 75//2 78//2 79//2
f 78//2 80//2 79//2
f 80//2 81//2 79//2
f 79//2 81//2 82//2
f 81//2 83//2 82//2
f 83//2 84//2 82//2
f 82//2 84//2 85//2
f 84//2 86//2 85//2
f 86//2 87//2 85//2
f 87//2 88//2 85//2
f 85//2 88//2 89//2
f 88//2 90//2 89//2
f 90//2 91//2 89//2
f 89//2 91//2 92//2
f 91//2 93//2 92//2
f 93//2 94//2 92//2
f 94//2 95//2 92//2
f 95//2 96//2 92//2
f 92//2 96//2 97//2
f 96//2 98//2 97//2
f 98//2 99//2 97//2
f 97//2 99//2 100//2
f 99//2 101//2 100//2
f 100//2 101//2 102//2
f 101//2 103//2 102//2
f 102//2 103//2 104//2
f 103//2 105//2 104//2
f 104//2 105//2 106//2
f 105//2 107//2 106//2
f 106//2 107//2 108//2
f 107//2 109//2 108//2
f 110//2 108//2 109//2
f 111//2 112//2 113//2
f 113//2 112//2 114//2
f 112//2 115//2 114//2
f 114//2 115//2 116//2
f 115//2 117//2 116//2
f 116//2 117//2 118//2
f 117//2 119//2 118//2
f 118//2 119//2 120//2
f 119//2 121//2 120//2
f 120//2 121//2 75//2
f 75//2 121//2 73//2
f 121//2 122//2 73//2
f 73//2 122//2 123//2
f 123//2 122//2 124//2
f 124//2 122//2 125//2
f 125//2 122//2 126//2
f 122//2 127//2 126//2
f 126//2 127//2 128//2
f 128//2 127//2 129//2
f 127//2 130//2 129//2
f 129//2 130//2 131//2
f 131//2 130//2 132//2
f 132//2 130//2 133//2
f 130//2 134//2 133//2
f 133//2 134//2 135//2
f 135//2 134//2 136//2
f 134//2 137//2 136//2
f 136//2 137//2 138//2
f 138//2 137//2 139//2
f 137//2 140//2 139//2
f 139//2 140//2 141//2
f 141//2 140//2 142//2
f 142//2 140//2 143//2
f 143//2 140//2 144//2
f 140//2 99//2 144//2
f 98//2 144//2 99//2
f 145//3 146//4 147//4
f 146//4 145//3 148//3
f 149//5 150//5 151//6
f 152//6 151//6 150//5
f 147//4 153//7 154//7
f 153//7 147//4 146//4
f 151//6 152//6 155//8
f 156//8 155//8 152//6
f 154//7 157//9 158//9
f 157//9 154//7 153//7
f 155//8 156//8 159//10
f 160//10 159//10 156//8
f 158//9 161//11 162//11
f 161//11 158//9 157//9
f 159//10 160//10 163//12
f 164//12 163//12 160//10
f 162//11 165//13 166//13
f 165//13 162//11 161//11
f 163//12 164//12 167//14
f 168//14 167//14 164//12
f 166//13 169//15 170//15
f 169//15 166//13 165//13
f 167//14 168//14 171//16
f 172//16 171//16 168//14
f 170//15 173//17 174//17
f 173//17 170//15 169//15
f 171//16 172//16 175//18
f 176//18 175//18 172//16
f 174//17 177//19 178//19
f 177//19 174//17 173//17
f 175//18 176//18 179//20
f 180//20 179//20 176//18
f 177//19 181//21 178//19
f 181//21 177//19 182//21
f 183//22 179//20 184//22
f 180//20 184//22 179//20
f 182//21 185//23 181//21
f 185//23 182//21 186//23
f 187//24 183//22 188//24
f 184//22 188//24 183//22
f 186//23 189//25 185//23
f 189//25 186//23 190//25
f 191//26 187//24 192//26
f 188//24 192//26 187//24
f 190//25 193//27 189//25
f 193//27 190//25 194//27
f 195//28 191//26 196//28
f 192//26 196//28 191//26
f 194//27 197//29 193//27
f 197//29 194//27 198//29
f 199//30 195//28 200//30
f 196//28 200//30 195//28
f 198//29 201//31 197//29
f 201//31 198//29 202//31
f 203//32 199//30 204//32
f 200//30 204//32 199//30
f 202//31 205//33 201//31
f 205//33 202//31 206//33
f 207//34 203//32 208//34
f 204//32 208//34 203//32
f 206//33 209//35 205//33
f 209//35 206//33 210//35
f 211//36 207//34 212//36
f 208//34 212//36 207//34
f 213//37 209//35 210//35
f 209//35 213//37 214//37
f 215//38 216//38 212//36
f 211//36 212//36 216//38
f 217//5 214//37 213//37
f 214//37 217//5 218//5
f 219//3 220//3 215//38
f 216//38 215//38 220//3
f 221//6 218//5 217//5
f 218//5 221//6 222//6
f 223//4 224//4 219//3
f 220//3 219//3 224//4
f 225//8 222//6 221//6
f 222//6 225//8 226//8
f 227//7 228//7 223//4
f 224//4 223//4 228//7
f 229//10 226//8 225//8
f 226//8 229//10 230//10
f 231//9 232//9 227//7
f 228//7 227//7 232//9
f 233//12 230//10 229//10
f 230//10 233//12 234//12
f 235//11 236//11 231//9
f 232//9 231//9 236//11
f 237//14 234//12 233//12
f 234//12 237//14 238//14
f 239//13 240//13 235//11
f 236//11 235//11 240//13
f 241//16 238//14 237//14
f 238//14 241//16 242//16
f 243//15 244//15 239//13
f 240//13 239//13 244//15
f 245//18 242//16 241//16
f 242//16 245//18 246//18
f 247//17 248//17 243//15
f 244//15 243//15 248//17
f 249//20 246//18 245//18
f 246//18 249//20 250//20
f 251//19 252//19 247//17
f 248//17 247//17 252//19
f 249//20 253//22 250//20
f 253//22 249//20 254//22
f 255//21 252//19 256//21
f 251//19 256//21 252//19
f 254//22 257//24 253//22
f 257//24 254//22 258//24
f 259//23 255//21 260//23
f 256//21 260//23 255//21
f 258//24 261//26 257//24
f 261//26 258//24 262//26
f 263//25 259//23 264//25
f 260//23 264//25 259//23
f 262//26 265//28 261//26
f 265//28 262//26 266//28
f 267//27 263//25 268//27
f 264//25 268//27 263//25
f 266//28 269//30 265//28
f 269//30 266//28 270//30
f 271//29 267//27 272//29
f 268//27 272//29 267//27
f 270//30 273//32 269//30
f 273//32 270//30 274//32
f 275//31 271//29 276//31
f 272//29 276//31 271//29
f 274//32 277//34 273//32
f 277//34 274//32 278//34
f 279//33 275//31 280//33
f 276//31 280//33 275//31
f 278//34 281//36 277//34
f 281//36 278//34 282//36
f 283//35 279//33 284//35
f 280//33 284//35 279//33
f 281//36 285//38 286//38
f 285//38 281//36 282//36
f 283//35 284//35 287//37
f 288//37 287//37 284//35
f 286//38 148//3 145//3
f 148//3 286//38 285//38
f 287//37 288//37 149//5
f 150//5 149//5 288//37
f 289//2 290//2 291//2
f 290//2 289//2 292//2
f 290//2 292//2 293//2
f 293//2 292//2 294//2
f 294//2 292//2 295//2
f 295//2 292//2 296//2
f 296//2 292//2 297//2
f 296//2 297//2 298//2
f 298//2 297//2 299//2
f 299//2 297//2 300//2
f 299//2 300//2 301//2
f 301//2 300//2 302//2
f 302//2 300//2 303//2
f 302//2 303//2 304//2
f 304//2 303//2 305//2
f 305//2 303//2 306//2
f 306//2 303//2 307//2
f 306//2 307//2 308//2
f 308//2 307//2 309//2
f 309//2 307//2 310//2
f 309//2 310//2 311//2
f 311//2 310//2 312//2
f 312//2 310//2 313//2
f 313//2 310//2 314//2
f 314//2 310//2 315//2
f 314//2 315//2 316//2
f 316//2 315//2 317//2
f 317//2 315//2 318//2
f 317//2 318//2 319//2
f 319//2 318//2 320//2
f 319//2 320//2 321//2
f 321//2 320//2 322//2
f 321//2 322//2 323//2
f 323//2 322//2 324//2
f 323//2 324//2 325//2
f 325//2 324//2 326//2
f 327//2 328//2 329//2
f 328//2 327//2 330//2
f 328//2 330//2 331//2
f 331//2 330//2 332//2
f 331//2 332//2 333//2
f 333//2 332//2 334//2
f 333//2 334//2 335//2
f 335//2 334//2 336//2
f 335//2 336//2 337//2
f 337//2 336//2 289//2
f 337//2 289//2 338//2
f 338//2 289//2 291//2
f 338//2 291//2 339//2
f 338//2 339//2 340//2
f 340//2 339//2 341//2
f 340//2 341//2 342//2
f 340//2 342//2 343//2
f 340//2 343//2 344//2
f 340//2 344//2 345//2
f 345//2 344//2 346//2
f 345//2 346//2 347//2
f 345//2 347//2 348//2
f 348//2 347//2 349//2
f 348//2 349//2 350//2
f 348//2 350//2 351//2
f 348//2 351//2 352//2
f 352//2 351//2 353//2
f 352//2 353//2 354//2
f 352//2 354//2 355//2
f 355//2 354//2 356//2
f 355//2 356//2 357//2
f 355//2 357//2 316//2
f 316//2 357//2 358//2
f 316//2 358//2 359//2
f 316//2 359//2 360//2
f 316//2 360//2 314//2
f 361//1 362//1 363//1
f 362//1 364//1 363//1
f 364//1 365//1 363//1
f 365//1 366//1 363//1
f 363//1 366//1 367//1
f 366//1 368//1 367//1
f 368//1 369//1 367//1
f 367//1 369//1 370//1
f 369//1 371//1 370//1
f 371//1 372//1 370//1
f 370//1 372//1 373//1
f 372//1 374//1 373//1
f 374//1 375//1 373//1
f 375//1 376//1 373//1
f 373//1 376//1 377//1
f 376//1 378//1 377//1
f 378//1 379//1 377//1
f 377//1 379//1 380//1
f 379//1 381//1 380//1
f 381//1 382//1 380//1
f 382//1 383//1 380//1
f 383//1 384//1 380//1
f 380//1 384//1 385//1
f 384//1 386//1 385//1
f 386//1 387//1 385//1
f 385//1 387//1 388//1
f 387//1 389//1 388//1
f 388//1 389//1 390//1
f 389//1 391//1 390//1
f 390//1 391//1 392//1
f 391//1 393//1 392//1
f 392//1 393//1 394//1
f 393//1 395//1 394//1
f 394//1 395//1 396//1
f 395//1 397//1 396//1
f 398//1 396//1 397//1
f 399//1 400//1 401//1
f 401//1 400//1 402//1
f 400//1 403//1 402//1
f 402//1 403//1 404//1
f 403//1 405//1 404//1
f 404//1 405//1 406//1
f 405//1 407//1 406//1
f 406//1 407//1 408//1
f 407//1 409//1 408//1
f 408//1 409//1 363//1
f 363//1 409//1 361//1
f 409//1 410//1 361//1
f 361//1 410//1 411//1
f 411//1 410//1 412//1
f 412//1 410//1 413//1
f 413//1 410//1 414//1
f 410//1 415//1 414//1
f 414//1 415//1 416//1
f 416//1 415//1 417//1
f 415//1 418//1 417//1
f 417//1 418//1 419//1
f 419//1 418//1 420//1
f 420//1 418//1 421//1
f 418//1 422//1 421//1
f 421//1 422//1 423//1
f 423//1 422//1 424//1
f 422//1 425//1 424//1
f 424//1 425//1 426//1
f 426//1 425//1 427//1
f 425//1 428//1 427//1
f 427//1 428//1 429//1
f 429//1 428//1 430//1
f 430//1 428//1 431//1
f 431//1 428//1 432//1
f 428//1 387//1 432//1
f 386//1 432//1 387//1
