# SSTK version 0.8.0
# 74
mtllib original-74.mtl
o #ID379
v 0.060473 0.102164 0.091048
v 0.055501 0.102164 0.056803
v 0.053972 0.102164 0.090756
v 0.061683 0.102164 0.064168
v 0.090273 0.102164 0.089001
v 0.084830 0.102164 0.065209
v 0.083773 0.102164 0.088708
v 0.118692 0.102164 0.092216
v 0.113292 0.102164 0.066490
v 0.112148 0.102164 0.091921
v 0.120155 0.102164 0.059713
v 0.091331 0.102164 0.065502
v 0.118692 0.102164 0.092216
v 0.113292 0.102164 0.066490
v 0.120155 0.102164 0.059713
v 0.091331 0.102164 0.065502
v 0.090273 0.102164 0.089001
v 0.084830 0.102164 0.065209
v 0.061683 0.102164 0.064168
v 0.055501 0.102164 0.056803
v 0.112148 0.102164 0.091921
v 0.083773 0.102164 0.088708
v 0.060473 0.102164 0.091048
v 0.053972 0.102164 0.090756
vn 0 1 0
vn 0 -1 0
usemtl material_0_0
f 13//2 14//2 15//2
f 14//2 16//2 15//2
f 17//2 18//2 16//2
f 16//2 18//2 15//2
f 18//2 19//2 15//2
f 20//2 15//2 19//2
f 21//2 14//2 13//2
f 22//2 18//2 17//2
f 19//2 23//2 20//2
f 24//2 20//2 23//2
usemtl material_1_0
f 1//1 2//1 3//1
f 2//1 1//1 4//1
f 5//1 6//1 7//1
f 8//1 9//1 10//1
f 4//1 11//1 2//1
f 11//1 4//1 6//1
f 11//1 6//1 12//1
f 12//1 6//1 5//1
f 11//1 12//1 9//1
f 11//1 9//1 8//1
