# SSTK version 0.8.0
# 66
mtllib original-66.mtl
o #ID334
v 0.049476 -0.045043 0.370852
v 0.088635 -0.045043 0.365696
v 0.053225 -0.045043 0.363842
v 0.084670 -0.045043 0.366529
v 0.080910 -0.045043 0.368038
v 0.047001 -0.045043 0.378406
v 0.077469 -0.045043 0.370176
v 0.074451 -0.045043 0.372880
v 0.071949 -0.045043 0.376067
v 0.045876 -0.045043 0.386276
v 0.070039 -0.045043 0.379639
v 0.068777 -0.045043 0.383489
v 0.068204 -0.045043 0.387500
v 0.046134 -0.045043 0.394221
v 0.068335 -0.045043 0.391550
v 0.069168 -0.045043 0.395515
v 0.047768 -0.045043 0.402000
v 0.070676 -0.045043 0.399275
v 0.050728 -0.045043 0.409378
v 0.072815 -0.045043 0.402716
v 0.075519 -0.045043 0.405733
v 0.078705 -0.045043 0.408236
v 0.054924 -0.045043 0.416130
v 0.082278 -0.045043 0.410146
v 0.086128 -0.045043 0.411408
v 0.090139 -0.045043 0.411981
v 0.060229 -0.045043 0.422050
v 0.094188 -0.045043 0.411850
v 0.078185 -0.045043 0.345129
v 0.093909 -0.045043 0.343237
v 0.085964 -0.045043 0.343495
v 0.070807 -0.045043 0.348089
v 0.101779 -0.045043 0.344363
v 0.109333 -0.045043 0.346838
v 0.064055 -0.045043 0.352285
v 0.058135 -0.045043 0.357590
v 0.116343 -0.045043 0.350587
v 0.122595 -0.045043 0.355496
v 0.127900 -0.045043 0.361416
v 0.092685 -0.045043 0.365565
v 0.096695 -0.045043 0.366138
v 0.132096 -0.045043 0.368168
v 0.100546 -0.045043 0.367400
v 0.104118 -0.045043 0.369311
v 0.107305 -0.045043 0.371813
v 0.135056 -0.045043 0.375546
v 0.110009 -0.045043 0.374830
v 0.112147 -0.045043 0.378271
v 0.113656 -0.045043 0.382032
v 0.136690 -0.045043 0.383326
v 0.114488 -0.045043 0.385997
v 0.136948 -0.045043 0.391271
v 0.114620 -0.045043 0.390046
v 0.114046 -0.045043 0.394057
v 0.135822 -0.045043 0.399140
v 0.112785 -0.045043 0.397907
v 0.110874 -0.045043 0.401480
v 0.108372 -0.045043 0.404666
v 0.133347 -0.045043 0.406694
v 0.105355 -0.045043 0.407370
v 0.101913 -0.045043 0.409508
v 0.098153 -0.045043 0.411017
v 0.129598 -0.045043 0.413704
v 0.066481 -0.045043 0.426960
v 0.124689 -0.045043 0.419956
v 0.118768 -0.045043 0.425261
v 0.073491 -0.045043 0.430709
v 0.112017 -0.045043 0.429457
v 0.081045 -0.045043 0.433184
v 0.088914 -0.045043 0.434309
v 0.104639 -0.045043 0.432417
v 0.096859 -0.045043 0.434051
v 0.096859 -0.045043 0.434051
v 0.088914 -0.045043 0.434309
v 0.104639 -0.045043 0.432417
v 0.112017 -0.045043 0.429457
v 0.081045 -0.045043 0.433184
v 0.073491 -0.045043 0.430709
v 0.118768 -0.045043 0.425261
v 0.066481 -0.045043 0.426960
v 0.124689 -0.045043 0.419956
v 0.129598 -0.045043 0.413704
v 0.060229 -0.045043 0.422050
v 0.094188 -0.045043 0.411850
v 0.098153 -0.045043 0.411017
v 0.133347 -0.045043 0.406694
v 0.101913 -0.045043 0.409508
v 0.105355 -0.045043 0.407370
v 0.108372 -0.045043 0.404666
v 0.135822 -0.045043 0.399140
v 0.110874 -0.045043 0.401480
v 0.112785 -0.045043 0.397907
v 0.114046 -0.045043 0.394057
v 0.136948 -0.045043 0.391271
v 0.114620 -0.045043 0.390046
v 0.114488 -0.045043 0.385997
v 0.136690 -0.045043 0.383326
v 0.113656 -0.045043 0.382032
v 0.135056 -0.045043 0.375546
v 0.112147 -0.045043 0.378271
v 0.110009 -0.045043 0.374830
v 0.107305 -0.045043 0.371813
v 0.132096 -0.045043 0.368168
v 0.104118 -0.045043 0.369311
v 0.100546 -0.045043 0.367400
v 0.096695 -0.045043 0.366138
v 0.127900 -0.045043 0.361416
v 0.092685 -0.045043 0.365565
v 0.088635 -0.045043 0.365696
v 0.053225 -0.045043 0.363842
v 0.122595 -0.045043 0.355496
v 0.116343 -0.045043 0.350587
v 0.058135 -0.045043 0.357590
v 0.109333 -0.045043 0.346838
v 0.064055 -0.045043 0.352285
v 0.070807 -0.045043 0.348089
v 0.101779 -0.045043 0.344363
v 0.093909 -0.045043 0.343237
v 0.078185 -0.045043 0.345129
v 0.085964 -0.045043 0.343495
v 0.090139 -0.045043 0.411981
v 0.054924 -0.045043 0.416130
v 0.086128 -0.045043 0.411408
v 0.082278 -0.045043 0.410146
v 0.078705 -0.045043 0.408236
v 0.050728 -0.045043 0.409378
v 0.075519 -0.045043 0.405733
v 0.072815 -0.045043 0.402716
v 0.070676 -0.045043 0.399275
v 0.047768 -0.045043 0.402000
v 0.069168 -0.045043 0.395515
v 0.046134 -0.045043 0.394221
v 0.068335 -0.045043 0.391550
v 0.068204 -0.045043 0.387500
v 0.045876 -0.045043 0.386276
v 0.068777 -0.045043 0.383489
v 0.070039 -0.045043 0.379639
v 0.071949 -0.045043 0.376067
v 0.047001 -0.045043 0.378406
v 0.074451 -0.045043 0.372880
v 0.077469 -0.045043 0.370176
v 0.080910 -0.045043 0.368038
v 0.049476 -0.045043 0.370852
v 0.084670 -0.045043 0.366529
v 0.081045 -0.087655 0.433184
v 0.073491 -0.045043 0.430709
v 0.073491 -0.087655 0.430709
v 0.081045 -0.045043 0.433184
v 0.081045 -0.045043 0.433184
v 0.081045 -0.087655 0.433184
v 0.073491 -0.045043 0.430709
v 0.073491 -0.087655 0.430709
v 0.088914 -0.087655 0.434309
v 0.088914 -0.045043 0.434309
v 0.088914 -0.045043 0.434309
v 0.088914 -0.087655 0.434309
v 0.096859 -0.087655 0.434051
v 0.096859 -0.045043 0.434051
v 0.096859 -0.045043 0.434051
v 0.096859 -0.087655 0.434051
v 0.104639 -0.087655 0.432417
v 0.104639 -0.045043 0.432417
v 0.104639 -0.045043 0.432417
v 0.104639 -0.087655 0.432417
v 0.112017 -0.087655 0.429457
v 0.112017 -0.045043 0.429457
v 0.112017 -0.045043 0.429457
v 0.112017 -0.087655 0.429457
v 0.118768 -0.087655 0.425261
v 0.118768 -0.045043 0.425261
v 0.118768 -0.045043 0.425261
v 0.118768 -0.087655 0.425261
v 0.124689 -0.087655 0.419956
v 0.124689 -0.045043 0.419956
v 0.124689 -0.045043 0.419956
v 0.124689 -0.087655 0.419956
v 0.129598 -0.045043 0.413704
v 0.129598 -0.087655 0.413704
v 0.129598 -0.045043 0.413704
v 0.129598 -0.087655 0.413704
v 0.133347 -0.045043 0.406694
v 0.133347 -0.087655 0.406694
v 0.133347 -0.045043 0.406694
v 0.133347 -0.087655 0.406694
v 0.135822 -0.045043 0.399140
v 0.135822 -0.087655 0.399140
v 0.135822 -0.045043 0.399140
v 0.135822 -0.087655 0.399140
v 0.136948 -0.045043 0.391271
v 0.136948 -0.087655 0.391271
v 0.136948 -0.045043 0.391271
v 0.136948 -0.087655 0.391271
v 0.136690 -0.045043 0.383326
v 0.136690 -0.087655 0.383326
v 0.136690 -0.045043 0.383326
v 0.136690 -0.087655 0.383326
v 0.135056 -0.045043 0.375546
v 0.135056 -0.087655 0.375546
v 0.135056 -0.045043 0.375546
v 0.135056 -0.087655 0.375546
v 0.132096 -0.045043 0.368168
v 0.132096 -0.087655 0.368168
v 0.132096 -0.045043 0.368168
v 0.132096 -0.087655 0.368168
v 0.127900 -0.045043 0.361416
v 0.127900 -0.087655 0.361416
v 0.127900 -0.045043 0.361416
v 0.127900 -0.087655 0.361416
v 0.122595 -0.045043 0.355496
v 0.122595 -0.087655 0.355496
v 0.122595 -0.045043 0.355496
v 0.122595 -0.087655 0.355496
v 0.116343 -0.087655 0.350587
v 0.116343 -0.045043 0.350587
v 0.116343 -0.087655 0.350587
v 0.116343 -0.045043 0.350587
v 0.109333 -0.087655 0.346838
v 0.109333 -0.045043 0.346838
v 0.109333 -0.087655 0.346838
v 0.109333 -0.045043 0.346838
v 0.101779 -0.087655 0.344363
v 0.101779 -0.045043 0.344363
v 0.101779 -0.087655 0.344363
v 0.101779 -0.045043 0.344363
v 0.093909 -0.087655 0.343237
v 0.093909 -0.045043 0.343237
v 0.093909 -0.087655 0.343237
v 0.093909 -0.045043 0.343237
v 0.085964 -0.087655 0.343495
v 0.085964 -0.045043 0.343495
v 0.085964 -0.087655 0.343495
v 0.085964 -0.045043 0.343495
v 0.078185 -0.087655 0.345129
v 0.078185 -0.045043 0.345129
v 0.078185 -0.087655 0.345129
v 0.078185 -0.045043 0.345129
v 0.070807 -0.087655 0.348089
v 0.070807 -0.045043 0.348089
v 0.070807 -0.087655 0.348089
v 0.070807 -0.045043 0.348089
v 0.064055 -0.087655 0.352285
v 0.064055 -0.045043 0.352285
v 0.064055 -0.087655 0.352285
v 0.064055 -0.045043 0.352285
v 0.058135 -0.087655 0.357590
v 0.058135 -0.045043 0.357590
v 0.058135 -0.087655 0.357590
v 0.058135 -0.045043 0.357590
v 0.053225 -0.087655 0.363842
v 0.053225 -0.045043 0.363842
v 0.053225 -0.087655 0.363842
v 0.053225 -0.045043 0.363842
v 0.049476 -0.045043 0.370852
v 0.049476 -0.087655 0.370852
v 0.049476 -0.045043 0.370852
v 0.049476 -0.087655 0.370852
v 0.047001 -0.045043 0.378406
v 0.047001 -0.087655 0.378406
v 0.047001 -0.045043 0.378406
v 0.047001 -0.087655 0.378406
v 0.045876 -0.045043 0.386276
v 0.045876 -0.087655 0.386276
v 0.045876 -0.045043 0.386276
v 0.045876 -0.087655 0.386276
v 0.046134 -0.045043 0.394221
v 0.046134 -0.087655 0.394221
v 0.046134 -0.045043 0.394221
v 0.046134 -0.087655 0.394221
v 0.047768 -0.045043 0.402000
v 0.047768 -0.087655 0.402000
v 0.047768 -0.045043 0.402000
v 0.047768 -0.087655 0.402000
v 0.050728 -0.045043 0.409378
v 0.050728 -0.087655 0.409378
v 0.050728 -0.045043 0.409378
v 0.050728 -0.087655 0.409378
v 0.054924 -0.045043 0.416130
v 0.054924 -0.087655 0.416130
v 0.054924 -0.045043 0.416130
v 0.054924 -0.087655 0.416130
v 0.060229 -0.045043 0.422050
v 0.060229 -0.087655 0.422050
v 0.060229 -0.045043 0.422050
v 0.060229 -0.087655 0.422050
v 0.066481 -0.087655 0.426960
v 0.066481 -0.045043 0.426960
v 0.066481 -0.045043 0.426960
v 0.066481 -0.087655 0.426960
v 0.093909 -0.087655 0.343237
v 0.078185 -0.087655 0.345129
v 0.085964 -0.087655 0.343495
v 0.101779 -0.087655 0.344363
v 0.070807 -0.087655 0.348089
v 0.109333 -0.087655 0.346838
v 0.064055 -0.087655 0.352285
v 0.058135 -0.087655 0.357590
v 0.116343 -0.087655 0.350587
v 0.122595 -0.087655 0.355496
v 0.053225 -0.087655 0.363842
v 0.127900 -0.087655 0.361416
v 0.049476 -0.087655 0.370852
v 0.047001 -0.087655 0.378406
v 0.132096 -0.087655 0.368168
v 0.045876 -0.087655 0.386276
v 0.135056 -0.087655 0.375546
v 0.136690 -0.087655 0.383326
v 0.046134 -0.087655 0.394221
v 0.136948 -0.087655 0.391271
v 0.047768 -0.087655 0.402000
v 0.135822 -0.087655 0.399140
v 0.050728 -0.087655 0.409378
v 0.054924 -0.087655 0.416130
v 0.133347 -0.087655 0.406694
v 0.129598 -0.087655 0.413704
v 0.060229 -0.087655 0.422050
v 0.124689 -0.087655 0.419956
v 0.066481 -0.087655 0.426960
v 0.118768 -0.087655 0.425261
v 0.073491 -0.087655 0.430709
v 0.112017 -0.087655 0.429457
v 0.081045 -0.087655 0.433184
v 0.104639 -0.087655 0.432417
v 0.088914 -0.087655 0.434309
v 0.096859 -0.087655 0.434051
v 0.096859 -0.087655 0.434051
v 0.104639 -0.087655 0.432417
v 0.088914 -0.087655 0.434309
v 0.081045 -0.087655 0.433184
v 0.112017 -0.087655 0.429457
v 0.073491 -0.087655 0.430709
v 0.118768 -0.087655 0.425261
v 0.066481 -0.087655 0.426960
v 0.124689 -0.087655 0.419956
v 0.060229 -0.087655 0.422050
v 0.129598 -0.087655 0.413704
v 0.054924 -0.087655 0.416130
v 0.133347 -0.087655 0.406694
v 0.135822 -0.087655 0.399140
v 0.050728 -0.087655 0.409378
v 0.047768 -0.087655 0.402000
v 0.136948 -0.087655 0.391271
v 0.046134 -0.087655 0.394221
v 0.136690 -0.087655 0.383326
v 0.045876 -0.087655 0.386276
v 0.135056 -0.087655 0.375546
v 0.132096 -0.087655 0.368168
v 0.047001 -0.087655 0.378406
v 0.127900 -0.087655 0.361416
v 0.049476 -0.087655 0.370852
v 0.053225 -0.087655 0.363842
v 0.122595 -0.087655 0.355496
v 0.058135 -0.087655 0.357590
v 0.116343 -0.087655 0.350587
v 0.109333 -0.087655 0.346838
v 0.064055 -0.087655 0.352285
v 0.070807 -0.087655 0.348089
v 0.101779 -0.087655 0.344363
v 0.078185 -0.087655 0.345129
v 0.093909 -0.087655 0.343237
v 0.085964 -0.087655 0.343495
vn 0 1 0
vn 0 -1 0
vn -0.22732179805393538 0 0.9738196959034695
vn -0.39297031736222676 0 0.9195511566368839
vn 0.22732179805393538 0 -0.9738196959034695
vn 0.39297031736222676 0 -0.9195511566368839
vn -0.05476630094924233 0 0.9984991999397582
vn 0.05476630094924233 0 -0.9984991999397582
vn 0.11945330242817694 0 0.9928398201819881
vn -0.11945330242817694 0 -0.9928398201819881
vn 0.29004337708370054 0 0.9570135001189285
vn -0.29004337708370054 0 -0.9570135001189285
vn 0.4518205744402732 0 0.8921088322130106
vn -0.4518205744402732 0 -0.8921088322130106
vn 0.5998695060737128 0 0.8000978538171941
vn -0.5998695060737128 0 -0.8000978538171941
vn 0.7296916872316612 0 0.6837763096108345
vn -0.7296916872316612 0 -0.6837763096108345
vn 0.8373425187992332 0 0.5466786132737917
vn -0.8373425187992332 0 -0.5466786132737917
vn 0.9195511566368839 0 0.39297031736222676
vn -0.9195511566368839 0 -0.39297031736222676
vn 0.9738196959034695 0 0.22732179805393538
vn -0.9738196959034695 0 -0.22732179805393538
vn 0.9984991999397582 0 0.05476630094924233
vn -0.9984991999397582 0 -0.05476630094924233
vn 0.9928398201819864 0 -0.11945330242819169
vn -0.9928398201819864 0 0.11945330242819169
vn 0.9570135001189285 0 -0.29004337708370054
vn -0.9570135001189285 0 0.29004337708370054
vn 0.8921088322130106 0 -0.4518205744402732
vn -0.8921088322130106 0 0.4518205744402732
vn 0.8000978538171941 0 -0.5998695060737128
vn -0.8000978538171941 0 0.5998695060737128
vn 0.6837763096108345 0 -0.7296916872316612
vn -0.6837763096108345 0 0.7296916872316612
vn 0.5466786132737917 0 -0.8373425187992332
vn -0.5466786132737917 0 0.8373425187992332
vn -0.11945330242819846 0 -0.9928398201819856
vn 0.11945330242819846 0 0.9928398201819856
vn -0.9928398201819877 0 0.11945330242818075
vn 0.9928398201819877 0 -0.11945330242818075
usemtl material_0_0
f 1//1 2//1 3//1
f 2//1 1//1 4//1
f 4//1 1//1 5//1
f 5//1 1//1 6//1
f 5//1 6//1 7//1
f 7//1 6//1 8//1
f 8//1 6//1 9//1
f 9//1 6//1 10//1
f 9//1 10//1 11//1
f 11//1 10//1 12//1
f 12//1 10//1 13//1
f 13//1 10//1 14//1
f 13//1 14//1 15//1
f 15//1 14//1 16//1
f 16//1 14//1 17//1
f 16//1 17//1 18//1
f 18//1 17//1 19//1
f 18//1 19//1 20//1
f 20//1 19//1 21//1
f 21//1 19//1 22//1
f 22//1 19//1 23//1
f 22//1 23//1 24//1
f 24//1 23//1 25//1
f 25//1 23//1 26//1
f 26//1 23//1 27//1
f 26//1 27//1 28//1
f 29//1 30//1 31//1
f 30//1 29//1 32//1
f 30//1 32//1 33//1
f 33//1 32//1 34//1
f 34//1 32//1 35//1
f 34//1 35//1 36//1
f 34//1 36//1 37//1
f 37//1 36//1 3//1
f 37//1 3//1 38//1
f 38//1 3//1 39//1
f 39//1 3//1 2//1
f 39//1 2//1 40//1
f 39//1 40//1 41//1
f 39//1 41//1 42//1
f 42//1 41//1 43//1
f 42//1 43//1 44//1
f 42//1 44//1 45//1
f 42//1 45//1 46//1
f 46//1 45//1 47//1
f 46//1 47//1 48//1
f 46//1 48//1 49//1
f 46//1 49//1 50//1
f 50//1 49//1 51//1
f 50//1 51//1 52//1
f 52//1 51//1 53//1
f 52//1 53//1 54//1
f 52//1 54//1 55//1
f 55//1 54//1 56//1
f 55//1 56//1 57//1
f 55//1 57//1 58//1
f 55//1 58//1 59//1
f 59//1 58//1 60//1
f 59//1 60//1 61//1
f 59//1 61//1 62//1
f 59//1 62//1 63//1
f 63//1 62//1 28//1
f 63//1 28//1 27//1
f 63//1 27//1 64//1
f 63//1 64//1 65//1
f 65//1 64//1 66//1
f 66//1 64//1 67//1
f 66//1 67//1 68//1
f 68//1 67//1 69//1
f 68//1 69//1 70//1
f 68//1 70//1 71//1
f 71//1 70//1 72//1
f 73//2 74//2 75//2
f 75//2 74//2 76//2
f 74//2 77//2 76//2
f 77//2 78//2 76//2
f 76//2 78//2 79//2
f 78//2 80//2 79//2
f 79//2 80//2 81//2
f 81//2 80//2 82//2
f 80//2 83//2 82//2
f 83//2 84//2 82//2
f 84//2 85//2 82//2
f 82//2 85//2 86//2
f 85//2 87//2 86//2
f 87//2 88//2 86//2
f 88//2 89//2 86//2
f 86//2 89//2 90//2
f 89//2 91//2 90//2
f 91//2 92//2 90//2
f 92//2 93//2 90//2
f 90//2 93//2 94//2
f 93//2 95//2 94//2
f 95//2 96//2 94//2
f 94//2 96//2 97//2
f 96//2 98//2 97//2
f 97//2 98//2 99//2
f 98//2 100//2 99//2
f 100//2 101//2 99//2
f 101//2 102//2 99//2
f 99//2 102//2 103//2
f 102//2 104//2 103//2
f 104//2 105//2 103//2
f 105//2 106//2 103//2
f 103//2 106//2 107//2
f 106//2 108//2 107//2
f 108//2 109//2 107//2
f 109//2 110//2 107//2
f 107//2 110//2 111//2
f 111//2 110//2 112//2
f 110//2 113//2 112//2
f 112//2 113//2 114//2
f 113//2 115//2 114//2
f 115//2 116//2 114//2
f 114//2 116//2 117//2
f 117//2 116//2 118//2
f 116//2 119//2 118//2
f 120//2 118//2 119//2
f 84//2 83//2 121//2
f 83//2 122//2 121//2
f 121//2 122//2 123//2
f 123//2 122//2 124//2
f 124//2 122//2 125//2
f 122//2 126//2 125//2
f 125//2 126//2 127//2
f 127//2 126//2 128//2
f 128//2 126//2 129//2
f 126//2 130//2 129//2
f 129//2 130//2 131//2
f 130//2 132//2 131//2
f 131//2 132//2 133//2
f 133//2 132//2 134//2
f 132//2 135//2 134//2
f 134//2 135//2 136//2
f 136//2 135//2 137//2
f 137//2 135//2 138//2
f 135//2 139//2 138//2
f 138//2 139//2 140//2
f 140//2 139//2 141//2
f 141//2 139//2 142//2
f 139//2 143//2 142//2
f 142//2 143//2 144//2
f 144//2 143//2 109//2
f 110//2 109//2 143//2
f 145//3 146//4 147//4
f 146//4 145//3 148//3
f 149//5 150//5 151//6
f 152//6 151//6 150//5
f 153//7 148//3 145//3
f 148//3 153//7 154//7
f 155//8 156//8 149//5
f 150//5 149//5 156//8
f 157//9 154//7 153//7
f 154//7 157//9 158//9
f 159//10 160//10 155//8
f 156//8 155//8 160//10
f 161//11 158//9 157//9
f 158//9 161//11 162//11
f 163//12 164//12 159//10
f 160//10 159//10 164//12
f 165//13 162//11 161//11
f 162//11 165//13 166//13
f 167//14 168//14 163//12
f 164//12 163//12 168//14
f 169//15 166//13 165//13
f 166//13 169//15 170//15
f 171//16 172//16 167//14
f 168//14 167//14 172//16
f 173//17 170//15 169//15
f 170//15 173//17 174//17
f 175//18 176//18 171//16
f 172//16 171//16 176//18
f 177//19 173//17 178//19
f 173//17 177//19 174//17
f 175//18 179//20 176//18
f 180//20 176//18 179//20
f 181//21 178//19 182//21
f 178//19 181//21 177//19
f 179//20 183//22 180//20
f 184//22 180//20 183//22
f 185//23 182//21 186//23
f 182//21 185//23 181//21
f 183//22 187//24 184//22
f 188//24 184//22 187//24
f 189//25 186//23 190//25
f 186//23 189//25 185//23
f 187//24 191//26 188//24
f 192//26 188//24 191//26
f 193//27 190//25 194//27
f 190//25 193//27 189//25
f 191//26 195//28 192//26
f 196//28 192//26 195//28
f 197//29 194//27 198//29
f 194//27 197//29 193//27
f 195//28 199//30 196//28
f 200//30 196//28 199//30
f 201//31 198//29 202//31
f 198//29 201//31 197//29
f 199//30 203//32 200//30
f 204//32 200//30 203//32
f 205//33 202//31 206//33
f 202//31 205//33 201//31
f 203//32 207//34 204//32
f 208//34 204//32 207//34
f 209//35 206//33 210//35
f 206//33 209//35 205//33
f 207//34 211//36 208//34
f 212//36 208//34 211//36
f 209//35 213//37 214//37
f 213//37 209//35 210//35
f 212//36 211//36 215//38
f 216//38 215//38 211//36
f 214//37 217//6 218//6
f 217//6 214//37 213//37
f 215//38 216//38 219//4
f 220//4 219//4 216//38
f 218//6 221//5 222//5
f 221//5 218//6 217//6
f 219//4 220//4 223//3
f 224//3 223//3 220//4
f 222//5 225//8 226//8
f 225//8 222//5 221//5
f 223//3 224//3 227//7
f 228//7 227//7 224//3
f 226//8 229//39 230//39
f 229//39 226//8 225//8
f 227//7 228//7 231//40
f 232//40 231//40 228//7
f 230//39 233//12 234//12
f 233//12 230//39 229//39
f 231//40 232//40 235//11
f 236//11 235//11 232//40
f 234//12 237//14 238//14
f 237//14 234//12 233//12
f 235//11 236//11 239//13
f 240//13 239//13 236//11
f 238//14 241//16 242//16
f 241//16 238//14 237//14
f 239//13 240//13 243//15
f 244//15 243//15 240//13
f 242//16 245//18 246//18
f 245//18 242//16 241//16
f 243//15 244//15 247//17
f 248//17 247//17 244//15
f 246//18 249//20 250//20
f 249//20 246//18 245//18
f 247//17 248//17 251//19
f 252//19 251//19 248//17
f 253//22 249//20 254//22
f 249//20 253//22 250//20
f 252//19 255//21 251//19
f 256//21 251//19 255//21
f 257//24 254//22 258//24
f 254//22 257//24 253//22
f 255//21 259//23 256//21
f 260//23 256//21 259//23
f 261//26 258//24 262//26
f 258//24 261//26 257//24
f 259//23 263//25 260//23
f 264//25 260//23 263//25
f 265//41 262//26 266//41
f 262//26 265//41 261//26
f 263//25 267//42 264//25
f 268//42 264//25 267//42
f 269//30 266//41 270//30
f 266//41 269//30 265//41
f 267//42 271//29 268//42
f 272//29 268//42 271//29
f 273//32 270//30 274//32
f 270//30 273//32 269//30
f 271//29 275//31 272//29
f 276//31 272//29 275//31
f 277//34 274//32 278//34
f 274//32 277//34 273//32
f 275//31 279//33 276//31
f 280//33 276//31 279//33
f 281//36 278//34 282//36
f 278//34 281//36 277//34
f 279//33 283//35 280//33
f 284//35 280//33 283//35
f 285//38 281//36 282//36
f 281//36 285//38 286//38
f 287//37 288//37 283//35
f 284//35 283//35 288//37
f 147//4 286//38 285//38
f 286//38 147//4 146//4
f 151//6 152//6 287//37
f 288//37 287//37 152//6
f 289//2 290//2 291//2
f 290//2 289//2 292//2
f 290//2 292//2 293//2
f 293//2 292//2 294//2
f 293//2 294//2 295//2
f 295//2 294//2 296//2
f 296//2 294//2 297//2
f 296//2 297//2 298//2
f 296//2 298//2 299//2
f 299//2 298//2 300//2
f 299//2 300//2 301//2
f 301//2 300//2 302//2
f 302//2 300//2 303//2
f 302//2 303//2 304//2
f 304//2 303//2 305//2
f 304//2 305//2 306//2
f 304//2 306//2 307//2
f 307//2 306//2 308//2
f 307//2 308//2 309//2
f 309//2 308//2 310//2
f 309//2 310//2 311//2
f 311//2 310//2 312//2
f 312//2 310//2 313//2
f 312//2 313//2 314//2
f 312//2 314//2 315//2
f 315//2 314//2 316//2
f 315//2 316//2 317//2
f 317//2 316//2 318//2
f 317//2 318//2 319//2
f 319//2 318//2 320//2
f 319//2 320//2 321//2
f 321//2 320//2 322//2
f 321//2 322//2 323//2
f 323//2 322//2 324//2
f 325//1 326//1 327//1
f 327//1 326//1 328//1
f 326//1 329//1 328//1
f 328//1 329//1 330//1
f 329//1 331//1 330//1
f 330//1 331//1 332//1
f 331//1 333//1 332//1
f 332//1 333//1 334//1
f 333//1 335//1 334//1
f 334//1 335//1 336//1
f 335//1 337//1 336//1
f 337//1 338//1 336//1
f 336//1 338//1 339//1
f 339//1 338//1 340//1
f 338//1 341//1 340//1
f 340//1 341//1 342//1
f 341//1 343//1 342//1
f 342//1 343//1 344//1
f 343//1 345//1 344//1
f 345//1 346//1 344//1
f 344//1 346//1 347//1
f 346//1 348//1 347//1
f 347//1 348//1 349//1
f 349//1 348//1 350//1
f 348//1 351//1 350//1
f 350//1 351//1 352//1
f 351//1 353//1 352//1
f 353//1 354//1 352//1
f 352//1 354//1 355//1
f 355//1 354//1 356//1
f 354//1 357//1 356//1
f 356//1 357//1 358//1
f 357//1 359//1 358//1
f 360//1 358//1 359//1
