# SSTK version 0.8.0
# 12
mtllib original-12.mtl
o #ID53
v -0.088315 0.032434 0.379012
v -0.086931 0.075047 0.382820
v -0.088315 0.075047 0.379012
v -0.086931 0.032434 0.382820
v -0.086931 0.032434 0.382820
v -0.088315 0.032434 0.379012
v -0.086931 0.075047 0.382820
v -0.088315 0.075047 0.379012
v -0.090339 0.032434 0.375502
v -0.090339 0.075047 0.375502
v -0.090339 0.032434 0.375502
v -0.090339 0.075047 0.375502
v -0.086229 0.075047 0.386810
v -0.086229 0.032434 0.386810
v -0.086229 0.032434 0.386810
v -0.086229 0.075047 0.386810
v -0.092942 0.032434 0.372398
v -0.092942 0.075047 0.372398
v -0.092942 0.032434 0.372398
v -0.092942 0.075047 0.372398
v -0.086231 0.075047 0.390862
v -0.086231 0.032434 0.390862
v -0.086231 0.032434 0.390862
v -0.086231 0.075047 0.390862
v -0.096045 0.032434 0.369792
v -0.096045 0.075047 0.369792
v -0.096045 0.032434 0.369792
v -0.096045 0.075047 0.369792
v -0.086936 0.075047 0.394851
v -0.086936 0.032434 0.394851
v -0.086936 0.032434 0.394851
v -0.086936 0.075047 0.394851
v -0.099552 0.075047 0.367765
v -0.099552 0.032434 0.367765
v -0.099552 0.032434 0.367765
v -0.099552 0.075047 0.367765
v -0.088324 0.075047 0.398658
v -0.088324 0.032434 0.398658
v -0.088324 0.032434 0.398658
v -0.088324 0.075047 0.398658
v -0.103359 0.075047 0.366377
v -0.103359 0.032434 0.366377
v -0.103359 0.032434 0.366377
v -0.103359 0.075047 0.366377
v -0.090351 0.032434 0.402166
v -0.090351 0.075047 0.402166
v -0.090351 0.075047 0.402166
v -0.090351 0.032434 0.402166
v -0.107349 0.075047 0.365672
v -0.107349 0.032434 0.365672
v -0.107349 0.032434 0.365672
v -0.107349 0.075047 0.365672
v -0.092956 0.032434 0.405268
v -0.092956 0.075047 0.405268
v -0.092956 0.075047 0.405268
v -0.092956 0.032434 0.405268
v -0.111400 0.075047 0.365670
v -0.111400 0.032434 0.365670
v -0.111400 0.032434 0.365670
v -0.111400 0.075047 0.365670
v -0.096061 0.032434 0.407871
v -0.096061 0.075047 0.407871
v -0.096061 0.075047 0.407871
v -0.096061 0.032434 0.407871
v -0.115391 0.075047 0.366372
v -0.115391 0.032434 0.366372
v -0.115391 0.032434 0.366372
v -0.115391 0.075047 0.366372
v -0.099571 0.032434 0.409895
v -0.099571 0.075047 0.409895
v -0.099571 0.075047 0.409895
v -0.099571 0.032434 0.409895
v -0.119198 0.075047 0.367756
v -0.119198 0.032434 0.367756
v -0.119198 0.032434 0.367756
v -0.119198 0.075047 0.367756
v -0.103379 0.032434 0.411280
v -0.103379 0.075047 0.411280
v -0.103379 0.075047 0.411280
v -0.103379 0.032434 0.411280
v -0.122708 0.075047 0.369780
v -0.122708 0.032434 0.369780
v -0.122708 0.032434 0.369780
v -0.122708 0.075047 0.369780
v -0.107369 0.032434 0.411981
v -0.107369 0.075047 0.411981
v -0.107369 0.075047 0.411981
v -0.107369 0.032434 0.411981
v -0.125813 0.075047 0.372383
v -0.125813 0.032434 0.372383
v -0.125813 0.032434 0.372383
v -0.125813 0.075047 0.372383
v -0.111421 0.032434 0.411980
v -0.111421 0.075047 0.411980
v -0.111421 0.075047 0.411980
v -0.111421 0.032434 0.411980
v -0.128418 0.075047 0.375486
v -0.128418 0.032434 0.375486
v -0.128418 0.032434 0.375486
v -0.128418 0.075047 0.375486
v -0.115410 0.032434 0.411274
v -0.115410 0.075047 0.411274
v -0.115410 0.075047 0.411274
v -0.115410 0.032434 0.411274
v -0.130446 0.075047 0.378994
v -0.130446 0.032434 0.378994
v -0.130446 0.032434 0.378994
v -0.130446 0.075047 0.378994
v -0.119217 0.032434 0.409887
v -0.119217 0.075047 0.409887
v -0.119217 0.075047 0.409887
v -0.119217 0.032434 0.409887
v -0.131833 0.032434 0.382800
v -0.131833 0.075047 0.382800
v -0.131833 0.032434 0.382800
v -0.131833 0.075047 0.382800
v -0.122725 0.032434 0.407860
v -0.122725 0.075047 0.407860
v -0.122725 0.075047 0.407860
v -0.122725 0.032434 0.407860
v -0.132538 0.032434 0.386790
v -0.132538 0.075047 0.386790
v -0.132538 0.032434 0.386790
v -0.132538 0.075047 0.386790
v -0.125827 0.075047 0.405254
v -0.125827 0.032434 0.405254
v -0.125827 0.032434 0.405254
v -0.125827 0.075047 0.405254
v -0.132540 0.032434 0.390841
v -0.132540 0.075047 0.390841
v -0.132540 0.032434 0.390841
v -0.132540 0.075047 0.390841
v -0.128430 0.075047 0.402149
v -0.128430 0.032434 0.402149
v -0.128430 0.032434 0.402149
v -0.128430 0.075047 0.402149
v -0.131838 0.032434 0.394832
v -0.131838 0.075047 0.394832
v -0.131838 0.032434 0.394832
v -0.131838 0.075047 0.394832
v -0.130454 0.075047 0.398640
v -0.130454 0.032434 0.398640
v -0.130454 0.032434 0.398640
v -0.130454 0.075047 0.398640
vn -0.9064924715868569 0 0.42222197829619373
vn -0.966038894742768 0 0.25839669859379216
vn 0.966038894742768 0 -0.25839669859379216
vn 0.9064924715868569 0 -0.42222197829619373
vn -0.8194027641562287 0 0.5732182046072262
vn 0.8194027641562287 0 -0.5732182046072262
vn -0.9962327102797102 0 0.08672016471815143
vn 0.9962327102797102 0 -0.08672016471815143
vn -0.7074158732567665 0 0.7067975539462249
vn 0.7074158732567665 0 -0.7067975539462249
vn -0.9961564996132658 0 -0.08759125685960768
vn 0.9961564996132658 0 0.08759125685960768
vn -0.57393451429406 0 0.8189011987425842
vn 0.57393451429406 0 -0.8189011987425842
vn -0.9658125726974331 0 -0.25924134396265847
vn 0.9658125726974331 0 0.25924134396265847
vn -0.42301449532856067 0 0.9061229148089807
vn 0.42301449532856067 0 -0.9061229148089807
vn -0.9061229148089807 0 -0.42301449532856067
vn 0.9061229148089807 0 0.42301449532856067
vn -0.25924134396265847 0 0.9658125726974331
vn 0.25924134396265847 0 -0.9658125726974331
vn -0.8189011987425842 0 -0.57393451429406
vn 0.8189011987425842 0 0.57393451429406
vn -0.08759125685960768 0 0.9961564996132658
vn 0.08759125685960768 0 -0.9961564996132658
vn -0.7067975539462249 0 -0.7074158732567665
vn 0.7067975539462249 0 0.7074158732567665
vn 0.08672016471815143 0 0.9962327102797102
vn -0.08672016471815143 0 -0.9962327102797102
vn -0.5732182046072262 0 -0.8194027641562287
vn 0.5732182046072262 0 0.8194027641562287
vn 0.25839669859379216 0 0.966038894742768
vn -0.25839669859379216 0 -0.966038894742768
vn -0.42222197829619373 0 -0.9064924715868569
vn 0.42222197829619373 0 0.9064924715868569
vn -0.2583966985937922 0 -0.966038894742768
vn 0.2583966985937922 0 0.966038894742768
usemtl material_0_0
f 1//1 2//2 3//1
f 2//2 1//1 4//2
f 5//3 6//4 7//3
f 8//4 7//3 6//4
f 9//5 3//1 10//5
f 3//1 9//5 1//1
f 6//4 11//6 8//4
f 12//6 8//4 11//6
f 4//2 13//7 2//2
f 13//7 4//2 14//7
f 15//8 5//3 16//8
f 7//3 16//8 5//3
f 17//9 10//5 18//9
f 10//5 17//9 9//5
f 11//6 19//10 12//6
f 20//10 12//6 19//10
f 14//7 21//11 13//7
f 21//11 14//7 22//11
f 23//12 15//8 24//12
f 16//8 24//12 15//8
f 25//13 18//9 26//13
f 18//9 25//13 17//9
f 19//10 27//14 20//10
f 28//14 20//10 27//14
f 22//11 29//15 21//11
f 29//15 22//11 30//15
f 31//16 23//12 32//16
f 24//12 32//16 23//12
f 33//17 25//13 26//13
f 25//13 33//17 34//17
f 35//18 36//18 27//14
f 28//14 27//14 36//18
f 30//15 37//19 29//15
f 37//19 30//15 38//19
f 39//20 31//16 40//20
f 32//16 40//20 31//16
f 41//21 34//17 33//17
f 34//17 41//21 42//21
f 43//22 44//22 35//18
f 36//18 35//18 44//22
f 45//23 37//19 38//19
f 37//19 45//23 46//23
f 47//24 48//24 40//20
f 39//20 40//20 48//24
f 49//25 42//21 41//21
f 42//21 49//25 50//25
f 51//26 52//26 43//22
f 44//22 43//22 52//26
f 53//27 46//23 45//23
f 46//23 53//27 54//27
f 55//28 56//28 47//24
f 48//24 47//24 56//28
f 57//29 50//25 49//25
f 50//25 57//29 58//29
f 59//30 60//30 51//26
f 52//26 51//26 60//30
f 61//31 54//27 53//27
f 54//27 61//31 62//31
f 63//32 64//32 55//28
f 56//28 55//28 64//32
f 65//33 58//29 57//29
f 58//29 65//33 66//33
f 67//34 68//34 59//30
f 60//30 59//30 68//34
f 69//35 62//31 61//31
f 62//31 69//35 70//35
f 71//36 72//36 63//32
f 64//32 63//32 72//36
f 73//36 66//33 65//33
f 66//33 73//36 74//36
f 75//35 76//35 67//34
f 68//34 67//34 76//35
f 77//37 70//35 69//35
f 70//35 77//37 78//34
f 79//33 80//38 71//36
f 72//36 71//36 80//38
f 81//32 74//36 73//36
f 74//36 81//32 82//32
f 83//31 84//31 75//35
f 76//35 75//35 84//31
f 85//30 78//34 77//37
f 78//34 85//30 86//30
f 87//29 88//29 79//33
f 80//38 79//33 88//29
f 89//28 82//32 81//32
f 82//32 89//28 90//28
f 91//27 92//27 83//31
f 84//31 83//31 92//27
f 93//26 86//30 85//30
f 86//30 93//26 94//26
f 95//25 96//25 87//29
f 88//29 87//29 96//25
f 97//24 90//28 89//28
f 90//28 97//24 98//24
f 99//23 100//23 91//27
f 92//27 91//27 100//23
f 101//22 94//26 93//26
f 94//26 101//22 102//22
f 103//21 104//21 95//25
f 96//25 95//25 104//21
f 105//20 98//24 97//24
f 98//24 105//20 106//20
f 107//19 108//19 99//23
f 100//23 99//23 108//19
f 109//18 102//22 101//22
f 102//22 109//18 110//18
f 111//17 112//17 103//21
f 104//21 103//21 112//17
f 113//16 105//20 114//16
f 105//20 113//16 106//20
f 107//19 115//15 108//19
f 116//15 108//19 115//15
f 117//14 110//18 109//18
f 110//18 117//14 118//14
f 119//13 120//13 111//17
f 112//17 111//17 120//13
f 121//12 114//16 122//12
f 114//16 121//12 113//16
f 115//15 123//11 116//15
f 124//11 116//15 123//11
f 117//14 125//10 118//14
f 125//10 117//14 126//10
f 127//9 120//13 128//9
f 119//13 128//9 120//13
f 129//8 122//12 130//8
f 122//12 129//8 121//12
f 123//11 131//7 124//11
f 132//7 124//11 131//7
f 126//10 133//6 125//10
f 133//6 126//10 134//6
f 135//5 127//9 136//5
f 128//9 136//5 127//9
f 137//3 130//8 138//3
f 130//8 137//3 129//8
f 131//7 139//2 132//7
f 140//2 132//7 139//2
f 134//6 141//4 133//6
f 141//4 134//6 142//4
f 143//1 135//5 144//1
f 136//5 144//1 135//5
f 142//4 138//3 141//4
f 138//3 142//4 137//3
f 139//2 143//1 140//2
f 144//1 140//2 143//1
