# SSTK version 0.8.0
# 14
mtllib original-14.mtl
o #ID73
v -0.052211 0.874264 0.280013
v -0.051416 0.864654 0.247516
v -0.052392 0.849102 0.287448
v -0.080635 0.874264 0.279318
v -0.052392 0.849102 0.287448
v -0.080817 0.849102 0.286754
v -0.052211 0.874264 0.280013
v -0.080635 0.874264 0.279318
v -0.051416 0.864654 0.247516
v -0.052211 0.874264 0.280013
v -0.079841 0.864654 0.246822
v -0.079841 0.864654 0.246822
v -0.052392 0.849102 0.287448
v -0.051416 0.864654 0.247516
v -0.080817 0.849102 0.286754
vn -0.9997014788227874 0 -0.024432626537732694
vn 0.023430323193870672 -0.28348439876675724 -0.9586905734442585
vn -0.006926267813522746 -0.9589768559742525 0.28339974685929675
vn -0.008864708532487137 0.9318582388680059 0.36271426715315797
usemtl material_0_0
f 1//1 2//1 3//1
f 4//2 5//2 6//2
f 5//2 4//2 7//2
f 8//3 9//3 10//3
f 9//3 8//3 11//3
f 12//4 13//4 14//4
f 13//4 12//4 15//4
