# SSTK version 0.8.0
# 10
mtllib original-10.mtl
o #ID47
v 0.031297 0.848877 0.063392
v 0.060055 0.844687 0.050463
v 0.059722 0.848877 0.064086
v 0.031630 0.844687 0.049769
v 0.026197 0.910590 0.272095
v 0.059722 0.848877 0.064086
v 0.054621 0.910590 0.272790
v 0.031297 0.848877 0.063392
v 0.034807 0.786923 -0.080228
v 0.034795 0.773314 -0.079731
v 0.035107 0.779620 -0.092469
v 0.025976 0.880021 0.281129
v 0.034504 0.793957 -0.067831
v 0.034198 0.800719 -0.055284
v 0.033888 0.807207 -0.042593
v 0.033574 0.813417 -0.029764
v 0.033257 0.819346 -0.016803
v 0.032937 0.824992 -0.003715
v 0.032615 0.830351 0.009492
v 0.032289 0.835422 0.022812
v 0.031961 0.840201 0.036240
v 0.031630 0.844687 0.049769
v 0.031297 0.848877 0.063392
v 0.026197 0.910590 0.272095
v 0.060385 0.840201 0.036935
v 0.031961 0.840201 0.036240
v 0.026197 0.910590 0.272095
v 0.054400 0.880021 0.281824
v 0.025976 0.880021 0.281129
v 0.054621 0.910590 0.272790
v 0.034795 0.773314 -0.079731
v 0.054400 0.880021 0.281824
v 0.063220 0.773314 -0.079036
v 0.025976 0.880021 0.281129
v 0.035107 0.779620 -0.092469
v 0.063220 0.773314 -0.079036
v 0.063531 0.779620 -0.091774
v 0.034795 0.773314 -0.079731
v 0.034807 0.786923 -0.080228
v 0.063531 0.779620 -0.091774
v 0.063232 0.786923 -0.079533
v 0.035107 0.779620 -0.092469
v 0.034504 0.793957 -0.067831
v 0.062929 0.793957 -0.067137
v 0.034198 0.800719 -0.055284
v 0.062622 0.800719 -0.054590
v 0.033888 0.807207 -0.042593
v 0.062312 0.807207 -0.041899
v 0.033574 0.813417 -0.029764
v 0.061999 0.813417 -0.029069
v 0.033257 0.819346 -0.016803
v 0.061682 0.819346 -0.016108
v 0.032937 0.824992 -0.003715
v 0.061362 0.824992 -0.003021
v 0.032615 0.830351 0.009492
v 0.061039 0.830351 0.010186
v 0.032289 0.835422 0.022812
v 0.060714 0.835422 0.023507
vn -0.007180871539762962 -0.9558346302875279 0.2938172810217845
vn -0.007434624353677633 -0.9525791763183991 0.3041999986937537
vn -0.006926267813522746 -0.9589768559742525 0.28339974685929675
vn 0.9997014788227874 0 0.024432626537732694
vn -0.007939458220513501 -0.9457301252865729 0.32485611450087876
vn 0.023430323193870672 -0.28348439876675724 -0.9586905734442585
vn 0.006926267813522746 0.9589768559742525 -0.28339974685929675
vn -0.010836982427097856 0.8962518383408359 0.4434131279997772
vn -0.012285605295167196 -0.8643818091169286 0.5026859377089009
vn -0.012514737831181465 -0.8588577478996458 0.5120612758349972
vn -0.01182300434194847 -0.8751220243526321 0.4837578516792067
vn -0.011354801674882639 -0.8854475625676718 0.4646005622272672
vn -0.010881217901561874 -0.8953535580947437 0.4452230958789774
vn -0.010402477887921176 -0.9048353056115057 0.4256346533973996
vn -0.009918809146369572 -0.9138882992292614 0.40584454383047436
vn -0.009430438805687951 -0.9225082856364861 0.3858620605293602
vn -0.00893760255568537 -0.9306911062521681 0.365696847133896
vn -0.008440530041589378 -0.9384329502428346 0.3453582999598337
usemtl material_0_0
f 1//1 2//2 3//1
f 2//2 1//1 4//2
f 5//3 6//3 7//3
f 6//3 5//3 8//3
f 9//4 10//4 11//4
f 10//4 9//4 12//4
f 12//4 9//4 13//4
f 12//4 13//4 14//4
f 12//4 14//4 15//4
f 12//4 15//4 16//4
f 12//4 16//4 17//4
f 12//4 17//4 18//4
f 12//4 18//4 19//4
f 12//4 19//4 20//4
f 12//4 20//4 21//4
f 12//4 21//4 22//4
f 12//4 22//4 23//4
f 12//4 23//4 24//4
f 4//2 25//5 2//2
f 25//5 4//2 26//5
f 27//6 28//6 29//6
f 28//6 27//6 30//6
f 31//7 32//7 33//7
f 32//7 31//7 34//7
f 35//8 36//8 37//8
f 36//8 35//8 38//8
f 39//9 40//10 41//9
f 40//10 39//9 42//10
f 43//11 41//9 44//11
f 41//9 43//11 39//9
f 45//12 44//11 46//12
f 44//11 45//12 43//11
f 47//13 46//12 48//13
f 46//12 47//13 45//12
f 49//14 48//13 50//14
f 48//13 49//14 47//13
f 51//15 50//14 52//15
f 50//14 51//15 49//14
f 53//16 52//15 54//16
f 52//15 53//16 51//15
f 55//17 54//16 56//17
f 54//16 55//17 53//16
f 57//18 56//17 58//18
f 56//17 57//18 55//17
f 26//5 58//18 25//5
f 58//18 26//5 57//18
