# SSTK version 0.8.0
# 9
mtllib original-9.mtl
o #ID41
v -0.067864 0.547543 -0.243227
v 0.067494 0.552653 -0.253915
v 0.067152 0.547543 -0.239927
v -0.067522 0.552653 -0.257215
v 0.068563 0.635875 -0.297675
v 0.068969 0.595265 -0.314280
v 0.069201 0.606736 -0.323781
v 0.068713 0.584675 -0.303807
v 0.068435 0.575048 -0.292443
v 0.068138 0.566459 -0.280275
v 0.067823 0.558975 -0.267400
v 0.067892 0.663727 -0.270200
v 0.067494 0.552653 -0.253915
v 0.067152 0.547543 -0.239927
v 0.066800 0.543684 -0.225543
v 0.067188 0.690226 -0.241419
v 0.066442 0.541107 -0.210876
v 0.066079 0.539831 -0.196039
v 0.066455 0.715311 -0.211398
v 0.065715 0.539866 -0.181147
v 0.065353 0.541212 -0.166316
v 0.059011 0.541212 0.093153
v 0.065692 0.738924 -0.180208
v 0.064903 0.761012 -0.147919
v 0.064089 0.781522 -0.114607
v 0.063531 0.779620 -0.091774
v 0.063220 0.773314 -0.079036
v 0.055020 0.862187 0.256465
v 0.054400 0.880021 0.281824
v 0.058659 0.543348 0.107577
v 0.058318 0.547652 0.121509
v 0.056965 0.667734 0.176899
v 0.057998 0.554024 0.134625
v 0.057705 0.562315 0.146621
v 0.057446 0.572333 0.157219
v 0.057227 0.583846 0.166171
v 0.057053 0.596585 0.173271
v 0.056929 0.610256 0.178353
v 0.056857 0.624540 0.181300
v 0.056839 0.639107 0.182043
v 0.056875 0.653617 0.180564
v 0.054236 0.732872 0.288561
v 0.054250 0.736538 0.287983
v 0.054240 0.740229 0.288373
v 0.054208 0.743693 0.289704
v 0.054354 0.870247 0.283723
v 0.054186 0.847025 0.290586
v 0.063252 0.800408 -0.080348
v 0.063232 0.786923 -0.079533
v 0.062929 0.793957 -0.067137
v 0.062945 0.806570 -0.067777
v 0.062622 0.800719 -0.054590
v 0.062393 0.817626 -0.045222
v 0.062312 0.807207 -0.041899
v 0.061516 0.833136 -0.009309
v 0.061999 0.813417 -0.029069
v 0.061682 0.819346 -0.016108
v 0.061362 0.824992 -0.003021
v 0.060621 0.846902 0.027306
v 0.061039 0.830351 0.010186
v 0.060714 0.835422 0.023507
v 0.060385 0.840201 0.036935
v 0.059711 0.858893 0.064541
v 0.060055 0.844687 0.050463
v 0.059722 0.848877 0.064086
v 0.054621 0.910590 0.272790
v 0.054458 0.922446 0.279468
v 0.053241 0.722190 0.329243
v 0.053200 0.725848 0.330932
v 0.053171 0.729695 0.332128
v 0.053154 0.733666 0.332812
v 0.053150 0.737692 0.332973
v 0.053159 0.741704 0.332607
v 0.053181 0.745634 0.331720
v 0.054154 0.746694 0.291886
v 0.054084 0.749028 0.294771
v 0.054001 0.750536 0.298161
v 0.053911 0.751114 0.301826
v 0.053821 0.750724 0.305516
v 0.053737 0.749392 0.308979
v 0.053663 0.747209 0.311979
v 0.053606 0.744324 0.314312
v 0.053569 0.740932 0.315819
v 0.053357 0.715687 0.324515
v 0.053294 0.718784 0.327092
v 0.054142 0.726596 0.292402
v 0.053689 0.707364 0.310919
v 0.054199 0.729481 0.290068
v 0.054068 0.724412 0.295402
v 0.053984 0.723081 0.298865
v 0.053894 0.722691 0.302554
v 0.053804 0.723269 0.306219
v 0.053721 0.724777 0.309609
v 0.053597 0.708756 0.314699
v 0.053651 0.727111 0.312494
v 0.053510 0.710631 0.318265
v 0.053597 0.730112 0.314676
v 0.053429 0.712954 0.321555
v 0.053565 0.733576 0.316008
v 0.053555 0.737267 0.316398
v -0.068216 0.543684 -0.228843
v 0.066800 0.543684 -0.225543
v -0.078051 0.667734 0.173599
v -0.080817 0.729481 0.286768
v -0.080780 0.732872 0.285261
v -0.080874 0.726596 0.289102
v -0.081327 0.707364 0.307620
v -0.080947 0.724412 0.292102
v -0.081032 0.723081 0.295565
v -0.081122 0.722691 0.299255
v -0.081212 0.723269 0.302919
v -0.081295 0.724777 0.306310
v -0.081419 0.708756 0.311399
v -0.081365 0.727111 0.309194
v -0.081506 0.710631 0.314965
v -0.081419 0.730112 0.311377
v -0.081587 0.712954 0.318256
v -0.081451 0.733576 0.312708
v -0.081659 0.715687 0.321215
v -0.081461 0.737267 0.313098
v -0.081446 0.740932 0.312520
v -0.066047 0.595265 -0.317580
v -0.066453 0.635875 -0.300975
v -0.065815 0.606736 -0.327081
v -0.066303 0.584675 -0.307107
v -0.066581 0.575048 -0.295742
v -0.066878 0.566459 -0.283575
v -0.067193 0.558975 -0.270699
v -0.067124 0.663727 -0.273500
v -0.067522 0.552653 -0.257215
v -0.067864 0.547543 -0.243227
v -0.068216 0.543684 -0.228843
v -0.067828 0.690226 -0.244719
v -0.068574 0.541107 -0.214176
v -0.068937 0.539831 -0.199339
v -0.068561 0.715311 -0.214698
v -0.069301 0.539866 -0.184447
v -0.069663 0.541212 -0.169616
v -0.076005 0.541212 0.089854
v -0.069324 0.738924 -0.183508
v -0.070113 0.761012 -0.151219
v -0.070927 0.781522 -0.117907
v -0.071549 0.781190 -0.092432
v -0.071890 0.778309 -0.078515
v -0.079841 0.864654 0.246822
v -0.080564 0.883267 0.276431
v -0.076357 0.543348 0.104277
v -0.076698 0.547652 0.118209
v -0.077018 0.554024 0.131325
v -0.077311 0.562315 0.143321
v -0.077570 0.572333 0.153919
v -0.077789 0.583846 0.162871
v -0.077963 0.596585 0.169971
v -0.078087 0.610256 0.175054
v -0.078159 0.624540 0.178000
v -0.078177 0.639107 0.178743
v -0.078141 0.653617 0.177264
v -0.080766 0.736538 0.284683
v -0.080635 0.874264 0.279318
v -0.080381 0.908714 0.268911
v -0.080776 0.740229 0.285073
v -0.080817 0.849102 0.286754
v -0.080808 0.743693 0.286404
v -0.080862 0.746694 0.288587
v -0.080932 0.749028 0.291471
v -0.081015 0.750536 0.294861
v -0.081104 0.751114 0.298526
v -0.081195 0.750724 0.302216
v -0.081279 0.749392 0.305679
v -0.081353 0.747209 0.308679
v -0.081410 0.744324 0.311013
v -0.081722 0.718784 0.323792
v -0.081775 0.722190 0.325943
v -0.071764 0.800408 -0.083648
v -0.071853 0.788154 -0.080006
v -0.072071 0.806570 -0.071077
v -0.072160 0.794876 -0.067446
v -0.072623 0.817626 -0.048522
v -0.072470 0.801352 -0.054759
v -0.072783 0.807581 -0.041948
v -0.073500 0.833136 -0.012609
v -0.073099 0.813560 -0.029018
v -0.073418 0.819287 -0.015975
v -0.073740 0.824759 -0.002824
v -0.074395 0.846902 0.024007
v -0.074063 0.829976 0.010432
v -0.074390 0.834933 0.023786
v -0.074719 0.839630 0.037234
v -0.075305 0.858893 0.061241
v -0.075049 0.844066 0.050770
v -0.075382 0.848237 0.064390
v -0.080558 0.922446 0.276168
v -0.081816 0.725848 0.327632
v -0.081845 0.729695 0.328828
v -0.081862 0.733666 0.329513
v -0.081866 0.737692 0.329673
v -0.081857 0.741704 0.329307
v -0.081835 0.745634 0.328420
v 0.067823 0.558975 -0.267400
v -0.067193 0.558975 -0.270699
v -0.075305 0.858893 0.061241
v 0.054458 0.922446 0.279468
v 0.059711 0.858893 0.064541
v -0.080558 0.922446 0.276168
v 0.054458 0.922446 0.279468
v -0.081835 0.745634 0.328420
v 0.053181 0.745634 0.331720
v -0.080558 0.922446 0.276168
v 0.053181 0.745634 0.331720
v -0.081857 0.741704 0.329307
v 0.053159 0.741704 0.332607
v -0.081835 0.745634 0.328420
v -0.081866 0.737692 0.329673
v 0.053150 0.737692 0.332973
v -0.081862 0.733666 0.329513
v 0.053154 0.733666 0.332812
v -0.081845 0.729695 0.328828
v 0.053171 0.729695 0.332128
v -0.081816 0.725848 0.327632
v 0.053200 0.725848 0.330932
v -0.081775 0.722190 0.325943
v 0.053241 0.722190 0.329243
v 0.053294 0.718784 0.327092
v -0.081722 0.718784 0.323792
v 0.053357 0.715687 0.324515
v -0.081659 0.715687 0.321215
v 0.053429 0.712954 0.321555
v -0.081587 0.712954 0.318256
v 0.053510 0.710631 0.318265
v -0.081506 0.710631 0.314965
v 0.053597 0.708756 0.314699
v -0.081419 0.708756 0.311399
v 0.053689 0.707364 0.310919
v -0.081327 0.707364 0.307620
v -0.081327 0.707364 0.307620
v 0.056965 0.667734 0.176899
v 0.053689 0.707364 0.310919
v -0.078051 0.667734 0.173599
v 0.056965 0.667734 0.176899
v -0.078141 0.653617 0.177264
v 0.056875 0.653617 0.180564
v -0.078051 0.667734 0.173599
v -0.078177 0.639107 0.178743
v 0.056839 0.639107 0.182043
v -0.078159 0.624540 0.178000
v 0.056857 0.624540 0.181300
v -0.078087 0.610256 0.175054
v 0.056929 0.610256 0.178353
v -0.077963 0.596585 0.169971
v 0.057053 0.596585 0.173271
v 0.057227 0.583846 0.166171
v -0.077789 0.583846 0.162871
v 0.057446 0.572333 0.157219
v -0.077570 0.572333 0.153919
v 0.057705 0.562315 0.146621
v -0.077311 0.562315 0.143321
v 0.057998 0.554024 0.134625
v -0.077018 0.554024 0.131325
v 0.058318 0.547652 0.121509
v -0.076698 0.547652 0.118209
v 0.058659 0.543348 0.107577
v -0.076357 0.543348 0.104277
v 0.059011 0.541212 0.093153
v -0.076005 0.541212 0.089854
v -0.076005 0.541212 0.089854
v 0.065353 0.541212 -0.166316
v 0.059011 0.541212 0.093153
v -0.069663 0.541212 -0.169616
v -0.069663 0.541212 -0.169616
v 0.065715 0.539866 -0.181147
v 0.065353 0.541212 -0.166316
v -0.069301 0.539866 -0.184447
v 0.066079 0.539831 -0.196039
v -0.068937 0.539831 -0.199339
v 0.066442 0.541107 -0.210876
v -0.068574 0.541107 -0.214176
v -0.066878 0.566459 -0.283575
v 0.068138 0.566459 -0.280275
v -0.066581 0.575048 -0.295742
v 0.068435 0.575048 -0.292443
v -0.066303 0.584675 -0.307107
v 0.068713 0.584675 -0.303807
v -0.066047 0.595265 -0.317580
v 0.068969 0.595265 -0.314280
v -0.065815 0.606736 -0.327081
v 0.069201 0.606736 -0.323781
v -0.065815 0.606736 -0.327081
v 0.068563 0.635875 -0.297675
v 0.069201 0.606736 -0.323781
v -0.066453 0.635875 -0.300975
v 0.067892 0.663727 -0.270200
v -0.067124 0.663727 -0.273500
v 0.067188 0.690226 -0.241419
v -0.067828 0.690226 -0.244719
v 0.066455 0.715311 -0.211398
v -0.068561 0.715311 -0.214698
v 0.065692 0.738924 -0.180208
v -0.069324 0.738924 -0.183508
v 0.064903 0.761012 -0.147919
v -0.070113 0.761012 -0.151219
v 0.064089 0.781522 -0.114607
v -0.070927 0.781522 -0.117907
v 0.063252 0.800408 -0.080348
v -0.071764 0.800408 -0.083648
v 0.062945 0.806570 -0.067777
v -0.072071 0.806570 -0.071077
v -0.072071 0.806570 -0.071077
v 0.062393 0.817626 -0.045222
v 0.062945 0.806570 -0.067777
v -0.072623 0.817626 -0.048522
v 0.061516 0.833136 -0.009309
v -0.073500 0.833136 -0.012609
v 0.060621 0.846902 0.027306
v -0.074395 0.846902 0.024007
v 0.059711 0.858893 0.064541
v -0.075305 0.858893 0.061241
vn 0.00736233631495272 -0.9535192314605563 -0.3012422135738217
vn 0.009384213600928807 -0.9232975976330996 -0.38397067953170466
vn 0.9997014788227874 0 0.024432626537732694
vn 0.005283315126593356 -0.9763402031219487 -0.21617560997731655
vn -0.9997014788227874 0 -0.024432626537732694
vn 0.011333258920301643 -0.8859097861621914 -0.4637191046574488
vn 0.006926267813522752 0.9589768559742524 -0.283399746859297
vn -0.02343032319387067 0.2834843987667575 0.9586905734442583
vn -0.023833156731032656 0.2201573451775211 0.9751731764177171
vn -0.024133933009631063 0.15588754559124768 0.9874799372174724
vn -0.0244246044607668 0.025623454515859356 0.9993732422251501
vn -0.024297364217684834 -0.10507911924491034 0.99416699643007
vn -0.023754389174769137 -0.23398375914198685 0.9719502710801199
vn -0.02280496996908115 -0.35888485136064924 0.933103208015359
vn -0.021465351401494265 -0.477645321817445 0.878290490233795
vn -0.01975845472545049 -0.5882331469104771 0.8084499788747969
vn -0.017713485412378285 -0.6887561392359871 0.7247766642899611
vn -0.01536543310633069 -0.7774943342662239 0.628702205856935
vn -0.01275447393960545 -0.8529293809638517 0.5218704767307156
vn -0.009925283475354393 -0.9137705411903944 0.4061094517498303
vn -0.00844385460332839 -0.9383828479413533 0.3454943299229568
vn -0.006926267813522746 -0.9589768559742525 0.28339974685929675
vn -0.02364800072816812 0.2513889596276058 0.967597211157055
vn -0.02404724754584577 0.17691090455288747 0.9839330575479961
vn -0.02442480080032065 0.02530799712097807 0.9993812757839667
vn -0.024235155601650203 -0.12688264208223013 0.9916216276237609
vn -0.023482716141284794 -0.27612673836654916 0.9608343178725866
vn -0.022184955507509103 -0.41895858035097394 0.9077342869471365
vn -0.02037201142954331 -0.5520612222820889 0.8335546700743274
vn -0.01808598334850741 -0.6723438137757524 0.7400180357827733
vn -0.015379959577520466 -0.7770130440090167 0.6292965805430979
vn -0.012316778387494119 -0.863638331394827 0.5039614365362814
vn -0.008967573704226408 -0.930208026494404 0.36692316643576156
vn -0.005410122427251585 -0.9751762135941205 0.22136414121432627
vn -0.003578983452682682 -0.9892130724223569 0.1464400499391011
vn 0 -1 0
vn -0.002207762873807509 -0.9959090535917065 0.09033428339874465
vn -0.0011337778100371254 -0.9989227423589844 0.04639040144128444
vn 0.001018707652686808 -0.9991304036668162 -0.041682114909196745
vn 0.0031632886603264075 -0.9915833581535455 -0.12943120735660743
vn 0.013194338214050222 -0.8416461120791771 -0.5398682538000349
vn 0.01495301316224321 -0.79084997946472 -0.6118273591283914
vn 0.01659563001462236 -0.733915739472027 -0.6790377547821955
vn 0.018109441354549175 -0.6712852303883703 -0.7409778590459087
vn 0.018814331771792356 -0.637984147468231 -0.7698196207548981
vn 0.01819533196630956 0.6673831509505055 -0.7444922160251312
vn 0.01779829067510603 0.6850840038711302 -0.7282466124115825
vn 0.016973615893261414 0.7192889144108705 -0.6945036745540945
vn 0.016109743242290614 0.7518328733694927 -0.6591568908034262
vn 0.015208670468654154 0.7826406190391388 -0.6222880022727495
vn 0.01427247728983959 0.8116410527656035 -0.5839821040558981
vn 0.01330332344715295 0.8387672638838556 -0.5443275655540981
vn 0.012303450766073636 0.8639565038126957 -0.5034161147788079
vn 0.011275166018279534 0.8871506654148557 -0.46134213712302385
vn 0.01075110802120917 0.8979826844351849 -0.43989943411067856
vn 0.010220843998478491 0.9082961804227043 -0.4182028012549473
vn 0.009142918696696863 0.9273442292107724 -0.37409769791751485
vn 0.008043880819992895 0.9442507979653355 -0.3291287385251871
vn 0.007487235839226924 0.9518886351404233 -0.30635268497271195
usemtl material_0_0
f 1//1 2//2 3//1
f 2//2 1//1 4//2
f 5//3 6//3 7//3
f 6//3 5//3 8//3
f 8//3 5//3 9//3
f 9//3 5//3 10//3
f 10//3 5//3 11//3
f 11//3 5//3 12//3
f 11//3 12//3 13//3
f 13//3 12//3 14//3
f 14//3 12//3 15//3
f 15//3 12//3 16//3
f 15//3 16//3 17//3
f 17//3 16//3 18//3
f 18//3 16//3 19//3
f 18//3 19//3 20//3
f 20//3 19//3 21//3
f 21//3 19//3 22//3
f 22//3 19//3 23//3
f 22//3 23//3 24//3
f 22//3 24//3 25//3
f 22//3 25//3 26//3
f 22//3 26//3 27//3
f 22//3 27//3 28//3
f 28//3 27//3 29//3
f 22//3 28//3 30//3
f 30//3 28//3 31//3
f 31//3 28//3 32//3
f 31//3 32//3 33//3
f 33//3 32//3 34//3
f 34//3 32//3 35//3
f 35//3 32//3 36//3
f 36//3 32//3 37//3
f 37//3 32//3 38//3
f 38//3 32//3 39//3
f 39//3 32//3 40//3
f 40//3 32//3 41//3
f 32//3 28//3 42//3
f 42//3 28//3 43//3
f 43//3 28//3 44//3
f 44//3 28//3 45//3
f 28//3 29//3 46//3
f 46//3 29//3 47//3
f 48//3 26//3 25//3
f 26//3 48//3 49//3
f 49//3 48//3 50//3
f 50//3 48//3 51//3
f 50//3 51//3 52//3
f 52//3 51//3 53//3
f 52//3 53//3 54//3
f 54//3 53//3 55//3
f 54//3 55//3 56//3
f 56//3 55//3 57//3
f 57//3 55//3 58//3
f 58//3 55//3 59//3
f 58//3 59//3 60//3
f 60//3 59//3 61//3
f 61//3 59//3 62//3
f 62//3 59//3 63//3
f 62//3 63//3 64//3
f 64//3 63//3 65//3
f 65//3 63//3 66//3
f 66//3 63//3 67//3
f 66//3 67//3 29//3
f 29//3 67//3 68//3
f 68//3 67//3 69//3
f 69//3 67//3 70//3
f 70//3 67//3 71//3
f 71//3 67//3 72//3
f 72//3 67//3 73//3
f 73//3 67//3 74//3
f 28//3 75//3 45//3
f 75//3 28//3 47//3
f 75//3 47//3 76//3
f 76//3 47//3 77//3
f 77//3 47//3 78//3
f 78//3 47//3 79//3
f 79//3 47//3 80//3
f 80//3 47//3 81//3
f 81//3 47//3 82//3
f 82//3 47//3 83//3
f 83//3 47//3 84//3
f 84//3 47//3 85//3
f 85//3 47//3 68//3
f 68//3 47//3 29//3
f 32//3 86//3 87//3
f 86//3 32//3 88//3
f 88//3 32//3 42//3
f 87//3 86//3 89//3
f 87//3 89//3 90//3
f 87//3 90//3 91//3
f 87//3 91//3 92//3
f 87//3 92//3 93//3
f 87//3 93//3 94//3
f 94//3 93//3 95//3
f 94//3 95//3 96//3
f 96//3 95//3 97//3
f 96//3 97//3 98//3
f 98//3 97//3 99//3
f 98//3 99//3 84//3
f 84//3 99//3 100//3
f 84//3 100//3 83//3
f 101//4 3//1 102//4
f 3//1 101//4 1//1
f 103//5 104//5 105//5
f 104//5 103//5 106//5
f 106//5 103//5 107//5
f 106//5 107//5 108//5
f 108//5 107//5 109//5
f 109//5 107//5 110//5
f 110//5 107//5 111//5
f 111//5 107//5 112//5
f 112//5 107//5 113//5
f 112//5 113//5 114//5
f 114//5 113//5 115//5
f 114//5 115//5 116//5
f 116//5 115//5 117//5
f 116//5 117//5 118//5
f 118//5 117//5 119//5
f 118//5 119//5 120//5
f 120//5 119//5 121//5
f 122//5 123//5 124//5
f 123//5 122//5 125//5
f 123//5 125//5 126//5
f 123//5 126//5 127//5
f 123//5 127//5 128//5
f 123//5 128//5 129//5
f 129//5 128//5 130//5
f 129//5 130//5 131//5
f 129//5 131//5 132//5
f 129//5 132//5 133//5
f 133//5 132//5 134//5
f 133//5 134//5 135//5
f 133//5 135//5 136//5
f 136//5 135//5 137//5
f 136//5 137//5 138//5
f 136//5 138//5 139//5
f 136//5 139//5 140//5
f 140//5 139//5 141//5
f 141//5 139//5 142//5
f 142//5 139//5 143//5
f 143//5 139//5 144//5
f 144//5 139//5 145//5
f 144//5 145//5 146//5
f 145//5 139//5 147//5
f 145//5 147//5 148//5
f 145//5 148//5 103//5
f 103//5 148//5 149//5
f 103//5 149//5 150//5
f 103//5 150//5 151//5
f 103//5 151//5 152//5
f 103//5 152//5 153//5
f 103//5 153//5 154//5
f 103//5 154//5 155//5
f 103//5 155//5 156//5
f 103//5 156//5 157//5
f 145//5 103//5 105//5
f 145//5 105//5 158//5
f 146//5 145//5 159//5
f 146//5 159//5 160//5
f 161//5 145//5 158//5
f 145//5 161//5 162//5
f 162//5 161//5 163//5
f 162//5 163//5 164//5
f 162//5 164//5 165//5
f 162//5 165//5 166//5
f 162//5 166//5 167//5
f 162//5 167//5 168//5
f 162//5 168//5 169//5
f 162//5 169//5 170//5
f 162//5 170//5 171//5
f 162//5 171//5 121//5
f 162//5 121//5 119//5
f 162//5 119//5 172//5
f 162//5 172//5 173//5
f 162//5 173//5 159//5
f 143//5 174//5 142//5
f 174//5 143//5 175//5
f 174//5 175//5 176//5
f 176//5 175//5 177//5
f 176//5 177//5 178//5
f 178//5 177//5 179//5
f 178//5 179//5 180//5
f 178//5 180//5 181//5
f 181//5 180//5 182//5
f 181//5 182//5 183//5
f 181//5 183//5 184//5
f 181//5 184//5 185//5
f 185//5 184//5 186//5
f 185//5 186//5 187//5
f 185//5 187//5 188//5
f 185//5 188//5 189//5
f 189//5 188//5 190//5
f 189//5 190//5 191//5
f 189//5 191//5 160//5
f 189//5 160//5 192//5
f 192//5 160//5 159//5
f 192//5 159//5 173//5
f 192//5 173//5 193//5
f 192//5 193//5 194//5
f 192//5 194//5 195//5
f 192//5 195//5 196//5
f 192//5 196//5 197//5
f 192//5 197//5 198//5
f 4//2 199//6 2//2
f 199//6 4//2 200//6
f 201//7 202//7 203//7
f 202//7 201//7 204//7
f 205//8 206//8 207//8
f 206//8 205//8 208//8
f 209//9 210//10 211//10
f 210//10 209//9 212//9
f 211//10 213//11 214//11
f 213//11 211//10 210//10
f 214//11 215//12 216//12
f 215//12 214//11 213//11
f 216//12 217//13 218//13
f 217//13 216//12 215//12
f 218//13 219//14 220//14
f 219//14 218//13 217//13
f 220//14 221//15 222//15
f 221//15 220//14 219//14
f 221//15 223//16 222//15
f 223//16 221//15 224//16
f 224//16 225//17 223//16
f 225//17 224//16 226//17
f 226//17 227//18 225//17
f 227//18 226//17 228//18
f 228//18 229//19 227//18
f 229//19 228//18 230//19
f 230//19 231//20 229//19
f 231//20 230//19 232//20
f 232//20 233//21 231//20
f 233//21 232//20 234//21
f 235//22 236//22 237//22
f 236//22 235//22 238//22
f 239//23 240//24 241//24
f 240//24 239//23 242//23
f 241//24 243//25 244//25
f 243//25 241//24 240//24
f 244//25 245//26 246//26
f 245//26 244//25 243//25
f 246//26 247//27 248//27
f 247//27 246//26 245//26
f 248//27 249//28 250//28
f 249//28 248//27 247//27
f 249//28 251//29 250//28
f 251//29 249//28 252//29
f 252//29 253//30 251//29
f 253//30 252//29 254//30
f 254//30 255//31 253//30
f 255//31 254//30 256//31
f 256//31 257//32 255//31
f 257//32 256//31 258//32
f 258//32 259//33 257//32
f 259//33 258//32 260//33
f 260//33 261//34 259//33
f 261//34 260//33 262//34
f 262//34 263//35 261//34
f 263//35 262//34 264//35
f 265//36 266//36 267//36
f 266//36 265//36 268//36
f 269//37 270//38 271//37
f 270//38 269//37 272//38
f 272//38 273//39 270//38
f 273//39 272//38 274//39
f 274//39 275//40 273//39
f 275//40 274//39 276//40
f 276//40 102//4 275//40
f 102//4 276//40 101//4
f 277//41 199//6 200//6
f 199//6 277//41 278//41
f 279//42 278//41 277//41
f 278//41 279//42 280//42
f 281//43 280//42 279//42
f 280//42 281//43 282//43
f 283//44 282//43 281//43
f 282//43 283//44 284//44
f 285//45 284//44 283//44
f 284//44 285//45 286//45
f 287//46 288//47 289//46
f 288//47 287//46 290//47
f 290//47 291//48 288//47
f 291//48 290//47 292//48
f 292//48 293//49 291//48
f 293//49 292//48 294//49
f 294//49 295//50 293//49
f 295//50 294//49 296//50
f 296//50 297//51 295//50
f 297//51 296//50 298//51
f 298//51 299//52 297//51
f 299//52 298//51 300//52
f 300//52 301//53 299//52
f 301//53 300//52 302//53
f 302//53 303//54 301//53
f 303//54 302//53 304//54
f 304//54 305//55 303//54
f 305//55 304//54 306//55
f 307//55 308//56 309//55
f 308//56 307//55 310//56
f 310//56 311//57 308//56
f 311//57 310//56 312//57
f 312//57 313//58 311//57
f 313//58 312//57 314//58
f 314//58 315//59 313//58
f 315//59 314//58 316//59
