# SSTK version 0.8.0
# 4
mtllib original-4.mtl
o mesh1/mesh1-geometry#mesh1-geometry
v 0.368773 -0.101215 -0.687915
v 0.366886 -0.101288 -0.427440
v 0.367796 -0.101288 -0.688236
v 0.388244 -0.099746 -0.680248
v 0.363770 -0.101456 -0.430120
v 0.407246 -0.098313 -0.671481
v 0.336735 -0.102912 -0.446817
v 0.324993 -0.103475 -0.081668
v 0.408364 -0.098229 -0.670885
v 0.326283 -0.103475 -0.451189
v 0.365760 -0.101288 -0.105133
v 0.404389 -0.098229 0.467901
v 0.348895 -0.102305 -0.694456
v 0.362626 -0.101456 -0.102475
v 0.425715 -0.096544 -0.661643
v 0.328676 -0.103393 -0.699851
v 0.284225 -0.104787 -0.068744
v 0.363761 -0.101288 0.467760
v 0.335475 -0.102912 -0.085967
v 0.443592 -0.094807 -0.650766
v 0.327152 -0.103475 -0.700166
v 0.307421 -0.104083 -0.459079
v 0.306076 -0.104083 -0.073910
v 0.448836 -0.094297 -0.647149
v 0.285606 -0.104787 -0.464397
v 0.323076 -0.103475 0.467618
v 0.444943 -0.094297 0.468043
v 0.244699 -0.105224 -0.417003
v 0.282353 -0.104787 0.467475
v 0.460819 -0.092873 -0.638885
v 0.308182 -0.104086 -0.704082
v 0.276549 -0.104884 -0.466605
v 0.243649 -0.105224 -0.116423
v 0.275153 -0.104884 -0.066600
v 0.477338 -0.090908 -0.626039
v 0.287479 -0.104754 -0.707135
v 0.244881 -0.105224 -0.469208
v 0.286454 -0.104787 -0.707227
v 0.243467 -0.105224 -0.064217
v 0.202742 -0.104787 -0.069029
v 0.487772 -0.089667 -0.616922
v 0.213195 -0.104884 -0.466826
v 0.204123 -0.104787 -0.464681
v 0.241612 -0.105224 0.467333
v 0.483984 -0.089667 0.468179
v 0.204971 -0.104787 -0.707512
v 0.266636 -0.105000 -0.709001
v 0.211799 -0.104884 -0.066821
v 0.182272 -0.104083 -0.459516
v 0.200870 -0.104787 0.467191
v 0.224800 -0.105000 -0.709147
v 0.245720 -0.105224 -0.709672
v 0.163355 -0.103475 -0.451758
v 0.164224 -0.103475 -0.700735
v 0.203945 -0.104754 -0.707427
v 0.160148 -0.103475 0.467049
v 0.162065 -0.103475 -0.082237
v 0.183221 -0.104086 -0.704519
v 0.180927 -0.104083 -0.074347
v 0.152873 -0.102912 -0.447459
v 0.162698 -0.103393 -0.700431
v 0.125722 -0.101456 -0.430951
v 0.123498 -0.101288 -0.689089
v 0.142442 -0.102305 -0.695177
v 0.119463 -0.101288 0.466907
v 0.122588 -0.101288 -0.428292
v 0.151613 -0.102912 -0.086609
v 0.121462 -0.101288 -0.105986
v 0.124578 -0.101456 -0.103306
v 0.078834 -0.098229 0.466765
v 0.122519 -0.101215 -0.688774
v 0.082809 -0.098229 -0.672022
v 0.102995 -0.099746 -0.681244
v 0.083932 -0.098313 -0.672610
v 0.065394 -0.096544 -0.662901
v 0.047442 -0.094807 -0.652149
v 0.042173 -0.094297 -0.648569
v 0.038280 -0.094297 0.466623
v 0.030133 -0.092872 -0.640388
v 0.013524 -0.090906 -0.627658
v 0.001846 -0.089525 -0.617597
v -0.001938 -0.089525 0.466483
vn 0.07509303926423994 -0.9971764972830686 0.0002621456266995373
vn 0.06080964442117438 -0.9981493586381234 0.00021212183568338877
vn 0.06438170096113152 -0.9979253209832301 0.00022432536337786064
vn 0.05366332834782401 -0.9985590679254849 0.00018722825675596832
vn 0.04293768210640575 -0.9990777412144213 0.0001498840198096274
vn 0.08579604925153365 -0.9963126757984135 0.00029996038682089974
vn 0.09648968704179264 -0.9953339272311392 0.0003370418581274855
vn 0.021474069626366808 -0.9997694027526861 0.00007518789371715421
vn 0.03220794455908992 -0.9994811832359017 0.00011253728573416358
vn 0.1071398852071893 -0.994243886283859 0.00037361070500340117
vn 0.010738004491268861 -0.999942345270152 0.00003735202271570388
vn 0.11777891487228233 -0.9930397566928764 0.0004109000614246617
vn 0 -1 0
vn -0.021474069626366808 -0.9997694027526861 -0.00007518789371715421
vn -0.010738004491268861 -0.999942345270152 -0.00003735202271570388
vn -0.03220794455908992 -0.9994811832359017 -0.00011253728573416358
vn -0.04293768210640575 -0.9990777412144213 -0.0001498840198096274
vn -0.05366332834782401 -0.9985590679254849 -0.00018722825675596832
vn -0.06438170096113152 -0.9979253209832301 -0.00022432536337786064
vn -0.06080964442117438 -0.9981493586381234 -0.00021212183568338877
vn -0.08579604925153365 -0.9963126757984135 -0.00029996038682089974
vn -0.07509303926423994 -0.9971764972830686 -0.0002621456266995373
vn -0.09648968704179264 -0.9953339272311392 -0.0003370418581274855
vn -0.10717089258162245 -0.9942405442452102 -0.00037411528518461887
vn -0.1178408389843667 -0.9930324102446132 -0.0004109394540270382
vn -0.06438170096113152 0.9979253209832301 -0.00022432536337786064
vn -0.06080964442117438 0.9981493586381234 -0.00021212183568338877
vn -0.07509303926423994 0.9971764972830686 -0.0002621456266995373
vn -0.05366332834782401 0.9985590679254849 -0.00018722825675596832
vn -0.04293768210640575 0.9990777412144213 -0.0001498840198096274
vn -0.08579604925153365 0.9963126757984135 -0.00029996038682089974
vn -0.09648968704179264 0.9953339272311392 -0.0003370418581274855
vn -0.021474069626366808 0.9997694027526861 -0.00007518789371715421
vn -0.03220794455908992 0.9994811832359017 -0.00011253728573416358
vn -0.1071398852071893 0.994243886283859 -0.00037361070500340117
vn -0.010738004491268861 0.999942345270152 -0.00003735202271570388
vn -0.11777891487228233 0.9930397566928764 -0.0004109000614246617
vn 0 1 0
vn 0.010738004491268861 0.999942345270152 0.00003735202271570388
vn 0.021474069626366808 0.9997694027526861 0.00007518789371715421
vn 0.03220794455908992 0.9994811832359017 0.00011253728573416358
vn 0.04293768210640575 0.9990777412144213 0.0001498840198096274
vn 0.05366332834782401 0.9985590679254849 0.00018722825675596832
vn 0.06438170096113152 0.9979253209832301 0.00022432536337786064
vn 0.06080964442117438 0.9981493586381234 0.00021212183568338877
vn 0.08579604925153365 0.9963126757984135 0.00029996038682089974
vn 0.07509303926423994 0.9971764972830686 0.0002621456266995373
vn 0.09648968704179264 0.9953339272311392 0.0003370418581274855
vn 0.10717089258162245 0.9942405442452102 0.00037411528518461887
vn 0.1178408389843667 0.9930324102446132 0.0004109394540270382
usemtl material_0_0
f 1//1 2//2 3//3
f 2//2 1//1 4//1
f 5//4 3//3 2//2
f 2//2 4//1 6//1
f 7//4 3//3 5//4
f 8//5 5//4 2//2
f 2//2 6//1 9//6
f 10//5 3//3 7//4
f 8//5 7//4 5//4
f 8//5 2//2 11//2
f 2//2 9//6 12//6
f 10//5 13//4 3//3
f 7//4 8//5 10//5
f 2//2 12//6 11//2
f 8//5 11//2 14//4
f 15//7 12//6 9//6
f 10//5 16//4 13//4
f 17//8 10//5 8//5
f 11//2 12//6 18//3
f 18//3 14//4 11//2
f 8//5 14//4 19//4
f 12//6 15//7 20//7
f 16//4 10//5 21//5
f 17//8 22//9 10//5
f 17//8 8//5 23//9
f 14//4 18//3 19//4
f 19//4 18//3 8//5
f 12//6 20//7 24//10
f 22//9 21//5 10//5
f 22//9 17//8 25//8
f 26//5 23//9 8//5
f 23//9 26//5 17//8
f 8//5 18//3 26//5
f 12//6 24//10 27//10
f 25//8 21//5 22//9
f 28//11 25//8 17//8
f 17//8 26//5 29//8
f 30//12 27//10 24//10
f 25//8 31//9 21//5
f 28//11 32//11 25//8
f 28//11 17//8 33//13
f 29//8 34//11 17//8
f 27//10 30//12 35//12
f 25//8 36//9 31//9
f 32//11 28//11 37//11
f 32//11 38//8 25//8
f 33//13 17//8 39//13
f 40//14 28//15 33//13
f 34//11 29//8 39//11
f 39//13 17//8 34//11
f 27//10 35//12 41//12
f 36//9 25//8 38//8
f 28//15 42//15 37//15
f 37//11 38//8 32//11
f 40//14 33//13 39//13
f 43//14 28//15 40//14
f 39//11 29//8 44//11
f 27//10 41//12 45//12
f 42//15 28//15 43//14
f 46//14 37//15 42//15
f 37//11 47//11 38//8
f 40//14 39//13 48//15
f 40//14 49//16 43//14
f 50//14 39//15 44//15
f 46//14 42//15 43//14
f 51//15 37//15 46//14
f 47//11 37//11 52//11
f 50//14 48//15 39//15
f 48//15 50//14 40//14
f 49//16 40//14 53//17
f 54//17 43//14 49//16
f 43//14 55//16 46//14
f 37//15 51//15 52//15
f 56//17 40//14 50//14
f 53//17 40//14 57//17
f 54//17 49//16 53//17
f 58//16 43//14 54//17
f 55//16 43//14 58//16
f 56//17 59//16 40//14
f 57//17 40//14 59//16
f 57//17 60//18 53//17
f 53//17 61//18 54//17
f 59//16 56//17 57//17
f 60//18 57//17 62//18
f 63//19 53//17 60//18
f 61//18 53//17 64//18
f 65//19 57//17 56//17
f 62//18 57//17 66//20
f 63//19 60//18 62//18
f 64//18 53//17 63//19
f 65//19 67//18 57//17
f 66//20 57//17 68//20
f 63//19 62//18 66//20
f 65//19 69//18 67//18
f 69//18 57//17 67//18
f 68//20 57//17 69//18
f 70//21 66//20 68//20
f 66//20 71//22 63//19
f 69//18 65//19 68//20
f 72//21 66//20 70//21
f 70//21 68//20 65//19
f 71//22 66//20 73//22
f 74//22 66//20 72//21
f 70//21 75//23 72//21
f 73//22 66//20 74//22
f 75//23 70//21 76//23
f 76//23 70//21 77//24
f 77//24 70//21 78//24
f 78//24 79//25 77//24
f 79//25 78//24 80//25
f 80//25 78//24 81//25
f 81//25 78//24 82//25
usemtl material_1_0
f 3//26 2//27 1//28
f 4//28 1//28 2//27
f 2//27 3//26 5//29
f 6//28 4//28 2//27
f 5//29 3//26 7//29
f 2//27 5//29 8//30
f 9//31 6//28 2//27
f 7//29 3//26 10//30
f 5//29 7//29 8//30
f 11//27 2//27 8//30
f 12//31 9//31 2//27
f 3//26 13//29 10//30
f 10//30 8//30 7//29
f 11//27 12//31 2//27
f 14//29 11//27 8//30
f 9//31 12//31 15//32
f 13//29 16//29 10//30
f 8//30 10//30 17//33
f 18//26 12//31 11//27
f 11//27 14//29 18//26
f 19//29 14//29 8//30
f 20//32 15//32 12//31
f 21//30 10//30 16//29
f 10//30 22//34 17//33
f 23//34 8//30 17//33
f 19//29 18//26 14//29
f 8//30 18//26 19//29
f 24//35 20//32 12//31
f 10//30 21//30 22//34
f 25//33 17//33 22//34
f 8//30 23//34 26//30
f 17//33 26//30 23//34
f 26//30 18//26 8//30
f 27//35 24//35 12//31
f 22//34 21//30 25//33
f 17//33 25//33 28//36
f 29//33 26//30 17//33
f 24//35 27//35 30//37
f 21//30 31//34 25//33
f 25//33 32//36 28//36
f 33//38 17//33 28//36
f 17//33 34//36 29//33
f 35//37 30//37 27//35
f 31//34 36//34 25//33
f 37//36 28//36 32//36
f 25//33 38//33 32//36
f 39//38 17//33 33//38
f 33//38 28//39 40//40
f 39//36 29//33 34//36
f 34//36 17//33 39//38
f 41//37 35//37 27//35
f 38//33 25//33 36//34
f 37//39 42//39 28//39
f 32//36 38//33 37//36
f 39//38 33//38 40//40
f 40//40 28//39 43//40
f 44//36 29//33 39//36
f 45//37 41//37 27//35
f 43//40 28//39 42//39
f 42//39 37//39 46//40
f 38//33 47//36 37//36
f 48//39 39//38 40//40
f 43//40 49//41 40//40
f 44//39 39//39 50//40
f 43//40 42//39 46//40
f 46//40 37//39 51//39
f 52//36 37//36 47//36
f 39//39 48//39 50//40
f 40//40 50//40 48//39
f 53//42 40//40 49//41
f 49//41 43//40 54//42
f 46//40 55//41 43//40
f 52//39 51//39 37//39
f 50//40 40//40 56//42
f 57//42 40//40 53//42
f 53//42 49//41 54//42
f 54//42 43//40 58//41
f 58//41 43//40 55//41
f 40//40 59//41 56//42
f 59//41 40//40 57//42
f 53//42 60//43 57//42
f 54//42 61//43 53//42
f 57//42 56//42 59//41
f 62//43 57//42 60//43
f 60//43 53//42 63//44
f 64//43 53//42 61//43
f 56//42 57//42 65//44
f 66//45 57//42 62//43
f 62//43 60//43 63//44
f 63//44 53//42 64//43
f 57//42 67//43 65//44
f 68//45 57//42 66//45
f 66//45 62//43 63//44
f 67//43 69//43 65//44
f 67//43 57//42 69//43
f 69//43 57//42 68//45
f 68//45 66//45 70//46
f 63//44 71//47 66//45
f 68//45 65//44 69//43
f 70//46 66//45 72//46
f 65//44 68//45 70//46
f 73//47 66//45 71//47
f 72//46 66//45 74//47
f 72//46 75//48 70//46
f 74//47 66//45 73//47
f 76//48 70//46 75//48
f 77//49 70//46 76//48
f 78//49 70//46 77//49
f 77//49 79//50 78//49
f 80//50 78//49 79//50
f 81//50 78//49 80//50
f 82//50 78//49 81//50
