# SSTK version 0.8.0
# 14
mtllib original-14.mtl
o mesh25/mesh25-geometry#mesh25-geometry
v 0.490140 0.091595 0.468201
v 0.493380 0.092188 -0.611992
v 0.493909 0.091595 -0.611474
v 0.489610 0.092188 0.468199
v 0.494371 0.090948 -0.611021
v 0.490122 -0.084714 0.468201
v 0.489017 0.092719 0.468197
v 0.490604 0.090948 0.468202
v 0.489408 -0.085599 0.468198
v 0.490772 -0.083779 0.468203
v 0.493097 0.092442 -0.612270
v 0.490993 0.090255 0.468204
v 0.492790 0.092719 -0.612538
v 0.488632 -0.086432 0.468195
v 0.494759 0.090255 -0.610641
v 0.488370 0.093182 0.468195
v 0.491305 0.089523 0.468205
v 0.491355 -0.082801 0.468205
v 0.492145 0.093182 -0.613102
v 0.487799 -0.087208 0.468193
v 0.495070 0.089523 -0.610336
v 0.487677 0.093571 0.468192
v 0.491535 0.088761 0.468206
v 0.491453 0.093571 -0.613706
v 0.486945 0.093883 0.468190
v 0.495299 0.088761 -0.610112
v 0.491866 -0.081785 0.468207
v 0.486913 -0.087923 0.468189
v 0.491938 0.086590 0.468207
v 0.490723 0.093883 -0.614344
v 0.486183 0.094113 0.468187
v 0.495700 0.086590 -0.609718
v 0.492316 -0.080706 0.468208
v 0.485979 -0.088573 0.468186
v 0.496890 0.072120 0.468224
v 0.489964 0.094113 -0.615007
v 0.485162 0.094302 0.468183
v 0.500635 0.072120 -0.604882
v 0.496890 -0.067342 0.468224
v 0.485001 -0.089155 0.468183
v 0.500662 0.058477 0.468237
v 0.500662 -0.053699 0.468237
v 0.500635 -0.067342 -0.604882
v 0.488946 0.094302 -0.615897
v 0.483984 -0.089667 0.468179
v 0.504395 0.058477 -0.601197
v 0.496078 -0.080706 -0.609349
v 0.444943 -0.094297 0.468043
v 0.503611 0.044632 0.468248
v 0.504395 -0.053699 -0.601197
v 0.444943 0.099075 0.468043
v 0.507334 0.044632 -0.598318
v 0.503611 -0.039854 0.468248
v 0.404389 -0.098229 0.467901
v 0.508043 0.039919 -0.597623
v 0.505724 -0.025858 0.468255
v 0.507334 -0.039854 -0.598318
v 0.404389 0.103006 0.467901
v 0.509439 0.030636 -0.596088
v 0.505724 0.030636 0.468255
v 0.363761 -0.101288 0.467760
v 0.506995 -0.011760 0.468260
v 0.508043 -0.035141 -0.597623
v 0.363761 0.106066 0.467760
v 0.510706 0.016538 -0.594697
v 0.506995 0.016538 0.468260
v 0.509439 -0.025858 -0.596088
v 0.323076 -0.103475 0.467618
v 0.507420 0.002389 0.468261
v 0.510706 -0.011760 -0.594697
v 0.323076 0.108253 0.467618
v 0.511128 0.002389 -0.594232
v 0.282353 -0.104787 0.467475
v 0.282353 0.109565 0.467475
v 0.241612 -0.105224 0.467333
v 0.241612 0.110002 0.467333
v 0.200870 -0.104787 0.467191
v 0.200870 0.109565 0.467191
v 0.160148 -0.103475 0.467049
v 0.160148 0.108253 0.467049
v 0.119463 -0.101288 0.466907
v 0.119463 0.106066 0.466907
v 0.078834 -0.098229 0.466765
v 0.078834 0.103006 0.466765
v 0.038280 -0.094297 0.466623
v 0.038280 0.099075 0.466623
v -0.000761 0.094445 0.466487
v -0.001778 0.093933 0.466484
v -0.001938 -0.089525 0.466483
v 0.002007 0.093933 -0.617736
v -0.002756 0.093351 0.466480
v 0.003027 0.094445 -0.618614
v 0.001026 0.093351 -0.616891
v -0.002960 -0.089335 0.466479
v -0.003690 0.092700 0.466477
v 0.000821 -0.089335 -0.616714
v 0.000089 0.092700 -0.616083
v -0.003721 -0.089105 0.466477
v 0.001846 -0.089525 -0.617597
v 0.000058 -0.089105 -0.616056
v -0.004453 -0.088794 0.466474
v -0.000799 0.091986 -0.615318
v -0.004576 0.091986 0.466474
v -0.000677 -0.088794 -0.615424
v -0.005147 -0.088404 0.466472
v -0.001372 -0.088404 -0.614824
v -0.001635 0.091210 -0.614598
v -0.005408 0.091210 0.466471
v -0.005794 -0.087941 0.466470
v -0.002021 -0.087941 -0.614265
v -0.002331 0.090465 -0.613999
v -0.006184 0.090377 0.466468
v -0.006386 -0.087410 0.466467
v -0.002331 -0.087665 -0.613999
v -0.002413 0.090377 -0.613919
v -0.006899 0.089491 0.466466
v -0.002616 -0.087410 -0.613723
v -0.003130 0.089491 -0.613226
v -0.006917 -0.086817 0.466466
v -0.003148 -0.086817 -0.613209
v -0.007380 -0.086171 0.466464
v -0.007549 0.088557 0.466463
v -0.003782 0.088557 -0.612596
v -0.007770 -0.085477 0.466463
v -0.003613 -0.086171 -0.612760
v -0.008131 0.087579 0.466461
v -0.008081 -0.084745 0.466462
v -0.004004 -0.085477 -0.612382
v -0.004367 0.087579 -0.612031
v -0.004317 -0.084745 -0.612080
v -0.008643 0.086562 0.466460
v -0.008311 -0.083983 0.466461
v -0.004547 -0.083983 -0.611857
v -0.004880 0.086562 -0.611535
v -0.009093 0.085484 0.466458
v -0.008714 -0.081812 0.466459
v -0.004952 -0.081812 -0.611466
v -0.005331 0.085484 -0.611099
v -0.009920 0.072120 -0.606664
v -0.013666 -0.067342 0.466442
v -0.009920 -0.067342 -0.606664
v -0.013666 0.072120 0.466442
v -0.013706 0.058477 -0.603006
v -0.017439 0.058477 0.466429
v -0.013706 -0.053699 -0.603006
v -0.017439 -0.053699 0.466429
v -0.016664 0.044632 -0.600147
v -0.020387 -0.039854 0.466419
v -0.016664 -0.039854 -0.600147
v -0.020387 0.044632 0.466419
v -0.017378 0.039919 -0.599457
v -0.022501 -0.025858 0.466411
v -0.022501 0.030636 0.466411
v -0.017378 -0.035141 -0.599457
v -0.018786 0.030636 -0.597932
v -0.023772 -0.011760 0.466407
v -0.018786 -0.025858 -0.597932
v -0.020062 0.016538 -0.596549
v -0.023772 0.016538 0.466407
v -0.020062 -0.011760 -0.596549
v -0.024196 0.002389 0.466405
v -0.020487 0.002389 -0.596088
vn -0.780093289050002 -0.62565728943257 -0.002723336012913543
vn -0.7071022366102301 -0.7071070158635925 -0.0024688250840263445
vn -0.8437526887774577 -0.536724068404145 -0.0029452634030419024
vn 0.0034903631603046778 0 -0.9999939086639523
vn -0.6256537128175251 -0.7800978553819625 -0.0021834985936818895
vn -0.6673763800387258 -0.7447169543566716 -0.0023292187809314142
vn -0.8973191779522603 -0.4413711406451432 -0.003131945830461574
vn -0.536720896678575 -0.8437577677839723 -0.0018730650695541996
vn -0.9401525609969451 -0.34073800857773867 -0.0032820056920043437
vn -0.4413682318749382 -0.897324751066894 -0.001541108149160835
vn -0.9717401056465895 -0.2360289493432363 -0.003391481959737762
vn -0.34073622616313093 -0.9401581827249313 -0.0011898047999987593
vn -0.983193005389382 -0.18253694378511004 -0.003431953814693602
vn -0.23602836091939913 -0.9717458174867176 -0.0008240380892843516
vn -0.9461235974889782 -0.32378886400692475 -0.003303001607472452
vn -0.9554027443840841 -0.2952871005178131 -0.0033353097521990984
vn -0.18253535553108438 -0.9831990832936803 -0.0006376453617841756
vn -0.971378441693502 -0.23751299765705303 -0.0033910112156134717
vn -0.9554027443840841 0.2952871005178131 -0.0033353097521990984
vn -0.9461235974889782 0.32378886400692475 -0.003303001607472452
vn -0.971378441693502 0.23751299765705303 -0.0033910112156134717
vn -0.9838639916518049 -0.17888501347988067 -0.0034348046931388194
vn -0.9838639916518049 0.17888501347988067 -0.0034348046931388194
vn -0.9887833470445435 -0.1493170500460814 -0.0034512567168289324
vn -0.9928143025083036 -0.11961501330322366 -0.003465447650783285
vn -0.9928143025083036 0.11961501330322366 -0.003465447650783285
vn -0.9887833470445435 0.1493170500460814 -0.0034512567168289324
vn -0.9981974016638185 -0.059914979433288114 -0.003484616350495878
vn -0.9981974016638185 0.059914979433288114 -0.003484616350495878
vn -0.9995446799268123 -0.029970996856791866 -0.003488864774765733
vn -0.9995446799268123 0.029970996856791866 -0.003488864774765733
vn 0.4808299383381804 -0.8768122676342717 0.0016786076813518384
vn 0.4494296670038601 -0.893314341872804 0.0015687642137951485
vn 0.541775532494573 -0.8405210867123623 0.0018908151922623587
vn 0.18253535553108438 0.9831990832936803 0.0006376453617841756
vn 0.23602836091939913 0.9717458174867176 0.0008240380892843516
vn 0.5999961478735167 -0.8000001485020413 0.002094023317142041
vn 0.34073622616313093 0.9401581827249313 0.0011898047999987593
vn 0.6551975951541942 -0.7554540882687716 0.0022873176779017314
vn 0.4413682318749382 0.897324751066894 0.001541108149160835
vn 0.536720896678575 0.8437577677839723 0.0018730650695541996
vn 0.7071022366102301 -0.7071070158635925 0.0024688250840263445
vn 0.6256537128175251 0.7800978553819625 0.0021834985936818895
vn 0.7317364291840183 -0.6815829197166935 0.0025537727952801553
vn 0.7554490451664833 -0.6552020971111134 0.0026366831905874147
vn 0.6673763800387258 0.7447169543566716 0.0023292187809314142
vn 0.7071022366102301 0.7071070158635925 0.0024688250840263445
vn 0.7999950359497864 -0.6000001195044357 0.0027926779912913254
vn 0.780093289050002 0.62565728943257 0.002723336012913543
vn 0.8405158134439245 -0.5417790684380779 0.002933999500029837
vn 0.8437526887774577 0.536724068404145 0.0029452634030419024
vn 0.8768069911139653 -0.4808327470113591 0.003061002317019303
vn 0.8973191779522603 0.4413711406451432 0.003131945830461574
vn 0.9401525609969451 0.34073800857773867 0.0032820056920043437
vn 0.9086866691133032 -0.4174667370891334 0.0031718764040568454
vn 0.9717401056465895 0.2360289493432363 0.003391481959737762
vn 0.9229213427412013 -0.3849750831632888 0.003221871536403773
vn 0.983193005389382 0.18253694378511004 0.003431953814693602
vn 0.9461235974889782 -0.32378886400692475 0.003303001607472452
vn 0.9554027443840841 -0.2952871005178131 0.0033353097521990984
vn 0.9554027443840841 0.2952871005178131 0.0033353097521990984
vn 0.9461235974889782 0.32378886400692475 0.003303001607472452
vn 0.971378441693502 -0.23751299765705303 0.0033910112156134717
vn 0.971378441693502 0.23751299765705303 0.0033910112156134717
vn 0.9838639916518049 -0.17888501347988067 0.0034348046931388194
vn 0.9838639916518049 0.17888501347988067 0.0034348046931388194
vn 0.9887833470445435 -0.1493170500460814 0.0034512567168289324
vn 0.9928143025083036 0.11961501330322366 0.003465447650783285
vn 0.9928143025083036 -0.11961501330322366 0.003465447650783285
vn 0.9887833470445435 0.1493170500460814 0.0034512567168289324
vn 0.9981974016638185 -0.059914979433288114 0.003484616350495878
vn 0.9981974016638185 0.059914979433288114 0.003484616350495878
vn 0.9995446799268123 0.029970996856791866 0.003488864774765733
vn 0.9995446799268123 -0.029970996856791866 0.003488864774765733
vn -0.0034903631603046778 0 0.9999939086639523
vn -0.4808299383381804 0.8768122676342717 -0.0016786076813518384
vn -0.4494296670038601 0.893314341872804 -0.0015687642137951485
vn -0.541775532494573 0.8405210867123623 -0.0018908151922623587
vn -0.5999961478735167 0.8000001485020413 -0.002094023317142041
vn -0.6551975951541942 0.7554540882687716 -0.0022873176779017314
vn -0.7071022366102301 0.7071070158635925 -0.0024688250840263445
vn -0.7317364291840183 0.6815829197166935 -0.0025537727952801553
vn -0.7554490451664833 0.6552020971111134 -0.0026366831905874147
vn -0.7999950359497864 0.6000001195044357 -0.0027926779912913254
vn -0.8405158134439245 0.5417790684380779 -0.002933999500029837
vn -0.8768069911139653 0.4808327470113591 -0.003061002317019303
vn -0.9086866691133032 0.4174667370891334 -0.0031718764040568454
vn -0.9229213427412013 0.3849750831632888 -0.003221871536403773
usemtl material_0_0
f 1//1 2//2 3//1
f 2//2 1//1 4//2
f 5//3 1//1 3//1
f 6//4 4//4 1//4
f 7//5 2//2 4//2
f 1//1 5//3 8//3
f 9//4 4//4 6//4
f 6//4 1//4 10//4
f 7//5 11//6 2//2
f 9//4 7//4 4//4
f 5//3 12//7 8//3
f 10//4 1//4 8//4
f 11//6 7//5 13//5
f 14//4 7//4 9//4
f 12//7 5//3 15//7
f 10//4 8//4 12//4
f 16//8 13//5 7//5
f 14//4 16//4 7//4
f 15//7 17//9 12//7
f 10//4 12//4 18//4
f 13//5 16//8 19//8
f 20//4 16//4 14//4
f 17//9 15//7 21//9
f 18//4 12//4 17//4
f 22//10 19//8 16//8
f 20//4 22//4 16//4
f 21//9 23//11 17//9
f 18//4 17//4 23//4
f 19//8 22//10 24//10
f 20//4 25//4 22//4
f 23//11 21//9 26//11
f 18//4 23//4 27//4
f 25//12 24//10 22//10
f 28//4 25//4 20//4
f 26//11 29//13 23//11
f 27//4 23//4 29//4
f 24//10 25//12 30//12
f 28//4 31//4 25//4
f 29//13 26//11 32//13
f 27//4 29//4 33//4
f 31//14 30//12 25//12
f 34//4 31//4 28//4
f 32//15 35//16 29//15
f 33//4 29//4 35//4
f 30//12 31//14 36//14
f 34//4 37//4 31//4
f 35//16 32//15 38//16
f 33//4 35//4 39//4
f 37//17 36//14 31//14
f 40//4 37//4 34//4
f 38//16 41//18 35//16
f 39//4 35//4 42//4
f 43//19 33//20 39//19
f 36//14 37//17 44//17
f 45//4 37//4 40//4
f 41//18 38//16 46//18
f 42//4 35//4 41//4
f 42//21 43//19 39//19
f 33//20 43//19 47//20
f 48//4 37//4 45//4
f 46//18 49//22 41//18
f 42//4 41//4 49//4
f 43//19 42//21 50//21
f 48//4 51//4 37//4
f 49//22 46//18 52//22
f 42//4 49//4 53//4
f 53//23 50//21 42//21
f 54//4 51//4 48//4
f 55//24 49//22 52//22
f 53//4 49//4 56//4
f 50//21 53//23 57//23
f 54//4 58//4 51//4
f 59//25 49//22 55//24
f 56//4 49//4 60//4
f 56//26 57//23 53//23
f 61//4 58//4 54//4
f 49//22 59//25 60//25
f 56//4 60//4 62//4
f 57//23 56//26 63//27
f 61//4 64//4 58//4
f 65//28 60//25 59//25
f 62//4 60//4 66//4
f 62//29 67//26 56//26
f 63//27 56//26 67//26
f 68//4 64//4 61//4
f 60//25 65//28 66//28
f 62//4 66//4 69//4
f 67//26 62//29 70//29
f 68//4 71//4 64//4
f 72//30 66//28 65//28
f 66//28 72//30 69//30
f 69//31 70//29 62//29
f 73//4 71//4 68//4
f 70//29 69//31 72//31
f 73//4 74//4 71//4
f 75//4 74//4 73//4
f 75//4 76//4 74//4
f 77//4 76//4 75//4
f 77//4 78//4 76//4
f 79//4 78//4 77//4
f 79//4 80//4 78//4
f 81//4 80//4 79//4
f 81//4 82//4 80//4
f 83//4 82//4 81//4
f 83//4 84//4 82//4
f 85//4 84//4 83//4
f 85//4 86//4 84//4
f 85//4 87//4 86//4
f 85//4 88//4 87//4
f 89//4 88//4 85//4
f 90//32 87//33 88//32
f 89//4 91//4 88//4
f 87//33 90//32 92//33
f 88//32 93//34 90//32
f 94//4 91//4 89//4
f 93//34 88//32 91//34
f 94//4 95//4 91//4
f 89//35 96//36 94//36
f 91//34 97//37 93//34
f 98//4 95//4 94//4
f 97//37 91//34 95//37
f 96//36 89//35 99//35
f 100//38 94//36 96//36
f 101//4 95//4 98//4
f 94//36 100//38 98//38
f 95//37 102//39 97//37
f 101//4 103//4 95//4
f 98//38 104//40 101//40
f 104//40 98//38 100//38
f 102//39 95//37 103//39
f 105//4 103//4 101//4
f 106//41 101//40 104//40
f 103//39 107//42 102//39
f 105//4 108//4 103//4
f 101//40 106//41 105//41
f 107//42 103//39 108//42
f 109//4 108//4 105//4
f 110//43 105//41 106//41
f 108//42 111//44 107//42
f 109//4 112//4 108//4
f 105//41 110//43 109//43
f 112//45 111//44 108//42
f 113//4 112//4 109//4
f 114//46 109//43 110//43
f 111//44 112//45 115//45
f 113//4 116//4 112//4
f 109//43 117//47 113//47
f 109//43 114//46 117//47
f 112//45 118//48 115//45
f 119//4 116//4 113//4
f 118//48 112//45 116//48
f 120//49 113//47 117//47
f 121//4 116//4 119//4
f 113//47 120//49 119//49
f 122//50 118//48 116//48
f 121//4 122//4 116//4
f 120//49 121//51 119//49
f 118//48 122//50 123//50
f 124//4 122//4 121//4
f 121//51 120//49 125//51
f 126//52 123//50 122//50
f 127//4 122//4 124//4
f 121//51 128//53 124//53
f 128//53 121//51 125//51
f 123//50 126//52 129//52
f 127//4 126//4 122//4
f 124//53 130//54 127//54
f 130//54 124//53 128//53
f 131//55 129//52 126//52
f 132//4 126//4 127//4
f 133//56 127//54 130//54
f 129//52 131//55 134//55
f 132//4 131//4 126//4
f 127//54 133//56 132//56
f 135//57 134//55 131//55
f 136//4 131//4 132//4
f 137//58 132//56 133//56
f 134//55 135//57 138//57
f 136//4 135//4 131//4
f 132//56 137//58 136//58
f 135//59 139//60 138//59
f 140//4 135//4 136//4
f 141//61 136//62 137//62
f 139//60 135//59 142//60
f 140//4 142//4 135//4
f 136//62 141//61 140//61
f 142//60 143//63 139//60
f 140//4 144//4 142//4
f 145//64 140//61 141//61
f 143//63 142//60 144//63
f 146//4 144//4 140//4
f 140//61 145//64 146//64
f 144//63 147//65 143//63
f 148//4 144//4 146//4
f 149//66 146//64 145//64
f 147//65 144//63 150//65
f 148//4 150//4 144//4
f 146//64 149//66 148//66
f 150//65 151//67 147//65
f 152//4 150//4 148//4
f 149//66 152//68 148//66
f 153//69 151//67 150//65
f 152//4 153//4 150//4
f 152//68 149//66 154//70
f 151//67 153//69 155//69
f 156//4 153//4 152//4
f 152//68 154//70 157//68
f 153//69 158//71 155//69
f 156//4 159//4 153//4
f 152//68 160//72 156//72
f 160//72 152//68 157//68
f 158//71 153//69 159//71
f 159//4 156//4 161//4
f 160//72 161//73 156//72
f 161//74 158//71 159//71
f 161//73 160//72 162//73
f 158//71 161//74 162//74
usemtl material_1_0
f 3//49 2//47 1//49
f 4//47 1//49 2//47
f 3//49 1//49 5//51
f 1//75 4//75 6//75
f 4//47 2//47 7//43
f 8//51 5//51 1//49
f 6//75 4//75 9//75
f 10//75 1//75 6//75
f 2//47 11//46 7//43
f 4//75 7//75 9//75
f 8//51 12//53 5//51
f 8//75 1//75 10//75
f 13//43 7//43 11//46
f 9//75 7//75 14//75
f 15//53 5//51 12//53
f 12//75 8//75 10//75
f 7//43 13//43 16//41
f 7//75 16//75 14//75
f 12//53 17//54 15//53
f 18//75 12//75 10//75
f 19//41 16//41 13//43
f 14//75 16//75 20//75
f 21//54 15//53 17//54
f 17//75 12//75 18//75
f 16//41 19//41 22//40
f 16//75 22//75 20//75
f 17//54 23//56 21//54
f 23//75 17//75 18//75
f 24//40 22//40 19//41
f 22//75 25//75 20//75
f 26//56 21//54 23//56
f 27//75 23//75 18//75
f 22//40 24//40 25//38
f 20//75 25//75 28//75
f 23//56 29//58 26//56
f 29//75 23//75 27//75
f 30//38 25//38 24//40
f 25//75 31//75 28//75
f 32//58 26//56 29//58
f 33//75 29//75 27//75
f 25//38 30//38 31//36
f 28//75 31//75 34//75
f 29//62 35//61 32//62
f 35//75 29//75 33//75
f 36//36 31//36 30//38
f 31//75 37//75 34//75
f 38//61 32//62 35//61
f 39//75 35//75 33//75
f 31//36 36//36 37//35
f 34//75 37//75 40//75
f 35//61 41//64 38//61
f 42//75 35//75 39//75
f 39//60 33//59 43//60
f 44//35 37//35 36//36
f 40//75 37//75 45//75
f 46//64 38//61 41//64
f 41//75 35//75 42//75
f 39//60 43//60 42//63
f 47//59 43//60 33//59
f 45//75 37//75 48//75
f 41//64 49//66 46//64
f 49//75 41//75 42//75
f 50//63 42//63 43//60
f 37//75 51//75 48//75
f 52//66 46//64 49//66
f 53//75 49//75 42//75
f 42//63 50//63 53//65
f 48//75 51//75 54//75
f 52//66 49//66 55//70
f 56//75 49//75 53//75
f 57//65 53//65 50//63
f 51//75 58//75 54//75
f 55//70 49//66 59//68
f 60//75 49//75 56//75
f 53//65 57//65 56//69
f 54//75 58//75 61//75
f 60//68 59//68 49//66
f 62//75 60//75 56//75
f 63//67 56//69 57//65
f 58//75 64//75 61//75
f 59//68 60//68 65//72
f 66//75 60//75 62//75
f 56//69 67//69 62//71
f 67//69 56//69 63//67
f 61//75 64//75 68//75
f 66//72 65//72 60//68
f 69//75 66//75 62//75
f 70//71 62//71 67//69
f 64//75 71//75 68//75
f 65//72 66//72 72//73
f 69//73 72//73 66//72
f 62//71 70//71 69//74
f 68//75 71//75 73//75
f 72//74 69//74 70//71
f 71//75 74//75 73//75
f 73//75 74//75 75//75
f 74//75 76//75 75//75
f 75//75 76//75 77//75
f 76//75 78//75 77//75
f 77//75 78//75 79//75
f 78//75 80//75 79//75
f 79//75 80//75 81//75
f 80//75 82//75 81//75
f 81//75 82//75 83//75
f 82//75 84//75 83//75
f 83//75 84//75 85//75
f 84//75 86//75 85//75
f 86//75 87//75 85//75
f 87//75 88//75 85//75
f 85//75 88//75 89//75
f 88//76 87//77 90//76
f 88//75 91//75 89//75
f 92//77 90//76 87//77
f 90//76 93//78 88//76
f 89//75 91//75 94//75
f 91//78 88//76 93//78
f 91//75 95//75 94//75
f 94//14 96//14 89//17
f 93//78 97//79 91//78
f 94//75 95//75 98//75
f 95//79 91//78 97//79
f 99//17 89//17 96//14
f 96//14 94//14 100//12
f 98//75 95//75 101//75
f 98//12 100//12 94//14
f 97//79 102//80 95//79
f 95//75 103//75 101//75
f 101//10 104//10 98//12
f 100//12 98//12 104//10
f 103//80 95//79 102//80
f 101//75 103//75 105//75
f 104//10 101//10 106//8
f 102//80 107//81 103//80
f 103//75 108//75 105//75
f 105//8 106//8 101//10
f 108//81 103//80 107//81
f 105//75 108//75 109//75
f 106//8 105//8 110//5
f 107//81 111//82 108//81
f 108//75 112//75 109//75
f 109//5 110//5 105//8
f 108//81 111//82 112//83
f 109//75 112//75 113//75
f 110//5 109//5 114//6
f 115//83 112//83 111//82
f 112//75 116//75 113//75
f 113//2 117//2 109//5
f 117//2 114//6 109//5
f 115//83 118//84 112//83
f 113//75 116//75 119//75
f 116//84 112//83 118//84
f 117//2 113//2 120//1
f 119//75 116//75 121//75
f 119//1 120//1 113//2
f 116//84 118//84 122//85
f 116//75 122//75 121//75
f 119//1 121//3 120//1
f 123//85 122//85 118//84
f 121//75 122//75 124//75
f 125//3 120//1 121//3
f 122//85 123//85 126//86
f 124//75 122//75 127//75
f 124//7 128//7 121//3
f 125//3 121//3 128//7
f 129//86 126//86 123//85
f 122//75 126//75 127//75
f 127//9 130//9 124//7
f 128//7 124//7 130//9
f 126//86 129//86 131//87
f 127//75 126//75 132//75
f 130//9 127//9 133//11
f 134//87 131//87 129//86
f 126//75 131//75 132//75
f 132//11 133//11 127//9
f 131//87 134//87 135//88
f 132//75 131//75 136//75
f 133//11 132//11 137//13
f 138//88 135//88 134//87
f 131//75 135//75 136//75
f 136//13 137//13 132//11
f 138//20 139//19 135//20
f 136//75 135//75 140//75
f 137//15 136//15 141//16
f 142//19 135//20 139//19
f 135//75 142//75 140//75
f 140//16 141//16 136//15
f 139//19 143//21 142//19
f 142//75 144//75 140//75
f 141//16 140//16 145//18
f 144//21 142//19 143//21
f 140//75 144//75 146//75
f 146//18 145//18 140//16
f 143//21 147//23 144//21
f 146//75 144//75 148//75
f 145//18 146//18 149//22
f 150//23 144//21 147//23
f 144//75 150//75 148//75
f 148//22 149//22 146//18
f 147//23 151//27 150//23
f 148//75 150//75 152//75
f 148//22 152//25 149//22
f 150//23 151//27 153//26
f 150//75 153//75 152//75
f 154//24 149//22 152//25
f 155//26 153//26 151//27
f 152//75 153//75 156//75
f 157//25 154//24 152//25
f 155//26 158//29 153//26
f 153//75 159//75 156//75
f 156//28 160//28 152//25
f 157//25 152//25 160//28
f 159//29 153//26 158//29
f 161//75 156//75 159//75
f 156//28 161//30 160//28
f 159//29 158//29 161//31
f 162//30 160//28 161//30
f 162//31 161//31 158//29
