# SSTK version 0.8.0
# 16
mtllib original-16.mtl
o mesh27/mesh27-geometry#mesh27-geometry
v 0.027799 -0.104196 0.536195
v 0.036855 0.110049 0.536227
v 0.027799 0.108974 0.536195
v 0.036855 -0.105271 0.536227
v 0.077644 -0.109225 0.536369
v 0.077644 0.114003 0.536369
v 0.118509 -0.112302 0.536512
v 0.118509 0.117080 0.536512
v 0.159431 -0.114502 0.536655
v 0.159431 0.119279 0.536655
v 0.200390 -0.115821 0.536798
v 0.200390 0.120599 0.536798
v 0.241369 -0.116262 0.536941
v 0.241369 0.121039 0.536941
v 0.282347 -0.115821 0.537084
v 0.282347 0.120599 0.537084
v 0.323307 -0.114502 0.537227
v 0.323307 0.119279 0.537227
v 0.364228 -0.112302 0.537370
v 0.364228 0.117080 0.537370
v 0.405093 -0.109225 0.537512
v 0.405093 0.114003 0.537512
v 0.445883 -0.105271 0.537655
v 0.445883 0.110049 0.537655
v 0.454938 -0.104196 0.537686
v 0.454938 0.108974 0.537686
vn -0.0034903631603046778 0 0.9999939086639523
vn 0.0034903631603046778 0 -0.9999939086639523
usemtl material_0_0
f 1//1 2//1 3//1
f 2//1 1//1 4//1
f 2//1 4//1 5//1
f 2//1 5//1 6//1
f 6//1 5//1 7//1
f 6//1 7//1 8//1
f 8//1 7//1 9//1
f 8//1 9//1 10//1
f 10//1 9//1 11//1
f 10//1 11//1 12//1
f 12//1 11//1 13//1
f 12//1 13//1 14//1
f 14//1 13//1 15//1
f 14//1 15//1 16//1
f 16//1 15//1 17//1
f 16//1 17//1 18//1
f 18//1 17//1 19//1
f 18//1 19//1 20//1
f 20//1 19//1 21//1
f 20//1 21//1 22//1
f 22//1 21//1 23//1
f 22//1 23//1 24//1
f 24//1 23//1 25//1
f 24//1 25//1 26//1
usemtl material_1_0
f 3//2 2//2 1//2
f 4//2 1//2 2//2
f 5//2 4//2 2//2
f 6//2 5//2 2//2
f 7//2 5//2 6//2
f 8//2 7//2 6//2
f 9//2 7//2 8//2
f 10//2 9//2 8//2
f 11//2 9//2 10//2
f 12//2 11//2 10//2
f 13//2 11//2 12//2
f 14//2 13//2 12//2
f 15//2 13//2 14//2
f 16//2 15//2 14//2
f 17//2 15//2 16//2
f 18//2 17//2 16//2
f 19//2 17//2 18//2
f 20//2 19//2 18//2
f 21//2 19//2 20//2
f 22//2 21//2 20//2
f 23//2 21//2 22//2
f 24//2 23//2 22//2
f 25//2 23//2 24//2
f 26//2 25//2 24//2
