# SSTK version 0.8.0
# 15
mtllib original-15.mtl
o mesh26/mesh26-geometry#mesh26-geometry
v 0.522128 0.002389 -0.582146
v 0.517995 -0.012421 0.474683
v 0.521685 -0.012421 -0.582632
v 0.518439 0.002389 0.474628
v 0.516663 -0.027179 0.474850
v 0.521685 0.017199 -0.582632
v 0.520360 -0.027179 -0.584088
v 0.517995 0.017199 0.474683
v 0.515239 -0.036610 0.475029
v 0.520360 0.031956 -0.584088
v 0.514450 -0.041830 0.475165
v 0.516663 0.031956 0.474850
v 0.518156 -0.041830 -0.586510
v 0.518156 0.046607 -0.586510
v 0.512060 -0.053046 0.475576
v 0.515239 0.041387 0.475029
v 0.515081 -0.056322 -0.589889
v 0.514450 0.046607 0.475165
v 0.511362 -0.056322 0.475728
v 0.512060 0.057824 0.475576
v 0.508909 -0.065185 0.476265
v 0.515081 0.061099 -0.589889
v 0.507409 -0.070603 0.476666
v 0.511362 0.061099 0.475728
v 0.511147 -0.070603 -0.594212
v 0.511147 0.075380 -0.594212
v 0.505792 -0.075322 0.477097
v 0.508909 0.069962 0.476265
v 0.508043 -0.079708 -0.597623
v 0.507409 0.075380 0.476666
v 0.502717 -0.084299 0.478069
v 0.508043 0.084486 -0.597623
v 0.502607 -0.084621 0.478110
v 0.505792 0.080100 0.477097
v 0.506367 -0.084621 -0.599265
v 0.502717 0.089077 0.478069
v 0.506367 0.089399 -0.599265
v 0.502607 0.089399 0.478110
vn 0.9995446799268123 -0.029970996856791866 0.003488864774765733
vn 0.9981974016638185 -0.059914979433288114 0.003484616350495878
vn 0.9928143025083036 -0.11961501330322366 0.003465447650783285
vn 0.9981974016638185 0.059914979433288114 0.003484616350495878
vn 0.9995446799268123 0.029970996856791866 0.003488864774765733
vn 0.9887833470445435 -0.1493170500460814 0.0034512567168289324
vn 0.9928143025083036 0.11961501330322366 0.003465447650783285
vn 0.9838639916518049 -0.17888501347988067 0.0034348046931388194
vn 0.9838639916518049 0.17888501347988067 0.0034348046931388194
vn 0.97806051531235 -0.20829299538610188 0.0034141558291088505
vn 0.9887833470445435 0.1493170500460814 0.0034512567168289324
vn 0.971378441693502 -0.23751299765705303 0.0033910112156134717
vn 0.97806051531235 0.20829299538610188 0.0034141558291088505
vn 0.9638235153587111 -0.26652000917415186 0.0033639190517132135
vn 0.971378441693502 0.23751299765705303 0.0033910112156134717
vn 0.9554027443840841 -0.2952871005178131 0.0033353097521990984
vn 0.9554027443840841 0.2952871005178131 0.0033353097521990984
vn 0.9461235974889782 -0.32378886400692475 0.003303001607472452
vn 0.9638235153587111 0.26652000917415186 0.0033639190517132135
vn 0.9461235974889782 0.32378886400692475 0.003303001607472452
vn -0.9981974016638185 0.059914979433288114 -0.003484616350495878
vn -0.9995446799268123 0.029970996856791866 -0.003488864774765733
vn -0.9928143025083036 0.11961501330322366 -0.003465447650783285
vn -0.9995446799268123 -0.029970996856791866 -0.003488864774765733
vn -0.9981974016638185 -0.059914979433288114 -0.003484616350495878
vn -0.9887833470445435 0.1493170500460814 -0.0034512567168289324
vn -0.9928143025083036 -0.11961501330322366 -0.003465447650783285
vn -0.9838639916518049 0.17888501347988067 -0.0034348046931388194
vn -0.9838639916518049 -0.17888501347988067 -0.0034348046931388194
vn -0.97806051531235 0.20829299538610188 -0.0034141558291088505
vn -0.9887833470445435 -0.1493170500460814 -0.0034512567168289324
vn -0.971378441693502 0.23751299765705303 -0.0033910112156134717
vn -0.97806051531235 -0.20829299538610188 -0.0034141558291088505
vn -0.9638235153587111 0.26652000917415186 -0.0033639190517132135
vn -0.971378441693502 -0.23751299765705303 -0.0033910112156134717
vn -0.9554027443840841 0.2952871005178131 -0.0033353097521990984
vn -0.9554027443840841 -0.2952871005178131 -0.0033353097521990984
vn -0.9461235974889782 0.32378886400692475 -0.003303001607472452
vn -0.9638235153587111 -0.26652000917415186 -0.0033639190517132135
vn -0.9461235974889782 -0.32378886400692475 -0.003303001607472452
usemtl material_0_0
f 1//1 2//2 3//2
f 2//2 1//1 4//1
f 5//3 3//2 2//2
f 6//4 4//5 1//5
f 3//2 5//3 7//3
f 4//5 6//4 8//4
f 9//6 7//3 5//3
f 10//7 8//4 6//4
f 11//8 7//3 9//6
f 8//4 10//7 12//7
f 7//3 11//8 13//8
f 14//9 12//7 10//7
f 15//10 13//8 11//8
f 12//7 14//9 16//11
f 15//10 17//12 13//8
f 16//11 14//9 18//9
f 17//12 15//10 19//12
f 14//9 20//13 18//9
f 21//14 17//12 19//12
f 20//13 14//9 22//15
f 23//16 17//12 21//14
f 20//13 22//15 24//15
f 17//12 23//16 25//16
f 26//17 24//15 22//15
f 27//18 25//16 23//16
f 24//15 26//17 28//19
f 27//18 29//18 25//16
f 28//19 26//17 30//17
f 31//18 29//18 27//18
f 32//20 30//17 26//17
f 33//18 29//18 31//18
f 30//17 32//20 34//20
f 29//18 33//18 35//18
f 34//20 32//20 36//20
f 36//20 32//20 37//20
f 36//20 37//20 38//20
usemtl material_1_0
f 3//21 2//21 1//22
f 4//22 1//22 2//21
f 2//21 3//21 5//23
f 1//24 4//24 6//25
f 7//23 5//23 3//21
f 8//25 6//25 4//24
f 5//23 7//23 9//26
f 6//25 8//25 10//27
f 9//26 7//23 11//28
f 12//27 10//27 8//25
f 13//28 11//28 7//23
f 10//27 12//27 14//29
f 11//28 13//28 15//30
f 16//31 14//29 12//27
f 13//28 17//32 15//30
f 18//29 14//29 16//31
f 19//32 15//30 17//32
f 18//29 20//33 14//29
f 19//32 17//32 21//34
f 22//35 14//29 20//33
f 21//34 17//32 23//36
f 24//35 22//35 20//33
f 25//36 23//36 17//32
f 22//35 24//35 26//37
f 23//36 25//36 27//38
f 28//39 26//37 24//35
f 25//36 29//38 27//38
f 30//37 26//37 28//39
f 27//38 29//38 31//38
f 26//37 30//37 32//40
f 31//38 29//38 33//38
f 34//40 32//40 30//37
f 35//38 33//38 29//38
f 36//40 32//40 34//40
f 37//40 32//40 36//40
f 38//40 37//40 36//40
