# SSTK version 0.8.0
# 1
mtllib original-1.mtl
o cylinder/ID4#ID4
v -0.262032 0.021692 0.011129
v -0.343284 0.021692 -0.031544
v -0.270520 0.021692 0.027291
v -0.329257 0.021692 -0.043227
v -0.260375 0.021692 -0.007051
v -0.311827 0.021692 -0.048654
v -0.265801 0.021692 -0.024482
v -0.293647 0.021692 -0.046997
v -0.277485 0.021692 -0.038508
v -0.277485 0.021692 -0.038508
v -0.265801 0.021692 -0.024482
v -0.293647 0.021692 -0.046997
v -0.311827 0.021692 -0.048654
v -0.260375 0.021692 -0.007051
v -0.329257 0.021692 -0.043227
v -0.262032 0.021692 0.011129
v -0.343284 0.021692 -0.031544
v -0.270520 0.021692 0.027291
v -0.329257 -0.025095 -0.043227
v -0.343284 0.021692 -0.031544
v -0.329257 0.021692 -0.043227
v -0.343284 -0.025095 -0.031544
v -0.343284 -0.025095 -0.031544
v -0.329257 -0.025095 -0.043227
v -0.343284 0.021692 -0.031544
v -0.329257 0.021692 -0.043227
v -0.320157 0.021692 0.042743
v -0.348003 0.021692 0.020228
v -0.336319 0.021692 0.034255
v -0.301977 0.021692 0.044400
v -0.353429 0.021692 0.002798
v -0.284547 0.021692 0.038974
v -0.351772 0.021692 -0.015382
v -0.351772 0.021692 -0.015382
v -0.284547 0.021692 0.038974
v -0.353429 0.021692 0.002798
v -0.301977 0.021692 0.044400
v -0.348003 0.021692 0.020228
v -0.320157 0.021692 0.042743
v -0.336319 0.021692 0.034255
v -0.270520 -0.025095 0.027291
v -0.262032 0.021692 0.011129
v -0.270520 0.021692 0.027291
v -0.262032 -0.025095 0.011129
v -0.262032 -0.025095 0.011129
v -0.270520 -0.025095 0.027291
v -0.262032 0.021692 0.011129
v -0.270520 0.021692 0.027291
v -0.260375 0.021692 -0.007051
v -0.260375 -0.025095 -0.007051
v -0.260375 -0.025095 -0.007051
v -0.260375 0.021692 -0.007051
v -0.265801 -0.025095 -0.024482
v -0.265801 0.021692 -0.024482
v -0.265801 -0.025095 -0.024482
v -0.265801 0.021692 -0.024482
v -0.277485 -0.025095 -0.038508
v -0.277485 0.021692 -0.038508
v -0.277485 -0.025095 -0.038508
v -0.277485 0.021692 -0.038508
v -0.293647 -0.025095 -0.046997
v -0.293647 0.021692 -0.046997
v -0.293647 -0.025095 -0.046997
v -0.293647 0.021692 -0.046997
v -0.311827 -0.025095 -0.048654
v -0.311827 0.021692 -0.048654
v -0.311827 -0.025095 -0.048654
v -0.311827 0.021692 -0.048654
v -0.351772 0.021692 -0.015382
v -0.351772 -0.025095 -0.015382
v -0.351772 -0.025095 -0.015382
v -0.351772 0.021692 -0.015382
v -0.348003 -0.025095 0.020228
v -0.320157 -0.025095 0.042743
v -0.336319 -0.025095 0.034255
v -0.353429 -0.025095 0.002798
v -0.301977 -0.025095 0.044400
v -0.351772 -0.025095 -0.015382
v -0.284547 -0.025095 0.038974
v -0.343284 -0.025095 -0.031544
v -0.270520 -0.025095 0.027291
v -0.329257 -0.025095 -0.043227
v -0.262032 -0.025095 0.011129
v -0.311827 -0.025095 -0.048654
v -0.260375 -0.025095 -0.007051
v -0.293647 -0.025095 -0.046997
v -0.265801 -0.025095 -0.024482
v -0.277485 -0.025095 -0.038508
v -0.277485 -0.025095 -0.038508
v -0.293647 -0.025095 -0.046997
v -0.265801 -0.025095 -0.024482
v -0.260375 -0.025095 -0.007051
v -0.311827 -0.025095 -0.048654
v -0.262032 -0.025095 0.011129
v -0.329257 -0.025095 -0.043227
v -0.270520 -0.025095 0.027291
v -0.343284 -0.025095 -0.031544
v -0.284547 -0.025095 0.038974
v -0.351772 -0.025095 -0.015382
v -0.301977 -0.025095 0.044400
v -0.353429 -0.025095 0.002798
v -0.320157 -0.025095 0.042743
v -0.348003 -0.025095 0.020228
v -0.336319 -0.025095 0.034255
v -0.284547 -0.025095 0.038974
v -0.284547 0.021692 0.038974
v -0.284547 -0.025095 0.038974
v -0.284547 0.021692 0.038974
v -0.353429 0.021692 0.002798
v -0.353429 -0.025095 0.002798
v -0.353429 -0.025095 0.002798
v -0.353429 0.021692 0.002798
v -0.348003 -0.025095 0.020228
v -0.348003 0.021692 0.020228
v -0.348003 0.021692 0.020228
v -0.348003 -0.025095 0.020228
v -0.336319 -0.025095 0.034255
v -0.336319 0.021692 0.034255
v -0.336319 0.021692 0.034255
v -0.336319 -0.025095 0.034255
v -0.320157 -0.025095 0.042743
v -0.320157 0.021692 0.042743
v -0.320157 0.021692 0.042743
v -0.320157 -0.025095 0.042743
v -0.301977 -0.025095 0.044400
v -0.301977 0.021692 0.044400
v -0.301977 0.021692 0.044400
v -0.301977 -0.025095 0.044400
vn 0 1 0
vn 0 -1 0
vn -0.4778040716380416 0 -0.8784664302784196
vn -0.7776079401154851 0 -0.6287494663769919
vn 0.7776079401154851 0 0.6287494663769919
vn 0.4778040716380416 0 0.8784664302784196
vn 0.777607940115485 0 0.6287494663769921
vn 0.9590280591352374 0 0.2833111042499031
vn -0.9590280591352374 0 -0.2833111042499031
vn -0.777607940115485 0 -0.6287494663769921
vn 0.9944448589027566 0 -0.10525883621756761
vn -0.9944448589027566 0 0.10525883621756761
vn 0.8784664302784199 0 -0.47780407163804106
vn -0.8784664302784199 0 0.47780407163804106
vn 0.628749466376992 0 -0.7776079401154851
vn -0.628749466376992 0 0.7776079401154851
vn 0.2833111042499028 0 -0.9590280591352376
vn -0.2833111042499028 0 0.9590280591352376
vn -0.10525883621756817 0 -0.9944448589027565
vn 0.10525883621756817 0 0.9944448589027565
vn -0.6287494663769919 0 0.7776079401154851
vn 0.6287494663769919 0 -0.7776079401154851
usemtl material_0_0
f 1//1 2//1 3//1
f 2//1 1//1 4//1
f 4//1 1//1 5//1
f 4//1 5//1 6//1
f 6//1 5//1 7//1
f 6//1 7//1 8//1
f 8//1 7//1 9//1
f 10//2 11//2 12//2
f 12//2 11//2 13//2
f 11//2 14//2 13//2
f 13//2 14//2 15//2
f 14//2 16//2 15//2
f 15//2 16//2 17//2
f 18//2 17//2 16//2
f 19//3 20//4 21//3
f 20//4 19//3 22//4
f 23//5 24//6 25//5
f 26//6 25//5 24//6
f 27//1 28//1 29//1
f 28//1 27//1 30//1
f 28//1 30//1 31//1
f 31//1 30//1 32//1
f 31//1 32//1 33//1
f 33//1 32//1 3//1
f 33//1 3//1 2//1
f 17//2 18//2 34//2
f 18//2 35//2 34//2
f 34//2 35//2 36//2
f 35//2 37//2 36//2
f 36//2 37//2 38//2
f 37//2 39//2 38//2
f 40//2 38//2 39//2
f 41//7 42//8 43//7
f 42//8 41//7 44//8
f 45//9 46//10 47//9
f 48//10 47//9 46//10
f 44//8 49//11 42//8
f 49//11 44//8 50//11
f 51//12 45//9 52//12
f 47//9 52//12 45//9
f 49//11 53//13 54//13
f 53//13 49//11 50//11
f 51//12 52//12 55//14
f 56//14 55//14 52//12
f 54//13 57//15 58//15
f 57//15 54//13 53//13
f 55//14 56//14 59//16
f 60//16 59//16 56//14
f 58//15 61//17 62//17
f 61//17 58//15 57//15
f 59//16 60//16 63//18
f 64//18 63//18 60//16
f 62//17 65//19 66//19
f 65//19 62//17 61//17
f 63//18 64//18 67//20
f 68//20 67//20 64//18
f 65//19 21//3 66//19
f 21//3 65//19 19//3
f 24//6 67//20 26//6
f 68//20 26//6 67//20
f 22//4 69//9 20//4
f 69//9 22//4 70//9
f 71//8 23//5 72//8
f 25//5 72//8 23//5
f 73//2 74//2 75//2
f 74//2 73//2 76//2
f 74//2 76//2 77//2
f 77//2 76//2 78//2
f 77//2 78//2 79//2
f 79//2 78//2 80//2
f 79//2 80//2 81//2
f 81//2 80//2 82//2
f 81//2 82//2 83//2
f 83//2 82//2 84//2
f 83//2 84//2 85//2
f 85//2 84//2 86//2
f 85//2 86//2 87//2
f 87//2 86//2 88//2
f 89//1 90//1 91//1
f 91//1 90//1 92//1
f 90//1 93//1 92//1
f 92//1 93//1 94//1
f 93//1 95//1 94//1
f 94//1 95//1 96//1
f 95//1 97//1 96//1
f 96//1 97//1 98//1
f 97//1 99//1 98//1
f 98//1 99//1 100//1
f 99//1 101//1 100//1
f 100//1 101//1 102//1
f 101//1 103//1 102//1
f 104//1 102//1 103//1
f 105//6 43//7 106//6
f 43//7 105//6 41//7
f 46//10 107//3 48//10
f 108//3 48//10 107//3
f 70//9 109//12 69//9
f 109//12 70//9 110//12
f 111//11 71//8 112//11
f 72//8 112//11 71//8
f 113//14 109//12 110//12
f 109//12 113//14 114//14
f 115//13 116//13 112//11
f 111//11 112//11 116//13
f 117//21 114//14 113//14
f 114//14 117//21 118//21
f 119//22 120//22 115//13
f 116//13 115//13 120//22
f 121//18 118//21 117//21
f 118//21 121//18 122//18
f 123//17 124//17 119//22
f 120//22 119//22 124//17
f 125//20 122//18 121//18
f 122//18 125//20 126//20
f 127//19 128//19 123//17
f 124//17 123//17 128//19
f 125//20 106//6 126//20
f 106//6 125//20 105//6
f 107//3 128//19 108//3
f 127//19 108//3 128//19
