# SSTK version 0.8.0
# 8
mtllib original-8.mtl
o 3dw.eb6176d02ba79f0640010f30b5cd77ee/Model/mesh1/mesh1-geometry/material_0/component_7#mesh1-geometry
v 0.528604 0.049691 0.176442
v 0.528604 0.028609 0.188224
v 0.528604 0.050686 0.185904
v 0.528604 0.050686 0.185904
v 0.528604 0.028609 0.188224
v 0.528604 0.049691 0.176442
v 0.528604 0.028609 0.188224
v 0.528604 0.049691 0.176442
v 0.528604 0.027614 0.178763
v 0.528604 0.027614 0.178763
v 0.528604 0.049691 0.176442
v 0.528604 0.028609 0.188224
vt 0.0033829999156296253 6.134584903717041
vt 0.12359300255775452 6.1005659103393555
vt 0.034352999180555344 6.172831058502197
vt 0.09262199699878693 6.062321186065674
vn -1 0 0
vn 1 0 0
usemtl material_0_0
f 1/1/1 2/2/1 3/3/1
f 4/3/2 5/2/2 6/1/2
f 7/2/1 8/1/1 9/4/1
f 10/4/2 11/1/2 12/2/2
