# SSTK version 0.8.0
# 14
mtllib original-14.mtl
o 3dw.eb6176d02ba79f0640010f30b5cd77ee/Model/mesh1/mesh1-geometry/material_2/component_1#mesh1-geometry
v 0.092870 0.012358 0.189932
v 0.478090 0.021514 0.188970
v 0.093139 0.019879 0.189142
v 0.093139 0.019879 0.189142
v 0.478090 0.021514 0.188970
v 0.092870 0.012358 0.189932
v 0.095302 -0.003121 0.191559
v 0.477307 0.007082 0.190487
v 0.092870 0.012358 0.189932
v 0.092870 0.012358 0.189932
v 0.477307 0.007082 0.190487
v 0.095302 -0.003121 0.191559
v 0.093139 0.019879 0.189142
v 0.478090 0.021514 0.188970
v 0.093969 0.027938 0.188295
v 0.093969 0.027938 0.188295
v 0.478090 0.021514 0.188970
v 0.093139 0.019879 0.189142
v 0.093969 0.027938 0.188295
v 0.478090 0.054964 0.185454
v 0.095336 0.035924 0.187456
v 0.095336 0.035924 0.187456
v 0.478090 0.054964 0.185454
v 0.093969 0.027938 0.188295
v 0.092870 0.012358 0.189932
v 0.477307 0.007082 0.190487
v 0.478090 0.021514 0.188970
v 0.478090 0.021514 0.188970
v 0.477307 0.007082 0.190487
v 0.092870 0.012358 0.189932
v 0.095302 -0.003121 0.191559
v 0.475005 -0.006937 0.191960
v 0.477307 0.007082 0.190487
v 0.477307 0.007082 0.190487
v 0.475005 -0.006937 0.191960
v 0.095302 -0.003121 0.191559
v 0.093969 0.027938 0.188295
v 0.478090 0.021514 0.188970
v 0.478090 0.054964 0.185454
v 0.478090 0.054964 0.185454
v 0.478090 0.021514 0.188970
v 0.093969 0.027938 0.188295
v 0.099713 -0.018487 0.193174
v 0.475005 -0.006937 0.191960
v 0.095302 -0.003121 0.191559
v 0.095302 -0.003121 0.191559
v 0.475005 -0.006937 0.191960
v 0.099713 -0.018487 0.193174
v 0.095336 0.035924 0.187456
v 0.478090 0.054964 0.185454
v 0.097235 0.043801 0.186628
v 0.097235 0.043801 0.186628
v 0.478090 0.054964 0.185454
v 0.095336 0.035924 0.187456
v 0.099713 -0.018487 0.193174
v 0.471199 -0.020627 0.193399
v 0.475005 -0.006937 0.191960
v 0.475005 -0.006937 0.191960
v 0.471199 -0.020627 0.193399
v 0.099713 -0.018487 0.193174
v 0.097235 0.043801 0.186628
v 0.478090 0.054964 0.185454
v 0.099656 0.051537 0.185815
v 0.099656 0.051537 0.185815
v 0.478090 0.054964 0.185454
v 0.097235 0.043801 0.186628
v 0.105989 -0.033198 0.194721
v 0.471199 -0.020627 0.193399
v 0.099713 -0.018487 0.193174
v 0.099713 -0.018487 0.193174
v 0.471199 -0.020627 0.193399
v 0.105989 -0.033198 0.194721
v 0.099656 0.051537 0.185815
v 0.478090 0.054964 0.185454
v 0.102589 0.059094 0.185020
v 0.102589 0.059094 0.185020
v 0.478090 0.054964 0.185454
v 0.099656 0.051537 0.185815
v 0.105989 -0.033198 0.194721
v 0.465932 -0.033830 0.194787
v 0.471199 -0.020627 0.193399
v 0.471199 -0.020627 0.193399
v 0.465932 -0.033830 0.194787
v 0.105989 -0.033198 0.194721
v 0.102589 0.059094 0.185020
v 0.478090 0.054964 0.185454
v 0.477845 0.060484 0.184874
v 0.477845 0.060484 0.184874
v 0.478090 0.054964 0.185454
v 0.102589 0.059094 0.185020
v 0.114033 -0.047032 0.196174
v 0.459266 -0.046393 0.196107
v 0.105989 -0.033198 0.194721
v 0.105989 -0.033198 0.194721
v 0.459266 -0.046393 0.196107
v 0.114033 -0.047032 0.196174
v 0.105989 -0.033198 0.194721
v 0.459266 -0.046393 0.196107
v 0.465932 -0.033830 0.194787
v 0.465932 -0.033830 0.194787
v 0.459266 -0.046393 0.196107
v 0.105989 -0.033198 0.194721
v 0.102589 0.059094 0.185020
v 0.477845 0.060484 0.184874
v 0.106021 0.066441 0.184248
v 0.106021 0.066441 0.184248
v 0.477845 0.060484 0.184874
v 0.102589 0.059094 0.185020
v 0.114033 -0.047032 0.196174
v 0.451278 -0.058168 0.197345
v 0.459266 -0.046393 0.196107
v 0.459266 -0.046393 0.196107
v 0.451278 -0.058168 0.197345
v 0.114033 -0.047032 0.196174
v 0.106021 0.066441 0.184248
v 0.477845 0.060484 0.184874
v 0.477183 0.065810 0.184314
v 0.477183 0.065810 0.184314
v 0.477845 0.060484 0.184874
v 0.106021 0.066441 0.184248
v 0.123725 -0.059777 0.197514
v 0.451278 -0.058168 0.197345
v 0.114033 -0.047032 0.196174
v 0.114033 -0.047032 0.196174
v 0.451278 -0.058168 0.197345
v 0.123725 -0.059777 0.197514
v 0.106021 0.066441 0.184248
v 0.477183 0.065810 0.184314
v 0.476102 0.071068 0.183762
v 0.476102 0.071068 0.183762
v 0.477183 0.065810 0.184314
v 0.106021 0.066441 0.184248
v 0.123725 -0.059777 0.197514
v 0.442062 -0.069019 0.198486
v 0.451278 -0.058168 0.197345
v 0.451278 -0.058168 0.197345
v 0.442062 -0.069019 0.198486
v 0.123725 -0.059777 0.197514
v 0.106021 0.066441 0.184248
v 0.476102 0.071068 0.183762
v 0.109937 0.073544 0.183501
v 0.109937 0.073544 0.183501
v 0.476102 0.071068 0.183762
v 0.106021 0.066441 0.184248
v 0.134917 -0.071244 0.198719
v 0.442062 -0.069019 0.198486
v 0.123725 -0.059777 0.197514
v 0.123725 -0.059777 0.197514
v 0.442062 -0.069019 0.198486
v 0.134917 -0.071244 0.198719
v 0.109937 0.073544 0.183501
v 0.476102 0.071068 0.183762
v 0.474610 0.076225 0.183220
v 0.474610 0.076225 0.183220
v 0.476102 0.071068 0.183762
v 0.109937 0.073544 0.183501
v 0.134917 -0.071244 0.198719
v 0.431724 -0.078820 0.199515
v 0.442062 -0.069019 0.198486
v 0.442062 -0.069019 0.198486
v 0.431724 -0.078820 0.199515
v 0.134917 -0.071244 0.198719
v 0.109937 0.073544 0.183501
v 0.474610 0.076225 0.183220
v 0.114319 0.080373 0.182784
v 0.114319 0.080373 0.182784
v 0.474610 0.076225 0.183220
v 0.109937 0.073544 0.183501
v 0.147441 -0.081256 0.199772
v 0.431724 -0.078820 0.199515
v 0.134917 -0.071244 0.198719
v 0.134917 -0.071244 0.198719
v 0.431724 -0.078820 0.199515
v 0.147441 -0.081256 0.199772
v 0.114319 0.080373 0.182784
v 0.474610 0.076225 0.183220
v 0.472715 0.081249 0.182691
v 0.472715 0.081249 0.182691
v 0.474610 0.076225 0.183220
v 0.114319 0.080373 0.182784
v 0.147441 -0.081256 0.199772
v 0.420385 -0.087456 0.200423
v 0.431724 -0.078820 0.199515
v 0.431724 -0.078820 0.199515
v 0.420385 -0.087456 0.200423
v 0.147441 -0.081256 0.199772
v 0.114319 0.080373 0.182784
v 0.472715 0.081249 0.182691
v 0.119148 0.086897 0.182098
v 0.119148 0.086897 0.182098
v 0.472715 0.081249 0.182691
v 0.114319 0.080373 0.182784
v 0.161105 -0.089663 0.200655
v 0.420385 -0.087456 0.200423
v 0.147441 -0.081256 0.199772
v 0.147441 -0.081256 0.199772
v 0.420385 -0.087456 0.200423
v 0.161105 -0.089663 0.200655
v 0.119148 0.086897 0.182098
v 0.472715 0.081249 0.182691
v 0.470428 0.086110 0.182181
v 0.470428 0.086110 0.182181
v 0.472715 0.081249 0.182691
v 0.119148 0.086897 0.182098
v 0.161105 -0.089663 0.200655
v 0.408177 -0.094828 0.201198
v 0.420385 -0.087456 0.200423
v 0.420385 -0.087456 0.200423
v 0.408177 -0.094828 0.201198
v 0.161105 -0.089663 0.200655
v 0.119148 0.086897 0.182098
v 0.470428 0.086110 0.182181
v 0.467765 0.090777 0.181690
v 0.467765 0.090777 0.181690
v 0.470428 0.086110 0.182181
v 0.119148 0.086897 0.182098
v 0.175705 -0.096338 0.201357
v 0.408177 -0.094828 0.201198
v 0.161105 -0.089663 0.200655
v 0.161105 -0.089663 0.200655
v 0.408177 -0.094828 0.201198
v 0.175705 -0.096338 0.201357
v 0.119148 0.086897 0.182098
v 0.467765 0.090777 0.181690
v 0.122827 0.091230 0.181643
v 0.122827 0.091230 0.181643
v 0.467765 0.090777 0.181690
v 0.119148 0.086897 0.182098
v 0.175705 -0.096338 0.201357
v 0.395241 -0.100849 0.201831
v 0.408177 -0.094828 0.201198
v 0.408177 -0.094828 0.201198
v 0.395241 -0.100849 0.201831
v 0.175705 -0.096338 0.201357
v 0.122827 0.091230 0.181643
v 0.467765 0.090777 0.181690
v 0.464741 0.095222 0.181223
v 0.464741 0.095222 0.181223
v 0.467765 0.090777 0.181690
v 0.122827 0.091230 0.181643
v 0.191018 -0.101179 0.201866
v 0.395241 -0.100849 0.201831
v 0.175705 -0.096338 0.201357
v 0.175705 -0.096338 0.201357
v 0.395241 -0.100849 0.201831
v 0.191018 -0.101179 0.201866
v 0.122827 0.091230 0.181643
v 0.464741 0.095222 0.181223
v 0.130065 0.098911 0.180835
v 0.130065 0.098911 0.180835
v 0.464741 0.095222 0.181223
v 0.122827 0.091230 0.181643
v 0.206813 -0.104113 0.202174
v 0.395241 -0.100849 0.201831
v 0.191018 -0.101179 0.201866
v 0.191018 -0.101179 0.201866
v 0.395241 -0.100849 0.201831
v 0.206813 -0.104113 0.202174
v 0.130065 0.098911 0.180835
v 0.464741 0.095222 0.181223
v 0.461375 0.099416 0.180782
v 0.461375 0.099416 0.180782
v 0.464741 0.095222 0.181223
v 0.130065 0.098911 0.180835
v 0.223137 -0.105114 0.202279
v 0.395241 -0.100849 0.201831
v 0.206813 -0.104113 0.202174
v 0.206813 -0.104113 0.202174
v 0.395241 -0.100849 0.201831
v 0.223137 -0.105114 0.202279
v 0.395241 -0.100849 0.201831
v 0.223137 -0.105114 0.202279
v 0.382716 -0.105114 0.202279
v 0.382716 -0.105114 0.202279
v 0.223137 -0.105114 0.202279
v 0.395241 -0.100849 0.201831
v 0.130065 0.098911 0.180835
v 0.461375 0.099416 0.180782
v 0.142612 0.109892 0.179681
v 0.142612 0.109892 0.179681
v 0.461375 0.099416 0.180782
v 0.130065 0.098911 0.180835
v 0.142612 0.109892 0.179681
v 0.461375 0.099416 0.180782
v 0.457688 0.103335 0.180370
v 0.457688 0.103335 0.180370
v 0.461375 0.099416 0.180782
v 0.142612 0.109892 0.179681
v 0.142612 0.109892 0.179681
v 0.449428 0.110262 0.179642
v 0.156163 0.119623 0.178658
v 0.156163 0.119623 0.178658
v 0.449428 0.110262 0.179642
v 0.142612 0.109892 0.179681
v 0.142612 0.109892 0.179681
v 0.457688 0.103335 0.180370
v 0.453704 0.106953 0.179990
v 0.453704 0.106953 0.179990
v 0.457688 0.103335 0.180370
v 0.142612 0.109892 0.179681
v 0.142612 0.109892 0.179681
v 0.453704 0.106953 0.179990
v 0.449428 0.110262 0.179642
v 0.449428 0.110262 0.179642
v 0.453704 0.106953 0.179990
v 0.142612 0.109892 0.179681
v 0.156163 0.119623 0.178658
v 0.449428 0.110262 0.179642
v 0.437901 0.117895 0.178840
v 0.437901 0.117895 0.178840
v 0.449428 0.110262 0.179642
v 0.156163 0.119623 0.178658
v 0.156163 0.119623 0.178658
v 0.437901 0.117895 0.178840
v 0.425853 0.124729 0.178122
v 0.425853 0.124729 0.178122
v 0.437901 0.117895 0.178840
v 0.156163 0.119623 0.178658
v 0.156163 0.119623 0.178658
v 0.425853 0.124729 0.178122
v 0.170591 0.128015 0.177776
v 0.170591 0.128015 0.177776
v 0.425853 0.124729 0.178122
v 0.156163 0.119623 0.178658
v 0.170591 0.128015 0.177776
v 0.425853 0.124729 0.178122
v 0.413358 0.130720 0.177492
v 0.413358 0.130720 0.177492
v 0.425853 0.124729 0.178122
v 0.170591 0.128015 0.177776
v 0.170591 0.128015 0.177776
v 0.413358 0.130720 0.177492
v 0.185763 0.134990 0.177043
v 0.185763 0.134990 0.177043
v 0.413358 0.130720 0.177492
v 0.170591 0.128015 0.177776
v 0.185763 0.134990 0.177043
v 0.413358 0.130720 0.177492
v 0.400478 0.135838 0.176954
v 0.400478 0.135838 0.176954
v 0.413358 0.130720 0.177492
v 0.185763 0.134990 0.177043
v 0.185763 0.134990 0.177043
v 0.400478 0.135838 0.176954
v 0.201538 0.140483 0.176466
v 0.201538 0.140483 0.176466
v 0.400478 0.135838 0.176954
v 0.185763 0.134990 0.177043
v 0.201538 0.140483 0.176466
v 0.400478 0.135838 0.176954
v 0.387273 0.140059 0.176510
v 0.387273 0.140059 0.176510
v 0.400478 0.135838 0.176954
v 0.201538 0.140483 0.176466
v 0.201538 0.140483 0.176466
v 0.373806 0.143363 0.176163
v 0.217771 0.144443 0.176050
v 0.217771 0.144443 0.176050
v 0.373806 0.143363 0.176163
v 0.201538 0.140483 0.176466
v 0.201538 0.140483 0.176466
v 0.387273 0.140059 0.176510
v 0.373806 0.143363 0.176163
v 0.373806 0.143363 0.176163
v 0.387273 0.140059 0.176510
v 0.201538 0.140483 0.176466
v 0.217771 0.144443 0.176050
v 0.373806 0.143363 0.176163
v 0.360142 0.145734 0.175914
v 0.360142 0.145734 0.175914
v 0.373806 0.143363 0.176163
v 0.217771 0.144443 0.176050
v 0.217771 0.144443 0.176050
v 0.360142 0.145734 0.175914
v 0.234312 0.146834 0.175799
v 0.234312 0.146834 0.175799
v 0.360142 0.145734 0.175914
v 0.217771 0.144443 0.176050
v 0.234312 0.146834 0.175799
v 0.360142 0.145734 0.175914
v 0.346346 0.147162 0.175764
v 0.346346 0.147162 0.175764
v 0.360142 0.145734 0.175914
v 0.234312 0.146834 0.175799
v 0.234312 0.146834 0.175799
v 0.346346 0.147162 0.175764
v 0.251230 0.147644 0.175713
v 0.251230 0.147644 0.175713
v 0.346346 0.147162 0.175764
v 0.234312 0.146834 0.175799
v 0.251230 0.147644 0.175713
v 0.346346 0.147162 0.175764
v 0.332324 0.147644 0.175713
v 0.332324 0.147644 0.175713
v 0.346346 0.147162 0.175764
v 0.251230 0.147644 0.175713
vt 0 0
vn 0 0.10452875856533707 0.9945218643311918
vn 0 -0.10452875856533707 -0.9945218643311918
usemtl material_0_0
f 1/1/1 2/1/1 3/1/1
f 4/1/2 5/1/2 6/1/2
f 7/1/1 8/1/1 9/1/1
f 10/1/2 11/1/2 12/1/2
f 13/1/1 14/1/1 15/1/1
f 16/1/2 17/1/2 18/1/2
f 19/1/1 20/1/1 21/1/1
f 22/1/2 23/1/2 24/1/2
f 25/1/1 26/1/1 27/1/1
f 28/1/2 29/1/2 30/1/2
f 31/1/1 32/1/1 33/1/1
f 34/1/2 35/1/2 36/1/2
f 37/1/1 38/1/1 39/1/1
f 40/1/2 41/1/2 42/1/2
f 43/1/1 44/1/1 45/1/1
f 46/1/2 47/1/2 48/1/2
f 49/1/1 50/1/1 51/1/1
f 52/1/2 53/1/2 54/1/2
f 55/1/1 56/1/1 57/1/1
f 58/1/2 59/1/2 60/1/2
f 61/1/1 62/1/1 63/1/1
f 64/1/2 65/1/2 66/1/2
f 67/1/1 68/1/1 69/1/1
f 70/1/2 71/1/2 72/1/2
f 73/1/1 74/1/1 75/1/1
f 76/1/2 77/1/2 78/1/2
f 79/1/1 80/1/1 81/1/1
f 82/1/2 83/1/2 84/1/2
f 85/1/1 86/1/1 87/1/1
f 88/1/2 89/1/2 90/1/2
f 91/1/1 92/1/1 93/1/1
f 94/1/2 95/1/2 96/1/2
f 97/1/1 98/1/1 99/1/1
f 100/1/2 101/1/2 102/1/2
f 103/1/1 104/1/1 105/1/1
f 106/1/2 107/1/2 108/1/2
f 109/1/1 110/1/1 111/1/1
f 112/1/2 113/1/2 114/1/2
f 115/1/1 116/1/1 117/1/1
f 118/1/2 119/1/2 120/1/2
f 121/1/1 122/1/1 123/1/1
f 124/1/2 125/1/2 126/1/2
f 127/1/1 128/1/1 129/1/1
f 130/1/2 131/1/2 132/1/2
f 133/1/1 134/1/1 135/1/1
f 136/1/2 137/1/2 138/1/2
f 139/1/1 140/1/1 141/1/1
f 142/1/2 143/1/2 144/1/2
f 145/1/1 146/1/1 147/1/1
f 148/1/2 149/1/2 150/1/2
f 151/1/1 152/1/1 153/1/1
f 154/1/2 155/1/2 156/1/2
f 157/1/1 158/1/1 159/1/1
f 160/1/2 161/1/2 162/1/2
f 163/1/1 164/1/1 165/1/1
f 166/1/2 167/1/2 168/1/2
f 169/1/1 170/1/1 171/1/1
f 172/1/2 173/1/2 174/1/2
f 175/1/1 176/1/1 177/1/1
f 178/1/2 179/1/2 180/1/2
f 181/1/1 182/1/1 183/1/1
f 184/1/2 185/1/2 186/1/2
f 187/1/1 188/1/1 189/1/1
f 190/1/2 191/1/2 192/1/2
f 193/1/1 194/1/1 195/1/1
f 196/1/2 197/1/2 198/1/2
f 199/1/1 200/1/1 201/1/1
f 202/1/2 203/1/2 204/1/2
f 205/1/1 206/1/1 207/1/1
f 208/1/2 209/1/2 210/1/2
f 211/1/1 212/1/1 213/1/1
f 214/1/2 215/1/2 216/1/2
f 217/1/1 218/1/1 219/1/1
f 220/1/2 221/1/2 222/1/2
f 223/1/1 224/1/1 225/1/1
f 226/1/2 227/1/2 228/1/2
f 229/1/1 230/1/1 231/1/1
f 232/1/2 233/1/2 234/1/2
f 235/1/1 236/1/1 237/1/1
f 238/1/2 239/1/2 240/1/2
f 241/1/1 242/1/1 243/1/1
f 244/1/2 245/1/2 246/1/2
f 247/1/1 248/1/1 249/1/1
f 250/1/2 251/1/2 252/1/2
f 253/1/1 254/1/1 255/1/1
f 256/1/2 257/1/2 258/1/2
f 259/1/1 260/1/1 261/1/1
f 262/1/2 263/1/2 264/1/2
f 265/1/1 266/1/1 267/1/1
f 268/1/2 269/1/2 270/1/2
f 271/1/1 272/1/1 273/1/1
f 274/1/2 275/1/2 276/1/2
f 277/1/1 278/1/1 279/1/1
f 280/1/2 281/1/2 282/1/2
f 283/1/1 284/1/1 285/1/1
f 286/1/2 287/1/2 288/1/2
f 289/1/1 290/1/1 291/1/1
f 292/1/2 293/1/2 294/1/2
f 295/1/1 296/1/1 297/1/1
f 298/1/2 299/1/2 300/1/2
f 301/1/1 302/1/1 303/1/1
f 304/1/2 305/1/2 306/1/2
f 307/1/1 308/1/1 309/1/1
f 310/1/2 311/1/2 312/1/2
f 313/1/1 314/1/1 315/1/1
f 316/1/2 317/1/2 318/1/2
f 319/1/1 320/1/1 321/1/1
f 322/1/2 323/1/2 324/1/2
f 325/1/1 326/1/1 327/1/1
f 328/1/2 329/1/2 330/1/2
f 331/1/1 332/1/1 333/1/1
f 334/1/2 335/1/2 336/1/2
f 337/1/1 338/1/1 339/1/1
f 340/1/2 341/1/2 342/1/2
f 343/1/1 344/1/1 345/1/1
f 346/1/2 347/1/2 348/1/2
f 349/1/1 350/1/1 351/1/1
f 352/1/2 353/1/2 354/1/2
f 355/1/1 356/1/1 357/1/1
f 358/1/2 359/1/2 360/1/2
f 361/1/1 362/1/1 363/1/1
f 364/1/2 365/1/2 366/1/2
f 367/1/1 368/1/1 369/1/1
f 370/1/2 371/1/2 372/1/2
f 373/1/1 374/1/1 375/1/1
f 376/1/2 377/1/2 378/1/2
f 379/1/1 380/1/1 381/1/1
f 382/1/2 383/1/2 384/1/2
f 385/1/1 386/1/1 387/1/1
f 388/1/2 389/1/2 390/1/2
f 391/1/1 392/1/1 393/1/1
f 394/1/2 395/1/2 396/1/2
