# SSTK version 0.8.0
# 7
mtllib original-7.mtl
o 3dw.eb6176d02ba79f0640010f30b5cd77ee/Model/mesh1/mesh1-geometry/material_0/component_6#mesh1-geometry
v 0.489691 0.055216 0.185428
v 0.487378 0.055169 0.185433
v 0.490221 0.055169 0.185433
v 0.490221 0.055169 0.185433
v 0.487378 0.055169 0.185433
v 0.489691 0.055216 0.185428
v 0.487378 0.055169 0.185433
v 0.489691 0.055216 0.185428
v 0.488534 0.055234 0.185426
v 0.488534 0.055234 0.185426
v 0.489691 0.055216 0.185428
v 0.487378 0.055169 0.185433
vt -0.6630269885063171 3.8815529346466064
vt -0.6749929785728455 3.8813109397888184
vt -0.6602879762649536 3.8813109397888184
vt -0.6690139770507812 3.8816490173339844
vn 0 0.10452875856533707 0.9945218643311918
vn 0 -0.10452875856533707 -0.9945218643311918
usemtl material_0_0
f 1/1/1 2/2/1 3/3/1
f 4/3/2 5/2/2 6/1/2
f 7/2/1 8/1/1 9/4/1
f 10/4/2 11/1/2 12/2/2
