# SSTK version 0.8.0
# 12
mtllib original-12.mtl
o 3dw.eb6176d02ba79f0640010f30b5cd77ee/Model/mesh1/mesh1-geometry/material_1/component_1#mesh1-geometry
v -0.501444 0.036904 0.193730
v -0.511825 0.036904 0.193730
v -0.500845 0.038342 0.193579
v -0.500845 0.038342 0.193579
v -0.512628 0.039885 0.193417
v -0.500641 0.039885 0.193417
v -0.500641 0.039885 0.193417
v -0.512424 0.041428 0.193254
v -0.500845 0.041428 0.193254
v -0.502396 0.035670 0.193859
v -0.511825 0.036904 0.193730
v -0.501444 0.036904 0.193730
v -0.500845 0.038342 0.193579
v -0.511825 0.036904 0.193730
v -0.512424 0.038342 0.193579
v -0.500845 0.038342 0.193579
v -0.512424 0.038342 0.193579
v -0.512628 0.039885 0.193417
v -0.500641 0.039885 0.193417
v -0.512628 0.039885 0.193417
v -0.512424 0.041428 0.193254
v -0.500845 0.041428 0.193254
v -0.512424 0.041428 0.193254
v -0.511825 0.042865 0.193103
v -0.500845 0.041428 0.193254
v -0.511825 0.042865 0.193103
v -0.501444 0.042865 0.193103
v -0.502396 0.035670 0.193859
v -0.510873 0.035670 0.193859
v -0.511825 0.036904 0.193730
v -0.501444 0.042865 0.193103
v -0.511825 0.042865 0.193103
v -0.502396 0.044100 0.192973
v -0.502396 0.044100 0.192973
v -0.509631 0.045047 0.192874
v -0.503638 0.045047 0.192874
v -0.503638 0.034723 0.193959
v -0.510873 0.035670 0.193859
v -0.502396 0.035670 0.193859
v -0.502396 0.044100 0.192973
v -0.511825 0.042865 0.193103
v -0.510873 0.044100 0.192973
v -0.502396 0.044100 0.192973
v -0.510873 0.044100 0.192973
v -0.509631 0.045047 0.192874
v -0.503638 0.045047 0.192874
v -0.509631 0.045047 0.192874
v -0.508186 0.045643 0.192811
v -0.503638 0.045047 0.192874
v -0.508186 0.045643 0.192811
v -0.505083 0.045643 0.192811
v -0.503638 0.034723 0.193959
v -0.509631 0.034723 0.193959
v -0.510873 0.035670 0.193859
v -0.505083 0.045643 0.192811
v -0.508186 0.045643 0.192811
v -0.506635 0.045846 0.192790
v -0.505083 0.034127 0.194022
v -0.509631 0.034723 0.193959
v -0.503638 0.034723 0.193959
v -0.505083 0.034127 0.194022
v -0.508186 0.034127 0.194022
v -0.509631 0.034723 0.193959
v -0.508186 0.034127 0.194022
v -0.505083 0.034127 0.194022
v -0.506635 0.033924 0.194043
v -0.500845 0.038342 0.193579
v -0.511825 0.036904 0.193730
v -0.501444 0.036904 0.193730
v -0.500641 0.039885 0.193417
v -0.512628 0.039885 0.193417
v -0.500845 0.038342 0.193579
v -0.500845 0.041428 0.193254
v -0.512424 0.041428 0.193254
v -0.500641 0.039885 0.193417
v -0.501444 0.036904 0.193730
v -0.511825 0.036904 0.193730
v -0.502396 0.035670 0.193859
v -0.512424 0.038342 0.193579
v -0.511825 0.036904 0.193730
v -0.500845 0.038342 0.193579
v -0.512628 0.039885 0.193417
v -0.512424 0.038342 0.193579
v -0.500845 0.038342 0.193579
v -0.512424 0.041428 0.193254
v -0.512628 0.039885 0.193417
v -0.500641 0.039885 0.193417
v -0.511825 0.042865 0.193103
v -0.512424 0.041428 0.193254
v -0.500845 0.041428 0.193254
v -0.501444 0.042865 0.193103
v -0.511825 0.042865 0.193103
v -0.500845 0.041428 0.193254
v -0.511825 0.036904 0.193730
v -0.510873 0.035670 0.193859
v -0.502396 0.035670 0.193859
v -0.502396 0.044100 0.192973
v -0.511825 0.042865 0.193103
v -0.501444 0.042865 0.193103
v -0.503638 0.045047 0.192874
v -0.509631 0.045047 0.192874
v -0.502396 0.044100 0.192973
v -0.502396 0.035670 0.193859
v -0.510873 0.035670 0.193859
v -0.503638 0.034723 0.193959
v -0.510873 0.044100 0.192973
v -0.511825 0.042865 0.193103
v -0.502396 0.044100 0.192973
v -0.509631 0.045047 0.192874
v -0.510873 0.044100 0.192973
v -0.502396 0.044100 0.192973
v -0.508186 0.045643 0.192811
v -0.509631 0.045047 0.192874
v -0.503638 0.045047 0.192874
v -0.505083 0.045643 0.192811
v -0.508186 0.045643 0.192811
v -0.503638 0.045047 0.192874
v -0.510873 0.035670 0.193859
v -0.509631 0.034723 0.193959
v -0.503638 0.034723 0.193959
v -0.506635 0.045846 0.192790
v -0.508186 0.045643 0.192811
v -0.505083 0.045643 0.192811
v -0.503638 0.034723 0.193959
v -0.509631 0.034723 0.193959
v -0.505083 0.034127 0.194022
v -0.509631 0.034723 0.193959
v -0.508186 0.034127 0.194022
v -0.505083 0.034127 0.194022
v -0.506635 0.033924 0.194043
v -0.505083 0.034127 0.194022
v -0.508186 0.034127 0.194022
vt 5.790011882781982 3.7828619480133057
vt 5.843711853027344 3.7828619480133057
vt 5.786913871765137 3.790339946746826
vt 5.847866058349609 3.7983639240264893
vt 5.785858154296875 3.7983639240264893
vt 5.846808910369873 3.806389093399048
vt 5.786913871765137 3.806389093399048
vt 5.794939041137695 3.7764410972595215
vt 5.846808910369873 3.790339946746826
vt 5.843711853027344 3.813865900039673
vt 5.790011882781982 3.813865900039673
vt 5.838785171508789 3.7764410972595215
vt 5.794939041137695 3.820286989212036
vt 5.832364082336426 3.8252151012420654
vt 5.801360130310059 3.8252151012420654
vt 5.801360130310059 3.7715139389038086
vt 5.838785171508789 3.820286989212036
vt 5.824885845184326 3.8283119201660156
vt 5.808836936950684 3.8283119201660156
vt 5.832364082336426 3.7715139389038086
vt 5.816862106323242 3.8293681144714355
vt 5.808836936950684 3.7684168815612793
vt 5.824885845184326 3.7684168815612793
vt 5.816862106323242 3.767359972000122
vt 2.5719621181488037 1.6845959424972534
vt 2.5972049236297607 1.681272029876709
vt 2.573338031768799 1.681272029876709
vt 2.5714919567108154 1.6881619691848755
vt 2.599050998687744 1.6881619691848755
vt 2.5719621181488037 1.6917279958724976
vt 2.5985820293426514 1.6917279958724976
vt 2.5755279064178467 1.6784180402755737
vt 2.5985820293426514 1.6845959424972534
vt 2.5972049236297607 1.6950520277023315
vt 2.573338031768799 1.6950520277023315
vt 2.5950160026550293 1.6784180402755737
vt 2.5755279064178467 1.6979060173034668
vt 2.5783820152282715 1.7000950574874878
vt 2.5921618938446045 1.7000950574874878
vt 2.5783820152282715 1.6762290000915527
vt 2.5950160026550293 1.6979060173034668
vt 2.5888381004333496 1.7014720439910889
vt 2.5817060470581055 1.7014720439910889
vt 2.5921618938446045 1.6762290000915527
vt 2.5852720737457275 1.7019410133361816
vt 2.5817060470581055 1.6748520135879517
vt 2.5888381004333496 1.6748520135879517
vt 2.5852720737457275 1.674381971359253
vn 0 -0.10452875856533707 -0.9945218643311918
vn 0 0.10452875856533707 0.9945218643311918
usemtl material_0_0
f 1/1/1 2/2/1 3/3/1
f 4/3/1 5/4/1 6/5/1
f 7/5/1 8/6/1 9/7/1
f 10/8/1 11/2/1 12/1/1
f 13/3/1 14/2/1 15/9/1
f 16/3/1 17/9/1 18/4/1
f 19/5/1 20/4/1 21/6/1
f 22/7/1 23/6/1 24/10/1
f 25/7/1 26/10/1 27/11/1
f 28/8/1 29/12/1 30/2/1
f 31/11/1 32/10/1 33/13/1
f 34/13/1 35/14/1 36/15/1
f 37/16/1 38/12/1 39/8/1
f 40/13/1 41/10/1 42/17/1
f 43/13/1 44/17/1 45/14/1
f 46/15/1 47/14/1 48/18/1
f 49/15/1 50/18/1 51/19/1
f 52/16/1 53/20/1 54/12/1
f 55/19/1 56/18/1 57/21/1
f 58/22/1 59/20/1 60/16/1
f 61/22/1 62/23/1 63/20/1
f 64/23/1 65/22/1 66/24/1
usemtl material_1_0
f 67/25/2 68/26/2 69/27/2
f 70/28/2 71/29/2 72/25/2
f 73/30/2 74/31/2 75/28/2
f 76/27/2 77/26/2 78/32/2
f 79/33/2 80/26/2 81/25/2
f 82/29/2 83/33/2 84/25/2
f 85/31/2 86/29/2 87/28/2
f 88/34/2 89/31/2 90/30/2
f 91/35/2 92/34/2 93/30/2
f 94/26/2 95/36/2 96/32/2
f 97/37/2 98/34/2 99/35/2
f 100/38/2 101/39/2 102/37/2
f 103/32/2 104/36/2 105/40/2
f 106/41/2 107/34/2 108/37/2
f 109/39/2 110/41/2 111/37/2
f 112/42/2 113/39/2 114/38/2
f 115/43/2 116/42/2 117/38/2
f 118/36/2 119/44/2 120/40/2
f 121/45/2 122/42/2 123/43/2
f 124/40/2 125/44/2 126/46/2
f 127/44/2 128/47/2 129/46/2
f 130/48/2 131/46/2 132/47/2
