# SSTK version 0.8.0
# 6
mtllib original-6.mtl
o 3dw.eb6176d02ba79f0640010f30b5cd77ee/Model/mesh1/mesh1-geometry/material_0/component_5#mesh1-geometry
v 0.085673 -0.001002 0.197714
v 0.083789 0.017315 0.179845
v 0.083789 0.018972 0.195615
v 0.083789 0.018972 0.195615
v 0.083789 0.017315 0.179845
v 0.085673 -0.001002 0.197714
v 0.083789 0.017315 0.179845
v 0.085673 -0.001002 0.197714
v 0.085673 -0.002660 0.181945
v 0.085673 -0.002660 0.181945
v 0.085673 -0.001002 0.197714
v 0.083789 0.017315 0.179845
v 0.086214 -0.004447 0.198076
v 0.085673 -0.002660 0.181945
v 0.085673 -0.001002 0.197714
v 0.085673 -0.001002 0.197714
v 0.085673 -0.002660 0.181945
v 0.086214 -0.004447 0.198076
v 0.085673 -0.002660 0.181945
v 0.086214 -0.004447 0.198076
v 0.086214 -0.006104 0.182307
v 0.086214 -0.006104 0.182307
v 0.086214 -0.004447 0.198076
v 0.085673 -0.002660 0.181945
v 0.088566 -0.012638 0.198937
v 0.086214 -0.006104 0.182307
v 0.086214 -0.004447 0.198076
v 0.086214 -0.004447 0.198076
v 0.086214 -0.006104 0.182307
v 0.088566 -0.012638 0.198937
v 0.086214 -0.006104 0.182307
v 0.088566 -0.012638 0.198937
v 0.088566 -0.014295 0.183168
v 0.088566 -0.014295 0.183168
v 0.088566 -0.012638 0.198937
v 0.086214 -0.006104 0.182307
v 0.088566 -0.014295 0.183168
v 0.090247 -0.019588 0.183724
v 0.089392 -0.016652 0.183415
v 0.089392 -0.016652 0.183415
v 0.090247 -0.019588 0.183724
v 0.088566 -0.014295 0.183168
v 0.090247 -0.019588 0.183724
v 0.088566 -0.014295 0.183168
v 0.090940 -0.022565 0.184037
v 0.090940 -0.022565 0.184037
v 0.088566 -0.014295 0.183168
v 0.090247 -0.019588 0.183724
vt -0.06577000021934509 6.179049015045166
vt 0.06694699823856354 6.18069314956665
vt 0.01546700019389391 6.244545936584473
vt -0.014289000071585178 6.115196228027344
vt 0.05305099859833717 6.255774021148682
vt 0.11845099925994873 6.203056812286377
vt 0.06720999628305435 6.267101764678955
vt 0.10429199784994125 6.1917290687561035
vt 0.28691399097442627 6.3723859786987305
vt 0.37226399779319763 6.334890842437744
vt 0.3218719959259033 6.399607181549072
vt 0.3373059928417206 6.307671070098877
vt -2.7379839420318604 3.525177001953125
vt -2.729290008544922 3.4976489543914795
vt -2.733707904815674 3.5129189491271973
vt -2.725703001022339 3.4821619987487793
vn 0.9956300613692495 0.09287352638262057 -0.009761608224118997
vn -0.9956300613692495 -0.09287352638262057 0.009761608224118997
vn 0.976641143767323 0.21369971588625114 -0.022461249542058116
vn 0.9880100286938103 0.15354400455797432 -0.01613759166533088
vn -0.9880100286938103 -0.15354400455797432 0.01613759166533088
vn -0.976641143767323 -0.21369971588625114 0.022461249542058116
vn 0.961572909057011 0.27304572834498253 -0.02869792327320805
vn -0.961572909057011 -0.27304572834498253 0.02869792327320805
vn 0 0.10452875856533707 0.9945218643311918
vn 0 -0.10452875856533707 -0.9945218643311918
usemtl material_0_0
f 1/1/1 2/2/1 3/3/1
f 4/3/2 5/2/2 6/1/2
f 7/2/1 8/1/1 9/4/1
f 10/4/2 11/1/2 12/2/2
f 13/5/3 14/6/4 15/7/4
f 16/7/5 17/6/5 18/5/6
f 19/6/4 20/5/3 21/8/3
f 22/8/6 23/5/6 24/6/5
f 25/9/7 26/10/3 27/11/3
f 28/11/6 29/10/6 30/9/8
f 31/10/3 32/9/7 33/12/7
f 34/12/8 35/9/8 36/10/6
f 37/13/9 38/14/9 39/15/9
f 40/15/10 41/14/10 42/13/10
f 43/14/9 44/13/9 45/16/9
f 46/16/10 47/13/10 48/14/10
