mtllib new-1.mtl
v -0.186647 0.010489 0.023169
v -0.179218 0.010489 0.055242
v -0.191541 0.010489 0.022353
v -0.183256 0.010489 0.058127
v -0.196480 0.010489 0.022832
v -0.187902 0.010489 0.059868
v -0.201127 0.010489 0.024573
v -0.192841 0.010489 0.060347
v -0.205164 0.010489 0.027458
v -0.197736 0.010489 0.059531
v -0.172115 0.005739 0.030657
v -0.169553 0.005029 0.036107
v -0.171681 0.005029 0.030426
v -0.168487 0.004312 0.042161
v -0.197543 0.004312 0.018244
v -0.203341 0.004312 0.020416
v -0.169505 0.004312 0.048269
v -0.168018 0.003587 0.042177
v -0.197649 0.003587 0.017787
v -0.203561 0.003587 0.020002
v -0.169056 0.003587 0.048405
v -0.167561 0.002855 0.042193
v -0.175683 0.003587 0.059028
v -0.197752 0.002855 0.017341
v -0.203776 0.002855 0.019598
v -0.168618 0.002855 0.048539
v -0.171282 0.002855 0.054395
v -0.209012 0.002855 0.023338
v -0.167114 0.002116 0.042208
v -0.175371 0.002855 0.059362
v -0.197853 0.002116 0.016906
v -0.203986 0.002116 0.019204
v -0.168191 0.002116 0.048669
v -0.170903 0.002116 0.054631
v -0.180606 0.002855 0.063102
v -0.175066 0.002116 0.059689
v -0.170903 -0.016277 0.054631
v -0.180396 0.002116 0.063496
v -0.175066 -0.016277 0.059689
v -0.186530 0.002116 0.065794
v -0.180396 -0.016277 0.063496
v -0.199510 0.002116 0.065350
v -0.193049 -0.016277 0.066427
v -0.193049 0.002116 0.066427
v -0.199510 -0.016277 0.065350
v -0.186530 -0.016277 0.065794
vn 0.000000 -1.000000 0.000000
vn 0.000000 1.000000 0.000000
vn -0.721946 -0.575275 0.384516
vn 0.721946 0.575275 -0.384516
vn -0.805408 -0.562602 0.186540
vn 0.805408 0.562602 -0.186540
vn -0.729685 -0.562602 0.388638
vn 0.729685 0.562602 -0.388638
vn -0.834813 -0.549792 -0.028565
vn 0.834813 0.549792 0.028565
vn 0.188474 -0.549792 0.813760
vn -0.188474 0.549792 -0.813760
vn 0.392668 -0.549792 0.737252
vn -0.392668 0.549792 -0.737252
vn -0.798974 -0.549792 -0.243657
vn 0.798974 0.549792 0.243657
vn -0.843185 -0.536849 -0.028851
vn 0.843185 0.536849 0.028851
vn 0.190364 -0.536849 0.821921
vn -0.190364 0.536849 -0.821921
vn 0.396607 -0.536849 0.744645
vn -0.396607 0.536849 -0.744645
vn -0.806987 -0.536849 -0.246100
vn 0.806987 0.536849 0.246100
vn -0.851358 -0.523775 -0.029131
vn 0.851358 0.523775 0.029131
vn -0.575821 -0.536849 -0.616623
vn 0.575821 0.536849 0.616623
vn 0.192210 -0.523775 0.829889
vn -0.192210 0.523775 -0.829889
vn 0.400451 -0.523775 0.751863
vn -0.400451 0.523775 -0.751863
vn -0.814810 -0.523775 -0.248486
vn 0.814810 0.523775 0.248486
vn -0.722733 -0.523775 -0.450907
vn 0.722733 0.523775 0.450907
vn 0.581403 -0.523775 0.622600
vn -0.581403 0.523775 -0.622600
vn -0.855370 -0.517190 -0.029268
vn 0.855370 0.517190 0.029268
vn -0.581403 -0.523775 -0.622600
vn 0.581403 0.523775 0.622600
vn 0.193116 -0.517190 0.833799
vn -0.193116 0.517190 -0.833799
vn 0.402338 -0.517190 0.755406
vn -0.402338 0.517190 -0.755406
vn -0.818649 -0.517190 -0.249657
vn 0.818649 0.517190 0.249657
vn -0.726138 -0.517190 -0.453032
vn 0.726138 0.517190 0.453032
vn -0.400451 -0.523775 -0.751863
vn 0.400451 0.523775 0.751863
vn -0.584142 -0.517190 -0.625534
vn 0.584142 0.517190 0.625534
vn -0.164354 0.000000 0.986401
vn 0.096546 0.000000 0.995329
vn 0.350866 0.000000 0.936426
vn 0.581275 0.000000 0.813707
vn 0.772071 0.000000 0.635536
vn -0.772071 0.000000 -0.635536
vn -0.581275 0.000000 -0.813707
vn -0.350866 0.000000 -0.936426
vn -0.096546 0.000000 -0.995329
vn 0.164354 0.000000 -0.986401
usemtl material-0
f 1//1 2//1 3//1
f 3//2 2//2 1//2
f 3//1 4//1 5//1
f 5//2 4//2 3//2
f 5//1 4//1 6//1
f 6//2 4//2 5//2
f 7//1 6//1 8//1
f 8//2 6//2 7//2
f 9//1 8//1 10//1
f 10//2 8//2 9//2
f 12//5 11//3 13//7
f 13//8 11//4 12//6
f 18//17 17//15 14//9
f 14//10 17//16 18//18
f 20//21 15//11 16//13
f 16//14 15//12 20//22
f 22//25 21//23 18//17
f 18//18 21//24 22//26
f 25//31 19//19 20//21
f 20//22 19//20 25//32
f 21//23 22//25 26//33
f 26//34 22//26 21//24
f 29//39 26//33 22//25
f 22//26 26//34 29//40
f 23//27 27//35 30//41
f 30//42 27//36 23//28
f 32//45 24//29 25//31
f 25//32 24//30 32//46
f 28//37 32//45 25//31
f 25//32 32//46 28//38
f 26//33 29//39 33//47
f 33//48 29//40 26//34
f 33//47 27//35 26//33
f 26//34 27//36 33//48
f 34//49 30//41 27//35
f 27//36 30//42 34//50
f 24//29 32//45 31//43
f 31//44 32//46 24//30
f 30//41 34//49 36//53
f 36//54 34//50 30//42
f 36//53 35//51 30//41
f 30//42 35//52 36//54
f 37//60 36//60 34//60
f 39//61 38//61 36//61
f 38//61 39//61 41//61
f 41//62 40//62 38//62
f 46//63 44//63 40//63
f 40//62 41//62 46//62
f 43//64 42//64 44//64
f 42//64 43//64 45//64
f 44//63 46//63 43//63
usemtl material-1
f 34//59 36//59 37//59
f 36//58 38//58 39//58
f 41//58 39//58 38//58
f 38//57 40//57 41//57
f 40//56 44//56 46//56
f 46//57 41//57 40//57
f 44//55 42//55 43//55
f 45//55 43//55 42//55
f 43//56 46//56 44//56