# SSTK version 0.8.0
# 35
mtllib original-35.mtl
o mesh67/mesh67-geometry#mesh67-geometry
v -0.287882 0.002116 0.006048
v -0.287238 0.002116 0.003989
v -0.287199 0.002116 0.005478
v -0.287863 0.002116 0.004480
v -0.287433 0.002116 -0.003455
v -0.287199 0.003593 0.005478
v -0.288558 0.002116 0.004882
v -0.287863 0.003593 0.004480
v -0.287062 0.002116 0.010718
v -0.287396 0.002116 -0.002042
v -0.287882 0.003593 0.006048
v -0.288624 0.002116 0.006515
v -0.288558 0.003593 0.004882
v -0.287238 0.003593 0.003989
v -0.287333 0.002116 -0.003948
v -0.287396 0.003593 -0.002042
v -0.288595 0.002116 -0.002477
v -0.287062 0.003593 0.010718
v -0.289288 0.002116 0.005156
v -0.289288 0.003593 0.005156
v -0.285674 0.002116 -0.003991
v -0.287333 0.003593 -0.003948
v -0.288649 0.002116 -0.003994
v -0.288624 0.003593 0.006515
v -0.285290 0.003593 0.010671
v -0.289450 0.002116 0.006834
v -0.285290 0.002116 0.010671
v -0.287433 0.003593 -0.003455
v -0.288595 0.003593 -0.002477
v -0.289739 0.002116 -0.002584
v -0.288649 0.003593 -0.003994
v -0.290015 0.002116 0.005260
v -0.290015 0.003593 0.005260
v -0.289450 0.003593 0.006834
v -0.285674 0.003593 -0.003991
v -0.289324 0.002116 -0.004135
v -0.289324 0.003593 -0.004135
v -0.290385 0.002116 0.006957
v -0.289739 0.003593 -0.002584
v -0.290120 0.002116 -0.004167
v -0.290609 0.002116 0.005214
v -0.290609 0.003593 0.005214
v -0.290385 0.003593 0.006957
v -0.290379 0.002116 -0.002507
v -0.290120 0.003593 -0.004167
v -0.291231 0.002116 0.006890
v -0.290379 0.003593 -0.002507
v -0.291020 0.002116 -0.004045
v -0.291020 0.003593 -0.004045
v -0.291119 0.002116 0.005045
v -0.291119 0.003593 0.005045
v -0.291231 0.003593 0.006890
v -0.290944 0.002116 -0.002312
v -0.291545 0.002116 0.004751
v -0.290944 0.003593 -0.002312
v -0.291432 0.002116 -0.001998
v -0.291837 0.003593 -0.003729
v -0.291987 0.002116 0.006642
v -0.291545 0.003593 0.004751
v -0.291837 0.002116 -0.003729
v -0.291432 0.003593 -0.001998
v -0.291987 0.003593 0.006642
v -0.291887 0.002116 0.004333
v -0.291844 0.002116 -0.001567
v -0.292569 0.003593 -0.003217
v -0.291844 0.003593 -0.001567
v -0.292654 0.002116 0.006213
v -0.292350 0.002116 0.003141
v -0.291887 0.003593 0.004333
v -0.292569 0.002116 -0.003217
v -0.292654 0.003593 0.006213
v -0.292350 0.003593 0.003141
v -0.292167 0.002116 -0.001008
v -0.293217 0.002116 -0.002512
v -0.292167 0.003593 -0.001008
v -0.293231 0.003593 0.005603
v -0.292537 0.002116 0.001488
v -0.292391 0.002116 -0.000312
v -0.293217 0.003593 -0.002512
v -0.292514 0.002116 0.000519
v -0.292391 0.003593 -0.000312
v -0.292537 0.003593 0.001488
v -0.293231 0.002116 0.005603
v -0.293743 0.002116 -0.001647
v -0.292514 0.003593 0.000519
v -0.293700 0.003593 0.004832
v -0.293743 0.003593 -0.001647
v -0.293700 0.002116 0.004832
v -0.294109 0.002116 -0.000661
v -0.294046 0.003593 0.003921
v -0.294109 0.003593 -0.000661
v -0.294046 0.002116 0.003921
v -0.294315 0.002116 0.000447
v -0.294266 0.003593 0.002869
v -0.294315 0.003593 0.000447
v -0.294266 0.002116 0.002869
v -0.294361 0.002116 0.001677
v -0.294361 0.003593 0.001677
vn 0 -1 0
vn 0 1 0
vn 0.6404823520220656 0 0.7679728880294426
vn 0.5879795009947032 0 0.8088758287957551
vn -0.6404823520220656 0 -0.7679728880294426
vn -0.5879795009947032 0 -0.8088758287957551
vn -0.5604348722854294 0 -0.8281984991090086
vn -0.6172398232692554 0 -0.7867750635159573
vn 0.5604348722854294 0 0.8281984991090086
vn 0.6172398232692554 0 0.7867750635159573
vn -0.9996573248267139 0 0.02617695399197595
vn 0.9996573248267139 0 -0.02617695399197595
vn -0.4275315387631072 0 -0.9040004332758086
vn 0.4275315387631072 0 0.9040004332758086
vn 0.4484765365652542 0 0.8937946051249327
vn -0.4484765365652542 0 -0.8937946051249327
vn -0.24784315911852556 0 -0.9688001695283446
vn 0.24784315911852556 0 0.9688001695283446
vn -0.9799433284296551 0 -0.19927637357752398
vn 0.9799433284296551 0 0.19927637357752398
vn -0.3411626771770756 0 0.9400042700442218
vn -0.21883455947949196 0 0.9757619769069794
vn 0.3411626771770756 0 -0.9400042700442218
vn 0.21883455947949196 0 -0.9757619769069794
vn 0.026176953991975976 0 0.9996573248267139
vn -0.026176953991975976 0 -0.9996573248267139
vn 0.30679142693019734 0 -0.9517767702366629
vn 0.4048986554623334 0 -0.9143615689675472
vn -0.30679142693019734 0 0.9517767702366629
vn -0.4048986554623334 0 0.9143615689675472
vn 0.2471366227484362 0 0.9689806446449265
vn -0.2471366227484362 0 -0.9689806446449265
vn -0.032811102939434886 0 -0.9994615708089521
vn 0.032811102939434886 0 0.9994615708089521
vn 0.013200199662988809 0 0.999912873568921
vn -0.013200199662988809 0 -0.999912873568921
vn 0.12326492224855502 0 -0.9923738000083727
vn -0.12326492224855502 0 0.9923738000083727
vn 0.026043999337427872 0 0.9996607975200948
vn -0.026043999337427872 0 -0.9996607975200948
vn 0.19738973841447002 0 -0.9803250946337482
vn -0.19738973841447002 0 0.9803250946337482
vn 0.22429385446285904 0 0.9745215579196768
vn -0.22429385446285904 0 -0.9745215579196768
vn -0.04713301546020843 0 -0.9988886218461135
vn 0.04713301546020843 0 0.9988886218461135
vn -0.24970541281836087 0 -0.968321850837423
vn 0.24970541281836087 0 0.968321850837423
vn -0.19681539670832118 0 0.9804405640417712
vn 0.19681539670832118 0 -0.9804405640417712
vn 0.44605626084513944 0 -0.8950049229813504
vn -0.44605626084513944 0 0.8950049229813504
vn 0.43664429781538744 0 0.8996342352230197
vn -0.43664429781538744 0 -0.8996342352230197
vn -0.47048122384113805 0 -0.8824100056169724
vn 0.47048122384113805 0 0.8824100056169724
vn -0.42992227656140497 0 0.9028659015137623
vn 0.42992227656140497 0 -0.9028659015137623
vn 0.6774299076044942 0 -0.7355873301539162
vn -0.6774299076044942 0 0.7355873301539162
vn 0.6363696605715224 0 0.7713842460823822
vn -0.6363696605715224 0 -0.7713842460823822
vn 0.8637371399908191 0 -0.5039426088360458
vn -0.8637371399908191 0 0.5039426088360458
vn -0.6585220989466329 0 -0.7525613896546386
vn 0.6585220989466329 0 0.7525613896546386
vn -0.6384245052598873 0 0.7696844490332828
vn 0.6384245052598873 0 -0.7696844490332828
vn 0.8000338289750973 0 0.5999548920505979
vn -0.8000338289750973 0 -0.5999548920505979
vn 0.9709737343269303 0 -0.23918613514837261
vn -0.9709737343269303 0 0.23918613514837261
vn -0.7992499250376575 0 -0.6009987997719289
vn 0.7992499250376575 0 0.6009987997719289
vn 0.9139526956619737 0 0.4058207363999672
vn -0.9139526956619737 0 -0.4058207363999672
vn -0.7944988649941969 0 0.607265636705168
vn 0.7944988649941969 0 -0.607265636705168
vn 0.9990110186769549 0 -0.0444632945476676
vn -0.9990110186769549 0 0.0444632945476676
vn 0.9739045793285589 0 0.2269578603240311
vn -0.9739045793285589 0 -0.2269578603240311
vn -0.8999522785826329 0 -0.4359884130042073
vn 0.8999522785826329 0 0.4359884130042073
vn -0.8983717040776731 0 0.43923602005365864
vn 0.8983717040776731 0 -0.43923602005365864
vn 0.9963578264489313 0 0.08527063781842592
vn -0.9963578264489313 0 -0.08527063781842592
vn -0.9638510481311904 0 -0.26644165780974594
vn 0.9638510481311904 0 0.26644165780974594
vn -0.9598847433656396 0 0.28039486345844505
vn 0.9598847433656396 0 -0.28039486345844505
vn -0.9938762099800243 0 -0.11049922730835145
vn 0.9938762099800243 0 0.11049922730835145
vn -0.9897704484768666 0 0.14266905523589415
vn 0.9897704484768666 0 -0.14266905523589415
vn -0.9997756502103582 0 0.021181341941800238
vn 0.9997756502103582 0 -0.021181341941800238
usemtl material_0_0
f 1//1 2//1 3//1
f 2//1 1//1 4//1
f 3//2 2//2 1//2
f 4//2 1//2 2//2
f 5//1 3//1 2//1
f 2//2 3//2 5//2
f 6//3 1//4 3//3
f 3//5 1//6 6//5
f 4//1 1//1 7//1
f 7//2 1//2 4//2
f 8//7 2//8 4//7
f 4//9 2//10 8//9
f 5//1 9//1 3//1
f 3//2 9//2 5//2
f 5//1 2//1 10//1
f 10//2 2//2 5//2
f 1//4 6//3 11//4
f 11//6 6//5 1//6
f 9//11 6//11 3//11
f 3//12 6//12 9//12
f 7//1 1//1 12//1
f 12//2 1//2 7//2
f 13//13 4//7 7//13
f 7//14 4//9 13//14
f 2//8 8//7 14//8
f 14//10 8//9 2//10
f 4//7 13//13 8//7
f 8//9 13//14 4//9
f 15//1 9//1 5//1
f 5//2 9//2 15//2
f 2//11 16//11 10//11
f 10//12 16//12 2//12
f 5//1 10//1 17//1
f 17//2 10//2 5//2
f 6//2 8//2 11//2
f 11//1 8//1 6//1
f 11//4 12//15 1//4
f 1//6 12//16 11//6
f 6//11 9//11 18//11
f 18//12 9//12 6//12
f 7//1 12//1 19//1
f 19//2 12//2 7//2
f 7//13 20//17 13//13
f 13//14 20//18 7//14
f 8//2 6//2 14//2
f 14//1 6//1 8//1
f 16//11 2//11 14//11
f 14//12 2//12 16//12
f 11//2 8//2 13//2
f 13//1 8//1 11//1
f 21//1 9//1 15//1
f 15//2 9//2 21//2
f 5//19 22//19 15//19
f 15//20 22//20 5//20
f 16//21 17//22 10//21
f 10//23 17//24 16//23
f 5//1 17//1 23//1
f 23//2 17//2 5//2
f 12//15 11//4 24//15
f 24//16 11//6 12//16
f 9//25 25//25 18//25
f 18//26 25//26 9//26
f 18//2 14//2 6//2
f 6//1 14//1 18//1
f 19//1 12//1 26//1
f 26//2 12//2 19//2
f 20//17 7//13 19//17
f 19//18 7//14 20//18
f 24//2 13//2 20//2
f 20//1 13//1 24//1
f 18//2 16//2 14//2
f 14//1 16//1 18//1
f 11//2 13//2 24//2
f 24//1 13//1 11//1
f 9//1 21//1 27//1
f 27//2 21//2 9//2
f 22//26 21//26 15//26
f 15//25 21//25 22//25
f 22//19 5//19 28//19
f 28//20 5//20 22//20
f 17//22 16//21 29//22
f 29//24 16//23 17//24
f 23//1 17//1 30//1
f 30//2 17//2 23//2
f 31//27 5//28 23//27
f 23//29 5//30 31//29
f 24//15 26//31 12//15
f 12//16 26//32 24//16
f 25//25 9//25 27//25
f 27//26 9//26 25//26
f 25//2 22//2 18//2
f 18//1 22//1 25//1
f 19//1 26//1 32//1
f 32//2 26//2 19//2
f 19//17 33//33 20//17
f 20//18 33//34 19//18
f 24//2 20//2 34//2
f 34//1 20//1 24//1
f 18//2 28//2 16//2
f 16//1 28//1 18//1
f 21//12 25//12 27//12
f 27//11 25//11 21//11
f 21//26 22//26 35//26
f 35//25 22//25 21//25
f 5//28 31//27 28//28
f 28//30 31//29 5//30
f 18//2 22//2 28//2
f 28//1 22//1 18//1
f 16//2 31//2 29//2
f 29//1 31//1 16//1
f 29//22 30//35 17//22
f 17//24 30//36 29//24
f 23//1 30//1 36//1
f 36//2 30//2 23//2
f 23//27 37//37 31//27
f 31//29 37//38 23//29
f 26//31 24//15 34//31
f 34//32 24//16 26//32
f 22//2 25//2 35//2
f 35//1 25//1 22//1
f 32//1 26//1 38//1
f 38//2 26//2 32//2
f 33//33 19//17 32//33
f 32//34 19//18 33//34
f 34//2 20//2 33//2
f 33//1 20//1 34//1
f 31//2 16//2 28//2
f 28//1 16//1 31//1
f 25//12 21//12 35//12
f 35//11 21//11 25//11
f 29//2 31//2 39//2
f 39//1 31//1 29//1
f 30//35 29//22 39//35
f 39//36 29//24 30//36
f 36//1 30//1 40//1
f 40//2 30//2 36//2
f 37//37 23//27 36//37
f 36//38 23//29 37//38
f 39//2 31//2 37//2
f 37//1 31//1 39//1
f 34//31 38//39 26//31
f 26//32 38//40 34//32
f 32//1 38//1 41//1
f 41//2 38//2 32//2
f 32//33 42//41 33//33
f 33//34 42//42 32//34
f 34//2 33//2 43//2
f 43//1 33//1 34//1
f 39//35 44//43 30//35
f 30//36 44//44 39//36
f 40//1 30//1 44//1
f 44//2 30//2 40//2
f 45//45 36//37 40//45
f 40//46 36//38 45//46
f 36//37 45//45 37//37
f 37//38 45//46 36//38
f 39//2 37//2 45//2
f 45//1 37//1 39//1
f 38//39 34//31 43//39
f 43//40 34//32 38//40
f 41//1 38//1 46//1
f 46//2 38//2 41//2
f 42//41 32//33 41//41
f 41//42 32//34 42//42
f 43//2 33//2 42//2
f 42//1 33//1 43//1
f 44//43 39//35 47//43
f 47//44 39//36 44//44
f 40//1 44//1 48//1
f 48//2 44//2 40//2
f 40//45 49//47 45//45
f 45//46 49//48 40//46
f 39//2 45//2 47//2
f 47//1 45//1 39//1
f 43//39 46//49 38//39
f 38//40 46//50 43//40
f 41//1 46//1 50//1
f 50//2 46//2 41//2
f 41//41 51//51 42//41
f 42//42 51//52 41//42
f 43//2 42//2 52//2
f 52//1 42//1 43//1
f 47//43 53//53 44//43
f 44//44 53//54 47//44
f 48//1 44//1 53//1
f 53//2 44//2 48//2
f 49//47 40//45 48//47
f 48//48 40//46 49//48
f 47//2 45//2 49//2
f 49//1 45//1 47//1
f 46//49 43//39 52//49
f 52//50 43//40 46//50
f 50//1 46//1 54//1
f 54//2 46//2 50//2
f 51//51 41//41 50//51
f 50//52 41//42 51//52
f 52//2 42//2 51//2
f 51//1 42//1 52//1
f 53//53 47//43 55//53
f 55//54 47//44 53//54
f 48//1 53//1 56//1
f 56//2 53//2 48//2
f 48//47 57//55 49//47
f 49//48 57//56 48//48
f 47//2 49//2 55//2
f 55//1 49//1 47//1
f 52//49 58//57 46//49
f 46//50 58//58 52//50
f 54//1 46//1 58//1
f 58//2 46//2 54//2
f 59//59 50//51 54//59
f 54//60 50//52 59//60
f 50//51 59//59 51//51
f 51//52 59//60 50//52
f 52//2 51//2 59//2
f 59//1 51//1 52//1
f 55//53 56//61 53//53
f 53//54 56//62 55//54
f 48//1 56//1 60//1
f 60//2 56//2 48//2
f 57//55 48//47 60//55
f 60//56 48//48 57//56
f 61//2 49//2 57//2
f 57//1 49//1 61//1
f 55//2 49//2 61//2
f 61//1 49//1 55//1
f 58//57 52//49 62//57
f 62//58 52//50 58//58
f 54//1 58//1 63//1
f 63//2 58//2 54//2
f 63//63 59//59 54//59
f 54//60 59//60 63//64
f 52//2 59//2 62//2
f 62//1 59//1 52//1
f 56//61 55//53 61//61
f 61//62 55//54 56//62
f 60//1 56//1 64//1
f 64//2 56//2 60//2
f 60//55 65//65 57//55
f 57//56 65//66 60//56
f 61//2 57//2 66//2
f 66//1 57//1 61//1
f 62//57 67//67 58//57
f 58//58 67//68 62//58
f 63//1 58//1 68//1
f 68//2 58//2 63//2
f 59//59 63//63 69//63
f 69//64 63//64 59//60
f 62//2 59//2 69//2
f 69//1 59//1 62//1
f 61//61 64//69 56//61
f 56//62 64//70 61//62
f 60//1 64//1 70//1
f 70//2 64//2 60//2
f 65//65 60//55 70//65
f 70//66 60//56 65//66
f 66//2 57//2 65//2
f 65//1 57//1 66//1
f 64//69 61//61 66//69
f 66//70 61//62 64//70
f 67//67 62//57 71//67
f 71//68 62//58 67//68
f 68//1 58//1 67//1
f 67//2 58//2 68//2
f 68//71 69//63 63//63
f 63//64 69//64 68//72
f 62//2 69//2 72//2
f 72//1 69//1 62//1
f 70//1 64//1 73//1
f 73//2 64//2 70//2
f 74//73 65//65 70//65
f 70//66 65//66 74//74
f 66//2 65//2 75//2
f 75//1 65//1 66//1
f 75//75 64//69 66//69
f 66//70 64//70 75//76
f 62//2 72//2 71//2
f 71//1 72//1 62//1
f 76//77 67//67 71//67
f 71//68 67//68 76//78
f 68//1 67//1 77//1
f 77//2 67//2 68//2
f 69//63 68//71 72//71
f 72//72 68//72 69//64
f 64//69 75//75 73//75
f 73//76 75//76 64//70
f 70//1 73//1 78//1
f 78//2 73//2 70//2
f 65//65 74//73 79//73
f 79//74 74//74 65//66
f 70//1 80//1 74//1
f 74//2 80//2 70//2
f 75//2 65//2 81//2
f 81//1 65//1 75//1
f 71//2 72//2 82//2
f 82//1 72//1 71//1
f 67//67 76//77 83//77
f 83//78 76//78 67//68
f 71//2 79//2 76//2
f 76//1 79//1 71//1
f 74//1 77//1 67//1
f 67//2 77//2 74//2
f 77//79 72//71 68//71
f 68//72 72//72 77//80
f 81//81 73//75 75//75
f 75//76 73//76 81//82
f 73//75 81//81 78//81
f 78//82 81//82 73//76
f 70//1 78//1 80//1
f 80//2 78//2 70//2
f 84//83 79//73 74//73
f 74//74 79//74 84//84
f 85//2 65//2 79//2
f 79//1 65//1 85//1
f 74//1 80//1 77//1
f 77//2 80//2 74//2
f 81//2 65//2 85//2
f 85//1 65//1 81//1
f 72//71 77//79 82//79
f 82//80 77//80 72//72
f 82//2 79//2 71//2
f 71//1 79//1 82//1
f 86//85 83//77 76//77
f 76//78 83//78 86//86
f 74//1 67//1 83//1
f 83//2 67//2 74//2
f 76//2 79//2 87//2
f 87//1 79//1 76//1
f 85//87 78//81 81//81
f 81//82 78//82 85//88
f 78//81 85//87 80//87
f 80//88 85//88 78//82
f 79//73 84//83 87//83
f 87//84 84//84 79//74
f 74//1 83//1 84//1
f 84//2 83//2 74//2
f 85//2 79//2 82//2
f 82//1 79//1 85//1
f 80//87 82//79 77//79
f 77//80 82//80 80//88
f 83//77 86//85 88//85
f 88//86 86//86 83//78
f 76//2 87//2 86//2
f 86//1 87//1 76//1
f 82//79 80//87 85//87
f 85//88 80//88 82//80
f 89//89 87//83 84//83
f 84//84 87//84 89//90
f 84//1 83//1 88//1
f 88//2 83//2 84//2
f 90//91 88//85 86//85
f 86//86 88//86 90//92
f 86//2 87//2 91//2
f 91//1 87//1 86//1
f 87//83 89//89 91//89
f 91//90 89//90 87//84
f 84//1 88//1 89//1
f 89//2 88//2 84//2
f 88//85 90//91 92//91
f 92//92 90//92 88//86
f 86//2 91//2 90//2
f 90//1 91//1 86//1
f 93//93 91//89 89//89
f 89//90 91//90 93//94
f 89//1 88//1 92//1
f 92//2 88//2 89//2
f 94//95 92//91 90//91
f 90//92 92//92 94//96
f 90//2 91//2 95//2
f 95//1 91//1 90//1
f 91//89 93//93 95//93
f 95//94 93//94 91//90
f 89//1 92//1 93//1
f 93//2 92//2 89//2
f 92//91 94//95 96//95
f 96//96 94//96 92//92
f 90//2 95//2 94//2
f 94//1 95//1 90//1
f 97//97 95//93 93//93
f 93//94 95//94 97//98
f 93//1 92//1 96//1
f 96//2 92//2 93//2
f 98//97 96//95 94//95
f 94//96 96//96 98//98
f 94//2 95//2 98//2
f 98//1 95//1 94//1
f 95//93 97//97 98//97
f 98//98 97//98 95//94
f 93//1 96//1 97//1
f 97//2 96//2 93//2
f 96//95 98//97 97//97
f 97//98 98//98 96//96
