# SSTK version 0.8.0
# 40
mtllib original-40.mtl
o mesh72/mesh72-geometry#mesh72-geometry
v -0.326252 0.002116 0.003498
v -0.326318 0.002116 0.001047
v -0.326199 0.002116 0.002275
v -0.326476 0.002116 0.004594
v -0.326199 0.003593 0.002275
v -0.326252 0.003593 0.003498
v -0.326476 0.003593 0.004594
v -0.326607 0.002116 -0.000028
v -0.326318 0.003593 0.001047
v -0.326872 0.003593 0.005563
v -0.326872 0.002116 0.005563
v -0.326607 0.003593 -0.000028
v -0.327066 0.002116 -0.000949
v -0.327440 0.003593 0.006405
v -0.327066 0.003593 -0.000949
v -0.327440 0.002116 0.006405
v -0.327695 0.002116 -0.001717
v -0.328148 0.002116 0.007089
v -0.327695 0.003593 -0.001717
v -0.328148 0.003593 0.007089
v -0.327967 0.002116 0.003557
v -0.328965 0.002116 0.007587
v -0.328476 0.003593 -0.002318
v -0.327967 0.003593 0.003557
v -0.328200 0.002116 0.004737
v -0.328002 0.002116 0.002200
v -0.328965 0.003593 0.007587
v -0.328779 0.002116 0.005671
v -0.328476 0.002116 -0.002318
v -0.328083 0.003593 0.001337
v -0.328002 0.003593 0.002200
v -0.328200 0.003593 0.004737
v -0.328083 0.002116 0.001337
v -0.333536 0.002116 0.003702
v -0.328779 0.003593 0.005671
v -0.329890 0.002116 0.007897
v -0.329663 0.002116 0.006312
v -0.329394 0.003593 -0.002737
v -0.328276 0.003593 0.000585
v -0.335296 0.003593 0.002391
v -0.335296 0.002116 0.002391
v -0.329663 0.003593 0.006312
v -0.329890 0.003593 0.007897
v -0.328276 0.002116 0.000585
v -0.329394 0.002116 -0.002737
v -0.328581 0.003593 -0.000055
v -0.333536 0.003593 0.003702
v -0.334008 0.002116 0.006930
v -0.330924 0.002116 0.008019
v -0.330206 0.002116 0.006485
v -0.330206 0.003593 0.006485
v -0.328581 0.002116 -0.000055
v -0.330448 0.003593 -0.002975
v -0.328999 0.003593 -0.000584
v -0.334008 0.003593 0.006930
v -0.333334 0.003593 0.004932
v -0.333382 0.002116 0.007437
v -0.334525 0.002116 0.006273
v -0.335271 0.002116 0.003352
v -0.330924 0.003593 0.008019
v -0.328999 0.002116 -0.000584
v -0.330448 0.002116 -0.002975
v -0.329516 0.003593 -0.000996
v -0.334525 0.003593 0.006273
v -0.333382 0.003593 0.007437
v -0.333334 0.002116 0.004932
v -0.334913 0.002116 0.005478
v -0.335271 0.003593 0.003352
v -0.335165 0.002116 0.004515
v -0.331849 0.002116 0.007972
v -0.330859 0.002116 0.006555
v -0.330859 0.003593 0.006555
v -0.329516 0.002116 -0.000996
v -0.331638 0.003593 -0.003033
v -0.330119 0.003593 -0.001284
v -0.334913 0.003593 0.005478
v -0.332878 0.003593 0.005797
v -0.332878 0.002116 0.005797
v -0.332665 0.003593 0.007782
v -0.335165 0.003593 0.004515
v -0.331849 0.003593 0.007972
v -0.331518 0.002116 0.006521
v -0.330119 0.002116 -0.001284
v -0.331638 0.002116 -0.003033
v -0.330806 0.003593 -0.001448
v -0.332665 0.002116 0.007782
v -0.331518 0.003593 0.006521
v -0.332066 0.002116 0.006380
v -0.330806 0.002116 -0.001448
v -0.332696 0.003593 -0.002930
v -0.331578 0.003593 -0.001488
v -0.332514 0.002116 0.006137
v -0.332514 0.003593 0.006137
v -0.332066 0.003593 0.006380
v -0.331578 0.002116 -0.001488
v -0.332696 0.002116 -0.002930
v -0.332720 0.003593 -0.001326
v -0.332720 0.002116 -0.001326
v -0.333628 0.003593 -0.002689
v -0.333628 0.002116 -0.002689
v -0.333724 0.003593 -0.000960
v -0.333724 0.002116 -0.000960
v -0.334450 0.003593 -0.002379
v -0.334450 0.002116 -0.002379
v -0.334523 0.003593 -0.000520
v -0.334523 0.002116 -0.000520
v -0.335214 0.003593 -0.002053
v -0.335214 0.002116 -0.002053
v -0.335060 0.003593 -0.000124
v -0.335060 0.002116 -0.000124
v -0.335164 0.002116 -0.000121
v -0.335164 0.003593 -0.000121
vn 0 -1 0
vn 0 1 0
vn 0.9839085341444949 0 -0.1786728754949436
vn 0.9996362791612757 0 -0.026968674135000825
vn -0.9996362791612757 0 0.026968674135000825
vn -0.9839085341444949 0 0.1786728754949436
vn 0.9925395501287171 0 0.12192309637752756
vn -0.9925395501287171 0 -0.12192309637752756
vn 0.9568411689498869 0 0.29061138553507165
vn -0.9568411689498869 0 -0.29061138553507165
vn 0.8820152196222467 0 0.47122091672029986
vn -0.8820152196222467 0 -0.47122091672029986
vn 0.9350723217572805 0 -0.35445698340341497
vn -0.9350723217572805 0 0.35445698340341497
vn 0.7662845361832031 0 0.6425013693421153
vn -0.7662845361832031 0 -0.6425013693421153
vn 0.8396877445936245 0 -0.5430695089758513
vn -0.8396877445936245 0 0.5430695089758513
vn 0.611351243645456 0 0.7913593727840431
vn -0.611351243645456 0 -0.7913593727840431
vn 0.6960334744554078 0 -0.71800933311311
vn -0.6960334744554078 0 0.71800933311311
vn 0.4213680413101988 0 0.90688972524911
vn -0.4213680413101988 0 -0.90688972524911
vn 0.515751743159273 0 -0.8567380809956865
vn -0.515751743159273 0 0.8567380809956865
vn -0.9305576565975598 0 -0.36614539154229175
vn -0.981040128858423 0 -0.1938047098742675
vn 0.981040128858423 0 0.1938047098742675
vn 0.9305576565975598 0 0.36614539154229175
vn 0.21857095904393337 0 0.9758210572961701
vn -0.21857095904393337 0 -0.9758210572961701
vn 0.3199192725318546 0 -0.9474448052856107
vn -0.3199192725318546 0 0.9474448052856107
vn -0.7323260850631086 0 -0.6809541138256971
vn 0.7323260850631086 0 0.6809541138256971
vn 0.026176953991975976 0 0.9996573248267139
vn -0.026176953991975976 0 -0.9996573248267139
vn -0.9956936186550526 0 0.09270500401600007
vn -0.9852350559813434 0 0.17120713906096072
vn 0.9852350559813434 0 -0.17120713906096072
vn 0.9956936186550526 0 -0.09270500401600007
vn -0.45114217724683203 0 -0.8924520916603804
vn 0.45114217724683203 0 0.8924520916603804
vn -0.9399680378099798 0 0.3412624911935919
vn 0.9399680378099798 0 -0.3412624911935919
vn 0.033735617303230034 0 0.9994307920637477
vn -0.033735617303230034 0 -0.9994307920637477
vn -0.20641487767185487 0 -0.9784645615839713
vn 0.20641487767185487 0 0.9784645615839713
vn 0.1350279899786572 0 -0.9908417845056412
vn -0.1350279899786572 0 0.9908417845056412
vn -0.8487840083964022 0 0.5287397347377404
vn 0.8487840083964022 0 -0.5287397347377404
vn 0.9479302147536397 0 -0.31847811221042943
vn 0.9867886931599443 0 -0.16201257683182957
vn -0.9867886931599443 0 0.16201257683182957
vn -0.9479302147536397 0 0.31847811221042943
vn -0.9982899143520504 0 0.05845722284693218
vn -0.9996573248267139 0 0.02617695399197595
vn 0.9996573248267139 0 -0.02617695399197595
vn 0.9982899143520504 0 -0.05845722284693218
vn -0.7082074154463538 0 0.7060044310815589
vn 0.7082074154463538 0 -0.7060044310815589
vn -0.5348328695819949 0 0.8449578697276502
vn -0.7120257932555113 0 0.7021533092842757
vn 0.5348328695819949 0 -0.8449578697276502
vn 0.7120257932555113 0 -0.7021533092842757
vn -0.8469195357825811 0 0.5317210734114431
vn 0.8469195357825811 0 -0.5317210734114431
vn -0.1395007967930943 0 0.9902219588022131
vn 0.1395007967930943 0 -0.9902219588022131
vn -0.027353532893042348 0 -0.9996258221145896
vn 0.027353532893042348 0 0.9996258221145896
vn -0.024425513368846626 0 -0.9997016526427613
vn 0.024425513368846626 0 0.9997016526427613
vn -0.5302771250392292 0 0.8478243748914804
vn 0.5302771250392292 0 -0.8478243748914804
vn 0.7944253700064069 0 -0.6073617797410237
vn -0.7944253700064069 0 0.6073617797410237
vn -0.33244488219621565 0 0.9431226857103716
vn 0.33244488219621565 0 -0.9431226857103716
vn -0.9376370937896323 0 0.3476157078581634
vn 0.9376370937896323 0 -0.3476157078581634
vn -0.9850576569840874 0 0.1722248890753598
vn 0.9850576569840874 0 -0.1722248890753598
vn -0.33354653792420047 0 0.9427336352537656
vn 0.33354653792420047 0 -0.9427336352537656
vn 0.1519409521565679 0 -0.9883895725156935
vn -0.1519409521565679 0 0.9883895725156935
vn -0.17436276353862337 0 -0.9846814848930461
vn 0.17436276353862337 0 0.9846814848930461
vn -0.1428655503305902 0 0.9897421050600697
vn 0.1428655503305902 0 -0.9897421050600697
vn 0.5839814881327902 0 -0.8117669748876286
vn -0.5839814881327902 0 0.8117669748876286
vn 0.36585309870721244 0 -0.9306726116988352
vn -0.36585309870721244 0 0.9306726116988352
vn 0.044263470018340315 0 0.9990198923054213
vn -0.044263470018340315 0 -0.9990198923054213
vn -0.3017997327440984 0 -0.9533713449205357
vn 0.3017997327440984 0 0.9533713449205357
vn 0.24266563611659303 0 0.9701099881189397
vn -0.24266563611659303 0 -0.9701099881189397
vn 0.4136905997161488 0 0.910417534819323
vn -0.4136905997161488 0 -0.910417534819323
vn -0.37247185816019573 0 -0.9280434876010344
vn 0.37247185816019573 0 0.9280434876010344
vn 0.5393925742666016 0 0.8420544227222186
vn -0.5393925742666016 0 -0.8420544227222186
vn -0.39266593737143346 0 -0.9196811739011589
vn 0.39266593737143346 0 0.9196811739011589
vn 0.5937794805660397 0 0.8046278198389143
vn -0.5937794805660397 0 -0.8046278198389143
usemtl material_0_0
f 1//1 2//1 3//1
f 2//1 1//1 4//1
f 3//2 2//2 1//2
f 4//2 1//2 2//2
f 2//3 5//4 3//4
f 3//5 5//5 2//6
f 3//4 6//7 1//7
f 1//8 6//8 3//5
f 1//7 7//9 4//9
f 4//10 7//10 1//8
f 2//1 4//1 8//1
f 8//2 4//2 2//2
f 5//4 2//3 9//3
f 9//6 2//6 5//5
f 6//7 3//4 5//4
f 5//5 3//5 6//8
f 7//9 1//7 6//7
f 6//8 1//8 7//10
f 10//11 4//9 7//9
f 7//10 4//10 10//12
f 8//1 4//1 11//1
f 11//2 4//2 8//2
f 8//13 9//3 2//3
f 2//6 9//6 8//14
f 9//2 6//2 5//2
f 5//1 6//1 9//1
f 6//2 9//2 7//2
f 7//1 9//1 6//1
f 4//9 10//11 11//11
f 11//12 10//12 4//10
f 7//2 12//2 10//2
f 10//1 12//1 7//1
f 8//1 11//1 13//1
f 13//2 11//2 8//2
f 9//3 8//13 12//13
f 12//14 8//14 9//6
f 7//2 9//2 12//2
f 12//1 9//1 7//1
f 14//15 11//11 10//11
f 10//12 11//12 14//16
f 10//2 12//2 15//2
f 15//1 12//1 10//1
f 13//1 11//1 16//1
f 16//2 11//2 13//2
f 13//17 12//13 8//13
f 8//14 12//14 13//18
f 11//11 14//15 16//15
f 16//16 14//16 11//12
f 10//2 15//2 14//2
f 14//1 15//1 10//1
f 12//13 13//17 15//17
f 15//18 13//18 12//14
f 13//1 16//1 17//1
f 17//2 16//2 13//2
f 14//15 18//19 16//15
f 16//16 18//20 14//16
f 14//2 15//2 19//2
f 19//1 15//1 14//1
f 17//21 15//17 13//17
f 13//18 15//18 17//22
f 17//1 16//1 18//1
f 18//2 16//2 17//2
f 18//19 14//15 20//19
f 20//20 14//16 18//20
f 15//17 17//21 19//21
f 19//22 17//22 15//18
f 14//2 19//2 20//2
f 20//1 19//1 14//1
f 17//1 18//1 21//1
f 21//2 18//2 17//2
f 20//19 22//23 18//19
f 18//20 22//24 20//20
f 17//21 23//25 19//21
f 19//22 23//26 17//22
f 20//2 19//2 24//2
f 24//1 19//1 20//1
f 21//1 18//1 25//1
f 25//2 18//2 21//2
f 26//1 17//1 21//1
f 21//2 17//2 26//2
f 22//23 20//19 27//23
f 27//24 20//20 22//24
f 28//1 18//1 22//1
f 22//2 18//2 28//2
f 23//25 17//21 29//25
f 29//26 17//22 23//26
f 30//2 19//2 23//2
f 23//1 19//1 30//1
f 24//2 19//2 31//2
f 31//1 19//1 24//1
f 20//2 24//2 32//2
f 32//1 24//1 20//1
f 25//1 18//1 28//1
f 28//2 18//2 25//2
f 25//27 24//28 21//28
f 21//29 24//29 25//30
f 33//1 17//1 26//1
f 26//2 17//2 33//2
f 34//1 26//1 21//1
f 21//2 26//2 34//2
f 20//2 35//2 27//2
f 27//1 35//1 20//1
f 27//23 36//31 22//23
f 22//24 36//32 27//24
f 28//1 22//1 37//1
f 37//2 22//2 28//2
f 17//1 33//1 29//1
f 29//2 33//2 17//2
f 29//25 38//33 23//25
f 23//26 38//34 29//26
f 19//2 30//2 31//2
f 31//1 30//1 19//1
f 30//2 23//2 39//2
f 39//1 23//1 30//1
f 40//2 24//2 31//2
f 31//1 24//1 40//1
f 24//28 25//27 32//27
f 32//30 25//30 24//29
f 20//2 32//2 35//2
f 35//1 32//1 20//1
f 28//35 32//27 25//27
f 25//30 32//30 28//36
f 24//37 34//37 21//37
f 21//38 34//38 24//38
f 26//39 30//40 33//40
f 33//41 30//41 26//42
f 26//1 34//1 41//1
f 41//2 34//2 26//2
f 27//2 35//2 42//2
f 42//1 35//1 27//1
f 36//31 27//23 43//31
f 43//32 27//24 36//32
f 37//1 22//1 36//1
f 36//2 22//2 37//2
f 42//43 28//35 37//43
f 37//44 28//36 42//44
f 29//1 33//1 44//1
f 44//2 33//2 29//2
f 38//33 29//25 45//33
f 45//34 29//26 38//34
f 46//2 23//2 38//2
f 38//1 23//1 46//1
f 30//40 26//39 31//39
f 31//42 26//42 30//41
f 39//2 23//2 46//2
f 46//1 23//1 39//1
f 39//45 33//40 30//40
f 30//41 33//41 39//46
f 24//2 40//2 47//2
f 47//1 40//1 24//1
f 26//38 40//38 31//38
f 31//37 40//37 26//37
f 32//27 28//35 35//35
f 35//36 28//36 32//30
f 34//37 24//37 47//37
f 47//38 24//38 34//38
f 41//1 34//1 48//1
f 48//2 34//2 41//2
f 40//38 26//38 41//38
f 41//37 26//37 40//37
f 28//35 42//43 35//35
f 35//36 42//44 28//36
f 27//2 42//2 43//2
f 43//1 42//1 27//1
f 43//31 49//47 36//31
f 36//32 49//48 43//32
f 37//1 36//1 50//1
f 50//2 36//2 37//2
f 37//43 51//49 42//43
f 42//44 51//50 37//44
f 33//40 39//45 44//45
f 44//46 39//46 33//41
f 29//1 44//1 52//1
f 52//2 44//2 29//2
f 29//1 52//1 45//1
f 45//2 52//2 29//2
f 45//33 53//51 38//33
f 38//34 53//52 45//34
f 46//2 38//2 54//2
f 54//1 38//1 46//1
f 46//53 44//45 39//45
f 39//46 44//46 46//54
f 47//2 40//2 55//2
f 55//1 40//1 47//1
f 56//55 34//56 47//56
f 47//57 34//57 56//58
f 34//1 57//1 48//1
f 48//2 57//2 34//2
f 41//1 48//1 58//1
f 58//2 48//2 41//2
f 59//59 40//60 41//60
f 41//61 40//61 59//62
f 43//2 42//2 51//2
f 51//1 42//1 43//1
f 49//47 43//31 60//47
f 60//48 43//32 49//48
f 50//1 36//1 49//1
f 49//2 36//2 50//2
f 51//49 37//43 50//49
f 50//50 37//44 51//50
f 44//45 46//53 52//53
f 52//54 46//54 44//46
f 45//1 52//1 61//1
f 61//2 52//2 45//2
f 53//51 45//33 62//51
f 62//52 45//34 53//52
f 63//2 38//2 53//2
f 53//1 38//1 63//1
f 54//2 38//2 63//2
f 63//1 38//1 54//1
f 54//63 52//53 46//53
f 46//54 52//54 54//64
f 55//2 40//2 64//2
f 64//1 40//1 55//1
f 65//2 47//2 55//2
f 55//1 47//1 65//1
f 34//56 56//55 66//55
f 66//58 56//58 34//57
f 65//2 56//2 47//2
f 47//1 56//1 65//1
f 66//1 57//1 34//1
f 34//2 57//2 66//2
f 65//65 48//66 57//65
f 57//67 48//68 65//67
f 48//66 64//69 58//69
f 58//70 64//70 48//68
f 41//1 58//1 67//1
f 67//2 58//2 41//2
f 40//60 59//59 68//59
f 68//62 59//62 40//61
f 41//1 69//1 59//1
f 59//2 69//2 41//2
f 43//2 51//2 60//2
f 60//1 51//1 43//1
f 60//47 70//71 49//47
f 49//48 70//72 60//48
f 50//1 49//1 71//1
f 71//2 49//2 50//2
f 50//49 72//73 51//49
f 51//50 72//74 50//50
f 52//53 54//63 61//63
f 61//64 54//64 52//54
f 45//1 61//1 73//1
f 73//2 61//2 45//2
f 45//1 73//1 62//1
f 62//2 73//2 45//2
f 62//51 74//75 53//51
f 53//52 74//76 62//52
f 63//2 53//2 75//2
f 75//1 53//1 63//1
f 73//77 54//63 63//77
f 63//78 54//64 73//78
f 64//2 40//2 76//2
f 76//1 40//1 64//1
f 64//69 48//66 55//66
f 55//68 48//68 64//70
f 48//66 65//65 55//66
f 55//68 65//67 48//68
f 77//79 66//55 56//55
f 56//58 66//58 77//80
f 65//2 77//2 56//2
f 56//1 77//1 65//1
f 78//1 57//1 66//1
f 66//2 57//2 78//2
f 57//65 79//81 65//65
f 65//67 79//82 57//67
f 76//83 58//69 64//69
f 64//70 58//70 76//84
f 58//69 76//83 67//83
f 67//84 76//84 58//70
f 41//1 67//1 69//1
f 69//2 67//2 41//2
f 69//85 68//59 59//59
f 59//62 68//62 69//86
f 80//2 40//2 68//2
f 68//1 40//1 80//1
f 60//2 51//2 72//2
f 72//1 51//1 60//1
f 70//71 60//47 81//71
f 81//72 60//48 70//72
f 82//1 49//1 70//1
f 70//2 49//2 82//2
f 71//1 49//1 82//1
f 82//2 49//2 71//2
f 72//73 50//49 71//73
f 71//74 50//50 72//74
f 54//63 73//77 61//63
f 61//64 73//78 54//64
f 62//1 73//1 83//1
f 83//2 73//2 62//2
f 74//75 62//51 84//75
f 84//76 62//52 74//76
f 85//2 53//2 74//2
f 74//1 53//1 85//1
f 75//2 53//2 85//2
f 85//1 53//1 75//1
f 83//87 63//77 75//87
f 75//88 63//78 83//88
f 63//77 83//87 73//77
f 73//78 83//88 63//78
f 76//2 40//2 80//2
f 80//1 40//1 76//1
f 66//55 77//79 78//79
f 78//80 77//80 66//58
f 79//2 77//2 65//2
f 65//1 77//1 79//1
f 78//1 86//1 57//1
f 57//2 86//2 78//2
f 79//81 57//65 86//81
f 86//82 57//67 79//82
f 80//85 67//83 76//83
f 76//84 67//84 80//86
f 67//83 80//85 69//85
f 69//86 80//86 67//84
f 68//59 69//85 80//85
f 80//86 69//86 68//62
f 60//2 72//2 87//2
f 87//1 72//1 60//1
f 60//2 87//2 81//2
f 81//1 87//1 60//1
f 81//71 86//81 70//71
f 70//72 86//82 81//72
f 82//1 70//1 88//1
f 88//2 70//2 82//2
f 87//89 71//73 82//89
f 82//90 71//74 87//90
f 71//73 87//89 72//73
f 72//74 87//90 71//74
f 62//1 83//1 89//1
f 89//2 83//2 62//2
f 62//1 89//1 84//1
f 84//2 89//2 62//2
f 84//75 90//91 74//75
f 74//76 90//92 84//76
f 85//2 74//2 91//2
f 91//1 74//1 85//1
f 89//93 75//87 85//93
f 85//94 75//88 89//94
f 75//87 89//93 83//87
f 83//88 89//94 75//88
f 77//79 92//95 78//79
f 78//80 92//96 77//80
f 79//2 93//2 77//2
f 77//1 93//1 79//1
f 92//1 86//1 78//1
f 78//2 86//2 92//2
f 86//81 81//71 79//81
f 79//82 81//72 86//82
f 81//2 87//2 94//2
f 94//1 87//1 81//1
f 88//1 70//1 86//1
f 86//2 70//2 88//2
f 94//97 82//89 88//97
f 88//98 82//90 94//98
f 82//89 94//97 87//89
f 87//90 94//98 82//90
f 84//1 89//1 95//1
f 95//2 89//2 84//2
f 90//91 84//75 96//91
f 96//92 84//76 90//92
f 97//2 74//2 90//2
f 90//1 74//1 97//1
f 91//2 74//2 97//2
f 97//1 74//1 91//1
f 95//99 85//93 91//99
f 91//100 85//94 95//100
f 85//93 95//99 89//93
f 89//94 95//100 85//94
f 92//95 77//79 93//95
f 93//96 77//80 92//96
f 79//2 94//2 93//2
f 93//1 94//1 79//1
f 88//1 86//1 92//1
f 92//2 86//2 88//2
f 81//2 94//2 79//2
f 79//1 94//1 81//1
f 88//97 93//95 94//97
f 94//98 93//96 88//98
f 84//1 95//1 98//1
f 98//2 95//2 84//2
f 84//1 98//1 96//1
f 96//2 98//2 84//2
f 96//91 99//101 90//91
f 90//92 99//102 96//92
f 97//2 90//2 99//2
f 99//1 90//1 97//1
f 98//103 91//99 97//103
f 97//104 91//100 98//104
f 91//99 98//103 95//99
f 95//100 98//104 91//100
f 93//95 88//97 92//95
f 92//96 88//98 93//96
f 96//1 98//1 100//1
f 100//2 98//2 96//2
f 99//101 96//91 100//101
f 100//102 96//92 99//102
f 97//2 99//2 101//2
f 101//1 99//1 97//1
f 97//103 102//105 98//103
f 98//104 102//106 97//104
f 100//1 98//1 102//1
f 102//2 98//2 100//2
f 100//101 103//107 99//101
f 99//102 103//108 100//102
f 101//2 99//2 103//2
f 103//1 99//1 101//1
f 102//105 97//103 101//105
f 101//106 97//104 102//106
f 100//1 102//1 104//1
f 104//2 102//2 100//2
f 103//107 100//101 104//107
f 104//108 100//102 103//108
f 101//2 103//2 105//2
f 105//1 103//1 101//1
f 101//105 106//109 102//105
f 102//106 106//110 101//106
f 104//1 102//1 106//1
f 106//2 102//2 104//2
f 104//107 107//111 103//107
f 103//108 107//112 104//108
f 105//2 103//2 107//2
f 107//1 103//1 105//1
f 106//109 101//105 105//109
f 105//110 101//106 106//110
f 104//1 106//1 108//1
f 108//2 106//2 104//2
f 107//111 104//107 108//111
f 108//112 104//108 107//112
f 105//2 107//2 109//2
f 109//1 107//1 105//1
f 105//109 110//113 106//109
f 106//110 110//114 105//110
f 108//1 106//1 110//1
f 110//2 106//2 108//2
f 111//60 107//60 108//60
f 108//61 107//61 111//61
f 109//2 107//2 112//2
f 112//1 107//1 109//1
f 110//113 105//109 109//113
f 109//114 105//110 110//114
f 108//1 110//1 111//1
f 111//2 110//2 108//2
f 107//60 111//60 112//60
f 112//61 111//61 107//61
f 111//37 109//37 112//37
f 112//38 109//38 111//38
f 109//37 111//37 110//37
f 110//38 111//38 109//38
