# SSTK version 0.8.0
# 3
mtllib original-3.mtl
o cap1/cap/mesh7/mesh7-geometry#mesh7-geometry
v -0.037092 0.617872 -0.085591
v -0.016127 0.732749 -0.094275
v -0.016127 0.617872 -0.094275
v -0.037092 0.732749 -0.085591
v 0.006371 0.732749 -0.097237
v -0.041531 0.617872 -0.093281
v -0.055095 0.617872 -0.071777
v 0.028870 0.732749 -0.094275
v 0.006371 0.617872 -0.097237
v -0.061373 0.617872 -0.078055
v -0.018425 0.617872 -0.102852
v -0.055095 0.732749 -0.071777
v 0.049835 0.732749 -0.085591
v -0.061373 0.741413 -0.078055
v -0.041531 0.741413 -0.093281
v -0.068909 0.732749 -0.053774
v -0.011602 0.732749 -0.077389
v -0.076599 0.617872 -0.058213
v 0.006371 0.732749 -0.079755
v 0.028870 0.617872 -0.094275
v 0.031168 0.617872 -0.102852
v -0.018425 0.741413 -0.102852
v -0.068909 0.617872 -0.053774
v -0.042733 0.732749 -0.059415
v -0.028351 0.732749 -0.070451
v 0.024345 0.732749 -0.077389
v 0.049835 0.617872 -0.085591
v 0.006371 0.617872 -0.106116
v 0.006371 0.741413 -0.079755
v -0.076599 0.741413 -0.058213
v 0.031168 0.741413 -0.102852
v -0.077593 0.732749 -0.032809
v -0.053769 0.732749 -0.045033
v -0.011602 0.741413 -0.077389
v -0.086170 0.617872 -0.035107
v 0.067838 0.732749 -0.071777
v 0.024345 0.741413 -0.077389
v 0.054274 0.617872 -0.093281
v 0.006371 0.741413 -0.106116
v 0.054274 0.741413 -0.093281
v -0.042733 0.741413 -0.059415
v -0.077593 0.617872 -0.032809
v -0.053769 0.741413 -0.045033
v -0.028351 0.741413 -0.070451
v 0.041094 0.732749 -0.070451
v 0.041094 0.741413 -0.070451
v 0.067838 0.617872 -0.071777
v 0.074116 0.617872 -0.078055
v 0.074116 0.741413 -0.078055
v -0.086170 0.741413 -0.035107
v -0.080555 0.732749 -0.010310
v -0.060707 0.732749 -0.028284
v -0.060707 0.741413 -0.028284
v -0.089434 0.617872 -0.010310
v 0.055476 0.732749 -0.059415
v 0.081652 0.617872 -0.053774
v -0.080555 0.617872 -0.010310
v 0.081652 0.732749 -0.053774
v 0.055476 0.741413 -0.059415
v 0.089342 0.617872 -0.058213
v 0.089342 0.741413 -0.058213
v -0.089434 0.741413 -0.010310
v -0.077593 0.732749 0.012188
v -0.063073 0.732749 -0.010310
v -0.063073 0.741413 -0.010310
v -0.077593 0.617872 0.012188
v 0.066512 0.732749 -0.045033
v 0.090336 0.617872 -0.032809
v 0.098913 0.617872 -0.035107
v -0.086170 0.617872 0.014486
v -0.060707 0.732749 0.007663
v 0.090336 0.732749 -0.032809
v 0.066512 0.741413 -0.045033
v 0.098913 0.741413 -0.035107
v -0.060707 0.741413 0.007663
v -0.086170 0.741413 0.014486
v -0.068909 0.732749 0.033153
v -0.053769 0.732749 0.024412
v -0.068909 0.617872 0.033153
v 0.073450 0.732749 -0.028284
v 0.093298 0.617872 -0.010310
v 0.102177 0.741413 -0.010310
v -0.076599 0.617872 0.037593
v -0.053769 0.741413 0.024412
v 0.075816 0.732749 -0.010310
v 0.073450 0.741413 -0.028284
v 0.093298 0.732749 -0.010310
v 0.102177 0.617872 -0.010310
v -0.076599 0.741413 0.037593
v -0.055095 0.732749 0.051156
v -0.042733 0.732749 0.038794
v -0.042733 0.741413 0.038794
v -0.055095 0.617872 0.051156
v 0.090336 0.617872 0.012188
v 0.098913 0.741413 0.014486
v 0.075816 0.741413 -0.010310
v -0.061373 0.617872 0.057435
v -0.028351 0.732749 0.049831
v 0.073450 0.732749 0.007663
v 0.090336 0.732749 0.012188
v 0.098913 0.617872 0.014486
v 0.073450 0.741413 0.007663
v -0.061373 0.741413 0.057435
v -0.037092 0.617872 0.064970
v -0.011602 0.732749 0.056768
v -0.028351 0.741413 0.049831
v 0.081652 0.617872 0.033153
v 0.089342 0.741413 0.037593
v 0.066512 0.741413 0.024412
v -0.011602 0.741413 0.056768
v -0.041531 0.741413 0.072660
v -0.037092 0.732749 0.064970
v 0.006371 0.732749 0.059134
v -0.041531 0.617872 0.072660
v 0.066512 0.732749 0.024412
v 0.081652 0.732749 0.033153
v 0.089342 0.617872 0.037593
v 0.006371 0.741413 0.059134
v 0.054274 0.741413 0.072660
v -0.016127 0.617872 0.073654
v 0.067838 0.617872 0.051156
v 0.074116 0.741413 0.057435
v 0.055476 0.741413 0.038794
v 0.055476 0.732749 0.038794
v -0.018425 0.741413 0.082231
v 0.031168 0.741413 0.082231
v -0.016127 0.732749 0.073654
v 0.067838 0.732749 0.051156
v 0.006371 0.617872 0.076616
v 0.074116 0.617872 0.057435
v 0.024345 0.741413 0.056768
v 0.041094 0.741413 0.049831
v 0.024345 0.732749 0.056768
v -0.018425 0.617872 0.082231
v 0.031168 0.617872 0.082231
v 0.049835 0.732749 0.064970
v 0.041094 0.732749 0.049831
v 0.049835 0.617872 0.064970
v 0.054274 0.617872 0.072660
v 0.006371 0.741413 0.085496
v 0.006371 0.617872 0.085496
v 0.006371 0.732749 0.076616
v 0.028870 0.732749 0.073654
v 0.028870 0.617872 0.073654
vn -0.5000001748438417 0 -0.8660253028382762
vn -0.2588189595935754 0 -0.965925849201117
vn 0.2588189595935754 0 0.965925849201117
vn 0.5000001748438417 0 0.8660253028382762
vn 0 0 -1
vn 0 0 1
vn 0 1 0
vn 0 -1 0
vn -0.7071067811865475 0 -0.7071067811865475
vn 0.7071067811865475 0 0.7071067811865475
vn 0.2588189595935754 0 -0.965925849201117
vn -0.2588189595935754 0 0.965925849201117
vn -0.8660253028382762 0 -0.5000001748438417
vn 0.8660253028382762 0 0.5000001748438417
vn 0.5000001748438417 0 -0.8660253028382762
vn -0.5000001748438417 0 0.8660253028382762
vn -0.965925849201117 0 -0.2588189595935754
vn 0.965925849201117 0 0.2588189595935754
vn 0.7071067811865475 0 -0.7071067811865475
vn -0.7071067811865475 0 0.7071067811865475
vn -1 0 0
vn 1 0 0
vn 0.8660253028382762 0 -0.5000001748438417
vn -0.8660253028382762 0 0.5000001748438417
vn -0.965925849201117 0 0.2588189595935754
vn 0.965925849201117 0 -0.2588189595935754
usemtl material_0_0
f 1//1 2//2 3//2
f 2//2 1//1 4//1
f 3//3 2//3 1//4
f 4//4 1//4 2//3
f 5//5 3//2 2//2
f 2//3 3//3 5//6
f 6//7 1//7 3//7
f 3//8 1//8 6//8
f 7//9 4//1 1//1
f 1//4 4//4 7//10
f 4//7 8//7 2//7
f 2//8 8//8 4//8
f 3//2 5//5 9//5
f 9//6 5//6 3//3
f 2//7 8//7 5//7
f 5//8 8//8 2//8
f 10//7 1//7 6//7
f 6//8 1//8 10//8
f 6//7 3//7 11//7
f 11//8 3//8 6//8
f 4//1 7//9 12//9
f 12//10 7//10 4//4
f 10//7 7//7 1//7
f 1//8 7//8 10//8
f 4//7 13//7 8//7
f 8//8 13//8 4//8
f 8//11 9//5 5//5
f 5//6 9//6 8//12
f 11//7 3//7 9//7
f 9//8 3//8 11//8
f 6//4 14//10 10//10
f 10//9 14//9 6//1
f 11//3 15//4 6//4
f 6//1 15//1 11//2
f 7//9 16//13 12//9
f 12//10 16//14 7//10
f 12//7 17//7 4//7
f 4//8 17//8 12//8
f 18//7 7//7 10//7
f 10//8 7//8 18//8
f 4//7 19//7 13//7
f 13//8 19//8 4//8
f 13//15 20//11 8//11
f 8//12 20//12 13//16
f 9//5 8//11 20//11
f 20//12 8//12 9//6
f 11//7 9//7 21//7
f 21//8 9//8 11//8
f 14//10 6//4 15//4
f 15//1 6//1 14//9
f 14//10 18//14 10//10
f 10//9 18//13 14//9
f 15//4 11//3 22//3
f 22//2 11//2 15//1
f 16//13 7//9 23//13
f 23//14 7//10 16//14
f 16//7 24//7 12//7
f 12//8 24//8 16//8
f 12//7 25//7 17//7
f 17//8 25//8 12//8
f 4//7 17//7 19//7
f 19//8 17//8 4//8
f 18//7 23//7 7//7
f 7//8 23//8 18//8
f 26//7 13//7 19//7
f 19//8 13//8 26//8
f 20//11 13//15 27//15
f 27//16 13//16 20//12
f 20//7 21//7 9//7
f 9//8 21//8 20//8
f 11//7 21//7 28//7
f 28//8 21//8 11//8
f 29//8 14//8 15//8
f 15//7 14//7 29//7
f 18//14 14//10 30//14
f 30//13 14//9 18//13
f 28//6 22//3 11//3
f 11//2 22//2 28//5
f 31//8 15//8 22//8
f 22//7 15//7 31//7
f 23//13 32//17 16//13
f 16//14 32//18 23//14
f 16//7 33//7 24//7
f 24//8 33//8 16//8
f 12//7 24//7 25//7
f 25//8 24//8 12//8
f 25//1 34//2 17//2
f 17//3 34//3 25//4
f 17//2 29//5 19//5
f 19//6 29//6 17//3
f 35//7 23//7 18//7
f 18//8 23//8 35//8
f 26//7 36//7 13//7
f 13//8 36//8 26//8
f 19//5 37//11 26//11
f 26//12 37//12 19//6
f 36//19 27//15 13//15
f 13//16 27//16 36//20
f 27//7 38//7 20//7
f 20//8 38//8 27//8
f 20//7 38//7 21//7
f 21//8 38//8 20//8
f 21//12 39//6 28//6
f 28//5 39//5 21//11
f 34//8 14//8 29//8
f 29//7 14//7 34//7
f 29//8 15//8 40//8
f 40//7 15//7 29//7
f 41//8 30//8 14//8
f 14//7 30//7 41//7
f 30//14 35//18 18//14
f 18//13 35//17 30//13
f 22//3 28//6 39//6
f 39//5 28//5 22//2
f 40//8 15//8 31//8
f 31//7 15//7 40//7
f 31//8 22//8 39//8
f 39//7 22//7 31//7
f 32//17 23//13 42//17
f 42//18 23//14 32//18
f 32//7 33//7 16//7
f 16//8 33//8 32//8
f 43//13 24//9 33//13
f 33//14 24//10 43//14
f 24//9 44//1 25//1
f 25//4 44//4 24//10
f 34//2 25//1 44//1
f 44//4 25//4 34//3
f 29//5 17//2 34//2
f 34//3 17//3 29//6
f 37//11 19//5 29//5
f 29//6 19//6 37//12
f 35//7 42//7 23//7
f 23//8 42//8 35//8
f 45//7 36//7 26//7
f 26//8 36//8 45//8
f 46//15 26//11 37//11
f 37//12 26//12 46//16
f 27//15 36//19 47//19
f 47//20 36//20 27//16
f 27//7 48//7 38//7
f 38//8 48//8 27//8
f 38//16 31//12 21//12
f 21//11 31//11 38//15
f 39//6 21//12 31//12
f 31//11 21//11 39//5
f 44//8 14//8 34//8
f 34//7 14//7 44//7
f 49//8 29//8 40//8
f 40//7 29//7 49//7
f 43//8 30//8 41//8
f 41//7 30//7 43//7
f 41//8 14//8 44//8
f 44//7 14//7 41//7
f 35//18 30//14 50//18
f 50//17 30//13 35//17
f 31//12 38//16 40//16
f 40//15 38//15 31//11
f 42//17 51//21 32//17
f 32//18 51//22 42//18
f 32//7 52//7 33//7
f 33//8 52//8 32//8
f 24//9 43//13 41//9
f 41//10 43//14 24//10
f 33//13 53//17 43//13
f 43//14 53//18 33//14
f 44//1 24//9 41//9
f 41//10 24//10 44//4
f 49//8 37//8 29//8
f 29//7 37//7 49//7
f 54//7 42//7 35//7
f 35//8 42//8 54//8
f 55//7 36//7 45//7
f 45//8 36//8 55//8
f 26//11 46//15 45//15
f 45//16 46//16 26//12
f 49//8 46//8 37//8
f 37//7 46//7 49//7
f 36//19 56//23 47//19
f 47//20 56//24 36//20
f 47//7 48//7 27//7
f 27//8 48//8 47//8
f 48//20 40//16 38//16
f 38//15 40//15 48//19
f 40//16 48//20 49//20
f 49//19 48//19 40//15
f 43//8 50//8 30//8
f 30//7 50//7 43//7
f 50//18 54//22 35//18
f 35//17 54//21 50//17
f 51//21 42//17 57//21
f 57//22 42//18 51//22
f 51//7 52//7 32//7
f 32//8 52//8 51//8
f 53//17 33//13 52//17
f 52//18 33//14 53//18
f 53//8 50//8 43//8
f 43//7 50//7 53//7
f 54//7 57//7 42//7
f 42//8 57//8 54//8
f 55//7 58//7 36//7
f 36//8 58//8 55//8
f 45//15 59//19 55//19
f 55//20 59//20 45//16
f 59//19 45//15 46//15
f 46//16 45//16 59//20
f 49//8 59//8 46//8
f 46//7 59//7 49//7
f 56//23 36//19 58//23
f 58//24 36//20 56//24
f 56//7 60//7 47//7
f 47//8 60//8 56//8
f 47//7 60//7 48//7
f 48//8 60//8 47//8
f 48//20 61//24 49//20
f 49//19 61//23 48//19
f 54//22 50//18 62//22
f 62//21 50//17 54//21
f 57//21 63//25 51//21
f 51//22 63//26 57//22
f 51//7 64//7 52//7
f 52//8 64//8 51//8
f 52//17 65//21 53//17
f 53//18 65//22 52//18
f 65//8 50//8 53//8
f 53//7 50//7 65//7
f 54//7 66//7 57//7
f 57//8 66//8 54//8
f 67//7 58//7 55//7
f 55//8 58//8 67//8
f 59//19 67//23 55//19
f 55//20 67//24 59//20
f 61//8 59//8 49//8
f 49//7 59//7 61//7
f 58//23 68//26 56//23
f 56//24 68//25 58//24
f 56//7 69//7 60//7
f 60//8 69//8 56//8
f 61//24 48//20 60//24
f 60//23 48//19 61//23
f 65//8 62//8 50//8
f 50//7 62//7 65//7
f 62//22 70//26 54//22
f 54//21 70//25 62//21
f 63//25 57//21 66//25
f 66//26 57//22 63//26
f 63//7 71//7 51//7
f 51//8 71//8 63//8
f 51//7 71//7 64//7
f 64//8 71//8 51//8
f 65//21 52//17 64//21
f 64//22 52//18 65//22
f 70//7 66//7 54//7
f 54//8 66//8 70//8
f 67//7 72//7 58//7
f 58//8 72//8 67//8
f 67//23 59//19 73//23
f 73//24 59//20 67//24
f 61//8 73//8 59//8
f 59//7 73//7 61//7
f 68//26 58//23 72//26
f 72//25 58//24 68//25
f 68//7 69//7 56//7
f 56//8 69//8 68//8
f 74//25 60//24 69//25
f 69//26 60//23 74//26
f 60//24 74//25 61//24
f 61//23 74//26 60//23
f 75//8 62//8 65//8
f 65//7 62//7 75//7
f 70//26 62//22 76//26
f 76//25 62//21 70//25
f 66//25 77//24 63//25
f 63//26 77//23 66//26
f 63//7 78//7 71//7
f 71//8 78//8 63//8
f 75//25 64//21 71//25
f 71//26 64//22 75//26
f 64//21 75//25 65//21
f 65//22 75//26 64//22
f 70//7 79//7 66//7
f 66//8 79//8 70//8
f 80//7 72//7 67//7
f 67//8 72//8 80//8
f 73//23 80//26 67//23
f 67//24 80//25 73//24
f 74//8 73//8 61//8
f 61//7 73//7 74//7
f 72//26 81//22 68//26
f 68//25 81//21 72//25
f 81//7 69//7 68//7
f 68//8 69//8 81//8
f 69//25 82//21 74//25
f 74//26 82//22 69//26
f 75//8 76//8 62//8
f 62//7 76//7 75//7
f 76//26 83//23 70//26
f 70//25 83//24 76//25
f 77//24 66//25 79//24
f 79//23 66//26 77//23
f 77//7 78//7 63//7
f 63//8 78//8 77//8
f 84//24 71//25 78//24
f 78//23 71//26 84//23
f 71//25 84//24 75//25
f 75//26 84//23 71//26
f 83//7 79//7 70//7
f 70//8 79//8 83//8
f 85//7 72//7 80//7
f 80//8 72//8 85//8
f 80//26 73//23 86//26
f 86//25 73//24 80//25
f 74//8 86//8 73//8
f 73//7 86//7 74//7
f 81//22 72//26 87//22
f 87//21 72//25 81//21
f 81//7 88//7 69//7
f 69//8 88//8 81//8
f 82//21 69//25 88//21
f 88//22 69//26 82//22
f 82//8 86//8 74//8
f 74//7 86//7 82//7
f 84//8 76//8 75//8
f 75//7 76//7 84//7
f 83//23 76//26 89//23
f 89//24 76//25 83//24
f 79//24 90//20 77//24
f 77//23 90//19 79//23
f 77//7 91//7 78//7
f 78//8 91//8 77//8
f 78//24 92//20 84//24
f 84//23 92//19 78//23
f 83//7 93//7 79//7
f 79//8 93//8 83//8
f 85//7 87//7 72//7
f 72//8 87//8 85//8
f 86//26 85//22 80//26
f 80//25 85//21 86//25
f 87//22 94//18 81//22
f 81//21 94//17 87//21
f 94//7 88//7 81//7
f 81//8 88//8 94//8
f 88//21 95//17 82//21
f 82//22 95//18 88//22
f 82//8 96//8 86//8
f 86//7 96//7 82//7
f 84//8 89//8 76//8
f 76//7 89//7 84//7
f 89//23 97//19 83//23
f 83//24 97//20 89//24
f 90//20 79//24 93//20
f 93//19 79//23 90//19
f 90//7 98//7 77//7
f 77//8 98//8 90//8
f 77//7 98//7 91//7
f 91//8 98//8 77//8
f 92//20 78//24 91//20
f 91//19 78//23 92//19
f 92//8 89//8 84//8
f 84//7 89//7 92//7
f 97//7 93//7 83//7
f 83//8 93//8 97//8
f 99//7 87//7 85//7
f 85//8 87//8 99//8
f 85//22 86//26 96//22
f 96//21 86//25 85//21
f 94//18 87//22 100//18
f 100//17 87//21 94//17
f 94//7 101//7 88//7
f 88//8 101//8 94//8
f 95//17 88//21 101//17
f 101//18 88//22 95//18
f 95//8 102//8 82//8
f 82//7 102//7 95//7
f 82//8 102//8 96//8
f 96//7 102//7 82//7
f 97//19 89//23 103//19
f 103//20 89//24 97//20
f 104//16 90//20 93//20
f 93//19 90//19 104//15
f 90//7 105//7 98//7
f 98//8 105//8 90//8
f 98//16 92//20 91//20
f 91//19 92//19 98//15
f 106//8 89//8 92//8
f 92//7 89//7 106//7
f 97//7 104//7 93//7
f 93//8 104//8 97//8
f 99//7 100//7 87//7
f 87//8 100//8 99//8
f 96//22 99//18 85//22
f 85//21 99//17 96//21
f 100//18 107//14 94//18
f 94//17 107//13 100//17
f 107//7 101//7 94//7
f 94//8 101//8 107//8
f 101//17 108//13 95//17
f 95//18 108//14 101//18
f 95//8 109//8 102//8
f 102//7 109//7 95//7
f 99//18 96//22 102//18
f 102//17 96//21 99//17
f 110//8 103//8 89//8
f 89//7 103//7 110//7
f 111//15 97//19 103//19
f 103//20 97//20 111//16
f 90//20 104//16 112//16
f 112//15 104//15 90//19
f 90//7 113//7 105//7
f 105//8 113//8 90//8
f 105//12 106//16 98//16
f 98//15 106//15 105//11
f 92//20 98//16 106//16
f 106//15 98//15 92//19
f 110//8 89//8 106//8
f 106//7 89//7 110//7
f 114//7 104//7 97//7
f 97//8 104//8 114//8
f 115//7 100//7 99//7
f 99//8 100//8 115//8
f 107//14 100//18 116//14
f 116//13 100//17 107//13
f 107//7 117//7 101//7
f 101//8 117//8 107//8
f 108//13 101//17 117//13
f 117//14 101//18 108//14
f 108//8 109//8 95//8
f 95//7 109//7 108//7
f 115//14 102//18 109//14
f 109//13 102//17 115//13
f 102//18 115//14 99//18
f 99//17 115//13 102//17
f 118//8 103//8 110//8
f 110//7 103//7 118//7
f 97//19 111//15 114//15
f 114//16 111//16 97//20
f 119//8 111//8 103//8
f 103//7 111//7 119//7
f 120//12 112//16 104//16
f 104//15 112//15 120//11
f 113//7 90//7 112//7
f 112//8 90//8 113//8
f 113//6 110//12 105//12
f 105//11 110//11 113//5
f 106//16 105//12 110//12
f 110//11 105//11 106//15
f 114//7 120//7 104//7
f 104//8 120//8 114//8
f 115//7 116//7 100//7
f 100//8 116//8 115//8
f 116//14 121//10 107//14
f 107//13 121//9 116//13
f 121//7 117//7 107//7
f 107//8 117//8 121//8
f 117//13 122//9 108//13
f 108//14 122//10 117//14
f 108//8 123//8 109//8
f 109//7 123//7 108//7
f 109//14 124//10 115//14
f 115//13 124//9 109//13
f 119//8 103//8 118//8
f 118//7 103//7 119//7
f 110//12 113//6 118//6
f 118//5 113//5 110//11
f 125//11 114//15 111//15
f 111//16 114//16 125//12
f 126//8 111//8 119//8
f 119//7 111//7 126//7
f 112//16 120//12 127//12
f 127//11 120//11 112//15
f 112//7 128//7 113//7
f 113//8 128//8 112//8
f 114//7 129//7 120//7
f 120//8 129//8 114//8
f 124//7 116//7 115//7
f 115//8 116//8 124//8
f 121//10 116//14 128//10
f 128//9 116//13 121//9
f 121//7 130//7 117//7
f 117//8 130//8 121//8
f 122//9 117//13 130//9
f 130//10 117//14 122//10
f 122//8 131//8 108//8
f 108//7 131//7 122//7
f 108//8 132//8 123//8
f 123//7 132//7 108//7
f 124//10 109//14 123//10
f 123//9 109//13 124//9
f 118//8 122//8 119//8
f 119//7 122//7 118//7
f 133//3 118//6 113//6
f 113//5 118//5 133//2
f 114//15 125//11 134//11
f 134//12 125//12 114//16
f 126//8 125//8 111//8
f 111//7 125//7 126//7
f 119//1 135//2 126//2
f 126//3 135//3 119//4
f 129//6 127//12 120//12
f 120//11 127//11 129//5
f 127//7 136//7 112//7
f 112//8 136//8 127//8
f 112//7 136//7 128//7
f 128//8 136//8 112//8
f 113//7 128//7 133//7
f 133//8 128//8 113//8
f 129//7 114//7 134//7
f 134//8 114//8 129//8
f 137//7 116//7 124//7
f 124//8 116//8 137//8
f 137//7 128//7 116//7
f 116//8 128//8 137//8
f 136//4 121//10 128//10
f 128//9 121//9 136//1
f 138//7 130//7 121//7
f 121//8 130//8 138//8
f 139//1 122//9 130//9
f 130//10 122//10 139//4
f 122//8 118//8 131//8
f 131//7 118//7 122//7
f 108//8 131//8 132//8
f 132//7 131//7 108//7
f 132//4 124//10 123//10
f 123//9 124//9 132//1
f 122//9 139//1 119//1
f 119//4 139//4 122//10
f 118//6 133//3 131//3
f 131//2 133//2 118//5
f 140//5 134//11 125//11
f 125//12 134//12 140//6
f 125//8 126//8 140//8
f 140//7 126//7 125//7
f 135//2 119//1 139//1
f 139//4 119//4 135//3
f 141//5 126//2 135//2
f 135//3 126//3 141//6
f 127//12 129//6 142//6
f 142//5 129//5 127//11
f 127//7 143//7 136//7
f 136//8 143//8 127//8
f 133//7 128//7 137//7
f 137//8 128//8 133//8
f 134//7 139//7 129//7
f 129//8 139//8 134//8
f 124//10 132//4 137//4
f 137//1 132//1 124//9
f 121//10 136//4 138//4
f 138//1 136//1 121//9
f 138//7 139//7 130//7
f 130//8 139//8 138//8
f 131//3 137//4 132//4
f 132//1 137//1 131//2
f 137//4 131//3 133//3
f 133//2 131//2 137//1
f 134//11 140//5 141//5
f 141//6 140//6 134//12
f 126//2 141//5 140//5
f 140//6 141//6 126//3
f 134//7 135//7 139//7
f 139//8 135//8 134//8
f 135//7 134//7 141//7
f 141//8 134//8 135//8
f 144//3 142//6 129//6
f 129//5 142//5 144//2
f 143//7 127//7 142//7
f 142//8 127//8 143//8
f 143//3 138//4 136//4
f 136//1 138//1 143//2
f 129//7 139//7 144//7
f 144//8 139//8 129//8
f 144//7 139//7 138//7
f 138//8 139//8 144//8
f 142//6 144//3 143//3
f 143//2 144//2 142//5
f 138//4 143//3 144//3
f 144//2 143//2 138//1
