# SSTK version 0.8.0
# 5
mtllib original-5.mtl
o trigger1/trigger/mesh12/mesh12-geometry#mesh12-geometry
v -0.018783 0.731574 0.232688
v 0.030375 0.738277 0.231446
v 0.030375 0.731574 0.232688
v -0.018783 0.738277 0.231446
v 0.030375 0.740470 0.257466
v -0.018783 0.725028 0.234591
v -0.018783 0.740470 0.257466
v 0.030375 0.741545 0.230769
v 0.030375 0.729256 0.266566
v 0.030375 0.725028 0.234591
v -0.018783 0.729256 0.266566
v -0.018783 0.741545 0.230769
v 0.030375 0.752532 0.249525
v -0.018783 0.718705 0.237138
v -0.018783 0.719003 0.276735
v -0.018783 0.752532 0.249525
v 0.030375 0.744685 0.229635
v 0.030375 0.719003 0.276735
v 0.030375 0.718705 0.237138
v -0.018783 0.744685 0.229635
v 0.030375 0.747631 0.228067
v -0.018783 0.765324 0.242824
v -0.018783 0.712668 0.240302
v -0.018783 0.709812 0.287874
v -0.018783 0.747631 0.228067
v 0.030375 0.712668 0.240302
v 0.030375 0.750326 0.226097
v 0.030375 0.765324 0.242824
v -0.018783 0.752714 0.223765
v 0.030375 0.709812 0.287874
v -0.018783 0.750326 0.226097
v 0.030375 0.752714 0.223765
v -0.018783 0.778719 0.237426
v -0.018783 0.754748 0.221117
v -0.018783 0.706975 0.244053
v -0.018783 0.708704 0.289183
v 0.030375 0.708704 0.289183
v 0.030375 0.754748 0.221117
v 0.030375 0.778719 0.237426
v -0.018783 0.849958 0.108698
v -0.018783 0.756385 0.218208
v 0.030375 0.706975 0.244053
v -0.018783 0.707444 0.290347
v 0.030375 0.707444 0.290347
v 0.030375 0.756385 0.218208
v 0.030375 0.849958 0.108698
v -0.018783 0.792584 0.233388
v -0.018783 0.758634 0.208519
v -0.018783 0.757593 0.215097
v -0.018783 0.701685 0.248352
v -0.018783 0.706050 0.291346
v 0.030375 0.757593 0.215097
v 0.030375 0.758634 0.208519
v 0.030375 0.792584 0.233388
v -0.018783 0.758445 0.205187
v -0.018783 0.758348 0.211845
v -0.018783 0.806782 0.230747
v 0.030375 0.706050 0.291346
v 0.030375 0.701685 0.248352
v -0.018783 0.702948 0.292794
v -0.018783 0.704544 0.292166
v 0.030375 0.758348 0.211845
v 0.030375 0.758445 0.205187
v 0.030375 0.806782 0.230747
v -0.018783 0.757786 0.108698
v -0.018783 0.821172 0.229531
v 0.030375 0.704544 0.292166
v 0.030375 0.702948 0.292794
v -0.018783 0.696850 0.253157
v -0.018783 0.701286 0.293220
v 0.030375 0.757786 0.201914
v 0.030375 0.821172 0.229531
v -0.018783 0.757786 0.201914
v -0.006493 0.806944 0.108698
v -0.018783 0.835611 0.229751
v 0.030375 0.701286 0.293220
v 0.030375 0.696850 0.253157
v -0.018783 0.697870 0.293446
v -0.018783 0.699585 0.293439
v 0.030375 0.757786 0.108698
v 0.030375 0.835611 0.229751
v -0.006493 0.757786 0.201914
v 0.018086 0.806944 0.108698
v -0.006493 0.757786 0.108698
v -0.018783 0.849958 0.231406
v 0.030375 0.699585 0.293439
v 0.030375 0.697870 0.293446
v 0.030375 0.692519 0.258421
v -0.018783 0.696167 0.293242
v 0.018086 0.757786 0.150503
v 0.018086 0.757786 0.108698
v 0.030375 0.849958 0.231406
v 0.018086 0.806944 0.201914
v 0.030375 0.696167 0.293242
v -0.018783 0.692519 0.258421
v 0.030375 0.692901 0.292216
v -0.018783 0.694502 0.292830
v 0.018086 0.757786 0.201914
v -0.006493 0.806944 0.201914
v 0.030375 0.694502 0.292830
v 0.030375 0.688733 0.264089
v -0.018783 0.692901 0.292216
v 0.030375 0.691387 0.291410
v -0.018783 0.688733 0.264089
v -0.018783 0.691387 0.291410
v 0.030375 0.685532 0.270108
v -0.018783 0.685532 0.270108
v 0.030375 0.682946 0.276415
v 0.030375 0.681002 0.282949
v -0.018783 0.682946 0.276415
v -0.018783 0.681002 0.282949
vn 0 -0.23097398264507757 -0.9729599268937398
vn 0 -0.1821260359242731 -0.9832751939505596
vn 0 0.23097398264507757 0.9729599268937398
vn 0 0.1821260359242731 0.9832751939505596
vn 1 0 0
vn -1 0 0
vn 0 -0.3268219726972936 -0.9450859210475254
vn 0 0.3268219726972936 0.9450859210475254
vn 0 -0.2029459862995228 -0.9791899338968482
vn 0 -0.2720418373788791 -0.9622854247651907
vn 0 0.2029459862995228 0.9791899338968482
vn 0 0.2720418373788791 0.9622854247651907
vn 0 0.5907162618949989 0.806879357731253
vn 0 0.6679990847540592 0.7441620944174321
vn 0 -0.5907162618949989 -0.806879357731253
vn 0 -0.6679990847540592 -0.7441620944174321
vn 0 -0.4194140282221612 -0.9077950610850777
vn 0 0.4194140282221612 0.9077950610850777
vn 0 -0.4057598746202181 -0.9139797175803109
vn 0 0.4057598746202181 0.9139797175803109
vn 0 0.5075817615533719 0.8616035952445742
vn 0 -0.5075817615533719 -0.8616035952445742
vn 0 0.7386639030976434 0.6740739115709454
vn 0 -0.7386639030976434 -0.6740739115709454
vn 0 0.419418910158382 0.9077928055462628
vn 0 -0.419418910158382 -0.9077928055462628
vn 0 -0.5078277749650583 -0.8614586182597733
vn 0 0.5078277749650583 0.8614586182597733
vn 0 0.7712940185584912 0.6364790153146399
vn 0 -0.7712940185584912 -0.6364790153146399
vn 0 -0.5312770791780884 -0.8471981262609113
vn 0 0.5312770791780884 0.8471981262609113
vn 0 -0.6460538552258078 -0.7632918289539532
vn 0 0.6460538552258078 0.7632918289539532
vn 0 0.32710201168980835 0.9449890337715461
vn 0 -0.32710201168980835 -0.9449890337715461
vn 0 -0.5911809606031109 -0.8065389462514398
vn 0 0.5911809606031109 0.8065389462514398
vn 0 0.7223190103432472 0.6915600099027935
vn 0 0.7636208763445906 0.645664895445555
vn 0 -0.7636208763445906 -0.645664895445555
vn 0 -0.7223190103432472 -0.6915600099027935
vn 0 -0.7477718003748669 -0.6639558227503773
vn 0 0.7477718003748669 0.6639558227503773
vn 0 -0.8343738708902487 -0.5511989147083133
vn 0 0.8343738708902487 0.5511989147083133
vn 0 0.2315450437619016 0.9728241838633016
vn 0 -0.2315450437619016 -0.9728241838633016
vn 0 -0.9041099176807957 -0.4272999610943403
vn 0 0.9041099176807957 0.4272999610943403
vn 0 -0.6686432877379966 -0.7435833199870225
vn 0 0.6686432877379966 0.7435833199870225
vn 0 0.631620663685772 0.7752775871938676
vn 0 -0.631620663685772 -0.7752775871938676
vn 0 -0.9555703578281989 -0.2947631103786362
vn 0 0.9555703578281989 0.2947631103786362
vn 0 0.5312998884652886 0.8471838221524133
vn 0 -0.5312998884652886 -0.8471838221524133
vn 0 0.1336939550678089 0.9910226669346803
vn 0 -0.1336939550678089 -0.9910226669346803
vn 0 -0.9918597709672071 0.127334970596767
vn 0 -0.9998931951421746 -0.014615002852308077
vn 0 0.9998931951421746 0.014615002852308077
vn 0 0.9918597709672071 -0.127334970596767
vn 0 -0.9877146992167208 -0.15626795241258715
vn 0 0.9877146992167208 0.15626795241258715
vn 0 -0.739444035249298 -0.6732180320923044
vn 0 0.739444035249298 0.6732180320923044
vn 0 0.4228851368638365 0.9061832932799271
vn 0 -0.4228851368638365 -0.9061832932799271
vn 0 0 -1
vn 0 0 1
vn 0 0.03451800263130744 0.9994040761845756
vn 0 -0.03451800263130744 -0.9994040761845756
vn 0 0.18847807629471566 0.9820773975386276
vn 0 0.3080280854912048 0.9513772640486123
vn 0 -0.18847807629471566 -0.9820773975386276
vn 0 -0.3080280854912048 -0.9513772640486123
vn 0 -0.9802984365818879 0.19752208796766663
vn 0 0.9802984365818879 -0.19752208796766663
vn 0 -1 0
vn 0 1 0
vn 0 -0.06499902134483714 0.997885327692623
vn 0 0.06499902134483714 -0.997885327692623
vn 0 -0.8028760302314947 -0.5961460224472827
vn 0 0.8028760302314947 0.5961460224472827
vn 0 0.0660569901870697 0.9978158517719717
vn 0 -0.0660569901870697 -0.9978158517719717
vn 0 -0.1145780290180353 0.9934142515921252
vn 0 0.1145780290180353 -0.9934142515921252
vn 0 -0.17992505865332964 0.9836803206675409
vn 0 -0.05737099586211707 0.9983529279937977
vn 0 0.17992505865332964 -0.9836803206675409
vn 0 0.05737099586211707 -0.9983529279937977
vn 0 -0.8583090793206372 -0.5131330474211927
vn 0 0.8583090793206372 0.5131330474211927
vn 0 -0.29973696318436016 0.9540218828208386
vn 0 0.29973696318436016 -0.9540218828208386
vn 0 -0.41498306234498517 0.9098291366881907
vn 0 -0.47034209237049257 0.8824841733110839
vn 0 0.41498306234498517 -0.9098291366881907
vn 0 0.47034209237049257 -0.8824841733110839
vn 0 -0.9051900515283978 -0.42500702419373815
vn 0 0.9051900515283978 0.42500702419373815
vn 0 -0.6316239358898579 0.7752749213092119
vn 0 0.6316239358898579 -0.7752749213092119
vn 0 -0.943051370048715 -0.33264713052909645
vn 0 0.943051370048715 0.33264713052909645
vn 0 -0.95847840557591 -0.2851651206663631
vn 0 0.95847840557591 0.2851651206663631
usemtl material_0_0
f 1//1 2//2 3//1
f 2//2 1//1 4//2
f 3//3 2//4 1//3
f 4//4 1//3 2//4
f 5//5 3//5 2//5
f 2//6 3//6 5//6
f 3//1 6//7 1//1
f 1//3 6//8 3//3
f 1//6 7//6 4//6
f 4//5 7//5 1//5
f 4//9 8//10 2//9
f 2//11 8//12 4//11
f 9//5 3//5 5//5
f 5//6 3//6 9//6
f 5//5 2//5 8//5
f 8//6 2//6 5//6
f 6//7 3//1 10//7
f 10//8 3//3 6//8
f 6//6 11//6 1//6
f 1//5 11//5 6//5
f 1//6 11//6 7//6
f 7//5 11//5 1//5
f 4//6 7//6 12//6
f 12//5 7//5 4//5
f 8//10 4//9 12//10
f 12//12 4//11 8//12
f 9//5 10//5 3//5
f 3//6 10//6 9//6
f 7//13 9//14 5//13
f 5//15 9//16 7//15
f 5//5 8//5 13//5
f 13//6 8//6 5//6
f 10//7 14//17 6//7
f 6//8 14//18 10//8
f 6//6 15//6 11//6
f 11//5 15//5 6//5
f 9//14 7//13 11//14
f 11//16 7//15 9//16
f 12//6 7//6 16//6
f 16//5 7//5 12//5
f 12//10 17//19 8//10
f 8//12 17//20 12//12
f 18//5 10//5 9//5
f 9//6 10//6 18//6
f 5//13 16//21 7//13
f 7//15 16//22 5//15
f 13//5 8//5 17//5
f 17//6 8//6 13//6
f 16//21 5//13 13//21
f 13//22 5//15 16//22
f 14//17 10//7 19//17
f 19//18 10//8 14//18
f 14//6 15//6 6//6
f 6//5 15//5 14//5
f 18//23 11//14 15//23
f 15//24 11//16 18//24
f 11//14 18//23 9//14
f 9//16 18//24 11//16
f 12//6 16//6 20//6
f 20//5 16//5 12//5
f 17//19 12//10 20//19
f 20//20 12//12 17//20
f 18//5 19//5 10//5
f 10//6 19//6 18//6
f 13//5 17//5 21//5
f 21//6 17//6 13//6
f 13//21 22//25 16//21
f 16//22 22//26 13//22
f 19//17 23//27 14//17
f 14//18 23//28 19//18
f 23//6 15//6 14//6
f 14//5 15//5 23//5
f 24//29 18//23 15//23
f 15//24 18//24 24//30
f 20//6 16//6 25//6
f 25//5 16//5 20//5
f 25//31 17//19 20//19
f 20//20 17//20 25//32
f 18//5 26//5 19//5
f 19//6 26//6 18//6
f 17//19 25//31 21//31
f 21//32 25//32 17//20
f 13//5 21//5 27//5
f 27//6 21//6 13//6
f 22//25 13//21 28//25
f 28//26 13//22 22//26
f 29//6 16//6 22//6
f 22//5 16//5 29//5
f 23//27 19//17 26//27
f 26//28 19//18 23//28
f 23//6 24//6 15//6
f 15//5 24//5 23//5
f 18//23 24//29 30//29
f 30//30 24//30 18//24
f 25//6 16//6 31//6
f 31//5 16//5 25//5
f 30//5 26//5 18//5
f 18//6 26//6 30//6
f 25//31 27//33 21//31
f 21//32 27//34 25//32
f 13//5 27//5 32//5
f 32//6 27//6 13//6
f 13//5 32//5 28//5
f 28//6 32//6 13//6
f 28//25 33//35 22//25
f 22//26 33//36 28//26
f 31//6 16//6 29//6
f 29//5 16//5 31//5
f 29//6 22//6 34//6
f 34//5 22//5 29//5
f 26//27 35//37 23//27
f 23//28 35//38 26//28
f 23//6 36//6 24//6
f 24//5 36//5 23//5
f 36//39 30//40 24//40
f 24//41 30//41 36//42
f 27//33 25//31 31//33
f 31//34 25//32 27//34
f 37//5 26//5 30//5
f 30//6 26//6 37//6
f 31//33 32//43 27//33
f 27//34 32//44 31//34
f 28//5 32//5 38//5
f 38//6 32//6 28//6
f 33//35 28//25 39//35
f 39//36 28//26 33//36
f 40//6 22//6 33//6
f 33//5 22//5 40//5
f 32//43 31//33 29//43
f 29//44 31//34 32//44
f 34//6 22//6 41//6
f 41//5 22//5 34//5
f 34//45 32//43 29//43
f 29//44 32//44 34//46
f 35//37 26//27 42//37
f 42//38 26//28 35//38
f 35//6 43//6 23//6
f 23//5 43//5 35//5
f 23//6 43//6 36//6
f 36//5 43//5 23//5
f 30//40 36//39 37//39
f 37//42 36//42 30//41
f 44//5 26//5 37//5
f 37//6 26//6 44//6
f 32//43 34//45 38//45
f 38//46 34//46 32//44
f 28//5 38//5 45//5
f 45//6 38//6 28//6
f 28//5 46//5 39//5
f 39//6 46//6 28//6
f 39//35 47//47 33//35
f 33//36 47//48 39//36
f 40//6 48//6 22//6
f 22//5 48//5 40//5
f 40//6 33//6 47//6
f 47//5 33//5 40//5
f 41//6 22//6 49//6
f 49//5 22//5 41//5
f 41//49 38//45 34//45
f 34//46 38//46 41//50
f 44//5 42//5 26//5
f 26//6 42//6 44//6
f 42//37 50//51 35//37
f 35//38 50//52 42//38
f 35//6 51//6 43//6
f 43//5 51//5 35//5
f 44//53 36//39 43//53
f 43//54 36//42 44//54
f 36//39 44//53 37//39
f 37//42 44//54 36//42
f 38//45 41//49 45//49
f 45//50 41//50 38//46
f 28//5 45//5 52//5
f 52//6 45//6 28//6
f 53//5 46//5 28//5
f 28//6 46//6 53//6
f 39//5 46//5 54//5
f 54//6 46//6 39//6
f 47//47 39//35 54//47
f 54//48 39//36 47//48
f 40//6 55//6 48//6
f 48//5 55//5 40//5
f 56//6 22//6 48//6
f 48//5 22//5 56//5
f 40//6 47//6 57//6
f 57//5 47//5 40//5
f 49//6 22//6 56//6
f 56//5 22//5 49//5
f 49//55 45//49 41//49
f 41//50 45//50 49//56
f 58//5 42//5 44//5
f 44//6 42//6 58//6
f 50//51 42//37 59//51
f 59//52 42//38 50//52
f 50//6 60//6 35//6
f 35//5 60//5 50//5
f 35//6 61//6 51//6
f 51//5 61//5 35//5
f 58//57 43//53 51//57
f 51//58 43//54 58//58
f 43//53 58//57 44//53
f 44//54 58//58 43//54
f 45//49 49//55 52//55
f 52//56 49//56 45//50
f 28//5 52//5 62//5
f 62//6 52//6 28//6
f 63//5 46//5 53//5
f 53//6 46//6 63//6
f 28//5 62//5 53//5
f 53//6 62//6 28//6
f 54//5 46//5 64//5
f 64//6 46//6 54//6
f 54//47 57//59 47//47
f 47//48 57//60 54//48
f 65//6 55//6 40//6
f 40//5 55//5 65//5
f 55//61 53//62 48//62
f 48//63 53//63 55//64
f 48//62 62//65 56//65
f 56//66 62//66 48//63
f 40//6 57//6 66//6
f 66//5 57//5 40//5
f 56//65 52//55 49//55
f 49//56 52//56 56//66
f 67//5 42//5 58//5
f 58//6 42//6 67//6
f 68//5 59//5 42//5
f 42//6 59//6 68//6
f 59//51 69//67 50//51
f 50//52 69//68 59//52
f 50//6 70//6 60//6
f 60//5 70//5 50//5
f 35//6 60//6 61//6
f 61//5 60//5 35//5
f 67//69 51//57 61//69
f 61//70 51//58 67//70
f 51//57 67//69 58//57
f 58//58 67//70 51//58
f 52//55 56//65 62//65
f 62//66 56//66 52//56
f 71//5 46//5 63//5
f 63//6 46//6 71//6
f 53//62 55//61 63//61
f 63//64 55//64 53//63
f 62//65 48//62 53//62
f 53//63 48//63 62//66
f 64//5 46//5 72//5
f 72//6 46//6 64//6
f 57//59 54//47 64//59
f 64//60 54//48 57//60
f 55//6 65//6 73//6
f 73//5 65//5 55//5
f 40//71 74//71 65//71
f 65//72 74//72 40//72
f 64//59 66//73 57//59
f 57//60 66//74 64//60
f 40//6 66//6 75//6
f 75//5 66//5 40//5
f 68//5 42//5 67//5
f 67//6 42//6 68//6
f 76//5 59//5 68//5
f 68//6 59//6 76//6
f 69//67 59//51 77//67
f 77//68 59//52 69//68
f 69//6 78//6 50//6
f 50//5 78//5 69//5
f 50//6 79//6 70//6
f 70//5 79//5 50//5
f 76//75 60//76 70//75
f 70//77 60//78 76//77
f 68//76 61//69 60//76
f 60//78 61//70 68//78
f 61//69 68//76 67//69
f 67//70 68//78 61//70
f 46//5 71//5 80//5
f 80//6 71//6 46//6
f 63//61 73//79 71//79
f 71//80 73//80 63//64
f 73//79 63//61 55//61
f 55//64 63//64 73//80
f 72//5 46//5 81//5
f 81//6 46//6 72//6
f 66//73 64//59 72//73
f 72//74 64//60 66//74
f 65//81 82//81 73//81
f 73//82 82//82 65//82
f 40//71 83//71 74//71
f 74//72 83//72 40//72
f 65//71 74//71 84//71
f 84//72 74//72 65//72
f 72//73 75//83 66//73
f 66//74 75//84 72//74
f 40//6 75//6 85//6
f 85//5 75//5 40//5
f 86//5 59//5 76//5
f 76//6 59//6 86//6
f 60//76 76//75 68//76
f 68//78 76//77 60//78
f 87//5 77//5 59//5
f 59//6 77//6 87//6
f 88//85 69//67 77//67
f 77//68 69//68 88//86
f 69//6 89//6 78//6
f 78//5 89//5 69//5
f 50//6 78//6 79//6
f 79//5 78//5 50//5
f 86//87 70//75 79//87
f 79//88 70//77 86//88
f 70//75 86//87 76//75
f 76//77 86//88 70//77
f 71//81 90//81 80//81
f 80//82 90//82 71//82
f 91//71 46//71 80//71
f 80//72 46//72 91//72
f 71//79 73//79 82//79
f 82//80 73//80 71//80
f 81//5 46//5 92//5
f 92//6 46//6 81//6
f 75//83 72//73 81//83
f 81//84 72//74 75//84
f 82//81 65//81 84//81
f 84//82 65//82 82//82
f 46//71 83//71 40//71
f 40//72 83//72 46//72
f 93//81 74//81 83//81
f 83//82 74//82 93//82
f 74//5 82//5 84//5
f 84//6 82//6 74//6
f 81//83 85//89 75//83
f 75//84 85//90 81//84
f 85//82 46//82 40//82
f 40//81 46//81 85//81
f 87//5 59//5 86//5
f 86//6 59//6 87//6
f 94//5 77//5 87//5
f 87//6 77//6 94//6
f 69//67 88//85 95//85
f 95//86 88//86 69//68
f 96//5 88//5 77//5
f 77//6 88//6 96//6
f 69//6 97//6 89//6
f 89//5 97//5 69//5
f 94//91 78//92 89//91
f 89//93 78//94 94//93
f 87//92 79//87 78//92
f 78//94 79//88 87//94
f 79//87 87//92 86//87
f 86//88 87//94 79//88
f 90//81 71//81 98//81
f 98//82 71//82 90//82
f 80//81 90//81 91//81
f 91//82 90//82 80//82
f 46//71 91//71 83//71
f 83//72 91//72 46//72
f 71//79 82//79 98//79
f 98//80 82//80 71//80
f 46//82 85//82 92//82
f 92//81 85//81 46//81
f 85//89 81//83 92//89
f 92//90 81//84 85//90
f 74//81 93//81 99//81
f 99//82 93//82 74//82
f 91//6 93//6 83//6
f 83//5 93//5 91//5
f 82//5 74//5 99//5
f 99//6 74//6 82//6
f 100//5 77//5 94//5
f 94//6 77//6 100//6
f 78//92 94//91 87//92
f 87//94 94//93 78//94
f 101//95 95//85 88//85
f 88//86 95//86 101//96
f 95//6 102//6 69//6
f 69//5 102//5 95//5
f 103//5 88//5 96//5
f 96//6 88//6 103//6
f 96//5 77//5 100//5
f 100//6 77//6 96//6
f 69//6 102//6 97//6
f 97//5 102//5 69//5
f 100//97 89//91 97//97
f 97//98 89//93 100//98
f 89//91 100//97 94//91
f 94//93 100//98 89//93
f 93//6 90//6 98//6
f 98//5 90//5 93//5
f 90//6 93//6 91//6
f 91//5 93//5 90//5
f 82//71 93//71 98//71
f 98//72 93//72 82//72
f 93//71 82//71 99//71
f 99//72 82//72 93//72
f 95//85 101//95 104//95
f 104//96 101//96 95//86
f 103//5 101//5 88//5
f 88//6 101//6 103//6
f 95//6 105//6 102//6
f 102//5 105//5 95//5
f 102//99 103//100 96//99
f 96//101 103//102 102//101
f 97//97 96//99 100//97
f 100//98 96//101 97//98
f 96//99 97//97 102//99
f 102//101 97//98 96//101
f 106//103 104//95 101//95
f 101//96 104//96 106//104
f 104//6 105//6 95//6
f 95//5 105//5 104//5
f 103//5 106//5 101//5
f 101//6 106//6 103//6
f 103//100 102//99 105//100
f 105//102 102//101 103//102
f 104//95 106//103 107//103
f 107//104 106//104 104//96
f 107//6 105//6 104//6
f 104//5 105//5 107//5
f 103//5 108//5 106//5
f 106//6 108//6 103//6
f 105//105 109//105 103//105
f 103//106 109//106 105//106
f 108//107 107//103 106//103
f 106//104 107//104 108//108
f 110//6 105//6 107//6
f 107//5 105//5 110//5
f 108//5 103//5 109//5
f 109//6 103//6 108//6
f 109//105 105//105 111//105
f 111//106 105//106 109//106
f 107//103 108//107 110//107
f 110//108 108//108 107//104
f 105//6 110//6 111//6
f 111//5 110//5 105//5
f 109//109 110//107 108//107
f 108//108 110//108 109//110
f 110//107 109//109 111//109
f 111//110 109//110 110//108
