# SSTK version 0.8.0
# 3
mtllib original-3.mtl
o #ID11
v 0.102719 -0.276219 -0.040532
v 0.118291 0.173617 -0.040532
v 0.118291 -0.276219 -0.040532
v 0.334558 0.173617 -0.040532
v -0.113548 0.485043 -0.040532
v 0.334558 0.485043 -0.040532
v -0.141230 -0.276219 -0.040532
v -0.141230 0.173617 -0.040532
v -0.461306 0.485043 -0.040532
v -0.461306 0.173617 -0.040532
vn 0 0 -1
vn 0 0 1
usemtl material_0_2
f 1//1 2//1 3//1
f 3//2 2//2 1//2
f 4//1 5//1 6//1
f 6//2 5//2 4//2
f 5//1 4//1 2//1
f 2//2 4//2 5//2
f 5//1 2//1 1//1
f 1//2 2//2 5//2
f 5//1 1//1 7//1
f 7//2 1//2 5//2
f 5//1 7//1 8//1
f 8//2 7//2 5//2
f 5//1 8//1 9//1
f 9//2 8//2 5//2
f 9//1 8//1 10//1
f 10//2 8//2 9//2
