# SSTK version 0.8.0
# 4
mtllib original-4.mtl
o mesh3/mesh3-geometry#mesh3-geometry
v -0.031705 0.267903 0.578689
v -0.030429 0.267903 0.568187
v -0.030945 0.267903 0.567118
v -0.020097 0.267903 0.584929
v -0.031957 0.267903 0.561391
v -0.028884 0.267903 0.569473
v -0.034188 0.267903 0.562111
v -0.029066 0.267903 0.561151
v -0.022702 0.267903 0.572696
v -0.035613 0.267903 0.563207
v -0.029937 0.267903 0.565666
v -0.012814 0.267903 0.576322
v -0.035910 0.267903 0.565510
v -0.027271 0.267903 0.565095
v -0.007461 0.267903 0.590156
v -0.036089 0.267903 0.564576
v -0.024540 0.267903 0.561456
v 0.000367 0.267903 0.579883
v -0.021079 0.267903 0.566120
v 0.004750 0.267903 0.593698
v -0.020086 0.267903 0.562371
v 0.006853 0.267903 0.581284
v -0.013788 0.267903 0.569194
v -0.002563 0.267903 0.572281
v 0.015083 0.267903 0.594878
v -0.015705 0.267903 0.563895
v -0.006330 0.267903 0.573916
v 0.013249 0.267903 0.581699
v -0.011397 0.267903 0.566029
v 0.016738 0.267903 0.581284
v 0.020708 0.267903 0.594028
v 0.019422 0.267903 0.580038
v 0.021133 0.267903 0.578106
v 0.025058 0.267903 0.591480
v 0.021703 0.267903 0.575628
v 0.022715 0.267903 0.566632
v 0.026109 0.267903 0.572385
v 0.021267 0.267903 0.572735
v 0.026682 0.267903 0.589646
v 0.019959 0.267903 0.569661
v 0.028105 0.267903 0.577580
v 0.017856 0.267903 0.560010
v 0.027842 0.267903 0.587543
v 0.012712 0.267903 0.560010
v 0.028539 0.267903 0.585170
v 0.028771 0.267903 0.582529
vn 0 1 0
vn 0 -1 0
usemtl material_0_0
f 1//1 2//1 3//1
f 2//1 1//1 4//1
f 5//1 1//1 3//1
f 2//1 4//1 6//1
f 7//1 1//1 5//1
f 5//1 3//1 8//1
f 6//1 4//1 9//1
f 10//1 1//1 7//1
f 8//1 3//1 11//1
f 9//1 4//1 12//1
f 10//1 13//1 1//1
f 8//1 11//1 14//1
f 12//1 4//1 15//1
f 13//1 10//1 16//1
f 8//1 14//1 17//1
f 12//1 15//1 18//1
f 17//1 14//1 19//1
f 18//1 15//1 20//1
f 17//1 19//1 21//1
f 22//1 18//1 20//1
f 21//1 19//1 23//1
f 24//1 18//1 22//1
f 22//1 20//1 25//1
f 21//1 23//1 26//1
f 24//1 27//1 18//1
f 22//1 25//1 28//1
f 26//1 23//1 29//1
f 29//1 27//1 24//1
f 28//1 25//1 30//1
f 29//1 23//1 27//1
f 30//1 25//1 31//1
f 30//1 31//1 32//1
f 32//1 31//1 33//1
f 33//1 31//1 34//1
f 33//1 34//1 35//1
f 35//1 34//1 36//1
f 36//1 34//1 37//1
f 36//1 38//1 35//1
f 37//1 34//1 39//1
f 36//1 40//1 38//1
f 37//1 39//1 41//1
f 42//1 40//1 36//1
f 41//1 39//1 43//1
f 40//1 42//1 44//1
f 41//1 43//1 45//1
f 41//1 45//1 46//1
usemtl material_1_0
f 3//2 2//2 1//2
f 4//2 1//2 2//2
f 3//2 1//2 5//2
f 6//2 4//2 2//2
f 5//2 1//2 7//2
f 8//2 3//2 5//2
f 9//2 4//2 6//2
f 7//2 1//2 10//2
f 11//2 3//2 8//2
f 12//2 4//2 9//2
f 1//2 13//2 10//2
f 14//2 11//2 8//2
f 15//2 4//2 12//2
f 16//2 10//2 13//2
f 17//2 14//2 8//2
f 18//2 15//2 12//2
f 19//2 14//2 17//2
f 20//2 15//2 18//2
f 21//2 19//2 17//2
f 20//2 18//2 22//2
f 23//2 19//2 21//2
f 22//2 18//2 24//2
f 25//2 20//2 22//2
f 26//2 23//2 21//2
f 18//2 27//2 24//2
f 28//2 25//2 22//2
f 29//2 23//2 26//2
f 24//2 27//2 29//2
f 30//2 25//2 28//2
f 27//2 23//2 29//2
f 31//2 25//2 30//2
f 32//2 31//2 30//2
f 33//2 31//2 32//2
f 34//2 31//2 33//2
f 35//2 34//2 33//2
f 36//2 34//2 35//2
f 37//2 34//2 36//2
f 35//2 38//2 36//2
f 39//2 34//2 37//2
f 38//2 40//2 36//2
f 41//2 39//2 37//2
f 36//2 40//2 42//2
f 43//2 39//2 41//2
f 44//2 42//2 40//2
f 45//2 43//2 41//2
f 46//2 45//2 41//2
