# SSTK version 0.8.0
# 41
mtllib original-41.mtl
o mesh12/mesh12-geometry/material_4/component_1#mesh12-geometry
v -0.030613 -0.070979 -0.376248
v -0.030613 -0.067065 -0.353403
v -0.030613 -0.070979 -0.353403
v -0.030613 -0.070979 -0.353403
v -0.030613 -0.067065 -0.353403
v -0.030613 -0.070979 -0.376248
v -0.030613 -0.067065 -0.353403
v -0.030613 -0.070979 -0.376248
v -0.030613 -0.067065 -0.376248
v -0.030613 -0.067065 -0.376248
v -0.030613 -0.070979 -0.376248
v -0.030613 -0.067065 -0.353403
vn 1 0 0
vn -1 0 0
usemtl material_0_0
f 1//1 2//1 3//1
f 4//2 5//2 6//2
f 7//1 8//1 9//1
f 10//2 11//2 12//2
