# SSTK version 0.8.0
# 30
mtllib original-30.mtl
o mesh12/mesh12-geometry/material_1/component_13#mesh12-geometry
v 0.115147 -0.022221 -0.781149
v 0.108255 -0.018113 -0.781776
v 0.115147 -0.018113 -0.781776
v 0.115147 -0.018113 -0.781776
v 0.108255 -0.018113 -0.781776
v 0.115147 -0.022221 -0.781149
v 0.115147 -0.018113 -0.781776
v 0.108255 -0.014005 -0.781149
v 0.115147 -0.014005 -0.781149
v 0.115147 -0.014005 -0.781149
v 0.108255 -0.014005 -0.781149
v 0.115147 -0.018113 -0.781776
v 0.115147 -0.014005 -0.781149
v 0.108255 -0.010177 -0.779309
v 0.115147 -0.010177 -0.779309
v 0.115147 -0.010177 -0.779309
v 0.108255 -0.010177 -0.779309
v 0.115147 -0.014005 -0.781149
v 0.115147 -0.010177 -0.779309
v 0.108255 -0.006890 -0.776383
v 0.115147 -0.006890 -0.776383
v 0.115147 -0.006890 -0.776383
v 0.108255 -0.006890 -0.776383
v 0.115147 -0.010177 -0.779309
v 0.108255 -0.029336 -0.750345
v 0.115147 -0.031859 -0.754158
v 0.115147 -0.029336 -0.750345
v 0.115147 -0.029336 -0.750345
v 0.115147 -0.031859 -0.754158
v 0.108255 -0.029336 -0.750345
v 0.115147 -0.026049 -0.747419
v 0.108255 -0.029336 -0.750345
v 0.115147 -0.029336 -0.750345
v 0.115147 -0.029336 -0.750345
v 0.108255 -0.029336 -0.750345
v 0.115147 -0.026049 -0.747419
v 0.108255 -0.031859 -0.754158
v 0.115147 -0.033444 -0.758599
v 0.115147 -0.031859 -0.754158
v 0.115147 -0.031859 -0.754158
v 0.115147 -0.033444 -0.758599
v 0.108255 -0.031859 -0.754158
v 0.115147 -0.022221 -0.745580
v 0.108255 -0.026049 -0.747419
v 0.115147 -0.026049 -0.747419
v 0.115147 -0.026049 -0.747419
v 0.108255 -0.026049 -0.747419
v 0.115147 -0.022221 -0.745580
v 0.115147 -0.006890 -0.750345
v 0.108255 -0.010177 -0.747419
v 0.115147 -0.010177 -0.747419
v 0.115147 -0.010177 -0.747419
v 0.108255 -0.010177 -0.747419
v 0.115147 -0.006890 -0.750345
v 0.115147 -0.010177 -0.747419
v 0.108255 -0.014005 -0.745580
v 0.115147 -0.014005 -0.745580
v 0.115147 -0.014005 -0.745580
v 0.108255 -0.014005 -0.745580
v 0.115147 -0.010177 -0.747419
v 0.115147 -0.014005 -0.745580
v 0.108255 -0.018113 -0.744952
v 0.115147 -0.018113 -0.744952
v 0.115147 -0.018113 -0.744952
v 0.108255 -0.018113 -0.744952
v 0.115147 -0.014005 -0.745580
v 0.115147 -0.018113 -0.744952
v 0.108255 -0.022221 -0.745580
v 0.115147 -0.022221 -0.745580
v 0.115147 -0.022221 -0.745580
v 0.108255 -0.022221 -0.745580
v 0.115147 -0.018113 -0.744952
v 0.108255 -0.004367 -0.754158
v 0.115147 -0.006890 -0.750345
v 0.115147 -0.004367 -0.754158
v 0.115147 -0.004367 -0.754158
v 0.115147 -0.006890 -0.750345
v 0.108255 -0.004367 -0.754158
v 0.108255 -0.002782 -0.758599
v 0.115147 -0.004367 -0.754158
v 0.115147 -0.002782 -0.758599
v 0.115147 -0.002782 -0.758599
v 0.115147 -0.004367 -0.754158
v 0.108255 -0.002782 -0.758599
v 0.108255 -0.002241 -0.763364
v 0.115147 -0.002782 -0.758599
v 0.115147 -0.002241 -0.763364
v 0.115147 -0.002241 -0.763364
v 0.115147 -0.002782 -0.758599
v 0.108255 -0.002241 -0.763364
v 0.108255 -0.002782 -0.768129
v 0.115147 -0.002241 -0.763364
v 0.115147 -0.002782 -0.768129
v 0.115147 -0.002782 -0.768129
v 0.115147 -0.002241 -0.763364
v 0.108255 -0.002782 -0.768129
v 0.115147 -0.026049 -0.779309
v 0.108255 -0.022221 -0.781149
v 0.115147 -0.022221 -0.781149
v 0.115147 -0.022221 -0.781149
v 0.108255 -0.022221 -0.781149
v 0.115147 -0.026049 -0.779309
v 0.108255 -0.018113 -0.781776
v 0.115147 -0.022221 -0.781149
v 0.108255 -0.022221 -0.781149
v 0.108255 -0.022221 -0.781149
v 0.115147 -0.022221 -0.781149
v 0.108255 -0.018113 -0.781776
v 0.108255 -0.014005 -0.781149
v 0.115147 -0.018113 -0.781776
v 0.108255 -0.018113 -0.781776
v 0.108255 -0.018113 -0.781776
v 0.115147 -0.018113 -0.781776
v 0.108255 -0.014005 -0.781149
v 0.108255 -0.010177 -0.779309
v 0.115147 -0.014005 -0.781149
v 0.108255 -0.014005 -0.781149
v 0.108255 -0.014005 -0.781149
v 0.115147 -0.014005 -0.781149
v 0.108255 -0.010177 -0.779309
v 0.108255 -0.006890 -0.776383
v 0.115147 -0.010177 -0.779309
v 0.108255 -0.010177 -0.779309
v 0.108255 -0.010177 -0.779309
v 0.115147 -0.010177 -0.779309
v 0.108255 -0.006890 -0.776383
v 0.108255 -0.006890 -0.776383
v 0.115147 -0.004367 -0.772570
v 0.115147 -0.006890 -0.776383
v 0.115147 -0.006890 -0.776383
v 0.115147 -0.004367 -0.772570
v 0.108255 -0.006890 -0.776383
v 0.108255 -0.033444 -0.758599
v 0.115147 -0.033985 -0.763364
v 0.115147 -0.033444 -0.758599
v 0.115147 -0.033444 -0.758599
v 0.115147 -0.033985 -0.763364
v 0.108255 -0.033444 -0.758599
v 0.115147 -0.031859 -0.754158
v 0.108255 -0.029336 -0.750345
v 0.108255 -0.031859 -0.754158
v 0.108255 -0.031859 -0.754158
v 0.108255 -0.029336 -0.750345
v 0.115147 -0.031859 -0.754158
v 0.108255 -0.029336 -0.750345
v 0.115147 -0.026049 -0.747419
v 0.108255 -0.026049 -0.747419
v 0.108255 -0.026049 -0.747419
v 0.115147 -0.026049 -0.747419
v 0.108255 -0.029336 -0.750345
v 0.115147 -0.033444 -0.758599
v 0.108255 -0.031859 -0.754158
v 0.108255 -0.033444 -0.758599
v 0.108255 -0.033444 -0.758599
v 0.108255 -0.031859 -0.754158
v 0.115147 -0.033444 -0.758599
v 0.108255 -0.026049 -0.747419
v 0.115147 -0.022221 -0.745580
v 0.108255 -0.022221 -0.745580
v 0.108255 -0.022221 -0.745580
v 0.115147 -0.022221 -0.745580
v 0.108255 -0.026049 -0.747419
v 0.108255 -0.010177 -0.747419
v 0.115147 -0.006890 -0.750345
v 0.108255 -0.006890 -0.750345
v 0.108255 -0.006890 -0.750345
v 0.115147 -0.006890 -0.750345
v 0.108255 -0.010177 -0.747419
v 0.108255 -0.014005 -0.745580
v 0.115147 -0.010177 -0.747419
v 0.108255 -0.010177 -0.747419
v 0.108255 -0.010177 -0.747419
v 0.115147 -0.010177 -0.747419
v 0.108255 -0.014005 -0.745580
v 0.108255 -0.018113 -0.744952
v 0.115147 -0.014005 -0.745580
v 0.108255 -0.014005 -0.745580
v 0.108255 -0.014005 -0.745580
v 0.115147 -0.014005 -0.745580
v 0.108255 -0.018113 -0.744952
v 0.108255 -0.022221 -0.745580
v 0.115147 -0.018113 -0.744952
v 0.108255 -0.018113 -0.744952
v 0.108255 -0.018113 -0.744952
v 0.115147 -0.018113 -0.744952
v 0.108255 -0.022221 -0.745580
v 0.115147 -0.006890 -0.750345
v 0.108255 -0.004367 -0.754158
v 0.108255 -0.006890 -0.750345
v 0.108255 -0.006890 -0.750345
v 0.108255 -0.004367 -0.754158
v 0.115147 -0.006890 -0.750345
v 0.115147 -0.004367 -0.754158
v 0.108255 -0.002782 -0.758599
v 0.108255 -0.004367 -0.754158
v 0.108255 -0.004367 -0.754158
v 0.108255 -0.002782 -0.758599
v 0.115147 -0.004367 -0.754158
v 0.115147 -0.002782 -0.758599
v 0.108255 -0.002241 -0.763364
v 0.108255 -0.002782 -0.758599
v 0.108255 -0.002782 -0.758599
v 0.108255 -0.002241 -0.763364
v 0.115147 -0.002782 -0.758599
v 0.115147 -0.002241 -0.763364
v 0.108255 -0.002782 -0.768129
v 0.108255 -0.002241 -0.763364
v 0.108255 -0.002241 -0.763364
v 0.108255 -0.002782 -0.768129
v 0.115147 -0.002241 -0.763364
v 0.115147 -0.002782 -0.768129
v 0.108255 -0.004367 -0.772570
v 0.108255 -0.002782 -0.768129
v 0.108255 -0.002782 -0.768129
v 0.108255 -0.004367 -0.772570
v 0.115147 -0.002782 -0.768129
v 0.108255 -0.004367 -0.772570
v 0.115147 -0.002782 -0.768129
v 0.115147 -0.004367 -0.772570
v 0.115147 -0.004367 -0.772570
v 0.115147 -0.002782 -0.768129
v 0.108255 -0.004367 -0.772570
v 0.115147 -0.029336 -0.776383
v 0.108255 -0.026049 -0.779309
v 0.115147 -0.026049 -0.779309
v 0.115147 -0.026049 -0.779309
v 0.108255 -0.026049 -0.779309
v 0.115147 -0.029336 -0.776383
v 0.108255 -0.022221 -0.781149
v 0.115147 -0.026049 -0.779309
v 0.108255 -0.026049 -0.779309
v 0.108255 -0.026049 -0.779309
v 0.115147 -0.026049 -0.779309
v 0.108255 -0.022221 -0.781149
v 0.115147 -0.004367 -0.772570
v 0.108255 -0.006890 -0.776383
v 0.108255 -0.004367 -0.772570
v 0.108255 -0.004367 -0.772570
v 0.108255 -0.006890 -0.776383
v 0.115147 -0.004367 -0.772570
v 0.108255 -0.033985 -0.763364
v 0.115147 -0.033444 -0.768129
v 0.115147 -0.033985 -0.763364
v 0.115147 -0.033985 -0.763364
v 0.115147 -0.033444 -0.768129
v 0.108255 -0.033985 -0.763364
v 0.115147 -0.033985 -0.763364
v 0.108255 -0.033444 -0.758599
v 0.108255 -0.033985 -0.763364
v 0.108255 -0.033985 -0.763364
v 0.108255 -0.033444 -0.758599
v 0.115147 -0.033985 -0.763364
v 0.108255 -0.031859 -0.772570
v 0.115147 -0.029336 -0.776383
v 0.115147 -0.031859 -0.772570
v 0.115147 -0.031859 -0.772570
v 0.115147 -0.029336 -0.776383
v 0.108255 -0.031859 -0.772570
v 0.108255 -0.033444 -0.768129
v 0.115147 -0.031859 -0.772570
v 0.115147 -0.033444 -0.768129
v 0.115147 -0.033444 -0.768129
v 0.115147 -0.031859 -0.772570
v 0.108255 -0.033444 -0.768129
v 0.108255 -0.026049 -0.779309
v 0.115147 -0.029336 -0.776383
v 0.108255 -0.029336 -0.776383
v 0.108255 -0.029336 -0.776383
v 0.115147 -0.029336 -0.776383
v 0.108255 -0.026049 -0.779309
v 0.115147 -0.033444 -0.768129
v 0.108255 -0.033985 -0.763364
v 0.108255 -0.033444 -0.768129
v 0.108255 -0.033444 -0.768129
v 0.108255 -0.033985 -0.763364
v 0.115147 -0.033444 -0.768129
v 0.115147 -0.029336 -0.776383
v 0.108255 -0.031859 -0.772570
v 0.108255 -0.029336 -0.776383
v 0.108255 -0.029336 -0.776383
v 0.108255 -0.031859 -0.772570
v 0.115147 -0.029336 -0.776383
v 0.115147 -0.031859 -0.772570
v 0.108255 -0.033444 -0.768129
v 0.108255 -0.031859 -0.772570
v 0.108255 -0.031859 -0.772570
v 0.108255 -0.033444 -0.768129
v 0.115147 -0.031859 -0.772570
vn 0 -0.29526299045209237 -0.9554160174862506
vn 0 0 -1
vn 0 0 1
vn 0 0.29526299045209237 0.9554160174862506
vn 0 0.2952629904520928 -0.9554160174862504
vn 0 -0.2952629904520928 0.9554160174862504
vn 0 0.5543791425747642 -0.8322642406580194
vn 0 -0.5543791425747642 0.8322642406580194
vn 0 0.7557849076122448 -0.6548199549689598
vn 0 -0.7557849076122448 0.6548199549689598
vn 0 -0.8944085935859039 0.4472507883947055
vn 0 0.8944085935859039 -0.4472507883947055
vn 0 -0.9741229000863361 0.22601897160943366
vn 0 0.9741229000863361 -0.22601897160943366
vn 0 0.7557849076122446 0.6548199549689603
vn 0 0.5543791425747637 0.8322642406580196
vn 0 -0.5543791425747637 -0.8322642406580196
vn 0 -0.7557849076122446 -0.6548199549689603
vn 0 0.8944085935859036 0.44725078839470594
vn 0 -0.8944085935859036 -0.44725078839470594
vn 0 0.9741229000863361 0.2260189716094341
vn 0 -0.9741229000863361 -0.2260189716094341
vn 0 1 0
vn 0 -1 0
usemtl material_0_0
f 1//1 2//2 3//2
f 4//3 5//3 6//4
f 7//2 8//5 9//5
f 10//6 11//6 12//3
f 13//5 14//7 15//7
f 16//8 17//8 18//6
f 19//7 20//9 21//9
f 22//10 23//10 24//8
f 25//10 26//11 27//10
f 28//9 29//12 30//9
f 31//8 32//10 33//10
f 34//9 35//9 36//7
f 37//11 38//13 39//11
f 40//12 41//14 42//12
f 43//6 44//8 45//8
f 46//7 47//7 48//5
f 49//15 50//16 51//16
f 52//17 53//17 54//18
f 55//16 56//4 57//4
f 58//1 59//1 60//17
f 61//4 62//3 63//3
f 64//2 65//2 66//1
f 67//3 68//6 69//6
f 70//5 71//5 72//2
f 73//19 74//15 75//19
f 76//20 77//18 78//20
f 79//21 80//19 81//21
f 82//22 83//20 84//22
f 85//23 86//21 87//23
f 88//24 89//22 90//24
f 91//14 92//23 93//14
f 94//13 95//24 96//13
f 97//17 98//1 99//1
f 100//4 101//4 102//16
f 103//2 104//1 105//1
f 106//4 107//4 108//3
f 109//5 110//2 111//2
f 112//3 113//3 114//6
f 115//7 116//5 117//5
f 118//6 119//6 120//8
f 121//9 122//7 123//7
f 124//8 125//8 126//10
f 127//9 128//12 129//9
f 130//10 131//11 132//10
f 133//13 134//24 135//13
f 136//14 137//23 138//14
f 139//11 140//10 141//11
f 142//12 143//9 144//12
f 145//10 146//8 147//8
f 148//7 149//7 150//9
f 151//13 152//11 153//13
f 154//14 155//12 156//14
f 157//8 158//6 159//6
f 160//5 161//5 162//7
f 163//16 164//15 165//15
f 166//18 167//18 168//17
f 169//4 170//16 171//16
f 172//17 173//17 174//1
f 175//3 176//4 177//4
f 178//1 179//1 180//2
f 181//6 182//3 183//3
f 184//2 185//2 186//5
f 187//15 188//19 189//15
f 190//18 191//20 192//18
f 193//19 194//21 195//19
f 196//20 197//22 198//20
f 199//21 200//23 201//21
f 202//22 203//24 204//22
f 205//23 206//14 207//23
f 208//24 209//13 210//24
f 211//14 212//12 213//14
f 214//13 215//11 216//13
f 217//12 218//14 219//12
f 220//11 221//13 222//11
f 223//18 224//17 225//17
f 226//16 227//16 228//15
f 229//1 230//17 231//17
f 232//16 233//16 234//4
f 235//12 236//9 237//12
f 238//11 239//10 240//11
f 241//24 242//22 243//24
f 244//23 245//21 246//23
f 247//24 248//13 249//24
f 250//23 251//14 252//23
f 253//20 254//18 255//20
f 256//19 257//15 258//19
f 259//22 260//20 261//22
f 262//21 263//19 264//21
f 265//17 266//18 267//18
f 268//15 269//15 270//16
f 271//22 272//24 273//22
f 274//21 275//23 276//21
f 277//18 278//20 279//18
f 280//15 281//19 282//15
f 283//20 284//22 285//20
f 286//19 287//21 288//19
