# SSTK version 0.8.0
# 25
mtllib original-25.mtl
o mesh12/mesh12-geometry/material_1/component_8#mesh12-geometry
v -0.142209 -0.018113 -0.781776
v -0.132364 -0.022221 -0.781149
v -0.142209 -0.022221 -0.781149
v -0.142209 -0.022221 -0.781149
v -0.132364 -0.022221 -0.781149
v -0.142209 -0.018113 -0.781776
v -0.142209 -0.022221 -0.781149
v -0.132364 -0.026049 -0.779309
v -0.142209 -0.026049 -0.779309
v -0.142209 -0.026049 -0.779309
v -0.132364 -0.026049 -0.779309
v -0.142209 -0.022221 -0.781149
v -0.142209 -0.014005 -0.781149
v -0.132364 -0.018113 -0.781776
v -0.142209 -0.018113 -0.781776
v -0.142209 -0.018113 -0.781776
v -0.132364 -0.018113 -0.781776
v -0.142209 -0.014005 -0.781149
v -0.132364 -0.022221 -0.781149
v -0.142209 -0.018113 -0.781776
v -0.132364 -0.018113 -0.781776
v -0.132364 -0.018113 -0.781776
v -0.142209 -0.018113 -0.781776
v -0.132364 -0.022221 -0.781149
v -0.132364 -0.026049 -0.779309
v -0.142209 -0.022221 -0.781149
v -0.132364 -0.022221 -0.781149
v -0.132364 -0.022221 -0.781149
v -0.142209 -0.022221 -0.781149
v -0.132364 -0.026049 -0.779309
v -0.132364 -0.029336 -0.776383
v -0.142209 -0.026049 -0.779309
v -0.132364 -0.026049 -0.779309
v -0.132364 -0.026049 -0.779309
v -0.142209 -0.026049 -0.779309
v -0.132364 -0.029336 -0.776383
v -0.142209 -0.010177 -0.779309
v -0.132364 -0.014005 -0.781149
v -0.142209 -0.014005 -0.781149
v -0.142209 -0.014005 -0.781149
v -0.132364 -0.014005 -0.781149
v -0.142209 -0.010177 -0.779309
v -0.132364 -0.018113 -0.781776
v -0.142209 -0.014005 -0.781149
v -0.132364 -0.014005 -0.781149
v -0.132364 -0.014005 -0.781149
v -0.142209 -0.014005 -0.781149
v -0.132364 -0.018113 -0.781776
v -0.142209 -0.010177 -0.747419
v -0.132364 -0.006890 -0.750345
v -0.142209 -0.006890 -0.750345
v -0.142209 -0.006890 -0.750345
v -0.132364 -0.006890 -0.750345
v -0.142209 -0.010177 -0.747419
v -0.142209 -0.014005 -0.745580
v -0.132364 -0.010177 -0.747419
v -0.142209 -0.010177 -0.747419
v -0.142209 -0.010177 -0.747419
v -0.132364 -0.010177 -0.747419
v -0.142209 -0.014005 -0.745580
v -0.132364 -0.006890 -0.750345
v -0.142209 -0.004367 -0.754158
v -0.142209 -0.006890 -0.750345
v -0.142209 -0.006890 -0.750345
v -0.142209 -0.004367 -0.754158
v -0.132364 -0.006890 -0.750345
v -0.132364 -0.004367 -0.754158
v -0.142209 -0.002782 -0.758599
v -0.142209 -0.004367 -0.754158
v -0.142209 -0.004367 -0.754158
v -0.142209 -0.002782 -0.758599
v -0.132364 -0.004367 -0.754158
v -0.142209 -0.026049 -0.779309
v -0.132364 -0.029336 -0.776383
v -0.142209 -0.029336 -0.776383
v -0.142209 -0.029336 -0.776383
v -0.132364 -0.029336 -0.776383
v -0.142209 -0.026049 -0.779309
v -0.142209 -0.006890 -0.776383
v -0.132364 -0.010177 -0.779309
v -0.142209 -0.010177 -0.779309
v -0.142209 -0.010177 -0.779309
v -0.132364 -0.010177 -0.779309
v -0.142209 -0.006890 -0.776383
v -0.132364 -0.004367 -0.772570
v -0.142209 -0.006890 -0.776383
v -0.142209 -0.004367 -0.772570
v -0.142209 -0.004367 -0.772570
v -0.142209 -0.006890 -0.776383
v -0.132364 -0.004367 -0.772570
v -0.132364 -0.014005 -0.781149
v -0.142209 -0.010177 -0.779309
v -0.132364 -0.010177 -0.779309
v -0.132364 -0.010177 -0.779309
v -0.142209 -0.010177 -0.779309
v -0.132364 -0.014005 -0.781149
v -0.142209 -0.029336 -0.750345
v -0.132364 -0.026049 -0.747419
v -0.142209 -0.026049 -0.747419
v -0.142209 -0.026049 -0.747419
v -0.132364 -0.026049 -0.747419
v -0.142209 -0.029336 -0.750345
v -0.142209 -0.026049 -0.747419
v -0.132364 -0.022221 -0.745580
v -0.142209 -0.022221 -0.745580
v -0.142209 -0.022221 -0.745580
v -0.132364 -0.022221 -0.745580
v -0.142209 -0.026049 -0.747419
v -0.132364 -0.031859 -0.754158
v -0.142209 -0.029336 -0.750345
v -0.142209 -0.031859 -0.754158
v -0.142209 -0.031859 -0.754158
v -0.142209 -0.029336 -0.750345
v -0.132364 -0.031859 -0.754158
v -0.132364 -0.033444 -0.758599
v -0.142209 -0.031859 -0.754158
v -0.142209 -0.033444 -0.758599
v -0.142209 -0.033444 -0.758599
v -0.142209 -0.031859 -0.754158
v -0.132364 -0.033444 -0.758599
v -0.142209 -0.018113 -0.744952
v -0.132364 -0.014005 -0.745580
v -0.142209 -0.014005 -0.745580
v -0.142209 -0.014005 -0.745580
v -0.132364 -0.014005 -0.745580
v -0.142209 -0.018113 -0.744952
v -0.132364 -0.006890 -0.750345
v -0.142209 -0.010177 -0.747419
v -0.132364 -0.010177 -0.747419
v -0.132364 -0.010177 -0.747419
v -0.142209 -0.010177 -0.747419
v -0.132364 -0.006890 -0.750345
v -0.132364 -0.010177 -0.747419
v -0.142209 -0.014005 -0.745580
v -0.132364 -0.014005 -0.745580
v -0.132364 -0.014005 -0.745580
v -0.142209 -0.014005 -0.745580
v -0.132364 -0.010177 -0.747419
v -0.142209 -0.004367 -0.754158
v -0.132364 -0.006890 -0.750345
v -0.132364 -0.004367 -0.754158
v -0.132364 -0.004367 -0.754158
v -0.132364 -0.006890 -0.750345
v -0.142209 -0.004367 -0.754158
v -0.142209 -0.002782 -0.758599
v -0.132364 -0.004367 -0.754158
v -0.132364 -0.002782 -0.758599
v -0.132364 -0.002782 -0.758599
v -0.132364 -0.004367 -0.754158
v -0.142209 -0.002782 -0.758599
v -0.132364 -0.029336 -0.776383
v -0.142209 -0.031859 -0.772570
v -0.142209 -0.029336 -0.776383
v -0.142209 -0.029336 -0.776383
v -0.142209 -0.031859 -0.772570
v -0.132364 -0.029336 -0.776383
v -0.132364 -0.002782 -0.768129
v -0.142209 -0.004367 -0.772570
v -0.142209 -0.002782 -0.768129
v -0.142209 -0.002782 -0.768129
v -0.142209 -0.004367 -0.772570
v -0.132364 -0.002782 -0.768129
v -0.132364 -0.010177 -0.779309
v -0.142209 -0.006890 -0.776383
v -0.132364 -0.006890 -0.776383
v -0.132364 -0.006890 -0.776383
v -0.142209 -0.006890 -0.776383
v -0.132364 -0.010177 -0.779309
v -0.142209 -0.006890 -0.776383
v -0.132364 -0.004367 -0.772570
v -0.132364 -0.006890 -0.776383
v -0.132364 -0.006890 -0.776383
v -0.132364 -0.004367 -0.772570
v -0.142209 -0.006890 -0.776383
v -0.142209 -0.004367 -0.772570
v -0.132364 -0.002782 -0.768129
v -0.132364 -0.004367 -0.772570
v -0.132364 -0.004367 -0.772570
v -0.132364 -0.002782 -0.768129
v -0.142209 -0.004367 -0.772570
v -0.142209 -0.022221 -0.745580
v -0.132364 -0.018113 -0.744952
v -0.142209 -0.018113 -0.744952
v -0.142209 -0.018113 -0.744952
v -0.132364 -0.018113 -0.744952
v -0.142209 -0.022221 -0.745580
v -0.132364 -0.026049 -0.747419
v -0.142209 -0.029336 -0.750345
v -0.132364 -0.029336 -0.750345
v -0.132364 -0.029336 -0.750345
v -0.142209 -0.029336 -0.750345
v -0.132364 -0.026049 -0.747419
v -0.132364 -0.022221 -0.745580
v -0.142209 -0.026049 -0.747419
v -0.132364 -0.026049 -0.747419
v -0.132364 -0.026049 -0.747419
v -0.142209 -0.026049 -0.747419
v -0.132364 -0.022221 -0.745580
v -0.132364 -0.018113 -0.744952
v -0.142209 -0.022221 -0.745580
v -0.132364 -0.022221 -0.745580
v -0.132364 -0.022221 -0.745580
v -0.142209 -0.022221 -0.745580
v -0.132364 -0.018113 -0.744952
v -0.142209 -0.029336 -0.750345
v -0.132364 -0.031859 -0.754158
v -0.132364 -0.029336 -0.750345
v -0.132364 -0.029336 -0.750345
v -0.132364 -0.031859 -0.754158
v -0.142209 -0.029336 -0.750345
v -0.142209 -0.031859 -0.754158
v -0.132364 -0.033444 -0.758599
v -0.132364 -0.031859 -0.754158
v -0.132364 -0.031859 -0.754158
v -0.132364 -0.033444 -0.758599
v -0.142209 -0.031859 -0.754158
v -0.142209 -0.033444 -0.758599
v -0.132364 -0.033985 -0.763364
v -0.132364 -0.033444 -0.758599
v -0.132364 -0.033444 -0.758599
v -0.132364 -0.033985 -0.763364
v -0.142209 -0.033444 -0.758599
v -0.132364 -0.033985 -0.763364
v -0.142209 -0.033444 -0.758599
v -0.142209 -0.033985 -0.763364
v -0.142209 -0.033985 -0.763364
v -0.142209 -0.033444 -0.758599
v -0.132364 -0.033985 -0.763364
v -0.132364 -0.014005 -0.745580
v -0.142209 -0.018113 -0.744952
v -0.132364 -0.018113 -0.744952
v -0.132364 -0.018113 -0.744952
v -0.142209 -0.018113 -0.744952
v -0.132364 -0.014005 -0.745580
v -0.132364 -0.002782 -0.758599
v -0.142209 -0.002241 -0.763364
v -0.142209 -0.002782 -0.758599
v -0.142209 -0.002782 -0.758599
v -0.142209 -0.002241 -0.763364
v -0.132364 -0.002782 -0.758599
v -0.132364 -0.031859 -0.772570
v -0.142209 -0.033444 -0.768129
v -0.142209 -0.031859 -0.772570
v -0.142209 -0.031859 -0.772570
v -0.142209 -0.033444 -0.768129
v -0.132364 -0.031859 -0.772570
v -0.142209 -0.031859 -0.772570
v -0.132364 -0.029336 -0.776383
v -0.132364 -0.031859 -0.772570
v -0.132364 -0.031859 -0.772570
v -0.132364 -0.029336 -0.776383
v -0.142209 -0.031859 -0.772570
v -0.132364 -0.002241 -0.763364
v -0.142209 -0.002782 -0.768129
v -0.142209 -0.002241 -0.763364
v -0.142209 -0.002241 -0.763364
v -0.142209 -0.002782 -0.768129
v -0.132364 -0.002241 -0.763364
v -0.142209 -0.002782 -0.768129
v -0.132364 -0.002241 -0.763364
v -0.132364 -0.002782 -0.768129
v -0.132364 -0.002782 -0.768129
v -0.132364 -0.002241 -0.763364
v -0.142209 -0.002782 -0.768129
v -0.142209 -0.033985 -0.763364
v -0.132364 -0.033444 -0.768129
v -0.132364 -0.033985 -0.763364
v -0.132364 -0.033985 -0.763364
v -0.132364 -0.033444 -0.768129
v -0.142209 -0.033985 -0.763364
v -0.132364 -0.033444 -0.768129
v -0.142209 -0.033985 -0.763364
v -0.142209 -0.033444 -0.768129
v -0.142209 -0.033444 -0.768129
v -0.142209 -0.033985 -0.763364
v -0.132364 -0.033444 -0.768129
v -0.142209 -0.002241 -0.763364
v -0.132364 -0.002782 -0.758599
v -0.132364 -0.002241 -0.763364
v -0.132364 -0.002241 -0.763364
v -0.132364 -0.002782 -0.758599
v -0.142209 -0.002241 -0.763364
v -0.142209 -0.033444 -0.768129
v -0.132364 -0.031859 -0.772570
v -0.132364 -0.033444 -0.768129
v -0.132364 -0.033444 -0.768129
v -0.132364 -0.031859 -0.772570
v -0.142209 -0.033444 -0.768129
vn 0 0 -1
vn 0 -0.29526299045209237 -0.9554160174862506
vn 0 0.29526299045209237 0.9554160174862506
vn 0 0 1
vn 0 -0.5543791425747637 -0.8322642406580196
vn 0 0.5543791425747637 0.8322642406580196
vn 0 0.2952629904520928 -0.9554160174862504
vn 0 -0.2952629904520928 0.9554160174862504
vn 0 -0.7557849076122446 -0.6548199549689603
vn 0 0.7557849076122446 0.6548199549689603
vn 0 0.5543791425747642 -0.8322642406580194
vn 0 -0.5543791425747642 0.8322642406580194
vn 0 0.8944085935859036 0.44725078839470594
vn 0 -0.8944085935859036 -0.44725078839470594
vn 0 0.9741229000863361 0.2260189716094341
vn 0 -0.9741229000863361 -0.2260189716094341
vn 0 0.7557849076122448 -0.6548199549689598
vn 0 -0.7557849076122448 0.6548199549689598
vn 0 0.8944085935859039 -0.4472507883947055
vn 0 -0.8944085935859039 0.4472507883947055
vn 0 -0.9741229000863361 0.22601897160943366
vn 0 0.9741229000863361 -0.22601897160943366
vn 0 -1 0
vn 0 1 0
usemtl material_0_0
f 1//1 2//2 3//2
f 4//3 5//3 6//4
f 7//2 8//5 9//5
f 10//6 11//6 12//3
f 13//7 14//1 15//1
f 16//4 17//4 18//8
f 19//2 20//1 21//1
f 22//4 23//4 24//3
f 25//5 26//2 27//2
f 28//3 29//3 30//6
f 31//9 32//5 33//5
f 34//6 35//6 36//10
f 37//11 38//7 39//7
f 40//8 41//8 42//12
f 43//1 44//7 45//7
f 46//8 47//8 48//4
f 49//6 50//10 51//10
f 52//9 53//9 54//5
f 55//3 56//6 57//6
f 58//5 59//5 60//2
f 61//10 62//13 63//10
f 64//9 65//14 66//9
f 67//13 68//15 69//13
f 70//14 71//16 72//14
f 73//5 74//9 75//9
f 76//10 77//10 78//6
f 79//17 80//11 81//11
f 82//12 83//12 84//18
f 85//19 86//17 87//19
f 88//20 89//18 90//20
f 91//7 92//11 93//11
f 94//12 95//12 96//8
f 97//18 98//12 99//12
f 100//11 101//11 102//17
f 103//12 104//8 105//8
f 106//7 107//7 108//11
f 109//20 110//18 111//20
f 112//19 113//17 114//19
f 115//21 116//20 117//21
f 118//22 119//19 120//22
f 121//4 122//3 123//3
f 124//2 125//2 126//1
f 127//10 128//6 129//6
f 130//5 131//5 132//9
f 133//6 134//3 135//3
f 136//2 137//2 138//5
f 139//13 140//10 141//13
f 142//14 143//9 144//14
f 145//15 146//13 147//15
f 148//16 149//14 150//16
f 151//9 152//14 153//9
f 154//10 155//13 156//10
f 157//22 158//19 159//22
f 160//21 161//20 162//21
f 163//11 164//17 165//17
f 166//18 167//18 168//12
f 169//17 170//19 171//17
f 172//18 173//20 174//18
f 175//19 176//22 177//19
f 178//20 179//21 180//20
f 181//8 182//4 183//4
f 184//1 185//1 186//7
f 187//12 188//18 189//18
f 190//17 191//17 192//11
f 193//8 194//12 195//12
f 196//11 197//11 198//7
f 199//4 200//8 201//8
f 202//7 203//7 204//1
f 205//18 206//20 207//18
f 208//17 209//19 210//17
f 211//20 212//21 213//20
f 214//19 215//22 216//19
f 217//21 218//23 219//21
f 220//22 221//24 222//22
f 223//23 224//21 225//23
f 226//24 227//22 228//24
f 229//3 230//4 231//4
f 232//1 233//1 234//2
f 235//15 236//24 237//15
f 238//16 239//23 240//16
f 241//14 242//16 243//14
f 244//13 245//15 246//13
f 247//14 248//9 249//14
f 250//13 251//10 252//13
f 253//24 254//22 255//24
f 256//23 257//21 258//23
f 259//22 260//24 261//22
f 262//21 263//23 264//21
f 265//23 266//16 267//23
f 268//24 269//15 270//24
f 271//16 272//23 273//16
f 274//15 275//24 276//15
f 277//24 278//15 279//24
f 280//23 281//16 282//23
f 283//16 284//14 285//16
f 286//15 287//13 288//15
