# SSTK version 0.8.0
# 3
mtllib original-3.mtl
o mesh2/mesh2-geometry#mesh2-geometry
v -0.008266 0.267903 0.526802
v -0.002093 0.267903 0.517449
v -0.010369 0.267903 0.514141
v -0.000617 0.267903 0.530518
v 0.004214 0.267903 0.519382
v 0.006226 0.267903 0.533054
v 0.006003 0.267903 0.516476
v 0.008910 0.267903 0.519382
v 0.003140 0.267903 0.513467
v 0.012712 0.267903 0.534481
v 0.000635 0.267903 0.510561
v 0.010979 0.267903 0.520939
v -0.001109 0.267903 0.508019
v 0.013160 0.267903 0.521769
v -0.002714 0.267903 0.511755
v 0.012858 0.267903 0.534514
v -0.001736 0.267903 0.506099
v 0.019869 0.267903 0.535000
v -0.004249 0.267903 0.490833
v 0.020138 0.267903 0.522807
v -0.006622 0.267903 0.491273
v 0.001428 0.267903 0.491948
v 0.028860 0.267903 0.534429
v -0.007126 0.267903 0.505880
v -0.001378 0.267903 0.505126
v 0.026534 0.267903 0.522962
v -0.008559 0.267903 0.492594
v -0.000304 0.267903 0.504802
v -0.009491 0.267903 0.501160
v 0.006405 0.267903 0.507240
v -0.009849 0.267903 0.494575
v 0.009881 0.267903 0.495293
v -0.010279 0.267903 0.496997
v 0.014982 0.267903 0.510665
v 0.015451 0.267903 0.497589
v 0.021032 0.267903 0.511807
v 0.018654 0.267903 0.498354
v 0.020672 0.267903 0.497717
v 0.021345 0.267903 0.495805
v 0.024208 0.267903 0.511275
v 0.022631 0.267903 0.489307
v 0.026042 0.267903 0.494658
v 0.020806 0.267903 0.493614
v 0.026668 0.267903 0.509679
v 0.019187 0.267903 0.490837
v 0.028088 0.267903 0.499581
v 0.017856 0.267903 0.483528
v 0.028245 0.267903 0.507215
v 0.012712 0.267903 0.483528
v 0.028771 0.267903 0.504075
vn 0 1 0
vn 0 -1 0
usemtl material_0_0
f 1//1 2//1 3//1
f 2//1 1//1 4//1
f 2//1 4//1 5//1
f 5//1 4//1 6//1
f 5//1 6//1 7//1
f 7//1 6//1 8//1
f 9//1 5//1 7//1
f 8//1 6//1 10//1
f 11//1 5//1 9//1
f 8//1 10//1 12//1
f 13//1 5//1 11//1
f 12//1 10//1 14//1
f 13//1 15//1 5//1
f 14//1 10//1 16//1
f 15//1 13//1 17//1
f 14//1 16//1 18//1
f 19//1 15//1 17//1
f 14//1 18//1 20//1
f 21//1 15//1 19//1
f 19//1 17//1 22//1
f 20//1 18//1 23//1
f 21//1 24//1 15//1
f 22//1 17//1 25//1
f 20//1 23//1 26//1
f 27//1 24//1 21//1
f 22//1 25//1 28//1
f 27//1 29//1 24//1
f 22//1 28//1 30//1
f 31//1 29//1 27//1
f 22//1 30//1 32//1
f 29//1 31//1 33//1
f 32//1 30//1 34//1
f 32//1 34//1 35//1
f 35//1 34//1 36//1
f 35//1 36//1 37//1
f 37//1 36//1 38//1
f 38//1 36//1 39//1
f 39//1 36//1 40//1
f 39//1 40//1 41//1
f 41//1 40//1 42//1
f 41//1 43//1 39//1
f 42//1 40//1 44//1
f 41//1 45//1 43//1
f 42//1 44//1 46//1
f 47//1 45//1 41//1
f 46//1 44//1 48//1
f 45//1 47//1 49//1
f 46//1 48//1 50//1
usemtl material_1_0
f 3//2 2//2 1//2
f 4//2 1//2 2//2
f 5//2 4//2 2//2
f 6//2 4//2 5//2
f 7//2 6//2 5//2
f 8//2 6//2 7//2
f 7//2 5//2 9//2
f 10//2 6//2 8//2
f 9//2 5//2 11//2
f 12//2 10//2 8//2
f 11//2 5//2 13//2
f 14//2 10//2 12//2
f 5//2 15//2 13//2
f 16//2 10//2 14//2
f 17//2 13//2 15//2
f 18//2 16//2 14//2
f 17//2 15//2 19//2
f 20//2 18//2 14//2
f 19//2 15//2 21//2
f 22//2 17//2 19//2
f 23//2 18//2 20//2
f 15//2 24//2 21//2
f 25//2 17//2 22//2
f 26//2 23//2 20//2
f 21//2 24//2 27//2
f 28//2 25//2 22//2
f 24//2 29//2 27//2
f 30//2 28//2 22//2
f 27//2 29//2 31//2
f 32//2 30//2 22//2
f 33//2 31//2 29//2
f 34//2 30//2 32//2
f 35//2 34//2 32//2
f 36//2 34//2 35//2
f 37//2 36//2 35//2
f 38//2 36//2 37//2
f 39//2 36//2 38//2
f 40//2 36//2 39//2
f 41//2 40//2 39//2
f 42//2 40//2 41//2
f 39//2 43//2 41//2
f 44//2 40//2 42//2
f 43//2 45//2 41//2
f 46//2 44//2 42//2
f 41//2 45//2 47//2
f 48//2 44//2 46//2
f 49//2 47//2 45//2
f 50//2 48//2 46//2
