# SSTK version 0.8.0
# 6
mtllib original-6.mtl
o mesh5/mesh5-geometry#mesh5-geometry
v -0.023452 0.267903 0.549658
v -0.026483 0.267903 0.543964
v -0.028127 0.267903 0.547661
v -0.025935 0.267903 0.541071
v -0.022983 0.267903 0.536093
v -0.026371 0.267903 0.538282
v -0.019270 0.267903 0.552331
v -0.027679 0.267903 0.535519
v -0.019628 0.267903 0.537815
v -0.017615 0.267903 0.540685
v -0.017525 0.267903 0.548841
v -0.016944 0.267903 0.544703
vn 0 1 0
vn 0 -1 0
usemtl material_0_0
f 1//1 2//1 3//1
f 2//1 1//1 4//1
f 5//1 4//1 1//1
f 5//1 6//1 4//1
f 5//1 1//1 7//1
f 6//1 5//1 8//1
f 5//1 7//1 9//1
f 9//1 7//1 10//1
f 10//1 7//1 11//1
f 10//1 11//1 12//1
usemtl material_1_0
f 3//2 2//2 1//2
f 4//2 1//2 2//2
f 1//2 4//2 5//2
f 4//2 6//2 5//2
f 7//2 1//2 5//2
f 8//2 5//2 6//2
f 9//2 7//2 5//2
f 10//2 7//2 9//2
f 11//2 7//2 10//2
f 12//2 11//2 10//2
