# SSTK version 0.8.0
# 5
mtllib original-5.mtl
o mesh4/mesh4-geometry#mesh4-geometry
v -0.007819 0.267903 0.553057
v -0.010190 0.267903 0.539255
v -0.010190 0.267903 0.539878
v 0.003811 0.267903 0.544444
v 0.000154 0.267903 0.556326
v 0.007210 0.267903 0.558661
v 0.011247 0.267903 0.546856
v 0.013350 0.267903 0.560062
v 0.016201 0.267903 0.547661
v 0.018572 0.267903 0.560529
v 0.018594 0.267903 0.546908
v 0.022626 0.267903 0.559958
v 0.019282 0.267903 0.546059
v 0.019511 0.267903 0.545014
v 0.022670 0.267903 0.540169
v 0.019193 0.267903 0.542984
v 0.025930 0.267903 0.558246
v 0.018237 0.267903 0.540941
v 0.026109 0.267903 0.545092
v 0.017856 0.267903 0.534481
v 0.028128 0.267903 0.555703
v 0.012712 0.267903 0.534481
v 0.028172 0.267903 0.549250
v 0.028860 0.267903 0.552642
vn 0 1 0
vn 0 -1 0
usemtl material_0_0
f 1//1 2//1 3//1
f 2//1 1//1 4//1
f 4//1 1//1 5//1
f 4//1 5//1 6//1
f 4//1 6//1 7//1
f 7//1 6//1 8//1
f 7//1 8//1 9//1
f 9//1 8//1 10//1
f 9//1 10//1 11//1
f 11//1 10//1 12//1
f 11//1 12//1 13//1
f 13//1 12//1 14//1
f 15//1 14//1 12//1
f 15//1 16//1 14//1
f 15//1 12//1 17//1
f 15//1 18//1 16//1
f 15//1 17//1 19//1
f 20//1 18//1 15//1
f 19//1 17//1 21//1
f 18//1 20//1 22//1
f 19//1 21//1 23//1
f 23//1 21//1 24//1
usemtl material_1_0
f 3//2 2//2 1//2
f 4//2 1//2 2//2
f 5//2 1//2 4//2
f 6//2 5//2 4//2
f 7//2 6//2 4//2
f 8//2 6//2 7//2
f 9//2 8//2 7//2
f 10//2 8//2 9//2
f 11//2 10//2 9//2
f 12//2 10//2 11//2
f 13//2 12//2 11//2
f 14//2 12//2 13//2
f 12//2 14//2 15//2
f 14//2 16//2 15//2
f 17//2 12//2 15//2
f 16//2 18//2 15//2
f 19//2 17//2 15//2
f 15//2 18//2 20//2
f 21//2 17//2 19//2
f 22//2 20//2 18//2
f 23//2 21//2 19//2
f 24//2 21//2 23//2
