# SSTK version 0.8.0
# 57
mtllib original-57.mtl
o mesh12/mesh12-geometry/material_5/component_4#mesh12-geometry
v -0.142209 0.158205 -0.614392
v -0.142209 0.153508 -0.614966
v -0.142209 0.156896 -0.617155
v -0.142209 0.150153 -0.616688
v -0.142209 0.156896 -0.617155
v -0.142209 0.153508 -0.614966
v -0.142209 0.148140 -0.619558
v -0.142209 0.156896 -0.617155
v -0.142209 0.150153 -0.616688
v -0.142209 0.156460 -0.619944
v -0.142209 0.156896 -0.617155
v -0.142209 0.148140 -0.619558
v -0.142209 0.147469 -0.623576
v -0.142209 0.156460 -0.619944
v -0.142209 0.148140 -0.619558
v -0.142209 0.149795 -0.631203
v -0.142209 0.153977 -0.628531
v -0.142209 0.148051 -0.627714
v -0.142209 0.157008 -0.622836
v -0.142209 0.156460 -0.619944
v -0.142209 0.147469 -0.623576
v -0.142209 0.148051 -0.627714
v -0.142209 0.158652 -0.626533
v -0.142209 0.147469 -0.623576
v -0.142209 0.153977 -0.628531
v -0.142209 0.158652 -0.626533
v -0.142209 0.148051 -0.627714
v -0.142209 0.158652 -0.626533
v -0.142209 0.157008 -0.622836
v -0.142209 0.147469 -0.623576
v -0.142209 0.156896 -0.617155
v -0.142209 0.153508 -0.614966
v -0.142209 0.158205 -0.614392
v -0.142209 0.153508 -0.614966
v -0.142209 0.156896 -0.617155
v -0.142209 0.150153 -0.616688
v -0.142209 0.150153 -0.616688
v -0.142209 0.156896 -0.617155
v -0.142209 0.148140 -0.619558
v -0.142209 0.148140 -0.619558
v -0.142209 0.156896 -0.617155
v -0.142209 0.156460 -0.619944
v -0.142209 0.148140 -0.619558
v -0.142209 0.156460 -0.619944
v -0.142209 0.147469 -0.623576
v -0.142209 0.148051 -0.627714
v -0.142209 0.153977 -0.628531
v -0.142209 0.149795 -0.631203
v -0.142209 0.147469 -0.623576
v -0.142209 0.156460 -0.619944
v -0.142209 0.157008 -0.622836
v -0.142209 0.147469 -0.623576
v -0.142209 0.158652 -0.626533
v -0.142209 0.148051 -0.627714
v -0.142209 0.148051 -0.627714
v -0.142209 0.158652 -0.626533
v -0.142209 0.153977 -0.628531
v -0.142209 0.147469 -0.623576
v -0.142209 0.157008 -0.622836
v -0.142209 0.158652 -0.626533
vn 1 0 0
vn -1 0 0
usemtl material_0_0
f 1//1 2//1 3//1
f 4//1 5//1 6//1
f 7//1 8//1 9//1
f 10//1 11//1 12//1
f 13//1 14//1 15//1
f 16//1 17//1 18//1
f 19//1 20//1 21//1
f 22//1 23//1 24//1
f 25//1 26//1 27//1
f 28//1 29//1 30//1
usemtl material_1_0
f 31//2 32//2 33//2
f 34//2 35//2 36//2
f 37//2 38//2 39//2
f 40//2 41//2 42//2
f 43//2 44//2 45//2
f 46//2 47//2 48//2
f 49//2 50//2 51//2
f 52//2 53//2 54//2
f 55//2 56//2 57//2
f 58//2 59//2 60//2
