# SSTK version 0.8.0
# 58
mtllib original-58.mtl
o mesh12/mesh12-geometry/material_5/component_5#mesh12-geometry
v -0.142209 0.102420 -0.379303
v -0.142209 0.109577 -0.374543
v -0.142209 0.104416 -0.373790
v -0.142209 0.101755 -0.385361
v -0.142209 0.109725 -0.381856
v -0.142209 0.102420 -0.379303
v -0.142209 0.109577 -0.374543
v -0.142209 0.110768 -0.371352
v -0.142209 0.104416 -0.373790
v -0.142209 0.109180 -0.377889
v -0.142209 0.109577 -0.374543
v -0.142209 0.102420 -0.379303
v -0.142209 0.109725 -0.381856
v -0.142209 0.109180 -0.377889
v -0.142209 0.102420 -0.379303
v -0.142209 0.111361 -0.384985
v -0.142209 0.109725 -0.381856
v -0.142209 0.101755 -0.385361
v -0.142209 0.101998 -0.388719
v -0.142209 0.114086 -0.387278
v -0.142209 0.101755 -0.385361
v -0.142209 0.104416 -0.373790
v -0.142209 0.110768 -0.371352
v -0.142209 0.107810 -0.368212
v -0.142209 0.114086 -0.387278
v -0.142209 0.111361 -0.384985
v -0.142209 0.101755 -0.385361
v -0.142209 0.117902 -0.388734
v -0.142209 0.114086 -0.387278
v -0.142209 0.101998 -0.388719
v -0.142209 0.102728 -0.391737
v -0.142209 0.117902 -0.388734
v -0.142209 0.101998 -0.388719
v -0.142209 0.110768 -0.371352
v -0.142209 0.113323 -0.367447
v -0.142209 0.107810 -0.368212
v -0.142209 0.120944 -0.389149
v -0.142209 0.117902 -0.388734
v -0.142209 0.102728 -0.391737
v -0.142209 0.103944 -0.394414
v -0.142209 0.133044 -0.393455
v -0.142209 0.102728 -0.391737
v -0.142209 0.124919 -0.399176
v -0.142209 0.129095 -0.396793
v -0.142209 0.107746 -0.398646
v -0.142209 0.107810 -0.368212
v -0.142209 0.113323 -0.367447
v -0.142209 0.112669 -0.361960
v -0.142209 0.124545 -0.371611
v -0.142209 0.140178 -0.372195
v -0.142209 0.126478 -0.369114
v -0.142209 0.121006 -0.378745
v -0.142209 0.140178 -0.372195
v -0.142209 0.124545 -0.371611
v -0.142209 0.117902 -0.388734
v -0.142209 0.125529 -0.379187
v -0.142209 0.121006 -0.378745
v -0.142209 0.120944 -0.389149
v -0.142209 0.122895 -0.383337
v -0.142209 0.117902 -0.388734
v -0.142209 0.136400 -0.389538
v -0.142209 0.120944 -0.389149
v -0.142209 0.102728 -0.391737
v -0.142209 0.133044 -0.393455
v -0.142209 0.136400 -0.389538
v -0.142209 0.102728 -0.391737
v -0.142209 0.129095 -0.396793
v -0.142209 0.133044 -0.393455
v -0.142209 0.103944 -0.394414
v -0.142209 0.105646 -0.396750
v -0.142209 0.129095 -0.396793
v -0.142209 0.103944 -0.394414
v -0.142209 0.107746 -0.398646
v -0.142209 0.129095 -0.396793
v -0.142209 0.105646 -0.396750
v -0.142209 0.110153 -0.400000
v -0.142209 0.124919 -0.399176
v -0.142209 0.107746 -0.398646
v -0.142209 0.120518 -0.400606
v -0.142209 0.124919 -0.399176
v -0.142209 0.110153 -0.400000
v -0.142209 0.117813 -0.361960
v -0.142209 0.112669 -0.361960
v -0.142209 0.113323 -0.367447
v -0.142209 0.140178 -0.372195
v -0.142209 0.138568 -0.368809
v -0.142209 0.126478 -0.369114
v -0.142209 0.128845 -0.376696
v -0.142209 0.140178 -0.372195
v -0.142209 0.121006 -0.378745
v -0.142209 0.125529 -0.379187
v -0.142209 0.128845 -0.376696
v -0.142209 0.121006 -0.378745
v -0.142209 0.122895 -0.383337
v -0.142209 0.125529 -0.379187
v -0.142209 0.117902 -0.388734
v -0.142209 0.120944 -0.389149
v -0.142209 0.136400 -0.389538
v -0.142209 0.127469 -0.388371
v -0.142209 0.112867 -0.400812
v -0.142209 0.120518 -0.400606
v -0.142209 0.110153 -0.400000
v -0.142209 0.138568 -0.368809
v -0.142209 0.136085 -0.366630
v -0.142209 0.128520 -0.367330
v -0.142209 0.126478 -0.369114
v -0.142209 0.138568 -0.368809
v -0.142209 0.128520 -0.367330
v -0.142209 0.132842 -0.375866
v -0.142209 0.140178 -0.372195
v -0.142209 0.128845 -0.376696
v -0.142209 0.127469 -0.388371
v -0.142209 0.136400 -0.389538
v -0.142209 0.132641 -0.386036
v -0.142209 0.136400 -0.389538
v -0.142209 0.138797 -0.385413
v -0.142209 0.132641 -0.386036
v -0.142209 0.115889 -0.401083
v -0.142209 0.120518 -0.400606
v -0.142209 0.112867 -0.400812
v -0.142209 0.132932 -0.365903
v -0.142209 0.130672 -0.366260
v -0.142209 0.136085 -0.366630
v -0.142209 0.128520 -0.367330
v -0.142209 0.136085 -0.366630
v -0.142209 0.130672 -0.366260
v -0.142209 0.140178 -0.372195
v -0.142209 0.132842 -0.375866
v -0.142209 0.140715 -0.376540
v -0.142209 0.132641 -0.386036
v -0.142209 0.138797 -0.385413
v -0.142209 0.136013 -0.382845
v -0.142209 0.138797 -0.385413
v -0.142209 0.140235 -0.381080
v -0.142209 0.136855 -0.381191
v -0.142209 0.134721 -0.376093
v -0.142209 0.140715 -0.376540
v -0.142209 0.132842 -0.375866
v -0.142209 0.136063 -0.376774
v -0.142209 0.140715 -0.376540
v -0.142209 0.134721 -0.376093
v -0.142209 0.136868 -0.377909
v -0.142209 0.140235 -0.381080
v -0.142209 0.136063 -0.376774
v -0.142209 0.137136 -0.379498
v -0.142209 0.140235 -0.381080
v -0.142209 0.136868 -0.377909
v -0.142209 0.136855 -0.381191
v -0.142209 0.140235 -0.381080
v -0.142209 0.137136 -0.379498
v -0.142209 0.136013 -0.382845
v -0.142209 0.138797 -0.385413
v -0.142209 0.136855 -0.381191
v -0.142209 0.140235 -0.381080
v -0.142209 0.140715 -0.376540
v -0.142209 0.136063 -0.376774
v -0.142209 0.104416 -0.373790
v -0.142209 0.109577 -0.374543
v -0.142209 0.102420 -0.379303
v -0.142209 0.102420 -0.379303
v -0.142209 0.109725 -0.381856
v -0.142209 0.101755 -0.385361
v -0.142209 0.104416 -0.373790
v -0.142209 0.110768 -0.371352
v -0.142209 0.109577 -0.374543
v -0.142209 0.102420 -0.379303
v -0.142209 0.109577 -0.374543
v -0.142209 0.109180 -0.377889
v -0.142209 0.102420 -0.379303
v -0.142209 0.109180 -0.377889
v -0.142209 0.109725 -0.381856
v -0.142209 0.101755 -0.385361
v -0.142209 0.109725 -0.381856
v -0.142209 0.111361 -0.384985
v -0.142209 0.101755 -0.385361
v -0.142209 0.114086 -0.387278
v -0.142209 0.101998 -0.388719
v -0.142209 0.107810 -0.368212
v -0.142209 0.110768 -0.371352
v -0.142209 0.104416 -0.373790
v -0.142209 0.101755 -0.385361
v -0.142209 0.111361 -0.384985
v -0.142209 0.114086 -0.387278
v -0.142209 0.101998 -0.388719
v -0.142209 0.114086 -0.387278
v -0.142209 0.117902 -0.388734
v -0.142209 0.101998 -0.388719
v -0.142209 0.117902 -0.388734
v -0.142209 0.102728 -0.391737
v -0.142209 0.107810 -0.368212
v -0.142209 0.113323 -0.367447
v -0.142209 0.110768 -0.371352
v -0.142209 0.102728 -0.391737
v -0.142209 0.117902 -0.388734
v -0.142209 0.120944 -0.389149
v -0.142209 0.102728 -0.391737
v -0.142209 0.133044 -0.393455
v -0.142209 0.103944 -0.394414
v -0.142209 0.107746 -0.398646
v -0.142209 0.129095 -0.396793
v -0.142209 0.124919 -0.399176
v -0.142209 0.112669 -0.361960
v -0.142209 0.113323 -0.367447
v -0.142209 0.107810 -0.368212
v -0.142209 0.126478 -0.369114
v -0.142209 0.140178 -0.372195
v -0.142209 0.124545 -0.371611
v -0.142209 0.124545 -0.371611
v -0.142209 0.140178 -0.372195
v -0.142209 0.121006 -0.378745
v -0.142209 0.121006 -0.378745
v -0.142209 0.125529 -0.379187
v -0.142209 0.117902 -0.388734
v -0.142209 0.117902 -0.388734
v -0.142209 0.122895 -0.383337
v -0.142209 0.120944 -0.389149
v -0.142209 0.102728 -0.391737
v -0.142209 0.120944 -0.389149
v -0.142209 0.136400 -0.389538
v -0.142209 0.102728 -0.391737
v -0.142209 0.136400 -0.389538
v -0.142209 0.133044 -0.393455
v -0.142209 0.103944 -0.394414
v -0.142209 0.133044 -0.393455
v -0.142209 0.129095 -0.396793
v -0.142209 0.103944 -0.394414
v -0.142209 0.129095 -0.396793
v -0.142209 0.105646 -0.396750
v -0.142209 0.105646 -0.396750
v -0.142209 0.129095 -0.396793
v -0.142209 0.107746 -0.398646
v -0.142209 0.107746 -0.398646
v -0.142209 0.124919 -0.399176
v -0.142209 0.110153 -0.400000
v -0.142209 0.110153 -0.400000
v -0.142209 0.124919 -0.399176
v -0.142209 0.120518 -0.400606
v -0.142209 0.113323 -0.367447
v -0.142209 0.112669 -0.361960
v -0.142209 0.117813 -0.361960
v -0.142209 0.126478 -0.369114
v -0.142209 0.138568 -0.368809
v -0.142209 0.140178 -0.372195
v -0.142209 0.121006 -0.378745
v -0.142209 0.140178 -0.372195
v -0.142209 0.128845 -0.376696
v -0.142209 0.121006 -0.378745
v -0.142209 0.128845 -0.376696
v -0.142209 0.125529 -0.379187
v -0.142209 0.117902 -0.388734
v -0.142209 0.125529 -0.379187
v -0.142209 0.122895 -0.383337
v -0.142209 0.127469 -0.388371
v -0.142209 0.136400 -0.389538
v -0.142209 0.120944 -0.389149
v -0.142209 0.110153 -0.400000
v -0.142209 0.120518 -0.400606
v -0.142209 0.112867 -0.400812
v -0.142209 0.128520 -0.367330
v -0.142209 0.136085 -0.366630
v -0.142209 0.138568 -0.368809
v -0.142209 0.128520 -0.367330
v -0.142209 0.138568 -0.368809
v -0.142209 0.126478 -0.369114
v -0.142209 0.128845 -0.376696
v -0.142209 0.140178 -0.372195
v -0.142209 0.132842 -0.375866
v -0.142209 0.132641 -0.386036
v -0.142209 0.136400 -0.389538
v -0.142209 0.127469 -0.388371
v -0.142209 0.132641 -0.386036
v -0.142209 0.138797 -0.385413
v -0.142209 0.136400 -0.389538
v -0.142209 0.112867 -0.400812
v -0.142209 0.120518 -0.400606
v -0.142209 0.115889 -0.401083
v -0.142209 0.136085 -0.366630
v -0.142209 0.130672 -0.366260
v -0.142209 0.132932 -0.365903
v -0.142209 0.130672 -0.366260
v -0.142209 0.136085 -0.366630
v -0.142209 0.128520 -0.367330
v -0.142209 0.140715 -0.376540
v -0.142209 0.132842 -0.375866
v -0.142209 0.140178 -0.372195
v -0.142209 0.136013 -0.382845
v -0.142209 0.138797 -0.385413
v -0.142209 0.132641 -0.386036
v -0.142209 0.136855 -0.381191
v -0.142209 0.140235 -0.381080
v -0.142209 0.138797 -0.385413
v -0.142209 0.132842 -0.375866
v -0.142209 0.140715 -0.376540
v -0.142209 0.134721 -0.376093
v -0.142209 0.134721 -0.376093
v -0.142209 0.140715 -0.376540
v -0.142209 0.136063 -0.376774
v -0.142209 0.136063 -0.376774
v -0.142209 0.140235 -0.381080
v -0.142209 0.136868 -0.377909
v -0.142209 0.136868 -0.377909
v -0.142209 0.140235 -0.381080
v -0.142209 0.137136 -0.379498
v -0.142209 0.137136 -0.379498
v -0.142209 0.140235 -0.381080
v -0.142209 0.136855 -0.381191
v -0.142209 0.136855 -0.381191
v -0.142209 0.138797 -0.385413
v -0.142209 0.136013 -0.382845
v -0.142209 0.136063 -0.376774
v -0.142209 0.140715 -0.376540
v -0.142209 0.140235 -0.381080
vn 1 0 0
vn -1 0 0
usemtl material_0_0
f 1//1 2//1 3//1
f 4//1 5//1 6//1
f 7//1 8//1 9//1
f 10//1 11//1 12//1
f 13//1 14//1 15//1
f 16//1 17//1 18//1
f 19//1 20//1 21//1
f 22//1 23//1 24//1
f 25//1 26//1 27//1
f 28//1 29//1 30//1
f 31//1 32//1 33//1
f 34//1 35//1 36//1
f 37//1 38//1 39//1
f 40//1 41//1 42//1
f 43//1 44//1 45//1
f 46//1 47//1 48//1
f 49//1 50//1 51//1
f 52//1 53//1 54//1
f 55//1 56//1 57//1
f 58//1 59//1 60//1
f 61//1 62//1 63//1
f 64//1 65//1 66//1
f 67//1 68//1 69//1
f 70//1 71//1 72//1
f 73//1 74//1 75//1
f 76//1 77//1 78//1
f 79//1 80//1 81//1
f 82//1 83//1 84//1
f 85//1 86//1 87//1
f 88//1 89//1 90//1
f 91//1 92//1 93//1
f 94//1 95//1 96//1
f 97//1 98//1 99//1
f 100//1 101//1 102//1
f 103//1 104//1 105//1
f 106//1 107//1 108//1
f 109//1 110//1 111//1
f 112//1 113//1 114//1
f 115//1 116//1 117//1
f 118//1 119//1 120//1
f 121//1 122//1 123//1
f 124//1 125//1 126//1
f 127//1 128//1 129//1
f 130//1 131//1 132//1
f 133//1 134//1 135//1
f 136//1 137//1 138//1
f 139//1 140//1 141//1
f 142//1 143//1 144//1
f 145//1 146//1 147//1
f 148//1 149//1 150//1
f 151//1 152//1 153//1
f 154//1 155//1 156//1
usemtl material_1_0
f 157//2 158//2 159//2
f 160//2 161//2 162//2
f 163//2 164//2 165//2
f 166//2 167//2 168//2
f 169//2 170//2 171//2
f 172//2 173//2 174//2
f 175//2 176//2 177//2
f 178//2 179//2 180//2
f 181//2 182//2 183//2
f 184//2 185//2 186//2
f 187//2 188//2 189//2
f 190//2 191//2 192//2
f 193//2 194//2 195//2
f 196//2 197//2 198//2
f 199//2 200//2 201//2
f 202//2 203//2 204//2
f 205//2 206//2 207//2
f 208//2 209//2 210//2
f 211//2 212//2 213//2
f 214//2 215//2 216//2
f 217//2 218//2 219//2
f 220//2 221//2 222//2
f 223//2 224//2 225//2
f 226//2 227//2 228//2
f 229//2 230//2 231//2
f 232//2 233//2 234//2
f 235//2 236//2 237//2
f 238//2 239//2 240//2
f 241//2 242//2 243//2
f 244//2 245//2 246//2
f 247//2 248//2 249//2
f 250//2 251//2 252//2
f 253//2 254//2 255//2
f 256//2 257//2 258//2
f 259//2 260//2 261//2
f 262//2 263//2 264//2
f 265//2 266//2 267//2
f 268//2 269//2 270//2
f 271//2 272//2 273//2
f 274//2 275//2 276//2
f 277//2 278//2 279//2
f 280//2 281//2 282//2
f 283//2 284//2 285//2
f 286//2 287//2 288//2
f 289//2 290//2 291//2
f 292//2 293//2 294//2
f 295//2 296//2 297//2
f 298//2 299//2 300//2
f 301//2 302//2 303//2
f 304//2 305//2 306//2
f 307//2 308//2 309//2
f 310//2 311//2 312//2
