# SSTK version 0.8.0
# 48
mtllib original-48.mtl
o mesh12/mesh12-geometry/material_4/component_8#mesh12-geometry
v -0.142209 0.153508 -0.614966
v -0.139659 0.158205 -0.614392
v -0.142209 0.158205 -0.614392
v -0.142209 0.158205 -0.614392
v -0.139659 0.158205 -0.614392
v -0.142209 0.153508 -0.614966
v -0.139659 0.158205 -0.614392
v -0.142209 0.156896 -0.617155
v -0.142209 0.158205 -0.614392
v -0.142209 0.158205 -0.614392
v -0.142209 0.156896 -0.617155
v -0.139659 0.158205 -0.614392
v -0.139659 0.158205 -0.614392
v -0.142209 0.153508 -0.614966
v -0.139659 0.153508 -0.614966
v -0.139659 0.153508 -0.614966
v -0.142209 0.153508 -0.614966
v -0.139659 0.158205 -0.614392
v -0.142209 0.150153 -0.616688
v -0.139659 0.153508 -0.614966
v -0.142209 0.153508 -0.614966
v -0.142209 0.153508 -0.614966
v -0.139659 0.153508 -0.614966
v -0.142209 0.150153 -0.616688
v -0.139659 0.148140 -0.619558
v -0.142209 0.150153 -0.616688
v -0.142209 0.148140 -0.619558
v -0.142209 0.148140 -0.619558
v -0.142209 0.150153 -0.616688
v -0.139659 0.148140 -0.619558
v -0.142209 0.156896 -0.617155
v -0.139659 0.158205 -0.614392
v -0.139659 0.156896 -0.617155
v -0.139659 0.156896 -0.617155
v -0.139659 0.158205 -0.614392
v -0.142209 0.156896 -0.617155
v -0.139659 0.153508 -0.614966
v -0.139659 0.156896 -0.617155
v -0.139659 0.158205 -0.614392
v -0.139659 0.158205 -0.614392
v -0.139659 0.156896 -0.617155
v -0.139659 0.153508 -0.614966
v -0.139659 0.153508 -0.614966
v -0.142209 0.150153 -0.616688
v -0.139659 0.150153 -0.616688
v -0.139659 0.150153 -0.616688
v -0.142209 0.150153 -0.616688
v -0.139659 0.153508 -0.614966
v -0.142209 0.150153 -0.616688
v -0.139659 0.148140 -0.619558
v -0.139659 0.150153 -0.616688
v -0.139659 0.150153 -0.616688
v -0.139659 0.148140 -0.619558
v -0.142209 0.150153 -0.616688
v -0.142209 0.148140 -0.619558
v -0.139659 0.147469 -0.623576
v -0.139659 0.148140 -0.619558
v -0.139659 0.148140 -0.619558
v -0.139659 0.147469 -0.623576
v -0.142209 0.148140 -0.619558
v -0.139659 0.156896 -0.617155
v -0.142209 0.156460 -0.619944
v -0.142209 0.156896 -0.617155
v -0.142209 0.156896 -0.617155
v -0.142209 0.156460 -0.619944
v -0.139659 0.156896 -0.617155
v -0.139659 0.156896 -0.617155
v -0.139659 0.153508 -0.614966
v -0.139659 0.150153 -0.616688
v -0.139659 0.150153 -0.616688
v -0.139659 0.153508 -0.614966
v -0.139659 0.156896 -0.617155
v -0.139659 0.156896 -0.617155
v -0.139659 0.150153 -0.616688
v -0.139659 0.148140 -0.619558
v -0.139659 0.148140 -0.619558
v -0.139659 0.150153 -0.616688
v -0.139659 0.156896 -0.617155
v -0.139659 0.147469 -0.623576
v -0.142209 0.148140 -0.619558
v -0.142209 0.147469 -0.623576
v -0.142209 0.147469 -0.623576
v -0.142209 0.148140 -0.619558
v -0.139659 0.147469 -0.623576
v -0.139659 0.156460 -0.619944
v -0.139659 0.148140 -0.619558
v -0.139659 0.147469 -0.623576
v -0.139659 0.147469 -0.623576
v -0.139659 0.148140 -0.619558
v -0.139659 0.156460 -0.619944
v -0.142209 0.153977 -0.628531
v -0.139659 0.149795 -0.631203
v -0.142209 0.149795 -0.631203
v -0.142209 0.149795 -0.631203
v -0.139659 0.149795 -0.631203
v -0.142209 0.153977 -0.628531
v -0.139659 0.149795 -0.631203
v -0.142209 0.148051 -0.627714
v -0.142209 0.149795 -0.631203
v -0.142209 0.149795 -0.631203
v -0.142209 0.148051 -0.627714
v -0.139659 0.149795 -0.631203
v -0.139659 0.156460 -0.619944
v -0.142209 0.157008 -0.622836
v -0.142209 0.156460 -0.619944
v -0.142209 0.156460 -0.619944
v -0.142209 0.157008 -0.622836
v -0.139659 0.156460 -0.619944
v -0.142209 0.156460 -0.619944
v -0.139659 0.156896 -0.617155
v -0.139659 0.156460 -0.619944
v -0.139659 0.156460 -0.619944
v -0.139659 0.156896 -0.617155
v -0.142209 0.156460 -0.619944
v -0.139659 0.156896 -0.617155
v -0.139659 0.148140 -0.619558
v -0.139659 0.156460 -0.619944
v -0.139659 0.156460 -0.619944
v -0.139659 0.148140 -0.619558
v -0.139659 0.156896 -0.617155
v -0.142209 0.147469 -0.623576
v -0.139659 0.148051 -0.627714
v -0.139659 0.147469 -0.623576
v -0.139659 0.147469 -0.623576
v -0.139659 0.148051 -0.627714
v -0.142209 0.147469 -0.623576
v -0.139659 0.156460 -0.619944
v -0.139659 0.147469 -0.623576
v -0.139659 0.157008 -0.622836
v -0.139659 0.157008 -0.622836
v -0.139659 0.147469 -0.623576
v -0.139659 0.156460 -0.619944
v -0.139659 0.148051 -0.627714
v -0.142209 0.147469 -0.623576
v -0.142209 0.148051 -0.627714
v -0.142209 0.148051 -0.627714
v -0.142209 0.147469 -0.623576
v -0.139659 0.148051 -0.627714
v -0.142209 0.158652 -0.626533
v -0.139659 0.153977 -0.628531
v -0.142209 0.153977 -0.628531
v -0.142209 0.153977 -0.628531
v -0.139659 0.153977 -0.628531
v -0.142209 0.158652 -0.626533
v -0.139659 0.149795 -0.631203
v -0.142209 0.153977 -0.628531
v -0.139659 0.153977 -0.628531
v -0.139659 0.153977 -0.628531
v -0.142209 0.153977 -0.628531
v -0.139659 0.149795 -0.631203
v -0.142209 0.148051 -0.627714
v -0.139659 0.149795 -0.631203
v -0.139659 0.148051 -0.627714
v -0.139659 0.148051 -0.627714
v -0.139659 0.149795 -0.631203
v -0.142209 0.148051 -0.627714
v -0.139659 0.157008 -0.622836
v -0.142209 0.158652 -0.626533
v -0.142209 0.157008 -0.622836
v -0.142209 0.157008 -0.622836
v -0.142209 0.158652 -0.626533
v -0.139659 0.157008 -0.622836
v -0.142209 0.157008 -0.622836
v -0.139659 0.156460 -0.619944
v -0.139659 0.157008 -0.622836
v -0.139659 0.157008 -0.622836
v -0.139659 0.156460 -0.619944
v -0.142209 0.157008 -0.622836
v -0.139659 0.158652 -0.626533
v -0.139659 0.147469 -0.623576
v -0.139659 0.148051 -0.627714
v -0.139659 0.148051 -0.627714
v -0.139659 0.147469 -0.623576
v -0.139659 0.158652 -0.626533
v -0.139659 0.157008 -0.622836
v -0.139659 0.147469 -0.623576
v -0.139659 0.158652 -0.626533
v -0.139659 0.158652 -0.626533
v -0.139659 0.147469 -0.623576
v -0.139659 0.157008 -0.622836
v -0.139659 0.153977 -0.628531
v -0.142209 0.158652 -0.626533
v -0.139659 0.158652 -0.626533
v -0.139659 0.158652 -0.626533
v -0.142209 0.158652 -0.626533
v -0.139659 0.153977 -0.628531
v -0.139659 0.153977 -0.628531
v -0.139659 0.148051 -0.627714
v -0.139659 0.149795 -0.631203
v -0.139659 0.149795 -0.631203
v -0.139659 0.148051 -0.627714
v -0.139659 0.153977 -0.628531
v -0.142209 0.158652 -0.626533
v -0.139659 0.157008 -0.622836
v -0.139659 0.158652 -0.626533
v -0.139659 0.158652 -0.626533
v -0.139659 0.157008 -0.622836
v -0.142209 0.158652 -0.626533
v -0.139659 0.158652 -0.626533
v -0.139659 0.148051 -0.627714
v -0.139659 0.153977 -0.628531
v -0.139659 0.153977 -0.628531
v -0.139659 0.148051 -0.627714
v -0.139659 0.158652 -0.626533
vn 0 -0.2935329786820283 0.9559489476044501
vn 0 -0.1213120546178765 0.9926144193010644
vn 0 0.1213120546178765 -0.9926144193010644
vn 0 0.2935329786820283 -0.9559489476044501
vn 0 0.9037914256488049 -0.4279731988380823
vn 0 0.9557245272448581 -0.2942628553225715
vn 0 -0.9037914256488049 0.4279731988380823
vn 0 -0.9557245272448581 0.2942628553225715
vn 0 -0.6568998439120055 0.7539778478631735
vn 0 0.6568998439120055 -0.7539778478631735
vn 0 -0.9254618037897615 0.37884092931757135
vn 0 0.9254618037897615 -0.37884092931757135
vn 1 0 0
vn -1 0 0
vn 0 -0.9999164815507559 0.01292400569315978
vn 0 0.9999164815507559 -0.01292400569315978
vn 0 0.9998713187656171 0.01604200454761738
vn 0 -0.9998713187656171 -0.01604200454761738
vn 0 0.4672821297083963 -0.8841082576558063
vn 0 0.5384142218612815 -0.8426803223628228
vn 0 -0.5384142218612815 0.8426803223628228
vn 0 -0.4672821297083963 0.8841082576558063
vn 0 -0.8944499945737618 -0.4471679854450647
vn 0 -0.9548612767355578 -0.2970520866631655
vn 0 0.8944499945737618 0.4471679854450647
vn 0 0.9548612767355578 0.2970520866631655
vn 0 0.9545056288857869 0.29819289801292787
vn 0 -0.9545056288857869 -0.29819289801292787
vn 0 0.3929849476001067 -0.9195449042650072
vn 0 -0.3929849476001067 0.9195449042650072
vn 0 0.9137432533440438 0.40629209562609336
vn 0 -0.9137432533440438 -0.40629209562609336
usemtl material_0_0
f 1//1 2//2 3//2
f 4//3 5//3 6//4
f 7//5 8//6 9//5
f 10//7 11//8 12//7
f 13//2 14//1 15//1
f 16//4 17//4 18//3
f 19//9 20//1 21//1
f 22//4 23//4 24//10
f 25//11 26//9 27//11
f 28//12 29//10 30//12
f 31//6 32//5 33//6
f 34//8 35//7 36//8
f 37//13 38//13 39//13
f 40//14 41//14 42//14
f 43//1 44//9 45//9
f 46//10 47//10 48//4
f 49//9 50//11 51//9
f 52//10 53//12 54//10
f 55//11 56//15 57//11
f 58//12 59//16 60//12
f 61//6 62//17 63//6
f 64//8 65//18 66//8
f 67//13 68//13 69//13
f 70//14 71//14 72//14
f 73//13 74//13 75//13
f 76//14 77//14 78//14
f 79//15 80//11 81//15
f 82//16 83//12 84//16
f 85//13 86//13 87//13
f 88//14 89//14 90//14
f 91//19 92//20 93//20
f 94//21 95//21 96//22
f 97//23 98//24 99//23
f 100//25 101//26 102//25
f 103//17 104//27 105//17
f 106//18 107//28 108//18
f 109//17 110//6 111//17
f 112//18 113//8 114//18
f 115//13 116//13 117//13
f 118//14 119//14 120//14
f 121//15 122//24 123//15
f 124//16 125//26 126//16
f 127//13 128//13 129//13
f 130//14 131//14 132//14
f 133//24 134//15 135//24
f 136//26 137//16 138//26
f 139//29 140//19 141//19
f 142//22 143//22 144//30
f 145//20 146//19 147//19
f 148//22 149//22 150//21
f 151//24 152//23 153//24
f 154//26 155//25 156//26
f 157//27 158//31 159//27
f 160//28 161//32 162//28
f 163//27 164//17 165//27
f 166//28 167//18 168//28
f 169//13 170//13 171//13
f 172//14 173//14 174//14
f 175//13 176//13 177//13
f 178//14 179//14 180//14
f 181//19 182//29 183//29
f 184//30 185//30 186//22
f 187//13 188//13 189//13
f 190//14 191//14 192//14
f 193//31 194//27 195//31
f 196//32 197//28 198//32
f 199//13 200//13 201//13
f 202//14 203//14 204//14
