# SSTK version 0.8.0
# 38
mtllib original-38.mtl
o mesh12/mesh12-geometry/material_3/component_4#mesh12-geometry
v -0.142209 0.157796 -0.482287
v -0.142209 0.160462 -0.482857
v -0.142209 0.151604 -0.483311
v -0.142209 0.161470 -0.484310
v -0.142209 0.151604 -0.483311
v -0.142209 0.160462 -0.482857
v -0.142209 0.160955 -0.485379
v -0.142209 0.144314 -0.486386
v -0.142209 0.161470 -0.484310
v -0.142209 0.130159 -0.497074
v -0.142209 0.136855 -0.491107
v -0.142209 0.143339 -0.493514
v -0.142209 0.144314 -0.486386
v -0.142209 0.151604 -0.483311
v -0.142209 0.161470 -0.484310
v -0.142209 0.159409 -0.486665
v -0.142209 0.144314 -0.486386
v -0.142209 0.160955 -0.485379
v -0.142209 0.143339 -0.493514
v -0.142209 0.136855 -0.491107
v -0.142209 0.153228 -0.489888
v -0.142209 0.153228 -0.489888
v -0.142209 0.136855 -0.491107
v -0.142209 0.159409 -0.486665
v -0.142209 0.136855 -0.491107
v -0.142209 0.144314 -0.486386
v -0.142209 0.159409 -0.486665
v -0.142209 0.151604 -0.483311
v -0.142209 0.160462 -0.482857
v -0.142209 0.157796 -0.482287
v -0.142209 0.160462 -0.482857
v -0.142209 0.151604 -0.483311
v -0.142209 0.161470 -0.484310
v -0.142209 0.161470 -0.484310
v -0.142209 0.144314 -0.486386
v -0.142209 0.160955 -0.485379
v -0.142209 0.143339 -0.493514
v -0.142209 0.136855 -0.491107
v -0.142209 0.130159 -0.497074
v -0.142209 0.161470 -0.484310
v -0.142209 0.151604 -0.483311
v -0.142209 0.144314 -0.486386
v -0.142209 0.160955 -0.485379
v -0.142209 0.144314 -0.486386
v -0.142209 0.159409 -0.486665
v -0.142209 0.153228 -0.489888
v -0.142209 0.136855 -0.491107
v -0.142209 0.143339 -0.493514
v -0.142209 0.159409 -0.486665
v -0.142209 0.136855 -0.491107
v -0.142209 0.153228 -0.489888
v -0.142209 0.159409 -0.486665
v -0.142209 0.144314 -0.486386
v -0.142209 0.136855 -0.491107
vn -1 0 0
vn 1 0 0
usemtl material_0_0
f 1//1 2//1 3//1
f 4//1 5//1 6//1
f 7//1 8//1 9//1
f 10//1 11//1 12//1
f 13//1 14//1 15//1
f 16//1 17//1 18//1
f 19//1 20//1 21//1
f 22//1 23//1 24//1
f 25//1 26//1 27//1
usemtl material_1_0
f 28//2 29//2 30//2
f 31//2 32//2 33//2
f 34//2 35//2 36//2
f 37//2 38//2 39//2
f 40//2 41//2 42//2
f 43//2 44//2 45//2
f 46//2 47//2 48//2
f 49//2 50//2 51//2
f 52//2 53//2 54//2
