# SSTK version 0.8.0
# 59
mtllib original-59.mtl
o mesh12/mesh12-geometry/material_5/component_6#mesh12-geometry
v -0.142209 0.166139 -0.480399
v -0.142209 0.164713 -0.479303
v -0.142209 0.150612 -0.479563
v -0.142209 0.166614 -0.481768
v -0.142209 0.166139 -0.480399
v -0.142209 0.146231 -0.481087
v -0.142209 0.164713 -0.479303
v -0.142209 0.162482 -0.478583
v -0.142209 0.155065 -0.478648
v -0.142209 0.150612 -0.479563
v -0.142209 0.164713 -0.479303
v -0.142209 0.155065 -0.478648
v -0.142209 0.146231 -0.481087
v -0.142209 0.166139 -0.480399
v -0.142209 0.150612 -0.479563
v -0.142209 0.166614 -0.481768
v -0.142209 0.157796 -0.482287
v -0.142209 0.166435 -0.482702
v -0.142209 0.141923 -0.483221
v -0.142209 0.166614 -0.481768
v -0.142209 0.146231 -0.481087
v -0.142209 0.109817 -0.511220
v -0.142209 0.125775 -0.510889
v -0.142209 0.105467 -0.508671
v -0.142209 0.159591 -0.478343
v -0.142209 0.155065 -0.478648
v -0.142209 0.162482 -0.478583
v -0.142209 0.162230 -0.495881
v -0.142209 0.166435 -0.482702
v -0.142209 0.161470 -0.484310
v -0.142209 0.160462 -0.482857
v -0.142209 0.166435 -0.482702
v -0.142209 0.157796 -0.482287
v -0.142209 0.157796 -0.482287
v -0.142209 0.166614 -0.481768
v -0.142209 0.141923 -0.483221
v -0.142209 0.105467 -0.508671
v -0.142209 0.137986 -0.507348
v -0.142209 0.103843 -0.506837
v -0.142209 0.125775 -0.510889
v -0.142209 0.137986 -0.507348
v -0.142209 0.105467 -0.508671
v -0.142209 0.115442 -0.512070
v -0.142209 0.125775 -0.510889
v -0.142209 0.109817 -0.511220
v -0.142209 0.150623 -0.502121
v -0.142209 0.162230 -0.495881
v -0.142209 0.130159 -0.497074
v -0.142209 0.161470 -0.484310
v -0.142209 0.166435 -0.482702
v -0.142209 0.160462 -0.482857
v -0.142209 0.160955 -0.485379
v -0.142209 0.162230 -0.495881
v -0.142209 0.161470 -0.484310
v -0.142209 0.151604 -0.483311
v -0.142209 0.157796 -0.482287
v -0.142209 0.141923 -0.483221
v -0.142209 0.103843 -0.506837
v -0.142209 0.137986 -0.507348
v -0.142209 0.102683 -0.504734
v -0.142209 0.117813 -0.477202
v -0.142209 0.112669 -0.477202
v -0.142209 0.110567 -0.486853
v -0.142209 0.137986 -0.507348
v -0.142209 0.150623 -0.502121
v -0.142209 0.101987 -0.502362
v -0.142209 0.130159 -0.497074
v -0.142209 0.162230 -0.495881
v -0.142209 0.143339 -0.493514
v -0.142209 0.123673 -0.498475
v -0.142209 0.150623 -0.502121
v -0.142209 0.130159 -0.497074
v -0.142209 0.159409 -0.486665
v -0.142209 0.162230 -0.495881
v -0.142209 0.160955 -0.485379
v -0.142209 0.133088 -0.489473
v -0.142209 0.151604 -0.483311
v -0.142209 0.141923 -0.483221
v -0.142209 0.102683 -0.504734
v -0.142209 0.137986 -0.507348
v -0.142209 0.101987 -0.502362
v -0.142209 0.107810 -0.483824
v -0.142209 0.110567 -0.486853
v -0.142209 0.112669 -0.477202
v -0.142209 0.101987 -0.502362
v -0.142209 0.150623 -0.502121
v -0.142209 0.101755 -0.499721
v -0.142209 0.143339 -0.493514
v -0.142209 0.162230 -0.495881
v -0.142209 0.153228 -0.489888
v -0.142209 0.117276 -0.498891
v -0.142209 0.150623 -0.502121
v -0.142209 0.123673 -0.498475
v -0.142209 0.130159 -0.497074
v -0.142209 0.136855 -0.491107
v -0.142209 0.123673 -0.498475
v -0.142209 0.153228 -0.489888
v -0.142209 0.162230 -0.495881
v -0.142209 0.159409 -0.486665
v -0.142209 0.144314 -0.486386
v -0.142209 0.151604 -0.483311
v -0.142209 0.133088 -0.489473
v -0.142209 0.109258 -0.489927
v -0.142209 0.110567 -0.486853
v -0.142209 0.104416 -0.489577
v -0.142209 0.104416 -0.489577
v -0.142209 0.110567 -0.486853
v -0.142209 0.107810 -0.483824
v -0.142209 0.101755 -0.499721
v -0.142209 0.150623 -0.502121
v -0.142209 0.117276 -0.498891
v -0.142209 0.123673 -0.498475
v -0.142209 0.136855 -0.491107
v -0.142209 0.133088 -0.489473
v -0.142209 0.136855 -0.491107
v -0.142209 0.144314 -0.486386
v -0.142209 0.133088 -0.489473
v -0.142209 0.102420 -0.494772
v -0.142209 0.109258 -0.489927
v -0.142209 0.104416 -0.489577
v -0.142209 0.101755 -0.499721
v -0.142209 0.109392 -0.495297
v -0.142209 0.102420 -0.494772
v -0.142209 0.117276 -0.498891
v -0.142209 0.113787 -0.498475
v -0.142209 0.101755 -0.499721
v -0.142209 0.108822 -0.492820
v -0.142209 0.109258 -0.489927
v -0.142209 0.102420 -0.494772
v -0.142209 0.109392 -0.495297
v -0.142209 0.108822 -0.492820
v -0.142209 0.102420 -0.494772
v -0.142209 0.111103 -0.497230
v -0.142209 0.109392 -0.495297
v -0.142209 0.101755 -0.499721
v -0.142209 0.113787 -0.498475
v -0.142209 0.111103 -0.497230
v -0.142209 0.101755 -0.499721
v -0.142209 0.150612 -0.479563
v -0.142209 0.164713 -0.479303
v -0.142209 0.166139 -0.480399
v -0.142209 0.146231 -0.481087
v -0.142209 0.166139 -0.480399
v -0.142209 0.166614 -0.481768
v -0.142209 0.155065 -0.478648
v -0.142209 0.162482 -0.478583
v -0.142209 0.164713 -0.479303
v -0.142209 0.155065 -0.478648
v -0.142209 0.164713 -0.479303
v -0.142209 0.150612 -0.479563
v -0.142209 0.150612 -0.479563
v -0.142209 0.166139 -0.480399
v -0.142209 0.146231 -0.481087
v -0.142209 0.166435 -0.482702
v -0.142209 0.157796 -0.482287
v -0.142209 0.166614 -0.481768
v -0.142209 0.146231 -0.481087
v -0.142209 0.166614 -0.481768
v -0.142209 0.141923 -0.483221
v -0.142209 0.105467 -0.508671
v -0.142209 0.125775 -0.510889
v -0.142209 0.109817 -0.511220
v -0.142209 0.162482 -0.478583
v -0.142209 0.155065 -0.478648
v -0.142209 0.159591 -0.478343
v -0.142209 0.161470 -0.484310
v -0.142209 0.166435 -0.482702
v -0.142209 0.162230 -0.495881
v -0.142209 0.157796 -0.482287
v -0.142209 0.166435 -0.482702
v -0.142209 0.160462 -0.482857
v -0.142209 0.141923 -0.483221
v -0.142209 0.166614 -0.481768
v -0.142209 0.157796 -0.482287
v -0.142209 0.103843 -0.506837
v -0.142209 0.137986 -0.507348
v -0.142209 0.105467 -0.508671
v -0.142209 0.105467 -0.508671
v -0.142209 0.137986 -0.507348
v -0.142209 0.125775 -0.510889
v -0.142209 0.109817 -0.511220
v -0.142209 0.125775 -0.510889
v -0.142209 0.115442 -0.512070
v -0.142209 0.130159 -0.497074
v -0.142209 0.162230 -0.495881
v -0.142209 0.150623 -0.502121
v -0.142209 0.160462 -0.482857
v -0.142209 0.166435 -0.482702
v -0.142209 0.161470 -0.484310
v -0.142209 0.161470 -0.484310
v -0.142209 0.162230 -0.495881
v -0.142209 0.160955 -0.485379
v -0.142209 0.141923 -0.483221
v -0.142209 0.157796 -0.482287
v -0.142209 0.151604 -0.483311
v -0.142209 0.102683 -0.504734
v -0.142209 0.137986 -0.507348
v -0.142209 0.103843 -0.506837
v -0.142209 0.110567 -0.486853
v -0.142209 0.112669 -0.477202
v -0.142209 0.117813 -0.477202
v -0.142209 0.101987 -0.502362
v -0.142209 0.150623 -0.502121
v -0.142209 0.137986 -0.507348
v -0.142209 0.143339 -0.493514
v -0.142209 0.162230 -0.495881
v -0.142209 0.130159 -0.497074
v -0.142209 0.130159 -0.497074
v -0.142209 0.150623 -0.502121
v -0.142209 0.123673 -0.498475
v -0.142209 0.160955 -0.485379
v -0.142209 0.162230 -0.495881
v -0.142209 0.159409 -0.486665
v -0.142209 0.141923 -0.483221
v -0.142209 0.151604 -0.483311
v -0.142209 0.133088 -0.489473
v -0.142209 0.101987 -0.502362
v -0.142209 0.137986 -0.507348
v -0.142209 0.102683 -0.504734
v -0.142209 0.112669 -0.477202
v -0.142209 0.110567 -0.486853
v -0.142209 0.107810 -0.483824
v -0.142209 0.101755 -0.499721
v -0.142209 0.150623 -0.502121
v -0.142209 0.101987 -0.502362
v -0.142209 0.153228 -0.489888
v -0.142209 0.162230 -0.495881
v -0.142209 0.143339 -0.493514
v -0.142209 0.123673 -0.498475
v -0.142209 0.150623 -0.502121
v -0.142209 0.117276 -0.498891
v -0.142209 0.123673 -0.498475
v -0.142209 0.136855 -0.491107
v -0.142209 0.130159 -0.497074
v -0.142209 0.159409 -0.486665
v -0.142209 0.162230 -0.495881
v -0.142209 0.153228 -0.489888
v -0.142209 0.133088 -0.489473
v -0.142209 0.151604 -0.483311
v -0.142209 0.144314 -0.486386
v -0.142209 0.104416 -0.489577
v -0.142209 0.110567 -0.486853
v -0.142209 0.109258 -0.489927
v -0.142209 0.107810 -0.483824
v -0.142209 0.110567 -0.486853
v -0.142209 0.104416 -0.489577
v -0.142209 0.117276 -0.498891
v -0.142209 0.150623 -0.502121
v -0.142209 0.101755 -0.499721
v -0.142209 0.133088 -0.489473
v -0.142209 0.136855 -0.491107
v -0.142209 0.123673 -0.498475
v -0.142209 0.133088 -0.489473
v -0.142209 0.144314 -0.486386
v -0.142209 0.136855 -0.491107
v -0.142209 0.104416 -0.489577
v -0.142209 0.109258 -0.489927
v -0.142209 0.102420 -0.494772
v -0.142209 0.102420 -0.494772
v -0.142209 0.109392 -0.495297
v -0.142209 0.101755 -0.499721
v -0.142209 0.101755 -0.499721
v -0.142209 0.113787 -0.498475
v -0.142209 0.117276 -0.498891
v -0.142209 0.102420 -0.494772
v -0.142209 0.109258 -0.489927
v -0.142209 0.108822 -0.492820
v -0.142209 0.102420 -0.494772
v -0.142209 0.108822 -0.492820
v -0.142209 0.109392 -0.495297
v -0.142209 0.101755 -0.499721
v -0.142209 0.109392 -0.495297
v -0.142209 0.111103 -0.497230
v -0.142209 0.101755 -0.499721
v -0.142209 0.111103 -0.497230
v -0.142209 0.113787 -0.498475
vn 1 0 0
vn -1 0 0
usemtl material_0_0
f 1//1 2//1 3//1
f 4//1 5//1 6//1
f 7//1 8//1 9//1
f 10//1 11//1 12//1
f 13//1 14//1 15//1
f 16//1 17//1 18//1
f 19//1 20//1 21//1
f 22//1 23//1 24//1
f 25//1 26//1 27//1
f 28//1 29//1 30//1
f 31//1 32//1 33//1
f 34//1 35//1 36//1
f 37//1 38//1 39//1
f 40//1 41//1 42//1
f 43//1 44//1 45//1
f 46//1 47//1 48//1
f 49//1 50//1 51//1
f 52//1 53//1 54//1
f 55//1 56//1 57//1
f 58//1 59//1 60//1
f 61//1 62//1 63//1
f 64//1 65//1 66//1
f 67//1 68//1 69//1
f 70//1 71//1 72//1
f 73//1 74//1 75//1
f 76//1 77//1 78//1
f 79//1 80//1 81//1
f 82//1 83//1 84//1
f 85//1 86//1 87//1
f 88//1 89//1 90//1
f 91//1 92//1 93//1
f 94//1 95//1 96//1
f 97//1 98//1 99//1
f 100//1 101//1 102//1
f 103//1 104//1 105//1
f 106//1 107//1 108//1
f 109//1 110//1 111//1
f 112//1 113//1 114//1
f 115//1 116//1 117//1
f 118//1 119//1 120//1
f 121//1 122//1 123//1
f 124//1 125//1 126//1
f 127//1 128//1 129//1
f 130//1 131//1 132//1
f 133//1 134//1 135//1
f 136//1 137//1 138//1
usemtl material_1_0
f 139//2 140//2 141//2
f 142//2 143//2 144//2
f 145//2 146//2 147//2
f 148//2 149//2 150//2
f 151//2 152//2 153//2
f 154//2 155//2 156//2
f 157//2 158//2 159//2
f 160//2 161//2 162//2
f 163//2 164//2 165//2
f 166//2 167//2 168//2
f 169//2 170//2 171//2
f 172//2 173//2 174//2
f 175//2 176//2 177//2
f 178//2 179//2 180//2
f 181//2 182//2 183//2
f 184//2 185//2 186//2
f 187//2 188//2 189//2
f 190//2 191//2 192//2
f 193//2 194//2 195//2
f 196//2 197//2 198//2
f 199//2 200//2 201//2
f 202//2 203//2 204//2
f 205//2 206//2 207//2
f 208//2 209//2 210//2
f 211//2 212//2 213//2
f 214//2 215//2 216//2
f 217//2 218//2 219//2
f 220//2 221//2 222//2
f 223//2 224//2 225//2
f 226//2 227//2 228//2
f 229//2 230//2 231//2
f 232//2 233//2 234//2
f 235//2 236//2 237//2
f 238//2 239//2 240//2
f 241//2 242//2 243//2
f 244//2 245//2 246//2
f 247//2 248//2 249//2
f 250//2 251//2 252//2
f 253//2 254//2 255//2
f 256//2 257//2 258//2
f 259//2 260//2 261//2
f 262//2 263//2 264//2
f 265//2 266//2 267//2
f 268//2 269//2 270//2
f 271//2 272//2 273//2
f 274//2 275//2 276//2
