# SSTK version 0.8.0
# 33
mtllib original-33.mtl
o mesh12/mesh12-geometry/material_2/component_2#mesh12-geometry
v -0.046827 -0.070979 -0.251935
v 0.040008 -0.070979 -0.251935
v -0.046827 -0.067065 -0.251935
v 0.040008 -0.067065 -0.251935
v -0.046827 -0.067065 -0.251935
v 0.040008 -0.070979 -0.251935
v -0.046827 -0.067065 -0.251935
v 0.040008 -0.070979 -0.251935
v -0.046827 -0.070979 -0.251935
v 0.040008 -0.070979 -0.251935
v -0.046827 -0.067065 -0.251935
v 0.040008 -0.067065 -0.251935
vn 0 0 1
vn 0 0 -1
usemtl material_0_0
f 1//1 2//1 3//1
f 4//1 5//1 6//1
usemtl material_1_0
f 7//2 8//2 9//2
f 10//2 11//2 12//2
