# SSTK version 0.8.0
# 56
mtllib original-56.mtl
o mesh12/mesh12-geometry/material_5/component_3#mesh12-geometry
v -0.142209 0.111864 -0.655071
v -0.142209 0.115040 -0.653048
v -0.142209 0.109985 -0.651400
v -0.142209 0.107441 -0.659829
v -0.142209 0.114771 -0.657873
v -0.142209 0.111864 -0.655071
v -0.142209 0.102498 -0.704740
v -0.142209 0.138613 -0.703845
v -0.142209 0.101755 -0.700058
v -0.142209 0.104729 -0.708308
v -0.142209 0.124388 -0.709475
v -0.142209 0.102498 -0.704740
v -0.142209 0.109985 -0.651400
v -0.142209 0.113463 -0.650376
v -0.142209 0.109359 -0.647651
v -0.142209 0.115040 -0.653048
v -0.142209 0.113463 -0.650376
v -0.142209 0.109985 -0.651400
v -0.142209 0.137898 -0.654724
v -0.142209 0.115040 -0.653048
v -0.142209 0.111864 -0.655071
v -0.142209 0.114771 -0.657873
v -0.142209 0.135638 -0.656732
v -0.142209 0.111864 -0.655071
v -0.142209 0.109493 -0.663378
v -0.142209 0.114771 -0.657873
v -0.142209 0.107441 -0.659829
v -0.142209 0.104282 -0.664658
v -0.142209 0.109493 -0.663378
v -0.142209 0.107441 -0.659829
v -0.142209 0.101755 -0.700058
v -0.142209 0.109136 -0.697567
v -0.142209 0.102191 -0.696105
v -0.142209 0.101755 -0.700058
v -0.142209 0.138613 -0.703845
v -0.142209 0.112940 -0.698864
v -0.142209 0.124388 -0.709475
v -0.142209 0.138613 -0.703845
v -0.142209 0.102498 -0.704740
v -0.142209 0.108269 -0.710565
v -0.142209 0.124388 -0.709475
v -0.142209 0.104729 -0.708308
v -0.142209 0.109359 -0.647651
v -0.142209 0.113242 -0.645699
v -0.142209 0.110119 -0.643812
v -0.142209 0.113463 -0.650376
v -0.142209 0.112937 -0.647548
v -0.142209 0.109359 -0.647651
v -0.142209 0.137898 -0.654724
v -0.142209 0.139513 -0.652594
v -0.142209 0.115040 -0.653048
v -0.142209 0.135638 -0.656732
v -0.142209 0.137898 -0.654724
v -0.142209 0.111864 -0.655071
v -0.142209 0.135638 -0.656732
v -0.142209 0.114771 -0.657873
v -0.142209 0.130086 -0.659650
v -0.142209 0.108185 -0.665897
v -0.142209 0.109493 -0.663378
v -0.142209 0.104282 -0.664658
v -0.142209 0.102387 -0.669558
v -0.142209 0.108185 -0.665897
v -0.142209 0.104282 -0.664658
v -0.142209 0.102191 -0.696105
v -0.142209 0.107659 -0.694298
v -0.142209 0.103499 -0.692287
v -0.142209 0.109136 -0.697567
v -0.142209 0.108028 -0.696101
v -0.142209 0.102191 -0.696105
v -0.142209 0.110825 -0.698540
v -0.142209 0.109136 -0.697567
v -0.142209 0.101755 -0.700058
v -0.142209 0.112940 -0.698864
v -0.142209 0.138613 -0.703845
v -0.142209 0.119874 -0.697659
v -0.142209 0.112940 -0.698864
v -0.142209 0.110825 -0.698540
v -0.142209 0.101755 -0.700058
v -0.142209 0.118618 -0.710857
v -0.142209 0.124388 -0.709475
v -0.142209 0.108269 -0.710565
v -0.142209 0.112937 -0.711317
v -0.142209 0.118618 -0.710857
v -0.142209 0.108269 -0.710565
v -0.142209 0.113242 -0.645699
v -0.142209 0.114156 -0.643630
v -0.142209 0.110119 -0.643812
v -0.142209 0.112937 -0.647548
v -0.142209 0.113242 -0.645699
v -0.142209 0.109359 -0.647651
v -0.142209 0.115040 -0.653048
v -0.142209 0.140481 -0.650340
v -0.142209 0.120855 -0.649348
v -0.142209 0.139513 -0.652594
v -0.142209 0.140481 -0.650340
v -0.142209 0.115040 -0.653048
v -0.142209 0.119188 -0.659936
v -0.142209 0.130086 -0.659650
v -0.142209 0.114771 -0.657873
v -0.142209 0.107749 -0.668572
v -0.142209 0.108185 -0.665897
v -0.142209 0.102387 -0.669558
v -0.142209 0.101755 -0.674529
v -0.142209 0.108140 -0.670584
v -0.142209 0.102387 -0.669558
v -0.142209 0.103499 -0.692287
v -0.142209 0.109046 -0.690147
v -0.142209 0.105680 -0.688607
v -0.142209 0.107659 -0.694298
v -0.142209 0.108006 -0.692223
v -0.142209 0.103499 -0.692287
v -0.142209 0.108028 -0.696101
v -0.142209 0.107659 -0.694298
v -0.142209 0.102191 -0.696105
v -0.142209 0.119874 -0.697659
v -0.142209 0.138613 -0.703845
v -0.142209 0.130830 -0.694005
v -0.142209 0.110119 -0.643812
v -0.142209 0.114156 -0.643630
v -0.142209 0.112669 -0.638831
v -0.142209 0.140481 -0.650340
v -0.142209 0.140804 -0.647963
v -0.142209 0.120855 -0.649348
v -0.142209 0.123762 -0.660623
v -0.142209 0.130086 -0.659650
v -0.142209 0.119188 -0.659936
v -0.142209 0.108140 -0.670584
v -0.142209 0.107749 -0.668572
v -0.142209 0.102387 -0.669558
v -0.142209 0.109315 -0.672155
v -0.142209 0.108140 -0.670584
v -0.142209 0.101755 -0.674529
v -0.142209 0.102191 -0.677950
v -0.142209 0.138613 -0.678784
v -0.142209 0.101755 -0.674529
v -0.142209 0.105680 -0.688607
v -0.142209 0.113206 -0.685996
v -0.142209 0.108733 -0.685062
v -0.142209 0.109046 -0.690147
v -0.142209 0.113206 -0.685996
v -0.142209 0.105680 -0.688607
v -0.142209 0.108006 -0.692223
v -0.142209 0.109046 -0.690147
v -0.142209 0.103499 -0.692287
v -0.142209 0.140802 -0.690166
v -0.142209 0.130830 -0.694005
v -0.142209 0.138613 -0.703845
v -0.142209 0.117813 -0.638831
v -0.142209 0.112669 -0.638831
v -0.142209 0.114156 -0.643630
v -0.142209 0.120855 -0.649348
v -0.142209 0.140804 -0.647963
v -0.142209 0.126356 -0.646705
v -0.142209 0.140803 -0.664888
v -0.142209 0.125330 -0.670702
v -0.142209 0.138613 -0.678784
v -0.142209 0.111149 -0.673168
v -0.142209 0.109315 -0.672155
v -0.142209 0.101755 -0.674529
v -0.142209 0.101755 -0.674529
v -0.142209 0.138613 -0.678784
v -0.142209 0.113521 -0.673505
v -0.142209 0.103499 -0.680846
v -0.142209 0.138613 -0.678784
v -0.142209 0.102191 -0.677950
v -0.142209 0.108733 -0.685062
v -0.142209 0.120363 -0.685257
v -0.142209 0.105680 -0.683217
v -0.142209 0.113206 -0.685996
v -0.142209 0.120363 -0.685257
v -0.142209 0.108733 -0.685062
v -0.142209 0.136421 -0.644590
v -0.142209 0.131545 -0.645119
v -0.142209 0.139708 -0.645433
v -0.142209 0.126356 -0.646705
v -0.142209 0.139708 -0.645433
v -0.142209 0.131545 -0.645119
v -0.142209 0.140804 -0.647963
v -0.142209 0.140530 -0.646487
v -0.142209 0.126356 -0.646705
v -0.142209 0.118644 -0.672804
v -0.142209 0.138613 -0.678784
v -0.142209 0.125330 -0.670702
v -0.142209 0.113521 -0.673505
v -0.142209 0.111149 -0.673168
v -0.142209 0.101755 -0.674529
v -0.142209 0.113521 -0.673505
v -0.142209 0.138613 -0.678784
v -0.142209 0.118644 -0.672804
v -0.142209 0.127788 -0.683039
v -0.142209 0.138613 -0.678784
v -0.142209 0.103499 -0.680846
v -0.142209 0.105680 -0.683217
v -0.142209 0.127788 -0.683039
v -0.142209 0.103499 -0.680846
v -0.142209 0.120363 -0.685257
v -0.142209 0.127788 -0.683039
v -0.142209 0.105680 -0.683217
v -0.142209 0.140530 -0.646487
v -0.142209 0.139708 -0.645433
v -0.142209 0.126356 -0.646705
v -0.142209 0.109985 -0.651400
v -0.142209 0.115040 -0.653048
v -0.142209 0.111864 -0.655071
v -0.142209 0.111864 -0.655071
v -0.142209 0.114771 -0.657873
v -0.142209 0.107441 -0.659829
v -0.142209 0.101755 -0.700058
v -0.142209 0.138613 -0.703845
v -0.142209 0.102498 -0.704740
v -0.142209 0.102498 -0.704740
v -0.142209 0.124388 -0.709475
v -0.142209 0.104729 -0.708308
v -0.142209 0.109359 -0.647651
v -0.142209 0.113463 -0.650376
v -0.142209 0.109985 -0.651400
v -0.142209 0.109985 -0.651400
v -0.142209 0.113463 -0.650376
v -0.142209 0.115040 -0.653048
v -0.142209 0.111864 -0.655071
v -0.142209 0.115040 -0.653048
v -0.142209 0.137898 -0.654724
v -0.142209 0.111864 -0.655071
v -0.142209 0.135638 -0.656732
v -0.142209 0.114771 -0.657873
v -0.142209 0.107441 -0.659829
v -0.142209 0.114771 -0.657873
v -0.142209 0.109493 -0.663378
v -0.142209 0.107441 -0.659829
v -0.142209 0.109493 -0.663378
v -0.142209 0.104282 -0.664658
v -0.142209 0.102191 -0.696105
v -0.142209 0.109136 -0.697567
v -0.142209 0.101755 -0.700058
v -0.142209 0.112940 -0.698864
v -0.142209 0.138613 -0.703845
v -0.142209 0.101755 -0.700058
v -0.142209 0.102498 -0.704740
v -0.142209 0.138613 -0.703845
v -0.142209 0.124388 -0.709475
v -0.142209 0.104729 -0.708308
v -0.142209 0.124388 -0.709475
v -0.142209 0.108269 -0.710565
v -0.142209 0.110119 -0.643812
v -0.142209 0.113242 -0.645699
v -0.142209 0.109359 -0.647651
v -0.142209 0.109359 -0.647651
v -0.142209 0.112937 -0.647548
v -0.142209 0.113463 -0.650376
v -0.142209 0.115040 -0.653048
v -0.142209 0.139513 -0.652594
v -0.142209 0.137898 -0.654724
v -0.142209 0.111864 -0.655071
v -0.142209 0.137898 -0.654724
v -0.142209 0.135638 -0.656732
v -0.142209 0.130086 -0.659650
v -0.142209 0.114771 -0.657873
v -0.142209 0.135638 -0.656732
v -0.142209 0.104282 -0.664658
v -0.142209 0.109493 -0.663378
v -0.142209 0.108185 -0.665897
v -0.142209 0.104282 -0.664658
v -0.142209 0.108185 -0.665897
v -0.142209 0.102387 -0.669558
v -0.142209 0.103499 -0.692287
v -0.142209 0.107659 -0.694298
v -0.142209 0.102191 -0.696105
v -0.142209 0.102191 -0.696105
v -0.142209 0.108028 -0.696101
v -0.142209 0.109136 -0.697567
v -0.142209 0.101755 -0.700058
v -0.142209 0.109136 -0.697567
v -0.142209 0.110825 -0.698540
v -0.142209 0.119874 -0.697659
v -0.142209 0.138613 -0.703845
v -0.142209 0.112940 -0.698864
v -0.142209 0.101755 -0.700058
v -0.142209 0.110825 -0.698540
v -0.142209 0.112940 -0.698864
v -0.142209 0.108269 -0.710565
v -0.142209 0.124388 -0.709475
v -0.142209 0.118618 -0.710857
v -0.142209 0.108269 -0.710565
v -0.142209 0.118618 -0.710857
v -0.142209 0.112937 -0.711317
v -0.142209 0.110119 -0.643812
v -0.142209 0.114156 -0.643630
v -0.142209 0.113242 -0.645699
v -0.142209 0.109359 -0.647651
v -0.142209 0.113242 -0.645699
v -0.142209 0.112937 -0.647548
v -0.142209 0.120855 -0.649348
v -0.142209 0.140481 -0.650340
v -0.142209 0.115040 -0.653048
v -0.142209 0.115040 -0.653048
v -0.142209 0.140481 -0.650340
v -0.142209 0.139513 -0.652594
v -0.142209 0.114771 -0.657873
v -0.142209 0.130086 -0.659650
v -0.142209 0.119188 -0.659936
v -0.142209 0.102387 -0.669558
v -0.142209 0.108185 -0.665897
v -0.142209 0.107749 -0.668572
v -0.142209 0.102387 -0.669558
v -0.142209 0.108140 -0.670584
v -0.142209 0.101755 -0.674529
v -0.142209 0.105680 -0.688607
v -0.142209 0.109046 -0.690147
v -0.142209 0.103499 -0.692287
v -0.142209 0.103499 -0.692287
v -0.142209 0.108006 -0.692223
v -0.142209 0.107659 -0.694298
v -0.142209 0.102191 -0.696105
v -0.142209 0.107659 -0.694298
v -0.142209 0.108028 -0.696101
v -0.142209 0.130830 -0.694005
v -0.142209 0.138613 -0.703845
v -0.142209 0.119874 -0.697659
v -0.142209 0.112669 -0.638831
v -0.142209 0.114156 -0.643630
v -0.142209 0.110119 -0.643812
v -0.142209 0.120855 -0.649348
v -0.142209 0.140804 -0.647963
v -0.142209 0.140481 -0.650340
v -0.142209 0.119188 -0.659936
v -0.142209 0.130086 -0.659650
v -0.142209 0.123762 -0.660623
v -0.142209 0.102387 -0.669558
v -0.142209 0.107749 -0.668572
v -0.142209 0.108140 -0.670584
v -0.142209 0.101755 -0.674529
v -0.142209 0.108140 -0.670584
v -0.142209 0.109315 -0.672155
v -0.142209 0.101755 -0.674529
v -0.142209 0.138613 -0.678784
v -0.142209 0.102191 -0.677950
v -0.142209 0.108733 -0.685062
v -0.142209 0.113206 -0.685996
v -0.142209 0.105680 -0.688607
v -0.142209 0.105680 -0.688607
v -0.142209 0.113206 -0.685996
v -0.142209 0.109046 -0.690147
v -0.142209 0.103499 -0.692287
v -0.142209 0.109046 -0.690147
v -0.142209 0.108006 -0.692223
v -0.142209 0.138613 -0.703845
v -0.142209 0.130830 -0.694005
v -0.142209 0.140802 -0.690166
v -0.142209 0.114156 -0.643630
v -0.142209 0.112669 -0.638831
v -0.142209 0.117813 -0.638831
v -0.142209 0.126356 -0.646705
v -0.142209 0.140804 -0.647963
v -0.142209 0.120855 -0.649348
v -0.142209 0.138613 -0.678784
v -0.142209 0.125330 -0.670702
v -0.142209 0.140803 -0.664888
v -0.142209 0.101755 -0.674529
v -0.142209 0.109315 -0.672155
v -0.142209 0.111149 -0.673168
v -0.142209 0.113521 -0.673505
v -0.142209 0.138613 -0.678784
v -0.142209 0.101755 -0.674529
v -0.142209 0.102191 -0.677950
v -0.142209 0.138613 -0.678784
v -0.142209 0.103499 -0.680846
v -0.142209 0.105680 -0.683217
v -0.142209 0.120363 -0.685257
v -0.142209 0.108733 -0.685062
v -0.142209 0.108733 -0.685062
v -0.142209 0.120363 -0.685257
v -0.142209 0.113206 -0.685996
v -0.142209 0.139708 -0.645433
v -0.142209 0.131545 -0.645119
v -0.142209 0.136421 -0.644590
v -0.142209 0.131545 -0.645119
v -0.142209 0.139708 -0.645433
v -0.142209 0.126356 -0.646705
v -0.142209 0.126356 -0.646705
v -0.142209 0.140530 -0.646487
v -0.142209 0.140804 -0.647963
v -0.142209 0.125330 -0.670702
v -0.142209 0.138613 -0.678784
v -0.142209 0.118644 -0.672804
v -0.142209 0.101755 -0.674529
v -0.142209 0.111149 -0.673168
v -0.142209 0.113521 -0.673505
v -0.142209 0.118644 -0.672804
v -0.142209 0.138613 -0.678784
v -0.142209 0.113521 -0.673505
v -0.142209 0.103499 -0.680846
v -0.142209 0.138613 -0.678784
v -0.142209 0.127788 -0.683039
v -0.142209 0.103499 -0.680846
v -0.142209 0.127788 -0.683039
v -0.142209 0.105680 -0.683217
v -0.142209 0.105680 -0.683217
v -0.142209 0.127788 -0.683039
v -0.142209 0.120363 -0.685257
v -0.142209 0.126356 -0.646705
v -0.142209 0.139708 -0.645433
v -0.142209 0.140530 -0.646487
vn 1 0 0
vn -1 0 0
usemtl material_0_0
f 1//1 2//1 3//1
f 4//1 5//1 6//1
f 7//1 8//1 9//1
f 10//1 11//1 12//1
f 13//1 14//1 15//1
f 16//1 17//1 18//1
f 19//1 20//1 21//1
f 22//1 23//1 24//1
f 25//1 26//1 27//1
f 28//1 29//1 30//1
f 31//1 32//1 33//1
f 34//1 35//1 36//1
f 37//1 38//1 39//1
f 40//1 41//1 42//1
f 43//1 44//1 45//1
f 46//1 47//1 48//1
f 49//1 50//1 51//1
f 52//1 53//1 54//1
f 55//1 56//1 57//1
f 58//1 59//1 60//1
f 61//1 62//1 63//1
f 64//1 65//1 66//1
f 67//1 68//1 69//1
f 70//1 71//1 72//1
f 73//1 74//1 75//1
f 76//1 77//1 78//1
f 79//1 80//1 81//1
f 82//1 83//1 84//1
f 85//1 86//1 87//1
f 88//1 89//1 90//1
f 91//1 92//1 93//1
f 94//1 95//1 96//1
f 97//1 98//1 99//1
f 100//1 101//1 102//1
f 103//1 104//1 105//1
f 106//1 107//1 108//1
f 109//1 110//1 111//1
f 112//1 113//1 114//1
f 115//1 116//1 117//1
f 118//1 119//1 120//1
f 121//1 122//1 123//1
f 124//1 125//1 126//1
f 127//1 128//1 129//1
f 130//1 131//1 132//1
f 133//1 134//1 135//1
f 136//1 137//1 138//1
f 139//1 140//1 141//1
f 142//1 143//1 144//1
f 145//1 146//1 147//1
f 148//1 149//1 150//1
f 151//1 152//1 153//1
f 154//1 155//1 156//1
f 157//1 158//1 159//1
f 160//1 161//1 162//1
f 163//1 164//1 165//1
f 166//1 167//1 168//1
f 169//1 170//1 171//1
f 172//1 173//1 174//1
f 175//1 176//1 177//1
f 178//1 179//1 180//1
f 181//1 182//1 183//1
f 184//1 185//1 186//1
f 187//1 188//1 189//1
f 190//1 191//1 192//1
f 193//1 194//1 195//1
f 196//1 197//1 198//1
f 199//1 200//1 201//1
usemtl material_1_0
f 202//2 203//2 204//2
f 205//2 206//2 207//2
f 208//2 209//2 210//2
f 211//2 212//2 213//2
f 214//2 215//2 216//2
f 217//2 218//2 219//2
f 220//2 221//2 222//2
f 223//2 224//2 225//2
f 226//2 227//2 228//2
f 229//2 230//2 231//2
f 232//2 233//2 234//2
f 235//2 236//2 237//2
f 238//2 239//2 240//2
f 241//2 242//2 243//2
f 244//2 245//2 246//2
f 247//2 248//2 249//2
f 250//2 251//2 252//2
f 253//2 254//2 255//2
f 256//2 257//2 258//2
f 259//2 260//2 261//2
f 262//2 263//2 264//2
f 265//2 266//2 267//2
f 268//2 269//2 270//2
f 271//2 272//2 273//2
f 274//2 275//2 276//2
f 277//2 278//2 279//2
f 280//2 281//2 282//2
f 283//2 284//2 285//2
f 286//2 287//2 288//2
f 289//2 290//2 291//2
f 292//2 293//2 294//2
f 295//2 296//2 297//2
f 298//2 299//2 300//2
f 301//2 302//2 303//2
f 304//2 305//2 306//2
f 307//2 308//2 309//2
f 310//2 311//2 312//2
f 313//2 314//2 315//2
f 316//2 317//2 318//2
f 319//2 320//2 321//2
f 322//2 323//2 324//2
f 325//2 326//2 327//2
f 328//2 329//2 330//2
f 331//2 332//2 333//2
f 334//2 335//2 336//2
f 337//2 338//2 339//2
f 340//2 341//2 342//2
f 343//2 344//2 345//2
f 346//2 347//2 348//2
f 349//2 350//2 351//2
f 352//2 353//2 354//2
f 355//2 356//2 357//2
f 358//2 359//2 360//2
f 361//2 362//2 363//2
f 364//2 365//2 366//2
f 367//2 368//2 369//2
f 370//2 371//2 372//2
f 373//2 374//2 375//2
f 376//2 377//2 378//2
f 379//2 380//2 381//2
f 382//2 383//2 384//2
f 385//2 386//2 387//2
f 388//2 389//2 390//2
f 391//2 392//2 393//2
f 394//2 395//2 396//2
f 397//2 398//2 399//2
f 400//2 401//2 402//2
