# SSTK version 0.8.0
# 52
mtllib original-52.mtl
o mesh12/mesh12-geometry/material_4/component_12#mesh12-geometry
v -0.142209 0.153977 -0.466850
v -0.139659 0.149795 -0.469522
v -0.142209 0.149795 -0.469522
v -0.142209 0.149795 -0.469522
v -0.139659 0.149795 -0.469522
v -0.142209 0.153977 -0.466850
v -0.139659 0.149795 -0.469522
v -0.142209 0.148051 -0.466033
v -0.142209 0.149795 -0.469522
v -0.142209 0.149795 -0.469522
v -0.142209 0.148051 -0.466033
v -0.139659 0.149795 -0.469522
v -0.142209 0.158652 -0.464852
v -0.139659 0.153977 -0.466850
v -0.142209 0.153977 -0.466850
v -0.142209 0.153977 -0.466850
v -0.139659 0.153977 -0.466850
v -0.142209 0.158652 -0.464852
v -0.139659 0.149795 -0.469522
v -0.142209 0.153977 -0.466850
v -0.139659 0.153977 -0.466850
v -0.139659 0.153977 -0.466850
v -0.142209 0.153977 -0.466850
v -0.139659 0.149795 -0.469522
v -0.139659 0.148051 -0.466033
v -0.142209 0.147469 -0.461895
v -0.142209 0.148051 -0.466033
v -0.142209 0.148051 -0.466033
v -0.142209 0.147469 -0.461895
v -0.139659 0.148051 -0.466033
v -0.142209 0.148051 -0.466033
v -0.139659 0.149795 -0.469522
v -0.139659 0.148051 -0.466033
v -0.139659 0.148051 -0.466033
v -0.139659 0.149795 -0.469522
v -0.142209 0.148051 -0.466033
v -0.139659 0.157008 -0.461155
v -0.142209 0.158652 -0.464852
v -0.142209 0.157008 -0.461155
v -0.142209 0.157008 -0.461155
v -0.142209 0.158652 -0.464852
v -0.139659 0.157008 -0.461155
v -0.139659 0.153977 -0.466850
v -0.142209 0.158652 -0.464852
v -0.139659 0.158652 -0.464852
v -0.139659 0.158652 -0.464852
v -0.142209 0.158652 -0.464852
v -0.139659 0.153977 -0.466850
v -0.139659 0.153977 -0.466850
v -0.139659 0.148051 -0.466033
v -0.139659 0.149795 -0.469522
v -0.139659 0.149795 -0.469522
v -0.139659 0.148051 -0.466033
v -0.139659 0.153977 -0.466850
v -0.139659 0.147469 -0.461895
v -0.142209 0.148140 -0.457877
v -0.142209 0.147469 -0.461895
v -0.142209 0.147469 -0.461895
v -0.142209 0.148140 -0.457877
v -0.139659 0.147469 -0.461895
v -0.142209 0.147469 -0.461895
v -0.139659 0.148051 -0.466033
v -0.139659 0.147469 -0.461895
v -0.139659 0.147469 -0.461895
v -0.139659 0.148051 -0.466033
v -0.142209 0.147469 -0.461895
v -0.139659 0.156460 -0.458263
v -0.142209 0.157008 -0.461155
v -0.142209 0.156460 -0.458263
v -0.142209 0.156460 -0.458263
v -0.142209 0.157008 -0.461155
v -0.139659 0.156460 -0.458263
v -0.142209 0.158652 -0.464852
v -0.139659 0.157008 -0.461155
v -0.139659 0.158652 -0.464852
v -0.139659 0.158652 -0.464852
v -0.139659 0.157008 -0.461155
v -0.142209 0.158652 -0.464852
v -0.142209 0.157008 -0.461155
v -0.139659 0.156460 -0.458263
v -0.139659 0.157008 -0.461155
v -0.139659 0.157008 -0.461155
v -0.139659 0.156460 -0.458263
v -0.142209 0.157008 -0.461155
v -0.139659 0.158652 -0.464852
v -0.139659 0.148051 -0.466033
v -0.139659 0.153977 -0.466850
v -0.139659 0.153977 -0.466850
v -0.139659 0.148051 -0.466033
v -0.139659 0.158652 -0.464852
v -0.142209 0.148140 -0.457877
v -0.139659 0.147469 -0.461895
v -0.139659 0.148140 -0.457877
v -0.139659 0.148140 -0.457877
v -0.139659 0.147469 -0.461895
v -0.142209 0.148140 -0.457877
v -0.139659 0.158652 -0.464852
v -0.139659 0.147469 -0.461895
v -0.139659 0.148051 -0.466033
v -0.139659 0.148051 -0.466033
v -0.139659 0.147469 -0.461895
v -0.139659 0.158652 -0.464852
v -0.139659 0.156896 -0.455474
v -0.142209 0.156460 -0.458263
v -0.142209 0.156896 -0.455474
v -0.142209 0.156896 -0.455474
v -0.142209 0.156460 -0.458263
v -0.139659 0.156896 -0.455474
v -0.142209 0.156460 -0.458263
v -0.139659 0.156896 -0.455474
v -0.139659 0.156460 -0.458263
v -0.139659 0.156460 -0.458263
v -0.139659 0.156896 -0.455474
v -0.142209 0.156460 -0.458263
v -0.139659 0.157008 -0.461155
v -0.139659 0.147469 -0.461895
v -0.139659 0.158652 -0.464852
v -0.139659 0.158652 -0.464852
v -0.139659 0.147469 -0.461895
v -0.139659 0.157008 -0.461155
v -0.139659 0.156460 -0.458263
v -0.139659 0.147469 -0.461895
v -0.139659 0.157008 -0.461155
v -0.139659 0.157008 -0.461155
v -0.139659 0.147469 -0.461895
v -0.139659 0.156460 -0.458263
v -0.139659 0.156460 -0.458263
v -0.139659 0.148140 -0.457877
v -0.139659 0.147469 -0.461895
v -0.139659 0.147469 -0.461895
v -0.139659 0.148140 -0.457877
v -0.139659 0.156460 -0.458263
v -0.139659 0.148140 -0.457877
v -0.142209 0.150153 -0.455007
v -0.142209 0.148140 -0.457877
v -0.142209 0.148140 -0.457877
v -0.142209 0.150153 -0.455007
v -0.139659 0.148140 -0.457877
v -0.139659 0.158205 -0.452711
v -0.142209 0.156896 -0.455474
v -0.142209 0.158205 -0.452711
v -0.142209 0.158205 -0.452711
v -0.142209 0.156896 -0.455474
v -0.139659 0.158205 -0.452711
v -0.142209 0.156896 -0.455474
v -0.139659 0.158205 -0.452711
v -0.139659 0.156896 -0.455474
v -0.139659 0.156896 -0.455474
v -0.139659 0.158205 -0.452711
v -0.142209 0.156896 -0.455474
v -0.139659 0.156896 -0.455474
v -0.139659 0.148140 -0.457877
v -0.139659 0.156460 -0.458263
v -0.139659 0.156460 -0.458263
v -0.139659 0.148140 -0.457877
v -0.139659 0.156896 -0.455474
v -0.142209 0.150153 -0.455007
v -0.139659 0.148140 -0.457877
v -0.139659 0.150153 -0.455007
v -0.139659 0.150153 -0.455007
v -0.139659 0.148140 -0.457877
v -0.142209 0.150153 -0.455007
v -0.142209 0.153508 -0.453285
v -0.139659 0.158205 -0.452711
v -0.142209 0.158205 -0.452711
v -0.142209 0.158205 -0.452711
v -0.139659 0.158205 -0.452711
v -0.142209 0.153508 -0.453285
v -0.139659 0.153508 -0.453285
v -0.139659 0.156896 -0.455474
v -0.139659 0.158205 -0.452711
v -0.139659 0.158205 -0.452711
v -0.139659 0.156896 -0.455474
v -0.139659 0.153508 -0.453285
v -0.139659 0.156896 -0.455474
v -0.139659 0.150153 -0.455007
v -0.139659 0.148140 -0.457877
v -0.139659 0.148140 -0.457877
v -0.139659 0.150153 -0.455007
v -0.139659 0.156896 -0.455474
v -0.139659 0.153508 -0.453285
v -0.142209 0.150153 -0.455007
v -0.139659 0.150153 -0.455007
v -0.139659 0.150153 -0.455007
v -0.142209 0.150153 -0.455007
v -0.139659 0.153508 -0.453285
v -0.142209 0.150153 -0.455007
v -0.139659 0.153508 -0.453285
v -0.142209 0.153508 -0.453285
v -0.142209 0.153508 -0.453285
v -0.139659 0.153508 -0.453285
v -0.142209 0.150153 -0.455007
v -0.139659 0.158205 -0.452711
v -0.142209 0.153508 -0.453285
v -0.139659 0.153508 -0.453285
v -0.139659 0.153508 -0.453285
v -0.142209 0.153508 -0.453285
v -0.139659 0.158205 -0.452711
v -0.139659 0.156896 -0.455474
v -0.139659 0.153508 -0.453285
v -0.139659 0.150153 -0.455007
v -0.139659 0.150153 -0.455007
v -0.139659 0.153508 -0.453285
v -0.139659 0.156896 -0.455474
vn 0 0.4672821297083963 -0.8841082576558063
vn 0 0.5384142218612815 -0.8426803223628228
vn 0 -0.5384142218612815 0.8426803223628228
vn 0 -0.4672821297083963 0.8841082576558063
vn 0 -0.8944499945737618 -0.4471679854450647
vn 0 -0.9548612767355578 -0.2970520866631655
vn 0 0.8944499945737618 0.4471679854450647
vn 0 0.9548612767355578 0.2970520866631655
vn 0 0.3929849476001067 -0.9195449042650072
vn 0 -0.3929849476001067 0.9195449042650072
vn 0 -0.9999164815507559 0.01292400569315978
vn 0 0.9999164815507559 -0.01292400569315978
vn 0 0.9545056288857869 0.29819289801292787
vn 0 0.9137432533440438 0.40629209562609336
vn 0 -0.9545056288857869 -0.29819289801292787
vn 0 -0.9137432533440438 -0.40629209562609336
vn 1 0 0
vn -1 0 0
vn 0 -0.9254618037897615 0.37884092931757135
vn 0 0.9254618037897615 -0.37884092931757135
vn 0 0.9998713187656171 0.01604200454761738
vn 0 -0.9998713187656171 -0.01604200454761738
vn 0 0.9557245272448581 -0.2942628553225715
vn 0 -0.9557245272448581 0.2942628553225715
vn 0 -0.6568998439120055 0.7539778478631735
vn 0 0.6568998439120055 -0.7539778478631735
vn 0 0.9037914256488049 -0.4279731988380823
vn 0 -0.9037914256488049 0.4279731988380823
vn 0 -0.2935329786820283 0.9559489476044501
vn 0 -0.1213120546178765 0.9926144193010644
vn 0 0.1213120546178765 -0.9926144193010644
vn 0 0.2935329786820283 -0.9559489476044501
usemtl material_0_0
f 1//1 2//2 3//2
f 4//3 5//3 6//4
f 7//5 8//6 9//5
f 10//7 11//8 12//7
f 13//9 14//1 15//1
f 16//4 17//4 18//10
f 19//2 20//1 21//1
f 22//4 23//4 24//3
f 25//6 26//11 27//6
f 28//8 29//12 30//8
f 31//6 32//5 33//6
f 34//8 35//7 36//8
f 37//13 38//14 39//13
f 40//15 41//16 42//15
f 43//1 44//9 45//9
f 46//10 47//10 48//4
f 49//17 50//17 51//17
f 52//18 53//18 54//18
f 55//11 56//19 57//11
f 58//12 59//20 60//12
f 61//11 62//6 63//11
f 64//12 65//8 66//12
f 67//21 68//13 69//21
f 70//22 71//15 72//22
f 73//14 74//13 75//14
f 76//16 77//15 78//16
f 79//13 80//21 81//13
f 82//15 83//22 84//15
f 85//17 86//17 87//17
f 88//18 89//18 90//18
f 91//19 92//11 93//19
f 94//20 95//12 96//20
f 97//17 98//17 99//17
f 100//18 101//18 102//18
f 103//23 104//21 105//23
f 106//24 107//22 108//24
f 109//21 110//23 111//21
f 112//22 113//24 114//22
f 115//17 116//17 117//17
f 118//18 119//18 120//18
f 121//17 122//17 123//17
f 124//18 125//18 126//18
f 127//17 128//17 129//17
f 130//18 131//18 132//18
f 133//19 134//25 135//19
f 136//20 137//26 138//20
f 139//27 140//23 141//27
f 142//28 143//24 144//28
f 145//23 146//27 147//23
f 148//24 149//28 150//24
f 151//17 152//17 153//17
f 154//18 155//18 156//18
f 157//25 158//19 159//25
f 160//26 161//20 162//26
f 163//29 164//30 165//30
f 166//31 167//31 168//32
f 169//17 170//17 171//17
f 172//18 173//18 174//18
f 175//17 176//17 177//17
f 178//18 179//18 180//18
f 181//29 182//25 183//25
f 184//26 185//26 186//32
f 187//25 188//29 189//29
f 190//32 191//32 192//26
f 193//30 194//29 195//29
f 196//32 197//32 198//31
f 199//17 200//17 201//17
f 202//18 203//18 204//18
