# SSTK version 0.8.0
# 54
mtllib original-54.mtl
o mesh12/mesh12-geometry/material_5/component_1#mesh12-geometry
v -0.142209 0.087754 -0.561259
v -0.142209 0.090086 -0.560949
v -0.142209 0.084522 -0.560636
v -0.142209 0.084522 -0.560636
v -0.142209 0.092294 -0.560020
v -0.142209 0.081984 -0.558768
v -0.142209 0.090086 -0.560949
v -0.142209 0.092294 -0.560020
v -0.142209 0.084522 -0.560636
v -0.142209 0.110645 -0.562284
v -0.142209 0.124550 -0.560955
v -0.142209 0.106630 -0.560221
v -0.142209 0.081984 -0.558768
v -0.142209 0.084466 -0.555915
v -0.142209 0.080340 -0.555888
v -0.142209 0.092294 -0.560020
v -0.142209 0.094380 -0.558472
v -0.142209 0.081984 -0.558768
v -0.142209 0.124550 -0.560955
v -0.142209 0.128756 -0.558434
v -0.142209 0.106630 -0.560221
v -0.142209 0.120202 -0.562467
v -0.142209 0.124550 -0.560955
v -0.142209 0.110645 -0.562284
v -0.142209 0.080340 -0.555888
v -0.142209 0.083192 -0.552335
v -0.142209 0.079792 -0.552228
v -0.142209 0.084466 -0.555915
v -0.142209 0.083510 -0.554319
v -0.142209 0.080340 -0.555888
v -0.142209 0.085926 -0.556965
v -0.142209 0.084466 -0.555915
v -0.142209 0.081984 -0.558768
v -0.142209 0.094380 -0.558472
v -0.142209 0.087754 -0.557316
v -0.142209 0.081984 -0.558768
v -0.142209 0.106630 -0.560221
v -0.142209 0.128756 -0.558434
v -0.142209 0.104014 -0.557082
v -0.142209 0.115711 -0.562971
v -0.142209 0.120202 -0.562467
v -0.142209 0.110645 -0.562284
v -0.142209 0.079792 -0.552228
v -0.142209 0.084209 -0.548845
v -0.142209 0.080183 -0.548568
v -0.142209 0.083192 -0.552335
v -0.142209 0.083446 -0.550528
v -0.142209 0.079792 -0.552228
v -0.142209 0.083510 -0.554319
v -0.142209 0.083192 -0.552335
v -0.142209 0.080340 -0.555888
v -0.142209 0.087754 -0.557316
v -0.142209 0.085926 -0.556965
v -0.142209 0.081984 -0.558768
v -0.142209 0.094380 -0.558472
v -0.142209 0.096342 -0.556304
v -0.142209 0.087754 -0.557316
v -0.142209 0.128756 -0.558434
v -0.142209 0.132820 -0.554905
v -0.142209 0.104014 -0.557082
v -0.142209 0.080183 -0.548568
v -0.142209 0.087262 -0.545849
v -0.142209 0.081358 -0.545008
v -0.142209 0.084209 -0.548845
v -0.142209 0.087262 -0.545849
v -0.142209 0.080183 -0.548568
v -0.142209 0.083446 -0.550528
v -0.142209 0.084209 -0.548845
v -0.142209 0.079792 -0.552228
v -0.142209 0.087754 -0.557316
v -0.142209 0.096342 -0.556304
v -0.142209 0.091053 -0.556268
v -0.142209 0.104014 -0.557082
v -0.142209 0.132820 -0.554905
v -0.142209 0.103141 -0.553165
v -0.142209 0.081358 -0.545008
v -0.142209 0.092417 -0.543150
v -0.142209 0.083315 -0.541548
v -0.142209 0.087262 -0.545849
v -0.142209 0.092417 -0.543150
v -0.142209 0.081358 -0.545008
v -0.142209 0.091053 -0.556268
v -0.142209 0.096342 -0.556304
v -0.142209 0.094150 -0.553126
v -0.142209 0.132820 -0.554905
v -0.142209 0.136313 -0.550809
v -0.142209 0.103141 -0.553165
v -0.142209 0.083315 -0.541548
v -0.142209 0.103678 -0.539466
v -0.142209 0.086055 -0.538190
v -0.142209 0.092417 -0.543150
v -0.142209 0.099742 -0.540556
v -0.142209 0.083315 -0.541548
v -0.142209 0.096342 -0.556304
v -0.142209 0.100077 -0.549617
v -0.142209 0.094150 -0.553126
v -0.142209 0.136313 -0.550809
v -0.142209 0.117902 -0.550311
v -0.142209 0.103141 -0.553165
v -0.142209 0.136313 -0.550809
v -0.142209 0.138808 -0.546586
v -0.142209 0.124467 -0.549286
v -0.142209 0.103141 -0.553165
v -0.142209 0.115135 -0.549941
v -0.142209 0.103706 -0.549494
v -0.142209 0.086055 -0.538190
v -0.142209 0.119211 -0.535841
v -0.142209 0.089519 -0.535025
v -0.142209 0.103678 -0.539466
v -0.142209 0.112490 -0.537235
v -0.142209 0.086055 -0.538190
v -0.142209 0.099742 -0.540556
v -0.142209 0.103678 -0.539466
v -0.142209 0.083315 -0.541548
v -0.142209 0.094150 -0.553126
v -0.142209 0.100077 -0.549617
v -0.142209 0.097047 -0.547888
v -0.142209 0.117902 -0.550311
v -0.142209 0.115135 -0.549941
v -0.142209 0.103141 -0.553165
v -0.142209 0.117902 -0.550311
v -0.142209 0.136313 -0.550809
v -0.142209 0.124467 -0.549286
v -0.142209 0.124467 -0.549286
v -0.142209 0.138808 -0.546586
v -0.142209 0.130919 -0.546212
v -0.142209 0.115135 -0.549941
v -0.142209 0.113004 -0.548832
v -0.142209 0.103706 -0.549494
v -0.142209 0.093649 -0.532150
v -0.142209 0.089519 -0.535025
v -0.142209 0.132485 -0.532358
v -0.142209 0.119211 -0.535841
v -0.142209 0.124478 -0.533940
v -0.142209 0.089519 -0.535025
v -0.142209 0.112490 -0.537235
v -0.142209 0.119211 -0.535841
v -0.142209 0.086055 -0.538190
v -0.142209 0.103678 -0.539466
v -0.142209 0.099742 -0.540556
v -0.142209 0.100077 -0.549617
v -0.142209 0.097047 -0.547888
v -0.142209 0.100077 -0.549617
v -0.142209 0.099742 -0.540556
v -0.142209 0.103706 -0.549494
v -0.142209 0.111646 -0.547113
v -0.142209 0.105400 -0.545849
v -0.142209 0.138808 -0.546586
v -0.142209 0.140305 -0.542238
v -0.142209 0.133717 -0.544075
v -0.142209 0.130919 -0.546212
v -0.142209 0.138808 -0.546586
v -0.142209 0.133717 -0.544075
v -0.142209 0.113004 -0.548832
v -0.142209 0.111646 -0.547113
v -0.142209 0.103706 -0.549494
v -0.142209 0.124478 -0.533940
v -0.142209 0.132485 -0.532358
v -0.142209 0.089519 -0.535025
v -0.142209 0.093649 -0.532150
v -0.142209 0.132485 -0.532358
v -0.142209 0.098444 -0.529563
v -0.142209 0.119211 -0.535841
v -0.142209 0.112490 -0.537235
v -0.142209 0.114950 -0.538377
v -0.142209 0.108302 -0.541879
v -0.142209 0.114950 -0.538377
v -0.142209 0.112490 -0.537235
v -0.142209 0.105400 -0.545849
v -0.142209 0.111193 -0.544915
v -0.142209 0.108302 -0.541879
v -0.142209 0.111646 -0.547113
v -0.142209 0.111193 -0.544915
v -0.142209 0.105400 -0.545849
v -0.142209 0.140305 -0.542238
v -0.142209 0.140804 -0.537762
v -0.142209 0.136916 -0.539275
v -0.142209 0.133717 -0.544075
v -0.142209 0.140305 -0.542238
v -0.142209 0.135716 -0.541762
v -0.142209 0.107504 -0.518734
v -0.142209 0.111607 -0.518774
v -0.142209 0.109891 -0.514954
v -0.142209 0.132485 -0.532358
v -0.142209 0.137136 -0.528841
v -0.142209 0.098444 -0.529563
v -0.142209 0.112132 -0.541438
v -0.142209 0.114950 -0.538377
v -0.142209 0.108302 -0.541879
v -0.142209 0.111193 -0.544915
v -0.142209 0.112132 -0.541438
v -0.142209 0.108302 -0.541879
v -0.142209 0.140804 -0.537762
v -0.142209 0.139887 -0.533016
v -0.142209 0.135951 -0.533577
v -0.142209 0.136916 -0.539275
v -0.142209 0.140804 -0.537762
v -0.142209 0.137315 -0.536613
v -0.142209 0.135716 -0.541762
v -0.142209 0.140305 -0.542238
v -0.142209 0.136916 -0.539275
v -0.142209 0.109891 -0.514954
v -0.142209 0.111607 -0.518774
v -0.142209 0.112669 -0.511499
v -0.142209 0.103905 -0.527265
v -0.142209 0.111607 -0.518774
v -0.142209 0.107504 -0.518734
v -0.142209 0.098444 -0.529563
v -0.142209 0.137136 -0.528841
v -0.142209 0.103905 -0.527265
v -0.142209 0.134402 -0.532663
v -0.142209 0.139887 -0.533016
v -0.142209 0.132485 -0.532358
v -0.142209 0.139887 -0.533016
v -0.142209 0.137136 -0.528841
v -0.142209 0.132485 -0.532358
v -0.142209 0.136974 -0.534946
v -0.142209 0.140804 -0.537762
v -0.142209 0.135951 -0.533577
v -0.142209 0.137315 -0.536613
v -0.142209 0.140804 -0.537762
v -0.142209 0.136974 -0.534946
v -0.142209 0.135951 -0.533577
v -0.142209 0.139887 -0.533016
v -0.142209 0.134402 -0.532663
v -0.142209 0.117813 -0.511499
v -0.142209 0.112669 -0.511499
v -0.142209 0.111607 -0.518774
v -0.142209 0.109485 -0.522343
v -0.142209 0.111607 -0.518774
v -0.142209 0.103905 -0.527265
v -0.142209 0.103905 -0.527265
v -0.142209 0.137136 -0.528841
v -0.142209 0.108017 -0.525867
v -0.142209 0.137136 -0.528841
v -0.142209 0.139284 -0.522772
v -0.142209 0.108017 -0.525867
v -0.142209 0.108017 -0.525867
v -0.142209 0.109485 -0.522343
v -0.142209 0.103905 -0.527265
v -0.142209 0.139284 -0.522772
v -0.142209 0.140715 -0.519089
v -0.142209 0.130427 -0.521002
v -0.142209 0.108017 -0.525867
v -0.142209 0.139284 -0.522772
v -0.142209 0.130427 -0.521002
v -0.142209 0.140715 -0.517896
v -0.142209 0.130427 -0.521002
v -0.142209 0.140715 -0.519089
v -0.142209 0.084522 -0.560636
v -0.142209 0.090086 -0.560949
v -0.142209 0.087754 -0.561259
v -0.142209 0.081984 -0.558768
v -0.142209 0.092294 -0.560020
v -0.142209 0.084522 -0.560636
v -0.142209 0.084522 -0.560636
v -0.142209 0.092294 -0.560020
v -0.142209 0.090086 -0.560949
v -0.142209 0.106630 -0.560221
v -0.142209 0.124550 -0.560955
v -0.142209 0.110645 -0.562284
v -0.142209 0.080340 -0.555888
v -0.142209 0.084466 -0.555915
v -0.142209 0.081984 -0.558768
v -0.142209 0.081984 -0.558768
v -0.142209 0.094380 -0.558472
v -0.142209 0.092294 -0.560020
v -0.142209 0.106630 -0.560221
v -0.142209 0.128756 -0.558434
v -0.142209 0.124550 -0.560955
v -0.142209 0.110645 -0.562284
v -0.142209 0.124550 -0.560955
v -0.142209 0.120202 -0.562467
v -0.142209 0.079792 -0.552228
v -0.142209 0.083192 -0.552335
v -0.142209 0.080340 -0.555888
v -0.142209 0.080340 -0.555888
v -0.142209 0.083510 -0.554319
v -0.142209 0.084466 -0.555915
v -0.142209 0.081984 -0.558768
v -0.142209 0.084466 -0.555915
v -0.142209 0.085926 -0.556965
v -0.142209 0.081984 -0.558768
v -0.142209 0.087754 -0.557316
v -0.142209 0.094380 -0.558472
v -0.142209 0.104014 -0.557082
v -0.142209 0.128756 -0.558434
v -0.142209 0.106630 -0.560221
v -0.142209 0.110645 -0.562284
v -0.142209 0.120202 -0.562467
v -0.142209 0.115711 -0.562971
v -0.142209 0.080183 -0.548568
v -0.142209 0.084209 -0.548845
v -0.142209 0.079792 -0.552228
v -0.142209 0.079792 -0.552228
v -0.142209 0.083446 -0.550528
v -0.142209 0.083192 -0.552335
v -0.142209 0.080340 -0.555888
v -0.142209 0.083192 -0.552335
v -0.142209 0.083510 -0.554319
v -0.142209 0.081984 -0.558768
v -0.142209 0.085926 -0.556965
v -0.142209 0.087754 -0.557316
v -0.142209 0.087754 -0.557316
v -0.142209 0.096342 -0.556304
v -0.142209 0.094380 -0.558472
v -0.142209 0.104014 -0.557082
v -0.142209 0.132820 -0.554905
v -0.142209 0.128756 -0.558434
v -0.142209 0.081358 -0.545008
v -0.142209 0.087262 -0.545849
v -0.142209 0.080183 -0.548568
v -0.142209 0.080183 -0.548568
v -0.142209 0.087262 -0.545849
v -0.142209 0.084209 -0.548845
v -0.142209 0.079792 -0.552228
v -0.142209 0.084209 -0.548845
v -0.142209 0.083446 -0.550528
v -0.142209 0.091053 -0.556268
v -0.142209 0.096342 -0.556304
v -0.142209 0.087754 -0.557316
v -0.142209 0.103141 -0.553165
v -0.142209 0.132820 -0.554905
v -0.142209 0.104014 -0.557082
v -0.142209 0.083315 -0.541548
v -0.142209 0.092417 -0.543150
v -0.142209 0.081358 -0.545008
v -0.142209 0.081358 -0.545008
v -0.142209 0.092417 -0.543150
v -0.142209 0.087262 -0.545849
v -0.142209 0.094150 -0.553126
v -0.142209 0.096342 -0.556304
v -0.142209 0.091053 -0.556268
v -0.142209 0.103141 -0.553165
v -0.142209 0.136313 -0.550809
v -0.142209 0.132820 -0.554905
v -0.142209 0.086055 -0.538190
v -0.142209 0.103678 -0.539466
v -0.142209 0.083315 -0.541548
v -0.142209 0.083315 -0.541548
v -0.142209 0.099742 -0.540556
v -0.142209 0.092417 -0.543150
v -0.142209 0.094150 -0.553126
v -0.142209 0.100077 -0.549617
v -0.142209 0.096342 -0.556304
v -0.142209 0.103141 -0.553165
v -0.142209 0.117902 -0.550311
v -0.142209 0.136313 -0.550809
v -0.142209 0.124467 -0.549286
v -0.142209 0.138808 -0.546586
v -0.142209 0.136313 -0.550809
v -0.142209 0.103706 -0.549494
v -0.142209 0.115135 -0.549941
v -0.142209 0.103141 -0.553165
v -0.142209 0.089519 -0.535025
v -0.142209 0.119211 -0.535841
v -0.142209 0.086055 -0.538190
v -0.142209 0.086055 -0.538190
v -0.142209 0.112490 -0.537235
v -0.142209 0.103678 -0.539466
v -0.142209 0.083315 -0.541548
v -0.142209 0.103678 -0.539466
v -0.142209 0.099742 -0.540556
v -0.142209 0.097047 -0.547888
v -0.142209 0.100077 -0.549617
v -0.142209 0.094150 -0.553126
v -0.142209 0.103141 -0.553165
v -0.142209 0.115135 -0.549941
v -0.142209 0.117902 -0.550311
v -0.142209 0.124467 -0.549286
v -0.142209 0.136313 -0.550809
v -0.142209 0.117902 -0.550311
v -0.142209 0.130919 -0.546212
v -0.142209 0.138808 -0.546586
v -0.142209 0.124467 -0.549286
v -0.142209 0.103706 -0.549494
v -0.142209 0.113004 -0.548832
v -0.142209 0.115135 -0.549941
v -0.142209 0.132485 -0.532358
v -0.142209 0.089519 -0.535025
v -0.142209 0.093649 -0.532150
v -0.142209 0.089519 -0.535025
v -0.142209 0.124478 -0.533940
v -0.142209 0.119211 -0.535841
v -0.142209 0.086055 -0.538190
v -0.142209 0.119211 -0.535841
v -0.142209 0.112490 -0.537235
v -0.142209 0.100077 -0.549617
v -0.142209 0.099742 -0.540556
v -0.142209 0.103678 -0.539466
v -0.142209 0.099742 -0.540556
v -0.142209 0.100077 -0.549617
v -0.142209 0.097047 -0.547888
v -0.142209 0.105400 -0.545849
v -0.142209 0.111646 -0.547113
v -0.142209 0.103706 -0.549494
v -0.142209 0.133717 -0.544075
v -0.142209 0.140305 -0.542238
v -0.142209 0.138808 -0.546586
v -0.142209 0.133717 -0.544075
v -0.142209 0.138808 -0.546586
v -0.142209 0.130919 -0.546212
v -0.142209 0.103706 -0.549494
v -0.142209 0.111646 -0.547113
v -0.142209 0.113004 -0.548832
v -0.142209 0.089519 -0.535025
v -0.142209 0.132485 -0.532358
v -0.142209 0.124478 -0.533940
v -0.142209 0.098444 -0.529563
v -0.142209 0.132485 -0.532358
v -0.142209 0.093649 -0.532150
v -0.142209 0.114950 -0.538377
v -0.142209 0.112490 -0.537235
v -0.142209 0.119211 -0.535841
v -0.142209 0.112490 -0.537235
v -0.142209 0.114950 -0.538377
v -0.142209 0.108302 -0.541879
v -0.142209 0.108302 -0.541879
v -0.142209 0.111193 -0.544915
v -0.142209 0.105400 -0.545849
v -0.142209 0.105400 -0.545849
v -0.142209 0.111193 -0.544915
v -0.142209 0.111646 -0.547113
v -0.142209 0.136916 -0.539275
v -0.142209 0.140804 -0.537762
v -0.142209 0.140305 -0.542238
v -0.142209 0.135716 -0.541762
v -0.142209 0.140305 -0.542238
v -0.142209 0.133717 -0.544075
v -0.142209 0.109891 -0.514954
v -0.142209 0.111607 -0.518774
v -0.142209 0.107504 -0.518734
v -0.142209 0.098444 -0.529563
v -0.142209 0.137136 -0.528841
v -0.142209 0.132485 -0.532358
v -0.142209 0.108302 -0.541879
v -0.142209 0.114950 -0.538377
v -0.142209 0.112132 -0.541438
v -0.142209 0.108302 -0.541879
v -0.142209 0.112132 -0.541438
v -0.142209 0.111193 -0.544915
v -0.142209 0.135951 -0.533577
v -0.142209 0.139887 -0.533016
v -0.142209 0.140804 -0.537762
v -0.142209 0.137315 -0.536613
v -0.142209 0.140804 -0.537762
v -0.142209 0.136916 -0.539275
v -0.142209 0.136916 -0.539275
v -0.142209 0.140305 -0.542238
v -0.142209 0.135716 -0.541762
v -0.142209 0.112669 -0.511499
v -0.142209 0.111607 -0.518774
v -0.142209 0.109891 -0.514954
v -0.142209 0.107504 -0.518734
v -0.142209 0.111607 -0.518774
v -0.142209 0.103905 -0.527265
v -0.142209 0.103905 -0.527265
v -0.142209 0.137136 -0.528841
v -0.142209 0.098444 -0.529563
v -0.142209 0.132485 -0.532358
v -0.142209 0.139887 -0.533016
v -0.142209 0.134402 -0.532663
v -0.142209 0.132485 -0.532358
v -0.142209 0.137136 -0.528841
v -0.142209 0.139887 -0.533016
v -0.142209 0.135951 -0.533577
v -0.142209 0.140804 -0.537762
v -0.142209 0.136974 -0.534946
v -0.142209 0.136974 -0.534946
v -0.142209 0.140804 -0.537762
v -0.142209 0.137315 -0.536613
v -0.142209 0.134402 -0.532663
v -0.142209 0.139887 -0.533016
v -0.142209 0.135951 -0.533577
v -0.142209 0.111607 -0.518774
v -0.142209 0.112669 -0.511499
v -0.142209 0.117813 -0.511499
v -0.142209 0.103905 -0.527265
v -0.142209 0.111607 -0.518774
v -0.142209 0.109485 -0.522343
v -0.142209 0.108017 -0.525867
v -0.142209 0.137136 -0.528841
v -0.142209 0.103905 -0.527265
v -0.142209 0.108017 -0.525867
v -0.142209 0.139284 -0.522772
v -0.142209 0.137136 -0.528841
v -0.142209 0.103905 -0.527265
v -0.142209 0.109485 -0.522343
v -0.142209 0.108017 -0.525867
v -0.142209 0.130427 -0.521002
v -0.142209 0.140715 -0.519089
v -0.142209 0.139284 -0.522772
v -0.142209 0.130427 -0.521002
v -0.142209 0.139284 -0.522772
v -0.142209 0.108017 -0.525867
v -0.142209 0.140715 -0.519089
v -0.142209 0.130427 -0.521002
v -0.142209 0.140715 -0.517896
vn 1 0 0
vn -1 0 0
usemtl material_0_0
f 1//1 2//1 3//1
f 4//1 5//1 6//1
f 7//1 8//1 9//1
f 10//1 11//1 12//1
f 13//1 14//1 15//1
f 16//1 17//1 18//1
f 19//1 20//1 21//1
f 22//1 23//1 24//1
f 25//1 26//1 27//1
f 28//1 29//1 30//1
f 31//1 32//1 33//1
f 34//1 35//1 36//1
f 37//1 38//1 39//1
f 40//1 41//1 42//1
f 43//1 44//1 45//1
f 46//1 47//1 48//1
f 49//1 50//1 51//1
f 52//1 53//1 54//1
f 55//1 56//1 57//1
f 58//1 59//1 60//1
f 61//1 62//1 63//1
f 64//1 65//1 66//1
f 67//1 68//1 69//1
f 70//1 71//1 72//1
f 73//1 74//1 75//1
f 76//1 77//1 78//1
f 79//1 80//1 81//1
f 82//1 83//1 84//1
f 85//1 86//1 87//1
f 88//1 89//1 90//1
f 91//1 92//1 93//1
f 94//1 95//1 96//1
f 97//1 98//1 99//1
f 100//1 101//1 102//1
f 103//1 104//1 105//1
f 106//1 107//1 108//1
f 109//1 110//1 111//1
f 112//1 113//1 114//1
f 115//1 116//1 117//1
f 118//1 119//1 120//1
f 121//1 122//1 123//1
f 124//1 125//1 126//1
f 127//1 128//1 129//1
f 130//1 131//1 132//1
f 133//1 134//1 135//1
f 136//1 137//1 138//1
f 139//1 140//1 141//1
f 142//1 143//1 144//1
f 145//1 146//1 147//1
f 148//1 149//1 150//1
f 151//1 152//1 153//1
f 154//1 155//1 156//1
f 157//1 158//1 159//1
f 160//1 161//1 162//1
f 163//1 164//1 165//1
f 166//1 167//1 168//1
f 169//1 170//1 171//1
f 172//1 173//1 174//1
f 175//1 176//1 177//1
f 178//1 179//1 180//1
f 181//1 182//1 183//1
f 184//1 185//1 186//1
f 187//1 188//1 189//1
f 190//1 191//1 192//1
f 193//1 194//1 195//1
f 196//1 197//1 198//1
f 199//1 200//1 201//1
f 202//1 203//1 204//1
f 205//1 206//1 207//1
f 208//1 209//1 210//1
f 211//1 212//1 213//1
f 214//1 215//1 216//1
f 217//1 218//1 219//1
f 220//1 221//1 222//1
f 223//1 224//1 225//1
f 226//1 227//1 228//1
f 229//1 230//1 231//1
f 232//1 233//1 234//1
f 235//1 236//1 237//1
f 238//1 239//1 240//1
f 241//1 242//1 243//1
f 244//1 245//1 246//1
f 247//1 248//1 249//1
usemtl material_1_0
f 250//2 251//2 252//2
f 253//2 254//2 255//2
f 256//2 257//2 258//2
f 259//2 260//2 261//2
f 262//2 263//2 264//2
f 265//2 266//2 267//2
f 268//2 269//2 270//2
f 271//2 272//2 273//2
f 274//2 275//2 276//2
f 277//2 278//2 279//2
f 280//2 281//2 282//2
f 283//2 284//2 285//2
f 286//2 287//2 288//2
f 289//2 290//2 291//2
f 292//2 293//2 294//2
f 295//2 296//2 297//2
f 298//2 299//2 300//2
f 301//2 302//2 303//2
f 304//2 305//2 306//2
f 307//2 308//2 309//2
f 310//2 311//2 312//2
f 313//2 314//2 315//2
f 316//2 317//2 318//2
f 319//2 320//2 321//2
f 322//2 323//2 324//2
f 325//2 326//2 327//2
f 328//2 329//2 330//2
f 331//2 332//2 333//2
f 334//2 335//2 336//2
f 337//2 338//2 339//2
f 340//2 341//2 342//2
f 343//2 344//2 345//2
f 346//2 347//2 348//2
f 349//2 350//2 351//2
f 352//2 353//2 354//2
f 355//2 356//2 357//2
f 358//2 359//2 360//2
f 361//2 362//2 363//2
f 364//2 365//2 366//2
f 367//2 368//2 369//2
f 370//2 371//2 372//2
f 373//2 374//2 375//2
f 376//2 377//2 378//2
f 379//2 380//2 381//2
f 382//2 383//2 384//2
f 385//2 386//2 387//2
f 388//2 389//2 390//2
f 391//2 392//2 393//2
f 394//2 395//2 396//2
f 397//2 398//2 399//2
f 400//2 401//2 402//2
f 403//2 404//2 405//2
f 406//2 407//2 408//2
f 409//2 410//2 411//2
f 412//2 413//2 414//2
f 415//2 416//2 417//2
f 418//2 419//2 420//2
f 421//2 422//2 423//2
f 424//2 425//2 426//2
f 427//2 428//2 429//2
f 430//2 431//2 432//2
f 433//2 434//2 435//2
f 436//2 437//2 438//2
f 439//2 440//2 441//2
f 442//2 443//2 444//2
f 445//2 446//2 447//2
f 448//2 449//2 450//2
f 451//2 452//2 453//2
f 454//2 455//2 456//2
f 457//2 458//2 459//2
f 460//2 461//2 462//2
f 463//2 464//2 465//2
f 466//2 467//2 468//2
f 469//2 470//2 471//2
f 472//2 473//2 474//2
f 475//2 476//2 477//2
f 478//2 479//2 480//2
f 481//2 482//2 483//2
f 484//2 485//2 486//2
f 487//2 488//2 489//2
f 490//2 491//2 492//2
f 493//2 494//2 495//2
f 496//2 497//2 498//2
