# Blender v3.2.1 OBJ File: ''
# www.blender.org
mtllib 100901_merged.mtl
o 3dw.eb6176d02ba79f0640010f30b5cd77ee/Model/mesh1/mesh1-geometry
v -0.140282 0.105551 0.180137
v -0.132575 0.097371 0.180997
v -0.134195 0.099280 0.180796
v -0.134195 0.099280 0.180796
v -0.132575 0.097371 0.180997
v -0.140282 0.105551 0.180137
vt -3.921780 4.143365
vt -3.881910 4.100819
vt -3.890294 4.110748
vt -3.890294 4.110748
vt -3.881910 4.100819
vt -3.921780 4.143365
vn 0.0000 0.1046 0.9945
vn -0.0000 -0.1045 -0.9945
usemtl material_0_0.070
s off
f 1/1/1 2/2/1 3/3/1
f 4/4/2 5/5/2 6/6/2
o 3dw.eb6176d02ba79f0640010f30b5cd77ee/Model/mesh1/mesh1-geom_3dw.eb6176d02ba79f0640010f30b5cd77ee/Model/mesh1/mesh1-geom.023
v -0.140282 0.105551 0.180137
v -0.132575 0.097371 0.180997
v -0.134195 0.099280 0.180796
v -0.134195 0.099280 0.180796
v -0.132575 0.097371 0.180997
v -0.140282 0.105551 0.180137
vt -3.921780 4.143365
vt -3.881910 4.100819
vt -3.890294 4.110748
vt -3.890294 4.110748
vt -3.881910 4.100819
vt -3.921780 4.143365
vn 0.0000 0.1046 0.9945
vn 0.0000 -0.1045 -0.9945
usemtl material_0_0.358
s off
f 7/7/3 8/8/3 9/9/3
f 10/10/4 11/11/4 12/12/4
o 3dw.eb6176d02ba79f0640010f30b5cd77ee/Model/mesh1/mesh1-geom.001_3dw.eb6176d02ba79f0640010f30b5cd77ee/Model/mesh1/mesh1-geom.024
v -0.140282 0.105551 0.180137
v -0.132575 0.097371 0.180997
v -0.134195 0.099280 0.180796
v -0.134195 0.099280 0.180796
v -0.132575 0.097371 0.180997
v -0.140282 0.105551 0.180137
v 0.512944 0.343864 0.061522
v -0.485283 -0.295001 0.131798
v 0.512944 -0.295001 0.131798
v -0.485283 0.343864 0.061522
v 0.512944 -0.295001 0.051939
v 0.512944 0.343864 0.061522
v 0.512944 -0.295001 0.131798
v 0.512944 0.343864 0.051939
v 0.512944 0.343864 0.061522
v -0.485283 0.343864 0.051939
v -0.485283 0.343864 0.061522
v 0.512944 0.343864 0.051939
v -0.485283 0.343864 0.061522
v -0.485283 -0.295001 0.051939
v -0.485283 -0.295001 0.131798
v -0.485283 0.343864 0.051939
v 0.512944 -0.295001 0.051939
v -0.485283 -0.295001 0.131798
v -0.485283 -0.295001 0.051939
v 0.512944 -0.295001 0.131798
vt -3.921780 4.143365
vt -3.881910 4.100819
vt -3.890294 4.110748
vt -3.890294 4.110748
vt -3.881910 4.100819
vt -3.921780 4.143365
vt 0.000000 0.000000
vt 0.000000 0.000000
vt 0.000000 0.000000
vt 0.000000 0.000000
vt 0.000000 0.000000
vt 0.000000 0.000000
vt 0.000000 0.000000
vt 0.000000 0.000000
vt 0.000000 0.000000
vt 0.000000 0.000000
vt 0.000000 0.000000
vt 0.000000 0.000000
vt 0.000000 0.000000
vt 0.000000 0.000000
vt 0.000000 0.000000
vt 0.000000 0.000000
vt 0.000000 0.000000
vt 0.000000 0.000000
vt 0.000000 0.000000
vt 0.000000 0.000000
vn 0.0000 0.1046 0.9945
vn 0.0000 -0.1045 -0.9945
vn 0.0000 0.1093 0.9940
vn 1.0000 0.0000 0.0000
vn 0.0000 1.0000 0.0000
vn -1.0000 0.0000 0.0000
vn 0.0000 -1.0000 0.0000
usemtl material_0_0.360
s off
f 13/13/5 14/14/5 15/15/5
f 16/16/6 17/17/6 18/18/6
usemtl material_0_0.359
f 19/19/7 20/20/7 21/21/7
f 20/20/7 19/19/7 22/22/7
f 23/23/8 24/24/8 25/25/8
f 24/24/8 23/23/8 26/26/8
f 27/27/9 28/28/9 29/29/9
f 28/28/9 27/27/9 30/30/9
f 31/31/10 32/32/10 33/33/10
f 32/32/10 31/31/10 34/34/10
f 35/35/11 36/36/11 37/37/11
f 36/36/11 35/35/11 38/38/11
