# SSTK version 0.8.0
# 2
mtllib original-2.mtl
o mesh2/mesh2-geometry#mesh2-geometry
v 0.020883 0.910869 0.409043
v 0.065924 0.910869 0.030293
v 0.074767 0.910869 0.009463
v 0.051994 0.910869 0.048122
v 0.065924 0.867529 0.030293
v 0.020883 0.954208 0.409043
v 0.033923 0.910869 0.061737
v 0.051994 0.867529 0.048122
v 0.074767 0.867529 0.009463
v 0.074767 0.954208 0.009463
v 0.017529 0.915020 0.409014
v 0.012940 0.910869 0.070212
v 0.033923 0.867529 0.061737
v 0.053893 0.845860 0.003671
v 0.047255 0.845860 0.019294
v 0.002125 0.975877 0.387390
v -0.045822 0.910869 0.408457
v 0.012940 0.867529 0.070212
v 0.036805 0.845860 0.032664
v 0.077920 0.867529 -0.012942
v 0.077920 0.954208 -0.012942
v 0.053487 0.975877 0.006528
v -0.045822 0.954208 0.408457
v -0.041939 0.915020 0.408491
v -0.040415 0.915020 0.235141
v 0.017529 0.950238 0.409014
v 0.019053 0.950238 0.235663
v -0.009517 0.910869 0.072971
v -0.009517 0.867529 0.072971
v 0.023253 0.845860 0.042877
v 0.054189 0.845860 -0.029976
v 0.056251 0.845860 -0.013133
v 0.047826 0.845860 -0.045713
v 0.056251 0.975877 -0.013133
v 0.047826 0.975877 -0.045713
v -0.026686 0.975877 0.387136
v -0.041939 0.950238 0.408491
v 0.019053 0.915020 0.235663
v -0.031923 0.910869 0.069818
v -0.009327 0.845860 0.051302
v 0.007517 0.845860 0.049231
v 0.037613 0.845860 -0.059273
v 0.075162 0.954208 -0.035400
v 0.054189 0.975877 -0.029976
v 0.037613 0.975877 -0.059273
v -0.008184 0.975877 -0.078711
v -0.092672 0.954208 0.007991
v -0.040415 0.950238 0.235141
v -0.052753 0.910869 0.060975
v -0.031923 0.867529 0.069818
v -0.026131 0.845860 0.048935
v 0.024243 0.845860 -0.069714
v 0.034427 0.845860 -0.061762
v 0.066686 0.867529 -0.056382
v 0.075162 0.867529 -0.035400
v 0.053072 0.867529 -0.074453
v 0.066686 0.954208 -0.056382
v 0.053072 0.954208 -0.074453
v 0.034427 0.975877 -0.061762
v 0.024243 0.975877 -0.069714
v 0.008621 0.975877 -0.076353
v -0.025027 0.975877 -0.076648
v -0.071343 0.975877 0.005431
v -0.092672 0.910869 0.007991
v -0.070582 0.910869 0.047045
v -0.052753 0.867529 0.060975
v 0.008621 0.845860 -0.076353
v -0.008184 0.845860 -0.078711
v 0.035242 0.867529 -0.088384
v 0.047657 0.867529 -0.078688
v 0.047657 0.954208 -0.078688
v 0.035242 0.954208 -0.088384
v -0.007993 0.954208 -0.100379
v -0.030451 0.954208 -0.097621
v -0.073761 0.975877 -0.014276
v -0.092672 0.867529 0.007991
v -0.084197 0.910869 0.028973
v -0.070582 0.867529 0.047045
v -0.041753 0.845860 0.042305
v -0.025027 0.845860 -0.076648
v 0.014412 0.867529 -0.097227
v 0.014412 0.954208 -0.097227
v -0.040763 0.975877 -0.070286
v -0.095430 0.954208 -0.014466
v -0.071395 0.975877 -0.031080
v -0.084197 0.867529 0.028973
v -0.055123 0.845860 0.031855
v -0.007993 0.867529 -0.100379
v -0.030451 0.867529 -0.097621
v -0.051433 0.954208 -0.089146
v -0.054315 0.975877 -0.060081
v -0.092277 0.954208 -0.036872
v -0.064765 0.975877 -0.046702
v -0.095430 0.867529 -0.014466
v -0.071690 0.845860 0.002567
v -0.065336 0.845860 0.018304
v -0.040763 0.845860 -0.070286
v -0.083435 0.954208 -0.057702
v -0.073761 0.845860 -0.014276
v -0.054315 0.845860 -0.060081
v -0.051433 0.867529 -0.089146
v -0.069504 0.954208 -0.075531
v -0.092277 0.867529 -0.036872
v -0.071395 0.845860 -0.031080
v -0.064765 0.845860 -0.046702
v -0.083435 0.867529 -0.057702
v -0.069504 0.867529 -0.075531
vn 0 -1 0
vn 0 1 0
vn 0.8615962646649642 0 0.5075942047693031
vn 0.9636132088808862 0 0.2673005493265619
vn -0.8615962646649642 0 -0.5075942047693031
vn -0.9636132088808862 0 -0.2673005493265619
vn 0.9910293460322508 0 0.13364443610898746
vn -0.9910293460322508 0 -0.13364443610898746
vn 0.7008631805050388 0 0.7132957326469586
vn -0.7008631805050388 0 -0.7132957326469586
vn -0.008791141927006639 0 0.9999613571651753
vn 0.4923675020700427 0 0.8703874096661249
vn -0.4923675020700427 0 -0.8703874096661249
vn 0.6092403540273953 -0.7071071769033883 0.3589228766689218
vn 0.681377431847716 -0.7071067080402966 0.1890103140387469
vn -0.681377431847716 0.7071067080402966 -0.1890103140387469
vn -0.6092403540273953 0.7071071769033883 -0.3589228766689218
vn 0.9902591039073635 0 0.1392368741698312
vn -0.9902591039073635 0 -0.1392368741698312
vn 0.4955850309399442 -0.7071068905932483 0.5043761715067463
vn -0.4955850309399442 0.7071068905932483 -0.5043761715067463
vn 0.7037674475413004 0.7040625890915915 0.0949065351956759
vn -0.7037674475413004 -0.7040625890915915 -0.0949065351956759
vn 0.008791141927006639 0 -0.9999613571651753
vn 0.2503173668639789 0 0.9681638372952608
vn -0.2503173668639789 0 -0.9681638372952608
vn 0.348155975647019 -0.7071071769033883 0.615456624786014
vn -0.348155975647019 0.7071071769033883 -0.615456624786014
vn 0.7070794565759988 -0.7071067811865476 0.006216276070959847
vn -0.7070794565759988 0.7071067811865476 -0.006216276070959847
vn 0.9999613571651754 0 0.00879114192700664
vn -0.9999613571651754 0 -0.00879114192700664
vn -0.0062429218012767925 0.7040627581499078 0.7101103143270965
vn 0.0062429218012767925 -0.7040627581499078 -0.7101103143270965
vn 0.17700139055517108 -0.7071067080402965 0.6845952170340884
vn -0.17700139055517108 0.7071067080402965 -0.6845952170340884
vn 0.7032204945327046 0.7040625695355726 0.09887787542289501
vn 0.7070794565759988 0.7071067811865476 0.006216276070959689
vn -0.7032204945327046 -0.7040625695355726 -0.09887787542289501
vn -0.7070794565759988 -0.7071067811865476 -0.006216276070959689
vn -0.006216276070959768 -0.7071067811865475 0.707079456575999
vn 0.006216276070959768 0.7071067811865475 -0.707079456575999
vn 0.6845952170340883 -0.7071067080402968 -0.17700139055517106
vn -0.6845952170340883 0.7071067080402968 0.17700139055517106
vn 0.9681638372952608 0 -0.250317366863979
vn -0.9681638372952608 0 0.250317366863979
vn -0.7053272765253381 0.7040625890915915 0.08251850477919664
vn 0.7053272765253381 -0.7040625890915915 -0.08251850477919664
vn -0.9932258478679296 0 0.1161998929734119
vn 0.9932258478679296 0 -0.1161998929734119
vn -0.2673005493265618 0 0.9636132088808861
vn 0.2673005493265618 0 -0.9636132088808861
vn -0.1890103140387468 -0.7071067080402965 0.6813774318477163
vn 0.1890103140387468 0.7071067080402965 -0.6813774318477163
vn 0.6154566247860138 -0.7071071769033885 -0.34815597564701894
vn -0.6154566247860138 0.7071071769033885 0.34815597564701894
vn 0.6845952170340882 0.7071067080402966 -0.1770013905551712
vn -0.6845952170340882 -0.7071067080402966 0.1770013905551712
vn 0.504376171506746 -0.7071068905932484 -0.4955850309399441
vn -0.504376171506746 0.7071068905932484 0.4955850309399441
vn 0.6154566247860138 0.7071071769033883 -0.34815597564701906
vn -0.6154566247860138 -0.7071071769033883 0.34815597564701906
vn 0.504376171506746 0.7071068905932482 -0.4955850309399442
vn -0.504376171506746 -0.7071068905932482 0.4955850309399442
vn -0.507594204769303 0 0.8615962646649641
vn 0.507594204769303 0 -0.8615962646649641
vn 0.35892287666892175 -0.7071071769033885 -0.6092403540273953
vn 0.4372410019246505 -0.7040627841716988 -0.5595676028687897
vn -0.4372410019246505 0.7040627841716988 0.5595676028687897
vn -0.35892287666892175 0.7071071769033885 0.6092403540273953
vn 0.8703874096661248 0 -0.49236750207004276
vn -0.8703874096661248 0 0.49236750207004276
vn -0.4372410019246505 -0.7040627841716985 0.5595676028687899
vn 0.35892287666892175 0.7071071769033883 -0.6092403540273955
vn 0.4372410019246505 0.7040627841716985 -0.5595676028687899
vn -0.35892287666892175 -0.7071071769033883 0.6092403540273955
vn 0.09887787542289508 0.7040625695355724 -0.7032204945327049
vn -0.09887787542289508 -0.7040625695355724 0.7032204945327049
vn -0.08649884747433467 0.7040625695355723 -0.7048502305912789
vn 0.08649884747433467 -0.7040625695355723 0.7048502305912789
vn -0.7048502305912789 0.7040625695355726 0.08649884747433462
vn 0.7048502305912789 -0.7040625695355726 -0.08649884747433462
vn -0.9925540488318543 0 0.12180500871266772
vn 0.9925540488318543 0 -0.12180500871266772
vn -0.7132957326469584 0 0.7008631805050389
vn 0.7132957326469584 0 -0.7008631805050389
vn 0.1890103140387468 -0.7071067080402967 -0.681377431847716
vn -0.1890103140387468 0.7071067080402967 0.681377431847716
vn 0.6157122815968753 0 -0.7879710567595551
vn -0.6157122815968753 0 0.7879710567595551
vn 0.006216276070959767 -0.7071067811865476 -0.7070794565759987
vn -0.006216276070959767 0.7071067811865476 0.7070794565759987
vn -0.17700139055517108 -0.7071067080402967 -0.6845952170340882
vn 0.17700139055517108 0.7071067080402967 0.6845952170340882
vn -0.348155975647019 -0.7071071769033885 -0.6154566247860138
vn 0.348155975647019 0.7071071769033885 0.6154566247860138
vn -0.681377431847716 -0.7071067080402966 -0.18901031403874674
vn 0.681377431847716 0.7071067080402966 0.18901031403874674
vn -0.4955850309399441 -0.7071068905932484 -0.5043761715067459
vn 0.4955850309399441 0.7071068905932484 0.5043761715067459
vn -0.6092403540273953 -0.7071071769033885 -0.3589228766689217
vn 0.6092403540273953 0.7071071769033885 0.3589228766689217
usemtl material_0_0
f 1//1 2//1 3//1
f 2//1 1//1 4//1
f 3//2 2//2 1//2
f 4//2 1//2 2//2
f 5//3 3//4 2//3
f 2//5 3//6 5//5
f 3//7 6//7 1//7
f 1//8 6//8 3//8
f 4//1 1//1 7//1
f 7//2 1//2 4//2
f 8//9 2//3 4//9
f 4//10 2//5 8//10
f 3//4 5//3 9//4
f 9//6 5//5 3//6
f 2//3 8//9 5//3
f 5//5 8//10 2//5
f 6//7 3//7 10//7
f 10//8 3//8 6//8
f 11//11 1//11 6//11
f 7//1 1//1 12//1
f 12//2 1//2 7//2
f 13//12 4//9 7//12
f 7//13 4//10 13//13
f 4//9 13//12 8//9
f 8//10 13//13 4//10
f 5//14 14//15 9//15
f 9//16 14//16 5//17
f 9//4 10//18 3//4
f 3//6 10//19 9//6
f 8//20 15//14 5//14
f 5//17 15//17 8//21
f 10//22 16//22 6//22
f 6//23 16//23 10//23
f 1//11 11//11 17//11
f 17//24 11//24 1//24
f 6//24 1//24 11//24
f 12//1 1//1 17//1
f 17//2 1//2 12//2
f 18//25 7//12 12//25
f 12//26 7//13 18//26
f 7//12 18//25 13//12
f 13//13 18//26 7//13
f 13//27 19//20 8//20
f 8//21 19//21 13//28
f 14//15 5//14 15//14
f 15//17 5//17 14//16
f 14//15 20//29 9//15
f 9//16 20//30 14//16
f 9//4 21//31 10//18
f 10//19 21//32 9//6
f 15//14 8//20 19//20
f 19//21 8//21 15//17
f 16//22 10//22 22//22
f 22//23 10//23 16//23
f 16//33 23//33 6//33
f 6//34 23//34 16//34
f 24//11 17//11 11//11
f 11//24 17//24 24//24
f 11//2 25//2 24//2
f 24//1 25//1 11//1
f 11//11 6//11 26//11
f 26//24 6//24 11//24
f 27//32 11//32 26//32
f 26//31 11//31 27//31
f 12//1 17//1 28//1
f 28//2 17//2 12//2
f 12//25 29//11 18//25
f 18//26 29//24 12//26
f 18//35 30//27 13//27
f 13//28 30//28 18//36
f 19//20 13//27 30//27
f 30//28 13//28 19//21
f 31//1 14//1 15//1
f 15//2 14//2 31//2
f 20//29 14//15 32//29
f 32//30 14//16 20//30
f 21//31 9//4 20//31
f 20//32 9//6 21//32
f 33//1 15//1 19//1
f 19//2 15//2 33//2
f 10//37 34//38 22//37
f 22//39 34//40 10//39
f 22//2 35//2 16//2
f 16//1 35//1 22//1
f 23//33 16//33 36//33
f 36//34 16//34 23//34
f 26//11 6//11 37//11
f 23//11 37//11 6//11
f 37//24 6//24 26//24
f 6//24 37//24 23//24
f 17//11 24//11 23//11
f 23//24 24//24 17//24
f 25//2 11//2 38//2
f 38//1 11//1 25//1
f 25//31 37//31 24//31
f 24//32 37//32 25//32
f 11//32 27//32 38//32
f 38//31 27//31 11//31
f 37//1 27//1 26//1
f 26//2 27//2 37//2
f 28//1 17//1 39//1
f 39//2 17//2 28//2
f 29//11 12//25 28//11
f 28//24 12//26 29//24
f 40//41 18//35 29//41
f 29//42 18//36 40//42
f 30//27 18//35 41//35
f 41//36 18//36 30//28
f 42//1 19//1 30//1
f 30//2 19//2 42//2
f 14//1 31//1 32//1
f 31//1 15//1 33//1
f 32//2 31//2 14//2
f 33//2 15//2 31//2
f 31//43 20//29 32//29
f 32//30 20//30 31//44
f 20//31 43//45 21//31
f 21//32 43//46 20//32
f 33//1 19//1 42//1
f 42//2 19//2 33//2
f 34//38 10//37 21//38
f 21//40 10//39 34//40
f 44//2 22//2 34//2
f 34//1 22//1 44//1
f 22//2 44//2 35//2
f 35//1 44//1 22//1
f 16//2 35//2 45//2
f 45//1 35//1 16//1
f 16//2 46//2 36//2
f 36//1 46//1 16//1
f 36//47 47//47 23//47
f 23//48 47//48 36//48
f 23//11 24//11 37//11
f 37//24 24//24 23//24
f 47//49 17//49 23//49
f 23//50 17//50 47//50
f 27//11 25//11 38//11
f 38//24 25//24 27//24
f 37//31 25//31 48//31
f 48//32 25//32 37//32
f 27//1 37//1 48//1
f 48//2 37//2 27//2
f 39//1 17//1 49//1
f 49//2 17//2 39//2
f 50//51 28//11 39//51
f 39//52 28//24 50//52
f 28//11 50//51 29//11
f 29//24 50//52 28//24
f 18//35 40//41 41//35
f 41//36 40//42 18//36
f 29//41 51//53 40//41
f 40//42 51//54 29//42
f 52//1 30//1 41//1
f 41//2 30//2 52//2
f 42//1 30//1 53//1
f 53//1 30//1 52//1
f 53//2 30//2 42//2
f 52//2 30//2 53//2
f 54//55 31//43 33//55
f 33//56 31//44 54//56
f 20//29 31//43 55//43
f 55//44 31//44 20//30
f 43//45 20//31 55//45
f 55//46 20//32 43//46
f 44//57 21//38 43//57
f 43//58 21//40 44//58
f 56//59 33//55 42//59
f 42//60 33//56 56//60
f 21//38 44//57 34//38
f 34//40 44//58 21//40
f 44//57 57//61 35//61
f 35//62 57//62 44//58
f 35//61 58//63 45//63
f 45//64 58//64 35//62
f 16//2 45//2 59//2
f 16//2 59//2 60//2
f 59//1 45//1 16//1
f 60//1 59//1 16//1
f 16//2 61//2 46//2
f 46//1 61//1 16//1
f 36//2 46//2 62//2
f 62//1 46//1 36//1
f 47//47 36//47 63//47
f 63//48 36//48 47//48
f 17//49 47//49 64//49
f 64//50 47//50 17//50
f 25//11 27//11 48//11
f 48//24 27//24 25//24
f 49//1 17//1 65//1
f 65//2 17//2 49//2
f 66//65 39//51 49//65
f 49//66 39//52 66//66
f 39//51 66//65 50//51
f 50//52 66//66 39//52
f 51//53 29//41 50//53
f 50//54 29//42 51//54
f 67//1 41//1 40//1
f 40//2 41//2 67//2
f 68//1 40//1 51//1
f 51//2 40//2 68//2
f 52//1 41//1 67//1
f 67//2 41//2 52//2
f 69//67 42//59 53//68
f 53//69 42//60 69//70
f 69//67 53//68 52//67
f 52//70 53//69 69//70
f 31//43 54//55 55//43
f 55//44 54//56 31//44
f 33//55 56//59 54//55
f 54//56 56//60 33//56
f 55//45 57//71 43//45
f 43//46 57//72 55//46
f 57//61 44//57 43//57
f 43//58 44//58 57//62
f 42//59 70//68 56//59
f 58//63 35//61 57//61
f 57//62 35//62 58//64
f 58//64 45//64 71//73
f 45//63 72//74 59//75
f 59//73 72//76 45//64
f 59//75 72//74 60//74
f 60//76 72//76 59//73
f 16//2 60//2 61//2
f 61//1 60//1 16//1
f 61//54 73//77 46//77
f 46//78 73//78 61//53
f 46//79 74//36 62//36
f 62//35 74//35 46//80
f 36//2 62//2 63//2
f 63//1 62//1 36//1
f 75//30 47//81 63//81
f 63//82 47//82 75//29
f 47//83 76//46 64//46
f 64//45 76//45 47//84
f 77//1 17//1 64//1
f 64//2 17//2 77//2
f 65//1 17//1 77//1
f 77//2 17//2 65//2
f 78//85 49//65 65//85
f 65//86 49//66 78//86
f 49//65 78//85 66//65
f 66//66 78//86 49//66
f 79//76 50//53 66//76
f 66//74 50//54 79//74
f 50//53 79//76 51//53
f 51//54 79//74 50//54
f 67//1 40//1 68//1
f 68//2 40//2 67//2
f 68//1 51//1 80//1
f 80//2 51//2 68//2
f 81//87 52//67 67//87
f 67//88 52//70 81//88
f 70//68 42//59 69//67
f 69//70 42//60 70//69
f 52//67 81//87 69//67
f 69//70 81//88 52//70
f 57//71 55//45 54//71
f 54//72 55//46 57//72
f 58//86 54//71 56//86
f 56//85 54//72 58//85
f 71//89 56//86 70//89
f 70//90 56//85 71//90
f 56//60 70//69 42//60
f 54//71 58//86 57//71
f 57//72 58//85 54//72
f 71//75 45//63 58//63
f 45//63 71//75 72//74
f 72//76 71//73 45//64
f 56//86 71//89 58//86
f 58//85 71//90 56//85
f 82//54 60//74 72//74
f 72//76 60//76 82//53
f 60//74 82//54 61//54
f 61//53 82//53 60//76
f 73//77 61//54 82//54
f 82//53 61//53 73//78
f 74//36 46//79 73//79
f 73//80 46//80 74//35
f 74//36 83//28 62//36
f 62//35 83//27 74//35
f 63//2 62//2 83//2
f 83//1 62//1 63//1
f 47//81 75//30 84//30
f 84//29 75//29 47//82
f 63//2 85//2 75//2
f 75//1 85//1 63//1
f 84//32 76//46 47//83
f 47//84 76//45 84//31
f 86//72 64//46 76//46
f 76//45 64//45 86//71
f 77//72 78//85 65//85
f 65//86 78//86 77//71
f 87//64 66//76 78//64
f 78//63 66//74 87//63
f 66//76 87//64 79//76
f 79//74 87//63 66//74
f 80//1 51//1 79//1
f 79//2 51//2 80//2
f 88//91 67//87 68//91
f 68//92 67//88 88//92
f 89//93 68//91 80//93
f 80//94 68//92 89//94
f 67//87 88//91 81//87
f 81//88 88//92 67//88
f 72//66 70//89 69//66
f 69//65 70//90 72//65
f 82//52 69//66 81//52
f 81//51 69//65 82//51
f 70//89 72//66 71//89
f 71//90 72//65 70//90
f 69//66 82//52 72//66
f 72//65 82//51 69//65
f 81//52 73//24 82//52
f 82//51 73//11 81//51
f 88//24 74//26 73//24
f 73//11 74//25 88//11
f 83//28 74//36 90//28
f 90//27 74//35 83//27
f 63//2 83//2 91//2
f 91//1 83//1 63//1
f 75//30 92//16 84//30
f 84//29 92//15 75//29
f 63//2 93//2 85//2
f 85//1 93//1 63//1
f 92//16 75//30 85//16
f 85//15 75//29 92//15
f 76//46 84//32 94//32
f 94//31 84//31 76//45
f 64//46 86//72 77//72
f 77//71 86//71 64//45
f 95//58 86//62 76//58
f 76//57 86//61 95//57
f 78//85 77//72 86//72
f 86//71 77//71 78//86
f 78//64 96//62 87//64
f 87//63 96//61 78//63
f 97//1 79//1 87//1
f 87//2 79//2 97//2
f 80//1 79//1 97//1
f 97//2 79//2 80//2
f 68//91 89//93 88//91
f 88//92 89//94 68//92
f 97//95 89//93 80//93
f 80//94 89//94 97//96
f 73//24 81//52 88//24
f 88//11 81//51 73//11
f 74//26 88//24 89//26
f 89//25 88//11 74//25
f 89//26 90//13 74//26
f 74//25 90//12 89//25
f 90//28 91//21 83//28
f 83//27 91//20 90//27
f 63//2 91//2 93//2
f 93//1 91//1 63//1
f 92//6 94//32 84//32
f 84//31 94//31 92//4
f 98//17 85//16 93//17
f 93//14 85//15 98//14
f 85//16 98//17 92//16
f 92//15 98//14 85//15
f 99//40 76//58 94//40
f 94//38 76//57 99//38
f 86//62 95//58 96//62
f 96//61 95//57 86//61
f 76//58 99//40 95//58
f 95//57 99//38 76//57
f 96//62 78//64 86//62
f 86//61 78//63 96//61
f 100//1 87//1 96//1
f 96//2 87//2 100//2
f 97//1 87//1 100//1
f 100//2 87//2 97//2
f 89//93 97//95 101//95
f 101//96 97//96 89//94
f 90//13 89//26 101//13
f 101//12 89//25 90//12
f 91//21 90//28 102//21
f 102//20 90//27 91//20
f 102//21 93//17 91//21
f 91//20 93//14 102//20
f 94//32 92//6 103//6
f 103//4 92//4 94//31
f 93//17 102//21 98//17
f 98//14 102//20 93//14
f 98//5 103//6 92//6
f 92//4 103//4 98//3
f 94//40 104//97 99//40
f 99//38 104//98 94//38
f 105//1 96//1 95//1
f 95//2 96//2 105//2
f 104//1 95//1 99//1
f 99//2 95//2 104//2
f 100//1 96//1 105//1
f 105//2 96//2 100//2
f 100//99 101//95 97//95
f 97//96 101//96 100//100
f 101//13 102//10 90//13
f 90//12 102//9 101//12
f 104//97 94//40 103//97
f 103//98 94//38 104//98
f 102//10 106//5 98//5
f 98//3 106//3 102//9
f 103//6 98//5 106//5
f 106//3 98//3 103//4
f 105//1 95//1 104//1
f 104//2 95//2 105//2
f 105//101 107//99 100//99
f 100//100 107//100 105//102
f 101//95 100//99 107//99
f 107//100 100//100 101//96
f 102//10 101//13 107//10
f 107//9 101//12 102//9
f 106//101 104//97 103//97
f 103//98 104//98 106//102
f 106//5 102//10 107//10
f 107//9 102//9 106//3
f 104//97 106//101 105//101
f 105//102 106//102 104//98
f 107//99 105//101 106//101
f 106//102 105//102 107//100
