# SSTK version 0.8.0
# 4
mtllib original-4.mtl
o mesh4/mesh4-geometry#mesh4-geometry
v -0.044402 0.867529 0.010383
v -0.039218 0.694173 0.016228
v -0.036961 0.867529 0.018787
v -0.044402 0.694173 0.010383
v -0.036961 0.694173 0.018787
v -0.027584 0.867529 0.024981
v -0.030437 0.694173 0.023092
v -0.027584 0.694173 0.024981
v -0.016936 0.867529 0.028533
v -0.016936 0.694173 0.028533
v -0.020169 0.694173 0.027456
v -0.005717 0.867529 0.029212
v -0.005717 0.694173 0.029212
v -0.009131 0.694173 0.029009
v 0.005285 0.867529 0.026969
v 0.005285 0.694173 0.026969
v 0.001942 0.694173 0.027650
v 0.015332 0.867529 0.021943
v 0.012276 0.694173 0.023468
v 0.015332 0.694173 0.021943
vn -0.8286303871658611 0 0.5597961070473382
vn -0.7484736820271954 0 0.6631644949125766
vn -0.6555101585368653 0 0.7551863558453461
vn 0.8286303871658611 0 -0.5597961070473382
vn 0.7484736820271954 0 -0.6631644949125766
vn 0.6555101585368653 0 -0.7551863558453461
vn -0.43771715015738044 0 0.8991127273362898
vn 0.43771715015738044 0 -0.8991127273362898
vn -0.551330377460994 0 0.8342870099005005
vn 0.551330377460994 0 -0.8342870099005005
vn -0.19009516573101698 0 0.9817656685613412
vn 0.19009516573101698 0 -0.9817656685613412
vn 0.3166150645885006 0 -0.9485541106735134
vn 0.07048143903559956 0 0.9975130910175921
vn -0.3166150645885006 0 0.9485541106735134
vn -0.07048143903559956 0 -0.9975130910175921
vn 0.06032244695116601 0 -0.9981789430727458
vn 0.3262554824027197 0 0.9452816300987599
vn -0.06032244695116601 0 0.9981789430727458
vn -0.3262554824027197 0 -0.9452816300987599
vn -0.20008028891379953 0 -0.9797795047806269
vn 0.5597961070473381 0 0.8286303871658612
vn 0.20008028891379953 0 0.9797795047806269
vn 0.4468485064298655 0 0.894609642414723
vn -0.5597961070473381 0 -0.8286303871658612
vn -0.4468485064298655 0 -0.894609642414723
usemtl material_0_0
f 1//1 2//2 3//3
f 4//4 1//4 2//5
f 3//6 2//5 1//4
f 3//3 2//2 5//3
f 5//6 2//5 3//6
f 5//3 6//7 3//3
f 3//6 6//8 5//6
f 7//9 6//7 5//3
f 8//8 7//10 6//8
f 5//6 6//8 7//10
f 8//7 9//11 6//7
f 6//7 7//9 8//7
f 6//8 9//12 8//8
f 10//12 11//13 9//12
f 8//8 9//12 11//13
f 10//11 12//14 9//11
f 9//11 11//15 10//11
f 11//15 9//11 8//7
f 13//16 14//17 12//16
f 10//12 12//16 14//17
f 9//12 12//16 10//12
f 13//14 15//18 12//14
f 12//14 14//19 13//14
f 14//19 12//14 10//11
f 16//20 17//21 15//20
f 13//16 15//20 17//21
f 12//16 15//20 13//16
f 16//18 18//22 15//18
f 15//18 17//23 16//18
f 19//24 18//22 16//18
f 17//23 15//18 13//14
f 15//20 18//25 16//20
f 20//25 19//26 18//25
f 16//20 18//25 19//26
f 18//22 19//24 20//22
